<svg id="Layer_1" data-name="Layer 1" xmlns="http://www.w3.org/2000/svg" xmlns:xlink="http://www.w3.org/1999/xlink" viewBox="0 0 50 50"><defs><linearGradient id="linear-gradient" y1="25" x2="50" y2="25" gradientUnits="userSpaceOnUse"><stop offset="0" stop-color="#ec008c"/><stop offset="1" stop-color="#ea667e"/></linearGradient><linearGradient id="linear-gradient-2" x1="35.77" y1="-146.54" x2="21.43" y2="-122.82" gradientTransform="matrix(1, 0, 0, -1, 0, -107.35)" gradientUnits="userSpaceOnUse"><stop offset="0" stop-color="#662d91"/><stop offset="1" stop-color="#726cb2"/></linearGradient><linearGradient id="linear-gradient-3" x1="20.73" y1="-130.53" x2="13.79" y2="-119.05" gradientTransform="matrix(1, 0, 0, -1, 0, -107.35)" xlink:href="#linear-gradient"/></defs><circle cx="25" cy="25" r="25" fill="url(#linear-gradient)"/><path d="M18.39,12.3h6.92a2.47,2.47,0,0,1,2.44,2.56c0,.53,0,1.07,0,1.6,0,.19.05.25.24.25q3.59,0,7.19,0H37.7a3.22,3.22,0,0,1,3.06,2.13A3.38,3.38,0,0,1,41,20.06V32.57a3.35,3.35,0,0,1-2.26,3.27,4,4,0,0,1-1.37.15c-.26,0-.26,0-.26.26v4c0,.4-.22.62-.57.6a.5.5,0,0,1-.33-.2l-2.74-2.86-1.63-1.71a.36.36,0,0,0-.16-.11.58.58,0,0,0-.19,0H18.32a3.12,3.12,0,0,1-2.89-1.77,3.33,3.33,0,0,1-.38-1.64V27.41c0-.07,0-.16,0-.19s-.12.06-.16.11l-2.1,2.2c-.12.12-.23.26-.43.26a.48.48,0,0,1-.53-.54c0-.77,0-1.54,0-2.31,0-.2.07-.44,0-.58s-.34-.05-.52-.07a2.35,2.35,0,0,1-1.32-.55,2.58,2.58,0,0,1-.79-1.24A3.18,3.18,0,0,1,9,23.68V14.94a2.54,2.54,0,0,1,1.45-2.43,2.23,2.23,0,0,1,.95-.21Z" fill="#fff"/><path d="M28,17.75h9.62a2.21,2.21,0,0,1,2.18,1.44A2.56,2.56,0,0,1,40,20c0,.13,0,.26,0,.39v12a2.5,2.5,0,0,1-.27,1.26,2.15,2.15,0,0,1-1.89,1.23c-.38,0-.76,0-1.13,0a.54.54,0,0,0-.6.62c0,1.09,0,2.18,0,3.28,0,.06,0,.15,0,.18s-.1,0-.15-.1l-3.6-3.77A.54.54,0,0,0,32.1,35a.6.6,0,0,0-.26,0H18.39a2.22,2.22,0,0,1-1.79-.79A2.36,2.36,0,0,1,16,32.53V20.09a2.27,2.27,0,0,1,.21-1,2.19,2.19,0,0,1,.63-.81,2.13,2.13,0,0,1,1.4-.5c.71,0,1.42,0,2.13,0Z" fill="url(#linear-gradient-2)"/><path d="M18.41,13.34h6.85a1.42,1.42,0,0,1,1.3.75,1.34,1.34,0,0,1,.19.68c0,.56,0,1.13,0,1.69,0,.19,0,.25-.22.25H18.38a3.29,3.29,0,0,0-3.08,2A3.22,3.22,0,0,0,15.05,20c0,1.81,0,3.62,0,5.42a.64.64,0,0,1,0,.2.36.36,0,0,1-.11.16l-2,2.07s-.06.11-.12.08,0-.1,0-.15V25.9c0-.44-.19-.65-.6-.65-.23,0-.45,0-.67,0A1.46,1.46,0,0,1,10,23.68V14.94a1.55,1.55,0,0,1,.5-1.23,1.31,1.31,0,0,1,.93-.36h7Z" fill="url(#linear-gradient-3)"/><path d="M33,23.78a.85.85,0,0,1-.33-.51C32.74,23.44,32.86,23.61,33,23.78Z" fill="#fff"/><path d="M32.35,29.18c-.92.05-2.31.13-2.6-.54-.19-.44.24-.88.82-2.77a2.72,2.72,0,0,0,.14-.89,2.81,2.81,0,0,0-.26-1.07c-.61.91-1.18,1.78-1.77,2.63-.43.64-.65.63-1.08,0L25.94,24c-.22.12-.11.32-.11.46,0,2.49,0,5,0,7.48,0,.51,0,1-.66,1s-.7-.3-.71-1V27.16c-.35.12-.22.39-.22.58,0,1.39,0,2.78,0,4.17,0,.5,0,1-.66,1.05s-.67-.5-.67-1v-8a3.31,3.31,0,0,0-.35,1.57c0,.6,0,1.19,0,1.79,0,.31-.11.53-.42.53s-.45-.19-.46-.51a11.16,11.16,0,0,1,.25-3.41c.32-1.12.83-1.39,1.92-1.53a2.79,2.79,0,0,1,3.28,1.8,13.52,13.52,0,0,0,1.14,1.73c.45-.67.91-1.25,1.25-1.89a2.51,2.51,0,0,1,2.87-1.37A1.44,1.44,0,0,0,33,24a.18.18,0,0,1,.1.11.46.46,0,0,1,0,.2s0,.08,0,.13A5.56,5.56,0,0,0,33.15,26a13.65,13.65,0,0,0,.68,2.17.66.66,0,0,1,.08.43C33.77,29.09,32.79,29.15,32.35,29.18Z" fill="#fff"/><path d="M24.34,19.53a1.27,1.27,0,0,0-.47.09,1.48,1.48,0,0,0-.39.28,1.27,1.27,0,0,0-.33.89,1.23,1.23,0,0,0,1.16,1.29,1.28,1.28,0,0,0,.48-.09,1.22,1.22,0,0,0,.41-.27,1.36,1.36,0,0,0,.37-.91A1.22,1.22,0,0,0,24.34,19.53Zm-.46,1.84a3.18,3.18,0,0,0,.62-.07,4.62,4.62,0,0,0,.6-.19.8.8,0,0,1-.5.52.73.73,0,0,1-.39,0A.71.71,0,0,1,23.88,21.37Z" fill="#fff"/><path d="M32.65,20.14a1.13,1.13,0,0,0-.68-.27,1.3,1.3,0,0,0-.74.21,1.45,1.45,0,0,0-.5.62,1.42,1.42,0,0,0,.05,1.12,1.36,1.36,0,0,0,2,.37,1.1,1.1,0,0,0,.29-.5A1.47,1.47,0,0,0,32.65,20.14Zm-1.6,1.21a2.64,2.64,0,0,0,.61.23,3.51,3.51,0,0,0,.65.09.74.74,0,0,1-.76.22A.84.84,0,0,1,31.05,21.35Z" fill="#fff"/><path d="M33,32.2a.86.86,0,0,1-.19.63.52.52,0,0,1-.4.11.47.47,0,0,1-.35-.13.79.79,0,0,1-.18-.6c0-1.73-.21-2.64.28-2.89a.59.59,0,0,1,.52,0C33.13,29.52,33,30.13,33,32.2Z" fill="#fff"/><path d="M31.66,32.18a.82.82,0,0,1-.18.62.59.59,0,0,1-.4.12.55.55,0,0,1-.36-.13.83.83,0,0,1-.17-.6c.05-1.72-.21-2.62.28-2.87a.58.58,0,0,1,.26-.06.57.57,0,0,1,.25.06C31.75,29.52,31.63,30.12,31.66,32.18Z" fill="#fff"/><path d="M33.46,25.94a9.06,9.06,0,0,1-.24-1.51.47.47,0,0,1,.09-.33.35.35,0,0,1,.22-.12l.08,0h0a.41.41,0,0,1,.21.1.39.39,0,0,1,.13.21,14.45,14.45,0,0,1,.4,2.78c0,.15,0,.45-.14.56a.45.45,0,0,1-.19.05.41.41,0,0,1-.19-.05C33.53,27.44,33.71,26.94,33.46,25.94Z" fill="#fff"/><path d="M33,23.78a.85.85,0,0,1-.33-.51.94.94,0,0,1-.06-.3c0-.19,0-.3,0-.43a.47.47,0,0,0-.13-.15l.18-.23c.32-.45.32-.78.45-.8s.33.31.39.68c.11.67-.33,1.06-.14,1.51a.8.8,0,0,0,.33.35A1.24,1.24,0,0,1,33,23.78Z" fill="#fff"/><path d="M15.85,15.29a.79.79,0,0,1-.14.44.75.75,0,0,1-1.17.1.77.77,0,0,1-.21-.41.81.81,0,0,1,.05-.46.8.8,0,0,1,.27-.36.83.83,0,0,1,.43-.13.63.63,0,0,1,.3,0,.72.72,0,0,1,.25.18.77.77,0,0,1,.17.27A.86.86,0,0,1,15.85,15.29Z" fill="#fff"/><path d="M22.45,15.27a.81.81,0,0,1-.06.31.63.63,0,0,1-.16.26A.53.53,0,0,1,22,16a.72.72,0,0,1-.29.06.74.74,0,0,1-.54-.23.79.79,0,0,1-.23-.57.82.82,0,0,1,.22-.56.7.7,0,0,1,.54-.24.63.63,0,0,1,.3,0,.85.85,0,0,1,.25.17,1,1,0,0,1,.17.27A1.12,1.12,0,0,1,22.45,15.27Z" fill="#fff"/><path d="M19.15,15.27a.84.84,0,0,1-.21.58.76.76,0,0,1-.26.18.73.73,0,0,1-.29.07.73.73,0,0,1-.3-.07.64.64,0,0,1-.25-.18.69.69,0,0,1-.17-.27,1.06,1.06,0,0,1-.05-.31,1.13,1.13,0,0,1,.05-.32.65.65,0,0,1,.17-.26.64.64,0,0,1,.25-.18.6.6,0,0,1,.3-.07.59.59,0,0,1,.29.07.76.76,0,0,1,.42.44A.86.86,0,0,1,19.15,15.27Z" fill="#fff"/></svg>