<svg id="Layer_1" data-name="Layer 1" xmlns="http://www.w3.org/2000/svg" xmlns:xlink="http://www.w3.org/1999/xlink" viewBox="0 0 80 70"><defs><linearGradient id="linear-gradient" x1="61.9" y1="15.7" x2="31.93" y2="65.29" gradientTransform="matrix(1, 0, 0, -1, 0, 72)" gradientUnits="userSpaceOnUse"><stop offset="0" stop-color="#662d91"/><stop offset="1" stop-color="#726cb2"/></linearGradient><linearGradient id="linear-gradient-2" x1="30.47" y1="49.18" x2="15.96" y2="73.17" gradientTransform="matrix(1, 0, 0, -1, 0, 72)" gradientUnits="userSpaceOnUse"><stop offset="0" stop-color="#ec008c"/><stop offset="1" stop-color="#ea667e"/></linearGradient><linearGradient id="linear-gradient-3" x1="59.14" y1="7.29" x2="65.81" y2="7.29" gradientTransform="matrix(1, 0, 0, -1, 0, 72)" gradientUnits="userSpaceOnUse"><stop offset="0" stop-color="#ea667e"/><stop offset="1" stop-color="#ec008c"/></linearGradient><linearGradient id="linear-gradient-4" x1="1.58" y1="9.87" x2="13.42" y2="9.87" xlink:href="#linear-gradient-2"/><linearGradient id="linear-gradient-5" x1="8.45" y1="9.7" x2="13.33" y2="9.7" xlink:href="#linear-gradient-2"/></defs><path d="M25.57.09H40a5.15,5.15,0,0,1,5.11,5.36c0,1.11,0,2.22,0,3.33,0,.41.1.53.5.52q7.51,0,15,0c1.76,0,3.52,0,5.27,0a6.74,6.74,0,0,1,6.4,4.47,7.09,7.09,0,0,1,.46,2.54q0,13.08,0,26.14a7,7,0,0,1-4.72,6.84,8,8,0,0,1-2.87.31c-.54,0-.54,0-.54.56v8.43c0,.85-.46,1.31-1.2,1.26a1.12,1.12,0,0,1-.69-.42l-5.71-6q-1.71-1.79-3.41-3.58a.91.91,0,0,0-.33-.22.79.79,0,0,0-.4,0H25.43a6.55,6.55,0,0,1-6.05-3.71,7,7,0,0,1-.79-3.44V31.67c0-.13.08-.32-.06-.39s-.24.13-.34.23L13.8,36.1a1.36,1.36,0,0,1-.89.56,1,1,0,0,1-1.12-1.14c0-1.61,0-3.22,0-4.84,0-.41.15-.91-.07-1.21s-.72-.1-1.1-.13a5,5,0,0,1-2.75-1.16A5.36,5.36,0,0,1,6.22,25.6,5.9,5.9,0,0,1,6,23.88Q6,14.75,6,5.61A5.24,5.24,0,0,1,9,.54a4.26,4.26,0,0,1,2-.45C15.85.09,20.71.1,25.57.09Z" fill="#fff"/><path d="M45.69,11.47h20.1a4.62,4.62,0,0,1,4.55,3,5.38,5.38,0,0,1,.35,1.73,7.3,7.3,0,0,1,0,.81V42.19a5.49,5.49,0,0,1-.56,2.64,4.53,4.53,0,0,1-4,2.56,23.42,23.42,0,0,1-2.37,0,1.14,1.14,0,0,0-1.25,1.3c0,2.28,0,4.57,0,6.85,0,.13.08.32-.06.39s-.22-.11-.31-.21l-7.54-7.89a1.09,1.09,0,0,0-.44-.33,1.11,1.11,0,0,0-.54-.1H25.57a4.66,4.66,0,0,1-3.74-1.65,4.94,4.94,0,0,1-1.17-3.36v-26a4.82,4.82,0,0,1,.44-2.15,4.71,4.71,0,0,1,1.32-1.7,4.43,4.43,0,0,1,2.92-1H45.69Z" fill="url(#linear-gradient)"/><path d="M25.6,2.27H39.94a3,3,0,0,1,2.71,1.56A2.77,2.77,0,0,1,43,5.24c0,1.19,0,2.37,0,3.55,0,.39-.09.51-.47.51h-17a6.87,6.87,0,0,0-6.45,4.26,7.17,7.17,0,0,0-.51,2.64c0,3.78,0,7.55,0,11.33a1,1,0,0,1-.06.41,1,1,0,0,1-.23.35l-4.13,4.3c-.07.08-.11.24-.24.18s-.06-.21-.06-.32V28.51c0-.91-.41-1.34-1.27-1.35-.46,0-.92,0-1.39,0a3.06,3.06,0,0,1-3.14-3.29c0-3.45,0-6.9,0-10.35V5.6A3.23,3.23,0,0,1,9.13,3a2.85,2.85,0,0,1,1.94-.76H25.6Z" fill="url(#linear-gradient-2)"/><path d="M56,24.09A1.72,1.72,0,0,1,55.34,23C55.56,23.38,55.82,23.73,56,24.09Z" fill="#fff"/><path d="M54.76,35.37c-1.94.11-4.84.27-5.45-1.13-.4-.92.51-1.84,1.73-5.79a5.5,5.5,0,0,0,.28-1.85,5.76,5.76,0,0,0-.54-2.24c-1.27,1.9-2.47,3.71-3.69,5.51-.9,1.31-1.36,1.31-2.26,0-1.16-1.73-2.31-3.48-3.48-5.24-.45.25-.22.66-.22,1q0,7.83,0,15.65c0,1.05-.11,2-1.38,2.06-1,.06-1.48-.63-1.48-2.13,0-3.31,0-6.63,0-10-.75.26-.48.82-.48,1.21,0,2.91,0,5.81,0,8.72,0,1.05,0,2.17-1.36,2.19S35,42.23,35,41.14c0-5.48,0-11,0-16.77a7.2,7.2,0,0,0-.74,3.3c-.06,1.24,0,2.49,0,3.73,0,.66-.23,1.11-.89,1.12s-.94-.42-1-1.07a23.79,23.79,0,0,1,.54-7.14c.65-2.33,1.72-2.9,4-3.2,3.24-.43,5.45.63,6.87,3.77a25.94,25.94,0,0,0,2.37,3.61,44,44,0,0,0,2.61-3.95c1.34-2.61,3.46-3.16,6-2.86a3,3,0,0,0,1.3,2.91.43.43,0,0,1,.2.22c0,.08,0,.14,0,.43,0,.08,0,.17,0,.28a11.41,11.41,0,0,0,.2,3.27,28.31,28.31,0,0,0,1.41,4.53,1.33,1.33,0,0,1,.17.91C57.72,35.19,55.67,35.31,54.76,35.37Z" fill="#fff"/><path d="M38,15.21a2.26,2.26,0,0,0-1,.19,2.33,2.33,0,0,0-.82.57,2.62,2.62,0,0,0-.54.86,2.64,2.64,0,0,0-.16,1A2.56,2.56,0,0,0,38,20.53a2.49,2.49,0,0,0,1.85-.75,2.6,2.6,0,0,0,.58-.87,2.82,2.82,0,0,0,.2-1A2.54,2.54,0,0,0,38,15.21Zm-.94,3.85a7.61,7.61,0,0,0,2.53-.54,1.64,1.64,0,0,1-1,1.07,1.47,1.47,0,0,1-.83,0A1.41,1.41,0,0,1,37.06,19.06Z" fill="#fff"/><path d="M55.39,16.48A2.47,2.47,0,0,0,54,15.91a2.59,2.59,0,0,0-1.54.45,2.9,2.9,0,0,0-1,1.28,3,3,0,0,0,.1,2.35,2.84,2.84,0,0,0,4.1.77,2.32,2.32,0,0,0,.61-1.05A3.11,3.11,0,0,0,55.39,16.48ZM52,19a6.92,6.92,0,0,0,1.27.48,6.18,6.18,0,0,0,1.36.18,1.51,1.51,0,0,1-.73.47,1.4,1.4,0,0,1-.86,0A1.67,1.67,0,0,1,52,19Z" fill="#fff"/><path d="M56.19,41.69A1.77,1.77,0,0,1,55.8,43a1.15,1.15,0,0,1-.83.24,1.08,1.08,0,0,1-.74-.27,1.63,1.63,0,0,1-.37-1.27c.1-3.6-.45-5.51.58-6a1.28,1.28,0,0,1,1.08,0C56.37,36.09,56.12,37.35,56.19,41.69Z" fill="#fff"/><path d="M53.32,41.65a1.74,1.74,0,0,1-.39,1.3,1.35,1.35,0,0,1-1.58,0A1.68,1.68,0,0,1,51,41.66c.1-3.58-.45-5.47.58-6a1.27,1.27,0,0,1,1.08,0C53.49,36.08,53.24,37.34,53.32,41.65Z" fill="#fff"/><path d="M57.08,28.6a20.33,20.33,0,0,1-.52-3.16,1,1,0,0,1,.2-.69.78.78,0,0,1,.46-.25l.17,0h0a.81.81,0,0,1,.46.21.83.83,0,0,1,.26.44,29.83,29.83,0,0,1,.84,5.8c0,.32,0,.94-.31,1.18a.87.87,0,0,1-.39.1.9.9,0,0,1-.39-.1C57.23,31.74,57.6,30.69,57.08,28.6Z" fill="#fff"/><path d="M56,24.09A1.72,1.72,0,0,1,55.34,23a2.65,2.65,0,0,1-.14-.62c0-.41.07-.64-.06-.91a.8.8,0,0,0-.27-.31,3.48,3.48,0,0,0,.38-.48c.67-.95.68-1.64,1-1.67s.69.65.81,1.41c.24,1.42-.7,2.22-.29,3.16a1.65,1.65,0,0,0,.69.74A2.66,2.66,0,0,1,56,24.09Z" fill="#fff"/><path d="M20.26,6.33a1.84,1.84,0,0,1-.28.92,1.64,1.64,0,0,1-.73.6,1.53,1.53,0,0,1-.92.09,1.61,1.61,0,0,1-.81-.46,1.75,1.75,0,0,1-.34-1.82,1.61,1.61,0,0,1,.58-.75,1.5,1.5,0,0,1,.88-.29,1.54,1.54,0,0,1,.64.11,1.64,1.64,0,0,1,.53.37,1.87,1.87,0,0,1,.35.57A1.66,1.66,0,0,1,20.26,6.33Z" fill="#fff"/><path d="M34.05,6.3a1.62,1.62,0,0,1-.11.65,1.46,1.46,0,0,1-.34.54,1.43,1.43,0,0,1-.52.36,1.28,1.28,0,0,1-.61.12,1.54,1.54,0,0,1-1.14-.48,1.76,1.76,0,0,1-.48-1.18,1.73,1.73,0,0,1,.47-1.19,1.52,1.52,0,0,1,1.12-.5,1.48,1.48,0,0,1,1.16.48,1.42,1.42,0,0,1,.34.55A1.62,1.62,0,0,1,34.05,6.3Z" fill="#fff"/><path d="M27.16,6.3a1.62,1.62,0,0,1-.11.65,1.66,1.66,0,0,1-.34.57,1.71,1.71,0,0,1-.52.37,1.47,1.47,0,0,1-1.25,0,1.64,1.64,0,0,1-.53-.37A1.84,1.84,0,0,1,24.07,7a2,2,0,0,1,0-1.31,1.68,1.68,0,0,1,.34-.56,1.66,1.66,0,0,1,.53-.38,1.57,1.57,0,0,1,1.25,0,1.74,1.74,0,0,1,.52.38,1.53,1.53,0,0,1,.34.56A1.64,1.64,0,0,1,27.16,6.3Z" fill="#fff"/><path d="M19.82,67.86v-8h2.52l1.07,4.42c0,.13.08.3.12.5s.07.41.11.61.09.43.13.7h.06c0-.28.08-.52.11-.73l.11-.61c0-.19.06-.35.09-.47l1.07-4.42h2.41v8H26v-5.1c0-.09,0-.21,0-.35L26,62a4.92,4.92,0,0,1,0-.51H26c0,.1-.05.2-.08.31a3,3,0,0,1-.07.32c0,.1-.06.21-.08.31l-1.33,5.45H22.92L21.6,62.41c0-.1-.05-.21-.08-.31a3,3,0,0,1-.08-.32,2.81,2.81,0,0,0-.08-.31h-.05c0,.2,0,.38,0,.52s0,.29,0,.43,0,.25,0,.33v5.11Z" fill="#6d4da2"/><path d="M31.08,68a3.31,3.31,0,0,1-.55-.06,2.28,2.28,0,0,1-.61-.24,1.5,1.5,0,0,1-.48-.52,2,2,0,0,1-.19-.91,1.83,1.83,0,0,1,.1-.7,1.75,1.75,0,0,1,.36-.6A2.49,2.49,0,0,1,31,64.29a8.13,8.13,0,0,1,1.85-.2v-.43a1.2,1.2,0,0,0-.07-.42.52.52,0,0,0-.24-.32.94.94,0,0,0-.52-.11,1.44,1.44,0,0,0-.58.09.72.72,0,0,0-.29.2.5.5,0,0,0-.08.26v.17H29.56a.41.41,0,0,1,0-.11v-.15A1.46,1.46,0,0,1,30.2,62a2.91,2.91,0,0,1,1.73-.46,2.72,2.72,0,0,1,1.83.52,1.89,1.89,0,0,1,.45.66,1.87,1.87,0,0,1,.13.81v2.71a.38.38,0,0,0,0,.18.42.42,0,0,0,.09.14.46.46,0,0,0,.27.09h.32v1.13c-.12,0-.23.09-.35.12a1.6,1.6,0,0,1-.54.06,1.31,1.31,0,0,1-.76-.21,1.1,1.1,0,0,1-.42-.59h-.07a2.18,2.18,0,0,1-.7.58A2.34,2.34,0,0,1,31.08,68Zm.48-1.26a1.38,1.38,0,0,0,.73-.19,1.14,1.14,0,0,0,.39-.5,1.94,1.94,0,0,0,.13-.71v-.18a6.46,6.46,0,0,0-1,.07,1.86,1.86,0,0,0-.74.28.67.67,0,0,0-.22.25.63.63,0,0,0-.06.33.69.69,0,0,0,0,.25.6.6,0,0,0,.14.21.68.68,0,0,0,.26.15A.65.65,0,0,0,31.56,66.74Z" fill="#6d4da2"/><path d="M38.07,68a1.56,1.56,0,0,1-.94-.24,1.26,1.26,0,0,1-.47-.62,2.35,2.35,0,0,1-.14-.79V63h-.7V61.71h.74L36.81,60h1.24v1.74h1V63h-1v3.17a.44.44,0,0,0,0,.2.4.4,0,0,0,.1.17.45.45,0,0,0,.17.11.41.41,0,0,0,.19,0h.54v1.12a3.59,3.59,0,0,1-.47.12A2.41,2.41,0,0,1,38.07,68Z" fill="#6d4da2"/><path d="M40.77,67.86V61.71h1.3l.13,1h.07a2.48,2.48,0,0,1,.47-.8,1,1,0,0,1,.38-.26,1,1,0,0,1,.45-.07,2,2,0,0,1,.58.1v1.5h-.43a1.55,1.55,0,0,0-.82.19,1.2,1.2,0,0,0-.46.58,2.81,2.81,0,0,0-.14,1v3Z" fill="#6d4da2"/><path d="M45.67,60.85V59.41h1.52v1.44Zm0,7V61.71h1.52v6.15Z" fill="#6d4da2"/><path d="M49.33,67.86V61.71h1.31l.11.81h.09a2.48,2.48,0,0,1,.66-.67,1.78,1.78,0,0,1,1-.28,1.84,1.84,0,0,1,.92.22,1.5,1.5,0,0,1,.63.73h.08a2.78,2.78,0,0,1,.7-.67,2,2,0,0,1,1.05-.28,1.89,1.89,0,0,1,.93.21,1.5,1.5,0,0,1,.66.68,2.9,2.9,0,0,1,.24,1.27v4.13H56.18V64.07a1.17,1.17,0,0,0-.24-.84.87.87,0,0,0-.28-.19,1,1,0,0,0-.34-.06.87.87,0,0,0-.42.1,1,1,0,0,0-.33.29,1.55,1.55,0,0,0-.28.93v3.56H52.76V64.07a1.22,1.22,0,0,0-.23-.84.91.91,0,0,0-.29-.19A1,1,0,0,0,51.9,63a.9.9,0,0,0-.42.1,1,1,0,0,0-.33.29,1.55,1.55,0,0,0-.29.93v3.56Z" fill="#6d4da2"/><path d="M67.2,67.86V61.71h1.3l.11.81h.08a2.9,2.9,0,0,1,.73-.67,2,2,0,0,1,1.11-.28,2.2,2.2,0,0,1,1,.21,1.51,1.51,0,0,1,.69.68,2.78,2.78,0,0,1,.25,1.27v4.13H70.94V64.07a.93.93,0,0,0-1-1.09,1.11,1.11,0,0,0-.61.18,1.22,1.22,0,0,0-.43.47,1.43,1.43,0,0,0-.15.67v3.56Z" fill="#6d4da2"/><path d="M75.47,70a4.67,4.67,0,0,1-1-.15V68.71h.73a1,1,0,0,0,.63-.2,1.48,1.48,0,0,0,.41-.65l-2.3-6.15h1.59l1.11,2.89c0,.14.1.29.14.44s.09.36.13.54.09.38.14.62h.06c0-.23.1-.43.14-.6s.09-.35.14-.52.09-.33.13-.47l.87-2.9h1.55l-2,5.84a7.65,7.65,0,0,1-.53,1.21,2.51,2.51,0,0,1-.76.89A1.92,1.92,0,0,1,75.47,70Z" fill="#6d4da2"/><path d="M65.81,63.36a1.88,1.88,0,0,1-.47,1.27l-.61.7-2.25,2.53-2.87-3.23a1.93,1.93,0,0,1-.47-1.26,2,2,0,0,1,.47-1.27,1.48,1.48,0,0,1,.51-.39,1.44,1.44,0,0,1,1.24,0,1.58,1.58,0,0,1,.51.39l.61.68.61-.69a1.39,1.39,0,0,1,.51-.39,1.42,1.42,0,0,1,1.23,0,1.39,1.39,0,0,1,.51.39A1.9,1.9,0,0,1,65.81,63.36Z" fill="url(#linear-gradient-3)"/><path d="M1.58,67.66l9.58-11.12,2.26,0c0,.41,0,.83,0,1.25l-8.53,9.9Z" fill="url(#linear-gradient-4)"/><path d="M10.56,61.07h2.77v2.46H8.45Z" fill="url(#linear-gradient-5)"/><path d="M11.51,56.23l4.34-4.72,0,16.21H13.6l.15-11.47Z" fill="#6d4da2"/></svg>