<svg xmlns="http://www.w3.org/2000/svg" xmlns:xlink="http://www.w3.org/1999/xlink" width="1080" zoomAndPan="magnify" viewBox="0 0 810 1439.999935" height="1920" preserveAspectRatio="xMidYMid meet" version="1.0"><defs><g/><clipPath id="457506de4a"><path d="M 93.035156 156.570312 L 144 156.570312 L 144 253.320312 L 93.035156 253.320312 Z M 93.035156 156.570312 " clip-rule="nonzero"/></clipPath></defs><rect x="-81" width="972" fill="#ffffff" y="-143.999994" height="1727.999922" fill-opacity="1"/><rect x="-81" width="972" fill="#ffffff" y="-143.999994" height="1727.999922" fill-opacity="1"/><rect x="-81" width="972" fill="#000000" y="-143.999994" height="1727.999922" fill-opacity="1"/><path fill="#ffde59" d="M 352.644531 1100.550781 L 379.0625 1076.664062 L 412.109375 1026.300781 L 425.832031 983.910156 L 451.085938 973.378906 L 463.457031 999.183594 L 423.726562 1060.304688 L 362.601562 1107.667969 L 352.644531 1100.550781 " fill-opacity="1" fill-rule="nonzero"/><path fill="#5ce1e6" d="M 372.539062 1096.070312 L 398.144531 1068.691406 L 436.710938 1011.964844 L 456.421875 959.042969 L 501.941406 938.859375 L 520 973.378906 L 446.28125 1074.824219 L 377.878906 1107.667969 L 372.539062 1096.070312 " fill-opacity="1" fill-rule="nonzero"/><path fill="#38b6ff" d="M 389.757812 1090.695312 L 438.550781 1052.84375 L 481.472656 985.648438 L 508.589844 923.664062 L 558.199219 907.621094 L 565.824219 962.519531 L 469.570312 1100.550781 L 389.757812 1090.695312 " fill-opacity="1" fill-rule="nonzero"/><path fill="#ff43b7" d="M -5.742188 1323.527344 L 112.304688 1214.164062 L 122.550781 1085.191406 L 200.625 984.316406 L 282.503906 887.164062 L 319.535156 903.335938 L 296.878906 1005.09375 L 248.761719 1064.683594 L 271.808594 1120.488281 L 408.960938 1086.625 L 491.472656 1030.820312 L 536.992188 953.972656 L 581.121094 857.507812 L 622.859375 878.121094 L 591.203125 1010.636719 L 524.703125 1122.65625 L 439.019531 1212.101562 L 308.617188 1296.167969 L 245.898438 1323.117188 L 168.417969 1440.617188 L -5.742188 1440.617188 L -5.742188 1323.527344 " fill-opacity="1" fill-rule="nonzero"/><path fill="#ffde59" d="M 661.011719 521.472656 L 634.589844 545.355469 L 601.546875 595.722656 L 587.824219 638.113281 L 562.570312 648.644531 L 550.199219 622.835938 L 589.929688 561.714844 L 651.054688 514.355469 L 661.011719 521.472656 " fill-opacity="1" fill-rule="nonzero"/><path fill="#ff66c4" d="M 641.113281 525.949219 L 615.511719 553.332031 L 576.945312 610.058594 L 557.234375 662.980469 L 511.714844 683.164062 L 493.65625 648.644531 L 567.375 547.195312 L 635.777344 514.355469 L 641.113281 525.949219 " fill-opacity="1" fill-rule="nonzero"/><path fill="#e50ac2" d="M 623.898438 531.328125 L 575.105469 569.179688 L 532.183594 636.375 L 505.066406 698.355469 L 455.457031 714.398438 L 447.828125 659.503906 L 544.085938 521.472656 L 623.898438 531.328125 " fill-opacity="1" fill-rule="nonzero"/><path fill="#38b6ff" d="M 1019.398438 298.492188 L 901.351562 407.855469 L 891.105469 536.828125 L 813.03125 637.703125 L 731.152344 734.855469 L 694.117188 718.6875 L 716.777344 616.925781 L 764.894531 557.339844 L 741.847656 501.535156 L 604.695312 535.398438 L 522.183594 591.203125 L 476.664062 668.050781 L 432.535156 764.515625 L 390.796875 743.898438 L 422.453125 611.386719 L 488.953125 499.367188 L 574.636719 409.921875 L 705.039062 325.855469 L 767.757812 298.902344 L 845.238281 181.402344 L 1019.398438 181.402344 L 1019.398438 298.496094 " fill-opacity="1" fill-rule="nonzero"/><path stroke-linecap="butt" transform="matrix(0.00960603, -0.749568, 0.749938, 0.00961078, 113.849195, 514.610743)" fill="none" stroke-linejoin="miter" d="M -0.00101184 0.998044 L 348.173478 1.002151 " stroke="#ffffff" stroke-width="2" stroke-opacity="1" stroke-miterlimit="4"/><g clip-path="url(#457506de4a)"><path fill="#ffffff" d="M 137.945312 186.75 C 134.316406 195.363281 130.890625 203.503906 134.335938 214.84375 C 138.824219 229.625 139.671875 240.976562 137.0625 251.574219 C 134.050781 251.945312 128.070312 252.1875 120.886719 252.234375 C 120.589844 252.238281 120.34375 252.476562 120.332031 252.777344 L 120.246094 254.933594 C 120.242188 255.03125 120.164062 255.105469 120.066406 255.105469 C 119.753906 255.105469 119.503906 255.359375 119.503906 255.671875 L 119.503906 333.929688 C 119.503906 334.46875 119.070312 334.90625 118.535156 334.90625 C 118 334.90625 117.5625 334.46875 117.5625 333.929688 L 117.5625 255.671875 C 117.5625 255.359375 117.3125 255.105469 117.003906 255.105469 C 116.90625 255.105469 116.824219 255.03125 116.820312 254.933594 L 116.738281 252.777344 C 116.726562 252.476562 116.480469 252.238281 116.179688 252.234375 C 109 252.1875 103.015625 251.945312 100.003906 251.574219 C 97.398438 240.976562 98.242188 229.625 102.734375 214.84375 C 106.179688 203.503906 102.75 195.363281 99.121094 186.75 C 98.136719 184.414062 97.121094 182 96.238281 179.5 C 94.625 174.917969 94.222656 172.523438 94.902344 171.484375 C 95.496094 170.570312 97.195312 170.449219 99.550781 170.28125 C 100.769531 170.191406 102.152344 170.09375 103.71875 169.867188 C 112.472656 168.613281 113.082031 161.21875 113.085938 161.144531 C 113.089844 161.128906 113.089844 161.117188 113.089844 161.105469 L 113.089844 157.808594 L 123.980469 157.808594 L 123.980469 161.105469 C 123.980469 161.117188 123.980469 161.128906 123.980469 161.144531 C 123.984375 161.21875 124.59375 168.613281 133.351562 169.867188 C 134.914062 170.09375 136.300781 170.191406 137.519531 170.28125 C 139.875 170.449219 141.574219 170.570312 142.167969 171.484375 C 142.84375 172.523438 142.445312 174.917969 140.828125 179.5 C 139.949219 182 138.929688 184.414062 137.945312 186.75 Z M 143.109375 170.867188 C 142.210938 169.488281 140.277344 169.347656 137.597656 169.15625 C 136.398438 169.070312 135.035156 168.972656 133.511719 168.753906 C 125.792969 167.644531 125.140625 161.527344 125.101562 161.082031 L 125.101562 157.242188 C 125.101562 156.933594 124.851562 156.679688 124.539062 156.679688 L 112.527344 156.679688 C 112.21875 156.679688 111.964844 156.933594 111.964844 157.242188 L 111.964844 161.082031 C 111.933594 161.4375 111.238281 167.648438 103.558594 168.753906 C 102.035156 168.972656 100.671875 169.070312 99.46875 169.15625 C 96.792969 169.347656 94.859375 169.488281 93.960938 170.867188 C 93.035156 172.285156 93.367188 174.726562 95.179688 179.875 C 96.074219 182.40625 97.097656 184.839844 98.089844 187.191406 C 101.636719 195.609375 104.984375 203.566406 101.660156 214.515625 C 97.054688 229.679688 96.234375 241.308594 99.011719 252.222656 C 99.066406 252.445312 99.25 252.609375 99.476562 252.640625 C 102.324219 253.035156 108.339844 253.300781 115.636719 253.359375 L 115.699219 254.976562 C 115.71875 255.480469 116.015625 255.90625 116.441406 256.109375 L 116.441406 333.929688 C 116.441406 335.089844 117.378906 336.03125 118.535156 336.03125 C 119.6875 336.03125 120.628906 335.089844 120.628906 333.929688 L 120.628906 256.109375 C 121.050781 255.90625 121.347656 255.480469 121.367188 254.976562 L 121.429688 253.359375 C 128.730469 253.300781 134.746094 253.035156 137.589844 252.640625 C 137.816406 252.609375 138 252.445312 138.058594 252.222656 C 140.832031 241.308594 140.015625 229.679688 135.410156 214.515625 C 132.082031 203.566406 135.433594 195.609375 138.980469 187.191406 C 139.96875 184.839844 140.996094 182.40625 141.886719 179.875 C 143.703125 174.726562 144.03125 172.285156 143.109375 170.867188 " fill-opacity="1" fill-rule="nonzero"/></g><g fill="#ffffff" fill-opacity="1"><g transform="translate(133.102125, 321.832226)"><g><path d="M 20.71875 -41.125 C 26.539062 -41.125 31.003906 -39.46875 34.109375 -36.15625 C 37.210938 -32.84375 38.765625 -28.082031 38.765625 -21.875 C 38.765625 -14.6875 37.082031 -9.179688 33.71875 -5.359375 C 30.363281 -1.535156 25.539062 0.375 19.25 0.375 C 17.507812 0.375 15.394531 0.34375 12.90625 0.28125 C 10.425781 0.21875 8.125 0.125 6 0 L 5.9375 0 L 6.25 -12.3125 L 5.9375 -40.875 L 6 -40.875 Z M 20.09375 -3.890625 C 24.425781 -3.890625 27.75 -5.300781 30.0625 -8.125 C 32.382812 -10.957031 33.546875 -15.175781 33.546875 -20.78125 C 33.546875 -31.5 29.144531 -36.859375 20.34375 -36.859375 C 17.664062 -36.859375 14.582031 -36.769531 11.09375 -36.59375 L 10.84375 -12.75 L 11.03125 -4.265625 C 12.351562 -4.140625 13.9375 -4.046875 15.78125 -3.984375 C 17.632812 -3.921875 19.070312 -3.890625 20.09375 -3.890625 Z M 20.09375 -3.890625 "/></g></g></g><g fill="#ffffff" fill-opacity="1"><g transform="translate(174.290733, 321.832226)"><g><path d="M 22.578125 -16.515625 C 25.378906 -11.878906 28.90625 -6.78125 33.15625 -1.21875 L 33.09375 -0.578125 C 31.5625 0.015625 29.988281 0.398438 28.375 0.578125 L 27.671875 0.125 C 24.191406 -5.101562 21.066406 -10.203125 18.296875 -15.171875 L 10.84375 -15.171875 L 10.84375 -12.75 L 11.09375 0 L 5.9375 0 L 6.25 -12.3125 L 5.9375 -40.875 L 18.421875 -40.9375 C 22.421875 -40.9375 25.515625 -39.925781 27.703125 -37.90625 C 29.890625 -35.882812 30.984375 -33.003906 30.984375 -29.265625 C 30.984375 -26.460938 30.25 -23.941406 28.78125 -21.703125 C 27.320312 -19.472656 25.253906 -17.742188 22.578125 -16.515625 Z M 10.90625 -19.515625 L 18.5625 -19.328125 C 23.320312 -20.679688 25.703125 -23.847656 25.703125 -28.828125 C 25.703125 -31.421875 25 -33.363281 23.59375 -34.65625 C 22.1875 -35.945312 20.082031 -36.640625 17.28125 -36.734375 L 11.09375 -36.53125 Z M 10.90625 -19.515625 "/></g></g></g><g fill="#ffffff" fill-opacity="1"><g transform="translate(209.677222, 321.832226)"><g><path d="M 29.265625 -3.953125 L 28.890625 0 L 5.9375 0 L 6.25 -12.3125 L 5.9375 -40.875 L 28.953125 -40.875 L 29.203125 -40.359375 L 28.828125 -36.40625 L 19.1875 -36.59375 L 11.09375 -36.46875 L 10.96875 -23.078125 L 18.625 -22.953125 L 25.375 -23.140625 L 25.765625 -22.703125 L 25.3125 -18.75 L 18.171875 -18.875 L 10.90625 -18.8125 L 10.84375 -12.75 L 11.03125 -4.265625 L 19.125 -4.203125 L 28.953125 -4.46875 Z M 29.265625 -3.953125 "/></g></g></g><g fill="#ffffff" fill-opacity="1"><g transform="translate(240.409275, 321.832226)"><g><path d="M 35.453125 0 L 30.21875 0 L 29.265625 -4.078125 L 26.96875 -11.09375 L 17.796875 -11.28125 L 9.5 -11.09375 L 7.015625 -4.34375 L 6 0 L 0.890625 0 L 15.875 -40.875 L 21.8125 -40.875 Z M 25.5625 -15.4375 L 18.9375 -35.578125 L 18.484375 -35.578125 L 11.09375 -15.4375 L 18.234375 -15.296875 Z M 25.5625 -15.4375 "/></g></g></g><g fill="#ffffff" fill-opacity="1"><g transform="translate(277.262241, 321.832226)"><g><path d="M 46.421875 0 L 41.828125 0 L 40.875 -12.4375 L 38.703125 -32.78125 L 38.265625 -32.78125 L 26.90625 -4.71875 L 22.703125 -4.71875 L 11.921875 -32.78125 L 11.40625 -32.78125 L 9.25 -12.8125 L 8.15625 0 L 3.828125 0 L 8.09375 -40.875 L 13.90625 -40.875 L 16 -34.625 L 24.875 -11.34375 L 25.25 -11.34375 L 34.5625 -35 L 36.671875 -40.875 L 42.40625 -40.875 Z M 46.421875 0 "/></g></g></g><g fill="#ffffff" fill-opacity="1"><g transform="translate(133.102125, 394.625867)"><g><path d="M 10.84375 -12.75 L 11.09375 0 L 5.9375 0 L 6.25 -12.3125 L 5.9375 -40.875 L 11.15625 -40.875 Z M 10.84375 -12.75 "/></g></g></g><g fill="#ffffff" fill-opacity="1"><g transform="translate(150.189655, 394.625867)"><g><path d="M 20.71875 -41.125 C 26.539062 -41.125 31.003906 -39.46875 34.109375 -36.15625 C 37.210938 -32.84375 38.765625 -28.082031 38.765625 -21.875 C 38.765625 -14.6875 37.082031 -9.179688 33.71875 -5.359375 C 30.363281 -1.535156 25.539062 0.375 19.25 0.375 C 17.507812 0.375 15.394531 0.34375 12.90625 0.28125 C 10.425781 0.21875 8.125 0.125 6 0 L 5.9375 0 L 6.25 -12.3125 L 5.9375 -40.875 L 6 -40.875 Z M 20.09375 -3.890625 C 24.425781 -3.890625 27.75 -5.300781 30.0625 -8.125 C 32.382812 -10.957031 33.546875 -15.175781 33.546875 -20.78125 C 33.546875 -31.5 29.144531 -36.859375 20.34375 -36.859375 C 17.664062 -36.859375 14.582031 -36.769531 11.09375 -36.59375 L 10.84375 -12.75 L 11.03125 -4.265625 C 12.351562 -4.140625 13.9375 -4.046875 15.78125 -3.984375 C 17.632812 -3.921875 19.070312 -3.890625 20.09375 -3.890625 Z M 20.09375 -3.890625 "/></g></g></g><g fill="#ffffff" fill-opacity="1"><g transform="translate(191.378263, 394.625867)"><g><path d="M 29.265625 -3.953125 L 28.890625 0 L 5.9375 0 L 6.25 -12.3125 L 5.9375 -40.875 L 28.953125 -40.875 L 29.203125 -40.359375 L 28.828125 -36.40625 L 19.1875 -36.59375 L 11.09375 -36.46875 L 10.96875 -23.078125 L 18.625 -22.953125 L 25.375 -23.140625 L 25.765625 -22.703125 L 25.3125 -18.75 L 18.171875 -18.875 L 10.90625 -18.8125 L 10.84375 -12.75 L 11.03125 -4.265625 L 19.125 -4.203125 L 28.953125 -4.46875 Z M 29.265625 -3.953125 "/></g></g></g><g fill="#ffffff" fill-opacity="1"><g transform="translate(222.110316, 394.625867)"><g><path d="M 35.453125 0 L 30.21875 0 L 29.265625 -4.078125 L 26.96875 -11.09375 L 17.796875 -11.28125 L 9.5 -11.09375 L 7.015625 -4.34375 L 6 0 L 0.890625 0 L 15.875 -40.875 L 21.8125 -40.875 Z M 25.5625 -15.4375 L 18.9375 -35.578125 L 18.484375 -35.578125 L 11.09375 -15.4375 L 18.234375 -15.296875 Z M 25.5625 -15.4375 "/></g></g></g><g fill="#ffffff" fill-opacity="1"><g transform="translate(258.963282, 394.625867)"><g><path d="M 17.03125 -41.1875 C 19.957031 -41.1875 22.992188 -40.550781 26.140625 -39.28125 L 25.3125 -34.375 L 24.421875 -34.109375 C 23.191406 -35.046875 21.882812 -35.769531 20.5 -36.28125 C 19.113281 -36.789062 17.742188 -37.046875 16.390625 -37.046875 C 14.816406 -37.046875 13.441406 -36.726562 12.265625 -36.09375 C 11.097656 -35.457031 10.207031 -34.628906 9.59375 -33.609375 C 8.976562 -32.585938 8.671875 -31.523438 8.671875 -30.421875 C 8.671875 -29.265625 9.019531 -28.25 9.71875 -27.375 C 10.425781 -26.507812 11.3125 -25.757812 12.375 -25.125 C 13.4375 -24.488281 14.878906 -23.722656 16.703125 -22.828125 C 19.003906 -21.765625 20.851562 -20.773438 22.25 -19.859375 C 23.65625 -18.941406 24.859375 -17.78125 25.859375 -16.375 C 26.859375 -14.976562 27.359375 -13.28125 27.359375 -11.28125 C 27.359375 -9.15625 26.78125 -7.195312 25.625 -5.40625 C 24.476562 -3.625 22.863281 -2.203125 20.78125 -1.140625 C 18.695312 -0.078125 16.316406 0.453125 13.640625 0.453125 C 11.859375 0.453125 10 0.207031 8.0625 -0.28125 C 6.132812 -0.769531 4.335938 -1.484375 2.671875 -2.421875 L 3.3125 -7.65625 L 4.015625 -7.96875 C 5.503906 -6.519531 7.148438 -5.445312 8.953125 -4.75 C 10.765625 -4.050781 12.5 -3.703125 14.15625 -3.703125 C 15.769531 -3.703125 17.203125 -4.019531 18.453125 -4.65625 C 19.710938 -5.289062 20.671875 -6.140625 21.328125 -7.203125 C 21.984375 -8.265625 22.3125 -9.390625 22.3125 -10.578125 C 22.3125 -12.367188 21.628906 -13.804688 20.265625 -14.890625 C 18.910156 -15.972656 16.851562 -17.148438 14.09375 -18.421875 C 11.84375 -19.535156 10.035156 -20.523438 8.671875 -21.390625 C 7.304688 -22.265625 6.132812 -23.390625 5.15625 -24.765625 C 4.1875 -26.148438 3.703125 -27.84375 3.703125 -29.84375 C 3.703125 -31.925781 4.265625 -33.835938 5.390625 -35.578125 C 6.515625 -37.328125 8.085938 -38.695312 10.109375 -39.6875 C 12.128906 -40.6875 14.4375 -41.1875 17.03125 -41.1875 Z M 17.03125 -41.1875 "/></g></g></g><g fill="#ffffff" fill-opacity="1"><g transform="translate(133.102125, 467.419508)"><g><path d="M 20.53125 -41.1875 C 24.820312 -41.1875 28.539062 -40.164062 31.6875 -38.125 L 30.671875 -33.484375 L 30.09375 -33.34375 C 27.25 -35.726562 23.976562 -36.921875 20.28125 -36.921875 C 16.238281 -36.921875 13.132812 -35.523438 10.96875 -32.734375 C 8.800781 -29.953125 7.71875 -25.882812 7.71875 -20.53125 C 7.71875 -15.132812 8.800781 -11.007812 10.96875 -8.15625 C 13.132812 -5.3125 16.195312 -3.890625 20.15625 -3.890625 C 22.019531 -3.890625 23.875 -4.226562 25.71875 -4.90625 C 27.570312 -5.59375 29.265625 -6.550781 30.796875 -7.78125 L 31.4375 -7.453125 L 30.984375 -2.609375 C 27.285156 -0.566406 23.523438 0.453125 19.703125 0.453125 C 14.222656 0.453125 9.972656 -1.320312 6.953125 -4.875 C 3.929688 -8.425781 2.421875 -13.5 2.421875 -20.09375 C 2.421875 -26.84375 3.992188 -32.046875 7.140625 -35.703125 C 10.285156 -39.359375 14.75 -41.1875 20.53125 -41.1875 Z M 20.53125 -41.1875 "/></g></g></g><g fill="#ffffff" fill-opacity="1"><g transform="translate(166.257036, 467.419508)"><g><path d="M 22.578125 -16.515625 C 25.378906 -11.878906 28.90625 -6.78125 33.15625 -1.21875 L 33.09375 -0.578125 C 31.5625 0.015625 29.988281 0.398438 28.375 0.578125 L 27.671875 0.125 C 24.191406 -5.101562 21.066406 -10.203125 18.296875 -15.171875 L 10.84375 -15.171875 L 10.84375 -12.75 L 11.09375 0 L 5.9375 0 L 6.25 -12.3125 L 5.9375 -40.875 L 18.421875 -40.9375 C 22.421875 -40.9375 25.515625 -39.925781 27.703125 -37.90625 C 29.890625 -35.882812 30.984375 -33.003906 30.984375 -29.265625 C 30.984375 -26.460938 30.25 -23.941406 28.78125 -21.703125 C 27.320312 -19.472656 25.253906 -17.742188 22.578125 -16.515625 Z M 10.90625 -19.515625 L 18.5625 -19.328125 C 23.320312 -20.679688 25.703125 -23.847656 25.703125 -28.828125 C 25.703125 -31.421875 25 -33.363281 23.59375 -34.65625 C 22.1875 -35.945312 20.082031 -36.640625 17.28125 -36.734375 L 11.09375 -36.53125 Z M 10.90625 -19.515625 "/></g></g></g><g fill="#ffffff" fill-opacity="1"><g transform="translate(201.643526, 467.419508)"><g><path d="M 29.265625 -3.953125 L 28.890625 0 L 5.9375 0 L 6.25 -12.3125 L 5.9375 -40.875 L 28.953125 -40.875 L 29.203125 -40.359375 L 28.828125 -36.40625 L 19.1875 -36.59375 L 11.09375 -36.46875 L 10.96875 -23.078125 L 18.625 -22.953125 L 25.375 -23.140625 L 25.765625 -22.703125 L 25.3125 -18.75 L 18.171875 -18.875 L 10.90625 -18.8125 L 10.84375 -12.75 L 11.03125 -4.265625 L 19.125 -4.203125 L 28.953125 -4.46875 Z M 29.265625 -3.953125 "/></g></g></g><g fill="#ffffff" fill-opacity="1"><g transform="translate(232.375579, 467.419508)"><g><path d="M 35.453125 0 L 30.21875 0 L 29.265625 -4.078125 L 26.96875 -11.09375 L 17.796875 -11.28125 L 9.5 -11.09375 L 7.015625 -4.34375 L 6 0 L 0.890625 0 L 15.875 -40.875 L 21.8125 -40.875 Z M 25.5625 -15.4375 L 18.9375 -35.578125 L 18.484375 -35.578125 L 11.09375 -15.4375 L 18.234375 -15.296875 Z M 25.5625 -15.4375 "/></g></g></g><g fill="#ffffff" fill-opacity="1"><g transform="translate(269.228545, 467.419508)"><g><path d="M 29.90625 -40.359375 L 29.53125 -36.40625 L 22.375 -36.796875 L 18.234375 -36.796875 L 18.046875 -12.75 L 18.234375 0 L 13.078125 0 L 13.453125 -12.3125 L 13.140625 -36.796875 L 8.984375 -36.796875 L 1.71875 -36.40625 L 1.40625 -36.921875 L 1.78125 -40.875 L 29.53125 -40.875 Z M 29.90625 -40.359375 "/></g></g></g><g fill="#ffffff" fill-opacity="1"><g transform="translate(300.470672, 467.419508)"><g><path d="M 10.84375 -12.75 L 11.09375 0 L 5.9375 0 L 6.25 -12.3125 L 5.9375 -40.875 L 11.15625 -40.875 Z M 10.84375 -12.75 "/></g></g></g><g fill="#ffffff" fill-opacity="1"><g transform="translate(317.558212, 467.419508)"><g><path d="M 20.53125 0 L 14.609375 0 L 0.953125 -40.875 L 6.1875 -40.875 L 7.140625 -36.734375 L 17.53125 -5.171875 L 17.921875 -5.171875 L 29.390625 -36.46875 L 30.421875 -40.875 L 35.515625 -40.875 Z M 20.53125 0 "/></g></g></g><g fill="#ffffff" fill-opacity="1"><g transform="translate(353.518543, 467.419508)"><g><path d="M 10.84375 -12.75 L 11.09375 0 L 5.9375 0 L 6.25 -12.3125 L 5.9375 -40.875 L 11.15625 -40.875 Z M 10.84375 -12.75 "/></g></g></g><g fill="#ffffff" fill-opacity="1"><g transform="translate(370.606063, 467.419508)"><g><path d="M 29.90625 -40.359375 L 29.53125 -36.40625 L 22.375 -36.796875 L 18.234375 -36.796875 L 18.046875 -12.75 L 18.234375 0 L 13.078125 0 L 13.453125 -12.3125 L 13.140625 -36.796875 L 8.984375 -36.796875 L 1.71875 -36.40625 L 1.40625 -36.921875 L 1.78125 -40.875 L 29.53125 -40.875 Z M 29.90625 -40.359375 "/></g></g></g><g fill="#ffffff" fill-opacity="1"><g transform="translate(401.84819, 467.419508)"><g><path d="M 18.625 -11.921875 L 18.75 0 L 13.703125 0 L 13.96875 -11.921875 L 13.90625 -14.609375 L 0.953125 -40.875 L 6.4375 -40.875 L 7.265625 -38.578125 L 16.203125 -20.21875 L 16.640625 -20.21875 L 26.46875 -38.453125 L 27.421875 -40.875 L 32.78125 -40.875 L 18.6875 -14.796875 Z M 18.625 -11.921875 "/></g></g></g><g fill="#ffffff" fill-opacity="1"><g transform="translate(133.102125, 540.213149)"><g/></g></g><g fill="#ffffff" fill-opacity="1"><g transform="translate(505.638549, 1271.551046)"><g><path d="M 4.800781 0 L 4.800781 -22.523438 L 2.484375 -22.523438 L 2.484375 0 Z M 4.800781 0 "/></g></g></g><g fill="#ffffff" fill-opacity="1"><g transform="translate(514.580353, 1271.551046)"><g><path d="M 12.550781 0 L 14.871094 0 L 14.871094 -9.109375 C 14.871094 -10.796875 14.40625 -12.15625 13.546875 -13.183594 C 13.082031 -13.710938 12.550781 -14.109375 11.921875 -14.40625 C 11.261719 -14.707031 10.433594 -14.871094 9.40625 -14.871094 C 8.347656 -14.871094 7.453125 -14.574219 6.65625 -14.042969 C 5.894531 -13.546875 5.265625 -12.882812 4.800781 -12.054688 L 4.800781 -14.574219 L 2.484375 -14.574219 L 2.484375 0 L 4.800781 0 L 4.800781 -6.09375 C 4.800781 -7.949219 5.132812 -9.40625 5.828125 -10.5 C 6.226562 -11.09375 6.722656 -11.59375 7.351562 -11.988281 C 7.949219 -12.355469 8.777344 -12.550781 9.769531 -12.550781 C 10.765625 -12.550781 11.460938 -12.1875 11.890625 -11.527344 C 12.320312 -10.863281 12.550781 -10.035156 12.550781 -9.109375 Z M 12.550781 0 "/></g></g></g><g fill="#ffffff" fill-opacity="1"><g transform="translate(533.093044, 1271.551046)"><g/></g></g><g fill="#ffffff" fill-opacity="1"><g transform="translate(543.690716, 1271.551046)"><g><path d="M 14.40625 -7.351562 C 14.40625 -5.894531 13.878906 -4.667969 12.851562 -3.644531 C 11.789062 -2.582031 10.566406 -2.085938 9.109375 -2.085938 C 7.652344 -2.085938 6.390625 -2.582031 5.367188 -3.644531 C 4.304688 -4.667969 3.808594 -5.894531 3.808594 -7.351562 C 3.808594 -8.808594 4.304688 -10.035156 5.367188 -11.09375 C 6.390625 -12.121094 7.652344 -12.652344 9.109375 -12.652344 C 10.566406 -12.652344 11.789062 -12.121094 12.851562 -11.09375 C 13.878906 -10.035156 14.40625 -8.808594 14.40625 -7.351562 Z M 16.726562 -7.351562 C 16.726562 -9.4375 15.964844 -11.226562 14.472656 -12.71875 C 12.984375 -14.207031 11.195312 -14.96875 9.109375 -14.96875 C 6.988281 -14.96875 5.199219 -14.207031 3.710938 -12.71875 C 2.21875 -11.226562 1.492188 -9.4375 1.492188 -7.351562 C 1.492188 -5.234375 2.21875 -3.445312 3.710938 -1.988281 C 5.199219 -0.496094 7.019531 0.230469 9.109375 0.230469 C 11.160156 0.230469 12.984375 -0.496094 14.472656 -1.988281 C 15.964844 -3.445312 16.726562 -5.234375 16.726562 -7.351562 Z M 16.726562 -7.351562 "/></g></g></g><g fill="#ffffff" fill-opacity="1"><g transform="translate(563.561202, 1271.551046)"><g><path d="M 12.550781 -2.484375 L 12.550781 0 L 14.871094 0 L 14.871094 -14.574219 L 12.550781 -14.574219 L 12.550781 -8.480469 C 12.550781 -6.425781 12.15625 -4.867188 11.394531 -3.710938 C 10.664062 -2.582031 9.371094 -2.019531 7.585938 -2.019531 C 6.589844 -2.019531 5.863281 -2.351562 5.433594 -3.015625 C 5 -3.675781 4.800781 -4.503906 4.800781 -5.464844 L 4.800781 -14.574219 L 2.484375 -14.574219 L 2.484375 -5.464844 C 2.484375 -3.777344 2.914062 -2.382812 3.84375 -1.292969 C 4.769531 -0.230469 6.027344 0.296875 7.683594 0.296875 C 9.835938 0.296875 11.460938 -0.628906 12.550781 -2.484375 Z M 12.550781 -2.484375 "/></g></g></g><g fill="#ffffff" fill-opacity="1"><g transform="translate(582.073896, 1271.551046)"><g><path d="M 9.96875 -11.558594 L 9.96875 -14.574219 C 9.503906 -14.773438 9.007812 -14.871094 8.511719 -14.871094 C 6.855469 -14.871094 5.664062 -13.945312 4.902344 -12.15625 L 4.800781 -11.558594 L 4.800781 -14.574219 L 2.484375 -14.574219 L 2.484375 0 L 4.800781 0 L 4.800781 -7.285156 C 4.800781 -8.480469 5.066406 -9.539062 5.628906 -10.5 C 5.894531 -10.996094 6.257812 -11.425781 6.691406 -11.757812 C 7.121094 -12.089844 7.652344 -12.289062 8.246094 -12.289062 C 8.84375 -12.289062 9.40625 -12.023438 9.96875 -11.558594 Z M 9.96875 -11.558594 "/></g></g></g><g fill="#ffffff" fill-opacity="1"><g transform="translate(594.029377, 1271.551046)"><g/></g></g><g fill="#ffffff" fill-opacity="1"><g transform="translate(604.627052, 1271.551046)"><g><path d="M 20.964844 -0.0664062 L 23.285156 -0.0664062 L 23.285156 -9.175781 C 23.285156 -10.796875 22.851562 -12.15625 22.058594 -13.214844 C 21.660156 -13.746094 21.128906 -14.140625 20.535156 -14.472656 C 19.90625 -14.804688 19.078125 -14.96875 18.082031 -14.96875 C 17.058594 -14.96875 16.164062 -14.671875 15.402344 -14.140625 C 14.707031 -13.613281 14.140625 -12.984375 13.679688 -12.1875 C 13.511719 -12.550781 13.3125 -12.882812 13.082031 -13.214844 C 12.683594 -13.746094 12.15625 -14.140625 11.558594 -14.472656 C 10.929688 -14.804688 10.101562 -14.96875 9.109375 -14.96875 C 8.082031 -14.96875 7.1875 -14.671875 6.425781 -14.140625 C 5.761719 -13.644531 5.234375 -13.050781 4.800781 -12.289062 L 4.800781 -14.640625 L 2.484375 -14.640625 L 2.484375 -0.0664062 L 4.800781 -0.0664062 L 4.800781 -7.519531 C 4.902344 -8.675781 5.199219 -9.703125 5.695312 -10.53125 C 6.027344 -11.128906 6.523438 -11.660156 7.121094 -12.054688 C 7.71875 -12.453125 8.347656 -12.652344 9.042969 -12.652344 C 9.703125 -12.652344 10.234375 -12.519531 10.566406 -12.320312 C 11.492188 -11.722656 11.988281 -10.664062 11.988281 -9.175781 L 11.988281 -0.0664062 L 14.308594 -0.0664062 L 14.308594 -9.175781 C 14.308594 -9.339844 14.273438 -9.539062 14.273438 -9.703125 C 14.375 -10.003906 14.507812 -10.265625 14.671875 -10.53125 C 15.003906 -11.128906 15.5 -11.660156 16.097656 -12.054688 C 16.691406 -12.453125 17.320312 -12.652344 18.015625 -12.652344 C 18.679688 -12.652344 19.210938 -12.519531 19.539062 -12.320312 C 20.46875 -11.722656 20.964844 -10.664062 20.964844 -9.175781 Z M 20.964844 -0.0664062 "/></g></g></g><g fill="#ffffff" fill-opacity="1"><g transform="translate(631.551518, 1271.551046)"><g><path d="M 4.835938 -19.605469 C 4.539062 -19.871094 4.171875 -20.039062 3.777344 -20.039062 C 3.378906 -20.039062 3.015625 -19.871094 2.75 -19.605469 C 2.449219 -19.308594 2.320312 -18.945312 2.320312 -18.546875 C 2.320312 -18.148438 2.449219 -17.785156 2.75 -17.519531 C 3.015625 -17.222656 3.378906 -17.089844 3.777344 -17.089844 C 4.171875 -17.089844 4.539062 -17.222656 4.835938 -17.519531 C 5.101562 -17.785156 5.265625 -18.148438 5.265625 -18.546875 C 5.265625 -18.945312 5.101562 -19.308594 4.835938 -19.605469 Z M 4.96875 0 L 4.96875 -14.574219 L 2.648438 -14.574219 L 2.648438 0 Z M 4.96875 0 "/></g></g></g><g fill="#ffffff" fill-opacity="1"><g transform="translate(640.791386, 1271.551046)"><g><path d="M 4.570312 -2.054688 C 4.007812 -2.449219 3.578125 -3.113281 3.34375 -4.074219 L 0.894531 -4.074219 C 1.390625 -1.058594 3.3125 0.429688 6.691406 0.429688 C 7.484375 0.429688 8.214844 0.363281 8.910156 0.164062 C 9.605469 -0.03125 10.199219 -0.296875 10.765625 -0.664062 C 11.890625 -1.425781 12.453125 -2.582031 12.453125 -4.140625 C 12.453125 -5.730469 11.722656 -6.855469 10.199219 -7.585938 C 9.570312 -7.882812 8.875 -8.113281 8.113281 -8.28125 C 7.386719 -8.445312 6.691406 -8.644531 6.0625 -8.84375 C 5.398438 -9.042969 4.867188 -9.308594 4.4375 -9.605469 C 4.007812 -9.902344 3.777344 -10.367188 3.777344 -11.027344 C 3.777344 -11.691406 4.039062 -12.1875 4.570312 -12.484375 C 5.101562 -12.816406 5.730469 -12.984375 6.425781 -12.984375 C 7.152344 -12.984375 7.78125 -12.816406 8.28125 -12.550781 C 8.777344 -12.289062 9.175781 -11.757812 9.40625 -10.960938 L 11.890625 -10.960938 C 11.59375 -12.421875 10.960938 -13.445312 10.035156 -14.007812 C 9.074219 -14.605469 7.914062 -14.902344 6.492188 -14.902344 C 5.101562 -14.902344 3.875 -14.507812 2.847656 -13.777344 C 1.855469 -13.015625 1.324219 -11.921875 1.324219 -10.464844 C 1.324219 -9.769531 1.523438 -9.140625 1.886719 -8.609375 C 2.285156 -8.046875 2.847656 -7.617188 3.578125 -7.285156 C 4.238281 -6.988281 4.933594 -6.757812 5.664062 -6.558594 C 6.390625 -6.390625 7.085938 -6.195312 7.75 -5.996094 C 9.242188 -5.496094 10.003906 -4.769531 10.003906 -3.84375 C 10.003906 -2.253906 8.941406 -1.492188 6.824219 -1.492188 C 5.929688 -1.492188 5.167969 -1.65625 4.570312 -2.054688 Z M 4.570312 -2.054688 "/></g></g></g><g fill="#ffffff" fill-opacity="1"><g transform="translate(655.760531, 1271.551046)"><g><path d="M 4.570312 -2.054688 C 4.007812 -2.449219 3.578125 -3.113281 3.34375 -4.074219 L 0.894531 -4.074219 C 1.390625 -1.058594 3.3125 0.429688 6.691406 0.429688 C 7.484375 0.429688 8.214844 0.363281 8.910156 0.164062 C 9.605469 -0.03125 10.199219 -0.296875 10.765625 -0.664062 C 11.890625 -1.425781 12.453125 -2.582031 12.453125 -4.140625 C 12.453125 -5.730469 11.722656 -6.855469 10.199219 -7.585938 C 9.570312 -7.882812 8.875 -8.113281 8.113281 -8.28125 C 7.386719 -8.445312 6.691406 -8.644531 6.0625 -8.84375 C 5.398438 -9.042969 4.867188 -9.308594 4.4375 -9.605469 C 4.007812 -9.902344 3.777344 -10.367188 3.777344 -11.027344 C 3.777344 -11.691406 4.039062 -12.1875 4.570312 -12.484375 C 5.101562 -12.816406 5.730469 -12.984375 6.425781 -12.984375 C 7.152344 -12.984375 7.78125 -12.816406 8.28125 -12.550781 C 8.777344 -12.289062 9.175781 -11.757812 9.40625 -10.960938 L 11.890625 -10.960938 C 11.59375 -12.421875 10.960938 -13.445312 10.035156 -14.007812 C 9.074219 -14.605469 7.914062 -14.902344 6.492188 -14.902344 C 5.101562 -14.902344 3.875 -14.507812 2.847656 -13.777344 C 1.855469 -13.015625 1.324219 -11.921875 1.324219 -10.464844 C 1.324219 -9.769531 1.523438 -9.140625 1.886719 -8.609375 C 2.285156 -8.046875 2.847656 -7.617188 3.578125 -7.285156 C 4.238281 -6.988281 4.933594 -6.757812 5.664062 -6.558594 C 6.390625 -6.390625 7.085938 -6.195312 7.75 -5.996094 C 9.242188 -5.496094 10.003906 -4.769531 10.003906 -3.84375 C 10.003906 -2.253906 8.941406 -1.492188 6.824219 -1.492188 C 5.929688 -1.492188 5.167969 -1.65625 4.570312 -2.054688 Z M 4.570312 -2.054688 "/></g></g></g><g fill="#ffffff" fill-opacity="1"><g transform="translate(670.729676, 1271.551046)"><g><path d="M 4.835938 -19.605469 C 4.539062 -19.871094 4.171875 -20.039062 3.777344 -20.039062 C 3.378906 -20.039062 3.015625 -19.871094 2.75 -19.605469 C 2.449219 -19.308594 2.320312 -18.945312 2.320312 -18.546875 C 2.320312 -18.148438 2.449219 -17.785156 2.75 -17.519531 C 3.015625 -17.222656 3.378906 -17.089844 3.777344 -17.089844 C 4.171875 -17.089844 4.539062 -17.222656 4.835938 -17.519531 C 5.101562 -17.785156 5.265625 -18.148438 5.265625 -18.546875 C 5.265625 -18.945312 5.101562 -19.308594 4.835938 -19.605469 Z M 4.96875 0 L 4.96875 -14.574219 L 2.648438 -14.574219 L 2.648438 0 Z M 4.96875 0 "/></g></g></g><g fill="#ffffff" fill-opacity="1"><g transform="translate(679.969544, 1271.551046)"><g><path d="M 14.40625 -7.351562 C 14.40625 -5.894531 13.878906 -4.667969 12.851562 -3.644531 C 11.789062 -2.582031 10.566406 -2.085938 9.109375 -2.085938 C 7.652344 -2.085938 6.390625 -2.582031 5.367188 -3.644531 C 4.304688 -4.667969 3.808594 -5.894531 3.808594 -7.351562 C 3.808594 -8.808594 4.304688 -10.035156 5.367188 -11.09375 C 6.390625 -12.121094 7.652344 -12.652344 9.109375 -12.652344 C 10.566406 -12.652344 11.789062 -12.121094 12.851562 -11.09375 C 13.878906 -10.035156 14.40625 -8.808594 14.40625 -7.351562 Z M 16.726562 -7.351562 C 16.726562 -9.4375 15.964844 -11.226562 14.472656 -12.71875 C 12.984375 -14.207031 11.195312 -14.96875 9.109375 -14.96875 C 6.988281 -14.96875 5.199219 -14.207031 3.710938 -12.71875 C 2.21875 -11.226562 1.492188 -9.4375 1.492188 -7.351562 C 1.492188 -5.234375 2.21875 -3.445312 3.710938 -1.988281 C 5.199219 -0.496094 7.019531 0.230469 9.109375 0.230469 C 11.160156 0.230469 12.984375 -0.496094 14.472656 -1.988281 C 15.964844 -3.445312 16.726562 -5.234375 16.726562 -7.351562 Z M 16.726562 -7.351562 "/></g></g></g><g fill="#ffffff" fill-opacity="1"><g transform="translate(699.840033, 1271.551046)"><g><path d="M 12.550781 0 L 14.871094 0 L 14.871094 -9.109375 C 14.871094 -10.796875 14.40625 -12.15625 13.546875 -13.183594 C 13.082031 -13.710938 12.550781 -14.109375 11.921875 -14.40625 C 11.261719 -14.707031 10.433594 -14.871094 9.40625 -14.871094 C 8.347656 -14.871094 7.453125 -14.574219 6.65625 -14.042969 C 5.894531 -13.546875 5.265625 -12.882812 4.800781 -12.054688 L 4.800781 -14.574219 L 2.484375 -14.574219 L 2.484375 0 L 4.800781 0 L 4.800781 -6.09375 C 4.800781 -7.949219 5.132812 -9.40625 5.828125 -10.5 C 6.226562 -11.09375 6.722656 -11.59375 7.351562 -11.988281 C 7.949219 -12.355469 8.777344 -12.550781 9.769531 -12.550781 C 10.765625 -12.550781 11.460938 -12.1875 11.890625 -11.527344 C 12.320312 -10.863281 12.550781 -10.035156 12.550781 -9.109375 Z M 12.550781 0 "/></g></g></g><g fill="#ffffff" fill-opacity="1"><g transform="translate(718.352727, 1271.551046)"><g/></g></g><g fill="#ffffff" fill-opacity="1"><g transform="translate(728.95039, 1271.551046)"><g><path d="M 0.664062 -12.421875 L 4.304688 -12.421875 L 4.304688 0 L 6.625 0 L 6.625 -12.421875 L 10.234375 -12.421875 L 10.234375 -14.574219 L 6.625 -14.574219 L 6.625 -20.234375 L 4.304688 -20.234375 L 4.304688 -14.574219 L 0.664062 -14.574219 Z M 0.664062 -12.421875 "/></g></g></g><g fill="#ffffff" fill-opacity="1"><g transform="translate(741.501971, 1271.551046)"><g><path d="M 14.40625 -7.351562 C 14.40625 -5.894531 13.878906 -4.667969 12.851562 -3.644531 C 11.789062 -2.582031 10.566406 -2.085938 9.109375 -2.085938 C 7.652344 -2.085938 6.390625 -2.582031 5.367188 -3.644531 C 4.304688 -4.667969 3.808594 -5.894531 3.808594 -7.351562 C 3.808594 -8.808594 4.304688 -10.035156 5.367188 -11.09375 C 6.390625 -12.121094 7.652344 -12.652344 9.109375 -12.652344 C 10.566406 -12.652344 11.789062 -12.121094 12.851562 -11.09375 C 13.878906 -10.035156 14.40625 -8.808594 14.40625 -7.351562 Z M 16.726562 -7.351562 C 16.726562 -9.4375 15.964844 -11.226562 14.472656 -12.71875 C 12.984375 -14.207031 11.195312 -14.96875 9.109375 -14.96875 C 6.988281 -14.96875 5.199219 -14.207031 3.710938 -12.71875 C 2.21875 -11.226562 1.492188 -9.4375 1.492188 -7.351562 C 1.492188 -5.234375 2.21875 -3.445312 3.710938 -1.988281 C 5.199219 -0.496094 7.019531 0.230469 9.109375 0.230469 C 11.160156 0.230469 12.984375 -0.496094 14.472656 -1.988281 C 15.964844 -3.445312 16.726562 -5.234375 16.726562 -7.351562 Z M 16.726562 -7.351562 "/></g></g></g><g fill="#ffffff" fill-opacity="1"><g transform="translate(499.439331, 1306.801043)"><g><path d="M 9.96875 -11.558594 L 9.96875 -14.574219 C 9.503906 -14.773438 9.007812 -14.871094 8.511719 -14.871094 C 6.855469 -14.871094 5.664062 -13.945312 4.902344 -12.15625 L 4.800781 -11.558594 L 4.800781 -14.574219 L 2.484375 -14.574219 L 2.484375 0 L 4.800781 0 L 4.800781 -7.285156 C 4.800781 -8.480469 5.066406 -9.539062 5.628906 -10.5 C 5.894531 -10.996094 6.257812 -11.425781 6.691406 -11.757812 C 7.121094 -12.089844 7.652344 -12.289062 8.246094 -12.289062 C 8.84375 -12.289062 9.40625 -12.023438 9.96875 -11.558594 Z M 9.96875 -11.558594 "/></g></g></g><g fill="#ffffff" fill-opacity="1"><g transform="translate(511.394811, 1306.801043)"><g><path d="M 16.726562 -7.617188 C 16.726562 -9.605469 15.929688 -11.328125 14.40625 -12.816406 C 12.917969 -14.242188 11.128906 -14.96875 9.109375 -14.96875 C 6.988281 -14.96875 5.199219 -14.207031 3.710938 -12.71875 C 2.21875 -11.226562 1.492188 -9.4375 1.492188 -7.351562 C 1.492188 -5.234375 2.21875 -3.445312 3.710938 -1.988281 C 4.40625 -1.292969 5.199219 -0.761719 6.128906 -0.363281 C 7.054688 0.03125 8.148438 0.230469 9.4375 0.230469 C 10.730469 0.230469 11.988281 -0.164062 13.246094 -0.960938 C 14.507812 -1.753906 15.433594 -2.882812 16.0625 -4.273438 L 13.414062 -4.273438 C 12.882812 -3.578125 12.253906 -3.046875 11.492188 -2.648438 C 10.730469 -2.253906 9.9375 -2.085938 9.109375 -2.085938 C 7.847656 -2.085938 6.722656 -2.484375 5.730469 -3.3125 C 4.734375 -4.105469 4.105469 -5.132812 3.90625 -6.390625 L 16.726562 -6.390625 Z M 14.273438 -8.378906 L 3.941406 -8.378906 C 4.074219 -8.976562 4.304688 -9.539062 4.636719 -10.070312 C 5.695312 -11.789062 7.1875 -12.652344 9.109375 -12.652344 C 10.332031 -12.652344 11.425781 -12.253906 12.386719 -11.460938 C 13.378906 -10.632812 13.976562 -9.605469 14.273438 -8.378906 Z M 14.273438 -8.378906 "/></g></g></g><g fill="#ffffff" fill-opacity="1"><g transform="translate(531.099713, 1306.801043)"><g><path d="M 7.054688 1.390625 L 13.746094 -14.574219 L 11.226562 -14.574219 L 7.054688 -3.742188 L 2.847656 -14.574219 L 0.332031 -14.574219 Z M 7.054688 1.390625 "/></g></g></g><g fill="#ffffff" fill-opacity="1"><g transform="translate(546.830551, 1306.801043)"><g><path d="M 14.40625 -7.351562 C 14.40625 -5.894531 13.878906 -4.667969 12.851562 -3.644531 C 11.789062 -2.582031 10.566406 -2.085938 9.109375 -2.085938 C 7.652344 -2.085938 6.390625 -2.582031 5.367188 -3.644531 C 4.304688 -4.667969 3.808594 -5.894531 3.808594 -7.351562 C 3.808594 -8.808594 4.304688 -10.035156 5.367188 -11.09375 C 6.390625 -12.121094 7.652344 -12.652344 9.109375 -12.652344 C 10.566406 -12.652344 11.789062 -12.121094 12.851562 -11.09375 C 13.878906 -10.035156 14.40625 -8.808594 14.40625 -7.351562 Z M 16.726562 -7.351562 C 16.726562 -9.4375 15.964844 -11.226562 14.472656 -12.71875 C 12.984375 -14.207031 11.195312 -14.96875 9.109375 -14.96875 C 6.988281 -14.96875 5.199219 -14.207031 3.710938 -12.71875 C 2.21875 -11.226562 1.492188 -9.4375 1.492188 -7.351562 C 1.492188 -5.234375 2.21875 -3.445312 3.710938 -1.988281 C 5.199219 -0.496094 7.019531 0.230469 9.109375 0.230469 C 11.160156 0.230469 12.984375 -0.496094 14.472656 -1.988281 C 15.964844 -3.445312 16.726562 -5.234375 16.726562 -7.351562 Z M 16.726562 -7.351562 "/></g></g></g><g fill="#ffffff" fill-opacity="1"><g transform="translate(566.701037, 1306.801043)"><g><path d="M 4.800781 0 L 4.800781 -24.839844 L 2.484375 -24.839844 L 2.484375 0 Z M 4.800781 0 "/></g></g></g><g fill="#ffffff" fill-opacity="1"><g transform="translate(575.642843, 1306.801043)"><g><path d="M 12.550781 -2.484375 L 12.550781 0 L 14.871094 0 L 14.871094 -14.574219 L 12.550781 -14.574219 L 12.550781 -8.480469 C 12.550781 -6.425781 12.15625 -4.867188 11.394531 -3.710938 C 10.664062 -2.582031 9.371094 -2.019531 7.585938 -2.019531 C 6.589844 -2.019531 5.863281 -2.351562 5.433594 -3.015625 C 5 -3.675781 4.800781 -4.503906 4.800781 -5.464844 L 4.800781 -14.574219 L 2.484375 -14.574219 L 2.484375 -5.464844 C 2.484375 -3.777344 2.914062 -2.382812 3.84375 -1.292969 C 4.769531 -0.230469 6.027344 0.296875 7.683594 0.296875 C 9.835938 0.296875 11.460938 -0.628906 12.550781 -2.484375 Z M 12.550781 -2.484375 "/></g></g></g><g fill="#ffffff" fill-opacity="1"><g transform="translate(594.155537, 1306.801043)"><g><path d="M 0.664062 -12.421875 L 4.304688 -12.421875 L 4.304688 0 L 6.625 0 L 6.625 -12.421875 L 10.234375 -12.421875 L 10.234375 -14.574219 L 6.625 -14.574219 L 6.625 -20.234375 L 4.304688 -20.234375 L 4.304688 -14.574219 L 0.664062 -14.574219 Z M 0.664062 -12.421875 "/></g></g></g><g fill="#ffffff" fill-opacity="1"><g transform="translate(606.707118, 1306.801043)"><g><path d="M 4.835938 -19.605469 C 4.539062 -19.871094 4.171875 -20.039062 3.777344 -20.039062 C 3.378906 -20.039062 3.015625 -19.871094 2.75 -19.605469 C 2.449219 -19.308594 2.320312 -18.945312 2.320312 -18.546875 C 2.320312 -18.148438 2.449219 -17.785156 2.75 -17.519531 C 3.015625 -17.222656 3.378906 -17.089844 3.777344 -17.089844 C 4.171875 -17.089844 4.539062 -17.222656 4.835938 -17.519531 C 5.101562 -17.785156 5.265625 -18.148438 5.265625 -18.546875 C 5.265625 -18.945312 5.101562 -19.308594 4.835938 -19.605469 Z M 4.96875 0 L 4.96875 -14.574219 L 2.648438 -14.574219 L 2.648438 0 Z M 4.96875 0 "/></g></g></g><g fill="#ffffff" fill-opacity="1"><g transform="translate(615.946986, 1306.801043)"><g><path d="M 14.40625 -7.351562 C 14.40625 -5.894531 13.878906 -4.667969 12.851562 -3.644531 C 11.789062 -2.582031 10.566406 -2.085938 9.109375 -2.085938 C 7.652344 -2.085938 6.390625 -2.582031 5.367188 -3.644531 C 4.304688 -4.667969 3.808594 -5.894531 3.808594 -7.351562 C 3.808594 -8.808594 4.304688 -10.035156 5.367188 -11.09375 C 6.390625 -12.121094 7.652344 -12.652344 9.109375 -12.652344 C 10.566406 -12.652344 11.789062 -12.121094 12.851562 -11.09375 C 13.878906 -10.035156 14.40625 -8.808594 14.40625 -7.351562 Z M 16.726562 -7.351562 C 16.726562 -9.4375 15.964844 -11.226562 14.472656 -12.71875 C 12.984375 -14.207031 11.195312 -14.96875 9.109375 -14.96875 C 6.988281 -14.96875 5.199219 -14.207031 3.710938 -12.71875 C 2.21875 -11.226562 1.492188 -9.4375 1.492188 -7.351562 C 1.492188 -5.234375 2.21875 -3.445312 3.710938 -1.988281 C 5.199219 -0.496094 7.019531 0.230469 9.109375 0.230469 C 11.160156 0.230469 12.984375 -0.496094 14.472656 -1.988281 C 15.964844 -3.445312 16.726562 -5.234375 16.726562 -7.351562 Z M 16.726562 -7.351562 "/></g></g></g><g fill="#ffffff" fill-opacity="1"><g transform="translate(635.817475, 1306.801043)"><g><path d="M 12.550781 0 L 14.871094 0 L 14.871094 -9.109375 C 14.871094 -10.796875 14.40625 -12.15625 13.546875 -13.183594 C 13.082031 -13.710938 12.550781 -14.109375 11.921875 -14.40625 C 11.261719 -14.707031 10.433594 -14.871094 9.40625 -14.871094 C 8.347656 -14.871094 7.453125 -14.574219 6.65625 -14.042969 C 5.894531 -13.546875 5.265625 -12.882812 4.800781 -12.054688 L 4.800781 -14.574219 L 2.484375 -14.574219 L 2.484375 0 L 4.800781 0 L 4.800781 -6.09375 C 4.800781 -7.949219 5.132812 -9.40625 5.828125 -10.5 C 6.226562 -11.09375 6.722656 -11.59375 7.351562 -11.988281 C 7.949219 -12.355469 8.777344 -12.550781 9.769531 -12.550781 C 10.765625 -12.550781 11.460938 -12.1875 11.890625 -11.527344 C 12.320312 -10.863281 12.550781 -10.035156 12.550781 -9.109375 Z M 12.550781 0 "/></g></g></g><g fill="#ffffff" fill-opacity="1"><g transform="translate(654.330169, 1306.801043)"><g><path d="M 4.835938 -19.605469 C 4.539062 -19.871094 4.171875 -20.039062 3.777344 -20.039062 C 3.378906 -20.039062 3.015625 -19.871094 2.75 -19.605469 C 2.449219 -19.308594 2.320312 -18.945312 2.320312 -18.546875 C 2.320312 -18.148438 2.449219 -17.785156 2.75 -17.519531 C 3.015625 -17.222656 3.378906 -17.089844 3.777344 -17.089844 C 4.171875 -17.089844 4.539062 -17.222656 4.835938 -17.519531 C 5.101562 -17.785156 5.265625 -18.148438 5.265625 -18.546875 C 5.265625 -18.945312 5.101562 -19.308594 4.835938 -19.605469 Z M 4.96875 0 L 4.96875 -14.574219 L 2.648438 -14.574219 L 2.648438 0 Z M 4.96875 0 "/></g></g></g><g fill="#ffffff" fill-opacity="1"><g transform="translate(663.570036, 1306.801043)"><g><path d="M 0.332031 0 L 14.738281 0 L 14.738281 -2.152344 L 4.769531 -2.152344 L 14.308594 -14.574219 L 0.894531 -14.574219 L 0.894531 -12.421875 L 9.871094 -12.421875 Z M 0.332031 0 "/></g></g></g><g fill="#ffffff" fill-opacity="1"><g transform="translate(680.294397, 1306.801043)"><g><path d="M 16.726562 -7.617188 C 16.726562 -9.605469 15.929688 -11.328125 14.40625 -12.816406 C 12.917969 -14.242188 11.128906 -14.96875 9.109375 -14.96875 C 6.988281 -14.96875 5.199219 -14.207031 3.710938 -12.71875 C 2.21875 -11.226562 1.492188 -9.4375 1.492188 -7.351562 C 1.492188 -5.234375 2.21875 -3.445312 3.710938 -1.988281 C 4.40625 -1.292969 5.199219 -0.761719 6.128906 -0.363281 C 7.054688 0.03125 8.148438 0.230469 9.4375 0.230469 C 10.730469 0.230469 11.988281 -0.164062 13.246094 -0.960938 C 14.507812 -1.753906 15.433594 -2.882812 16.0625 -4.273438 L 13.414062 -4.273438 C 12.882812 -3.578125 12.253906 -3.046875 11.492188 -2.648438 C 10.730469 -2.253906 9.9375 -2.085938 9.109375 -2.085938 C 7.847656 -2.085938 6.722656 -2.484375 5.730469 -3.3125 C 4.734375 -4.105469 4.105469 -5.132812 3.90625 -6.390625 L 16.726562 -6.390625 Z M 14.273438 -8.378906 L 3.941406 -8.378906 C 4.074219 -8.976562 4.304688 -9.539062 4.636719 -10.070312 C 5.695312 -11.789062 7.1875 -12.652344 9.109375 -12.652344 C 10.332031 -12.652344 11.425781 -12.253906 12.386719 -11.460938 C 13.378906 -10.632812 13.976562 -9.605469 14.273438 -8.378906 Z M 14.273438 -8.378906 "/></g></g></g><g fill="#ffffff" fill-opacity="1"><g transform="translate(710.596953, 1306.801043)"><g><path d="M 0.664062 -12.421875 L 4.304688 -12.421875 L 4.304688 0 L 6.625 0 L 6.625 -12.421875 L 10.234375 -12.421875 L 10.234375 -14.574219 L 6.625 -14.574219 L 6.625 -20.234375 L 4.304688 -20.234375 L 4.304688 -14.574219 L 0.664062 -14.574219 Z M 0.664062 -12.421875 "/></g></g></g><g fill="#ffffff" fill-opacity="1"><g transform="translate(723.148534, 1306.801043)"><g><path d="M 4.800781 0 L 4.800781 -6.09375 C 4.800781 -8.113281 5.132812 -9.636719 5.828125 -10.699219 C 6.226562 -11.292969 6.722656 -11.722656 7.351562 -12.054688 C 7.949219 -12.386719 8.777344 -12.550781 9.769531 -12.550781 C 10.765625 -12.550781 11.460938 -12.1875 11.890625 -11.527344 C 12.320312 -10.863281 12.550781 -10.035156 12.550781 -9.109375 L 12.550781 0 L 14.871094 0 L 14.871094 -9.109375 C 14.871094 -10.796875 14.40625 -12.15625 13.546875 -13.183594 C 13.082031 -13.710938 12.550781 -14.109375 11.921875 -14.40625 C 11.261719 -14.707031 10.433594 -14.871094 9.40625 -14.871094 C 8.347656 -14.871094 7.453125 -14.574219 6.65625 -14.042969 C 5.894531 -13.546875 5.265625 -12.882812 4.800781 -12.054688 L 4.800781 -24.839844 L 2.484375 -24.839844 L 2.484375 0 Z M 4.800781 0 "/></g></g></g><g fill="#ffffff" fill-opacity="1"><g transform="translate(741.661228, 1306.801043)"><g><path d="M 16.726562 -7.617188 C 16.726562 -9.605469 15.929688 -11.328125 14.40625 -12.816406 C 12.917969 -14.242188 11.128906 -14.96875 9.109375 -14.96875 C 6.988281 -14.96875 5.199219 -14.207031 3.710938 -12.71875 C 2.21875 -11.226562 1.492188 -9.4375 1.492188 -7.351562 C 1.492188 -5.234375 2.21875 -3.445312 3.710938 -1.988281 C 4.40625 -1.292969 5.199219 -0.761719 6.128906 -0.363281 C 7.054688 0.03125 8.148438 0.230469 9.4375 0.230469 C 10.730469 0.230469 11.988281 -0.164062 13.246094 -0.960938 C 14.507812 -1.753906 15.433594 -2.882812 16.0625 -4.273438 L 13.414062 -4.273438 C 12.882812 -3.578125 12.253906 -3.046875 11.492188 -2.648438 C 10.730469 -2.253906 9.9375 -2.085938 9.109375 -2.085938 C 7.847656 -2.085938 6.722656 -2.484375 5.730469 -3.3125 C 4.734375 -4.105469 4.105469 -5.132812 3.90625 -6.390625 L 16.726562 -6.390625 Z M 14.273438 -8.378906 L 3.941406 -8.378906 C 4.074219 -8.976562 4.304688 -9.539062 4.636719 -10.070312 C 5.695312 -11.789062 7.1875 -12.652344 9.109375 -12.652344 C 10.332031 -12.652344 11.425781 -12.253906 12.386719 -11.460938 C 13.378906 -10.632812 13.976562 -9.605469 14.273438 -8.378906 Z M 14.273438 -8.378906 "/></g></g></g><g fill="#ffffff" fill-opacity="1"><g transform="translate(455.693241, 1342.05104)"><g><path d="M 15.863281 -20.367188 L 15.863281 -22.523438 L 2.484375 -22.523438 L 2.484375 0 L 4.800781 0 L 4.800781 -10.167969 L 15.535156 -10.167969 L 15.535156 -12.355469 L 4.800781 -12.355469 L 4.800781 -20.367188 Z M 15.863281 -20.367188 "/></g></g></g><g fill="#ffffff" fill-opacity="1"><g transform="translate(473.874752, 1342.05104)"><g><path d="M 6.128906 -8.28125 L 10.234375 -18.648438 L 14.308594 -8.28125 Z M 20.105469 0 L 10.234375 -24.078125 L 0.332031 0 L 2.847656 0 L 5.265625 -6.128906 L 15.167969 -6.128906 L 17.585938 0 Z M 20.105469 0 "/></g></g></g><g fill="#ffffff" fill-opacity="1"><g transform="translate(495.964099, 1342.05104)"><g><path d="M 8.710938 -10.597656 C 11.625 -9.902344 13.613281 -9.140625 14.671875 -8.28125 C 15.402344 -7.683594 15.765625 -6.921875 15.765625 -5.996094 C 15.765625 -5.066406 15.566406 -4.304688 15.167969 -3.777344 C 14.175781 -2.382812 12.386719 -1.6875 9.871094 -1.6875 C 6.359375 -1.6875 4.371094 -2.882812 3.941406 -5.265625 L 1.226562 -5.265625 C 2.019531 -1.457031 4.902344 0.429688 9.871094 0.429688 C 12.089844 0.429688 13.945312 -0.03125 15.433594 -1.027344 C 17.222656 -2.1875 18.148438 -3.90625 18.148438 -6.160156 C 18.148438 -8.015625 17.421875 -9.4375 15.964844 -10.433594 C 14.9375 -11.160156 13.28125 -11.824219 10.996094 -12.421875 C 8.675781 -13.015625 7.1875 -13.511719 6.492188 -13.878906 C 4.96875 -14.640625 4.207031 -15.699219 4.238281 -17.089844 C 4.238281 -17.820312 4.371094 -18.449219 4.703125 -18.910156 C 5.5625 -20.203125 7.085938 -20.867188 9.273438 -20.867188 C 12.355469 -20.867188 14.109375 -19.871094 14.574219 -17.949219 L 17.089844 -17.949219 C 16.261719 -21.195312 13.644531 -22.851562 9.273438 -22.851562 C 7.285156 -22.851562 5.53125 -22.324219 4.074219 -21.261719 C 2.582031 -20.203125 1.820312 -18.648438 1.820312 -16.527344 C 1.820312 -13.644531 4.140625 -11.660156 8.710938 -10.597656 Z M 8.710938 -10.597656 "/></g></g></g><g fill="#ffffff" fill-opacity="1"><g transform="translate(516.629397, 1342.05104)"><g><path d="M 4.800781 0 L 4.800781 -10.070312 L 15.035156 -10.070312 L 15.035156 0 L 17.355469 0 L 17.355469 -22.523438 L 15.035156 -22.523438 L 15.035156 -12.386719 L 4.800781 -12.386719 L 4.800781 -22.523438 L 2.484375 -22.523438 L 2.484375 0 Z M 4.800781 0 "/></g></g></g><g fill="#ffffff" fill-opacity="1"><g transform="translate(538.122636, 1342.05104)"><g><path d="M 4.800781 0 L 4.800781 -22.523438 L 2.484375 -22.523438 L 2.484375 0 Z M 4.800781 0 "/></g></g></g><g fill="#ffffff" fill-opacity="1"><g transform="translate(547.064442, 1342.05104)"><g><path d="M 22.324219 -11.328125 C 22.324219 -8.742188 21.394531 -6.558594 19.605469 -4.769531 C 17.785156 -2.949219 15.597656 -2.054688 13.050781 -2.054688 C 10.5 -2.054688 8.3125 -2.949219 6.523438 -4.769531 C 4.703125 -6.558594 3.808594 -8.742188 3.808594 -11.328125 C 3.808594 -13.84375 4.703125 -16.03125 6.523438 -17.851562 C 8.3125 -19.640625 10.5 -20.566406 13.050781 -20.566406 C 15.597656 -20.566406 17.785156 -19.640625 19.605469 -17.851562 C 21.394531 -16.03125 22.324219 -13.84375 22.324219 -11.328125 Z M 24.640625 -11.328125 C 24.640625 -12.917969 24.308594 -14.40625 23.714844 -15.832031 C 23.117188 -17.222656 22.289062 -18.449219 21.230469 -19.507812 C 20.171875 -20.535156 18.945312 -21.363281 17.554688 -21.957031 C 16.128906 -22.554688 14.640625 -22.886719 13.050781 -22.886719 C 11.460938 -22.886719 9.9375 -22.554688 8.546875 -21.957031 C 7.152344 -21.363281 5.929688 -20.535156 4.867188 -19.507812 C 3.808594 -18.449219 2.980469 -17.222656 2.382812 -15.832031 C 1.789062 -14.40625 1.492188 -12.917969 1.492188 -11.328125 C 1.492188 -9.738281 1.789062 -8.214844 2.382812 -6.824219 C 2.980469 -5.398438 3.808594 -4.171875 4.867188 -3.113281 C 5.929688 -2.054688 7.152344 -1.226562 8.546875 -0.628906 C 9.9375 -0.03125 11.460938 0.265625 13.050781 0.265625 C 14.640625 0.265625 16.128906 -0.03125 17.554688 -0.628906 C 18.945312 -1.226562 20.171875 -2.054688 21.230469 -3.113281 C 22.289062 -4.171875 23.117188 -5.398438 23.714844 -6.824219 C 24.308594 -8.214844 24.640625 -9.738281 24.640625 -11.328125 Z M 24.640625 -11.328125 "/></g></g></g><g fill="#ffffff" fill-opacity="1"><g transform="translate(574.849951, 1342.05104)"><g><path d="M 4.800781 -16.59375 L 17.453125 1.390625 L 17.453125 -22.523438 L 15.136719 -22.523438 L 15.136719 -5.960938 L 2.484375 -23.945312 L 2.484375 0 L 4.800781 0 Z M 4.800781 -16.59375 "/></g></g></g><g fill="#ffffff" fill-opacity="1"><g transform="translate(596.442547, 1342.05104)"><g/></g></g><g fill="#ffffff" fill-opacity="1"><g transform="translate(607.040221, 1342.05104)"><g><path d="M 4.800781 0 L 4.800781 -22.523438 L 2.484375 -22.523438 L 2.484375 0 Z M 4.800781 0 "/></g></g></g><g fill="#ffffff" fill-opacity="1"><g transform="translate(615.982027, 1342.05104)"><g><path d="M 4.800781 -16.59375 L 17.453125 1.390625 L 17.453125 -22.523438 L 15.136719 -22.523438 L 15.136719 -5.960938 L 2.484375 -23.945312 L 2.484375 0 L 4.800781 0 Z M 4.800781 -16.59375 "/></g></g></g><g fill="#ffffff" fill-opacity="1"><g transform="translate(637.574624, 1342.05104)"><g><path d="M 19.972656 -11.261719 C 19.972656 -12.882812 19.640625 -14.375 19.042969 -15.765625 C 18.449219 -17.15625 17.621094 -18.347656 16.59375 -19.34375 C 15.535156 -20.335938 14.308594 -21.097656 12.917969 -21.660156 C 11.492188 -22.222656 9.96875 -22.523438 8.378906 -22.523438 L 2.484375 -22.523438 L 2.484375 0 L 8.378906 0 C 9.96875 0 11.492188 -0.265625 12.917969 -0.828125 C 14.308594 -1.390625 15.535156 -2.1875 16.59375 -3.179688 C 17.621094 -4.171875 18.449219 -5.332031 19.042969 -6.722656 C 19.640625 -8.113281 19.972656 -9.605469 19.972656 -11.261719 Z M 17.71875 -11.261719 C 17.71875 -8.675781 16.792969 -6.523438 15.003906 -4.835938 C 13.214844 -3.144531 11.027344 -2.320312 8.445312 -2.320312 L 4.800781 -2.320312 L 4.800781 -20.203125 L 8.445312 -20.203125 C 11.027344 -20.203125 13.214844 -19.34375 15.003906 -17.6875 C 16.792969 -15.964844 17.71875 -13.8125 17.71875 -11.261719 Z M 17.71875 -11.261719 "/></g></g></g><g fill="#ffffff" fill-opacity="1"><g transform="translate(660.6906, 1342.05104)"><g><path d="M 18.777344 -7.453125 L 18.777344 -22.523438 L 16.460938 -22.523438 L 16.460938 -7.121094 C 16.460938 -6.195312 16.296875 -5.433594 15.964844 -4.800781 C 15.003906 -2.949219 13.148438 -2.019531 10.398438 -2.019531 C 8.609375 -2.019531 7.1875 -2.417969 6.128906 -3.210938 C 4.902344 -4.105469 4.304688 -5.398438 4.304688 -7.121094 L 4.304688 -22.523438 L 1.988281 -22.523438 L 1.988281 -7.453125 C 1.988281 -5 2.78125 -3.082031 4.371094 -1.6875 C 5.863281 -0.363281 7.882812 0.296875 10.398438 0.296875 C 12.882812 0.296875 14.871094 -0.363281 16.394531 -1.6875 C 17.984375 -3.082031 18.777344 -5 18.777344 -7.453125 Z M 18.777344 -7.453125 "/></g></g></g><g fill="#ffffff" fill-opacity="1"><g transform="translate(683.111107, 1342.05104)"><g><path d="M 8.710938 -10.597656 C 11.625 -9.902344 13.613281 -9.140625 14.671875 -8.28125 C 15.402344 -7.683594 15.765625 -6.921875 15.765625 -5.996094 C 15.765625 -5.066406 15.566406 -4.304688 15.167969 -3.777344 C 14.175781 -2.382812 12.386719 -1.6875 9.871094 -1.6875 C 6.359375 -1.6875 4.371094 -2.882812 3.941406 -5.265625 L 1.226562 -5.265625 C 2.019531 -1.457031 4.902344 0.429688 9.871094 0.429688 C 12.089844 0.429688 13.945312 -0.03125 15.433594 -1.027344 C 17.222656 -2.1875 18.148438 -3.90625 18.148438 -6.160156 C 18.148438 -8.015625 17.421875 -9.4375 15.964844 -10.433594 C 14.9375 -11.160156 13.28125 -11.824219 10.996094 -12.421875 C 8.675781 -13.015625 7.1875 -13.511719 6.492188 -13.878906 C 4.96875 -14.640625 4.207031 -15.699219 4.238281 -17.089844 C 4.238281 -17.820312 4.371094 -18.449219 4.703125 -18.910156 C 5.5625 -20.203125 7.085938 -20.867188 9.273438 -20.867188 C 12.355469 -20.867188 14.109375 -19.871094 14.574219 -17.949219 L 17.089844 -17.949219 C 16.261719 -21.195312 13.644531 -22.851562 9.273438 -22.851562 C 7.285156 -22.851562 5.53125 -22.324219 4.074219 -21.261719 C 2.582031 -20.203125 1.820312 -18.648438 1.820312 -16.527344 C 1.820312 -13.644531 4.140625 -11.660156 8.710938 -10.597656 Z M 8.710938 -10.597656 "/></g></g></g><g fill="#ffffff" fill-opacity="1"><g transform="translate(703.776411, 1342.05104)"><g><path d="M 0.664062 -20.433594 L 6.128906 -20.433594 L 6.128906 -0.0664062 L 8.445312 -0.0664062 L 8.445312 -20.433594 L 13.910156 -20.433594 L 13.910156 -22.585938 L 0.664062 -22.585938 Z M 0.664062 -20.433594 "/></g></g></g><g fill="#ffffff" fill-opacity="1"><g transform="translate(720.003994, 1342.05104)"><g><path d="M 4.800781 -11.128906 L 4.800781 -20.300781 L 10.035156 -20.300781 C 11.394531 -20.300781 12.484375 -19.871094 13.3125 -19.011719 C 14.109375 -18.148438 14.539062 -17.089844 14.539062 -15.765625 C 14.539062 -14.441406 14.109375 -13.347656 13.246094 -12.453125 C 12.386719 -11.558594 11.328125 -11.128906 10.035156 -11.128906 Z M 16.859375 -15.730469 C 16.859375 -17.652344 16.128906 -19.308594 14.738281 -20.601562 C 13.378906 -21.859375 11.691406 -22.523438 9.703125 -22.523438 L 2.484375 -22.523438 L 2.484375 0 L 4.800781 0 L 4.800781 -8.910156 L 7.484375 -8.910156 L 14.109375 0 L 17.222656 0 L 10.265625 -8.910156 C 12.023438 -9.007812 13.511719 -9.636719 14.738281 -10.796875 C 16.128906 -12.089844 16.859375 -13.746094 16.859375 -15.730469 Z M 16.859375 -15.730469 "/></g></g></g><g fill="#ffffff" fill-opacity="1"><g transform="translate(739.675791, 1342.05104)"><g><path d="M 11.195312 -10.597656 L 19.707031 -22.523438 L 16.757812 -22.523438 L 10.035156 -12.882812 L 3.3125 -22.523438 L 0.332031 -22.523438 L 8.875 -10.566406 L 8.875 0 L 11.195312 0 Z M 11.195312 -10.597656 "/></g></g></g><g fill="#38b6ff" fill-opacity="1"><g transform="translate(411.832009, 1383.382286)"><g><path d="M 7.449219 -4.125 L 7.449219 -6.03125 L 0.34375 -6.03125 L 0.34375 -4.125 Z M 7.449219 -4.125 "/></g></g></g><g fill="#38b6ff" fill-opacity="1"><g transform="translate(421.459906, 1383.382286)"><g><path d="M 8 -12.472656 L 12.449219 -12.472656 L 12.449219 -15.589844 L 0.113281 -15.589844 L 0.113281 -12.472656 L 4.5625 -12.472656 L 4.5625 0 L 8 0 Z M 8 -12.472656 "/></g></g></g><g fill="#38b6ff" fill-opacity="1"><g transform="translate(435.855618, 1383.382286)"><g><path d="M 9.949219 -15.589844 L 9.949219 -9.375 L 4.816406 -9.375 L 4.816406 -15.589844 L 1.375 -15.589844 L 1.375 0 L 4.816406 0 L 4.816406 -6.257812 L 9.949219 -6.257812 L 9.949219 0 L 13.617188 0 L 13.617188 -15.589844 Z M 9.949219 -15.589844 "/></g></g></g><g fill="#38b6ff" fill-opacity="1"><g transform="translate(452.68108, 1383.382286)"><g><path d="M 10.410156 -3.117188 L 4.816406 -3.117188 L 4.816406 -6.257812 L 10.179688 -6.257812 L 10.179688 -9.375 L 4.816406 -9.375 L 4.816406 -12.472656 L 10.410156 -12.472656 L 10.410156 -15.589844 L 1.375 -15.589844 L 1.375 0 L 10.410156 0 Z M 10.410156 -3.117188 "/></g></g></g><g fill="#38b6ff" fill-opacity="1"><g transform="translate(466.297439, 1383.382286)"><g/></g></g><g fill="#38b6ff" fill-opacity="1"><g transform="translate(473.862341, 1383.382286)"><g><path d="M 12.632812 -5.296875 C 11.992188 -3.921875 10.429688 -2.980469 8.828125 -2.980469 C 6.304688 -2.980469 4.289062 -5.136719 4.289062 -7.796875 C 4.289062 -10.429688 6.304688 -12.609375 8.828125 -12.609375 C 10.410156 -12.609375 11.96875 -11.738281 12.609375 -10.339844 L 16.4375 -10.339844 C 15.382812 -13.527344 12.378906 -15.820312 8.828125 -15.820312 C 4.402344 -15.820312 0.800781 -12.21875 0.800781 -7.796875 C 0.800781 -3.371094 4.402344 0.230469 8.828125 0.230469 C 12.378906 0.230469 15.40625 -2.085938 16.460938 -5.296875 Z M 12.632812 -5.296875 "/></g></g></g><g fill="#38b6ff" fill-opacity="1"><g transform="translate(492.727876, 1383.382286)"><g><path d="M 4.816406 -5.570312 L 4.835938 -5.570312 L 8.550781 0 L 12.90625 0 L 8.4375 -5.730469 C 10.410156 -6.214844 11.992188 -7.957031 11.992188 -10.59375 C 11.992188 -13.550781 9.742188 -15.589844 7.222656 -15.589844 L 1.375 -15.589844 L 1.375 0 L 4.816406 0 Z M 6.648438 -12.882812 C 7.65625 -12.882812 8.710938 -12.011719 8.710938 -10.59375 C 8.710938 -9.101562 7.65625 -8.277344 6.648438 -8.277344 L 4.816406 -8.277344 L 4.816406 -12.882812 Z M 6.648438 -12.882812 "/></g></g></g><g fill="#38b6ff" fill-opacity="1"><g transform="translate(507.192351, 1383.382286)"><g><path d="M 10.410156 -3.117188 L 4.816406 -3.117188 L 4.816406 -6.257812 L 10.179688 -6.257812 L 10.179688 -9.375 L 4.816406 -9.375 L 4.816406 -12.472656 L 10.410156 -12.472656 L 10.410156 -15.589844 L 1.375 -15.589844 L 1.375 0 L 10.410156 0 Z M 10.410156 -3.117188 "/></g></g></g><g fill="#38b6ff" fill-opacity="1"><g transform="translate(520.808706, 1383.382286)"><g><path d="M 9.859375 -5.960938 L 5.914062 -5.960938 L 7.886719 -11.507812 Z M 15.679688 0 L 9.355469 -15.589844 L 6.441406 -15.589844 L 0.113281 0 L 3.804688 0 L 4.929688 -3.140625 L 10.867188 -3.140625 L 11.992188 0 Z M 15.679688 0 "/></g></g></g><g fill="#38b6ff" fill-opacity="1"><g transform="translate(538.436444, 1383.382286)"><g><path d="M 8 -12.472656 L 12.449219 -12.472656 L 12.449219 -15.589844 L 0.113281 -15.589844 L 0.113281 -12.472656 L 4.5625 -12.472656 L 4.5625 0 L 8 0 Z M 8 -12.472656 "/></g></g></g><g fill="#38b6ff" fill-opacity="1"><g transform="translate(552.832153, 1383.382286)"><g><path d="M 4.816406 0 L 4.816406 -15.589844 L 1.375 -15.589844 L 1.375 0 Z M 4.816406 0 "/></g></g></g><g fill="#38b6ff" fill-opacity="1"><g transform="translate(560.855494, 1383.382286)"><g><path d="M 15.679688 -15.589844 L 11.96875 -15.589844 L 8.734375 -6.832031 L 7.886719 -4.378906 L 7.039062 -6.832031 L 3.828125 -15.589844 L 0.113281 -15.589844 L 6.417969 0 L 9.375 0 Z M 15.679688 -15.589844 "/></g></g></g><g fill="#38b6ff" fill-opacity="1"><g transform="translate(578.483231, 1383.382286)"><g><path d="M 10.410156 -3.117188 L 4.816406 -3.117188 L 4.816406 -6.257812 L 10.179688 -6.257812 L 10.179688 -9.375 L 4.816406 -9.375 L 4.816406 -12.472656 L 10.410156 -12.472656 L 10.410156 -15.589844 L 1.375 -15.589844 L 1.375 0 L 10.410156 0 Z M 10.410156 -3.117188 "/></g></g></g><g fill="#38b6ff" fill-opacity="1"><g transform="translate(592.099586, 1383.382286)"><g/></g></g><g fill="#38b6ff" fill-opacity="1"><g transform="translate(599.664484, 1383.382286)"><g><path d="M 4.769531 -3.164062 L 4.769531 -12.402344 L 5.800781 -12.402344 C 8.460938 -12.402344 10.25 -10.386719 10.25 -7.796875 C 10.25 -5.203125 8.4375 -3.164062 5.800781 -3.164062 Z M 1.375 -15.589844 L 1.375 0 L 6.007812 0 C 10.429688 0 13.753906 -3.394531 13.753906 -7.796875 C 13.753906 -12.195312 10.410156 -15.589844 6.007812 -15.589844 Z M 1.375 -15.589844 "/></g></g></g><g fill="#38b6ff" fill-opacity="1"><g transform="translate(616.054423, 1383.382286)"><g><path d="M 10.410156 -3.117188 L 4.816406 -3.117188 L 4.816406 -6.257812 L 10.179688 -6.257812 L 10.179688 -9.375 L 4.816406 -9.375 L 4.816406 -12.472656 L 10.410156 -12.472656 L 10.410156 -15.589844 L 1.375 -15.589844 L 1.375 0 L 10.410156 0 Z M 10.410156 -3.117188 "/></g></g></g><g fill="#38b6ff" fill-opacity="1"><g transform="translate(629.670778, 1383.382286)"><g><path d="M 7.429688 -2.429688 C 5.730469 -2.429688 4.265625 -3.277344 4.171875 -5.136719 L 0.6875 -5.136719 C 0.710938 -1.328125 3.851562 0.367188 7.289062 0.367188 C 10.476562 0.367188 13.753906 -0.984375 13.753906 -4.652344 C 13.753906 -10.59375 4.746094 -8.597656 4.746094 -11.371094 C 4.746094 -12.539062 6.097656 -13 7.0625 -13 C 8.78125 -13 9.722656 -12.472656 9.902344 -10.84375 L 13.226562 -10.84375 C 13.113281 -14.398438 10.226562 -15.820312 7.015625 -15.820312 C 4.171875 -15.820312 1.191406 -14.304688 1.191406 -11.097656 C 1.191406 -5.34375 10.203125 -7.289062 10.203125 -4.265625 C 10.203125 -2.867188 8.503906 -2.429688 7.429688 -2.429688 Z M 7.429688 -2.429688 "/></g></g></g><g fill="#38b6ff" fill-opacity="1"><g transform="translate(645.946106, 1383.382286)"><g><path d="M 8 -12.472656 L 12.449219 -12.472656 L 12.449219 -15.589844 L 0.113281 -15.589844 L 0.113281 -12.472656 L 4.5625 -12.472656 L 4.5625 0 L 8 0 Z M 8 -12.472656 "/></g></g></g><g fill="#38b6ff" fill-opacity="1"><g transform="translate(660.341815, 1383.382286)"><g><path d="M 4.816406 0 L 4.816406 -15.589844 L 1.375 -15.589844 L 1.375 0 Z M 4.816406 0 "/></g></g></g><g fill="#38b6ff" fill-opacity="1"><g transform="translate(668.365157, 1383.382286)"><g><path d="M 13.617188 0 L 13.617188 -15.589844 L 10.179688 -15.589844 L 10.179688 -5.871094 L 4.816406 -15.589844 L 1.375 -15.589844 L 1.375 0 L 4.816406 0 L 4.816406 -9.722656 L 10.179688 0 Z M 13.617188 0 "/></g></g></g><g fill="#38b6ff" fill-opacity="1"><g transform="translate(685.190633, 1383.382286)"><g><path d="M 9.859375 -5.960938 L 5.914062 -5.960938 L 7.886719 -11.507812 Z M 15.679688 0 L 9.355469 -15.589844 L 6.441406 -15.589844 L 0.113281 0 L 3.804688 0 L 4.929688 -3.140625 L 10.867188 -3.140625 L 11.992188 0 Z M 15.679688 0 "/></g></g></g><g fill="#38b6ff" fill-opacity="1"><g transform="translate(702.818386, 1383.382286)"><g><path d="M 8 -12.472656 L 12.449219 -12.472656 L 12.449219 -15.589844 L 0.113281 -15.589844 L 0.113281 -12.472656 L 4.5625 -12.472656 L 4.5625 0 L 8 0 Z M 8 -12.472656 "/></g></g></g><g fill="#38b6ff" fill-opacity="1"><g transform="translate(717.214111, 1383.382286)"><g><path d="M 4.816406 0 L 4.816406 -15.589844 L 1.375 -15.589844 L 1.375 0 Z M 4.816406 0 "/></g></g></g><g fill="#38b6ff" fill-opacity="1"><g transform="translate(725.237468, 1383.382286)"><g><path d="M 13.410156 -7.816406 C 13.410156 -5.410156 11.234375 -3.210938 8.828125 -3.210938 C 6.417969 -3.210938 4.242188 -5.410156 4.242188 -7.816406 C 4.242188 -10.226562 6.417969 -12.402344 8.828125 -12.402344 C 11.234375 -12.402344 13.410156 -10.226562 13.410156 -7.816406 Z M 16.851562 -7.796875 C 16.851562 -12.105469 13.136719 -15.820312 8.828125 -15.820312 C 4.515625 -15.820312 0.800781 -12.105469 0.800781 -7.796875 C 0.800781 -3.484375 4.515625 0.230469 8.828125 0.230469 C 13.136719 0.230469 16.851562 -3.484375 16.851562 -7.796875 Z M 16.851562 -7.796875 "/></g></g></g><g fill="#38b6ff" fill-opacity="1"><g transform="translate(744.721917, 1383.382286)"><g><path d="M 13.617188 0 L 13.617188 -15.589844 L 10.179688 -15.589844 L 10.179688 -5.871094 L 4.816406 -15.589844 L 1.375 -15.589844 L 1.375 0 L 4.816406 0 L 4.816406 -9.722656 L 10.179688 0 Z M 13.617188 0 "/></g></g></g><g fill="#ffde59" fill-opacity="1"><g transform="translate(646.485274, 1210.938762)"><g><path d="M 0.273438 -4.539062 C 1.238281 -4.402344 1.972656 -4.632812 2.523438 -5.367188 C 2.796875 -5.6875 2.933594 -6.238281 2.933594 -7.015625 L 2.933594 -33.707031 L 7.886719 -33.707031 L 7.886719 -6.238281 C 7.886719 -4.402344 7.429688 -2.707031 6.28125 -1.46875 C 5.136719 -0.230469 3.210938 0.503906 0.273438 0.320312 Z M 0.273438 -4.539062 "/></g></g></g><g fill="#ffde59" fill-opacity="1"><g transform="translate(658.26966, 1210.938762)"><g><path d="M 14.71875 -6.925781 C 14.675781 -5.546875 14.398438 -4.3125 13.894531 -3.257812 C 13.480469 -2.339844 12.839844 -1.46875 11.921875 -0.78125 C 11.007812 -0.046875 9.769531 0.367188 8.117188 0.367188 C 6.464844 0.367188 5.183594 -0.046875 4.265625 -0.78125 C 3.347656 -1.46875 2.75 -2.339844 2.339844 -3.257812 C 1.835938 -4.3125 1.558594 -5.546875 1.511719 -6.925781 L 1.511719 -26.78125 C 1.558594 -28.109375 1.835938 -29.347656 2.339844 -30.402344 C 2.75 -31.320312 3.347656 -32.238281 4.265625 -32.925781 C 5.183594 -33.613281 6.464844 -34.074219 8.117188 -34.074219 C 9.769531 -34.074219 11.007812 -33.613281 11.921875 -32.925781 C 12.839844 -32.238281 13.480469 -31.320312 13.894531 -30.402344 C 14.398438 -29.347656 14.675781 -28.109375 14.71875 -26.78125 Z M 9.769531 -26.78125 C 9.769531 -27.699219 9.585938 -28.339844 9.125 -28.890625 C 8.894531 -29.121094 8.53125 -29.257812 8.117188 -29.257812 C 7.246094 -29.257812 6.832031 -28.617188 6.648438 -28.019531 C 6.511719 -27.652344 6.464844 -27.238281 6.464844 -26.78125 L 6.464844 -6.925781 C 6.464844 -5.960938 6.695312 -5.320312 7.152344 -4.816406 C 7.382812 -4.585938 7.703125 -4.449219 8.117188 -4.449219 C 8.988281 -4.449219 9.402344 -5 9.585938 -5.6875 C 9.722656 -6.007812 9.769531 -6.421875 9.769531 -6.925781 Z M 9.769531 -26.78125 "/></g></g></g><g fill="#ffde59" fill-opacity="1"><g transform="translate(676.794353, 1210.938762)"><g><path d="M 1.835938 -33.707031 L 6.785156 -33.707031 L 6.785156 0 L 1.835938 0 Z M 1.835938 -33.707031 "/></g></g></g><g fill="#ffde59" fill-opacity="1"><g transform="translate(687.707548, 1210.938762)"><g><path d="M 7.0625 -17.5625 L 6.648438 -19.121094 L 6.375 -19.121094 L 6.375 0 L 1.835938 0 L 1.835938 -33.707031 L 6.238281 -33.707031 L 11.050781 -16.140625 L 11.464844 -14.582031 L 11.738281 -14.582031 L 11.738281 -33.707031 L 16.28125 -33.707031 L 16.28125 0 L 11.878906 0 Z M 7.0625 -17.5625 "/></g></g></g><g fill="#ffde59" fill-opacity="1"><g transform="translate(708.112187, 1210.938762)"><g/></g></g><g fill="#ffde59" fill-opacity="1"><g transform="translate(717.466401, 1210.938762)"><g><path d="M 14.996094 -33.707031 L 14.996094 -6.925781 C 14.949219 -5.546875 14.675781 -4.3125 14.171875 -3.257812 C 13.757812 -2.339844 13.117188 -1.46875 12.199219 -0.78125 C 11.28125 -0.046875 10.042969 0.367188 8.390625 0.367188 C 6.742188 0.367188 5.457031 -0.046875 4.539062 -0.78125 C 3.621094 -1.46875 3.027344 -2.339844 2.613281 -3.257812 C 2.109375 -4.3125 1.835938 -5.546875 1.789062 -6.925781 L 1.789062 -33.707031 L 6.742188 -33.707031 L 6.742188 -6.925781 C 6.742188 -5.960938 6.96875 -5.320312 7.429688 -4.816406 C 7.660156 -4.585938 7.980469 -4.449219 8.390625 -4.449219 C 9.261719 -4.449219 9.675781 -5 9.859375 -5.6875 C 9.996094 -6.007812 10.042969 -6.421875 10.042969 -6.925781 L 10.042969 -33.707031 Z M 14.996094 -33.707031 "/></g></g></g><g fill="#ffde59" fill-opacity="1"><g transform="translate(736.541319, 1210.938762)"><g><path d="M 10.042969 -24.671875 C 10.042969 -25.773438 9.996094 -27.011719 9.675781 -27.972656 C 9.355469 -28.890625 8.851562 -29.53125 8.070312 -29.53125 C 6.785156 -29.488281 6.375 -28.15625 6.375 -26.183594 C 6.375 -25.039062 6.878906 -23.847656 7.613281 -22.5625 C 8.347656 -21.277344 9.308594 -19.949219 10.273438 -18.527344 C 11.417969 -16.828125 12.566406 -15.085938 13.4375 -13.390625 C 14.308594 -11.695312 14.902344 -9.949219 14.902344 -8.117188 C 14.902344 -5.871094 14.535156 -3.761719 13.480469 -2.203125 C 12.425781 -0.640625 10.730469 0.367188 8.023438 0.367188 C 4.859375 0.367188 3.074219 -0.824219 2.0625 -2.660156 C 1.054688 -4.492188 0.824219 -6.925781 0.824219 -9.445312 L 5.6875 -9.90625 C 5.6875 -8.484375 5.730469 -7.0625 6.097656 -6.007812 C 6.421875 -4.90625 6.96875 -4.171875 8.023438 -4.171875 C 9.492188 -4.171875 10.042969 -5.730469 10.042969 -7.886719 C 10.042969 -8.988281 9.492188 -10.273438 8.757812 -11.601562 C 8.347656 -12.242188 7.933594 -12.933594 7.476562 -13.621094 C 6.511719 -14.996094 5.457031 -16.554688 4.355469 -18.25 C 3.257812 -19.949219 2.429688 -21.691406 1.925781 -23.480469 C 1.652344 -24.351562 1.511719 -25.269531 1.511719 -26.183594 C 1.511719 -28.019531 1.925781 -29.992188 2.980469 -31.503906 C 4.035156 -32.972656 5.640625 -34.027344 7.980469 -34.074219 C 10.960938 -34.117188 12.703125 -32.878906 13.664062 -31.089844 C 14.628906 -29.257812 14.902344 -27.011719 14.902344 -25.128906 Z M 10.042969 -24.671875 "/></g></g></g><g fill="#ffde59" fill-opacity="1"><g transform="translate(754.558401, 1210.938762)"><g/></g></g><g fill="#ffffff" fill-opacity="1"><g transform="translate(103.140461, 514.625551)"><g><path d="M 0 -28.890625 L 0 -16.140625 L -15.390625 -16.140625 L -39.671875 -0.40625 L -39.671875 -15.046875 L -26.46875 -22.671875 L -26.46875 -22.890625 L -39.671875 -30.515625 L -39.671875 -44.40625 L -15.390625 -28.890625 Z M 0 -28.890625 "/></g></g></g><g fill="#ffffff" fill-opacity="1"><g transform="translate(103.140461, 445.547211)"><g><path d="M -40.375 -23.984375 C -40.375 -30.828125 -38.625 -36.113281 -35.125 -39.84375 C -31.625 -43.582031 -26.53125 -45.453125 -19.84375 -45.453125 C -13.144531 -45.453125 -8.046875 -43.582031 -4.546875 -39.84375 C -1.054688 -36.113281 0.6875 -30.828125 0.6875 -23.984375 C 0.6875 -17.140625 -1.050781 -11.863281 -4.53125 -8.15625 C -8.007812 -4.445312 -13.113281 -2.59375 -19.84375 -2.59375 C -26.570312 -2.59375 -31.675781 -4.445312 -35.15625 -8.15625 C -38.632812 -11.863281 -40.375 -17.140625 -40.375 -23.984375 Z M -30.859375 -23.984375 C -30.859375 -21.253906 -30.03125 -19.175781 -28.375 -17.75 C -26.71875 -16.332031 -24.488281 -15.625 -21.6875 -15.625 L -18 -15.625 C -15.1875 -15.625 -12.953125 -16.332031 -11.296875 -17.75 C -9.648438 -19.175781 -8.828125 -21.253906 -8.828125 -23.984375 C -8.828125 -26.722656 -9.648438 -28.8125 -11.296875 -30.25 C -12.953125 -31.6875 -15.1875 -32.40625 -18 -32.40625 L -21.6875 -32.40625 C -24.488281 -32.40625 -26.71875 -31.6875 -28.375 -30.25 C -30.03125 -28.8125 -30.859375 -26.722656 -30.859375 -23.984375 Z M -30.859375 -23.984375 "/></g></g></g><g fill="#ffffff" fill-opacity="1"><g transform="translate(103.140461, 373.297781)"><g><path d="M -15.96875 -43.765625 C -10.550781 -43.765625 -6.421875 -42.050781 -3.578125 -38.625 C -0.734375 -35.207031 0.6875 -30.347656 0.6875 -24.046875 C 0.6875 -17.742188 -0.734375 -12.867188 -3.578125 -9.421875 C -6.421875 -5.984375 -10.550781 -4.265625 -15.96875 -4.265625 L -39.671875 -4.265625 L -39.671875 -17.015625 L -16.140625 -17.015625 C -13.910156 -17.015625 -12.132812 -17.609375 -10.8125 -18.796875 C -9.488281 -19.992188 -8.828125 -21.722656 -8.828125 -23.984375 C -8.828125 -26.253906 -9.5 -27.992188 -10.84375 -29.203125 C -12.1875 -30.421875 -13.953125 -31.03125 -16.140625 -31.03125 L -39.671875 -31.03125 L -39.671875 -43.765625 Z M -15.96875 -43.765625 "/></g></g></g><g fill="#ffffff" fill-opacity="1"><g transform="translate(103.140461, 301.048352)"><g><path d="M -27.515625 -41.921875 C -25.085938 -41.921875 -22.894531 -41.265625 -20.9375 -39.953125 C -18.976562 -38.648438 -17.535156 -36.75 -16.609375 -34.25 L 0 -43.078125 L 0 -28.78125 L -14.46875 -21.75 L -14.46875 -17.015625 L 0 -17.015625 L 0 -4.265625 L -39.671875 -4.265625 L -39.671875 -28.546875 C -39.671875 -31.390625 -39.125 -33.820312 -38.03125 -35.84375 C -36.9375 -37.863281 -35.457031 -39.378906 -33.59375 -40.390625 C -31.726562 -41.410156 -29.703125 -41.921875 -27.515625 -41.921875 Z M -26.984375 -28.953125 C -28.023438 -28.953125 -28.890625 -28.601562 -29.578125 -27.90625 C -30.273438 -27.21875 -30.625 -26.375 -30.625 -25.375 L -30.625 -17.015625 L -23.296875 -17.015625 L -23.296875 -25.375 C -23.296875 -26.375 -23.648438 -27.21875 -24.359375 -27.90625 C -25.078125 -28.601562 -25.953125 -28.953125 -26.984375 -28.953125 Z M -26.984375 -28.953125 "/></g></g></g><g fill="#ffffff" fill-opacity="1"><g transform="translate(133.102125, 504.87341)"><g><path d="M 10.828125 -21.5625 C 13.765625 -21.5625 16.015625 -20.660156 17.578125 -18.859375 C 19.148438 -17.066406 19.9375 -14.476562 19.9375 -11.09375 C 19.9375 -7.445312 19.101562 -4.640625 17.4375 -2.671875 C 15.769531 -0.710938 13.390625 0.265625 10.296875 0.265625 C 7.410156 0.265625 5.179688 -0.664062 3.609375 -2.53125 C 2.046875 -4.394531 1.265625 -7.050781 1.265625 -10.5 C 1.265625 -14.050781 2.09375 -16.78125 3.75 -18.6875 C 5.40625 -20.601562 7.765625 -21.5625 10.828125 -21.5625 Z M 10.671875 -19.390625 C 6.222656 -19.390625 4 -16.523438 4 -10.796875 C 4 -7.753906 4.535156 -5.5 5.609375 -4.03125 C 6.691406 -2.5625 8.320312 -1.828125 10.5 -1.828125 C 14.9375 -1.828125 17.15625 -4.75 17.15625 -10.59375 C 17.15625 -13.570312 16.617188 -15.78125 15.546875 -17.21875 C 14.472656 -18.664062 12.847656 -19.390625 10.671875 -19.390625 Z M 10.671875 -19.390625 "/></g></g></g><g fill="#ffffff" fill-opacity="1"><g transform="translate(157.856794, 504.87341)"><g><path d="M 18.359375 -10.5 L 18.328125 -8.09375 C 18.367188 -5.476562 17.675781 -3.4375 16.25 -1.96875 C 14.832031 -0.5 12.816406 0.234375 10.203125 0.234375 C 7.691406 0.234375 5.765625 -0.460938 4.421875 -1.859375 C 3.078125 -3.265625 2.425781 -5.242188 2.46875 -7.796875 L 2.5 -10.703125 L 2.46875 -21.359375 L 5.09375 -21.359375 L 5 -8.125 C 4.976562 -6.125 5.421875 -4.617188 6.328125 -3.609375 C 7.242188 -2.597656 8.597656 -2.09375 10.390625 -2.09375 C 12.191406 -2.09375 13.554688 -2.570312 14.484375 -3.53125 C 15.421875 -4.488281 15.878906 -5.910156 15.859375 -7.796875 L 15.734375 -21.359375 L 18.390625 -21.359375 Z M 18.359375 -10.5 "/></g></g></g><g fill="#ffffff" fill-opacity="1"><g transform="translate(182.311616, 504.87341)"><g><path d="M 11.796875 -8.625 C 13.265625 -6.207031 15.109375 -3.546875 17.328125 -0.640625 L 17.296875 -0.296875 C 16.492188 0.015625 15.671875 0.210938 14.828125 0.296875 L 14.46875 0.0625 C 12.644531 -2.664062 11.007812 -5.332031 9.5625 -7.9375 L 5.671875 -7.9375 L 5.671875 -6.671875 L 5.796875 0 L 3.09375 0 L 3.265625 -6.4375 L 3.09375 -21.359375 L 9.625 -21.390625 C 11.71875 -21.390625 13.335938 -20.863281 14.484375 -19.8125 C 15.628906 -18.757812 16.203125 -17.253906 16.203125 -15.296875 C 16.203125 -13.828125 15.816406 -12.507812 15.046875 -11.34375 C 14.273438 -10.175781 13.191406 -9.269531 11.796875 -8.625 Z M 5.703125 -10.203125 L 9.703125 -10.09375 C 12.191406 -10.8125 13.4375 -12.46875 13.4375 -15.0625 C 13.4375 -16.414062 13.066406 -17.429688 12.328125 -18.109375 C 11.597656 -18.785156 10.5 -19.148438 9.03125 -19.203125 L 5.796875 -19.09375 Z M 5.703125 -10.203125 "/></g></g></g><g fill="#ffffff" fill-opacity="1"><g transform="translate(204.400993, 504.87341)"><g/></g></g><g fill="#ffffff" fill-opacity="1"><g transform="translate(213.497022, 504.87341)"><g><path d="M 11.671875 -21.53125 C 13.910156 -21.53125 16 -21.03125 17.9375 -20.03125 L 17.390625 -17.5 L 17.0625 -17.4375 C 16 -18.101562 15.015625 -18.578125 14.109375 -18.859375 C 13.210938 -19.148438 12.265625 -19.296875 11.265625 -19.296875 C 6.441406 -19.296875 4.03125 -16.316406 4.03125 -10.359375 C 4.03125 -7.492188 4.59375 -5.390625 5.71875 -4.046875 C 6.84375 -2.703125 8.582031 -2.03125 10.9375 -2.03125 C 11.550781 -2.03125 12.175781 -2.082031 12.8125 -2.1875 C 13.445312 -2.300781 14.265625 -2.515625 15.265625 -2.828125 L 15.328125 -5.328125 L 15.296875 -8.53125 L 17.796875 -8.734375 L 17.734375 -5.703125 L 17.859375 -1.03125 C 16.421875 -0.582031 15.144531 -0.257812 14.03125 -0.0625 C 12.914062 0.132812 11.835938 0.234375 10.796875 0.234375 C 7.617188 0.234375 5.234375 -0.664062 3.640625 -2.46875 C 2.054688 -4.269531 1.265625 -6.867188 1.265625 -10.265625 C 1.265625 -13.929688 2.164062 -16.722656 3.96875 -18.640625 C 5.769531 -20.566406 8.335938 -21.53125 11.671875 -21.53125 Z M 11.671875 -21.53125 "/></g></g></g><g fill="#ffffff" fill-opacity="1"><g transform="translate(237.085627, 504.87341)"><g><path d="M 18.359375 -10.5 L 18.328125 -8.09375 C 18.367188 -5.476562 17.675781 -3.4375 16.25 -1.96875 C 14.832031 -0.5 12.816406 0.234375 10.203125 0.234375 C 7.691406 0.234375 5.765625 -0.460938 4.421875 -1.859375 C 3.078125 -3.265625 2.425781 -5.242188 2.46875 -7.796875 L 2.5 -10.703125 L 2.46875 -21.359375 L 5.09375 -21.359375 L 5 -8.125 C 4.976562 -6.125 5.421875 -4.617188 6.328125 -3.609375 C 7.242188 -2.597656 8.597656 -2.09375 10.390625 -2.09375 C 12.191406 -2.09375 13.554688 -2.570312 14.484375 -3.53125 C 15.421875 -4.488281 15.878906 -5.910156 15.859375 -7.796875 L 15.734375 -21.359375 L 18.390625 -21.359375 Z M 18.359375 -10.5 "/></g></g></g><g fill="#ffffff" fill-opacity="1"><g transform="translate(261.540452, 504.87341)"><g><path d="M 5.671875 -6.671875 L 5.796875 0 L 3.09375 0 L 3.265625 -6.4375 L 3.09375 -21.359375 L 5.828125 -21.359375 Z M 5.671875 -6.671875 "/></g></g></g><g fill="#ffffff" fill-opacity="1"><g transform="translate(274.068059, 504.87341)"><g><path d="M 10.828125 -21.5 C 13.867188 -21.5 16.203125 -20.628906 17.828125 -18.890625 C 19.453125 -17.160156 20.265625 -14.675781 20.265625 -11.4375 C 20.265625 -7.675781 19.382812 -4.796875 17.625 -2.796875 C 15.875 -0.796875 13.351562 0.203125 10.0625 0.203125 C 9.15625 0.203125 8.050781 0.179688 6.75 0.140625 C 5.445312 0.109375 4.242188 0.0625 3.140625 0 L 3.09375 0 L 3.265625 -6.4375 L 3.09375 -21.359375 L 3.140625 -21.359375 Z M 10.5 -2.03125 C 12.757812 -2.03125 14.492188 -2.769531 15.703125 -4.25 C 16.921875 -5.726562 17.53125 -7.929688 17.53125 -10.859375 C 17.53125 -16.460938 15.226562 -19.265625 10.625 -19.265625 C 9.226562 -19.265625 7.617188 -19.21875 5.796875 -19.125 L 5.671875 -6.671875 L 5.765625 -2.234375 C 6.453125 -2.171875 7.28125 -2.117188 8.25 -2.078125 C 9.21875 -2.046875 9.96875 -2.03125 10.5 -2.03125 Z M 10.5 -2.03125 "/></g></g></g><g fill="#ffffff" fill-opacity="1"><g transform="translate(299.189203, 504.87341)"><g><path d="M 15.296875 -2.0625 L 15.09375 0 L 3.09375 0 L 3.265625 -6.4375 L 3.09375 -21.359375 L 15.125 -21.359375 L 15.265625 -21.09375 L 15.0625 -19.03125 L 10.03125 -19.125 L 5.796875 -19.0625 L 5.734375 -12.0625 L 9.734375 -12 L 13.265625 -12.09375 L 13.46875 -11.859375 L 13.234375 -9.796875 L 9.5 -9.859375 L 5.703125 -9.828125 L 5.671875 -6.671875 L 5.765625 -2.234375 L 10 -2.203125 L 15.125 -2.328125 Z M 15.296875 -2.0625 "/></g></g></g><g fill="#ffffff" fill-opacity="1"><g transform="translate(318.846494, 504.87341)"><g><path d="M 19.5 -6.265625 L 19.5625 0 L 16.765625 0 L 5.703125 -17.09375 L 5.53125 -17.09375 L 5.5 -7.03125 L 5.53125 0 L 3.140625 0 L 3.234375 -6.328125 L 3.171875 -21.359375 L 5.9375 -21.359375 L 16.96875 -4.265625 L 17.203125 -4.265625 L 17.15625 -21.234375 L 19.65625 -21.4375 Z M 19.5 -6.265625 "/></g></g></g><g fill="#ffffff" fill-opacity="1"><g transform="translate(345.200344, 504.87341)"><g><path d="M 10.734375 -21.53125 C 12.972656 -21.53125 14.914062 -21 16.5625 -19.9375 L 16.03125 -17.5 L 15.734375 -17.4375 C 14.242188 -18.675781 12.53125 -19.296875 10.59375 -19.296875 C 8.488281 -19.296875 6.867188 -18.566406 5.734375 -17.109375 C 4.597656 -15.660156 4.03125 -13.535156 4.03125 -10.734375 C 4.03125 -7.910156 4.597656 -5.753906 5.734375 -4.265625 C 6.867188 -2.773438 8.46875 -2.03125 10.53125 -2.03125 C 11.507812 -2.03125 12.476562 -2.207031 13.4375 -2.5625 C 14.40625 -2.914062 15.289062 -3.414062 16.09375 -4.0625 L 16.4375 -3.90625 L 16.203125 -1.359375 C 14.265625 -0.296875 12.296875 0.234375 10.296875 0.234375 C 7.429688 0.234375 5.207031 -0.691406 3.625 -2.546875 C 2.050781 -4.398438 1.265625 -7.050781 1.265625 -10.5 C 1.265625 -14.03125 2.085938 -16.75 3.734375 -18.65625 C 5.378906 -20.570312 7.710938 -21.53125 10.734375 -21.53125 Z M 10.734375 -21.53125 "/></g></g></g><g fill="#ffffff" fill-opacity="1"><g transform="translate(366.123634, 504.87341)"><g><path d="M 15.296875 -2.0625 L 15.09375 0 L 3.09375 0 L 3.265625 -6.4375 L 3.09375 -21.359375 L 15.125 -21.359375 L 15.265625 -21.09375 L 15.0625 -19.03125 L 10.03125 -19.125 L 5.796875 -19.0625 L 5.734375 -12.0625 L 9.734375 -12 L 13.265625 -12.09375 L 13.46875 -11.859375 L 13.234375 -9.796875 L 9.5 -9.859375 L 5.703125 -9.828125 L 5.671875 -6.671875 L 5.765625 -2.234375 L 10 -2.203125 L 15.125 -2.328125 Z M 15.296875 -2.0625 "/></g></g></g></svg>