<svg xmlns="http://www.w3.org/2000/svg" viewBox="0 0 231.85 231.85"><defs><style>.cls-1{fill:#fff;}</style></defs><g id="Layer_2" data-name="Layer 2"><g id="Layer_1-2" data-name="Layer 1"><rect width="231.85" height="231.85" rx="17.1"/><path class="cls-1" d="M167.92,138.69c-3.63,16.78-12.46,27.84-19.59,36.73-7.35,9.16-14.29,14.94-24.88,23.73A273.88,273.88,0,0,1,95.76,219.5a244.15,244.15,0,0,1-21.92,12.35H58.9c4.71-3.13,10.91-7.41,18-12.79.57-.43,4.18-3.2,8.18-6.4,20.17-16.1,30-25.44,39-36.76,7.36-9.25,11.5-16.42,14.54-23.86,4.42-10.6,9.07-21.87,4.89-34.19-.7-2.09-5.31-14.87-17.78-19.39-10.63-3.88-20.43.64-27.69,4a52.81,52.81,0,0,0-9.26,5.45A67.62,67.62,0,0,0,76.54,120a73.83,73.83,0,0,0-11.17,18.59L65.34,0H88.9q-.08,38.42-.14,76.84c6.55-3.43,26.78-12.73,48.62-4.11a52.38,52.38,0,0,1,24,19C174,110.43,169.52,131.35,167.92,138.69Z"/></g></g></svg>