<svg xmlns="http://www.w3.org/2000/svg" viewBox="0 0 289.1 81.87"><g id="Layer_2" data-name="Layer 2"><g id="Layer_1-2" data-name="Layer 1"><path d="M0,41.24V79a23,23,0,0,0,18.08-2.42A23,23,0,0,0,28.4,61.05,24.54,24.54,0,0,0,18.08,44.77,24.48,24.48,0,0,0,0,41.24Z"/><path d="M62.91,81.72q-8.19,0-13.28-5.16T44.54,62.82V61.75a23,23,0,0,1,2.22-10.27,16.84,16.84,0,0,1,6.22-7,16.47,16.47,0,0,1,8.94-2.52q7.85,0,12.11,5t4.28,14.15v3.47H53.23a11.5,11.5,0,0,0,3.18,7.52,9.5,9.5,0,0,0,7,2.77,11.69,11.69,0,0,0,9.65-4.79l4.64,4.43a15.41,15.41,0,0,1-6.15,5.34A19.21,19.21,0,0,1,62.91,81.72Zm-1-32.88a7.24,7.24,0,0,0-5.73,2.49,12.87,12.87,0,0,0-2.79,6.91H69.79V57.6c-.19-2.88-1-5.06-2.3-6.54A7.2,7.2,0,0,0,61.89,48.84Z" style="fill:#e02102"/><path d="M83.38,61.54q0-8.86,4.11-14.24a13.18,13.18,0,0,1,11-5.37,12.55,12.55,0,0,1,9.86,4.25V26.54H117V81h-7.81l-.42-4a12.71,12.71,0,0,1-10.32,4.68,13.12,13.12,0,0,1-10.91-5.43Q83.39,70.86,83.38,61.54Zm8.61.74c0,3.9.76,7,2.26,9.14a7.31,7.31,0,0,0,6.4,3.28A8.15,8.15,0,0,0,108.38,70V53.6A8,8,0,0,0,100.72,49a7.38,7.38,0,0,0-6.46,3.32Q92,55.61,92,62.28Z" style="fill:#e02102"/><path d="M125.83,61.54q0-8.86,4.11-14.24a13.18,13.18,0,0,1,11-5.37,12.56,12.56,0,0,1,9.86,4.25V26.54h8.62V81h-7.81l-.42-4a12.71,12.71,0,0,1-10.32,4.68A13.12,13.12,0,0,1,130,76.29Q125.82,70.86,125.83,61.54Zm8.61.74q0,5.85,2.26,9.14a7.31,7.31,0,0,0,6.4,3.28A8.15,8.15,0,0,0,150.83,70V53.6A8,8,0,0,0,143.17,49a7.38,7.38,0,0,0-6.46,3.32Q134.45,55.61,134.44,62.28Z" style="fill:#7a7a7a"/><path d="M202.14,69.13l6.1-26.49h8.41L206.19,81h-7.1l-8.22-26.35L182.78,81h-7.09l-10.5-38.37h8.41l6.2,26.2,7.87-26.2h6.5Z" style="fill:#7a7a7a"/><path d="M239.31,81.72q-8.19,0-13.28-5.16t-5.09-13.74V61.75a23,23,0,0,1,2.22-10.27,16.77,16.77,0,0,1,6.22-7,16.44,16.44,0,0,1,8.94-2.52q7.83,0,12.11,5t4.27,14.15v3.47H229.63a11.54,11.54,0,0,0,3.17,7.52,9.52,9.52,0,0,0,7,2.77,11.66,11.66,0,0,0,9.64-4.79l4.65,4.43A15.48,15.48,0,0,1,248,79.82,19.24,19.24,0,0,1,239.31,81.72Zm-1-32.88a7.27,7.27,0,0,0-5.73,2.49,12.86,12.86,0,0,0-2.78,6.91h16.42V57.6a10.53,10.53,0,0,0-2.3-6.54A7.21,7.21,0,0,0,238.28,48.84Z" style="fill:#7a7a7a"/><path d="M270.55,81h-8.61V26.54h8.61Z" style="fill:#7a7a7a"/><path d="M289.1,81h-8.62V26.54h8.62Z" style="fill:#7a7a7a"/><path d="M0,0V26a16.57,16.57,0,0,0,6.39-4.82A16.59,16.59,0,0,0,9.91,13,15.3,15.3,0,0,0,7.13,5.43,15.39,15.39,0,0,0,0,0Z" style="fill:#e02102"/><path d="M0,44.34v34c.64.2,8.69,2.51,15.3-3.24,6-5.22,5.91-12.83,5.88-13.76.45-6.58-2.58-12.79-7.78-15.92A15.89,15.89,0,0,0,0,44.34Z" style="fill:#7a7a7a"/><path d="M0,26.57v16.5c1.75-.38,9.62-1.88,15.66,2.78,8.78,6.78,9.17,22.94.56,30C10,81,1.52,79.36,0,79c1.17.57,13.73,6.41,26.23-.56C39,71.4,40.29,57.32,40.5,55.31A28.64,28.64,0,0,0,27.34,27.87C14.5,19.91.92,26.13,0,26.57Z" style="fill:#e02102"/></g></g></svg>