<svg xmlns="http://www.w3.org/2000/svg" viewBox="0 0 271.58 47.37"><g id="Layer_2" data-name="Layer 2"><g id="Layer_3" data-name="Layer 3"><path d="M20.86,31.32c-.76-.23-1.54-.38-2.49-.61.69-.23,1.21-.4,1.73-.59,5.9-2.19,5.33-9.4,2.2-11.83a10,10,0,0,0-6.26-2c-3.43,0-6.87.13-10.3.18a34.37,34.37,0,0,0-4.06,0c-.82.1-1.52.37-1.66,1.27S.53,19,1.24,19.27A2.18,2.18,0,0,1,2.8,21.53,170.72,170.72,0,0,1,2.85,41c-.07,1.43-.33,2.58-1.93,3A1.18,1.18,0,0,0,0,45.24a1.36,1.36,0,0,0,1,1.21,7.21,7.21,0,0,0,2.84.28,78.5,78.5,0,0,1,8.26.06c3,.16,6,.35,8.9-.64a7.53,7.53,0,0,0,5.53-7.63C26.5,34.93,24.57,32.47,20.86,31.32ZM8.56,25.75H8.51c.1-1.59.19-3.17.3-4.76a1.63,1.63,0,0,1,1.58-1.73,11.34,11.34,0,0,1,5.18.45c2.19.77,3.2,2.52,3.09,5.2a4.35,4.35,0,0,1-3.4,4.47,18.69,18.69,0,0,1-5.92.45c-.58,0-.83-.22-.8-.86C8.6,27.9,8.56,26.82,8.56,25.75Zm8.33,17.69a13.3,13.3,0,0,1-6.51.3,1.8,1.8,0,0,1-1.59-1.67,77,77,0,0,1-.24-8.59c0-.54.35-.56.69-.58.79-.07,1.59-.09,2.39-.13a15.27,15.27,0,0,1,5.41.78,4.83,4.83,0,0,1,3.3,5.11A4.85,4.85,0,0,1,16.89,43.44Z" fill="#fff"/><path d="M57.47,15.55c-5.73.31-10.16,2.8-12.79,8a17.23,17.23,0,0,0-1.4,10.24c1.07,8.47,8,14.17,16.88,13.53,7.66-.56,14-6.25,13.85-15.34C74.2,24.26,69,14.92,57.47,15.55ZM67,38.93a8.13,8.13,0,0,1-14.09,2.14c-2.84-3.41-3.61-7.44-3.68-11.26A14.41,14.41,0,0,1,50.47,23a7.94,7.94,0,0,1,12.86-2.22,15.25,15.25,0,0,1,4.42,9.8A16.72,16.72,0,0,1,67,38.93Z" fill="#fff"/><path d="M153.76,35.19a27.34,27.34,0,0,0-3.94.16c-.61.11-1,.37-1,1a55.92,55.92,0,0,0,.1,6.21,1.51,1.51,0,0,0,1.11,1.51c.54.17,1,.5.94,1.2s-.63.88-1.2,1a22.3,22.3,0,0,1-6.32,0c-.59-.09-1.13-.3-1.23-1s.4-1,.95-1.21a1.54,1.54,0,0,0,1.13-1.49,83.7,83.7,0,0,0,.25-10.62c-.06-1.79,0-3.58-.23-5.37A1.64,1.64,0,0,0,143.22,25c-.54-.2-1-.52-1-1.2s.67-.87,1.23-.92a34.92,34.92,0,0,1,6.22,0c.52,0,1.16.12,1.28.85s-.41,1.08-1,1.27a1.51,1.51,0,0,0-1.08,1.54c-.06,1.63-.07,3.27-.09,4.9a.88.88,0,0,0,.88.94,34.41,34.41,0,0,0,8.24,0c.63-.08.85-.53.84-1.12,0-1.59-.09-3.18-.12-4.77a1.51,1.51,0,0,0-1.2-1.45c-.57-.21-1.15-.47-1-1.25s.76-.8,1.28-.85a36.68,36.68,0,0,1,6.46,0c.56.05,1.14.22,1.19,1a1.05,1.05,0,0,1-.91,1.1,1.68,1.68,0,0,0-1.22,1.71,109.31,109.31,0,0,0,0,15.88,1.58,1.58,0,0,0,1.17,1.59c.53.17,1.06.48,1,1.2s-.66.85-1.23.94a22.78,22.78,0,0,1-6.44,0c-.61-.09-1.21-.27-1.28-1s.49-1,1-1.14a1.43,1.43,0,0,0,1.18-1.32,49.32,49.32,0,0,0,.12-6.2c0-.79-.38-1.11-1.15-1.22A37.69,37.69,0,0,0,153.76,35.19Z" fill="#fff"/><path d="M259.91,35.18a30.51,30.51,0,0,0-3.82.16c-.66.12-1,.39-1,1.06,0,2,0,4,.08,6a1.58,1.58,0,0,0,1.19,1.7,1,1,0,0,1,.88,1.24c-.11.62-.61.8-1.14.88a21.72,21.72,0,0,1-6.44,0c-.58-.09-1.1-.32-1.16-1a1.09,1.09,0,0,1,.9-1.12,1.57,1.57,0,0,0,1.18-1.58A80,80,0,0,0,250.8,32c-.06-1.79,0-3.58-.23-5.37a1.76,1.76,0,0,0-1.19-1.71c-.56-.19-1-.54-.89-1.23s.65-.79,1.17-.83a30.9,30.9,0,0,1,6.45,0c.52.06,1,.22,1.11.88a1,1,0,0,1-.86,1.13,1.76,1.76,0,0,0-1.27,1.92c0,1.48,0,2.95-.06,4.42a1,1,0,0,0,1,1.12,35.56,35.56,0,0,0,8.12,0A.93.93,0,0,0,265,31.2c0-1.63-.08-3.26-.12-4.9,0-.81-.58-1.15-1.26-1.4s-1-.46-1-1.17.71-.83,1.24-.89a33.64,33.64,0,0,1,6.58,0c.51,0,1,.23,1.11.88a1,1,0,0,1-.86,1.13,1.74,1.74,0,0,0-1.27,1.8,110.39,110.39,0,0,0,0,15.75A1.59,1.59,0,0,0,270.58,44c.52.18,1.08.44,1,1.16s-.68.92-1.29,1a22.41,22.41,0,0,1-6.44,0c-.57-.08-1.11-.27-1.21-1s.43-1,1-1.18a1.64,1.64,0,0,0,1.28-1.76,51.88,51.88,0,0,0,.06-5.85c0-.74-.37-1-1.08-1.14A37.15,37.15,0,0,0,259.91,35.18Z" fill="#fff"/><path d="M174.94,22.77c3.12-.2,5.89.25,8.61-.4a.89.89,0,0,1,1.06.58,8.4,8.4,0,0,1,.84,3.68c0,.56-.15,1.16-.8,1.33a1,1,0,0,1-1.24-.72c-.9-2.17-2.7-2.48-4.73-2.37a22.5,22.5,0,0,0-3.58.21,1.59,1.59,0,0,0-1.4,1.4,35.45,35.45,0,0,0-.18,5.25c0,.56.3.79.82.78,1.2,0,2.4,0,3.59-.06s1.59-.88,1.75-1.92c.12-.76.07-1.81,1.15-1.79s1,1.09,1.12,1.9a28.78,28.78,0,0,1,0,6.56c-.08.67-.14,1.46-1,1.52s-1-.79-1.18-1.48c-.37-1.93-.71-2.24-2.69-2.31-.83,0-1.67,0-2.51,0-.62,0-1,.25-1,.91,0,2-.09,3.9.08,5.85a1.85,1.85,0,0,0,1.85,1.93,25.06,25.06,0,0,0,5.61,0A3.83,3.83,0,0,0,184.15,41c.29-.65.43-1.7,1.43-1.44s.69,1.24.67,2a12.28,12.28,0,0,1-1,4,1.34,1.34,0,0,1-1.78.91c-2.28-.52-4.61-.22-6.92-.26-2.48,0-5,0-7.43,0a9.51,9.51,0,0,1-1.31-.11,1,1,0,0,1-.92-.81.93.93,0,0,1,.6-1.06c1.37-.37,1.59-1.43,1.62-2.58a131.87,131.87,0,0,0-.15-15.4,1.34,1.34,0,0,0-1-1.2c-.57-.24-1.16-.55-1.09-1.26s.88-.92,1.48-.93C170.68,22.74,173,22.77,174.94,22.77Z" fill="#fff"/><path d="M34.77,16.25a24.84,24.84,0,0,1,4.51.23c.58.13,1.06.36,1.18,1a1.14,1.14,0,0,1-.83,1.41c-1.55.41-1.83,1.53-1.91,2.9-.34,5.1-.15,10.2-.12,15.29,0,1.59.16,3.18.21,4.77a1.84,1.84,0,0,0,1.38,2c.75.23,1.44.64,1.27,1.61s-.86,1.11-1.59,1.21a28.5,28.5,0,0,1-8.35,0c-.68-.1-1.33-.38-1.43-1.21A1.32,1.32,0,0,1,30.2,43.9c1.29-.37,1.53-1.32,1.63-2.46.42-4.61.25-9.23.24-13.85,0-2.07-.17-4.14-.26-6.2a2.11,2.11,0,0,0-1.52-2.28c-.73-.22-1.31-.66-1.2-1.55s.87-1,1.58-1.14A28.59,28.59,0,0,1,34.77,16.25Z" fill="#fff"/><path d="M210.56,44.32c-1.92-.61-2.51-2.24-3.16-3.8-2.1-5-4-10.12-6.31-15.05-.41-.86-.82-1.73-1.28-2.56s-1.36-.67-2.15-.66c-.63,0-.91.44-1,1-1.61,6-4.3,11.62-6.52,17.41-.58,1.5-1.33,2.9-3,3.51a1,1,0,0,0-.65,1.14,1.06,1.06,0,0,0,1,.89,18.91,18.91,0,0,0,6.19,0,1.12,1.12,0,0,0,1.09-1.07c0-.65-.44-.92-.94-1.08-1.07-.34-1.76-.89-1.55-2.15.3-1.79,1-2.68,2.39-2.79,1.11-.09,2.23,0,3.35,0V39h1.79c2.79,0,3,.15,3.63,2.83,0,.12.06.23.08.35.17.88,0,1.55-1,1.83-.56.15-1.2.4-1.12,1.17s.68.92,1.3,1a26.34,26.34,0,0,0,7.15,0,2,2,0,0,0,.78-.28C211.3,45.44,211.34,44.57,210.56,44.32ZM195,36.63c-.43,0-.72-.05-.51-.59,1-2.61,1.94-5.25,3.28-8.08a79.78,79.78,0,0,1,3.47,8.66Z" fill="#fff"/><path d="M239,34.79c0,2.51,0,5,.2,7.53.06.85.26,1.44,1.14,1.71.54.16,1.09.45,1.05,1.14s-.65.94-1.26,1a21.86,21.86,0,0,1-6.56,0,1.11,1.11,0,0,1-1.09-.93c-.11-.7.37-1,.93-1.19a1.54,1.54,0,0,0,1.22-1.66c.23-5.38.28-10.75,0-16.13,0-.8-.42-1.09-1.2-1.15-2.54-.18-3.34.28-4.3,2.64a2.84,2.84,0,0,1-.59,1c-.75.68-1.5.53-1.66-.45a8.67,8.67,0,0,1,.61-5,1.38,1.38,0,0,1,1.56-.81,112.26,112.26,0,0,0,15.67,0,1.42,1.42,0,0,1,1.61.93,9.62,9.62,0,0,1,.54,4.93.85.85,0,0,1-.61.8,1.06,1.06,0,0,1-1.07-.38,6.11,6.11,0,0,1-.89-1.81,3.85,3.85,0,0,0-4.6-1.73c-.51.22-.5.64-.54,1.08C238.89,29.14,239,32,239,34.79Z" fill="#fff"/><path d="M216.08,22.8a14.8,14.8,0,0,1,3.58.08c.52.12.93.33,1,.87a.9.9,0,0,1-.69,1c-1.59.38-1.57,1.65-1.58,2.82-.06,3.42-.06,6.85-.05,10.27a27.73,27.73,0,0,0,.19,4.17,1.67,1.67,0,0,0,1.52,1.56,14.8,14.8,0,0,0,3.93.12A3.38,3.38,0,0,0,226.71,42c.23-.37.42-.76.64-1.14.38-.63.63-1.61,1.58-1.3s.7,1.23.66,2a12.21,12.21,0,0,1-.93,4.17c-.24.53-.58,1-1.26.89-4.27-.82-8.59-.21-12.89-.4-.44,0-.88,0-1.31,0-.63-.07-1.37-.06-1.5-.89s.5-1.12,1.13-1.32a1.48,1.48,0,0,0,1-1.46,80.22,80.22,0,0,0,.22-9.3,57.44,57.44,0,0,0-.2-6.56c-.09-.8-.3-1.37-1.11-1.63-.59-.2-1.14-.52-1-1.26s.8-.85,1.38-.88C214.09,22.75,215.09,22.8,216.08,22.8Z" fill="#fff"/><path d="M132.67,45.18c-1.22.17-1.58-.63-1.84-1.57s-.45-1.61-.7-2.4a4.14,4.14,0,0,0-3.39-3.28l.87-.39a4.6,4.6,0,0,0,3-5,4.07,4.07,0,0,0-4.18-3.7c-3.1-.16-6.22,0-9.33.08-.41,0-.81.14-.91.62a.82.82,0,0,0,.61,1,1.2,1.2,0,0,1,.93,1.09,86.36,86.36,0,0,1,.06,11.93c0,.76-.23,1.39-1.08,1.64a.75.75,0,0,0-.54.84.76.76,0,0,0,.72.68,16,16,0,0,0,5.34,0,.78.78,0,0,0,.12-1.54,1.29,1.29,0,0,1-1-1.27c0-1.47-.09-2.94-.12-4.41,0-.41.06-.79.55-.94A3.93,3.93,0,0,1,126,40.35a21.19,21.19,0,0,1,.82,2.23,10.81,10.81,0,0,0,1.29,2.93,3.81,3.81,0,0,0,4.73,1c.31-.19.62-.4.56-.82A.58.58,0,0,0,132.67,45.18Zm-8.19-8.53c-3,.67-3.27.45-3.27-2.76a5.75,5.75,0,0,1,0-.83c.14-.92-.39-2.11.9-2.59a4.56,4.56,0,0,1,4.36,1.28A3.15,3.15,0,0,1,124.48,36.65Z" fill="#fff"/><path d="M105.8,28.22c-5.52,0-9.12,3.59-9.12,9.1,0,5.77,3.75,9.79,9.13,9.8s9-3.69,9-9.13C114.81,32.26,111.09,28.22,105.8,28.22Zm4.8,14.21a4.68,4.68,0,0,1-8.1,1.17c-2-2.34-2.35-5.15-2.21-8.08a7.44,7.44,0,0,1,.62-2.66A4.67,4.67,0,0,1,109,31.8a10.73,10.73,0,0,1,2.21,7.1A7.69,7.69,0,0,1,110.6,42.43Z" fill="#fff"/><path d="M87.47,28.74c2.31-.16,4.39.18,6.45-.29a.73.73,0,0,1,.91.39A6.1,6.1,0,0,1,95.42,32c0,.37-.16.71-.6.79a.7.7,0,0,1-.81-.38c-1.47-3-4.1-1.86-6.42-1.8a1.13,1.13,0,0,0-1.09,1.21c-.07,1.23-.11,2.47-.14,3.7,0,.31,0,.76.38.79.91.07,1.83.06,2.74,0,1.21,0,1.26-1,1.45-1.86.1-.45.2-1,.86-1s.74.56.79,1a21.39,21.39,0,0,1,0,5.48c-.07.45-.2.88-.77.9s-.69-.42-.85-.84c-.23-.6,0-1.44-.77-1.77A7.63,7.63,0,0,0,87,38.06c-.55,0-.59.47-.6.87a41.9,41.9,0,0,0,.1,5c0,.62.43.88,1,1.09s.82.37.73.94-.5.7-.94.76a17.8,17.8,0,0,1-4.89,0c-.44,0-.89-.21-1-.74a.86.86,0,0,1,.72-1c.66-.2.81-.66.85-1.27a81,81,0,0,0,0-12.17,1.18,1.18,0,0,0-.8-1.18c-.49-.19-.87-.47-.73-1.06s.63-.61,1-.62C84.2,28.72,86,28.74,87.47,28.74Z" fill="#fff"/><path d="M41.61,3.61A13.79,13.79,0,0,0,37.1,6.48a.62.62,0,0,0-.2.47A4.81,4.81,0,0,0,37,7.6a16.36,16.36,0,0,1-.11,3.66c-2.09-3.52-4-6.84-6-10.14L29.48,0a31.41,31.41,0,0,0-1,5c-.45,4.49,2.2,8.11,6.28,8.69a27.15,27.15,0,0,1-1.86-3.34,26.42,26.42,0,0,1-1.56-4.27c.84,1.91,1.54,3.31,2,4.18.28.56,0-.08,1,1.7.68,1.16.94,1.65,1.37,1.68a1.14,1.14,0,0,0,.87-.46l.11,0a3,3,0,0,0,2.06-.58,3.42,3.42,0,0,0,.76-1.46,38.78,38.78,0,0,1,2.29-5.49C41.75,5,41.69,4.36,41.61,3.61Zm-4.23,6.53A20.85,20.85,0,0,0,39,8a20.83,20.83,0,0,0,1.33-2.31,6.13,6.13,0,0,1-1.14,2.82A6,6,0,0,1,37.38,10.14Z" fill="#9ecb3b"/><path d="M36.61,6.28a7.14,7.14,0,0,1,.44,5.35c-.84-1.24-1.54-2.22-2-2.84a62.28,62.28,0,0,1-3.91-6.53,1.65,1.65,0,0,1-.28-1.14A13.16,13.16,0,0,1,33,2.34,12.65,12.65,0,0,1,36.61,6.28Z" fill="#9ecb3b"/><path d="M38.78,12.68a60.51,60.51,0,0,1,2.15-6c.15-.43.3-.93.89-1a8.88,8.88,0,0,1,0,2.13,6.6,6.6,0,0,1-.74,2.62A5.72,5.72,0,0,1,38.78,12.68Z" fill="#90c141"/></g></g></svg>