<svg xmlns="http://www.w3.org/2000/svg" viewBox="0 0 667.09 513.75"><g id="Layer_2" data-name="Layer 2"><g id="Layer_1-2" data-name="Layer 1"><path d="M468.44,152c-3.09.52-2.62-9.51-7.84-2.64-7.4-6.62-15-13-19.59-22.17-1.4-3-3.24-5.77-3.53-9.17a50.47,50.47,0,0,1-.3-5.9c-.5-9.39,2.6-17.81,7-25.87,1.51-1.6,4.22-1.88,5-4.25,4.9-14.36,16.78-23,26.91-33.13,9.18-9.17,21-13.73,32.7-17.74,8.62-3,2,6.42,5.42,9.11,4.18-1.42,8.63-3,13.46-3.3,4.09-.24,8-2.38,7.91-6.94-.27-10.41,5.25-9.15,11.83-6.58,3.71,2,7.44,2.36,11.2.13,9.59-6.95,20-3.7,30.17-2.19,4.61.68,9.12,2.59,13.6,4.15,7.13,1.09,11.76,6.39,17.27,10.21-.35,3.84-3.6,3.79-6.19,4.63-5.19-1.12-8.86-8.09-15.5-3.87-1.6,1-4,1.23-4.89,2.93-6.21,11.91-18.13,18.43-27.67,26.5-9.09,7.69-20,15.07-30.84,19.9-7.41,3.28-13.21,8.1-19.94,11.84-6.58,3.32-10.37.79-12-7.23-5.44,6.16-12.72,7.1-18.42,11-5.41,3.72-9.05.67-7.64-4.19,3.22-11.1.5-16.65-11.34-17.12-1.56-.07-2-2.36-3.4-3.09-1.1,2.3-.48,4.95-1.72,7.15a82.16,82.16,0,0,0-8.84,18.89c-1.56,4.64-2.32,9.32,2,13.13,2.79,1.94,5.28,0,7.88-.6a9.59,9.59,0,0,1,2.51,0,27.69,27.69,0,0,0,8.85.39c14.67-6,29.35-12,43.49-19.24,14-7.43,27.28-16,40.75-24.32,6-3.69,12.37-6.65,19.49-7.49,5.34-1.37,11.06-.75,16.2-3.18a5,5,0,0,1,2.47.08c3,2.3,6.16,1.58,9.36.56,3.73-.71,7.49-.55,11.24-.6a47.72,47.72,0,0,1,16,2.61A6.59,6.59,0,0,1,633.83,66c1.19,2.46.42,4.5-1.35,6.33-1.62,1.34-3.7,1.92-5.34,3.24a17.52,17.52,0,0,1-5.06,3.12,14.42,14.42,0,0,1-2.22.48c-2.39.41-2.36,2.6-3.09,4.25-1.34,2.7-3.76,3.85-6.48,4.57-5.8,2.12-11.84,2-16.17,1.66,3-.36,5.14,2,5.63,6.41-.47,3.93-3,6.64-5.54,9.34-3.34,3.18-6.29,6.6-6.83,11.45a7.55,7.55,0,0,1-3.71,3.39c-4.09,1.43-6.11,5.88-10.33,7.15a8.64,8.64,0,0,1-3.82.16,19.75,19.75,0,0,1-4.09-1.33c-.69-.3-1.23-.31-1.17-.17.22.52.5,1,.71,1.61-.64,8.65-9.78,10.27-13.47,16.4a9.47,9.47,0,0,1-2.37,1.21c-5.82,1.81-11.08-1.68-16.94-1.84,2.46.6,4.72,1.12,4.85,4.08-1.48,3.44-4.6,4.63-7.79,5.74-3.69.86-7.33,1.92-11,2.76-1.4.43-2.79.85-4.22,1.17a30,30,0,0,1-11.93-.08A29.15,29.15,0,0,0,491.86,156C483.68,156.8,476.09,154.21,468.44,152Z" style="fill:#46b149"/><path d="M226.89,496l3.71.53c1.83,6.8-1.16,9-7.55,7.77-2.21-.42-4.38-1.51-6.61-1.33-17.34,1.37-33.81-2.15-49.75-8.63-3.39-.86-6.65-2.65-10-3-4.72-.44,1.25-5.36-3.42-6.18-8.48-1.5-16-5.9-23.81-9.51-3.61-1.68-6.47-5.57-11.2-4.57-4.36.05-6.32-4-9.73-5.63-.84-1.33-2.42-2-3-3.55-1.3-2.86-4.25-3.27-6.66-4.47l.09.05c-6.5-8-18.08-11-21.83-21.92-.4-1.17-3.26-1.93-5.32-1.16-5.72-3-7.45-9.4-11.52-13.81-2.31-3.06-1.09-7.27-3.36-10.34-.9-2.79-.91-5.77-1.85-8.55a17.18,17.18,0,0,0-1.76-4.54c-7-3.23-10.93-10.44-18-13.48-5.14-6.09-7.86-13.34-10-20.89-3.42-9.77-3-20.53-8.2-29.92-2.5-4.47,2.27-9,1.76-13.83.22-4.55-.2-9.12.65-13.61-.5-1.63,3.18-5.89-2.92-3.88C8.3,304.3,7,303.18,6,294.34c-.89-8.26,1-16.32,1.89-24.46.09-1.79.07-3.59.08-5.38.23-2.2-.49-4.46.43-6.6-1.1,4-.05,8.17-.62,12.23a30.26,30.26,0,0,0-1,10.47c.11,2.78-1.47,4.23-4.39,2.49C-.82,270.34.31,257.34.21,244.4c2.81-9.12-.55-18.63,1.73-27.78a.88.88,0,0,1,0-1.25c2.85-4.49,1.88-9.81,3.17-14.62,4.91-.14,2.22-3.84,2.8-6a11.9,11.9,0,0,1,.66-2.56c2.21-3,1.59-6.52,1.86-9.88a3.59,3.59,0,0,1,2.36-2.48c.71-.19,1.72,1.25,1.95.21s-1.79-1.16-2.13-2.35c-.64-1.74.08-3.34.46-5,6.22-14.49,13.92-28.26,20.54-42.55,1.36-2.93,2.66-7.89,8.17-5.28,2.7,5.52,1.22,10.74-1.7,15.49-4.28,7-5,13.64.47,20.28,1.29,3.56.19,7.67,2.57,11,7.23,8.75,11.29,17.81,3.73,28.61-1.85,2.63-1.85,6.23-1.12,9.34,1.5,6.33,0,12-2.85,17.53-2.56,5.56-1.15,11.46-1.41,17.21a8.41,8.41,0,0,1-.75,2.39,5.58,5.58,0,0,0,1.11-2.23c.84-3,.38-6.49,3.25-8.73a5.65,5.65,0,0,1,4.31-.13c5.16,4.73,1,10.31.83,15.23a372.4,372.4,0,0,0,1.27,48.64c2,4,1.15,8.65,3,12.7.46,2.72-.7,5.82,1.81,8.09,1.91,4.85.43,10.69,4.32,15Q65.3,347.82,70,360.39c7,13,9.65,28.46,21.55,38.75a416.67,416.67,0,0,0,38.66,45.95c1.32,2.13,2.14,4.34,1.29,6.87a5.84,5.84,0,0,1-2.76,2.88c-1.07.6-.41,1.76,0,.53s1.42,1.16.86,0c1.68-.14,3.6-.38,4.67.66,7.69,7.53,18.1,9.24,27.49,13.12,1.88,5.65,6.24,7.29,11.44,9.85,10.07,5,21.17,7.17,30.83,12.83C211.13,496.07,219.31,494.29,226.89,496Z" style="fill:#1ba44a"/><path d="M620.3,236.92a23.61,23.61,0,0,1-11.84,3.7c-6.41,1.45-12.82,1.08-19.23.07-3-.3-6-.15-9-.2-13.44-4.14-29.09-3.63-37.79-17.83-1.49-2.43-3.39-2.55-5.58-.94-6.46,2-8.75-4-12.53-6.84-8.57-6.37-17.82-11.92-22.64-22.44-2.27-4.95-2.27,1.17-3.6,1.66-2.05,1-3.59,0-5.07-1.24-1.52-1.92-2.1-4.24-2.78-6.52a47.74,47.74,0,0,1-.79-6.85,22,22,0,0,0-3.25-10.05,15.16,15.16,0,0,1-1.77-3.91c-.51-4.72-.95-9.41,5.85-9.71a8.48,8.48,0,0,1,2.67,1c2.66,2.19,6,1.88,9.1,2.36a21.07,21.07,0,0,1,2.74.54,58.67,58.67,0,0,0,20.81,0c3.59-1.18,7.82-.26,10.81-3.37,1.48-1.53,2.13-3.64,3.6-5.19a4.92,4.92,0,0,1,2.55-.59c12.56-.21,20.82-8.46,29.64-15.73,4.74-3.91,7.68-10.75,15.5-9.88a6.39,6.39,0,0,1,2.29,1.44c5.31,11.29,14.86,19.25,22.56,28.66,1.36,2.11,2.65,4.28,3.93,6.45.46.69.87,1.4,1.29,2.11a26.35,26.35,0,0,0,4.09,4.67,10,10,0,0,1,2,6c.24,2.64-.56,5.61,2.37,7.41,2.79,2.36,6.21,4.07,7.82,7.64a8.76,8.76,0,0,0,2.43,5.58c2,2.22,4.66,3.64,7,5.43a11,11,0,0,0,6.55,2.57,3.55,3.55,0,0,1,1.85,1.67,8,8,0,0,1-.21,6.53,5.36,5.36,0,0,1-2.12,1.77,17.77,17.77,0,0,1-5.54,1c-3.71,0-7.46.4-11.07-.83-1.65-2.19-3.72-.67-5.63-.59a45,45,0,0,1-9.13-1.56c-2.36-1-4.56-2.47-7.19-2.86-3.7-.4-6.44-2.79-9.5-4.51C593,201,587,194.89,579.23,187.56c6.76,6.9,12.8,11.47,17.22,17.87,3.18,4.62,7.56,8.23,14.66,6.73,5.83-1.24,9,2.38,8.23,8.64-2.32,5.57-6.82.14-10.48,2.29C610.24,229.63,617.42,231.63,620.3,236.92Z" style="fill:#46b149"/><path d="M100.72,56.19,102,54.38c3.67-.57,5.61-3.88,8.63-5.49l5.09-4.21c2.55-.56,5.41-.62,6.35-3.84l-.07.08c3.29-1.94,7-3.1,9.87-5.83a9.63,9.63,0,0,1,5.88-3.36,7.8,7.8,0,0,0,2.11,1c1.88.08,3.8.36,5.24-1.32.83-1.28,1.91-2.44,1.82-4.12C170.32,13.53,196.21,6.85,222.64,2.8,293.32-8,355.47,13.27,411.88,54.86A6.51,6.51,0,0,1,413,56.38,6.35,6.35,0,0,1,411.9,60a3.63,3.63,0,0,1-2.15,1.24c-2.72-.09-4.72-1.61-6.65-3.3a10.94,10.94,0,0,0-8-2.69c-3.58-.2-7.29.17-10.26-2.47-3.33-4.27-7.94-6.17-13.1-7-6,2.31-10.84-.27-15.43-3.75,0-4.09-2.65-5.26-6.15-5.43a19.11,19.11,0,0,1-2.5-.27,37.84,37.84,0,0,0-8.89-.59,32.52,32.52,0,0,1-5.4-.35,15.35,15.35,0,0,1-2.66-.71c-4.11-2.18-8.66-2.73-13.13-3.57-3.09-1-6.3-1-9.51-1.08a26.54,26.54,0,0,1-5.47-.72,20.61,20.61,0,0,0-13-.27,34.85,34.85,0,0,1-5.21,1.6,12.22,12.22,0,0,1-2.77,0c-5.93-.72-11.85-1.15-17.69.56A43.7,43.7,0,0,1,240,34.46c-3.58-.7-6.24,2-9.48,2.62a59.48,59.48,0,0,0-7.46,1.54,16.3,16.3,0,0,1-3.8.62c-.89,1.45-5.38-3.63-3.83,2.16a12,12,0,0,1-4.19,3.07c-4.16,4.18-9.64,5.38-15.05,6.73-1.67.62-3.76-.64-5.17,1.2-2.67,3.1-5.74,4.31-9.54,2a7.17,7.17,0,0,1-.07-2.53c.36-.8,1.51-1.24,1.65-1.67.39-1.17,1.24-.46.18-.31-1.36.2-2.07,1.74-2.12,3.27-1.43,3.88-4.43,2.46-7.1,2.08-6.22-.89-2.74,2.89-2.47,5.13-2.87,7.2-7.82,11.08-15.9,9.95-1.86-.45-3.73-.93-5.53.27-3.14,1.7-4.71,5.59-8.62,6.2-3.3-.28-6.61-.66-9.74.9-2.93,1.18-5.88,2.06-8.9.3-4-2.24-8.13-1.85-12.24-.19-4.69,2-9.23,2.33-10.63,9.8-1.27,6.83-10.42,6.2-16.61,6.83-5.87.6-10.69-1.77-12.25-8.27C78,81,81.79,72.33,91.8,70.26,97.52,69.08,98.13,61.23,100.72,56.19Z" style="fill:#29ae4a"/><path d="M141.52,75.92l7.79-7.69C152.2,67,152.85,70,154.54,71c1.73,2.86.07,3.89-2.42,4.48-1.61.17-3.31.15-4.18,1.94a8.24,8.24,0,0,1-3.87,2.81c-4,1.34-6.87,4.2-9.31,7.53a27.73,27.73,0,0,1-3.95,3,43.83,43.83,0,0,0-5.72,4.82,11.63,11.63,0,0,1-2.15,1.46c-11.49,6.77-17.3,18.53-25.13,28.51-7.17,5.8-12.84,12.57-14.24,22.09l0,0c-3.78,4-4.94,9.39-7.71,13.91A14.87,14.87,0,0,1,72.35,169c-11.13,18.66-17.06,39-19.82,60.42-.39,3-.51,5.83-3.79,7.16l-4,0c-2.36,2.88.36,6.78-1.92,9.67-.66,1.33-1.31,1.3-1.94,0a41.46,41.46,0,0,1,0-19.31c1.85-6,4.29-11.51,2.29-18.35-1.19-4.06.14-8.72,3.34-13.15,6.45-8.94-.4-16-5.64-22.8-2.38-3.56.6-8-1.91-11.53-7.55-5.81-7-12.92-2.2-19.71,3.82-5.37,4.41-11,4.13-17.06,2.06-3,.16-7.29,3.15-10C50.87,103.6,59.44,94.23,68.14,85c1.34-.37,2.65-.56,3.69.67,5.56,6.49,20.35,8.16,26.08,2.9a4.82,4.82,0,0,0,1.48-2.4c1.46-7.63,1.42-7.64,9.39-10a14.44,14.44,0,0,1,1.88-.29,21.61,21.61,0,0,1,13.47,0c2.62,3.5,5.21-.71,7.81,0A11.41,11.41,0,0,1,141.52,75.92Z" style="fill:#1ba74a"/><path d="M443.48,126.46c2.91,9.72,13.93,13.39,17.12,22.9,8.22,44,6.43,87.19-11.23,128.9C433.21,316.42,406.42,345,370,364.53c-4.34-1.37-4.37-1.39-2.46-4.06,2.72-3.81,7.81-5.29,9.75-9.88,3.13-2.15,6.46-4.08,8.33-7.62a20.27,20.27,0,0,1,1.7-2,155.74,155.74,0,0,0,28-36.3c6.25-11.4,13-22.63,13.59-36.13a14.72,14.72,0,0,1,2.91-7.95c1.71-2.24,1.67-4.93,1.89-7.56a27.54,27.54,0,0,1,.71-4.33c2.56-9-2.25-17.64-1.26-26.56.36-7.26-.55-14.56.63-21.78,2.69-7.61.09-15.48,1.27-21.64-.22-2.82-2.09-1-1-1.69,1.79,6.53.43,13.18.72,19.77-.9,2.26-2.18,1.46-3.49.45-3.68-6.41-1.36-13.74-3.14-20.44-1.8-13.59-5.38-26.64-12-38.74l.11,0c-1.51-5,.9-5.79,4.84-4.28,2.73,1.06,4.3,3.62,5.85,6,4.43,6.83,5.18,2,6.18-2,.46-3.85-.26-7.89,1.88-11.46a5.32,5.32,0,0,1,2.61-1.65A6.64,6.64,0,0,1,443.48,126.46Z" style="fill:#118042"/><path d="M325,224.12c-22.79,0-22.84,0-22.75,22.18,0,7.16-2.06,15.8,9.71,16,1.43,0,2,1.53,1.95,2.86-.11,2.11-1.76,2.39-3.43,2.39H282.45c-2.12,0-4-.8-4.19-2.94-.16-1.91,1.73-2.51,3.43-2.55,7.75-.18,8.53-5.77,8.57-11.47q.21-27.57,0-55.16c0-5.86-1.25-11.13-8.91-11.13-1.58,0-3.56-.21-3.49-2.36.09-2.32,1.93-3.07,4-3.07q14,0,28.07,0c2,0,4,.38,4,3,0,2.95-2.45,2.31-4.23,2.52-5.57.68-7.22,4.12-7.52,9.38-1.31,23.79-1.41,23.78,22,23.78a38.9,38.9,0,0,0,4.83,0c6.25-.77,15.64,3.21,18.12-2,3.53-7.38,1.8-17,.24-25.6-.8-4.4-4.09-5.34-7.84-5.7-1.69-.16-3.51-.8-3.45-2.67.09-2.44,2.23-2.72,4.23-2.72,9,0,18.06,0,27.1,0,2,0,4.11.59,4.41,2.87.39,3-2.22,2.42-4,2.62-6.3.72-7.56,5-7.55,10.36.06,19,.1,38.07,0,57.11,0,6.07,1.84,10.06,8.6,10.21,1.83,0,3.11.94,3.06,2.87s-1.63,2.57-3.34,2.58c-9.68,0-19.36.08-29-.06a3.82,3.82,0,0,1-2.91-1.9c-.67-1.82.75-3.18,2.42-3.28,9.38-.55,9.15-7.42,9.29-14C348.94,224.12,348.91,224.12,325,224.12Z" style="fill:#188d45"/><path d="M248.26,208.74c0,6.91,0,13.82,0,20.74,0,1.29-.35,2.61-2,2.8s-2.2-.94-2.8-2.12c-4.89-9.63-13.49-6.12-21.12-5.88-3.88.12-3.33,3.17-3.33,5.69q0,10.64,0,21.27c.05,5.55,1,10.44,8.08,10.86,1.68.1,3.31.79,3.34,2.75,0,2.78-2.24,2.71-4.11,2.72-9,.05-18.05,0-27.07,0-1.68,0-3.46-.41-3.66-2.31a2.8,2.8,0,0,1,2.93-3.1c8.19-.46,8.55-6.15,8.52-12.37q-.12-26.1,0-52.2c0-6.76.15-13.37-9.33-13.61-1.72,0-3.26-1.15-2.77-3,.43-1.66,2.15-2.1,3.91-2.1q25.62.06,51.24,0c2.93,0,5.32,1.15,5.32,4.3,0,5.13,3.69,10.25,1.26,15-1.5,3-3.79.21-4.78-1.81-2.16-4.44-4.65-8.39-9.72-10.07-17.62-5.83-23.51-1.94-23,16.23.13,4.89-3.72,11.57,2.87,14.67C229.72,220.84,241,216.27,248.26,208.74Z" style="fill:#188d46"/><path d="M333.24,33.38l5.82,0c3,1.61,6.46,1.33,9.69,1.94h1.91c2.5,1.35,5.42,2.28,5.82,5.75,4.95,2.24,10,3.89,15.46,2,1.36,4.26,7.86,3,8.58,7.94-1.4,12.93-.23,16.87,16.25,22.2,12.61,4.07,18.38,13,24.7,22.52a4.53,4.53,0,0,1-1.05,4c-4.94,1.75-9.43,0-13.9-1.82a13.24,13.24,0,0,0-6.16-2.35c-6.6-1.06-12.66-3.88-19-5.93C364.33,76.9,347,64.57,327,56.78a59.62,59.62,0,0,1,9.38-8.19c7.52-5.44,7.67-5.21-.47-10.75C334.37,36.78,332.49,35.85,333.24,33.38Z" style="fill:#219a49"/><path d="M300.28,373.88c58.27-17.63,95.94-56.6,116.94-112.85.89-2.38,2.06-4.65,3.1-7a5.11,5.11,0,0,1,1.58,2.25,10.17,10.17,0,0,1,.29,2.75A85.31,85.31,0,0,1,416.3,277c-.77,1.56-1.59,3.11-2.37,4.66a32.21,32.21,0,0,0-3.22,8.44c-6.6,11.85-14.82,22.67-21.87,34.23-2.79,2.79-2.12,8-6.61,9.58a3.1,3.1,0,0,1-1.64-1.93c-.37.6.11,1.15.16,1.72a9.34,9.34,0,0,1-1.92,6,120.3,120.3,0,0,0-16.23,14.78c-2.16,2.24-1.83,5.22-2.3,8-.73,2.77-.12,5.8-1.63,8.41a59.72,59.72,0,0,1-15.88,6.59,6.05,6.05,0,0,1-5.6-4.43c-.95-2.86-3.4-4.27-6.11-2.79-2.4,1.31-6.84,2-4.2,6.75.88,1.07,1.35,2.21.62,3.55-3.24,2.48-7,1.58-10.58,1.58-4.8-1.12-9.59-2.23-14.5-.6-3.22.89-6.66.49-9.8,1.64-2.63,3.73,1.93,1.9,2.47,3.15a3.73,3.73,0,0,1,1.67,1.64,109.66,109.66,0,0,1-39-.18c-6.31-1.93-13.31-.8-19.59-4.44,2.66-5,7.09-2.93,10.93-3C266.37,380.11,283.61,379.2,300.28,373.88Z" style="fill:#46b167"/><path d="M602.43,25.51C592,24.16,581.77,21.83,571,22.06c-5.6.12-8.75.92-11.21,5.47-4.23-2.56-9.27.56-13.51-1.9-6.79-2.42-6.11-2.34-6.84,3.36-.58,4.6-2.85,9.28-8.53,10.1-5.48.79-10.94,1-16.09,3.79-3.49,1.92-6.39.73-4.92-4.21.61-2,1.56-4,3.15-7.91-14.48,9.05-28.93,12.74-40.29,24.92-8.23,8.82-17.22,16.45-22.41,27.63-.86,1.85-3,2.29-4.95,2.55a1.55,1.55,0,0,1-2,0,1.88,1.88,0,0,1,.22-2c3.46.29,4.13-2.6,5.17-4.8,22.77-48.16,82-70.86,134.07-61A53.09,53.09,0,0,1,602.43,25.51Z" style="fill:#5ab64b"/><path d="M443.6,85.54c.6.09,1.19.19,1.77.32-.78,9.16-7.55,17-5.69,26.77-2.74,1.22-3.51-1.47-5.11-2.53-1-.84-1.92-1.7-2.8-2.63-2-5.72-8.44-7.33-11.41-12.15-3.57-2.26-5.9-5.35-8.1-9.08-2.91-4.94-7.23-8-13.84-9.55-7.23-1.69-14.14-6.78-20-11.79-4.73-4.06-.38-9.46,1.27-14.13,1.78-3.76,2-3.75,5.81,0,3.4,3.49,7.74,1.3,11.61,1.93,1.27,1.7,3.65,2.32,4.39,4.54-.64,3.32-4.48,3.27-6,5.65,6.42,5.33,6.42,5.33,15.18-2.45h0c8,0,8.87,1.27,7.63,10.82-.68,2.15-2.37,4.28,0,6.38,2.74-1.91,1-4.66,1.39-7,.48-2.6.78-5.15,4.46-4.42l6,5.6C435,76.05,439.8,80.33,443.6,85.54Z" style="fill:#1ba54a"/><path d="M164.8,492.18c5.87-.56,11.25.32,16.15,4.07,4.48,3.42,9.93,3.44,15.43,3.84,9.63.71,19.46-2.58,29,2.46,3.88,2,4.26-3.21,5.19-6l42.49,5.61c-1.53,5.72-6,.58-7.92,2.68,11.66-.09,23.91-2.89,36.32-1.85a4.74,4.74,0,0,1,3.37,3.14,29,29,0,0,1-15.79,3.73c-22,2.66-44.06,3.6-66.18,1.42-22-3.07-43.65-7.41-63.71-17.54C160.06,489.58,162.58,491.42,164.8,492.18Z" style="fill:#259b4b"/><path d="M333.24,33.38c3.2,4.3,9.63,3.26,12.77,7.84,1.52,2.21,3.33,6.14.55,6C337.91,46.9,335,57,327,56.78l-24.82-7.64c-4.78-2.47-10.32-2.25-14.95-4-2.45-4.3,7.24-5,2.41-9.53-2.86-2.72-6.69-1.38-10.11-1.59s-7.12.31-10.34-1.39c-1.6-.85-3.54-2.22-.6-4,4.76.42,9.61-1,14.27.88l2,0c11-4.35,21.79,0,32.55,1.38,4.6.59,9.21,2,13.94,2.5Z" style="fill:#1a9346"/><path d="M130,89.49c.82-1.55,2.26-1.85,3.82-1.93,2-4.44,7.36-5.59,9.77-9.66,1.56-.06,3-.41,3.82-1.9,1.32-.58,2.91-.65,3.8-2,.75-.54,3.56,1,2-1.9-1.16-2.24.64-2.93,2-3.84,7.43,1.93,11.43-3,15.48-7.77,2.29-5.06,8.27-2.76,11.58-5.79,2.27-1.91,6.64.41,7.74-3.86,1.85-1.64,3.78,1.59,5.63-.1,4.44-4.18,10.56-4.95,15.69-7.73,4-.65,8.17.39,12.05-1.31a35,35,0,0,1,3.5-1.67,9.78,9.78,0,0,1,2.69-.39,17.08,17.08,0,0,1,2.76.35c3.1.68,6.39.38,9.37,1.55,3.33,1.31,3.71,3.21.66,5.41l-.11,0c-3.55,2.35-8.05-.75-11.53,2-41,8.09-75.68,28.83-107.92,54.36-1.77,1-2.59-.11-3.31-1.47-.7-3.79,2.44-4.86,4.69-6.55h0C125.93,93.21,129.08,92.49,130,89.49Z" style="fill:#148244"/><path d="M242.32,46.93c1.06-2.77.38-4-2.85-4-3,0-6.42,1.19-8.85-1.84a3.17,3.17,0,0,1-.68-3.72c2.58-1.82,5.77-2.38,8.45-4,8.25-2.25,17.15-.37,25.2-3.91a2.51,2.51,0,0,1,3.82.14c5.59,3.65,11.84.95,17.71,1.83,3.4.5,6.39-1.5,8.46,5,2.55,8-6.13,2.77-4.14,8.06,3.18,1.44,9.24.1,12.74,4.6C282.36,44.89,262.32,46.46,242.32,46.93Z" style="fill:#1c8b49"/><path d="M437.84,126.24l-1.94,0a19.56,19.56,0,0,0-.07,13.51l-5.25,10.07c-3-4.71-5.23-8.73-8-12.35-2-2.63-4.79-5.36-6.31.62-8.32-15.19-17.66-29.69-29.17-42.7,7.74-2.94,13.92,2,17.36,6.66,5.94,8,12.24,10.3,21.29,7.6a9.06,9.06,0,0,1,6.6.38A33.67,33.67,0,0,1,437.84,126.24Z" style="fill:#1a8b49"/><path d="M2.4,283.09c3.53-.5,4.18-2.65,2.75-5.45-1.55-3-.46-5.52.88-8.1a2.61,2.61,0,0,1,3.87,0C7.71,278.28,7.79,287.18,8,296.08c.06,2.35.54,4.59,3,5.49,2.16.79,3.45-1,4.87-2.24,1.89-1.67,2.88-6.39,6.33-3.39,2.47,2.14,2.09,5.82-.66,8.46a25.43,25.43,0,0,0,0,15.44c-3.47,8.71-1.22,16.08,3.14,24.29,2.63,4.94.57,12.38.62,18.69C12.29,337.78,5,311.11,2.4,283.09Z" style="fill:#239a4a"/><path d="M48.74,236.61c2-3.49,1.14-7.49,1.92-11.13,4.28-19.92,7-40.5,21.69-56.45-8.57,22.6-16.13,45.4-18.82,69.65-2.28,20.62-1.56,41.18-.88,61.79a1.37,1.37,0,0,1-2.12.08c1.38-7.43-2.94-14-3.14-21.33-.37-13.59,1-26.92,2.82-40.3C50.31,238.23,49.26,237.38,48.74,236.61Z" style="fill:#49a961"/><path d="M381.68,333.36c3.22-2.43.8-8.21,5.71-9.64,9.23,4.49,9.93,7.31,3.6,14.83a29.34,29.34,0,0,0-3.48,4.61l-.05,0c-3.47,2.35-5.93,5.91-9.63,8,2.05,4.26-.7,5.31-3.95,6.76-2.44,1.09-5.71,2.66-3.9,6.66a26.68,26.68,0,0,1-11.31,6.3c-1.6-2.74-2.37-5.49-.26-8.34,2.37-2.89-.33-6.78,1.93-9.69,6.38-3.78,9.49-11.76,17.41-13.57C379.4,337.5,380.05,335.1,381.68,333.36Z" style="fill:#43b04a"/><path d="M620.3,236.92c-5.76-.62-8.28-5.62-12-9-2-1.85-5.28-4.12-3.14-7.12s5.72-2,8.7-.47c1.31.65,2.3,2.47,4,.76.84-1,1.24-2.46,2.81-2.72,2-.1,4.65,0,5.32,1.53,4.46,10.05,10.63,4.56,15.88,1.58,4.31-2.45,9.42-4.33,11.66-9.44-2.19-4.84.31-7,4.65-8.11,3.23.21,7.38-.71,6.16,5C654,225.08,637.58,231.67,620.3,236.92Z" style="fill:#2baf4c"/><path d="M431.94,110.8c-4.73,1.85-9.91,1-14.78,3.13-5.08,2.17-9-2.39-10.89-6-4.25-8-11.69-10.06-19.17-12.53a9,9,0,0,1-5.7-5.82c7.39-3.19,12.75,4.16,19.6,3.77,1.42,2.22,4,1.07,5.82,1.95,4,3.14,9.25,1.81,13.55,3.85,6.68-.48,6.87,7.28,11.66,9.19A2.19,2.19,0,0,1,431.94,110.8Z" style="fill:#1a9247"/><path d="M226.89,496c-9.24,1.32-18.52,3.4-26.63-3.87a10.17,10.17,0,0,0-6.15-2.05c-11-.26-18.15-10.76-29.74-10.47-5,.12-2.9-6.77-3.63-10.6-.61-.39-.79-.72-.54-1a1,1,0,0,1,.71-.38C181.27,480.87,203.91,488.83,226.89,496Z" style="fill:#289d4f"/><path d="M300.28,373.88c-6.35,6.33-15,4-22.52,5.87-12.21,3-24.8,1.78-38.18,2.12,5.89,4.72,13,2.07,18.14,5.85-16.16.18-31.2-4.73-46.13-10.14,2.4-5,6.25-1.83,9.56-1.7C247.67,380.91,274,378.38,300.28,373.88Z" style="fill:#8bc191"/><path d="M497.79,194.06c-.53-2.47-1.08-4.93-1.56-7.4,0-.19.37-.48.73-.93,4.24,2,8.28,3.67,8.93,9.6s7,7.07,10.63,10.39c6.23,5.63,12.39,11.52,20,15.41.87,2-.14,3-1.86,3.71-9.23-3.81-16.08-11.16-25.42-17.59v12c-5.26-1-3.52-6-5.18-9.06C504.36,203.86,497.33,200.41,497.79,194.06Z" style="fill:#5db752"/><path d="M71.83,85.65l-3.54,0c-.68-.27-.94-.6-.77-1s.37-.61.57-.61c9.47-11,19.93-20.75,32.63-27.93.35,10.28-3.4,15.53-12.91,17.13a5.22,5.22,0,0,0-4.08,3.48C81.33,82,76.71,83.94,71.83,85.65Z" style="fill:#27aa51"/><path d="M534.67,224.84l1.86-3.71c.24-2.1-.53-4.81,2.59-5.38,2.4-.44,3.24,1.65,4.09,3.31,5.06,9.9,12.39,15.57,24.24,14.17,4.61-.54,5.66,8.12,11.71,5.38a2.72,2.72,0,0,1,1.05,1.74,2.32,2.32,0,0,1-1.07,1.7C562.61,240.74,548,234.52,534.67,224.84Z" style="fill:#5cb74d"/><path d="M164.8,492.18c-2,.09-4.14-.41-5.62,1.54a158.46,158.46,0,0,1-40.95-22.61c4.56-5.34,7.49.77,10.75,1.93,8.85,3.17,18.19,6.18,25.6,11.61C157.84,487,161.12,490,164.8,492.18Z" style="fill:#299d4f"/><path d="M44.83,114.79c-2.29,2.8-.33,7.35-3.95,9.6-6.19,3-6.11,9.38-8.38,14.61-1.88,4.33-3,9.62-5.81,12.79-5.59,6.39-8.36,14.1-12.64,21.05-1.47-1.26-1.32-2.69-.42-4.19,6.77-19.59,15.87-37.92,29.07-54A1.34,1.34,0,0,1,44.83,114.79Z" style="fill:#32a155"/><path d="M160.91,467.62a9.4,9.4,0,0,1-.16,1.39c-8.8-1.08-18.48.39-24.24-9-1.92-3.14-5.38-2.71-8.52-2.66-1.17-2.21.88-2.78,2-3.86l.24-8.36Z" style="fill:#259c4d"/><path d="M588.8,126.26c-4.88-.73-7.67,2.56-10.37,5.66-7.86,9.07-17.74,15.29-28.34,20.54-2.82,1.39-5.76,3.64-7.85-1-.66-1.56.27-2.45,1.37-3.27A37.29,37.29,0,0,1,548.4,146c14-6,24.41-16.66,34.66-27.45l3.67-2a1.87,1.87,0,0,1,2.49.2,2.39,2.39,0,0,1-.22,1.64C589.62,121,590.73,123.68,588.8,126.26Z" style="fill:#64925e"/><path d="M614,39.14l5.72-3.42c12.63,7.5,22.21,18,29.88,30.36-4.62,1.64-8-1.11-11.58-3.23-6.22-9.25-16.18-14.23-24.36-21.26A2.07,2.07,0,0,1,614,39.14Z" style="fill:#39b155"/><path d="M492,157.28c-8-.4-5.24,5.59-5.76,9.65-.14,1.84-.48,3.57-2.43,4.41-4.93-2.61-5.24-9-9.7-12q-2.84-3.69-5.66-7.37c4.46-4.19,8,1,12.09,1.13,3.82.12,7.64.18,11.46.27,2.88,2.33,6.7-.29,9.61,1.84l13.64,0c.11,3.51-2.68,4.32-5,4.23C504.11,159.25,497.76,160.47,492,157.28Z" style="fill:#1da44b"/><path d="M588.8,126.26c-.06-2.63-1.94-5.31.2-7.89,14.48,11.15,23.32,26.45,31.24,42.42-.19.43-.37.87-.56,1.3-1.06,1-2.21,1.73-3.72.9l0,.1c-1.35-2.25-1.54-5.05-3.37-7.07-7-10.64-14.6-20.79-23.84-29.64Z" style="fill:#62a06e"/><path d="M664.38,209c-1-4.74-4.92-2.88-7.76-3.48a10.66,10.66,0,0,1-5.78-1.83l-.12.1c-1.53-1.49-3.74-1.58-5.49-2.66-3.08-2.52-7.21-3.75-9.31-7.5a16.11,16.11,0,0,0-4.65-8.15c-2.54-2.35-4.61-5.62-1.59-9.31,9,11.07,17,23,33.35,24.52C667.7,201.06,668.61,205.37,664.38,209Z" style="fill:#7b8f7a"/><path d="M610.07,85.62a6,6,0,0,0,5.8-3.74c1.21-1.47,1.93-3.44,4-4l2-.06c7.58-4.45,16.14-4.23,24.44-5.18,1.68-.83,2.87-2.44,4.75-3,4,6.55-.46,9.94-5.45,9.35-15.35-1.8-26.14,6.37-37.13,14.71A3.61,3.61,0,0,1,607,90.09C607.4,88.17,608.88,87,610.07,85.62Z" style="fill:#40a65d"/><path d="M124.14,95.3c-1.31,1.93-2.61,3.87-3.91,5.8-.6,3.49-2.85,5.9-5.34,8.15-1.85,1.48-4.18,2.59-4.34,5.43l-9.22,9.84c-1.47.87-2.91,1.07-4.29-.17C104.56,113.26,109.43,99.69,124.14,95.3Z" style="fill:#2a9d50"/><path d="M302.53,504.16c-13-1.83-25.79,3.64-39.07,1,2.79-2.85,7.26.34,9.63-3l48.55-2.33c.46.48.56.89.31,1.24s-.43.46-.64.46l-9.58,3.69C308.75,504.06,305.49,505.47,302.53,504.16Z" style="fill:#41a25f"/><path d="M222.89,511.26c2.05-2.18,4.85-2.06,7.23-1.55,18.85,4,37.54.33,56.28-.89.86-.05,1.78.66,2.67,1A174.19,174.19,0,0,1,222.89,511.26Z" style="fill:#41a25f"/><path d="M325.5,378c-2.45-.62-6.5-.23-2.58-4.57,8.55-9.46,9.8-9.23,19.87,4l-3,.89c-1.77.55-3.64.6-5.41,1.15C331,381.15,328.75,376.71,325.5,378Z" style="fill:#4ab34e"/><path d="M629.68,176.12c-1.07,7.31,8.17,10.16,7.49,17.3l-.71,1.12c-2.06-.79-4.41-1.36-3.16-4.47-2.29-2.8-6.27-3.93-7.61-7.68-2.69-2-1.87-5.63-3.82-8-.17-2,.09-4.17-1.82-5.62-2.23-2.17-1.89-4.62-.79-7.15a11.5,11.5,0,0,1,1-.87C623.76,165.67,627.81,170.23,629.68,176.12Z" style="fill:#779273"/><path d="M97,124.35l4.29.17L83.57,147.7C80.51,135.56,88.1,129.57,97,124.35Z" style="fill:#2b9f50"/><path d="M91.52,399.14c-6.94-1.6-11.07-5.75-11.93-13-1.11-9.37-9.62-16-9.62-25.78Z" style="fill:#47a75d"/><path d="M56.36,395.39c0,1.94,0,3.88,0,5.82,2.22,3.32-.58,7.2,1.21,10.57a3.62,3.62,0,0,1-1.48,3.64,51.48,51.48,0,0,1-11.32-16.26c-1.85-2.78-.45-4.71,2.2-4.52C50.1,394.87,53.41,393.36,56.36,395.39Z" style="fill:#21964c"/><path d="M424.14,66.28c-4.62,1.83-1.87,5.37-1.8,8.19.11,4.23-.19,7.86-5.89,7.25a16.41,16.41,0,0,1,0-11.55c2.62-5.94-.11-8.7-5.77-9.71.06-1.76.54-3.29,2.31-4.08C417.57,58.72,421.71,61.54,424.14,66.28Z" style="fill:#1da84b"/><path d="M430.05,176.62c2.68,6.25.8,13,1.88,19.37-.79,4.44,2.14,9.34-1.68,13.4a2.09,2.09,0,0,1-2.54-.16l-1.41-34.56C428.47,173.55,429,175.6,430.05,176.62Z" style="fill:#47a65e"/><path d="M13.63,168.65l.42,4.19-.27,5.71q.74.63.45,1.2t-.54.57l-1.88,2.05c-2.21,2.93,1.21,7-2,9.72a9.34,9.34,0,0,0-.06,1.83c-1.23,2-1,4.9-3.58,6.09-.68,5.32,1,11.3-4.21,15.36C2.73,199,7.08,183.55,13.63,168.65Z" style="fill:#6dae75"/><path d="M651,69.66c-.3,1.68-.5,3.41-2.23,4.36h-1.5c-5.29-.79-11,1.81-15.93-2l2-5.8a11.18,11.18,0,0,1,5.83-3.88l10.39,3.7Z" style="fill:#2daf4e"/><path d="M505.51,209.46c3.74,2.3.45,7.29,3.74,9.75l.23,0c1.62,6.44,1,12.85.25,19.72-5.73-1.73-4-7-6.2-10a1.6,1.6,0,0,1-.06-1.56c-1.69-3.7,0-7.83-1.48-11.56C502,213,501.22,209.84,505.51,209.46Z" style="fill:#349758"/><path d="M56.36,395.39c-3.66,1.85-9.3-2.35-11.57,3.77-3.72-4.82-7.47-9.62-9.57-15.45,1.74-1.1,3.22-4.76,5.45-.42C44,389.77,50.36,392.35,56.36,395.39Z" style="fill:#279d4f"/><path d="M44.83,114.79l-2.13-.18c6.93-11.44,14.88-22,25.39-30.49.07.53.14,1,.19,1.58Q56.57,100.25,44.83,114.79Z" style="fill:#4cb169"/><path d="M503.53,228.92l4.4,8h1.55V219.17c3.19,11.45,2,23.11,1.64,34.72-3.73,1.13-1.89-2.84-3.42-3.73Z" style="fill:#80bc88"/><path d="M420.76,256.05c-.15-.66-.29-1.32-.44-2q3.69-22.42,7.39-44.84l.62.42c4.9,8,1.59,16.23.74,24.39-.41,3.86-1.63,7.55-2.23,11.36-.52,2.77-1.07,5.54-1.75,8.29C424.16,255.42,422.9,256.55,420.76,256.05Z" style="fill:#47a65e"/><path d="M71.74,434.43c2.57-7.39,5.17,2.07,7.75,0-.29,9.47,8.72,10.68,13.65,15.53,2.23,2.2,3.85,5,5.75,7.57C88.21,451.74,80.16,442.87,71.74,434.43Z" style="fill:#2d9e50"/><path d="M505.51,209.46c-2.17,1.47-1.84,3.74-1.92,5.88-6.35-2.18-3.62-10.28-8.66-13.32l-1.38-3.48c-.47-2.2-1.3-4.42.45-6.46l3.79,2C500.58,199.08,507.57,202,505.51,209.46Z" style="fill:#24a94f"/><path d="M333.24,378l6.53.33a117.2,117.2,0,0,1-43,9.6l-.57-.4c1.39-5.41,6.43-3.63,9.87-5,3.76-1.51,8.14-.18,11.7-2.58a16.1,16.1,0,0,0,9.57-.11C328.88,377.83,331.68,379.91,333.24,378Z" style="fill:#5cb966"/><path d="M430.05,176.62l-3.75-2c-1.89-12.61-6.91-24.35-10.14-36.59,6.89,7.53,8.9,17,10.92,26.6C427.92,168.69,429.05,172.64,430.05,176.62Z" style="fill:#289152"/><path d="M608.16,89.48c.09,1.41.19,2.83.28,4.24L604.7,97.4c-2.37,2.16-4.13,4.84-6.25,7.22q-1.94,2.11-3.89,4.21c-3.29.07-3.08-1.68-2-3.88q3-3.86,5.9-7.73C600.75,93.47,601.68,88,608.16,89.48Z" style="fill:#27864b"/><path d="M484.26,170.83c0-1.62.39-3.07,2-3.9l1.92,1.94c1.67,3.08.45,7.3,3.84,9.69,0,2.59,0,5.17,0,7.76-4.35.68-3.26-4.83-6.35-5.59-1.59-.83-1.52-2.33-1.54-3.8C483.12,174.88,482.76,172.83,484.26,170.83Z" style="fill:#2dad53"/><path d="M592.55,105c.15,1.57.45,3,2,3.88-.13,3.75-3.23,5.49-5.34,7.9l-2.48-.2C583.17,109.91,589.12,108.06,592.55,105Z" style="fill:#399054"/><path d="M494.93,202c6,2.4,4.89,9.46,8.66,13.32l-.12,12Z" style="fill:#339e58"/><path d="M579.14,242.05c0-.5,0-1,0-1.51,2.86-2.39,6.78.43,9.64-1.94,6.28,3.42,13.14,1.2,19.69,2C598.84,244.2,589,242.7,579.14,242.05Z" style="fill:#57b649"/><path d="M221.15,375.88c-3.16.73-6.79-1.18-9.56,1.7l-9.9-3.62c-.16-3.59,1.77-2.89,3.85-1.87C210.8,373.12,216.29,373.23,221.15,375.88Z" style="fill:#a9cdab"/><path d="M1.94,216.62c.31,8.56.65,17.12.9,25.68.05,1.64-1.38,1.86-2.63,2.1C-.13,235.08-.33,225.77,1.94,216.62Z" style="fill:#359f54"/><path d="M484.26,170.83l-.12,6.1-10-17.56C480.32,160.68,480.27,167.54,484.26,170.83Z" style="fill:#3ba55b"/><path d="M443.6,85.54a47.33,47.33,0,0,1-13.42-13.66c5.95,2.34,9.65,7.2,13.43,12C443.58,84.42,443.58,85,443.6,85.54Z" style="fill:#46b149"/><path d="M485.68,180.73c3.59.19,3.84,4.18,6.35,5.59q1,2.88,2,5.76l-.45,6.46Q489.62,189.63,485.68,180.73Z" style="fill:#56b76e"/><path d="M137.67,33.25c0-.5,0-1,0-1.52a19.07,19.07,0,0,1,9.17-4.46c2.89,1.83-.07,4.11.48,6.13C144.1,34.69,140.87,35,137.67,33.25Z" style="fill:#1fa94d"/><path d="M60.62,335.26c-6.57-3.52-4.35-9.57-4.32-15C59.1,324.88,60.09,330,60.62,335.26Z" style="fill:#319f53"/><path d="M75.9,161.57c1.69-5.12,1.46-11.31,7.71-13.91A36.31,36.31,0,0,1,75.9,161.57Z" style="fill:#2b9f50"/><path d="M507.7,250.16l3.42,3.73V266l-1.19.12Z" style="fill:#a4caa7"/><path d="M56.11,415.42l.3-4.58q1-1.36,1.92,0c5.5,2.3.86,6.57,1.89,9.74C58.36,419.27,56.68,417.79,56.11,415.42Z" style="fill:#2d9e53"/><path d="M110.55,114.68c-3.43-5.1,1-5,3.9-5.82a1.25,1.25,0,0,1,2.17.08C115,111.28,113.26,113.48,110.55,114.68Z" style="fill:#1e874c"/><path d="M50.53,300.55l2.12-.08c2.05,3.68,1.4,7.78,1.84,11.71C51.39,308.91,52,304.37,50.53,300.55Z" style="fill:#319f53"/><path d="M131.82,35.09c-1.95,4.21-5.63,5.49-9.87,5.83A17.39,17.39,0,0,1,131.82,35.09Z" style="fill:#31ae5a"/><path d="M116.62,108.94l-2.17-.08q2.88-3.89,5.78-7.76l2.53,2.22Z" style="fill:#1d854c"/><path d="M205.54,372.09c-1.51.15-3,.29-3.85,1.87-1.95-.73-4.14-1.09-5.61-4.16C199.71,370.25,202.92,369.4,205.54,372.09Z" style="fill:#bdd8be"/><path d="M122,40.84c1.16,6.69-3.15,4.34-6.35,3.84C117.54,43,119.34,41.18,122,40.84Z" style="fill:#31ae5a"/><path d="M598.45,104.62c.5-3.78,2.75-6,6.25-7.22C603.38,100.47,601.73,103.24,598.45,104.62Z" style="fill:#399054"/><path d="M98.8,457.46c2.77,1,7.92-3,8,3.76-2.6,1.27-4-1.12-6-1.9Z" style="fill:#2d9e50"/><path d="M110.58,48.89c-1.91,3.36-4.22,6.07-8.63,5.49C104.56,52.13,106.74,49.2,110.58,48.89Z" style="fill:#2bab53"/><path d="M230.68,49c3.31-3.77,7.65-1.51,11.53-2C238.71,49.65,234.49,48.09,230.68,49Z" style="fill:#1c8b49"/><path d="M100.78,459.32l6,1.9c.57,1.42,1.15,2.84,1.73,4.26C105.4,464.09,102.56,462.37,100.78,459.32Z" style="fill:#43a75f"/><path d="M321.31,501.51a4.72,4.72,0,0,1,.33-1.7c1.46-2.38,3.6-2,6-1.4C326.45,501.51,324.08,501.89,321.31,501.51Z" style="fill:#afd0b1"/><path d="M302.53,504.16c3.12-.09,6.35-1.26,9.2,1l-6.87.91Z" style="fill:#1c8449"/><path d="M515.25,97.25c-11.66,12.2-28.71,13.59-42.62,21.28a4.89,4.89,0,0,1-1.42-3.47c-5.48-3.18-13.83-2.1-15.38,2-.35,1.37-.86,2.48-2.57,1.47-5.87-1.36-6.53-6.31-5.57-10.51,2-8.85,4.11-17.93,11.43-24.41,2.32-2.86-.33-6.7,1.87-9.58,4.08,5.58,9.86,6.35,16.17,5.78,5.76-.51,8.5,1.54,4.4,6.87-3.54,4.61-3.47,9.38-2.55,15.36,7.95-6.52,18.12-8.13,26.32-17.86-.63,10,1.68,14.7,9.91,13Z" style="fill:#29ae4a"/><path d="M614,39.14v2c-.82,12.36-8.75,19.88-21.78,20.64-5.88-1.46-11.05-.52-15,4.5-15.42,5.09-29.08,13-42.13,22.86a42.35,42.35,0,0,1-19.83,8.14h0a103.44,103.44,0,0,0,6.09-8.58c1.75-3,3.11-5.24,7.37-3.45,3.55,1.49,7.33-.34,9.71-2.86,6.57-6.95,15.68-10.69,22.42-16.08,10-8,23.08-14.3,28.71-27.65,2.06-4.88,8.39-3.74,12.58-5.69,6.27-2.9,7.75.62,9.25,5.27C611.54,38.74,613.08,38.84,614,39.14Z" style="fill:#29ae4a"/><path d="M590.75,60.47c13.18.06,18.25-9.59,23.23-19.36,10.44,4.68,19.95,10.45,25.21,21.27-.2,3.91-3,3.94-5.83,3.88l0,0c-5.61-3.4-11.84-2.92-18-3-4.28.06-8.56-.13-12.84.13-2.75.91-5.41,1-7.83-.89l-1.87-.11C591,63,590.35,62.24,590.75,60.47Z" style="fill:#1ca54a"/><path d="M492,157.28c7.71-1.07,15.81,2.17,23.25-2l2-1.8c4.44,4.3,9.27-.93,13.83.56,2.64.73,5.56.85,7.45,3.3-2.56,5.32-7.49,3.42-11.66,3.83a59.68,59.68,0,0,1-23.18,0l-1.93,0c-2.88-2.35-6.77.33-9.68-1.91C492,158.57,492,157.93,492,157.28Z" style="fill:#3ca056"/><path d="M583.06,118.52a63.9,63.9,0,0,1-34.92,29.28c-1,.32-2.08,0-2.07-1,0-2.52,2.91-1.75,4-3.15h0c4.9-3.36,8.68-8.17,14.09-10.86,2.06-1.46,3.68-3.47,5.91-4.71a11.1,11.1,0,0,0,3.19-1.9C576.73,123.9,577.9,118.67,583.06,118.52Z" style="fill:#178846"/><path d="M455.3,116.66c-5.77-3.59.53-5.68.16-10.35,4.69,5.62,8.35,6.46,13.63,3.71,4.54-2.37,7.18-.51,3.47,4.7-2.93,1.83-5.9,3.54-9.53,2l-2.11.06C459,117.76,457.15,118.1,455.3,116.66Z" style="fill:#21aa4d"/><path d="M550.07,143.68c.24,1.79-4.21,1.38-1.93,4.12l-3.88,1.48c-2.42-1.22-5.55.71-7.69-1.73-2.67-3.22-8.12-2-10.56-7.06C534.51,140.39,542,144.45,550.07,143.68Z" style="fill:#28ad4b"/><path d="M608.16,89.48c-4.53,1-5.94,5.83-9.71,7.74.37-4.5-4.14-5.21-6.79-8.56,6.26-2,12.82-.25,18.41-3C610,87.2,609.69,88.64,608.16,89.48Z" style="fill:#1da74b"/><path d="M590.75,60.47l2,2c-4,6-10.33,2.76-15.58,3.79C579.08,58.13,583.75,56.57,590.75,60.47Z" style="fill:#1ba74a"/><path d="M565.6,133.92c-5.5,2.74-9.2,8.32-15.52,9.76a26.62,26.62,0,0,1,9.69-10.36c2.79-1.64,4.29-3.72,3.86-7a4.77,4.77,0,0,1,5.76-.11h3.88l-1.9,2A16,16,0,0,0,565.6,133.92Z" style="fill:#28ab4c"/><path d="M431.94,110.8c0-.65,0-1.29.05-1.94,0-1.26,1.27-1.29,1.93-1.92l1.94,2c1.76,3,1.42,6.89,3.84,9.66-.26,3.36,3,5.06,3.78,7.91l-5.64-.22A57.72,57.72,0,0,1,431.94,110.8Z" style="fill:#2c9e54"/><path d="M536.57,147.55c2.69,0,6-2.67,7.69,1.74-.67.73-1.34,1.47-2,2.2l-1.83,0c-1.71,3.17-4.4,4.11-7.8,3.45-1.53-.89-4.5-.2-3.86-3.48Q532.65,149.51,536.57,147.55Z" style="fill:#35ad5a"/><path d="M648.8,74c-8.7,3.34-18.08,1.75-27,3.77L625.62,74a59,59,0,0,1,23.23.06Z" style="fill:#128143"/><path d="M528.75,151.49c.92,1.51,2.4,1.84,4,1.91.38,1.7,0,2.61-2,2-4.53-.54-10.15,6.46-13.57-1.93Z" style="fill:#208d4a"/><path d="M648.85,74,625.62,74c1.38-2.24,3.65-1.83,5.75-1.92C637.17,73,643.4,70.1,648.85,74Z" style="fill:#40a65d"/><path d="M615.92,62.4c5.82,1.23,12.88-3.13,17.41,3.88l-17.43-2c-.62-.43-.83-.86-.61-1.29S615.71,62.4,615.92,62.4Z" style="fill:#3bb25e"/><path d="M520.86,139.56c-1.83.11-3.19-.54-3.32-2.5a2.35,2.35,0,0,1,2.12-2.68c1.7-.22,3.33.24,3.84,2C524.1,138.47,522.36,139,520.86,139.56Z" style="fill:#59b74f"/><path d="M594.66,62.57l7.66-.15c.7.4.95.82.73,1.26s-.45.65-.68.65C599.07,67,596.16,67.85,594.66,62.57Z" style="fill:#4cb85e"/><path d="M463,116.7l9.53-2c0,1.27.05,2.54.07,3.81C469.4,118.07,465.75,119.81,463,116.7Z" style="fill:#4cb75f"/><path d="M546.25,25.63c4.49.72,9.43-1.79,13.51,1.9C555.26,26.82,550.32,29.33,546.25,25.63Z" style="fill:#5dbb5a"/><path d="M619.89,77.85c-.16,2.52-1.43,3.93-4,4-.46-1.64-1.79-3.35.26-4.81C617.62,76,618.89,76.37,619.89,77.85Z" style="fill:#238a4c"/><path d="M439.7,118.55c-4.47-2-3.8-6-3.84-9.66l3.82,3.74C439.68,114.6,439.69,116.58,439.7,118.55Z" style="fill:#3cae5e"/><path d="M602.37,64.33c0-.64,0-1.28,0-1.91l13.6,0c0,.64,0,1.28,0,1.92Z" style="fill:#1ba74a"/><path d="M522.91,48.83c1.13-1.22,1.76-2.36,2.72-2.84,1.23-.61,2.7-.2,2.3,1.52a5,5,0,0,1-2.34,2.56C525.23,50.3,524.21,49.46,522.91,48.83Z" style="fill:#5eb953"/><path d="M569.39,126.21l-5.76.11c-.9.16-2.1.77-2.64.4-1-.65-.2-1.73.59-1.91C564.34,124.2,567.19,123.54,569.39,126.21Z" style="fill:#4bb85f"/><path d="M455.3,116.66l5.62.1c-2.27,1.8-4.2,5.07-7.66,1.79Z" style="fill:#4eba60"/><path d="M501.6,155.24c-3.26-.3-6.89,1.33-9.61-1.84C495.22,153.87,498.89,152.08,501.6,155.24Z" style="fill:#52b65b"/><path d="M461,74.05c-.41,3.23,1.35,6.89-1.87,9.58C459.54,80.4,457.81,76.74,461,74.05Z" style="fill:#49b85e"/><path d="M9.9,269.55H6c.11-5.75.21-11.5.36-17.25,0-.17.44-.45.69-.46a2.79,2.79,0,0,1,.9.32c2.39,3.55-.58,8,1.9,11.52Z" style="fill:#219a49"/><path d="M40.87,227q0,9.64,0,19.31A21.68,21.68,0,0,1,40.87,227Z" style="fill:#37b15f"/><path d="M129.94,453.45l-2,3.86c-2.25-.45-5.12,1.19-6.78-2C123.65,452.09,127.09,454.07,129.94,453.45Z" style="fill:#37a75d"/><path d="M21.5,319.84a14.53,14.53,0,0,1,0-15.44Z" style="fill:#32a458"/><path d="M9.84,192.09c.4-3.29-.94-6.94,2-9.72C12,185.78,15.69,189.9,9.84,192.09Z" style="fill:#359f54"/><path d="M39,161.16c3.53,3.36,1.3,7.68,1.91,11.53C37.34,169.32,39.58,165,39,161.16Z" style="fill:#36b05e"/><path d="M9.88,263.67C6.38,260.3,8.59,256,8,252.15,11.49,255.52,9.29,259.82,9.88,263.67Z" style="fill:#37a65c"/><path d="M6.2,200l3.58-6.09c-.14,2.67.91,5.44-.64,8Z" style="fill:#359f54"/><path d="M58.33,410.87q-1,0-1.92,0c-2.22-3.2.61-6.42,0-9.63C59.64,403.91,57.8,407.63,58.33,410.87Z" style="fill:#37a65c"/><path d="M42.82,246.31c.46-3.26-1.3-7,1.92-9.67C44.29,239.9,46.07,243.61,42.82,246.31Z" style="fill:#35b15c"/><path d="M8.9,214.5c1.27,3,1.43,4.95,0,7C7.49,219.46,7.73,217.47,8.9,214.5Z" style="fill:#37a75d"/><path d="M13.69,180.32a17.48,17.48,0,0,1,.09-1.77c1.09-.12,2.63-1.69,3.15-.1s-.51,3.45-2.3,4.39Z" style="fill:#2fa454"/><path d="M46.16,297.39c-2.18-2.42-1-4.45-1.47-8.2C47.31,292.84,46.56,294.85,46.16,297.39Z" style="fill:#38a85d"/><path d="M658.48,211.39C652,220,642.39,224,633.18,228.54c-3.5,1.71-8,2.73-7.17-4.06.67-5.23-4.63-3-6.21-5.29-1.25-2.35-1.94-4.95-3.61-7.15-1.06-1.41-.61-2.87,1.71-2.57,3.25.5,6.94-1.2,9.68,1.91.9.82,1.76,1.69,2.7,2.47,4.36,1.73,8.93.81,13.41,1,2.86-.08,5.63-.34,7.08-3.39v-.15A8.3,8.3,0,0,1,658.48,211.39Z" style="fill:#1fa74c"/><path d="M617.9,209.47c-1.72,3.7,3.65,6,1.9,9.72l-1.9,1.94c-.09-4.77-1.21-9-7.26-6.88-11,3.83-15.28-5.26-19.21-11.33a33.83,33.83,0,0,0-12.66-12.06c-1.6-.86-3.66-.33-3.39-3,.06-.6.26-1.48.67-1.69,2.08-1.06,3.92.19,5.1,1.48a53,53,0,0,0,21.22,14.14c1.1,6.45,5.28,5.39,9.61,3.94A5.86,5.86,0,0,1,617.9,209.47Z" style="fill:#29ae4b"/><path d="M588.77,126.38c9.33,3,13.69,11.34,18.56,18.55,2.21,3.29,4.78,6.73,6.44,10.52a3.06,3.06,0,0,1-1.75,1.84,144.82,144.82,0,0,0-12-11.09C594.67,141.88,591,133.91,588.77,126.38Z" style="fill:#319553"/><path d="M650.77,211.48c2.59,6.52-2.35,5.42-5.85,5.78-5.57-2.61-11.77.56-17.36-1.88,0-1.33,0-2.67,0-4,1.28-.12,2.61-2,3.85.08a19.79,19.79,0,0,0,13.51,0Z" style="fill:#219a49"/><path d="M612,205.72c-4.65,4.19-9.17,5.65-12.42-1.35-.91-2,1.29-2.32,2.81-2.59C606,202,607.8,206.8,612,205.72Z" style="fill:#1ba84a"/><path d="M637.17,193.42q4.83,3.29,9.68,6.55c0,3.22-1.64,3.16-3.84,1.83-2.76-1.68-6.33-2.3-7.65-5.85a2.88,2.88,0,0,1,1.87-1.73Z" style="fill:#1c8648"/><path d="M658.48,211.39l-7.72-.06c0-2.56,0-5.12.08-7.68,2.56-1.4,4.6-1.15,5.78,1.82C651.8,209.15,657.5,209.53,658.48,211.39Z" style="fill:#48aa60"/><path d="M503.64,161.14h23.18A30.37,30.37,0,0,1,503.64,161.14Z" style="fill:#58b364"/><path d="M530.77,155.39l2-2c2.81.43,5.24-.67,7.65-1.88,0,2.14.26,4.38-1.93,5.8C535.85,156.92,532.79,158.23,530.77,155.39Z" style="fill:#6a9362"/><path d="M621.87,174.43c3.29,1.69,3.94,4.64,3.81,8C617.59,183,623.63,176.85,621.87,174.43Z" style="fill:#40ac5b"/><path d="M643,201.8c1.54-.06,3-.31,3.84-1.83,2.5,0,3.75,1.31,3.88,3.77C647.48,205.74,644.71,205.89,643,201.8Z" style="fill:#25974c"/><path d="M492,178.56c-6.14-1.31-3.05-6.27-3.84-9.69C490.76,171.57,491.18,175.14,492,178.56Z" style="fill:#42b65b"/><path d="M644.94,211.48c-4.51,3-9,3.06-13.51,0Z" style="fill:#36a85e"/><path d="M619.26,161.66l.78,7.15c-2.84-.91-4.1-2.92-4.08-5.82Z" style="fill:#2e864c"/><path d="M612,157.29c.59-.61,1.17-1.22,1.75-1.84a10.52,10.52,0,0,1,2.21,7.64Z" style="fill:#21944c"/><path d="M492,159.21c3.27.45,7-1.32,9.68,1.91C498.45,160.67,494.75,162.43,492,159.21Z" style="fill:#54b065"/><path d="M588.77,238.6c-2.69,3.23-6.4,1.39-9.64,1.94,0-.64,0-1.29,0-1.93Z" style="fill:#68bd5c"/><path d="M637.23,194.22c-.63.57-1.25,1.15-1.87,1.73-2.15-1.45-5.35-2.53-2.06-5.88Z" style="fill:#138844"/><path d="M552,207.77c-1.43.47-2.36,1.11-2.87.87-.67-.33-1-1.35-1.48-2.07.56-.23,1.22-.76,1.67-.62A12.79,12.79,0,0,1,552,207.77Z" style="fill:#5ab951"/><path d="M410.69,60.46c-5.59,11.27-7.84,12.32-14.74,7.17-4.9-3.66-6.11-6.64,1-8.87a23.61,23.61,0,0,0,4-2.15,2.65,2.65,0,0,1,3.88,0Z" style="fill:#1da84b"/><path d="M331.31,33.35c-2.91,3.16-6.91,2.66-9.89,1.38-11.8-5.07-24.2-4.91-36.6-5.26.87-1.56,2.35-1.89,4-2a21.73,21.73,0,0,1,13.44,0l5.87,0c2.87,2.37,6.74-.34,9.63,1.9C322.61,29.5,327.68,28.89,331.31,33.35Z" style="fill:#229a49"/><path d="M182.23,54.68c-1.68,6.29-8.18,3-11.58,5.79-3.44-1.65-5.07-4.62-3.23-7.81,1.75-3,4.57.16,6.92.31,2,.13,4.06,2.48,5.95-.28.63-.9,1.28-.87,1.94,0Z" style="fill:#1ba74a"/><path d="M385.52,50.79c-1.94-.51-3.87-3.1-5.81,0-2.83-1.32-5.09-3.38-8.46-4.15-3.78-.86,1-2.18.69-3.57C376.75,45.13,382.91,44.85,385.52,50.79Z" style="fill:#2aaa54"/><path d="M306.13,10.12c5.51-3.71,9.05,2,14.25,2.31-2.32,2.41-4.55,1.19-6.5,1.57C312,11.26,306.68,15.49,306.13,10.12Z" style="fill:#1fa84c"/><path d="M267.41,29.61l-3.82-.14a21.89,21.89,0,0,1,19.27,0Z" style="fill:#40b15f"/><path d="M356.48,41.05c-1.06-2.81-5.91-1.78-5.82-5.75,3.49-2.13,5.38,1.35,8,2.3Z" style="fill:#33ae59"/><path d="M224.8,43c-4.52,3.49-9,2.12-13.51,0,.84-1.54,2.3-1.85,3.87-1.93a3.23,3.23,0,0,1,2.41-.87C220.16,40.68,222.91,40.77,224.8,43Z" style="fill:#2f955a"/><path d="M302.22,27.52H288.78C293.26,24.53,297.74,24.5,302.22,27.52Z" style="fill:#3eb25d"/><path d="M238.39,33.38c-1.49,3.51-4.44,4-7.76,3.81-.5-.42-.66-.84-.5-1.26s.33-.63.5-.63C233.28,34.93,235.06,31,238.39,33.38Z" style="fill:#30a156"/><path d="M348.75,35.3c-4,3.05-6.67-.22-9.69-1.94C342.33,33.82,346,32.05,348.75,35.3Z" style="fill:#39b15c"/><path d="M124.13,75.94l-13.47,0C115.16,72.92,119.65,72.9,124.13,75.94Z" style="fill:#3eb65d"/><path d="M306.13,10.12c1.65,3.17,6.09.73,7.75,3.88C311.42,12.46,305.82,17.2,306.13,10.12Z" style="fill:#2fb056"/><path d="M228.65,41l-1.89,0c-2.69-.12-5.51.5-7.89-1.38a1.86,1.86,0,0,1,.15-2.42l3.9,0C226.32,36.25,230.27,34.47,228.65,41Z" style="fill:#309a58"/><path d="M228.65,41c-.15-3.91-3-3.8-5.73-3.82,2-2.83,5.05-1.64,7.71-1.91v1.89c0,1.31,0,2.62,0,3.92Z" style="fill:#22974b"/><path d="M404.88,56.62H401c-2.49-.1-3.81-1.37-3.87-3.89C400.21,53,402.94,54.05,404.88,56.62Z" style="fill:#30af58"/><path d="M141.52,75.92h-9.58C135.14,73.08,138.33,73.06,141.52,75.92Z" style="fill:#3fb65d"/><path d="M155.17,68.24l-2,3.84-3.85-3.85C151.27,65.1,153.22,67.68,155.17,68.24Z" style="fill:#31ad56"/><path d="M182.23,52.66l-1.94,0c.37-4.08,3.06-3.92,6.55-3.54Z" style="fill:#35b15c"/><path d="M195.6,50.72c-1.82,3.22-3.75.44-5.63.1C191.74,44.78,193.73,51.27,195.6,50.72Z" style="fill:#33ab5a"/><path d="M219,37.25l0,2c.42,1.7.05,2.6-1.92,1.92l-2-.07C213,36.27,216.63,37.4,219,37.25Z" style="fill:#37a75c"/><path d="M137.67,33.25l9.68.15C144.08,36.19,140.85,36.31,137.67,33.25Z" style="fill:#3cb65e"/><path d="M317.72,29.46c-3.25-.44-6.93,1.33-9.63-1.9C311.34,28,315,26.24,317.72,29.46Z" style="fill:#3eaf5e"/><path d="M143.57,77.9c-.53,6-6.41,6.55-9.77,9.66C134.31,81.57,139.28,80.08,143.57,77.9Z" style="fill:#289c51"/><path d="M130,89.49c.79,4.69-2.68,5.11-5.85,5.82C124.2,91.48,127.5,90.89,130,89.49Z" style="fill:#2c9b56"/><path d="M151.19,74c.18,3.41-1.68,2.94-3.8,2-.92-.6-1.31-1.37-.47-2.28C148.42,72.11,149.78,73.6,151.19,74Z" style="fill:#31a157"/><path d="M387.51,343.16c.32-1.19.24-2.87,1-3.5,7.22-5.93,4.64-11-1.12-15.94,5.51-12.57,14.88-22.74,21.55-34.59,2.28-2.17,2.22-5.41,3.67-8,.1-1.56.36-3.05,1.92-3.9,10.34-1.43,13.15,1.53,9.1,10.38-2.79,6.1-4.13,12.7-7.15,18.67A112.7,112.7,0,0,1,387.51,343.16Z" style="fill:#2bae4c"/><path d="M416.49,306.31c-.33-5.81,1.58-11.17,3.84-16.29,4.84-11,5-10.94-5.79-12.76q3.09-9.5,6.17-19c1.81-.86,3.6-1.75,3.47-4.21a4.85,4.85,0,0,1,.22-5.72c1.44-2.17,1.55-4.76,2.28-7.15.67-2.17.07-5.62,3.9-5.29,3.33.3,4.77,2.72,5.1,5.83.3,2.82.13,5.66.19,8.49l-.15,3.86c-2.42,2.12.44,5.48-1.78,7.64-3.77,2.73-2.21,6.75-2.82,10.37C429,284.6,423.73,295.91,416.49,306.31Z" style="fill:#20a54d"/><path d="M435.87,250.22c-4.28-3.2.83-11.41-4.78-12.18s-.64,9.11-6.69,10.3c1-12.93,5-25.55,3.93-38.69,4-3.82-.58-9.89,3.6-13.66l2,1.83a4.09,4.09,0,0,1,1,3c.53,7.39-1,14.86.88,22.18C434.22,232.06,441.33,241.11,435.87,250.22Z" style="fill:#36a55c"/><path d="M433.92,199.85l0-2V175h1.87v24.94C435.11,200.75,434.5,200.69,433.92,199.85Z" style="fill:#32955b"/><path d="M433.92,199.85c.61,0,1.23,0,1.84.07q0,11.52,0,23C431.93,215.51,434.85,207.53,433.92,199.85Z" style="fill:#4fa969"/><path d="M377.83,351.1c2.17-3.91,4.68-7.43,9.63-8C385.56,347.36,383.68,351.63,377.83,351.1Z" style="fill:#3fb25a"/><path d="M435.83,139.78c-3-4.52-3.06-9,.07-13.51Q435.87,133,435.83,139.78Z" style="fill:#32945b"/><path d="M433.94,261.72c1.6-2.31-3.69-6.23,1.78-7.64C435.64,256.75,436.79,259.7,433.94,261.72Z" style="fill:#2f9f58"/><path d="M150.83,218c8.85-6.61,14-15,9.54-25.89s-15-12.26-25.2-12.56c-10.61-.31-21.24,0-31.86-.12-2.27,0-5-.72-5.36,2.29-.28,2.45,2.25,2.52,4.17,2.77,5.13.66,6.78,3.89,6.95,8.76.71,20.31.8,40.6-.06,60.91-.18,4.44-1.46,7.56-6.44,7.91-2,.13-4.48.58-4.43,2.79.07,2.93,2.88,2.79,5.11,2.78,13.23-.09,26.5.48,39.66-.51,11.69-.87,22.11-5.15,26-18S167.79,227.46,150.83,218Zm-23.41-33.43c10.28-1.72,19.2,3.06,22.18,12.38,2.47,7.73.45,14.07-6.67,18.09-5.24,3-11.23,2.3-17,2.24-3.64,0-4-2.46-4-5.22V201.41a16,16,0,0,1,0-3.85C123,193,118.45,186,127.42,184.54Zm24.4,72.76c-7.08,6.16-15.94,6.1-24.7,4.29-3.63-.75-5.13-3.63-5.18-7.19-.06-4.5,0-9,0-13.51h0v-4.83c0-14.86,0-14.85,15.12-13,9.57,1.2,16,6.25,18.87,15.51C158.05,245.58,157.38,252.46,151.82,257.3Z" style="fill:#188d46"/><path d="M433.92,106.94,432,108.86c-7.64,1.28-6.42-8-11.62-9.69,0-1.29,0-2.57,0-3.85C426,97.86,432.3,99.69,433.92,106.94Z" style="fill:#229b4b"/><path d="M406.82,95.32c-2.5,1-5.36,3.12-5.82-1.95C403.14,93.44,405.43,93,406.82,95.32Z" style="fill:#299b51"/><path d="M317.76,379.91c-5.43,7.55-14.95,3.44-21.57,7.59-3.09-.5-7.24,2-8.93-2.41-.84-2.2,1.44-3,3.41-3.3,3.57-2.33,8,.58,11.55-1.87C307.4,375.45,312.58,379.16,317.76,379.91Z" style="fill:#4fb452"/><path d="M424.18,254.06c1.55.95,2.34,2.47,1.51,4-1.35,2.49-3.29.43-5,.21,0-.74,0-1.48.05-2.22Z" style="fill:#3aa657"/><path d="M412.62,281.16c-.29,3.09,1.19,7-3.68,8A9.68,9.68,0,0,1,412.62,281.16Z" style="fill:#47a65e"/><path d="M381.68,333.36a5.9,5.9,0,0,1-3.93,5.86c.69-2.44.83-5.3,2.25-7.21S381.28,332.61,381.68,333.36Z" style="fill:#31b150"/><path d="M302.22,379.92c-3.39,3.46-7.69,1.29-11.55,1.87C294.07,378.35,298.36,380.51,302.22,379.92Z" style="fill:#59b960"/><path d="M333.24,378c-1.45,2.29-3.74,1.88-5.91,1.83L325.5,378C328.09,374.45,330.66,378.72,333.24,378Z" style="fill:#5ab865"/><path d="M360.34,352.79c-.49,3.26,1.34,7-1.93,9.69C358.88,359.22,357.13,355.51,360.34,352.79Z" style="fill:#55b85e"/><path d="M416.46,70.17q0,5.77,0,11.55C413.58,77.87,413.56,74,416.46,70.17Z" style="fill:#36b15e"/><path d="M217.12,41.13,219,39.21c2.67.2,5.66-.92,7.72,1.84l-2,2C222.15,42.76,219.14,44,217.12,41.13Z" style="fill:#1a8a48"/><path d="M595.44,50.85c-.93.78-2,2.17-3.37,2.65a1.65,1.65,0,0,1-2-2.2,6.69,6.69,0,0,1,3.28-3.19C594.58,47.6,595.53,48.8,595.44,50.85Z" style="fill:#48b450"/><path d="M565.6,133.92c.17-3.67,2.15-5.52,5.77-5.71A11.5,11.5,0,0,1,565.6,133.92Z" style="fill:#2ea956"/><path d="M627.56,215.38c5.77.77,11.93-2,17.36,1.88C639.16,216.42,633,219.18,627.56,215.38Z" style="fill:#37a75e"/></g></g></svg>