<svg xmlns="http://www.w3.org/2000/svg" viewBox="0 0 286 286"><defs><style>.cls-1{fill:#fff;}</style></defs><g id="Layer_2" data-name="Layer 2"><g id="Layer_1-2" data-name="Layer 1"><rect class="cls-1" width="286" height="286" rx="143"/><g id="Layer_2-2" data-name="Layer 2"><g id="Layer_1-2-2" data-name="Layer 1-2"><path d="M164.12,201.69c7.3-9.18,11.41-16.29,14.43-23.67,4.38-10.52,9-21.7,4.85-33.92-.7-2.08-5.27-14.75-17.64-19.24-10.55-3.85-20.27.64-27.47,3.92a52,52,0,0,0-9.19,5.41,67,67,0,0,0-12.12,12,73.21,73.21,0,0,0-11.09,18.45V34.09a115.06,115.06,0,0,0,1.19,218.16c7.07-5.23,13.21-10,18.36-14.09C145.45,222.19,155.21,212.92,164.12,201.69Z"/><path d="M143,28a117.57,117.57,0,0,0-13.9.83v74.58c6.5-3.4,26.57-12.63,48.24-4.08a52,52,0,0,1,23.76,18.87c12.56,18.54,8.12,39.29,6.54,46.57-3.61,16.65-12.37,27.62-19.44,36.44-7.29,9.09-14.18,14.83-24.68,23.55a252.29,252.29,0,0,1-27.48,20.19c-5,3.13-11.1,6.74-18.18,10.35A115,115,0,1,0,143,28Z"/></g></g></g></g></svg>