<svg xmlns="http://www.w3.org/2000/svg" viewBox="0 0 56.65 56.65"><g id="Layer_2" data-name="Layer 2"><g id="Layer_1-2" data-name="Layer 1"><rect width="56.65" height="56.65" rx="28.32"/><path d="M21.25,20.43V50.27a17.51,17.51,0,0,0,11-1.67,16.82,16.82,0,0,0,7.32-7.48,24.66,24.66,0,0,0-7.11-14.34A25.45,25.45,0,0,0,21.25,20.43Z"/><path d="M21.25,4.89V19.78A9.58,9.58,0,0,0,24.91,17a9.46,9.46,0,0,0,2-4.68A8.63,8.63,0,0,0,25.33,8,8.76,8.76,0,0,0,21.25,4.89Z" style="fill:#e02102"/><path d="M21.25,30.27V49.74A9.66,9.66,0,0,0,30,47.88,10.41,10.41,0,0,0,33.37,40a9.78,9.78,0,0,0-4.45-9.11A9.13,9.13,0,0,0,21.25,30.27Z" style="fill:#7a7a7a"/><path d="M21.25,20.1v9.45c1-.22,5.5-1.08,9,1.59,5,3.88,5.25,13.13.32,17.19-3.57,2.94-8.41,2-9.28,1.81.67.32,7.86,3.66,15-.32s8.05-12.12,8.18-13.27A16.41,16.41,0,0,0,36.9,20.84C29.55,16.29,21.78,19.85,21.25,20.1Z" style="fill:#e02102"/></g></g></svg>