<svg id="Layer_1" data-name="Layer 1" xmlns="http://www.w3.org/2000/svg" viewBox="0 0 1024 1024"><path d="M561.69,454.35C579,432.56,588.77,415.68,596,398.18c10.37-25,21.39-51.52,11.5-80.52-1.68-4.93-12.51-35-41.85-45.67-25.06-9.13-48.14,1.51-65.23,9.32a121.71,121.71,0,0,0-21.8,12.86c-13.39,9.9-22.45,20.73-28.78,28.4a173.4,173.4,0,0,0-26.3,43.79l-.09.19v-310C316,93.22,238.67,195.07,238.67,315c0,121,78.67,223.5,187.61,259.34,16.77-12.4,31.34-23.7,43.56-33.44C517.37,503,540.54,481,561.69,454.35Z"/><path d="M511.65,42a276.51,276.51,0,0,0-33,2v177c15.43-8.07,63.05-30,114.51-9.68,9.89,3.9,36.89,16,56.38,44.75,29.81,44,19.23,93.24,15.51,110.54-8.49,39.5-29.37,65.56-46.13,86.47-17.29,21.58-33.65,35.23-58.57,55.91a604.74,604.74,0,0,1-65.22,47.92c-11.94,7.53-26.35,15.95-43.17,24.53A273.65,273.65,0,0,0,511.65,588c150.76,0,273-122.22,273-273S662.41,42,511.65,42Z"/><path d="M262.47,707.55V858.39H232.22V794.21H167.6v64.18H137.34V707.55H167.6v62h64.62v-62Z"/><path d="M328.6,732v37.82h50.79v24H328.6v40h57.27v24.63H298.35V707.33h87.52V732Z"/><path d="M525.92,793.78a37.25,37.25,0,0,1,8.21,23.77,38.27,38.27,0,0,1-6,21.29A39.61,39.61,0,0,1,511,853.21q-11.24,5.19-26.58,5.18H419.37V707.55h62.24q15.34,0,26.48,5t16.85,13.83a36.22,36.22,0,0,1,5.73,20.1q0,13.18-7,22A37.62,37.62,0,0,1,505,781,33.89,33.89,0,0,1,525.92,793.78Zm-76.29-24h27.66q10.8,0,16.64-4.86T499.77,751q0-9.08-5.84-14t-16.64-5H449.63Zm47.65,58.78q6.17-5.19,6.16-14.69,0-9.74-6.48-15.24t-17.51-5.51H449.63v40.63H480.1Q491.13,833.76,497.28,828.57Z"/><path d="M595.5,850a74.17,74.17,0,0,1-28.09-27.56Q557,804.8,557,782.54q0-22,10.38-39.66a74.15,74.15,0,0,1,28.09-27.55,81.23,81.23,0,0,1,77.91,0,73.6,73.6,0,0,1,27.88,27.55q10.26,17.63,10.27,39.66,0,22.26-10.27,39.87a73.35,73.35,0,0,1-28,27.56,81.09,81.09,0,0,1-77.8,0Zm62.89-23.24a42.13,42.13,0,0,0,16.21-17.61q5.83-11.45,5.84-26.58t-5.84-26.48a41.6,41.6,0,0,0-16.21-17.39,46.75,46.75,0,0,0-24-6,47.33,47.33,0,0,0-24.09,6A41.41,41.41,0,0,0,594,756.06q-5.84,11.36-5.84,26.48T594,809.12a41.93,41.93,0,0,0,16.32,17.61,46.6,46.6,0,0,0,24.09,6.16A46,46,0,0,0,658.39,826.73Z"/><path d="M771.2,850a74.17,74.17,0,0,1-28.09-27.56q-10.38-17.61-10.38-39.87,0-22,10.38-39.66a74.15,74.15,0,0,1,28.09-27.55,81.23,81.23,0,0,1,77.91,0A73.6,73.6,0,0,1,877,742.88q10.26,17.63,10.27,39.66,0,22.26-10.27,39.87A73.35,73.35,0,0,1,849,850a81.09,81.09,0,0,1-77.8,0Zm62.89-23.24a42.13,42.13,0,0,0,16.21-17.61q5.84-11.45,5.84-26.58t-5.84-26.48a41.6,41.6,0,0,0-16.21-17.39,46.75,46.75,0,0,0-24-6,47.33,47.33,0,0,0-24.09,6,41.41,41.41,0,0,0-16.32,17.39q-5.84,11.36-5.84,26.48t5.84,26.58A41.93,41.93,0,0,0,786,826.73a46.6,46.6,0,0,0,24.09,6.16A46,46,0,0,0,834.09,826.73Z"/><path d="M138.59,917h6.53v29.67h18.41v5.54H138.59Z"/><path d="M220.27,946.7v5.49H193.86V917h25.7v5.48H200.4v9.16h17V937h-17v9.7Z"/><path d="M275.54,944h-17.6l-3.47,8.15h-6.74L263.57,917H270l15.89,35.21h-6.84Zm-2.16-5.13-6.64-15.39-6.59,15.39Z"/><path d="M320.91,922.51H309.24V917h29.87v5.53H327.44v29.68h-6.53Z"/><path d="M400.47,917v35.21h-6.53V937.1H375.73v15.09h-6.54V917h6.54v14.54h18.21V917Z"/><path d="M461.48,946.7v5.49h-26.4V917h25.7v5.48H441.62v9.16h17V937h-17v9.7Z"/><path d="M517,952.19l-7.19-10.31c-.31,0-.76,0-1.36,0h-8v10.26h-6.54V917h14.49a19.41,19.41,0,0,1,8,1.51,11.64,11.64,0,0,1,5.21,4.32,12.17,12.17,0,0,1,1.81,6.69,11.93,11.93,0,0,1-1.94,6.84,11.52,11.52,0,0,1-5.56,4.28l8.1,11.57Zm-2.36-27.87c-1.48-1.2-3.64-1.81-6.49-1.81h-7.65v14h7.65c2.85,0,5-.62,6.49-1.84a7.21,7.21,0,0,0,0-10.39Z"/><path d="M601.53,950.35a17.24,17.24,0,0,1-6.74-6.46,18.86,18.86,0,0,1,0-18.61,17.29,17.29,0,0,1,6.76-6.46,21.18,21.18,0,0,1,17.53-.83,16,16,0,0,1,6,4.37l-4.22,4a12.35,12.35,0,0,0-9.41-4.12A13.13,13.13,0,0,0,605,923.8a11.29,11.29,0,0,0-4.48,4.4,13.47,13.47,0,0,0,0,12.77,11.29,11.29,0,0,0,4.48,4.4,13.13,13.13,0,0,0,6.48,1.59,12.24,12.24,0,0,0,9.41-4.18l4.22,4a15.87,15.87,0,0,1-6.06,4.38,20.18,20.18,0,0,1-7.92,1.51A19.83,19.83,0,0,1,601.53,950.35Z"/><path d="M679.61,952.19l-7.19-10.31c-.3,0-.75,0-1.36,0h-7.94v10.26h-6.54V917h14.48a19.41,19.41,0,0,1,8,1.51,11.58,11.58,0,0,1,5.21,4.32,13.18,13.18,0,0,1-.12,13.53,11.61,11.61,0,0,1-5.56,4.28l8.09,11.57Zm-2.36-27.87c-1.48-1.2-3.64-1.81-6.49-1.81h-7.64v14h7.64c2.85,0,5-.62,6.49-1.84a7.21,7.21,0,0,0,0-10.39Z"/><path d="M741.33,944H723.72l-3.47,8.15h-6.74L729.35,917h6.44l15.9,35.21h-6.84Zm-2.17-5.13-6.64-15.39-6.59,15.39Z"/><path d="M787.85,922.46v10.72h17v5.53h-17v13.48h-6.54V917H807v5.48Z"/><path d="M845.89,922.51H834.22V917H864.1v5.53H852.43v29.68h-6.54Z"/></svg>