<svg xmlns="http://www.w3.org/2000/svg" viewBox="0 0 749.93 247.29"><g id="Layer_2" data-name="Layer 2"><g id="Layer_1-2" data-name="Layer 1"><path d="M125.13,2.17V153H94.88V88.83H30.26V153H0V2.17H30.26v62H94.88v-62Z"/><path d="M191.26,26.62V64.44h50.79v24H191.26v40h57.27v24.63H161V2h87.52V26.62Z"/><path d="M388.58,88.4a37.24,37.24,0,0,1,8.21,23.77,38.28,38.28,0,0,1-6,21.29,39.61,39.61,0,0,1-17.13,14.37Q362.43,153,347.08,153H282V2.17h62.24q15.35,0,26.48,5T387.6,21a36.21,36.21,0,0,1,5.73,20.1q0,13.18-7,22a37.6,37.6,0,0,1-18.67,12.52A33.89,33.89,0,0,1,388.58,88.4Zm-76.29-24H340q10.8,0,16.64-4.86t5.84-13.92q0-9.07-5.84-14t-16.64-5H312.29Zm47.65,58.78q6.17-5.19,6.16-14.69,0-9.73-6.48-15.24t-17.51-5.51H312.29v40.63h30.47q11,0,17.18-5.18Z"/><path d="M458.16,144.62a74.18,74.18,0,0,1-28.09-27.56q-10.41-17.64-10.41-39.9,0-22,10.38-39.66A74.16,74.16,0,0,1,458.13,10,81.21,81.21,0,0,1,536,10,73.6,73.6,0,0,1,563.92,37.5q10.26,17.63,10.27,39.66,0,22.26-10.27,39.87a73.31,73.31,0,0,1-28,27.56,81.11,81.11,0,0,1-77.8,0Zm62.89-23.24a42.19,42.19,0,0,0,16.21-17.61q5.84-11.44,5.84-26.58t-5.84-26.48a41.64,41.64,0,0,0-16.21-17.39,46.77,46.77,0,0,0-24-6,47.29,47.29,0,0,0-24.09,6,41.42,41.42,0,0,0-16.3,17.36Q450.82,62,450.82,77.16t5.84,26.58A41.9,41.9,0,0,0,473,121.35a46.53,46.53,0,0,0,24.09,6.16,45.92,45.92,0,0,0,24-6.16Z"/><path d="M633.86,144.62a74.18,74.18,0,0,1-28.09-27.56q-10.38-17.61-10.38-39.87,0-22,10.38-39.66A74.16,74.16,0,0,1,633.86,10a81.21,81.21,0,0,1,77.91,0A73.62,73.62,0,0,1,739.66,37.5q10.26,17.63,10.27,39.66,0,22.26-10.27,39.87a73.39,73.39,0,0,1-28,27.59A81.11,81.11,0,0,1,633.86,144.62Zm62.89-23.24A42.19,42.19,0,0,0,713,103.77q5.84-11.44,5.84-26.58T713,50.71a41.64,41.64,0,0,0-16.21-17.39,46.77,46.77,0,0,0-24-6,47.29,47.29,0,0,0-24.09,6,41.42,41.42,0,0,0-16.32,17.39q-5.83,11.35-5.84,26.48t5.84,26.58a41.94,41.94,0,0,0,16.32,17.58,46.53,46.53,0,0,0,24.09,6.16,46,46,0,0,0,24-6.16Z"/><path d="M1.25,211.62H7.78v29.67H26.19v5.54H1.25Z"/><path d="M82.93,241.32v5.49H56.52V211.62h25.7v5.48H63.06v9.16h17v5.36h-17v9.7Z"/><path d="M138.2,238.62H120.6l-3.47,8.15h-6.74l15.84-35.15h6.43l15.89,35.21h-6.84ZM136,233.49,129.4,218.1l-6.59,15.39Z"/><path d="M183.57,217.13H171.9v-5.51h29.87v5.53H190.1v29.68h-6.53Z"/><path d="M263.13,211.62v35.21H256.6V231.72H238.39v15.09h-6.54V211.62h6.54v14.54H256.6V211.62Z"/><path d="M324.14,241.32v5.49h-26.4V211.62h25.7v5.48H304.28v9.16h17v5.36h-17v9.7Z"/><path d="M379.66,246.81l-7.19-10.31h-9.36v10.26h-6.54V211.62h14.49a19.44,19.44,0,0,1,8,1.51,11.63,11.63,0,0,1,5.21,4.32,12.14,12.14,0,0,1,1.81,6.69,11.94,11.94,0,0,1-1.94,6.84,11.5,11.5,0,0,1-5.56,4.28l8.1,11.57Zm-2.36-27.87c-1.48-1.2-3.64-1.81-6.49-1.81h-7.65v14h7.65c2.85,0,5-.62,6.49-1.84a7.2,7.2,0,0,0,.2-10.19l-.2-.2Z"/><path d="M464.19,245a17.23,17.23,0,0,1-6.74-6.46,18.88,18.88,0,0,1,0-18.61,17.35,17.35,0,0,1,6.76-6.46,21.18,21.18,0,0,1,17.53-.83,16,16,0,0,1,6,4.37l-4.22,4a12.35,12.35,0,0,0-9.41-4.12,13.17,13.17,0,0,0-6.45,1.56,11.29,11.29,0,0,0-4.48,4.4,13.45,13.45,0,0,0,0,12.77,11.29,11.29,0,0,0,4.48,4.4,13.1,13.1,0,0,0,6.48,1.59,12.23,12.23,0,0,0,9.41-4.18l4.22,4a15.91,15.91,0,0,1-6.06,4.38,20.29,20.29,0,0,1-7.92,1.51A19.83,19.83,0,0,1,464.19,245Z"/><path d="M542.27,246.81l-7.19-10.31h-9.3v10.26h-6.54V211.62h14.48a19.44,19.44,0,0,1,8,1.51,11.57,11.57,0,0,1,5.21,4.32,13.19,13.19,0,0,1-.12,13.53,11.6,11.6,0,0,1-5.56,4.28l8.09,11.57Zm-2.36-27.87c-1.48-1.2-3.64-1.81-6.49-1.81h-7.64v14h7.64c2.85,0,5-.62,6.49-1.84a7.2,7.2,0,0,0,.2-10.19c-.07-.07-.13-.14-.2-.2Z"/><path d="M604,238.62H586.38l-3.47,8.15h-6.74L592,211.62h6.44l15.9,35.21h-6.84Zm-2.17-5.13-6.64-15.39-6.59,15.39Z"/><path d="M650.51,217.08V227.8h17v5.53h-17v13.48H644V211.62h25.69v5.48Z"/><path d="M708.55,217.13H696.88v-5.51h29.88v5.53H715.09v29.68h-6.54Z"/></g></g></svg>