<svg xmlns="http://www.w3.org/2000/svg" xmlns:xlink="http://www.w3.org/1999/xlink" width="500" zoomAndPan="magnify" viewBox="0 0 375 374.999991" height="500" preserveAspectRatio="xMidYMid meet" version="1.0"><defs><g/><clipPath id="ac54e1ca7b"><path d="M 151.019531 88 L 234 88 L 234 215.5 L 151.019531 215.5 Z M 151.019531 88 " clip-rule="nonzero"/></clipPath><clipPath id="9549a6f5d6"><path d="M 221 71.554688 L 274 71.554688 L 274 215.5 L 221 215.5 Z M 221 71.554688 " clip-rule="nonzero"/></clipPath><clipPath id="2ac15da866"><path d="M 114 242.261719 L 293 242.261719 L 293 246.761719 L 114 246.761719 Z M 114 242.261719 " clip-rule="nonzero"/></clipPath></defs><rect x="-37.5" width="450" fill="#ffffff" y="-37.499999" height="449.999989" fill-opacity="1"/><rect x="-37.5" width="450" fill="#fff4f7" y="-37.499999" height="449.999989" fill-opacity="1"/><path fill="#ffffff" d="M 215.257812 77.300781 C 229.011719 72.117188 235.5625 79.996094 245.6875 81.453125 C 255.8125 82.914062 295.625 98.125 305.777344 140.171875 C 315.929688 182.21875 314.472656 204.703125 292.734375 213.410156 C 271 222.117188 238.421875 221.371094 229.011719 202.527344 C 219.605469 183.679688 198.066406 126.59375 195.007812 116.972656 C 188.488281 96.664062 205.074219 81.140625 215.257812 77.300781 Z M 215.257812 77.300781 " fill-opacity="1" fill-rule="nonzero"/><g clip-path="url(#ac54e1ca7b)"><path stroke-linecap="butt" transform="matrix(0.00776928, 0, 0, -0.00776628, 150.961636, 215.332282)" fill="none" stroke-linejoin="round" d="M 282.473099 15712.984948 C 450.402017 15968.999446 618.330934 16225.516919 1151.781777 16262.737102 C 1685.232619 16299.957284 2584.708168 16118.383151 3327.818767 15873.434113 C 4070.929365 15628.98805 4658.177795 15321.670057 5028.224751 15239.685061 C 5398.774488 15158.20304 5552.625532 15303.059966 5606.423119 15500.729313 C 5659.717925 15698.901636 5612.959275 15950.389355 5548.100501 15908.642393 C 5482.738947 15866.895432 5398.774488 15531.410815 5403.299519 15314.628401 C 5408.327331 15097.845988 5501.341851 14999.765777 5631.562179 15027.932402 C 5762.285288 15056.099026 5930.214206 15209.506535 6013.675883 15382.02711 C 6097.640342 15554.547685 6097.640342 15745.678352 6011.664758 15677.776668 C 5925.186394 15610.377959 5752.732446 15284.449875 5619.998211 15081.247798 C 5487.263977 14878.548697 5394.249457 14799.581553 5501.341851 14634.102634 C 5608.434244 14468.623715 5916.136332 14217.135996 6064.959565 13972.689933 C 6214.285578 13727.740895 6204.732735 13490.336488 6130.321119 13383.20272 C 6055.909503 13276.068952 5916.136332 13299.205822 5694.912609 13469.21152 C 5473.186104 13639.217218 5170.511828 13956.091744 4788.398123 14203.052684 C 4406.284419 14450.013624 3945.234068 14627.060978 3451.000158 14676.352571 C 2957.26903 14725.141188 2430.857124 14645.671069 2048.74342 14475.665371 C 1666.629715 14305.659673 1428.814212 14044.615421 1233.232329 13958.606621 C 1037.650447 13872.597821 883.799402 13961.121498 883.799402 13935.469751 C 883.799402 13909.818003 1037.650447 13769.990832 1256.360264 13723.214116 C 1475.572863 13676.940376 1759.644235 13723.214116 2104.552132 13837.38954 C 2449.460028 13951.564965 2854.701667 14133.139098 3220.223592 14196.011028 C 3586.248298 14258.882957 3912.553291 14203.052684 4105.621267 14068.255266 C 4299.192026 13932.954874 4359.525768 13718.687337 4315.281024 13511.461457 C 4271.036279 13303.732601 4122.213047 13103.548376 3886.91145 13017.539577 C 3651.609853 12931.027801 3329.829891 12959.194426 3120.170135 13036.149668 C 2910.510379 13113.10491 2812.970828 13238.848769 2775.262239 13413.381246 C 2738.056431 13587.913723 2761.687147 13811.737793 2913.024285 13967.660179 C 3064.361423 14124.08554 3343.907765 14212.609217 3551.556396 14161.305722 C 3758.702246 14110.002228 3893.950386 13918.871561 3900.989323 13762.949176 C 3907.525479 13607.02679 3786.857993 13485.809709 3644.570916 13439.032994 C 3502.28384 13392.256278 3339.382734 13420.422902 3239.329277 13537.113204 C 3138.773039 13653.30053 3101.567231 13858.514509 3197.095657 14007.395238 C 3292.624083 14156.778943 3520.886744 14249.829399 3828.588832 14214.621119 C 4136.29092 14179.915814 4522.929655 14016.951772 4851.245772 13821.294326 C 5180.06467 13625.133906 5450.058169 13397.286032 5580.278497 13243.375548 C 5711.001607 13089.465064 5701.448764 13010.49792 5594.356371 12961.206328 C 5487.263977 12912.41771 5282.129252 12893.807619 5205.20373 12921.974243 C 5128.780989 12949.637892 5180.06467 13024.078257 5210.231542 13122.158468 C 5240.398413 13220.238678 5249.951256 13340.952783 5317.323935 13347.994439 C 5384.696615 13355.036095 5510.894693 13247.902327 5552.625532 13150.325092 C 5594.356371 13052.244882 5552.625532 12963.721205 5405.813425 12921.974243 C 5259.001317 12879.724307 5007.610722 12884.251086 4739.628348 12849.54578 C 4471.645974 12814.840475 4187.574601 12739.897135 3795.908054 12714.245388 C 3404.744289 12688.59364 2905.985348 12712.233486 2570.630295 12812.325598 C 2234.77246 12912.41771 2062.821293 13089.465064 1962.265055 13238.848769 C 1862.211598 13387.729499 1834.055851 13508.946579 1829.530821 13431.991337 C 1825.00579 13355.036095 1843.608694 13080.411506 1983.381865 12842.504124 C 2123.155036 12605.099718 2384.098473 12404.412518 2810.456922 12337.013809 C 3236.815371 12269.6151 3828.588832 12334.498932 4261.986218 12423.525584 C 4695.383603 12512.049262 4969.902133 12623.709809 5284.643158 12686.581738 C 5599.384183 12749.453668 5953.34214 12763.53698 6216.799484 12872.68265 C 6479.754046 12982.331296 6652.207994 13187.545275 6726.61961 13406.33959 C 6801.534008 13625.133906 6777.903292 13858.514509 6691.927708 14021.478551 C 6605.449344 14184.442592 6456.626111 14277.996024 6479.754046 14121.570663 C 6502.881981 13965.648277 6698.966645 13560.250074 6782.931104 13093.991843 C 6866.392781 12628.236588 6838.739816 12101.621304 6787.456134 11614.74108 C 6736.172453 11127.860856 6661.760837 10680.715692 6579.807503 10386.978037 C 6498.35695 10093.743356 6409.867461 9953.916184 6267.580384 9839.74076 C 6125.796089 9725.565336 5930.214206 9637.041659 5783.402098 9434.342557 C 5636.589991 9231.643456 5538.547659 8914.76893 5545.586595 8632.599709 C 5552.625532 8350.933464 5664.242956 8103.972524 5794.966066 7954.588819 C 5925.186394 7805.708089 6074.512407 7754.404595 6214.285578 7735.794503 C 6354.058749 7717.184412 6484.279077 7731.267725 6509.920918 7740.321282 C 6535.562758 7749.877816 6456.626111 7754.404595 6375.175559 7803.193212 C 6293.222225 7852.484805 6209.760547 7945.535261 6267.580384 8019.975626 C 6325.903002 8094.415991 6526.512697 8150.246264 6710.530612 8152.761141 C 6894.548528 8155.276019 7062.477445 8103.972524 7178.6199 8010.419093 C 7295.265136 7917.368637 7360.626691 7782.571219 7513.974954 7712.657633 C 7667.825998 7642.744047 7910.166532 7637.714293 8106.251196 7700.586223 C 8301.833078 7763.961128 8450.656311 7894.231766 8583.390545 8005.892314 C 8716.62756 8118.055836 8832.770015 8211.106292 8970.532061 8222.674727 C 9107.791326 8234.243162 9266.167401 8164.329577 9261.64237 8118.055836 C 9257.117339 8071.279121 9089.188422 8048.14225 8958.968094 7991.809001 C 8828.244984 7935.978728 8735.230464 7847.455051 8765.397336 7824.318181 C 8795.564207 7801.18131 8949.415251 7842.928272 9130.919261 7864.05324 C 9312.926051 7884.675233 9522.585808 7884.675233 9690.011944 8022.490503 C 9857.940861 8159.802798 9983.636159 8434.930362 9995.702907 8681.388327 C 10007.266875 8928.349267 9904.699512 9147.646558 9743.809531 9336.262347 C 9582.91955 9524.878136 9364.209733 9683.315399 9324.490019 9641.568438 C 9284.770305 9599.318501 9424.543476 9357.387315 9452.699222 9131.048368 C 9480.352188 8905.212397 9396.89051 8695.471639 9252.089527 8606.947962 C 9107.791326 8518.424285 8902.6566 8551.117688 8690.985719 8488.245759 C 8478.812057 8425.373829 8259.599459 8266.936566 8066.531482 8206.579513 C 7872.960723 8145.719485 7705.534587 8182.939668 7584.36432 8285.546657 C 7463.194054 8388.153646 7388.279656 8555.644467 7213.814583 8592.86465 C 7038.846729 8630.587807 6763.825419 8537.034376 6589.360346 8616.504495 C 6414.392492 8695.471639 6339.980875 8947.462333 6368.136622 9168.771526 C 6395.789588 9390.080719 6526.512697 9580.70841 6794.495071 9718.52368 C 7062.477445 9855.835974 7467.719084 9939.832872 7896.088658 9907.139469 C 8324.961013 9874.446065 8776.961303 9725.565336 8895.617664 9527.393013 C 9014.776806 9329.220691 8800.089238 9082.259751 8539.1458 8937.9058 C 8278.202363 8793.551849 7971.003055 8751.301913 7730.673647 8779.468537 C 7490.847019 8807.635162 7318.393071 8905.212397 7285.712294 9066.164537 C 7253.534297 9226.613701 7360.626691 9450.437771 7584.36432 9543.488227 C 7807.599169 9637.041659 8147.982034 9599.318501 8230.438149 9265.34281 C 8313.397046 8930.864144 8138.429192 8299.126994 8185.187842 7819.288426 C 8231.443712 7339.449858 8499.426086 7011.006897 8573.334921 6763.040007 C 8646.740975 6515.073116 8525.570708 6347.079319 8303.844203 6256.543741 C 8082.62048 6165.505186 7761.343299 6151.421874 7465.205178 6235.418772 C 7169.569839 6319.41567 6899.073559 6500.989803 6633.60509 6424.034561 C 6368.136622 6347.079319 6107.193184 6011.594702 5799.491096 5767.14864 C 5491.789008 5522.702577 5137.83105 5368.792093 4909.56839 5322.015377 C 4681.30573 5275.741637 4578.738367 5336.098689 4615.944175 5329.057033 C 4653.149983 5322.015377 4830.128962 5247.575012 5119.228146 5177.661426 C 5408.327331 5107.747841 5809.043939 5042.361034 6216.799484 5058.959223 C 6624.052248 5075.054437 7038.846729 5173.134647 7313.86804 5210.35483 C 7588.889351 5247.575012 7724.137491 5224.438142 7847.318883 5214.881609 C 7971.003055 5205.828051 8082.62048 5210.35483 8317.922077 5163.578114 C 8553.223673 5117.304374 8912.209443 5019.224164 9334.042861 5023.750942 C 9755.373498 5028.780697 10240.054566 5135.914465 10445.189291 5224.438142 C 10650.324017 5312.961819 10575.409619 5382.875405 10319.493994 5578.53285 C 10063.075587 5774.190296 9625.15317 6095.591601 9321.976113 6230.891993 C 9019.301836 6365.689411 8851.372919 6314.385916 8963.493124 6186.630155 C 9075.110549 6058.371418 9466.777095 5853.157439 9790.568182 5699.749931 C 10114.359268 5545.839447 10370.777675 5443.232458 10433.625324 5294.351728 C 10496.472972 5144.968023 10365.749863 4949.310578 10235.529535 4718.444852 C 10104.806425 4488.082101 9974.586097 4222.51107 9569.344458 3978.065007 C 9163.600038 3733.115969 8483.337088 3509.291899 7828.715979 3448.934846 C 7174.094869 3388.577794 6545.115601 3490.681808 6093.115311 3695.895786 C 5641.115021 3901.109765 5366.093711 4208.427758 5203.192605 4481.040445 C 5039.788718 4753.653132 4989.007818 4991.057539 4930.6852 5100.706184 C 4872.362582 5210.35483 4807.001027 5191.744739 4930.6852 5114.789497 C 5053.866592 5037.834255 5366.093711 4902.533862 5804.016127 4872.355336 C 6242.441325 4842.176809 6806.059038 4916.617174 7316.381946 4907.563616 C 7826.704854 4898.007083 8283.230174 4804.956627 8504.453898 4595.215869 C 8725.677622 4385.475112 8711.599748 4059.547028 8497.414961 3854.333049 C 8283.230174 3649.119071 7868.435693 3565.625148 7523.527796 3591.276895 C 7178.6199 3616.928643 6904.101371 3751.72606 6961.921207 3952.41326 C 7020.243825 4152.597484 7411.910372 4418.168515 7560.733605 4287.897877 C 7710.059618 4157.124263 7616.542317 3630.50898 7719.109679 3285.970805 C 7821.677042 2940.929654 8119.826288 2777.965612 8276.191238 2458.576209 C 8432.053407 2139.689782 8446.13128 1664.377993 8346.077823 1354.545123 C 8246.024366 1044.712253 8031.336798 900.358303 7679.892747 867.664899 C 7327.945914 834.971496 6838.739816 913.93864 6475.229016 1133.23593 C 6111.718215 1352.030246 5873.902712 1711.154709 5981.497887 2048.651227 C 6088.59028 2386.650722 6540.59057 2703.525248 7202.250616 2843.352419 C 7863.910662 2983.179591 8735.230464 2945.959409 9266.167401 2693.968714 C 9797.607118 2442.480995 9988.663971 1976.72574 9850.901925 1606.032842 C 9713.64266 1235.84292 9247.564497 960.715355 8560.26261 895.328548 C 7872.960723 830.444717 6964.435113 974.798668 6368.136622 1163.414457 C 5771.838131 1352.030246 5487.263977 1584.907874 5303.246062 1778.553417 C 5119.228146 1971.695985 5035.263688 2125.606469 4958.338166 2230.728336 C 4881.412643 2335.347227 4811.526058 2391.177501 4760.242377 2389.165599 C 4708.958695 2386.650722 4676.780699 2325.790694 4697.394728 2344.400785 C 4718.511538 2363.513852 4792.923154 2461.091086 4737.114442 2799.090581 C 4681.30573 3136.5871 4494.773908 3714.505878 4303.717056 4143.040951 C 4112.660204 4572.078999 3917.078321 4851.230367 3704.904659 5037.834255 C 3493.233778 5224.438142 3264.971118 5317.488598 3099.556106 5256.62857 C 2934.141095 5196.271518 2831.573732 4982.003981 2861.740604 4641.992585 C 2891.907475 4301.478214 3054.808581 3835.722958 3218.212467 3665.71726 C 3381.113573 3495.711562 3544.51746 3621.455422 3604.851202 3868.416362 C 3665.184945 4115.377302 3623.454106 4483.555322 3500.272715 4760.694788 C 3376.588542 5037.834255 3171.453817 5224.438142 3052.797456 5121.831153 C 2934.141095 5019.224164 2901.460318 4627.909273 2931.627189 4245.64794 C 2961.79406 3863.386607 3055.311362 3490.681808 3157.375943 2973.623058 C 3259.943306 2456.564308 3372.063511 1794.648631 3443.961222 1335.935032 C 3516.361713 876.718457 3549.04249 620.703959 3630.493043 435.608998 C 3711.943596 250.011062 3842.666705 135.835637 4047.801431 78.999413 C 4252.433375 21.660213 4531.979716 21.660213 4685.830761 132.314809 C 4839.681805 242.969405 4867.837551 464.278598 4723.036569 581.974851 C 4578.738367 699.671103 4261.986218 713.754415 4063.890429 583.483777 C 3865.79464 452.710163 3786.857993 178.085574 3660.659914 389.838233 C 3534.964617 602.093868 3362.510669 1300.726751 3236.815371 1694.556519 C 3111.120074 2088.386287 3031.680646 2176.909964 3029.669521 2221.171803 C 3027.155615 2265.433641 3101.567231 2265.433641 3038.719582 2840.837542 C 2975.871934 3416.241443 2775.262239 4567.049245 2586.719293 5447.759237 C 2398.176347 6328.469228 2221.197368 6939.08141 1990.420801 7334.923079 C 1759.644235 7731.267725 1475.572863 7912.841858 1279.99098 7915.356735 C 1083.906316 7917.368637 976.813923 7740.321282 944.133145 7411.878321 C 911.452368 7083.435361 953.685988 6603.596793 1044.689383 6330.984105 C 1135.189997 6058.371418 1274.963168 5992.984611 1394.12231 6128.285004 C 1512.778671 6263.585397 1610.821003 6598.567038 1598.754255 6906.388006 C 1587.190287 7213.705999 1466.02002 7493.360342 1335.799692 7591.440553 C 1205.076583 7689.017788 1065.303412 7605.02089 1028.097604 7288.649339 C 990.891796 6971.774813 1056.253351 6421.519684 1088.934128 5988.457832 C 1121.614905 5554.893005 1121.614905 5238.018479 1163.345744 4765.221567 C 1205.076583 4292.424656 1289.041042 3663.202383 1328.760756 3136.5871 C 1368.48047 2610.474792 1363.452658 2186.466497 1477.583988 1841.425347 C 1591.715318 1496.384197 1825.00579 1230.813165 2011.537611 1147.319243 C 2197.566652 1063.322345 2337.339823 1160.89958 2342.367634 1384.723649 C 2346.892665 1608.547719 2216.169556 1958.115649 2013.548736 2125.606469 C 1810.927917 2293.600266 1535.906606 2279.516953 1526.856544 2072.291073 C 1517.303702 1864.562217 1773.722109 1464.193769 2011.537611 1063.322345 C 2248.850333 662.450921 2468.062932 261.579497 2514.318801 145.39217 C 2561.077452 28.701869 2435.382155 196.695665 2214.158431 394.365012 C 1992.934707 592.537335 1675.679777 820.888184 1412.725214 1174.982892 C 1149.267871 1529.0776 939.608115 2008.916168 769.668072 2365.525753 C 599.72803 2722.135339 469.004921 2955.012966 354.873591 3234.66731 C 240.742261 3514.321653 142.699929 3840.249737 45.160378 4166.680796 " stroke="#231f20" stroke-width="78.097" stroke-opacity="1" stroke-miterlimit="22.926001"/></g><g clip-path="url(#9549a6f5d6)"><path stroke-linecap="butt" transform="matrix(0.00880671, 0, 0, -0.00880331, 150.961636, 215.332282)" fill="none" stroke-linejoin="round" d="M 13691.537631 16242.585932 C 13605.488205 16270.984339 13518.995225 16299.82647 13412.098772 16250.572984 C 13305.20232 16201.319497 13177.902396 16073.970392 13142.86165 15870.300569 C 13107.820904 15667.074471 13165.482891 15387.527655 13184.112148 15175.87078 C 13202.297852 14963.77018 13181.894379 14820.003246 13163.265122 14865.263206 C 13145.079419 14910.523167 13128.66793 15144.810022 13175.684627 15260.17855 C 13223.144878 15375.103352 13334.033314 15371.109826 13461.333238 15171.433529 C 13589.076716 14972.200957 13732.788129 14577.729338 13817.063341 14279.546068 C 13901.338552 13981.362797 13926.177562 13779.9116 13831.25706 13732.876739 C 13736.780113 13685.398152 13522.987208 13792.335903 13385.485548 14010.204929 C 13247.540333 14228.073956 13185.886363 14556.874258 13128.224376 14745.901153 C 13071.005943 14935.371773 13017.33594 14984.625259 12863.422791 15060.502252 C 12709.066088 15136.82297 12454.466239 15239.32347 11970.992659 15169.658628 C 11488.406185 15099.550062 10776.94598 14857.276154 10115.163794 14602.134219 C 9453.381608 14347.436009 8840.833888 14080.313496 8513.934779 13893.061501 C 8187.479223 13706.253232 8146.228725 13599.315482 8185.261454 13463.5356 C 8224.294184 13327.755718 8343.610141 13163.577429 8396.83659 13196.413087 C 8450.506593 13229.248745 8438.087088 13459.542074 8361.795844 13599.315482 C 8285.948154 13739.08889 8146.228725 13788.342377 8104.978227 13677.411101 C 8064.171282 13566.479824 8121.389715 13294.92006 8195.46319 13151.153126 C 8269.536666 13007.386192 8360.021629 12990.968363 8623.049 13095.687488 C 8886.07637 13200.406613 9321.646146 13426.706416 9887.17717 13658.774646 C 10452.264639 13891.286601 11146.869802 14129.566982 11601.51239 14242.716884 C 12055.711424 14355.423061 12269.504328 14343.442483 12394.586484 14398.908121 C 12520.112193 14454.373759 12556.927154 14577.729338 12550.717402 14477.00374 C 12544.507649 14376.278141 12495.273184 14051.471364 12546.725418 13726.664587 C 12598.177652 13401.85781 12750.316587 13077.051034 12733.905098 12822.352823 C 12717.49361 12567.210888 12532.531698 12382.177519 12349.344002 12318.724829 C 12166.59986 12254.828414 11985.629932 12312.512678 11769.619259 12400.813974 C 11554.052139 12489.11527 11303.444274 12608.477323 11005.376158 12643.531606 C 10707.308042 12678.585889 10361.779676 12628.888678 10143.994787 12520.176027 C 9926.209899 12411.019651 9835.724935 12242.847836 9874.757665 12035.184487 C 9913.790394 11827.521138 10082.340817 11580.80998 10316.537194 11498.720836 C 10551.177124 11416.631691 10851.019455 11498.720836 11017.795663 11679.316953 C 11184.128317 11860.356796 11216.951294 12139.903612 11146.869802 12326.711881 C 11077.231865 12513.963876 10904.689458 12608.477323 10697.106306 12620.901626 C 10489.0796 12633.325929 10246.899256 12563.217362 10150.20454 12419.450428 C 10053.509824 12275.683494 10102.744289 12057.814468 10230.487767 11926.028112 C 10357.787692 11794.685481 10563.153075 11749.42552 10717.509778 11847.932493 C 10871.422927 11946.883191 10974.327396 12189.157099 10896.261937 12367.978316 C 10818.196478 12546.799533 10559.161092 12662.168061 10320.972731 12651.518658 C 10082.340817 12641.312981 9864.555929 12505.976824 9638.343519 12341.35481 C 9412.13111 12176.732796 9177.934733 11983.712375 9009.38431 11837.726816 C 8840.833888 11691.741256 8737.929419 11593.234283 8748.574709 11533.775119 C 8758.776445 11473.87223 8882.084386 11453.460875 8982.771086 11467.660078 C 9083.457786 11482.303007 9161.523245 11531.556493 9153.095723 11615.864263 C 9145.111756 11700.172033 9050.634809 11819.090361 8960.149845 11804.891158 C 8869.664881 11790.691955 8783.171901 11642.48777 8853.253393 11568.385677 C 8922.89133 11494.283585 9149.10374 11494.283585 9414.348879 11443.255197 C 9679.594018 11391.783085 9983.871886 11288.838861 10353.795708 11258.221829 C 10723.719531 11227.161071 11159.289307 11268.427506 11475.98668 11371.37173 C 11792.2405 11473.87223 11989.621916 11638.494244 12090.308616 11773.830401 C 12190.995315 11909.610283 12195.430853 12016.548033 12183.011348 11913.603809 C 12170.591843 11811.103309 12141.76085 11498.720836 11960.790922 11241.804 C 11780.264549 10984.887164 11447.155687 10783.435966 11087.433601 10717.764651 C 10727.711514 10651.64961 10341.376203 10721.758177 9991.855853 10851.325908 C 9642.335503 10980.893638 9330.073667 11169.920533 9106.079027 11252.009677 C 8882.084386 11334.098822 8746.35694 11309.693941 8649.662224 11360.722328 C 8552.967508 11412.19444 8495.749075 11539.543545 8612.847263 11772.0555 C 8729.945452 12004.12373 9021.803815 12341.35481 9373.09838 12579.635191 C 9724.836499 12818.359297 10135.567266 12957.68898 10573.798365 13011.379718 C 11011.58591 13064.626731 11475.98668 13031.791073 11814.861741 12906.660593 C 12154.180355 12781.086389 12367.973259 12563.217362 12513.902441 12399.039073 C 12659.831623 12234.417059 12737.897082 12123.485783 12877.616511 11901.623231 C 13017.33594 11679.316953 13218.70934 11346.523125 13393.469515 11210.743242 C 13568.22969 11075.407085 13716.376641 11137.084875 13716.376641 11371.37173 C 13716.376641 11605.658586 13568.22969 12012.554507 13409.881004 12318.724829 C 13251.532317 12624.895152 13083.425448 12830.339875 12968.101475 12848.97633 C 12853.221055 12867.612784 12791.123531 12698.997244 12785.357332 12538.812481 C 12779.14758 12378.183993 12828.382045 12225.986282 12793.3413 12146.115764 C 12758.300554 12065.80152 12639.428151 12057.814468 12579.548395 11827.521138 C 12520.112193 11597.227809 12520.112193 11145.071927 12612.371372 10734.18248 C 12705.074105 10322.849308 12890.036016 9952.78257 13025.763462 9716.720814 C 13161.490907 9480.215333 13247.540333 9377.271109 13288.790832 9381.70836 C 13329.597776 9385.701886 13325.605792 9496.633162 13280.806864 9523.256669 C 13235.120829 9549.880175 13149.071402 9492.639636 13116.248425 9210.874195 C 13083.425448 8929.552478 13103.82892 8423.705859 13122.458178 8109.104759 C 13140.643881 7794.947385 13157.05537 7671.591806 13192.096115 7656.948877 C 13227.136861 7642.749674 13280.806864 7737.263121 13214.717356 7733.269596 C 13149.071402 7728.832344 12964.109491 7626.331845 12797.333283 7365.421484 C 12631.000629 7104.067397 12482.853679 6684.747173 12343.13425 6411.412508 C 12203.41482 6138.077843 12072.122912 6010.728738 12053.493655 6051.995173 C 12034.864398 6092.817883 12129.341345 6302.699857 12257.084823 6479.302449 C 12384.384748 6655.905041 12544.507649 6800.1157 12499.708721 6826.739206 C 12454.466239 6853.362713 12203.41482 6762.842791 11930.185714 6516.131633 C 11656.956608 6269.8642 11360.662707 5866.961804 11151.30534 5455.628632 C 10941.504419 5044.739185 10818.196478 4625.418961 10760.534491 4349.865671 C 10702.872505 4074.312381 10711.300026 3942.96975 10741.905234 3862.655506 C 10772.953996 3782.784987 10826.180445 3753.942855 10801.78499 3772.579309 C 10776.94598 3790.772039 10674.485065 3856.887079 10649.646055 3953.175427 C 10624.807046 4049.9075 10678.477049 4177.256605 10594.201837 4025.058894 C 10509.926626 3873.304908 10287.7062 3441.560381 10076.131065 2956.568841 C 9864.555929 2471.133577 9663.182529 1932.895025 9500.841859 1494.938346 C 9338.057635 1057.425393 9215.193248 720.194313 9159.305476 490.788434 C 9103.861258 261.82628 9116.280763 140.689326 9128.700268 19.108647 " stroke="#231f20" stroke-width="68.899002" stroke-opacity="1" stroke-miterlimit="22.926001"/></g><g fill="#252827" fill-opacity="1"><g transform="translate(52.418758, 268.296365)"><g><path d="M 80.546875 16.902344 L 85.660156 16.902344 C 85.867188 16.902344 86.078125 16.796875 86.285156 16.695312 C 86.390625 16.589844 86.597656 16.589844 86.597656 16.695312 C 86.703125 16.796875 87.121094 16.796875 87.433594 16.695312 L 88.269531 16.695312 C 88.476562 16.796875 92.128906 16.171875 92.964844 15.964844 L 97.449219 15.023438 L 99.746094 14.503906 C 100.996094 14.191406 102.25 13.773438 102.457031 13.5625 L 103.710938 13.144531 C 105.171875 12.730469 107.257812 11.894531 107.988281 11.476562 C 108.925781 10.851562 111.328125 8.972656 111.953125 8.453125 C 113.207031 7.09375 115.082031 4.070312 115.1875 3.027344 C 115.292969 2.710938 115.292969 2.710938 115.082031 3.027344 C 114.875 3.234375 114.769531 3.441406 114.769531 3.652344 C 114.5625 4.277344 113.414062 6.15625 113.207031 6.15625 C 113.101562 6.15625 113.101562 6.261719 112.996094 6.363281 C 112.996094 6.675781 110.699219 8.972656 109.761719 9.703125 C 109.136719 10.121094 106.320312 11.582031 106.109375 11.476562 L 105.589844 11.6875 C 105.277344 11.789062 104.441406 12.101562 103.605469 12.3125 L 100.058594 13.25 L 98.179688 13.667969 L 97.554688 13.773438 C 95.050781 14.398438 92.335938 14.816406 88.6875 15.234375 C 84.929688 15.546875 84.929688 15.546875 81.800781 15.441406 C 77 15.234375 71.785156 14.292969 66.460938 12.625 L 63.957031 11.894531 L 61.453125 11.058594 L 53.941406 8.453125 L 40.484375 3.339844 L 39.335938 2.921875 C 38.605469 2.710938 34.640625 1.042969 33.179688 0.3125 L 29.527344 -1.355469 C 28.484375 -1.980469 27.542969 -2.398438 27.230469 -2.503906 C 26.398438 -2.816406 25.355469 -3.339844 24.308594 -3.859375 C 23.164062 -4.589844 19.40625 -6.46875 18.46875 -6.886719 L 17.738281 -7.199219 L 20.867188 -10.015625 L 22.535156 -11.582031 L 23.371094 -12.519531 C 23.683594 -12.832031 23.894531 -13.144531 23.996094 -13.144531 C 24.101562 -13.144531 24.207031 -13.25 24.308594 -13.5625 C 24.414062 -13.773438 24.625 -13.980469 24.726562 -13.980469 C 24.726562 -13.980469 25.25 -14.398438 25.667969 -15.023438 L 30.050781 -19.617188 L 40.066406 -30.464844 L 40.898438 -31.40625 L 44.96875 -35.789062 L 46.324219 -37.351562 L 46.953125 -38.1875 L 48.097656 -39.4375 L 51.855469 -44.238281 L 52.585938 -45.074219 C 53.105469 -45.699219 54.671875 -47.054688 55.089844 -47.785156 L 55.925781 -48.621094 C 56.132812 -48.726562 56.445312 -49.039062 56.550781 -49.246094 C 56.863281 -49.664062 57.699219 -50.601562 58.949219 -51.960938 L 59.472656 -52.375 C 59.578125 -52.480469 59.679688 -52.480469 59.679688 -52.585938 C 59.679688 -52.691406 59.992188 -53.105469 60.410156 -53.523438 C 61.140625 -54.253906 62.8125 -55.925781 63.332031 -56.550781 L 64.585938 -58.011719 C 65.210938 -58.636719 66.777344 -60.203125 67.921875 -61.453125 C 68.445312 -61.976562 68.863281 -62.496094 69.070312 -62.496094 C 69.175781 -62.601562 69.28125 -62.707031 69.28125 -62.8125 L 72.410156 -65.941406 C 72.410156 -66.148438 73.558594 -67.191406 73.660156 -67.191406 C 73.765625 -67.296875 73.871094 -67.296875 73.871094 -67.402344 C 73.871094 -67.503906 74.703125 -68.339844 75.644531 -69.28125 L 78.355469 -71.992188 L 79.296875 -72.828125 C 80.445312 -73.976562 81.488281 -74.808594 82.738281 -75.75 C 85.136719 -77.417969 85.660156 -77.730469 85.765625 -77.730469 C 85.867188 -77.730469 88.058594 -79.296875 88.269531 -79.714844 L 89.207031 -80.652344 C 89.519531 -80.964844 89.832031 -81.382812 89.832031 -81.589844 C 89.832031 -82.007812 89.101562 -82.21875 88.6875 -82.007812 C 88.375 -81.800781 85.972656 -79.816406 85.035156 -78.984375 C 83.679688 -77.730469 80.757812 -75.644531 80.339844 -75.539062 L 79.816406 -75.332031 C 79.816406 -75.226562 79.503906 -75.121094 79.191406 -74.914062 C 78.773438 -74.808594 78.460938 -74.601562 78.460938 -74.496094 C 78.460938 -74.496094 78.148438 -74.289062 77.835938 -74.183594 L 75.851562 -73.347656 C 75.121094 -73.035156 73.976562 -72.515625 73.140625 -72.199219 C 72.410156 -71.992188 71.574219 -71.679688 71.46875 -71.574219 C 71.367188 -71.46875 71.15625 -71.367188 71.054688 -71.367188 L 69.800781 -70.949219 C 67.402344 -70.011719 59.160156 -67.296875 58.742188 -67.402344 L 56.445312 -66.777344 C 55.714844 -66.566406 51.230469 -65.523438 49.976562 -65.316406 L 46.535156 -64.6875 C 44.65625 -64.375 44.449219 -64.375 42.570312 -64.6875 C 40.484375 -65.105469 40.273438 -65 40.898438 -64.269531 C 41.421875 -63.539062 42.671875 -63.332031 45.28125 -63.644531 L 47.054688 -63.75 C 47.367188 -63.855469 47.890625 -63.855469 48.097656 -63.957031 L 48.933594 -64.167969 C 49.558594 -64.167969 54.046875 -65.316406 56.757812 -66.046875 L 62.496094 -67.609375 L 65.730469 -68.757812 C 67.402344 -69.28125 69.488281 -70.011719 70.21875 -70.324219 C 71.054688 -70.738281 71.785156 -70.949219 71.886719 -70.949219 C 71.992188 -70.949219 72.199219 -71.054688 72.515625 -71.15625 L 73.765625 -71.679688 C 74.289062 -71.886719 74.703125 -71.992188 74.703125 -72.097656 C 74.703125 -72.097656 75.019531 -72.304688 75.332031 -72.410156 L 77.105469 -73.035156 L 78.355469 -73.453125 L 77.835938 -73.035156 L 71.679688 -66.878906 L 68.964844 -63.957031 L 67.503906 -62.601562 C 67.402344 -62.496094 66.878906 -61.871094 66.359375 -61.351562 L 64.6875 -59.472656 C 64.167969 -58.949219 63.75 -58.429688 63.75 -58.324219 C 63.75 -58.21875 63.644531 -58.117188 63.539062 -58.117188 C 63.539062 -58.117188 63.4375 -58.011719 63.4375 -57.90625 C 63.332031 -57.800781 63.226562 -57.59375 63.019531 -57.488281 C 62.8125 -57.386719 62.707031 -57.175781 62.707031 -57.070312 C 62.601562 -57.070312 62.394531 -56.863281 62.183594 -56.65625 C 61.976562 -56.550781 61.765625 -56.339844 61.765625 -56.238281 L 61.246094 -55.714844 C 60.933594 -55.402344 60.410156 -54.984375 60.203125 -54.566406 L 55.195312 -48.933594 L 54.464844 -48.203125 L 53.941406 -47.472656 L 53.523438 -46.847656 C 53.316406 -46.847656 51.230469 -44.65625 50.289062 -43.507812 C 48.933594 -41.734375 48.203125 -40.796875 47.996094 -40.585938 L 46.636719 -39.023438 C 45.074219 -37.144531 44.03125 -35.996094 42.988281 -34.953125 L 41.839844 -33.699219 C 40.796875 -32.34375 39.855469 -31.40625 39.648438 -31.195312 L 29.214844 -19.824219 L 22.433594 -12.625 L 21.492188 -11.6875 C 21.074219 -11.269531 20.136719 -10.328125 19.300781 -9.597656 L 17.007812 -7.617188 C 16.378906 -7.929688 15.859375 -8.242188 15.753906 -8.347656 L 14.605469 -9.078125 C 14.605469 -8.972656 14.605469 -8.972656 14.398438 -9.078125 C 12.832031 -9.808594 11.371094 -10.226562 10.957031 -10.015625 C 10.851562 -10.015625 10.746094 -9.808594 10.746094 -9.597656 C 10.746094 -9.496094 10.640625 -9.390625 10.640625 -9.285156 L 10.640625 -8.242188 C 10.640625 -7.929688 10.539062 -7.617188 10.433594 -7.304688 L 10.640625 -6.886719 C 10.957031 -6.574219 11.371094 -5.945312 11.894531 -5.738281 C 12.3125 -5.632812 12.832031 -5.738281 13.25 -5.632812 C 13.773438 -5.53125 14.292969 -5.632812 14.816406 -5.632812 C 15.859375 -6.050781 16.484375 -6.050781 17.320312 -5.632812 C 18.257812 -5.21875 21.179688 -3.859375 22.535156 -3.027344 C 23.683594 -2.398438 24.726562 -1.878906 25.457031 -1.566406 L 32.34375 1.667969 L 37.25 3.859375 C 37.351562 3.964844 37.769531 4.070312 38.082031 4.171875 C 38.917969 4.382812 39.648438 4.589844 41.109375 5.21875 C 41.734375 5.53125 42.464844 5.84375 42.882812 5.84375 C 43.300781 5.945312 43.71875 6.15625 43.71875 6.15625 L 46.847656 7.40625 L 48.308594 7.929688 L 49.664062 8.453125 L 57.175781 11.164062 C 60.515625 12.417969 62.183594 13.042969 63.019531 13.25 L 64.375 13.667969 C 65.210938 13.980469 68.234375 14.816406 69.59375 15.128906 L 70.53125 15.441406 C 70.636719 15.441406 75.121094 16.378906 75.957031 16.484375 C 76.582031 16.589844 80.234375 16.902344 80.546875 16.902344 Z M 13.042969 -6.675781 C 12.519531 -7.09375 11.894531 -7.824219 11.894531 -7.929688 C 11.894531 -8.035156 12 -8.136719 12.207031 -8.035156 C 12.417969 -8.035156 13.460938 -7.617188 13.875 -7.40625 L 14.398438 -7.199219 C 14.921875 -6.992188 15.128906 -6.675781 14.710938 -6.78125 C 14.503906 -6.78125 14.398438 -6.78125 14.398438 -6.675781 C 14.292969 -6.46875 13.355469 -6.46875 13.042969 -6.675781 Z M 13.042969 -6.675781 "/></g></g></g><g fill="#252827" fill-opacity="1"><g transform="translate(115.542402, 268.296365)"><g><path d="M -1.042969 -28.484375 C 0.105469 -28.691406 0.835938 -28.902344 2.710938 -29.839844 L 7.40625 -31.925781 L 8.765625 -32.554688 C 8.867188 -32.65625 8.867188 -32.96875 8.660156 -33.074219 L 8.554688 -33.179688 L 8.242188 -33.179688 L 8.035156 -33.074219 C 2.296875 -30.570312 -1.148438 -29.320312 -1.773438 -29.527344 C -1.980469 -29.632812 -1.980469 -29.734375 -1.667969 -30.050781 C -1.460938 -30.464844 -1.253906 -30.570312 -0.523438 -30.777344 C 0.625 -31.09375 1.667969 -31.613281 3.441406 -32.867188 C 5.113281 -34.015625 5.84375 -34.640625 5.738281 -34.953125 C 5.53125 -35.578125 4.589844 -35.472656 2.921875 -34.847656 C 0.835938 -34.117188 -1.566406 -32.238281 -2.609375 -30.570312 C -3.128906 -29.734375 -3.234375 -29.421875 -3.027344 -29.003906 C -2.921875 -28.273438 -2.710938 -28.273438 -1.042969 -28.484375 Z M -0.207031 -31.925781 C -0.105469 -32.238281 1.667969 -33.492188 2.398438 -33.699219 C 3.027344 -34.015625 4.070312 -34.429688 4.070312 -34.222656 C 3.964844 -34.117188 2.398438 -33.074219 1.460938 -32.554688 C 0.3125 -31.925781 -0.417969 -31.71875 -0.207031 -31.925781 Z M -0.207031 -31.925781 "/></g></g></g><g fill="#252827" fill-opacity="1"><g transform="translate(123.889328, 268.296365)"><g><path d="M -1.253906 -28.378906 C 0.207031 -28.378906 2.398438 -29.945312 2.921875 -30.777344 L 3.234375 -30.882812 C 4.277344 -30.675781 5.53125 -30.570312 6.886719 -30.570312 C 8.347656 -30.570312 11.6875 -30.988281 13.875 -31.925781 L 14.816406 -32.34375 C 15.023438 -32.449219 15.128906 -32.65625 15.023438 -32.867188 C 14.921875 -33.074219 14.605469 -33.074219 14.503906 -32.96875 C 12.519531 -32.136719 10.226562 -31.300781 6.675781 -31.300781 C 5.84375 -31.300781 5.007812 -31.40625 4.382812 -31.613281 C 4.171875 -31.71875 3.964844 -31.824219 3.546875 -31.925781 L 3.546875 -32.867188 C 3.546875 -32.96875 3.546875 -33.179688 3.441406 -33.285156 C 3.339844 -33.492188 3.027344 -33.699219 2.710938 -33.699219 L 1.355469 -33.804688 L 1.148438 -33.910156 L 0.3125 -33.597656 L -1.460938 -31.824219 C -1.773438 -31.507812 -2.921875 -29.527344 -2.398438 -28.691406 C -2.085938 -28.273438 -2.085938 -28.273438 -1.253906 -28.378906 Z M 2.085938 -32.449219 C 1.878906 -32.554688 1.773438 -32.65625 1.980469 -32.65625 C 2.085938 -32.65625 2.191406 -32.554688 2.296875 -32.554688 C 2.296875 -32.449219 2.296875 -32.34375 2.085938 -32.449219 Z M -0.9375 -29.320312 C -1.042969 -29.320312 -1.460938 -29.839844 -0.523438 -31.09375 C 0.105469 -31.925781 0.417969 -32.03125 0.730469 -32.03125 L 1.148438 -31.71875 L 1.773438 -31.40625 C 1.878906 -31.300781 2.296875 -31.195312 0.9375 -30.050781 C 0 -29.214844 -0.835938 -29.320312 -0.9375 -29.320312 Z M -0.9375 -29.320312 "/></g></g></g><g fill="#252827" fill-opacity="1"><g transform="translate(138.496451, 268.296365)"><g><path d="M 6.15625 -27.960938 L 8.347656 -28.273438 C 10.328125 -28.691406 13.875 -29.945312 13.875 -29.945312 L 15.335938 -30.570312 L 16.484375 -31.09375 L 17.109375 -31.40625 C 17.945312 -31.824219 18.050781 -31.824219 18.886719 -32.136719 C 20.03125 -32.554688 20.554688 -32.761719 19.824219 -33.074219 C 19.617188 -33.179688 18.886719 -32.96875 16.695312 -32.03125 C 15.128906 -31.40625 12.9375 -30.570312 11.894531 -30.257812 C 6.886719 -28.691406 4.382812 -28.378906 4.382812 -29.734375 C 4.277344 -30.152344 4.488281 -30.675781 5.21875 -31.40625 C 6.050781 -32.34375 6.050781 -34.117188 4.488281 -32.96875 C 4.277344 -32.761719 3.757812 -32.554688 3.339844 -32.34375 L 0 -30.882812 L 0.730469 -32.03125 C 1.042969 -32.65625 1.042969 -32.65625 0.730469 -33.074219 C 0.3125 -33.597656 -0.105469 -33.492188 -0.835938 -32.449219 L -1.566406 -31.507812 C -1.773438 -30.988281 -2.609375 -29.734375 -3.027344 -29.320312 L -3.027344 -29.003906 C -3.234375 -28.691406 -2.921875 -28.273438 -2.503906 -28.273438 C -2.398438 -28.171875 -2.085938 -28.378906 -1.773438 -28.484375 C -0.835938 -29.109375 2.398438 -30.882812 3.441406 -31.40625 L 3.546875 -31.40625 L 3.339844 -30.988281 L 3.339844 -30.882812 L 3.128906 -30.570312 C 2.816406 -30.050781 3.027344 -28.796875 3.441406 -28.484375 C 4.070312 -27.960938 5.113281 -27.859375 6.15625 -27.960938 Z M 6.15625 -27.960938 "/></g></g></g><g fill="#252827" fill-opacity="1"><g transform="translate(158.111733, 268.296365)"><g><path d="M 2.296875 -28.484375 C 2.710938 -28.378906 3.128906 -28.378906 3.546875 -28.484375 L 3.859375 -28.484375 C 3.859375 -28.484375 5.738281 -28.902344 7.722656 -29.839844 L 13.667969 -32.554688 C 13.875 -32.65625 13.875 -32.96875 13.667969 -33.074219 L 13.5625 -33.179688 L 13.25 -33.179688 L 13.042969 -33.074219 C 8.453125 -31.09375 5.320312 -29.839844 3.964844 -29.527344 C 3.964844 -29.527344 2.609375 -29.109375 2.503906 -29.527344 C 2.085938 -30.464844 2.816406 -31.613281 3.339844 -32.238281 C 3.757812 -32.761719 4.800781 -34.015625 3.546875 -34.015625 C 3.339844 -34.015625 3.027344 -34.117188 3.027344 -34.222656 C 2.921875 -34.640625 2.609375 -34.535156 0.835938 -33.597656 C -0.730469 -32.761719 -2.710938 -31.507812 -3.964844 -30.464844 C -4.488281 -30.050781 -4.695312 -29.839844 -4.695312 -29.527344 C -4.695312 -29.003906 -4.382812 -28.902344 -3.757812 -28.902344 C -3.234375 -28.902344 -1.148438 -29.945312 -0.3125 -30.570312 C 0.523438 -31.300781 1.878906 -32.03125 1.878906 -31.925781 L 1.566406 -31.195312 C 1.355469 -30.882812 1.253906 -30.464844 1.253906 -30.152344 C 1.148438 -29.734375 1.148438 -29.421875 1.460938 -29.003906 C 1.667969 -28.691406 1.878906 -28.484375 2.296875 -28.484375 Z M -3.546875 -29.839844 L -2.921875 -30.257812 C -2.296875 -30.882812 -0.625 -32.03125 0.730469 -32.65625 C 1.773438 -33.285156 1.980469 -33.285156 1.980469 -33.074219 C 1.980469 -32.96875 1.667969 -32.761719 1.355469 -32.65625 C 0.523438 -32.238281 0.105469 -31.925781 -0.105469 -31.71875 C -0.3125 -31.507812 -2.085938 -30.464844 -2.921875 -30.050781 Z M -3.546875 -29.839844 "/></g></g></g><g fill="#252827" fill-opacity="1"><g transform="translate(171.466818, 268.296365)"><g><path d="M -2.816406 -28.066406 C -2.609375 -28.378906 -1.980469 -28.796875 -1.566406 -29.109375 L -0.417969 -29.945312 C 0 -30.363281 0.625 -30.675781 2.816406 -31.71875 L 3.964844 -32.34375 C 4.488281 -32.554688 4.589844 -32.554688 5.007812 -32.238281 C 5.632812 -31.925781 6.46875 -32.03125 7.929688 -32.554688 L 9.597656 -33.386719 L 10.746094 -33.910156 C 10.957031 -34.015625 11.476562 -34.117188 11.6875 -34.117188 C 12 -34.117188 12.207031 -34.222656 12.519531 -34.429688 C 13.144531 -35.058594 13.25 -35.371094 13.042969 -35.683594 C 12.832031 -36.101562 12.519531 -36.101562 11.6875 -35.472656 C 11.269531 -35.265625 10.957031 -35.058594 10.851562 -35.058594 C 10.746094 -35.058594 10.433594 -34.953125 10.121094 -34.742188 C 9.179688 -34.117188 7.09375 -33.179688 6.46875 -33.179688 C 6.261719 -33.179688 6.15625 -33.285156 6.050781 -33.597656 C 5.945312 -34.222656 5.632812 -34.328125 5.007812 -34.015625 C 4.800781 -33.804688 2.609375 -32.867188 2.085938 -32.554688 L 1.148438 -32.136719 C 0.835938 -31.925781 1.148438 -32.34375 1.980469 -33.074219 C 3.027344 -34.015625 3.234375 -34.640625 2.609375 -34.847656 C 2.296875 -34.953125 2.085938 -34.953125 1.667969 -34.640625 C 0.730469 -34.117188 -1.667969 -31.71875 -2.503906 -30.675781 L -3.441406 -29.527344 C -3.757812 -29.109375 -4.070312 -28.691406 -4.171875 -28.484375 C -4.277344 -27.648438 -3.339844 -27.441406 -2.816406 -28.066406 Z M -2.816406 -28.066406 "/></g></g></g><g fill="#252827" fill-opacity="1"><g transform="translate(187.743325, 268.296365)"><g><path d="M 2.398438 -24.832031 L 5.21875 -28.273438 C 7.929688 -31.824219 11.164062 -35.371094 12.9375 -36.832031 L 14.816406 -38.605469 L 16.277344 -39.753906 L 17.839844 -40.898438 C 18.46875 -41.316406 20.34375 -42.570312 20.867188 -43.089844 L 22.433594 -44.34375 C 23.683594 -45.175781 26.5 -47.472656 27.542969 -48.621094 C 29.421875 -50.5 30.363281 -51.542969 31.300781 -52.792969 C 32.136719 -53.941406 32.34375 -54.253906 32.238281 -54.671875 C 32.136719 -55.296875 31.613281 -55.195312 30.464844 -54.566406 C 30.050781 -54.253906 29.109375 -53.628906 28.589844 -53.105469 L 26.816406 -51.75 C 25.875 -51.125 24.101562 -49.457031 22.535156 -47.785156 C 21.285156 -46.429688 20.972656 -46.117188 19.300781 -44.550781 L 18.257812 -43.507812 L 14.191406 -39.335938 C 13.460938 -38.605469 11.789062 -37.457031 10.121094 -36.621094 C 9.179688 -36.203125 8.136719 -35.578125 7.617188 -35.265625 L 5.945312 -34.222656 L 5.21875 -33.804688 L 4.902344 -34.117188 C 4.171875 -35.058594 3.027344 -34.953125 0.9375 -33.804688 C -0.417969 -33.074219 -2.921875 -30.882812 -3.757812 -29.632812 C -4.488281 -28.589844 -4.171875 -27.960938 -3.027344 -28.378906 C -1.980469 -28.691406 -0.3125 -29.527344 0.523438 -30.050781 L 0.9375 -30.257812 C 1.042969 -30.257812 1.460938 -30.570312 1.980469 -30.882812 L 3.027344 -31.40625 L 3.964844 -31.925781 L 7.511719 -34.117188 C 8.453125 -34.640625 9.179688 -35.058594 9.285156 -35.058594 C 9.285156 -35.058594 8.867188 -34.535156 8.347656 -34.117188 C 6.992188 -32.761719 1.460938 -25.875 1.460938 -25.457031 C 1.566406 -24.9375 2.085938 -24.625 2.398438 -24.832031 Z M 18.988281 -42.359375 C 18.46875 -42.152344 19.824219 -43.71875 21.910156 -45.59375 L 23.265625 -46.953125 C 23.996094 -47.890625 24.726562 -48.621094 25.667969 -49.457031 L 26.5 -50.289062 L 27.859375 -51.4375 C 30.675781 -53.523438 31.09375 -53.628906 29.527344 -51.75 C 28.589844 -50.5 27.859375 -49.871094 25.355469 -47.472656 C 24.414062 -46.636719 23.164062 -45.59375 22.433594 -45.074219 L 20.761719 -43.71875 Z M -1.980469 -29.945312 C -2.296875 -29.945312 -1.566406 -30.777344 -0.625 -31.613281 L 0.207031 -32.34375 C 0.3125 -32.449219 0.625 -32.65625 1.148438 -32.867188 L 2.191406 -33.386719 C 2.503906 -33.492188 3.234375 -33.492188 3.441406 -33.386719 C 3.652344 -33.179688 3.128906 -32.554688 2.296875 -32.136719 C 1.773438 -31.824219 1.355469 -31.613281 1.253906 -31.507812 C 1.148438 -31.507812 0.417969 -31.195312 -0.417969 -30.777344 C -1.148438 -30.363281 -1.878906 -29.945312 -1.980469 -29.945312 Z M -1.980469 -29.945312 "/></g></g></g><g fill="#252827" fill-opacity="1"><g transform="translate(204.332848, 268.296365)"><g><path d="M -1.253906 -28.378906 C 0.207031 -28.378906 2.398438 -29.945312 2.921875 -30.777344 L 3.234375 -30.882812 C 4.277344 -30.675781 5.53125 -30.570312 6.886719 -30.570312 C 8.347656 -30.570312 11.6875 -30.988281 13.875 -31.925781 L 14.816406 -32.34375 C 15.023438 -32.449219 15.128906 -32.65625 15.023438 -32.867188 C 14.921875 -33.074219 14.605469 -33.074219 14.503906 -32.96875 C 12.519531 -32.136719 10.226562 -31.300781 6.675781 -31.300781 C 5.84375 -31.300781 5.007812 -31.40625 4.382812 -31.613281 C 4.171875 -31.71875 3.964844 -31.824219 3.546875 -31.925781 L 3.546875 -32.867188 C 3.546875 -32.96875 3.546875 -33.179688 3.441406 -33.285156 C 3.339844 -33.492188 3.027344 -33.699219 2.710938 -33.699219 L 1.355469 -33.804688 L 1.148438 -33.910156 L 0.3125 -33.597656 L -1.460938 -31.824219 C -1.773438 -31.507812 -2.921875 -29.527344 -2.398438 -28.691406 C -2.085938 -28.273438 -2.085938 -28.273438 -1.253906 -28.378906 Z M 2.085938 -32.449219 C 1.878906 -32.554688 1.773438 -32.65625 1.980469 -32.65625 C 2.085938 -32.65625 2.191406 -32.554688 2.296875 -32.554688 C 2.296875 -32.449219 2.296875 -32.34375 2.085938 -32.449219 Z M -0.9375 -29.320312 C -1.042969 -29.320312 -1.460938 -29.839844 -0.523438 -31.09375 C 0.105469 -31.925781 0.417969 -32.03125 0.730469 -32.03125 L 1.148438 -31.71875 L 1.773438 -31.40625 C 1.878906 -31.300781 2.296875 -31.195312 0.9375 -30.050781 C 0 -29.214844 -0.835938 -29.320312 -0.9375 -29.320312 Z M -0.9375 -29.320312 "/></g></g></g><g fill="#252827" fill-opacity="1"><g transform="translate(218.93997, 268.296365)"><g/></g></g><g fill="#252827" fill-opacity="1"><g transform="translate(260.67462, 268.296365)"><g><path d="M 1.667969 -26.398438 C 4.382812 -26.710938 9.179688 -27.648438 13.355469 -29.421875 C 16.066406 -30.570312 16.484375 -30.570312 20.03125 -32.238281 L 20.34375 -32.449219 C 21.804688 -33.179688 20.761719 -33.285156 20.34375 -33.179688 C 20.34375 -33.074219 13.460938 -30.363281 13.460938 -30.257812 C 9.597656 -28.796875 5.738281 -27.648438 0.835938 -27.335938 C -0.9375 -27.335938 -1.566406 -27.859375 -1.773438 -28.378906 C -1.878906 -28.691406 -2.085938 -29.632812 -1.566406 -30.363281 L -1.148438 -30.882812 C 0.207031 -32.34375 2.503906 -34.015625 3.441406 -34.117188 L 3.859375 -34.117188 L 3.339844 -33.597656 C 3.027344 -33.179688 2.816406 -32.867188 2.921875 -32.761719 L 3.027344 -32.449219 C 3.027344 -32.34375 3.234375 -32.34375 3.339844 -32.34375 C 3.757812 -32.449219 5.21875 -34.222656 5.113281 -34.640625 C 5.113281 -34.953125 4.488281 -35.371094 4.070312 -35.265625 C 2.710938 -35.058594 0.3125 -34.015625 -1.566406 -32.136719 C -2.609375 -31.09375 -3.128906 -30.363281 -3.128906 -29.214844 C -3.128906 -28.273438 -2.503906 -26.917969 -1.148438 -26.605469 C -0.3125 -26.398438 0.105469 -26.292969 1.667969 -26.398438 Z M 1.667969 -26.398438 "/></g></g></g><g fill="#252827" fill-opacity="1"><g transform="translate(281.020254, 268.296365)"><g><path d="M -1.253906 -28.378906 C 0.207031 -28.378906 2.398438 -29.945312 2.921875 -30.777344 L 3.234375 -30.882812 C 4.277344 -30.675781 5.53125 -30.570312 6.886719 -30.570312 C 8.347656 -30.570312 11.6875 -30.988281 13.875 -31.925781 L 14.816406 -32.34375 C 15.023438 -32.449219 15.128906 -32.65625 15.023438 -32.867188 C 14.921875 -33.074219 14.605469 -33.074219 14.503906 -32.96875 C 12.519531 -32.136719 10.226562 -31.300781 6.675781 -31.300781 C 5.84375 -31.300781 5.007812 -31.40625 4.382812 -31.613281 C 4.171875 -31.71875 3.964844 -31.824219 3.546875 -31.925781 L 3.546875 -32.867188 C 3.546875 -32.96875 3.546875 -33.179688 3.441406 -33.285156 C 3.339844 -33.492188 3.027344 -33.699219 2.710938 -33.699219 L 1.355469 -33.804688 L 1.148438 -33.910156 L 0.3125 -33.597656 L -1.460938 -31.824219 C -1.773438 -31.507812 -2.921875 -29.527344 -2.398438 -28.691406 C -2.085938 -28.273438 -2.085938 -28.273438 -1.253906 -28.378906 Z M 2.085938 -32.449219 C 1.878906 -32.554688 1.773438 -32.65625 1.980469 -32.65625 C 2.085938 -32.65625 2.191406 -32.554688 2.296875 -32.554688 C 2.296875 -32.449219 2.296875 -32.34375 2.085938 -32.449219 Z M -0.9375 -29.320312 C -1.042969 -29.320312 -1.460938 -29.839844 -0.523438 -31.09375 C 0.105469 -31.925781 0.417969 -32.03125 0.730469 -32.03125 L 1.148438 -31.71875 L 1.773438 -31.40625 C 1.878906 -31.300781 2.296875 -31.195312 0.9375 -30.050781 C 0 -29.214844 -0.835938 -29.320312 -0.9375 -29.320312 Z M -0.9375 -29.320312 "/></g></g></g><g fill="#252827" fill-opacity="1"><g transform="translate(295.627387, 268.296365)"><g><path d="M 0.207031 -27.335938 C 0.523438 -26.816406 0.835938 -26.816406 1.355469 -27.441406 C 1.980469 -28.171875 1.980469 -28.691406 1.460938 -28.796875 C 1.042969 -28.902344 0.835938 -28.902344 0.625 -28.796875 C 0 -28.589844 -0.207031 -27.960938 0.207031 -27.335938 Z M 0.207031 -27.335938 "/></g></g></g><g clip-path="url(#2ac15da866)"><path fill="#252827" d="M 114.34375 244.621094 C 114.882812 244.066406 115.4375 244.089844 115.96875 244.058594 C 128.234375 243.375 140.503906 242.917969 152.789062 242.800781 C 162.917969 242.703125 173.050781 242.464844 183.179688 242.371094 C 196.082031 242.253906 208.980469 242.308594 221.878906 242.515625 C 230.402344 242.652344 238.925781 242.691406 247.449219 242.777344 C 256.203125 242.863281 264.957031 242.988281 273.707031 243.359375 C 278.695312 243.566406 283.691406 243.597656 288.660156 244.136719 C 289.648438 244.242188 290.632812 244.441406 291.613281 244.601562 C 292.160156 244.691406 292.816406 244.835938 292.835938 245.453125 C 292.863281 246.292969 292.039062 246.25 291.476562 246.402344 C 290.210938 246.738281 289.007812 246.304688 287.761719 246.15625 C 285.558594 245.890625 283.316406 245.953125 281.089844 245.914062 C 276.023438 245.828125 270.960938 245.753906 265.890625 245.699219 C 256.832031 245.597656 247.773438 245.519531 238.714844 245.417969 C 232.957031 245.355469 227.195312 245.269531 221.4375 245.195312 C 209.695312 245.046875 197.949219 244.847656 186.203125 244.765625 C 174.460938 244.6875 162.71875 244.65625 150.976562 244.730469 C 140.078125 244.800781 129.179688 245.035156 118.285156 245.203125 C 117.59375 245.214844 116.90625 245.300781 116.214844 245.332031 C 115.535156 245.359375 114.816406 245.449219 114.34375 244.621094 " fill-opacity="1" fill-rule="nonzero"/></g><g fill="#252827" fill-opacity="1"><g transform="translate(112.231682, 263.479934)"><g><path d="M 2.09375 -0.828125 C 2.09375 -0.617188 2.113281 -0.46875 2.15625 -0.375 C 2.195312 -0.28125 2.28125 -0.210938 2.40625 -0.171875 C 2.539062 -0.128906 2.742188 -0.109375 3.015625 -0.109375 C 3.035156 -0.109375 3.046875 -0.0859375 3.046875 -0.046875 C 3.046875 -0.015625 3.035156 0 3.015625 0 C 2.753906 0 2.550781 -0.00390625 2.40625 -0.015625 L 0.84375 -0.015625 C 0.71875 -0.00390625 0.546875 0 0.328125 0 C 0.304688 0 0.296875 -0.015625 0.296875 -0.046875 C 0.296875 -0.0859375 0.304688 -0.109375 0.328125 -0.109375 C 0.535156 -0.109375 0.6875 -0.125 0.78125 -0.15625 C 0.875 -0.195312 0.9375 -0.265625 0.96875 -0.359375 C 1 -0.453125 1.015625 -0.59375 1.015625 -0.78125 L 1.015625 -5.265625 C 1.015625 -5.453125 1 -5.59375 0.96875 -5.6875 C 0.9375 -5.78125 0.867188 -5.84375 0.765625 -5.875 C 0.671875 -5.90625 0.523438 -5.921875 0.328125 -5.921875 C 0.304688 -5.921875 0.296875 -5.941406 0.296875 -5.984375 C 0.296875 -6.023438 0.304688 -6.046875 0.328125 -6.046875 L 0.84375 -6.03125 C 1.132812 -6.019531 1.367188 -6.015625 1.546875 -6.015625 C 1.703125 -6.015625 1.882812 -6.023438 2.09375 -6.046875 C 2.175781 -6.046875 2.28125 -6.050781 2.40625 -6.0625 C 2.539062 -6.070312 2.691406 -6.078125 2.859375 -6.078125 C 3.515625 -6.078125 4.03125 -5.9375 4.40625 -5.65625 C 4.789062 -5.382812 4.984375 -4.960938 4.984375 -4.390625 C 4.984375 -3.992188 4.878906 -3.65625 4.671875 -3.375 C 4.472656 -3.09375 4.207031 -2.878906 3.875 -2.734375 C 3.550781 -2.597656 3.21875 -2.53125 2.875 -2.53125 C 2.707031 -2.53125 2.554688 -2.546875 2.421875 -2.578125 C 2.410156 -2.578125 2.40625 -2.59375 2.40625 -2.625 C 2.40625 -2.644531 2.410156 -2.664062 2.421875 -2.6875 C 2.429688 -2.707031 2.441406 -2.710938 2.453125 -2.703125 C 2.554688 -2.679688 2.664062 -2.671875 2.78125 -2.671875 C 3.082031 -2.671875 3.332031 -2.804688 3.53125 -3.078125 C 3.726562 -3.359375 3.828125 -3.753906 3.828125 -4.265625 C 3.828125 -4.773438 3.71875 -5.164062 3.5 -5.4375 C 3.28125 -5.71875 2.960938 -5.859375 2.546875 -5.859375 C 2.367188 -5.859375 2.25 -5.816406 2.1875 -5.734375 C 2.125 -5.648438 2.09375 -5.484375 2.09375 -5.234375 Z M 2.09375 -0.828125 "/></g></g></g><g fill="#252827" fill-opacity="1"><g transform="translate(124.279241, 263.479934)"><g><path d="M 7.078125 -0.109375 C 7.097656 -0.109375 7.109375 -0.0859375 7.109375 -0.046875 C 7.109375 -0.015625 7.097656 0 7.078125 0 C 6.847656 0 6.664062 -0.00390625 6.53125 -0.015625 L 4.921875 -0.015625 C 4.804688 -0.00390625 4.648438 0 4.453125 0 C 4.429688 0 4.421875 -0.015625 4.421875 -0.046875 C 4.421875 -0.0859375 4.429688 -0.109375 4.453125 -0.109375 C 4.691406 -0.109375 4.863281 -0.125 4.96875 -0.15625 C 5.082031 -0.195312 5.15625 -0.257812 5.1875 -0.34375 C 5.226562 -0.4375 5.25 -0.582031 5.25 -0.78125 L 5.25 -3.015625 L 2.125 -3.015625 L 2.125 -0.78125 C 2.125 -0.59375 2.144531 -0.453125 2.1875 -0.359375 C 2.226562 -0.265625 2.300781 -0.195312 2.40625 -0.15625 C 2.519531 -0.125 2.695312 -0.109375 2.9375 -0.109375 C 2.945312 -0.109375 2.953125 -0.0859375 2.953125 -0.046875 C 2.953125 -0.015625 2.945312 0 2.9375 0 C 2.707031 0 2.523438 -0.00390625 2.390625 -0.015625 L 0.828125 -0.015625 C 0.691406 -0.00390625 0.515625 0 0.296875 0 C 0.273438 0 0.265625 -0.015625 0.265625 -0.046875 C 0.265625 -0.0859375 0.273438 -0.109375 0.296875 -0.109375 C 0.515625 -0.109375 0.675781 -0.125 0.78125 -0.15625 C 0.882812 -0.195312 0.953125 -0.265625 0.984375 -0.359375 C 1.023438 -0.453125 1.046875 -0.59375 1.046875 -0.78125 L 1.046875 -5.265625 C 1.046875 -5.453125 1.023438 -5.59375 0.984375 -5.6875 C 0.953125 -5.78125 0.882812 -5.84375 0.78125 -5.875 C 0.6875 -5.90625 0.53125 -5.921875 0.3125 -5.921875 C 0.289062 -5.921875 0.28125 -5.941406 0.28125 -5.984375 C 0.28125 -6.023438 0.289062 -6.046875 0.3125 -6.046875 L 0.828125 -6.03125 C 1.128906 -6.019531 1.367188 -6.015625 1.546875 -6.015625 C 1.796875 -6.015625 2.082031 -6.019531 2.40625 -6.03125 L 2.9375 -6.046875 C 2.945312 -6.046875 2.953125 -6.023438 2.953125 -5.984375 C 2.953125 -5.941406 2.945312 -5.921875 2.9375 -5.921875 C 2.695312 -5.921875 2.519531 -5.898438 2.40625 -5.859375 C 2.300781 -5.828125 2.226562 -5.765625 2.1875 -5.671875 C 2.144531 -5.578125 2.125 -5.429688 2.125 -5.234375 L 2.125 -3.28125 L 5.25 -3.28125 L 5.25 -5.234375 C 5.25 -5.429688 5.226562 -5.578125 5.1875 -5.671875 C 5.15625 -5.765625 5.082031 -5.828125 4.96875 -5.859375 C 4.863281 -5.898438 4.691406 -5.921875 4.453125 -5.921875 C 4.429688 -5.921875 4.421875 -5.941406 4.421875 -5.984375 C 4.421875 -6.023438 4.429688 -6.046875 4.453125 -6.046875 L 4.921875 -6.03125 C 5.242188 -6.019531 5.535156 -6.015625 5.796875 -6.015625 C 5.960938 -6.015625 6.207031 -6.019531 6.53125 -6.03125 L 7.078125 -6.046875 C 7.097656 -6.046875 7.109375 -6.023438 7.109375 -5.984375 C 7.109375 -5.941406 7.097656 -5.921875 7.078125 -5.921875 C 6.859375 -5.921875 6.695312 -5.90625 6.59375 -5.875 C 6.488281 -5.84375 6.414062 -5.78125 6.375 -5.6875 C 6.34375 -5.59375 6.328125 -5.453125 6.328125 -5.265625 L 6.328125 -0.78125 C 6.328125 -0.59375 6.34375 -0.453125 6.375 -0.359375 C 6.414062 -0.265625 6.484375 -0.195312 6.578125 -0.15625 C 6.679688 -0.125 6.847656 -0.109375 7.078125 -0.109375 Z M 7.078125 -0.109375 "/></g></g></g><g fill="#252827" fill-opacity="1"><g transform="translate(138.366961, 263.479934)"><g><path d="M 3.546875 0.109375 C 2.941406 0.109375 2.40625 -0.0234375 1.9375 -0.296875 C 1.46875 -0.578125 1.101562 -0.957031 0.84375 -1.4375 C 0.59375 -1.925781 0.46875 -2.453125 0.46875 -3.015625 C 0.46875 -3.679688 0.632812 -4.25 0.96875 -4.71875 C 1.3125 -5.195312 1.742188 -5.554688 2.265625 -5.796875 C 2.796875 -6.035156 3.332031 -6.15625 3.875 -6.15625 C 4.488281 -6.15625 5.023438 -6.007812 5.484375 -5.71875 C 5.953125 -5.4375 6.3125 -5.054688 6.5625 -4.578125 C 6.8125 -4.109375 6.9375 -3.609375 6.9375 -3.078125 C 6.9375 -2.492188 6.78125 -1.957031 6.46875 -1.46875 C 6.15625 -0.976562 5.738281 -0.59375 5.21875 -0.3125 C 4.707031 -0.03125 4.148438 0.109375 3.546875 0.109375 Z M 3.859375 -0.125 C 4.222656 -0.125 4.546875 -0.226562 4.828125 -0.4375 C 5.117188 -0.644531 5.34375 -0.953125 5.5 -1.359375 C 5.664062 -1.765625 5.75 -2.25 5.75 -2.8125 C 5.75 -3.394531 5.65625 -3.921875 5.46875 -4.390625 C 5.289062 -4.859375 5.03125 -5.222656 4.6875 -5.484375 C 4.34375 -5.753906 3.941406 -5.890625 3.484375 -5.890625 C 2.898438 -5.890625 2.445312 -5.664062 2.125 -5.21875 C 1.8125 -4.78125 1.65625 -4.164062 1.65625 -3.375 C 1.65625 -2.75 1.75 -2.1875 1.9375 -1.6875 C 2.132812 -1.195312 2.398438 -0.8125 2.734375 -0.53125 C 3.066406 -0.257812 3.441406 -0.125 3.859375 -0.125 Z M 3.859375 -0.125 "/></g></g></g><g fill="#252827" fill-opacity="1"><g transform="translate(152.474019, 263.479934)"><g><path d="M 2.140625 -5.828125 C 1.378906 -5.828125 0.832031 -5.328125 0.5 -4.328125 C 0.488281 -4.304688 0.46875 -4.296875 0.4375 -4.296875 C 0.40625 -4.296875 0.390625 -4.304688 0.390625 -4.328125 C 0.410156 -4.585938 0.4375 -4.921875 0.46875 -5.328125 C 0.5 -5.742188 0.515625 -6.050781 0.515625 -6.25 C 0.515625 -6.289062 0.53125 -6.3125 0.5625 -6.3125 C 0.601562 -6.3125 0.625 -6.289062 0.625 -6.25 C 0.625 -6.113281 0.8125 -6.046875 1.1875 -6.046875 C 1.738281 -6.023438 2.382812 -6.015625 3.125 -6.015625 C 3.5 -6.015625 3.898438 -6.019531 4.328125 -6.03125 L 4.984375 -6.046875 C 5.234375 -6.046875 5.414062 -6.0625 5.53125 -6.09375 C 5.644531 -6.125 5.71875 -6.1875 5.75 -6.28125 C 5.75 -6.3125 5.765625 -6.328125 5.796875 -6.328125 C 5.835938 -6.328125 5.859375 -6.3125 5.859375 -6.28125 C 5.835938 -6.09375 5.816406 -5.785156 5.796875 -5.359375 C 5.773438 -4.929688 5.765625 -4.585938 5.765625 -4.328125 C 5.765625 -4.304688 5.75 -4.296875 5.71875 -4.296875 C 5.6875 -4.296875 5.664062 -4.304688 5.65625 -4.328125 C 5.5625 -4.828125 5.378906 -5.203125 5.109375 -5.453125 C 4.847656 -5.703125 4.523438 -5.828125 4.140625 -5.828125 C 3.953125 -5.828125 3.828125 -5.785156 3.765625 -5.703125 C 3.703125 -5.617188 3.671875 -5.460938 3.671875 -5.234375 L 3.671875 -0.78125 C 3.671875 -0.582031 3.691406 -0.4375 3.734375 -0.34375 C 3.773438 -0.257812 3.847656 -0.195312 3.953125 -0.15625 C 4.066406 -0.125 4.242188 -0.109375 4.484375 -0.109375 C 4.492188 -0.109375 4.5 -0.0859375 4.5 -0.046875 C 4.5 -0.015625 4.492188 0 4.484375 0 C 4.242188 0 4.054688 -0.00390625 3.921875 -0.015625 L 2.34375 -0.015625 C 2.207031 -0.00390625 2.019531 0 1.78125 0 C 1.757812 0 1.75 -0.015625 1.75 -0.046875 C 1.75 -0.0859375 1.757812 -0.109375 1.78125 -0.109375 C 2.007812 -0.109375 2.179688 -0.125 2.296875 -0.15625 C 2.410156 -0.195312 2.488281 -0.265625 2.53125 -0.359375 C 2.570312 -0.453125 2.59375 -0.59375 2.59375 -0.78125 L 2.59375 -5.265625 C 2.59375 -5.484375 2.5625 -5.628906 2.5 -5.703125 C 2.445312 -5.785156 2.328125 -5.828125 2.140625 -5.828125 Z M 2.140625 -5.828125 "/></g></g></g><g fill="#252827" fill-opacity="1"><g transform="translate(165.391787, 263.479934)"><g><path d="M 3.546875 0.109375 C 2.941406 0.109375 2.40625 -0.0234375 1.9375 -0.296875 C 1.46875 -0.578125 1.101562 -0.957031 0.84375 -1.4375 C 0.59375 -1.925781 0.46875 -2.453125 0.46875 -3.015625 C 0.46875 -3.679688 0.632812 -4.25 0.96875 -4.71875 C 1.3125 -5.195312 1.742188 -5.554688 2.265625 -5.796875 C 2.796875 -6.035156 3.332031 -6.15625 3.875 -6.15625 C 4.488281 -6.15625 5.023438 -6.007812 5.484375 -5.71875 C 5.953125 -5.4375 6.3125 -5.054688 6.5625 -4.578125 C 6.8125 -4.109375 6.9375 -3.609375 6.9375 -3.078125 C 6.9375 -2.492188 6.78125 -1.957031 6.46875 -1.46875 C 6.15625 -0.976562 5.738281 -0.59375 5.21875 -0.3125 C 4.707031 -0.03125 4.148438 0.109375 3.546875 0.109375 Z M 3.859375 -0.125 C 4.222656 -0.125 4.546875 -0.226562 4.828125 -0.4375 C 5.117188 -0.644531 5.34375 -0.953125 5.5 -1.359375 C 5.664062 -1.765625 5.75 -2.25 5.75 -2.8125 C 5.75 -3.394531 5.65625 -3.921875 5.46875 -4.390625 C 5.289062 -4.859375 5.03125 -5.222656 4.6875 -5.484375 C 4.34375 -5.753906 3.941406 -5.890625 3.484375 -5.890625 C 2.898438 -5.890625 2.445312 -5.664062 2.125 -5.21875 C 1.8125 -4.78125 1.65625 -4.164062 1.65625 -3.375 C 1.65625 -2.75 1.75 -2.1875 1.9375 -1.6875 C 2.132812 -1.195312 2.398438 -0.8125 2.734375 -0.53125 C 3.066406 -0.257812 3.441406 -0.125 3.859375 -0.125 Z M 3.859375 -0.125 "/></g></g></g><g fill="#252827" fill-opacity="1"><g transform="translate(179.498848, 263.479934)"><g><path d="M 4.078125 0.109375 C 3.335938 0.109375 2.695312 -0.0234375 2.15625 -0.296875 C 1.613281 -0.566406 1.195312 -0.9375 0.90625 -1.40625 C 0.613281 -1.882812 0.46875 -2.410156 0.46875 -2.984375 C 0.46875 -3.585938 0.628906 -4.128906 0.953125 -4.609375 C 1.285156 -5.097656 1.738281 -5.476562 2.3125 -5.75 C 2.882812 -6.019531 3.53125 -6.15625 4.25 -6.15625 C 4.550781 -6.15625 4.859375 -6.128906 5.171875 -6.078125 C 5.484375 -6.023438 5.734375 -5.960938 5.921875 -5.890625 C 5.992188 -5.859375 6.03125 -5.832031 6.03125 -5.8125 C 6.039062 -5.800781 6.050781 -5.753906 6.0625 -5.671875 L 6.1875 -4.328125 C 6.1875 -4.304688 6.164062 -4.289062 6.125 -4.28125 C 6.09375 -4.28125 6.078125 -4.289062 6.078125 -4.3125 C 5.992188 -4.53125 5.859375 -4.765625 5.671875 -5.015625 C 5.484375 -5.265625 5.238281 -5.484375 4.9375 -5.671875 C 4.632812 -5.859375 4.28125 -5.953125 3.875 -5.953125 C 3.46875 -5.953125 3.09375 -5.835938 2.75 -5.609375 C 2.40625 -5.378906 2.132812 -5.054688 1.9375 -4.640625 C 1.738281 -4.222656 1.640625 -3.738281 1.640625 -3.1875 C 1.640625 -2.570312 1.753906 -2.023438 1.984375 -1.546875 C 2.210938 -1.078125 2.53125 -0.707031 2.9375 -0.4375 C 3.34375 -0.175781 3.800781 -0.046875 4.3125 -0.046875 C 4.570312 -0.046875 4.773438 -0.0703125 4.921875 -0.125 C 5.066406 -0.1875 5.171875 -0.300781 5.234375 -0.46875 C 5.296875 -0.632812 5.328125 -0.882812 5.328125 -1.21875 C 5.328125 -1.550781 5.304688 -1.785156 5.265625 -1.921875 C 5.234375 -2.054688 5.15625 -2.144531 5.03125 -2.1875 C 4.90625 -2.226562 4.679688 -2.25 4.359375 -2.25 C 4.316406 -2.25 4.296875 -2.273438 4.296875 -2.328125 C 4.296875 -2.347656 4.300781 -2.363281 4.3125 -2.375 C 4.320312 -2.394531 4.335938 -2.40625 4.359375 -2.40625 C 4.898438 -2.375 5.34375 -2.359375 5.6875 -2.359375 C 6.019531 -2.359375 6.363281 -2.367188 6.71875 -2.390625 C 6.738281 -2.390625 6.75 -2.363281 6.75 -2.3125 C 6.757812 -2.269531 6.75 -2.25 6.71875 -2.25 C 6.59375 -2.257812 6.503906 -2.238281 6.453125 -2.1875 C 6.410156 -2.144531 6.382812 -2.046875 6.375 -1.890625 C 6.363281 -1.742188 6.359375 -1.488281 6.359375 -1.125 C 6.359375 -0.832031 6.367188 -0.625 6.390625 -0.5 C 6.410156 -0.375 6.421875 -0.296875 6.421875 -0.265625 C 6.421875 -0.234375 6.414062 -0.207031 6.40625 -0.1875 C 6.394531 -0.175781 6.363281 -0.164062 6.3125 -0.15625 C 5.476562 0.0195312 4.734375 0.109375 4.078125 0.109375 Z M 4.078125 0.109375 "/></g></g></g><g fill="#252827" fill-opacity="1"><g transform="translate(193.267497, 263.479934)"><g><path d="M 6.84375 -0.109375 C 6.851562 -0.109375 6.859375 -0.0859375 6.859375 -0.046875 C 6.859375 -0.015625 6.851562 0 6.84375 0 L 5.125 0 C 4.976562 0 4.710938 -0.253906 4.328125 -0.765625 C 3.941406 -1.273438 3.476562 -1.992188 2.9375 -2.921875 C 2.882812 -2.910156 2.804688 -2.90625 2.703125 -2.90625 C 2.453125 -2.90625 2.273438 -2.910156 2.171875 -2.921875 L 2.171875 -0.78125 C 2.171875 -0.582031 2.1875 -0.4375 2.21875 -0.34375 C 2.25 -0.257812 2.3125 -0.195312 2.40625 -0.15625 C 2.5 -0.125 2.648438 -0.109375 2.859375 -0.109375 C 2.867188 -0.109375 2.875 -0.0859375 2.875 -0.046875 C 2.875 -0.015625 2.867188 0 2.859375 0 C 2.648438 0 2.484375 -0.00390625 2.359375 -0.015625 L 0.921875 -0.015625 C 0.785156 -0.00390625 0.609375 0 0.390625 0 C 0.378906 0 0.375 -0.015625 0.375 -0.046875 C 0.375 -0.0859375 0.378906 -0.109375 0.390625 -0.109375 C 0.597656 -0.109375 0.75 -0.125 0.84375 -0.15625 C 0.9375 -0.195312 1 -0.265625 1.03125 -0.359375 C 1.070312 -0.453125 1.09375 -0.59375 1.09375 -0.78125 L 1.09375 -5.265625 C 1.09375 -5.453125 1.078125 -5.59375 1.046875 -5.6875 C 1.015625 -5.78125 0.945312 -5.84375 0.84375 -5.875 C 0.75 -5.90625 0.601562 -5.921875 0.40625 -5.921875 C 0.394531 -5.921875 0.390625 -5.941406 0.390625 -5.984375 C 0.390625 -6.023438 0.394531 -6.046875 0.40625 -6.046875 L 0.921875 -6.03125 C 1.210938 -6.019531 1.445312 -6.015625 1.625 -6.015625 C 1.84375 -6.015625 2.070312 -6.023438 2.3125 -6.046875 C 2.394531 -6.046875 2.5 -6.050781 2.625 -6.0625 C 2.75 -6.070312 2.890625 -6.078125 3.046875 -6.078125 C 3.628906 -6.078125 4.082031 -5.96875 4.40625 -5.75 C 4.726562 -5.53125 4.890625 -5.226562 4.890625 -4.84375 C 4.890625 -4.488281 4.789062 -4.164062 4.59375 -3.875 C 4.40625 -3.59375 4.148438 -3.363281 3.828125 -3.1875 C 4.347656 -2.414062 4.78125 -1.8125 5.125 -1.375 C 5.46875 -0.9375 5.773438 -0.613281 6.046875 -0.40625 C 6.316406 -0.207031 6.582031 -0.109375 6.84375 -0.109375 Z M 2.171875 -3.1875 C 2.328125 -3.164062 2.515625 -3.15625 2.734375 -3.15625 C 3.109375 -3.15625 3.378906 -3.257812 3.546875 -3.46875 C 3.710938 -3.675781 3.796875 -4.015625 3.796875 -4.484375 C 3.796875 -5.003906 3.71875 -5.363281 3.5625 -5.5625 C 3.40625 -5.769531 3.179688 -5.875 2.890625 -5.875 C 2.628906 -5.875 2.441406 -5.820312 2.328125 -5.71875 C 2.222656 -5.625 2.171875 -5.460938 2.171875 -5.234375 Z M 2.171875 -3.1875 "/></g></g></g><g fill="#252827" fill-opacity="1"><g transform="translate(206.717061, 263.479934)"><g><path d="M 6.9375 -0.109375 C 6.96875 -0.109375 6.984375 -0.0859375 6.984375 -0.046875 C 6.984375 -0.015625 6.96875 0 6.9375 0 C 6.800781 0 6.597656 -0.00390625 6.328125 -0.015625 C 6.046875 -0.0234375 5.84375 -0.03125 5.71875 -0.03125 C 5.5625 -0.03125 5.367188 -0.0234375 5.140625 -0.015625 C 4.921875 -0.00390625 4.742188 0 4.609375 0 C 4.585938 0 4.578125 -0.015625 4.578125 -0.046875 C 4.578125 -0.0859375 4.585938 -0.109375 4.609375 -0.109375 C 4.773438 -0.109375 4.894531 -0.125 4.96875 -0.15625 C 5.050781 -0.195312 5.09375 -0.265625 5.09375 -0.359375 C 5.09375 -0.460938 5.023438 -0.644531 4.890625 -0.90625 L 4.234375 -2.21875 L 1.859375 -2.21875 L 1.484375 -1.375 C 1.398438 -1.1875 1.359375 -1.007812 1.359375 -0.84375 C 1.359375 -0.613281 1.4375 -0.429688 1.59375 -0.296875 C 1.757812 -0.171875 1.984375 -0.109375 2.265625 -0.109375 C 2.296875 -0.109375 2.3125 -0.0859375 2.3125 -0.046875 C 2.3125 -0.015625 2.296875 0 2.265625 0 C 2.148438 0 1.984375 -0.00390625 1.765625 -0.015625 C 1.515625 -0.0234375 1.300781 -0.03125 1.125 -0.03125 C 0.945312 -0.03125 0.738281 -0.0234375 0.5 -0.015625 C 0.28125 -0.00390625 0.101562 0 -0.03125 0 C -0.0625 0 -0.078125 -0.015625 -0.078125 -0.046875 C -0.078125 -0.0859375 -0.0625 -0.109375 -0.03125 -0.109375 C 0.144531 -0.109375 0.289062 -0.144531 0.40625 -0.21875 C 0.53125 -0.300781 0.65625 -0.4375 0.78125 -0.625 C 0.90625 -0.8125 1.050781 -1.09375 1.21875 -1.46875 L 3.3125 -6.078125 C 3.332031 -6.097656 3.363281 -6.109375 3.40625 -6.109375 C 3.457031 -6.109375 3.484375 -6.097656 3.484375 -6.078125 L 5.90625 -1.328125 C 6.132812 -0.867188 6.320312 -0.550781 6.46875 -0.375 C 6.613281 -0.195312 6.769531 -0.109375 6.9375 -0.109375 Z M 1.984375 -2.484375 L 4.09375 -2.484375 L 2.984375 -4.6875 Z M 1.984375 -2.484375 "/></g></g></g><g fill="#252827" fill-opacity="1"><g transform="translate(220.340664, 263.479934)"><g><path d="M 2.09375 -0.828125 C 2.09375 -0.617188 2.113281 -0.46875 2.15625 -0.375 C 2.195312 -0.28125 2.28125 -0.210938 2.40625 -0.171875 C 2.539062 -0.128906 2.742188 -0.109375 3.015625 -0.109375 C 3.035156 -0.109375 3.046875 -0.0859375 3.046875 -0.046875 C 3.046875 -0.015625 3.035156 0 3.015625 0 C 2.753906 0 2.550781 -0.00390625 2.40625 -0.015625 L 0.84375 -0.015625 C 0.71875 -0.00390625 0.546875 0 0.328125 0 C 0.304688 0 0.296875 -0.015625 0.296875 -0.046875 C 0.296875 -0.0859375 0.304688 -0.109375 0.328125 -0.109375 C 0.535156 -0.109375 0.6875 -0.125 0.78125 -0.15625 C 0.875 -0.195312 0.9375 -0.265625 0.96875 -0.359375 C 1 -0.453125 1.015625 -0.59375 1.015625 -0.78125 L 1.015625 -5.265625 C 1.015625 -5.453125 1 -5.59375 0.96875 -5.6875 C 0.9375 -5.78125 0.867188 -5.84375 0.765625 -5.875 C 0.671875 -5.90625 0.523438 -5.921875 0.328125 -5.921875 C 0.304688 -5.921875 0.296875 -5.941406 0.296875 -5.984375 C 0.296875 -6.023438 0.304688 -6.046875 0.328125 -6.046875 L 0.84375 -6.03125 C 1.132812 -6.019531 1.367188 -6.015625 1.546875 -6.015625 C 1.703125 -6.015625 1.882812 -6.023438 2.09375 -6.046875 C 2.175781 -6.046875 2.28125 -6.050781 2.40625 -6.0625 C 2.539062 -6.070312 2.691406 -6.078125 2.859375 -6.078125 C 3.515625 -6.078125 4.03125 -5.9375 4.40625 -5.65625 C 4.789062 -5.382812 4.984375 -4.960938 4.984375 -4.390625 C 4.984375 -3.992188 4.878906 -3.65625 4.671875 -3.375 C 4.472656 -3.09375 4.207031 -2.878906 3.875 -2.734375 C 3.550781 -2.597656 3.21875 -2.53125 2.875 -2.53125 C 2.707031 -2.53125 2.554688 -2.546875 2.421875 -2.578125 C 2.410156 -2.578125 2.40625 -2.59375 2.40625 -2.625 C 2.40625 -2.644531 2.410156 -2.664062 2.421875 -2.6875 C 2.429688 -2.707031 2.441406 -2.710938 2.453125 -2.703125 C 2.554688 -2.679688 2.664062 -2.671875 2.78125 -2.671875 C 3.082031 -2.671875 3.332031 -2.804688 3.53125 -3.078125 C 3.726562 -3.359375 3.828125 -3.753906 3.828125 -4.265625 C 3.828125 -4.773438 3.71875 -5.164062 3.5 -5.4375 C 3.28125 -5.71875 2.960938 -5.859375 2.546875 -5.859375 C 2.367188 -5.859375 2.25 -5.816406 2.1875 -5.734375 C 2.125 -5.648438 2.09375 -5.484375 2.09375 -5.234375 Z M 2.09375 -0.828125 "/></g></g></g><g fill="#252827" fill-opacity="1"><g transform="translate(232.388219, 263.479934)"><g><path d="M 7.078125 -0.109375 C 7.097656 -0.109375 7.109375 -0.0859375 7.109375 -0.046875 C 7.109375 -0.015625 7.097656 0 7.078125 0 C 6.847656 0 6.664062 -0.00390625 6.53125 -0.015625 L 4.921875 -0.015625 C 4.804688 -0.00390625 4.648438 0 4.453125 0 C 4.429688 0 4.421875 -0.015625 4.421875 -0.046875 C 4.421875 -0.0859375 4.429688 -0.109375 4.453125 -0.109375 C 4.691406 -0.109375 4.863281 -0.125 4.96875 -0.15625 C 5.082031 -0.195312 5.15625 -0.257812 5.1875 -0.34375 C 5.226562 -0.4375 5.25 -0.582031 5.25 -0.78125 L 5.25 -3.015625 L 2.125 -3.015625 L 2.125 -0.78125 C 2.125 -0.59375 2.144531 -0.453125 2.1875 -0.359375 C 2.226562 -0.265625 2.300781 -0.195312 2.40625 -0.15625 C 2.519531 -0.125 2.695312 -0.109375 2.9375 -0.109375 C 2.945312 -0.109375 2.953125 -0.0859375 2.953125 -0.046875 C 2.953125 -0.015625 2.945312 0 2.9375 0 C 2.707031 0 2.523438 -0.00390625 2.390625 -0.015625 L 0.828125 -0.015625 C 0.691406 -0.00390625 0.515625 0 0.296875 0 C 0.273438 0 0.265625 -0.015625 0.265625 -0.046875 C 0.265625 -0.0859375 0.273438 -0.109375 0.296875 -0.109375 C 0.515625 -0.109375 0.675781 -0.125 0.78125 -0.15625 C 0.882812 -0.195312 0.953125 -0.265625 0.984375 -0.359375 C 1.023438 -0.453125 1.046875 -0.59375 1.046875 -0.78125 L 1.046875 -5.265625 C 1.046875 -5.453125 1.023438 -5.59375 0.984375 -5.6875 C 0.953125 -5.78125 0.882812 -5.84375 0.78125 -5.875 C 0.6875 -5.90625 0.53125 -5.921875 0.3125 -5.921875 C 0.289062 -5.921875 0.28125 -5.941406 0.28125 -5.984375 C 0.28125 -6.023438 0.289062 -6.046875 0.3125 -6.046875 L 0.828125 -6.03125 C 1.128906 -6.019531 1.367188 -6.015625 1.546875 -6.015625 C 1.796875 -6.015625 2.082031 -6.019531 2.40625 -6.03125 L 2.9375 -6.046875 C 2.945312 -6.046875 2.953125 -6.023438 2.953125 -5.984375 C 2.953125 -5.941406 2.945312 -5.921875 2.9375 -5.921875 C 2.695312 -5.921875 2.519531 -5.898438 2.40625 -5.859375 C 2.300781 -5.828125 2.226562 -5.765625 2.1875 -5.671875 C 2.144531 -5.578125 2.125 -5.429688 2.125 -5.234375 L 2.125 -3.28125 L 5.25 -3.28125 L 5.25 -5.234375 C 5.25 -5.429688 5.226562 -5.578125 5.1875 -5.671875 C 5.15625 -5.765625 5.082031 -5.828125 4.96875 -5.859375 C 4.863281 -5.898438 4.691406 -5.921875 4.453125 -5.921875 C 4.429688 -5.921875 4.421875 -5.941406 4.421875 -5.984375 C 4.421875 -6.023438 4.429688 -6.046875 4.453125 -6.046875 L 4.921875 -6.03125 C 5.242188 -6.019531 5.535156 -6.015625 5.796875 -6.015625 C 5.960938 -6.015625 6.207031 -6.019531 6.53125 -6.03125 L 7.078125 -6.046875 C 7.097656 -6.046875 7.109375 -6.023438 7.109375 -5.984375 C 7.109375 -5.941406 7.097656 -5.921875 7.078125 -5.921875 C 6.859375 -5.921875 6.695312 -5.90625 6.59375 -5.875 C 6.488281 -5.84375 6.414062 -5.78125 6.375 -5.6875 C 6.34375 -5.59375 6.328125 -5.453125 6.328125 -5.265625 L 6.328125 -0.78125 C 6.328125 -0.59375 6.34375 -0.453125 6.375 -0.359375 C 6.414062 -0.265625 6.484375 -0.195312 6.578125 -0.15625 C 6.679688 -0.125 6.847656 -0.109375 7.078125 -0.109375 Z M 7.078125 -0.109375 "/></g></g></g><g fill="#252827" fill-opacity="1"><g transform="translate(246.475934, 263.479934)"><g><path d="M 4.796875 -1.53125 C 4.796875 -1.550781 4.8125 -1.5625 4.84375 -1.5625 C 4.851562 -1.5625 4.863281 -1.554688 4.875 -1.546875 C 4.894531 -1.535156 4.90625 -1.523438 4.90625 -1.515625 C 4.84375 -1.015625 4.8125 -0.554688 4.8125 -0.140625 C 4.8125 -0.0859375 4.800781 -0.0507812 4.78125 -0.03125 C 4.769531 -0.0078125 4.734375 0 4.671875 0 L 0.390625 0 C 0.378906 0 0.375 -0.015625 0.375 -0.046875 C 0.375 -0.0859375 0.378906 -0.109375 0.390625 -0.109375 C 0.597656 -0.109375 0.75 -0.125 0.84375 -0.15625 C 0.9375 -0.195312 1 -0.265625 1.03125 -0.359375 C 1.0625 -0.453125 1.078125 -0.59375 1.078125 -0.78125 L 1.078125 -5.265625 C 1.078125 -5.453125 1.0625 -5.59375 1.03125 -5.6875 C 1 -5.78125 0.9375 -5.84375 0.84375 -5.875 C 0.75 -5.90625 0.597656 -5.921875 0.390625 -5.921875 C 0.378906 -5.921875 0.375 -5.941406 0.375 -5.984375 C 0.375 -6.023438 0.378906 -6.046875 0.390625 -6.046875 L 4.5 -6.046875 C 4.5625 -6.046875 4.59375 -6.015625 4.59375 -5.953125 L 4.609375 -4.671875 C 4.609375 -4.660156 4.585938 -4.648438 4.546875 -4.640625 C 4.515625 -4.640625 4.5 -4.644531 4.5 -4.65625 C 4.394531 -5.03125 4.21875 -5.304688 3.96875 -5.484375 C 3.726562 -5.671875 3.410156 -5.765625 3.015625 -5.765625 L 2.71875 -5.765625 C 2.519531 -5.765625 2.375 -5.722656 2.28125 -5.640625 C 2.195312 -5.554688 2.15625 -5.425781 2.15625 -5.25 L 2.15625 -3.28125 L 2.953125 -3.28125 C 3.328125 -3.28125 3.613281 -3.34375 3.8125 -3.46875 C 4.019531 -3.601562 4.125 -3.785156 4.125 -4.015625 C 4.125 -4.035156 4.140625 -4.046875 4.171875 -4.046875 C 4.210938 -4.046875 4.234375 -4.035156 4.234375 -4.015625 L 4.21875 -3.140625 L 4.234375 -2.671875 C 4.242188 -2.453125 4.25 -2.28125 4.25 -2.15625 C 4.25 -2.144531 4.226562 -2.140625 4.1875 -2.140625 C 4.144531 -2.140625 4.125 -2.144531 4.125 -2.15625 C 4.125 -2.414062 4.019531 -2.625 3.8125 -2.78125 C 3.613281 -2.9375 3.328125 -3.015625 2.953125 -3.015625 L 2.15625 -3.015625 L 2.15625 -0.828125 C 2.15625 -0.640625 2.191406 -0.5 2.265625 -0.40625 C 2.335938 -0.3125 2.453125 -0.265625 2.609375 -0.265625 L 2.921875 -0.265625 C 3.421875 -0.265625 3.820312 -0.367188 4.125 -0.578125 C 4.425781 -0.785156 4.648438 -1.101562 4.796875 -1.53125 Z M 4.796875 -1.53125 "/></g></g></g><g fill="#252827" fill-opacity="1"><g transform="translate(258.513826, 263.479934)"><g><path d="M 6.84375 -0.109375 C 6.851562 -0.109375 6.859375 -0.0859375 6.859375 -0.046875 C 6.859375 -0.015625 6.851562 0 6.84375 0 L 5.125 0 C 4.976562 0 4.710938 -0.253906 4.328125 -0.765625 C 3.941406 -1.273438 3.476562 -1.992188 2.9375 -2.921875 C 2.882812 -2.910156 2.804688 -2.90625 2.703125 -2.90625 C 2.453125 -2.90625 2.273438 -2.910156 2.171875 -2.921875 L 2.171875 -0.78125 C 2.171875 -0.582031 2.1875 -0.4375 2.21875 -0.34375 C 2.25 -0.257812 2.3125 -0.195312 2.40625 -0.15625 C 2.5 -0.125 2.648438 -0.109375 2.859375 -0.109375 C 2.867188 -0.109375 2.875 -0.0859375 2.875 -0.046875 C 2.875 -0.015625 2.867188 0 2.859375 0 C 2.648438 0 2.484375 -0.00390625 2.359375 -0.015625 L 0.921875 -0.015625 C 0.785156 -0.00390625 0.609375 0 0.390625 0 C 0.378906 0 0.375 -0.015625 0.375 -0.046875 C 0.375 -0.0859375 0.378906 -0.109375 0.390625 -0.109375 C 0.597656 -0.109375 0.75 -0.125 0.84375 -0.15625 C 0.9375 -0.195312 1 -0.265625 1.03125 -0.359375 C 1.070312 -0.453125 1.09375 -0.59375 1.09375 -0.78125 L 1.09375 -5.265625 C 1.09375 -5.453125 1.078125 -5.59375 1.046875 -5.6875 C 1.015625 -5.78125 0.945312 -5.84375 0.84375 -5.875 C 0.75 -5.90625 0.601562 -5.921875 0.40625 -5.921875 C 0.394531 -5.921875 0.390625 -5.941406 0.390625 -5.984375 C 0.390625 -6.023438 0.394531 -6.046875 0.40625 -6.046875 L 0.921875 -6.03125 C 1.210938 -6.019531 1.445312 -6.015625 1.625 -6.015625 C 1.84375 -6.015625 2.070312 -6.023438 2.3125 -6.046875 C 2.394531 -6.046875 2.5 -6.050781 2.625 -6.0625 C 2.75 -6.070312 2.890625 -6.078125 3.046875 -6.078125 C 3.628906 -6.078125 4.082031 -5.96875 4.40625 -5.75 C 4.726562 -5.53125 4.890625 -5.226562 4.890625 -4.84375 C 4.890625 -4.488281 4.789062 -4.164062 4.59375 -3.875 C 4.40625 -3.59375 4.148438 -3.363281 3.828125 -3.1875 C 4.347656 -2.414062 4.78125 -1.8125 5.125 -1.375 C 5.46875 -0.9375 5.773438 -0.613281 6.046875 -0.40625 C 6.316406 -0.207031 6.582031 -0.109375 6.84375 -0.109375 Z M 2.171875 -3.1875 C 2.328125 -3.164062 2.515625 -3.15625 2.734375 -3.15625 C 3.109375 -3.15625 3.378906 -3.257812 3.546875 -3.46875 C 3.710938 -3.675781 3.796875 -4.015625 3.796875 -4.484375 C 3.796875 -5.003906 3.71875 -5.363281 3.5625 -5.5625 C 3.40625 -5.769531 3.179688 -5.875 2.890625 -5.875 C 2.628906 -5.875 2.441406 -5.820312 2.328125 -5.71875 C 2.222656 -5.625 2.171875 -5.460938 2.171875 -5.234375 Z M 2.171875 -3.1875 "/></g></g></g></svg>