<svg xmlns="http://www.w3.org/2000/svg" xmlns:xlink="http://www.w3.org/1999/xlink" width="500" zoomAndPan="magnify" viewBox="0 0 375 374.999991" height="500" preserveAspectRatio="xMidYMid meet" version="1.0"><defs><g/><clipPath id="ba58eefcb6"><path d="M 132.539062 100.761719 L 242.789062 100.761719 L 242.789062 212.511719 L 132.539062 212.511719 Z M 132.539062 100.761719 " clip-rule="nonzero"/></clipPath></defs><rect x="-37.5" width="450" fill="#ffffff" y="-37.499999" height="449.999989" fill-opacity="1"/><rect x="-37.5" width="450" fill="#005aad" y="-37.499999" height="449.999989" fill-opacity="1"/><g clip-path="url(#ba58eefcb6)"><path fill="#ffffff" d="M 209.652344 167.773438 L 212.058594 174.921875 L 208.160156 175.890625 L 205.828125 169.28125 Z M 237.445312 156.773438 L 238.082031 158.058594 L 229.546875 170.566406 L 215.914062 173.957031 L 213.351562 166.308594 Z M 200.597656 117.78125 L 195.445312 112.648438 L 202.585938 105.535156 L 207.738281 110.667969 Z M 192.640625 109.855469 L 187.484375 104.722656 L 197.792969 104.722656 Z M 190.648438 199.015625 L 182.691406 206.941406 L 173.558594 197.847656 L 170.753906 197.847656 L 170.753906 133.632812 L 165.855469 128.738281 L 148.035156 185.566406 L 139.8125 182.847656 L 160.386719 116.277344 L 174.117188 112.867188 L 184.679688 123.367188 L 190.648438 117.425781 Z M 145.589844 193.351562 L 137.402344 190.636719 L 138.640625 186.632812 L 146.839844 189.351562 Z M 182.691406 105.535156 L 189.832031 112.648438 L 184.679688 117.78125 L 177.539062 110.667969 Z M 205.609375 180.613281 L 231.972656 174.046875 L 242.695312 158.382812 L 240.25 153.523438 L 228.03125 112.980469 L 211.5625 108.886719 L 203.402344 100.761719 L 181.875 100.761719 L 173.714844 108.886719 L 157.246094 112.980469 L 132.476562 193.171875 L 148.167969 198.382812 L 166.773438 139.105469 L 166.773438 201.8125 L 171.925781 201.8125 L 182.691406 212.53125 L 191.464844 203.792969 L 193.8125 203.792969 L 202.585938 212.53125 L 213.351562 201.8125 L 218.503906 201.8125 L 218.503906 180.015625 L 214.523438 180.015625 L 214.523438 197.847656 L 211.71875 197.847656 L 202.585938 206.941406 L 194.628906 199.015625 L 194.628906 117.425781 L 200.597656 123.367188 L 211.160156 112.867188 L 224.890625 116.277344 L 235.972656 153.089844 L 227.929688 156.261719 L 219.4375 128.738281 L 214.523438 133.632812 L 214.523438 158.222656 L 218.503906 158.222656 L 218.503906 139.195312 L 224.230469 157.75 L 200.816406 167.019531 L 205.609375 180.613281 " fill-opacity="1" fill-rule="nonzero"/></g><path fill="#ffffff" d="M 198.609375 132.464844 L 198.609375 136.425781 L 210.546875 136.425781 L 210.546875 132.464844 L 198.609375 132.464844 " fill-opacity="1" fill-rule="nonzero"/><path fill="#ffffff" d="M 186.667969 132.464844 L 182.691406 132.464844 L 182.691406 136.425781 L 186.667969 136.425781 L 186.667969 132.464844 " fill-opacity="1" fill-rule="nonzero"/><path fill="#ffffff" d="M 186.667969 146.332031 L 182.691406 146.332031 L 182.691406 150.296875 L 186.667969 150.296875 L 186.667969 146.332031 " fill-opacity="1" fill-rule="nonzero"/><path fill="#ffffff" d="M 186.667969 160.203125 L 182.691406 160.203125 L 182.691406 164.164062 L 186.667969 164.164062 L 186.667969 160.203125 " fill-opacity="1" fill-rule="nonzero"/><path fill="#ffffff" d="M 186.667969 174.070312 L 182.691406 174.070312 L 182.691406 178.035156 L 186.667969 178.035156 L 186.667969 174.070312 " fill-opacity="1" fill-rule="nonzero"/><path fill="#ffffff" d="M 186.667969 187.941406 L 182.691406 187.941406 L 182.691406 191.90625 L 186.667969 191.90625 L 186.667969 187.941406 " fill-opacity="1" fill-rule="nonzero"/><g fill="#000000" fill-opacity="1"><g transform="translate(76.617187, 246.339301)"><g><path d="M 22.074219 -7.410156 C 22.074219 -8.320312 21.769531 -8.699219 20.933594 -8.699219 L 17.210938 -8.699219 C 16.375 -8.699219 16.300781 -8.09375 16.1875 -7.332031 C 15.882812 -5.507812 14.25 -4.75 12.195312 -4.75 C 9.6875 -4.75 7.980469 -6.117188 7.980469 -8.550781 L 7.980469 -16.453125 C 7.980469 -18.84375 9.6875 -20.25 12.195312 -20.25 C 14.25 -20.25 15.3125 -19.679688 16.109375 -18.425781 C 16.414062 -17.972656 16.453125 -17.25 17.25 -17.25 L 20.898438 -17.25 C 21.769531 -17.25 22.074219 -17.441406 22.074219 -18.351562 C 21.582031 -23.175781 16.90625 -25.570312 12.195312 -25.570312 C 7.675781 -25.570312 2.015625 -22.949219 2.015625 -16.984375 L 2.015625 -8.015625 C 2.015625 -2.050781 7.675781 0.570312 12.195312 0.570312 C 16.90625 0.570312 22.074219 -2.507812 22.074219 -7.410156 Z M 22.074219 -7.410156 "/></g></g></g><g fill="#000000" fill-opacity="1"><g transform="translate(100.628286, 246.339301)"><g><path d="M 22.453125 -8.015625 L 22.453125 -16.984375 C 22.453125 -22.988281 16.753906 -25.570312 12.234375 -25.570312 C 7.714844 -25.570312 2.089844 -22.988281 2.089844 -16.984375 L 2.089844 -8.015625 C 2.089844 -2.015625 7.714844 0.570312 12.234375 0.570312 C 16.753906 0.570312 22.453125 -2.015625 22.453125 -8.015625 Z M 16.488281 -16.453125 L 16.488281 -8.550781 C 16.488281 -6.117188 14.742188 -4.710938 12.234375 -4.710938 C 9.765625 -4.710938 8.015625 -6.117188 8.015625 -8.550781 L 8.015625 -16.453125 C 8.015625 -18.882812 9.765625 -20.289062 12.234375 -20.289062 C 14.742188 -20.289062 16.488281 -18.882812 16.488281 -16.453125 Z M 16.488281 -16.453125 "/></g></g></g><g fill="#000000" fill-opacity="1"><g transform="translate(125.133278, 246.339301)"><g><path d="M 19.074219 -5.320312 L 8.511719 -5.320312 L 18.695312 -19.453125 C 19.074219 -19.949219 19.1875 -20.441406 19.1875 -20.933594 L 19.1875 -23.898438 C 19.1875 -24.582031 18.960938 -25 18.085938 -25 L 2.8125 -25 C 1.9375 -25 1.710938 -24.582031 1.710938 -23.898438 L 1.710938 -20.785156 C 1.710938 -20.097656 1.9375 -19.679688 2.8125 -19.679688 L 12.121094 -19.679688 L 1.863281 -5.507812 C 1.863281 -5.507812 1.367188 -4.9375 1.367188 -4.066406 L 1.367188 -1.101562 C 1.367188 -0.191406 1.519531 0 2.507812 0 L 19.074219 0 C 19.949219 0 20.175781 -0.417969 20.175781 -1.101562 L 20.175781 -4.21875 C 20.175781 -4.902344 19.949219 -5.320312 19.074219 -5.320312 Z M 19.074219 -5.320312 "/></g></g></g><g fill="#000000" fill-opacity="1"><g transform="translate(146.67488, 246.339301)"><g><path d="M 21.847656 -25 L 17.742188 -25 C 16.871094 -25 16.488281 -24.886719 15.996094 -23.859375 L 11.703125 -15.691406 L 7.257812 -23.859375 C 6.726562 -24.886719 6.34375 -25 5.472656 -25 L 1.101562 -25 C 0.378906 -25 0.304688 -24.355469 0.492188 -23.9375 L 8.625 -9.382812 L 8.625 -1.101562 C 8.625 -0.226562 9.003906 0 9.726562 0 L 13.527344 0 C 14.210938 0 14.628906 -0.226562 14.628906 -1.101562 L 14.628906 -9.382812 L 22.453125 -23.9375 C 22.644531 -24.355469 22.570312 -25 21.847656 -25 Z M 21.847656 -25 "/></g></g></g><g fill="#000000" fill-opacity="1"><g transform="translate(169.622193, 246.339301)"><g/></g></g><g fill="#000000" fill-opacity="1"><g transform="translate(179.918087, 246.339301)"><g><path d="M 22.074219 -7.410156 C 22.074219 -8.320312 21.769531 -8.699219 20.933594 -8.699219 L 17.210938 -8.699219 C 16.375 -8.699219 16.300781 -8.09375 16.1875 -7.332031 C 15.882812 -5.507812 14.25 -4.75 12.195312 -4.75 C 9.6875 -4.75 7.980469 -6.117188 7.980469 -8.550781 L 7.980469 -16.453125 C 7.980469 -18.84375 9.6875 -20.25 12.195312 -20.25 C 14.25 -20.25 15.3125 -19.679688 16.109375 -18.425781 C 16.414062 -17.972656 16.453125 -17.25 17.25 -17.25 L 20.898438 -17.25 C 21.769531 -17.25 22.074219 -17.441406 22.074219 -18.351562 C 21.582031 -23.175781 16.90625 -25.570312 12.195312 -25.570312 C 7.675781 -25.570312 2.015625 -22.949219 2.015625 -16.984375 L 2.015625 -8.015625 C 2.015625 -2.050781 7.675781 0.570312 12.195312 0.570312 C 16.90625 0.570312 22.074219 -2.507812 22.074219 -7.410156 Z M 22.074219 -7.410156 "/></g></g></g><g fill="#000000" fill-opacity="1"><g transform="translate(203.929186, 246.339301)"><g><path d="M 19.71875 -5.320312 L 8.777344 -5.320312 L 8.777344 -23.898438 C 8.777344 -24.773438 8.359375 -25 7.675781 -25 L 3.914062 -25 C 3.230469 -25 2.8125 -24.773438 2.8125 -23.898438 L 2.8125 -1.101562 C 2.8125 -0.417969 3.039062 0 3.914062 0 L 19.71875 0 C 20.59375 0 20.820312 -0.417969 20.820312 -1.101562 L 20.820312 -4.21875 C 20.820312 -4.902344 20.59375 -5.320312 19.71875 -5.320312 Z M 19.71875 -5.320312 "/></g></g></g><g fill="#000000" fill-opacity="1"><g transform="translate(226.040669, 246.339301)"><g><path d="M 22.453125 -8.015625 L 22.453125 -16.984375 C 22.453125 -22.988281 16.753906 -25.570312 12.234375 -25.570312 C 7.714844 -25.570312 2.089844 -22.988281 2.089844 -16.984375 L 2.089844 -8.015625 C 2.089844 -2.015625 7.714844 0.570312 12.234375 0.570312 C 16.753906 0.570312 22.453125 -2.015625 22.453125 -8.015625 Z M 16.488281 -16.453125 L 16.488281 -8.550781 C 16.488281 -6.117188 14.742188 -4.710938 12.234375 -4.710938 C 9.765625 -4.710938 8.015625 -6.117188 8.015625 -8.550781 L 8.015625 -16.453125 C 8.015625 -18.882812 9.765625 -20.289062 12.234375 -20.289062 C 14.742188 -20.289062 16.488281 -18.882812 16.488281 -16.453125 Z M 16.488281 -16.453125 "/></g></g></g><g fill="#000000" fill-opacity="1"><g transform="translate(250.545661, 246.339301)"><g><path d="M 19.71875 -25 L 2.089844 -25 C 1.214844 -25 0.988281 -24.582031 0.988281 -23.898438 L 0.988281 -20.746094 C 0.988281 -20.0625 1.214844 -19.644531 2.089844 -19.644531 L 7.941406 -19.644531 L 7.941406 -1.101562 C 7.941406 -0.226562 8.359375 0 9.042969 0 L 12.804688 0 C 13.488281 0 13.90625 -0.226562 13.90625 -1.101562 L 13.90625 -19.644531 L 19.71875 -19.644531 C 20.59375 -19.644531 20.820312 -20.0625 20.820312 -20.746094 L 20.820312 -23.898438 C 20.820312 -24.582031 20.59375 -25 19.71875 -25 Z M 19.71875 -25 "/></g></g></g><g fill="#000000" fill-opacity="1"><g transform="translate(272.353212, 246.339301)"><g><path d="M 22.113281 -25 L 18.351562 -25 C 17.667969 -25 17.25 -24.773438 17.25 -23.898438 L 17.25 -15.3125 L 8.777344 -15.3125 L 8.777344 -23.898438 C 8.777344 -24.773438 8.398438 -25 7.675781 -25 L 3.914062 -25 C 3.230469 -25 2.8125 -24.773438 2.8125 -23.898438 L 2.8125 -1.101562 C 2.8125 -0.226562 3.230469 0 3.914062 0 L 7.675781 0 C 8.398438 0 8.777344 -0.226562 8.777344 -1.101562 L 8.777344 -9.6875 L 17.25 -9.6875 L 17.25 -1.101562 C 17.25 -0.226562 17.667969 0 18.351562 0 L 22.113281 0 C 22.796875 0 23.214844 -0.226562 23.214844 -1.101562 L 23.214844 -23.898438 C 23.214844 -24.773438 22.796875 -25 22.113281 -25 Z M 22.113281 -25 "/></g></g></g><g fill="#000000" fill-opacity="1"><g transform="translate(116.655479, 270.389161)"><g><path d="M 8.59375 -2.71875 C 8.59375 -1.851562 8.28125 -1.179688 7.65625 -0.703125 C 7.039062 -0.234375 6.175781 0 5.0625 0 L 1.15625 0 L 1.15625 -9.625 L 4.65625 -9.625 C 6.914062 -9.625 8.046875 -8.847656 8.046875 -7.296875 C 8.046875 -6.722656 7.882812 -6.242188 7.5625 -5.859375 C 7.238281 -5.472656 6.785156 -5.210938 6.203125 -5.078125 C 6.972656 -4.984375 7.5625 -4.722656 7.96875 -4.296875 C 8.382812 -3.878906 8.59375 -3.351562 8.59375 -2.71875 Z M 6.734375 -7.140625 C 6.734375 -7.660156 6.550781 -8.03125 6.1875 -8.25 C 5.832031 -8.476562 5.320312 -8.59375 4.65625 -8.59375 L 2.453125 -8.59375 L 2.453125 -5.53125 L 4.65625 -5.53125 C 5.34375 -5.53125 5.859375 -5.660156 6.203125 -5.921875 C 6.554688 -6.191406 6.734375 -6.597656 6.734375 -7.140625 Z M 7.28125 -2.8125 C 7.28125 -3.945312 6.484375 -4.515625 4.890625 -4.515625 L 2.453125 -4.515625 L 2.453125 -1.046875 L 4.984375 -1.046875 C 5.785156 -1.046875 6.367188 -1.191406 6.734375 -1.484375 C 7.097656 -1.785156 7.28125 -2.226562 7.28125 -2.8125 Z M 7.28125 -2.8125 "/></g></g></g><g fill="#000000" fill-opacity="1"><g transform="translate(128.088184, 270.389161)"><g><path d="M 1.890625 -3.4375 C 1.890625 -2.59375 2.0625 -1.9375 2.40625 -1.46875 C 2.757812 -1.007812 3.273438 -0.78125 3.953125 -0.78125 C 4.484375 -0.78125 4.910156 -0.882812 5.234375 -1.09375 C 5.554688 -1.3125 5.773438 -1.585938 5.890625 -1.921875 L 6.96875 -1.609375 C 6.519531 -0.441406 5.515625 0.140625 3.953125 0.140625 C 2.859375 0.140625 2.023438 -0.179688 1.453125 -0.828125 C 0.878906 -1.484375 0.59375 -2.457031 0.59375 -3.75 C 0.59375 -4.96875 0.878906 -5.898438 1.453125 -6.546875 C 2.023438 -7.203125 2.84375 -7.53125 3.90625 -7.53125 C 6.082031 -7.53125 7.171875 -6.222656 7.171875 -3.609375 L 7.171875 -3.4375 Z M 5.890625 -4.375 C 5.828125 -5.15625 5.628906 -5.722656 5.296875 -6.078125 C 4.972656 -6.441406 4.503906 -6.625 3.890625 -6.625 C 3.285156 -6.625 2.804688 -6.421875 2.453125 -6.015625 C 2.109375 -5.617188 1.925781 -5.070312 1.90625 -4.375 Z M 5.890625 -4.375 "/></g></g></g><g fill="#000000" fill-opacity="1"><g transform="translate(137.969998, 270.389161)"><g><path d="M 6.5 -2.046875 C 6.5 -1.347656 6.234375 -0.804688 5.703125 -0.421875 C 5.179688 -0.046875 4.445312 0.140625 3.5 0.140625 C 2.570312 0.140625 1.859375 -0.0078125 1.359375 -0.3125 C 0.859375 -0.613281 0.535156 -1.085938 0.390625 -1.734375 L 1.484375 -1.953125 C 1.585938 -1.554688 1.800781 -1.265625 2.125 -1.078125 C 2.457031 -0.890625 2.914062 -0.796875 3.5 -0.796875 C 4.125 -0.796875 4.578125 -0.890625 4.859375 -1.078125 C 5.148438 -1.273438 5.296875 -1.566406 5.296875 -1.953125 C 5.296875 -2.242188 5.195312 -2.476562 5 -2.65625 C 4.800781 -2.84375 4.476562 -2.992188 4.03125 -3.109375 L 3.140625 -3.34375 C 2.429688 -3.519531 1.925781 -3.695312 1.625 -3.875 C 1.332031 -4.050781 1.101562 -4.265625 0.9375 -4.515625 C 0.769531 -4.765625 0.6875 -5.070312 0.6875 -5.4375 C 0.6875 -6.113281 0.925781 -6.628906 1.40625 -6.984375 C 1.882812 -7.335938 2.582031 -7.515625 3.5 -7.515625 C 4.320312 -7.515625 4.972656 -7.367188 5.453125 -7.078125 C 5.929688 -6.796875 6.234375 -6.335938 6.359375 -5.703125 L 5.25 -5.5625 C 5.1875 -5.894531 5.003906 -6.144531 4.703125 -6.3125 C 4.410156 -6.488281 4.007812 -6.578125 3.5 -6.578125 C 2.945312 -6.578125 2.535156 -6.492188 2.265625 -6.328125 C 2.003906 -6.160156 1.875 -5.90625 1.875 -5.5625 C 1.875 -5.351562 1.925781 -5.179688 2.03125 -5.046875 C 2.144531 -4.910156 2.304688 -4.789062 2.515625 -4.6875 C 2.734375 -4.59375 3.191406 -4.460938 3.890625 -4.296875 C 4.535156 -4.128906 5 -3.976562 5.28125 -3.84375 C 5.570312 -3.707031 5.800781 -3.550781 5.96875 -3.375 C 6.132812 -3.207031 6.265625 -3.015625 6.359375 -2.796875 C 6.453125 -2.578125 6.5 -2.328125 6.5 -2.046875 Z M 6.5 -2.046875 "/></g></g></g><g fill="#000000" fill-opacity="1"><g transform="translate(147.066119, 270.389161)"><g><path d="M 3.78125 -0.0625 C 3.375 0.0507812 2.960938 0.109375 2.546875 0.109375 C 1.554688 0.109375 1.0625 -0.445312 1.0625 -1.5625 L 1.0625 -6.5 L 0.21875 -6.5 L 0.21875 -7.390625 L 1.109375 -7.390625 L 1.484375 -9.046875 L 2.296875 -9.046875 L 2.296875 -7.390625 L 3.671875 -7.390625 L 3.671875 -6.5 L 2.296875 -6.5 L 2.296875 -1.828125 C 2.296875 -1.472656 2.351562 -1.222656 2.46875 -1.078125 C 2.582031 -0.941406 2.785156 -0.875 3.078125 -0.875 C 3.242188 -0.875 3.476562 -0.90625 3.78125 -0.96875 Z M 3.78125 -0.0625 "/></g></g></g><g fill="#000000" fill-opacity="1"><g transform="translate(153.053622, 270.389161)"><g/></g></g><g fill="#000000" fill-opacity="1"><g transform="translate(159.041125, 270.389161)"><g><path d="M 2.453125 -8.5625 L 2.453125 -4.984375 L 7.828125 -4.984375 L 7.828125 -3.90625 L 2.453125 -3.90625 L 2.453125 0 L 1.15625 0 L 1.15625 -9.625 L 7.984375 -9.625 L 7.984375 -8.5625 Z M 2.453125 -8.5625 "/></g></g></g><g fill="#000000" fill-opacity="1"><g transform="translate(169.688135, 270.389161)"><g><path d="M 7.203125 -3.703125 C 7.203125 -2.410156 6.914062 -1.445312 6.34375 -0.8125 C 5.769531 -0.175781 4.941406 0.140625 3.859375 0.140625 C 2.785156 0.140625 1.972656 -0.1875 1.421875 -0.84375 C 0.867188 -1.507812 0.59375 -2.460938 0.59375 -3.703125 C 0.59375 -6.253906 1.695312 -7.53125 3.90625 -7.53125 C 5.03125 -7.53125 5.859375 -7.21875 6.390625 -6.59375 C 6.929688 -5.976562 7.203125 -5.015625 7.203125 -3.703125 Z M 5.90625 -3.703125 C 5.90625 -4.722656 5.753906 -5.460938 5.453125 -5.921875 C 5.148438 -6.390625 4.640625 -6.625 3.921875 -6.625 C 3.203125 -6.625 2.679688 -6.382812 2.359375 -5.90625 C 2.035156 -5.4375 1.875 -4.703125 1.875 -3.703125 C 1.875 -2.734375 2.03125 -2 2.34375 -1.5 C 2.664062 -1.007812 3.164062 -0.765625 3.84375 -0.765625 C 4.582031 -0.765625 5.109375 -1 5.421875 -1.46875 C 5.742188 -1.945312 5.90625 -2.691406 5.90625 -3.703125 Z M 5.90625 -3.703125 "/></g></g></g><g fill="#000000" fill-opacity="1"><g transform="translate(179.569947, 270.389161)"><g><path d="M 0.96875 0 L 0.96875 -5.671875 C 0.96875 -6.191406 0.957031 -6.765625 0.9375 -7.390625 L 2.09375 -7.390625 C 2.125 -6.554688 2.140625 -6.054688 2.140625 -5.890625 L 2.171875 -5.890625 C 2.367188 -6.523438 2.59375 -6.957031 2.84375 -7.1875 C 3.101562 -7.414062 3.46875 -7.53125 3.9375 -7.53125 C 4.09375 -7.53125 4.257812 -7.507812 4.4375 -7.46875 L 4.4375 -6.34375 C 4.269531 -6.382812 4.050781 -6.40625 3.78125 -6.40625 C 3.269531 -6.40625 2.878906 -6.1875 2.609375 -5.75 C 2.335938 -5.3125 2.203125 -4.679688 2.203125 -3.859375 L 2.203125 0 Z M 0.96875 0 "/></g></g></g><g fill="#000000" fill-opacity="1"><g transform="translate(186.32948, 270.389161)"><g><path d="M 5.25 0 L 5.25 -4.6875 C 5.25 -5.40625 5.148438 -5.898438 4.953125 -6.171875 C 4.753906 -6.441406 4.398438 -6.578125 3.890625 -6.578125 C 3.367188 -6.578125 2.953125 -6.375 2.640625 -5.96875 C 2.335938 -5.570312 2.1875 -5.007812 2.1875 -4.28125 L 2.1875 0 L 0.96875 0 L 0.96875 -5.8125 C 0.96875 -6.675781 0.957031 -7.203125 0.9375 -7.390625 L 2.09375 -7.390625 C 2.09375 -7.367188 2.09375 -7.304688 2.09375 -7.203125 C 2.101562 -7.109375 2.113281 -6.992188 2.125 -6.859375 C 2.132812 -6.734375 2.140625 -6.488281 2.140625 -6.125 L 2.171875 -6.125 C 2.429688 -6.65625 2.734375 -7.019531 3.078125 -7.21875 C 3.421875 -7.425781 3.835938 -7.53125 4.328125 -7.53125 C 4.890625 -7.53125 5.332031 -7.414062 5.65625 -7.1875 C 5.976562 -6.96875 6.207031 -6.613281 6.34375 -6.125 L 6.359375 -6.125 C 6.609375 -6.625 6.914062 -6.984375 7.28125 -7.203125 C 7.644531 -7.421875 8.082031 -7.53125 8.59375 -7.53125 C 9.34375 -7.53125 9.882812 -7.328125 10.21875 -6.921875 C 10.5625 -6.515625 10.734375 -5.847656 10.734375 -4.921875 L 10.734375 0 L 9.515625 0 L 9.515625 -4.6875 C 9.515625 -5.40625 9.414062 -5.898438 9.21875 -6.171875 C 9.03125 -6.441406 8.679688 -6.578125 8.171875 -6.578125 C 7.628906 -6.578125 7.207031 -6.378906 6.90625 -5.984375 C 6.613281 -5.585938 6.46875 -5.019531 6.46875 -4.28125 L 6.46875 0 Z M 5.25 0 "/></g></g></g><g fill="#000000" fill-opacity="1"><g transform="translate(200.085106, 270.389161)"><g><path d="M 2.828125 0.140625 C 2.085938 0.140625 1.53125 -0.0546875 1.15625 -0.453125 C 0.78125 -0.847656 0.59375 -1.382812 0.59375 -2.0625 C 0.59375 -2.832031 0.84375 -3.421875 1.34375 -3.828125 C 1.851562 -4.234375 2.664062 -4.453125 3.78125 -4.484375 L 5.453125 -4.515625 L 5.453125 -4.921875 C 5.453125 -5.515625 5.320312 -5.941406 5.0625 -6.203125 C 4.8125 -6.460938 4.410156 -6.59375 3.859375 -6.59375 C 3.304688 -6.59375 2.90625 -6.5 2.65625 -6.3125 C 2.40625 -6.125 2.253906 -5.828125 2.203125 -5.421875 L 0.921875 -5.53125 C 1.128906 -6.863281 2.117188 -7.53125 3.890625 -7.53125 C 4.816406 -7.53125 5.515625 -7.316406 5.984375 -6.890625 C 6.453125 -6.460938 6.6875 -5.847656 6.6875 -5.046875 L 6.6875 -1.859375 C 6.6875 -1.492188 6.734375 -1.21875 6.828125 -1.03125 C 6.929688 -0.851562 7.117188 -0.765625 7.390625 -0.765625 C 7.503906 -0.765625 7.632812 -0.78125 7.78125 -0.8125 L 7.78125 -0.046875 C 7.476562 0.0234375 7.164062 0.0625 6.84375 0.0625 C 6.382812 0.0625 6.050781 -0.0546875 5.84375 -0.296875 C 5.632812 -0.535156 5.515625 -0.910156 5.484375 -1.421875 L 5.453125 -1.421875 C 5.140625 -0.847656 4.769531 -0.441406 4.34375 -0.203125 C 3.925781 0.0234375 3.421875 0.140625 2.828125 0.140625 Z M 3.109375 -0.78125 C 3.554688 -0.78125 3.957031 -0.882812 4.3125 -1.09375 C 4.664062 -1.300781 4.941406 -1.582031 5.140625 -1.9375 C 5.347656 -2.289062 5.453125 -2.660156 5.453125 -3.046875 L 5.453125 -3.65625 L 4.109375 -3.625 C 3.523438 -3.613281 3.082031 -3.550781 2.78125 -3.4375 C 2.488281 -3.332031 2.257812 -3.164062 2.09375 -2.9375 C 1.9375 -2.707031 1.859375 -2.410156 1.859375 -2.046875 C 1.859375 -1.640625 1.96875 -1.328125 2.1875 -1.109375 C 2.40625 -0.890625 2.710938 -0.78125 3.109375 -0.78125 Z M 3.109375 -0.78125 "/></g></g></g><g fill="#000000" fill-opacity="1"><g transform="translate(209.966918, 270.389161)"><g><path d="M 0.9375 0 L 0.9375 -10.140625 L 2.171875 -10.140625 L 2.171875 0 Z M 0.9375 0 "/></g></g></g><g fill="#000000" fill-opacity="1"><g transform="translate(215.175565, 270.389161)"><g/></g></g><g fill="#000000" fill-opacity="1"><g transform="translate(221.163067, 270.389161)"><g><path d="M 8.703125 -2.65625 C 8.703125 -1.769531 8.351562 -1.082031 7.65625 -0.59375 C 6.957031 -0.101562 5.976562 0.140625 4.71875 0.140625 C 2.375 0.140625 1.015625 -0.675781 0.640625 -2.3125 L 1.90625 -2.5625 C 2.050781 -1.988281 2.359375 -1.5625 2.828125 -1.28125 C 3.304688 -1.007812 3.953125 -0.875 4.765625 -0.875 C 5.609375 -0.875 6.257812 -1.019531 6.71875 -1.3125 C 7.175781 -1.601562 7.40625 -2.03125 7.40625 -2.59375 C 7.40625 -2.90625 7.332031 -3.160156 7.1875 -3.359375 C 7.039062 -3.554688 6.835938 -3.71875 6.578125 -3.84375 C 6.316406 -3.96875 6.003906 -4.070312 5.640625 -4.15625 C 5.285156 -4.25 4.890625 -4.34375 4.453125 -4.4375 C 3.691406 -4.613281 3.113281 -4.785156 2.71875 -4.953125 C 2.332031 -5.117188 2.023438 -5.304688 1.796875 -5.515625 C 1.566406 -5.722656 1.390625 -5.960938 1.265625 -6.234375 C 1.148438 -6.515625 1.09375 -6.835938 1.09375 -7.203125 C 1.09375 -8.023438 1.40625 -8.660156 2.03125 -9.109375 C 2.664062 -9.554688 3.570312 -9.78125 4.75 -9.78125 C 5.84375 -9.78125 6.675781 -9.609375 7.25 -9.265625 C 7.832031 -8.929688 8.238281 -8.363281 8.46875 -7.5625 L 7.1875 -7.328125 C 7.039062 -7.835938 6.769531 -8.207031 6.375 -8.4375 C 5.976562 -8.675781 5.429688 -8.796875 4.734375 -8.796875 C 3.960938 -8.796875 3.375 -8.664062 2.96875 -8.40625 C 2.5625 -8.15625 2.359375 -7.773438 2.359375 -7.265625 C 2.359375 -6.972656 2.4375 -6.726562 2.59375 -6.53125 C 2.75 -6.332031 2.972656 -6.164062 3.265625 -6.03125 C 3.566406 -5.90625 4.160156 -5.742188 5.046875 -5.546875 C 5.335938 -5.472656 5.628906 -5.398438 5.921875 -5.328125 C 6.222656 -5.265625 6.503906 -5.179688 6.765625 -5.078125 C 7.035156 -4.984375 7.285156 -4.867188 7.515625 -4.734375 C 7.753906 -4.609375 7.960938 -4.445312 8.140625 -4.25 C 8.316406 -4.0625 8.453125 -3.835938 8.546875 -3.578125 C 8.648438 -3.316406 8.703125 -3.007812 8.703125 -2.65625 Z M 8.703125 -2.65625 "/></g></g></g><g fill="#000000" fill-opacity="1"><g transform="translate(232.595771, 270.389161)"><g><path d="M 2.171875 -6.125 C 2.429688 -6.613281 2.742188 -6.96875 3.109375 -7.1875 C 3.484375 -7.414062 3.957031 -7.53125 4.53125 -7.53125 C 5.332031 -7.53125 5.921875 -7.332031 6.296875 -6.9375 C 6.679688 -6.539062 6.875 -5.867188 6.875 -4.921875 L 6.875 0 L 5.640625 0 L 5.640625 -4.6875 C 5.640625 -5.207031 5.59375 -5.59375 5.5 -5.84375 C 5.40625 -6.101562 5.25 -6.289062 5.03125 -6.40625 C 4.8125 -6.519531 4.503906 -6.578125 4.109375 -6.578125 C 3.535156 -6.578125 3.070312 -6.375 2.71875 -5.96875 C 2.375 -5.570312 2.203125 -5.035156 2.203125 -4.359375 L 2.203125 0 L 0.96875 0 L 0.96875 -10.140625 L 2.203125 -10.140625 L 2.203125 -7.5 C 2.203125 -7.226562 2.191406 -6.941406 2.171875 -6.640625 C 2.160156 -6.347656 2.148438 -6.175781 2.140625 -6.125 Z M 2.171875 -6.125 "/></g></g></g><g fill="#000000" fill-opacity="1"><g transform="translate(242.477584, 270.389161)"><g><path d="M 0.9375 -8.96875 L 0.9375 -10.140625 L 2.171875 -10.140625 L 2.171875 -8.96875 Z M 0.9375 0 L 0.9375 -7.390625 L 2.171875 -7.390625 L 2.171875 0 Z M 0.9375 0 "/></g></g></g><g fill="#000000" fill-opacity="1"><g transform="translate(247.686225, 270.389161)"><g><path d="M 0.96875 0 L 0.96875 -5.671875 C 0.96875 -6.191406 0.957031 -6.765625 0.9375 -7.390625 L 2.09375 -7.390625 C 2.125 -6.554688 2.140625 -6.054688 2.140625 -5.890625 L 2.171875 -5.890625 C 2.367188 -6.523438 2.59375 -6.957031 2.84375 -7.1875 C 3.101562 -7.414062 3.46875 -7.53125 3.9375 -7.53125 C 4.09375 -7.53125 4.257812 -7.507812 4.4375 -7.46875 L 4.4375 -6.34375 C 4.269531 -6.382812 4.050781 -6.40625 3.78125 -6.40625 C 3.269531 -6.40625 2.878906 -6.1875 2.609375 -5.75 C 2.335938 -5.3125 2.203125 -4.679688 2.203125 -3.859375 L 2.203125 0 Z M 0.96875 0 "/></g></g></g><g fill="#000000" fill-opacity="1"><g transform="translate(254.445757, 270.389161)"><g><path d="M 3.78125 -0.0625 C 3.375 0.0507812 2.960938 0.109375 2.546875 0.109375 C 1.554688 0.109375 1.0625 -0.445312 1.0625 -1.5625 L 1.0625 -6.5 L 0.21875 -6.5 L 0.21875 -7.390625 L 1.109375 -7.390625 L 1.484375 -9.046875 L 2.296875 -9.046875 L 2.296875 -7.390625 L 3.671875 -7.390625 L 3.671875 -6.5 L 2.296875 -6.5 L 2.296875 -1.828125 C 2.296875 -1.472656 2.351562 -1.222656 2.46875 -1.078125 C 2.582031 -0.941406 2.785156 -0.875 3.078125 -0.875 C 3.242188 -0.875 3.476562 -0.90625 3.78125 -0.96875 Z M 3.78125 -0.0625 "/></g></g></g></svg>