<svg xmlns="http://www.w3.org/2000/svg" xmlns:xlink="http://www.w3.org/1999/xlink" width="500" zoomAndPan="magnify" viewBox="0 0 375 374.999991" height="500" preserveAspectRatio="xMidYMid meet" version="1.0"><defs><g/><clipPath id="23b1f2e70c"><path d="M 117.105469 61.175781 L 233.757812 61.175781 L 233.757812 219.125 L 117.105469 219.125 Z M 117.105469 61.175781 " clip-rule="nonzero"/></clipPath><clipPath id="e376e4659b"><path d="M 215.441406 68.390625 L 187.21875 64.5625 C 185.988281 68.28125 187.496094 58.40625 187.246094 62.125 L 187.246094 66.824219 C 193.511719 89.535156 168.324219 116.402344 141.757812 128.054688 C 163.058594 122.722656 204.839844 99.550781 198.957031 69.355469 C 222.546875 115.433594 146.070312 159.746094 117.199219 175.703125 C 142.226562 168.484375 169.4375 151.164062 174.335938 147.664062 C 173.617188 165.015625 144.921875 173.867188 144.921875 197.960938 C 144.921875 207.917969 156.972656 219.042969 165.691406 219.042969 C 162.882812 202.25 174.164062 195.695312 182.371094 193.292969 C 193.78125 189.960938 214.496094 199.441406 220.449219 193.40625 C 225.121094 188.671875 221.054688 184.097656 220.601562 180.917969 C 220.152344 177.742188 225.421875 175.851562 225.671875 174.023438 C 225.917969 172.199219 222.671875 170.738281 222.742188 169.539062 C 222.8125 168.335938 226.875 167.863281 227.066406 165.75 C 227.257812 163.636719 223.691406 160.457031 224.46875 156.75 C 225.25 153.042969 234.125 151.359375 233.707031 147.582031 C 233.285156 143.804688 223.199219 140.054688 220.1875 131.238281 C 219.824219 130.1875 219.679688 128.710938 219.621094 126.921875 C 223.273438 127.570312 229.542969 125.761719 227.242188 125.921875 C 224.476562 126.109375 221.789062 124.441406 219.632812 122.167969 L 219.585938 122.167969 C 219.59375 118.703125 224.152344 102.882812 210.550781 81.875 C 220.632812 89.378906 225.839844 100.289062 226.609375 112.613281 C 232.667969 95.015625 223.433594 68.390625 215.441406 68.390625 Z M 215.441406 68.390625 " clip-rule="nonzero"/></clipPath><clipPath id="6699d9b16b"><path d="M 215.441406 68.390625 L 187.21875 64.5625 C 185.988281 68.28125 187.496094 58.40625 187.246094 62.125 L 187.246094 66.824219 C 193.511719 89.535156 168.324219 116.402344 141.757812 128.054688 C 163.058594 122.722656 204.839844 99.550781 198.957031 69.355469 C 222.546875 115.433594 146.070312 159.746094 117.199219 175.703125 C 142.226562 168.484375 169.4375 151.164062 174.335938 147.664062 C 173.617188 165.015625 144.921875 173.867188 144.921875 197.960938 C 144.921875 207.917969 156.972656 219.042969 165.691406 219.042969 C 162.882812 202.25 174.164062 195.695312 182.371094 193.292969 C 193.78125 189.960938 214.496094 199.441406 220.449219 193.40625 C 225.121094 188.671875 221.054688 184.097656 220.601562 180.917969 C 220.152344 177.742188 225.421875 175.851562 225.671875 174.023438 C 225.917969 172.199219 222.671875 170.738281 222.742188 169.539062 C 222.8125 168.335938 226.875 167.863281 227.066406 165.75 C 227.257812 163.636719 223.691406 160.457031 224.46875 156.75 C 225.25 153.042969 234.125 151.359375 233.707031 147.582031 C 233.285156 143.804688 223.199219 140.054688 220.1875 131.238281 C 219.824219 130.1875 219.679688 128.710938 219.621094 126.921875 C 223.273438 127.570312 229.542969 125.761719 227.242188 125.921875 C 224.476562 126.109375 221.789062 124.441406 219.632812 122.167969 L 219.585938 122.167969 C 219.59375 118.703125 224.152344 102.882812 210.550781 81.875 C 220.632812 89.378906 225.839844 100.289062 226.609375 112.613281 C 232.667969 95.015625 223.433594 68.390625 215.441406 68.390625 " clip-rule="nonzero"/></clipPath><clipPath id="d1ebd29b0a"><path d="M 313.738281 137.558594 L 174.304688 1.328125 L 37.585938 141.257812 L 177.019531 277.492188 Z M 313.738281 137.558594 " clip-rule="nonzero"/></clipPath><linearGradient x1="-0.0797564" gradientTransform="matrix(-185.403456, 189.757895, -189.757895, -185.403456, 236.742459, 93.670868)" y1="0" x2="0.652921" gradientUnits="userSpaceOnUse" y2="0" id="6d7ca4978a"><stop stop-opacity="1" stop-color="rgb(87.098694%, 77.2995%, 36.499023%)" offset="0"/><stop stop-opacity="1" stop-color="rgb(87.098694%, 77.2995%, 36.499023%)" offset="0.125"/><stop stop-opacity="1" stop-color="rgb(87.138367%, 77.328491%, 36.698914%)" offset="0.128906"/><stop stop-opacity="1" stop-color="rgb(87.17804%, 77.359009%, 36.898804%)" offset="0.132812"/><stop stop-opacity="1" stop-color="rgb(87.338257%, 77.478027%, 37.12616%)" offset="0.136719"/><stop stop-opacity="1" stop-color="rgb(87.5%, 77.598572%, 37.355042%)" offset="0.140625"/><stop stop-opacity="1" stop-color="rgb(87.649536%, 77.864075%, 37.742615%)" offset="0.144531"/><stop stop-opacity="1" stop-color="rgb(87.799072%, 78.131104%, 38.131714%)" offset="0.148438"/><stop stop-opacity="1" stop-color="rgb(87.998962%, 78.318787%, 38.319397%)" offset="0.152344"/><stop stop-opacity="1" stop-color="rgb(88.198853%, 78.507996%, 38.508606%)" offset="0.15625"/><stop stop-opacity="1" stop-color="rgb(88.398743%, 78.895569%, 39.096069%)" offset="0.160156"/><stop stop-opacity="1" stop-color="rgb(88.598633%, 79.284668%, 39.685059%)" offset="0.164062"/><stop stop-opacity="1" stop-color="rgb(88.798523%, 79.672241%, 40.272522%)" offset="0.167969"/><stop stop-opacity="1" stop-color="rgb(88.999939%, 80.06134%, 40.861511%)" offset="0.171875"/><stop stop-opacity="1" stop-color="rgb(88.999939%, 80.448914%, 41.249084%)" offset="0.175781"/><stop stop-opacity="1" stop-color="rgb(88.999939%, 80.838013%, 41.638184%)" offset="0.179688"/><stop stop-opacity="1" stop-color="rgb(89.257812%, 81.217957%, 42.225647%)" offset="0.183594"/><stop stop-opacity="1" stop-color="rgb(89.515686%, 81.599426%, 42.814636%)" offset="0.1875"/><stop stop-opacity="1" stop-color="rgb(89.857483%, 81.845093%, 43.4021%)" offset="0.191406"/><stop stop-opacity="1" stop-color="rgb(90.19928%, 82.092285%, 43.991089%)" offset="0.195312"/><stop stop-opacity="1" stop-color="rgb(90.232849%, 82.429504%, 44.613647%)" offset="0.199219"/><stop stop-opacity="1" stop-color="rgb(90.267944%, 82.76825%, 45.237732%)" offset="0.203125"/><stop stop-opacity="1" stop-color="rgb(90.632629%, 83.155823%, 45.791626%)" offset="0.207031"/><stop stop-opacity="1" stop-color="rgb(90.99884%, 83.544922%, 46.34552%)" offset="0.210937"/><stop stop-opacity="1" stop-color="rgb(91.19873%, 83.932495%, 46.942139%)" offset="0.214844"/><stop stop-opacity="1" stop-color="rgb(91.398621%, 84.321594%, 47.538757%)" offset="0.21875"/><stop stop-opacity="1" stop-color="rgb(91.648865%, 84.759521%, 48.36731%)" offset="0.222656"/><stop stop-opacity="1" stop-color="rgb(91.899109%, 85.198975%, 49.197388%)" offset="0.226562"/><stop stop-opacity="1" stop-color="rgb(92.048645%, 85.786438%, 50.17395%)" offset="0.230469"/><stop stop-opacity="1" stop-color="rgb(92.199707%, 86.375427%, 51.150513%)" offset="0.234375"/><stop stop-opacity="1" stop-color="rgb(92.375183%, 86.763%, 52.076721%)" offset="0.238281"/><stop stop-opacity="1" stop-color="rgb(92.552185%, 87.1521%, 53.004456%)" offset="0.242188"/><stop stop-opacity="1" stop-color="rgb(92.739868%, 87.689209%, 53.765869%)" offset="0.246094"/><stop stop-opacity="1" stop-color="rgb(92.929077%, 88.227844%, 54.528809%)" offset="0.25"/><stop stop-opacity="1" stop-color="rgb(93.31665%, 88.615417%, 55.119324%)" offset="0.253906"/><stop stop-opacity="1" stop-color="rgb(93.70575%, 89.004517%, 55.711365%)" offset="0.257812"/><stop stop-opacity="1" stop-color="rgb(93.902588%, 89.584351%, 56.488037%)" offset="0.261719"/><stop stop-opacity="1" stop-color="rgb(94.099426%, 90.164185%, 57.264709%)" offset="0.265625"/><stop stop-opacity="1" stop-color="rgb(94.499207%, 90.640259%, 58.09021%)" offset="0.269531"/><stop stop-opacity="1" stop-color="rgb(94.898987%, 91.117859%, 58.917236%)" offset="0.273438"/><stop stop-opacity="1" stop-color="rgb(95.117188%, 91.671753%, 59.912109%)" offset="0.277344"/><stop stop-opacity="1" stop-color="rgb(95.335388%, 92.225647%, 60.906982%)" offset="0.28125"/><stop stop-opacity="1" stop-color="rgb(95.516968%, 92.575073%, 61.820984%)" offset="0.285156"/><stop stop-opacity="1" stop-color="rgb(95.698547%, 92.9245%, 62.736511%)" offset="0.289062"/><stop stop-opacity="1" stop-color="rgb(96.087646%, 93.701172%, 63.70697%)" offset="0.292969"/><stop stop-opacity="1" stop-color="rgb(96.478271%, 94.477844%, 64.677429%)" offset="0.296875"/><stop stop-opacity="1" stop-color="rgb(96.871948%, 95.054626%, 65.653992%)" offset="0.300781"/><stop stop-opacity="1" stop-color="rgb(97.265625%, 95.631409%, 66.630554%)" offset="0.304688"/><stop stop-opacity="1" stop-color="rgb(97.453308%, 96.086121%, 67.878723%)" offset="0.308594"/><stop stop-opacity="1" stop-color="rgb(97.642517%, 96.542358%, 69.126892%)" offset="0.3125"/><stop stop-opacity="1" stop-color="rgb(97.8302%, 97.079468%, 70.281982%)" offset="0.316406"/><stop stop-opacity="1" stop-color="rgb(98.017883%, 97.618103%, 71.437073%)" offset="0.320312"/><stop stop-opacity="1" stop-color="rgb(98.208618%, 97.808838%, 72.56012%)" offset="0.324219"/><stop stop-opacity="1" stop-color="rgb(98.399353%, 97.999573%, 73.683167%)" offset="0.328125"/><stop stop-opacity="1" stop-color="rgb(98.599243%, 98.199463%, 74.104309%)" offset="0.332031"/><stop stop-opacity="1" stop-color="rgb(98.799133%, 98.399353%, 74.526978%)" offset="0.335938"/><stop stop-opacity="1" stop-color="rgb(98.599243%, 98.023987%, 73.614502%)" offset="0.339844"/><stop stop-opacity="1" stop-color="rgb(98.399353%, 97.650146%, 72.702026%)" offset="0.34375"/><stop stop-opacity="1" stop-color="rgb(97.988892%, 97.04895%, 71.199036%)" offset="0.347656"/><stop stop-opacity="1" stop-color="rgb(97.579956%, 96.447754%, 69.696045%)" offset="0.351562"/><stop stop-opacity="1" stop-color="rgb(97.236633%, 95.671082%, 68.193054%)" offset="0.355469"/><stop stop-opacity="1" stop-color="rgb(96.894836%, 94.894409%, 66.691589%)" offset="0.359375"/><stop stop-opacity="1" stop-color="rgb(96.307373%, 94.117737%, 65.525818%)" offset="0.363281"/><stop stop-opacity="1" stop-color="rgb(95.71991%, 93.341064%, 64.361572%)" offset="0.367188"/><stop stop-opacity="1" stop-color="rgb(95.330811%, 92.608643%, 63.240051%)" offset="0.371094"/><stop stop-opacity="1" stop-color="rgb(94.943237%, 91.876221%, 62.120056%)" offset="0.375"/><stop stop-opacity="1" stop-color="rgb(94.554138%, 91.104126%, 60.794067%)" offset="0.378906"/><stop stop-opacity="1" stop-color="rgb(94.166565%, 90.333557%, 59.469604%)" offset="0.382812"/><stop stop-opacity="1" stop-color="rgb(93.777466%, 89.556885%, 58.46405%)" offset="0.386719"/><stop stop-opacity="1" stop-color="rgb(93.389893%, 88.780212%, 57.458496%)" offset="0.390625"/><stop stop-opacity="1" stop-color="rgb(92.951965%, 88.15155%, 56.391907%)" offset="0.394531"/><stop stop-opacity="1" stop-color="rgb(92.514038%, 87.524414%, 55.326843%)" offset="0.398437"/><stop stop-opacity="1" stop-color="rgb(92.175293%, 86.749268%, 54.350281%)" offset="0.402344"/><stop stop-opacity="1" stop-color="rgb(91.836548%, 85.974121%, 53.373718%)" offset="0.40625"/><stop stop-opacity="1" stop-color="rgb(91.447449%, 85.366821%, 52.470398%)" offset="0.410156"/><stop stop-opacity="1" stop-color="rgb(91.059875%, 84.759521%, 51.567078%)" offset="0.414062"/><stop stop-opacity="1" stop-color="rgb(90.870667%, 84.170532%, 50.408936%)" offset="0.417969"/><stop stop-opacity="1" stop-color="rgb(90.682983%, 83.583069%, 49.252319%)" offset="0.421875"/><stop stop-opacity="1" stop-color="rgb(90.293884%, 82.884216%, 48.269653%)" offset="0.425781"/><stop stop-opacity="1" stop-color="rgb(89.906311%, 82.18689%, 47.286987%)" offset="0.429688"/><stop stop-opacity="1" stop-color="rgb(89.472961%, 81.533813%, 46.434021%)" offset="0.433594"/><stop stop-opacity="1" stop-color="rgb(89.039612%, 80.880737%, 45.581055%)" offset="0.4375"/><stop stop-opacity="1" stop-color="rgb(88.645935%, 80.267334%, 44.593811%)" offset="0.441406"/><stop stop-opacity="1" stop-color="rgb(88.253784%, 79.653931%, 43.608093%)" offset="0.445312"/><stop stop-opacity="1" stop-color="rgb(87.905884%, 78.903198%, 42.680359%)" offset="0.449219"/><stop stop-opacity="1" stop-color="rgb(87.557983%, 78.153992%, 41.75415%)" offset="0.453125"/><stop stop-opacity="1" stop-color="rgb(87.327576%, 77.763367%, 41.177368%)" offset="0.457031"/><stop stop-opacity="1" stop-color="rgb(87.098694%, 77.374268%, 40.600586%)" offset="0.460938"/><stop stop-opacity="1" stop-color="rgb(86.759949%, 76.799011%, 39.761353%)" offset="0.464844"/><stop stop-opacity="1" stop-color="rgb(86.422729%, 76.223755%, 38.923645%)" offset="0.46875"/><stop stop-opacity="1" stop-color="rgb(86.192322%, 75.624084%, 38.166809%)" offset="0.472656"/><stop stop-opacity="1" stop-color="rgb(85.961914%, 75.02594%, 37.409973%)" offset="0.476562"/><stop stop-opacity="1" stop-color="rgb(85.565186%, 74.597168%, 36.825562%)" offset="0.480469"/><stop stop-opacity="1" stop-color="rgb(85.169983%, 74.169922%, 36.24115%)" offset="0.484375"/><stop stop-opacity="1" stop-color="rgb(84.933472%, 73.780823%, 35.464478%)" offset="0.488281"/><stop stop-opacity="1" stop-color="rgb(84.698486%, 73.39325%, 34.687805%)" offset="0.492187"/><stop stop-opacity="1" stop-color="rgb(84.498596%, 73.00415%, 34.251404%)" offset="0.496094"/><stop stop-opacity="1" stop-color="rgb(84.298706%, 72.616577%, 33.816528%)" offset="0.5"/><stop stop-opacity="1" stop-color="rgb(83.969116%, 72.277832%, 33.297729%)" offset="0.503906"/><stop stop-opacity="1" stop-color="rgb(83.639526%, 71.940613%, 32.780457%)" offset="0.507812"/><stop stop-opacity="1" stop-color="rgb(83.450317%, 71.551514%, 32.371521%)" offset="0.511719"/><stop stop-opacity="1" stop-color="rgb(83.262634%, 71.16394%, 31.962585%)" offset="0.515625"/><stop stop-opacity="1" stop-color="rgb(83.024597%, 70.724487%, 31.367493%)" offset="0.519531"/><stop stop-opacity="1" stop-color="rgb(82.78656%, 70.28656%, 30.773926%)" offset="0.523438"/><stop stop-opacity="1" stop-color="rgb(82.74231%, 69.897461%, 30.342102%)" offset="0.527344"/><stop stop-opacity="1" stop-color="rgb(82.699585%, 69.509888%, 29.910278%)" offset="0.53125"/><stop stop-opacity="1" stop-color="rgb(82.548523%, 69.25354%, 29.521179%)" offset="0.535156"/><stop stop-opacity="1" stop-color="rgb(82.398987%, 68.998718%, 29.133606%)" offset="0.539063"/><stop stop-opacity="1" stop-color="rgb(82.199097%, 68.676758%, 28.744507%)" offset="0.542969"/><stop stop-opacity="1" stop-color="rgb(81.999207%, 68.356323%, 28.356934%)" offset="0.546875"/><stop stop-opacity="1" stop-color="rgb(81.889343%, 68.167114%, 27.9953%)" offset="0.550781"/><stop stop-opacity="1" stop-color="rgb(81.77948%, 67.979431%, 27.635193%)" offset="0.554688"/><stop stop-opacity="1" stop-color="rgb(81.558228%, 67.608643%, 27.236938%)" offset="0.558594"/><stop stop-opacity="1" stop-color="rgb(81.338501%, 67.237854%, 26.838684%)" offset="0.5625"/><stop stop-opacity="1" stop-color="rgb(81.132507%, 67.03186%, 26.568604%)" offset="0.566406"/><stop stop-opacity="1" stop-color="rgb(80.926514%, 66.827393%, 26.298523%)" offset="0.570312"/><stop stop-opacity="1" stop-color="rgb(80.862427%, 66.563416%, 25.973511%)" offset="0.574219"/><stop stop-opacity="1" stop-color="rgb(80.799866%, 66.299438%, 25.650024%)" offset="0.578125"/><stop stop-opacity="1" stop-color="rgb(80.686951%, 66.099548%, 25.260925%)" offset="0.582031"/><stop stop-opacity="1" stop-color="rgb(80.574036%, 65.899658%, 24.873352%)" offset="0.585938"/><stop stop-opacity="1" stop-color="rgb(80.485535%, 65.699768%, 24.684143%)" offset="0.589844"/><stop stop-opacity="1" stop-color="rgb(80.39856%, 65.499878%, 24.49646%)" offset="0.59375"/><stop stop-opacity="1" stop-color="rgb(80.279541%, 65.379333%, 24.278259%)" offset="0.597656"/><stop stop-opacity="1" stop-color="rgb(80.160522%, 65.260315%, 24.060059%)" offset="0.601562"/><stop stop-opacity="1" stop-color="rgb(80.079651%, 65.05127%, 23.851013%)" offset="0.605469"/><stop stop-opacity="1" stop-color="rgb(79.998779%, 64.84375%, 23.643494%)" offset="0.609375"/><stop stop-opacity="1" stop-color="rgb(79.998779%, 64.654541%, 23.370361%)" offset="0.613281"/><stop stop-opacity="1" stop-color="rgb(79.998779%, 64.466858%, 23.098755%)" offset="0.617188"/><stop stop-opacity="1" stop-color="rgb(79.798889%, 64.382935%, 22.898865%)" offset="0.621094"/><stop stop-opacity="1" stop-color="rgb(79.598999%, 64.299011%, 22.698975%)" offset="0.625"/><stop stop-opacity="1" stop-color="rgb(79.598999%, 64.099121%, 22.628784%)" offset="0.628906"/><stop stop-opacity="1" stop-color="rgb(79.598999%, 63.899231%, 22.56012%)" offset="0.632813"/><stop stop-opacity="1" stop-color="rgb(79.399109%, 63.699341%, 22.279358%)" offset="0.636719"/><stop stop-opacity="1" stop-color="rgb(79.199219%, 63.499451%, 21.998596%)" offset="0.640625"/><stop stop-opacity="1" stop-color="rgb(79.199219%, 63.391113%, 21.890259%)" offset="0.65625"/><stop stop-opacity="1" stop-color="rgb(78.999329%, 63.191223%, 21.690369%)" offset="0.660156"/><stop stop-opacity="1" stop-color="rgb(78.799438%, 63.09967%, 21.598816%)" offset="0.664062"/><stop stop-opacity="1" stop-color="rgb(78.799438%, 63.056946%, 21.556091%)" offset="0.671875"/><stop stop-opacity="1" stop-color="rgb(78.799438%, 62.857056%, 21.340942%)" offset="0.6875"/><stop stop-opacity="1" stop-color="rgb(78.799438%, 62.692261%, 20.982361%)" offset="0.71875"/><stop stop-opacity="1" stop-color="rgb(78.799438%, 62.542725%, 20.76416%)" offset="0.75"/><stop stop-opacity="1" stop-color="rgb(78.799438%, 62.399292%, 20.56427%)" offset="0.765625"/><stop stop-opacity="1" stop-color="rgb(78.756714%, 62.358093%, 20.35675%)" offset="0.773438"/><stop stop-opacity="1" stop-color="rgb(78.556824%, 62.158203%, 20.15686%)" offset="0.78125"/><stop stop-opacity="1" stop-color="rgb(78.399658%, 61.999512%, 19.975281%)" offset="0.796875"/><stop stop-opacity="1" stop-color="rgb(78.399658%, 61.981201%, 19.775391%)" offset="0.804688"/><stop stop-opacity="1" stop-color="rgb(78.399658%, 61.781311%, 19.584656%)" offset="0.8125"/><stop stop-opacity="1" stop-color="rgb(78.399658%, 61.567688%, 19.384766%)" offset="0.820312"/><stop stop-opacity="1" stop-color="rgb(78.373718%, 61.367798%, 19.172668%)" offset="0.828125"/><stop stop-opacity="1" stop-color="rgb(78.173828%, 61.180115%, 18.972778%)" offset="0.835938"/><stop stop-opacity="1" stop-color="rgb(77.992249%, 60.978699%, 18.791199%)" offset="0.84375"/><stop stop-opacity="1" stop-color="rgb(77.790833%, 60.771179%, 18.591309%)" offset="0.859375"/><stop stop-opacity="1" stop-color="rgb(77.598572%, 60.571289%, 18.377686%)" offset="0.867188"/><stop stop-opacity="1" stop-color="rgb(77.586365%, 60.398865%, 18.177795%)" offset="0.875"/><stop stop-opacity="1" stop-color="rgb(77.436829%, 60.394287%, 17.99469%)" offset="0.890625"/><stop stop-opacity="1" stop-color="rgb(77.2995%, 60.194397%, 17.7948%)" offset="0.90625"/><stop stop-opacity="1" stop-color="rgb(77.287292%, 59.986877%, 17.590332%)" offset="0.914062"/><stop stop-opacity="1" stop-color="rgb(77.087402%, 59.786987%, 17.440796%)" offset="0.921875"/><stop stop-opacity="1" stop-color="rgb(76.899719%, 59.599304%, 17.298889%)" offset="0.9375"/><stop stop-opacity="1" stop-color="rgb(76.885986%, 59.399414%, 17.098999%)" offset="0.941406"/><stop stop-opacity="1" stop-color="rgb(76.872253%, 59.199524%, 16.899109%)" offset="0.945312"/><stop stop-opacity="1" stop-color="rgb(76.686096%, 59.199524%, 16.899109%)" offset="0.953125"/><stop stop-opacity="1" stop-color="rgb(76.499939%, 59.197998%, 16.899109%)" offset="0.960938"/><stop stop-opacity="1" stop-color="rgb(76.499939%, 59.00116%, 16.899109%)" offset="0.96875"/><stop stop-opacity="1" stop-color="rgb(76.499939%, 58.802795%, 16.796875%)" offset="0.976562"/><stop stop-opacity="1" stop-color="rgb(76.499939%, 58.799744%, 16.596985%)" offset="0.984375"/><stop stop-opacity="1" stop-color="rgb(76.499939%, 58.796692%, 16.496277%)" offset="0.992188"/><stop stop-opacity="1" stop-color="rgb(76.499939%, 58.598328%, 16.297913%)" offset="1"/></linearGradient><clipPath id="20dfc2beaf"><path d="M 99.140625 59.773438 L 276.140625 59.773438 L 276.140625 236.773438 L 99.140625 236.773438 Z M 99.140625 59.773438 " clip-rule="nonzero"/></clipPath><clipPath id="d68c44dbb1"><path d="M 187.636719 66.824219 C 142.726562 66.824219 106.1875 103.359375 106.1875 148.273438 C 106.1875 193.183594 142.726562 229.71875 187.636719 229.71875 C 232.546875 229.71875 269.085938 193.183594 269.085938 148.273438 C 269.085938 103.359375 232.546875 66.824219 187.636719 66.824219 Z M 187.636719 236.769531 C 138.839844 236.769531 99.140625 197.070312 99.140625 148.273438 C 99.140625 99.472656 138.839844 59.773438 187.636719 59.773438 C 236.4375 59.773438 276.132812 99.472656 276.132812 148.273438 C 276.132812 197.070312 236.4375 236.769531 187.636719 236.769531 Z M 187.636719 236.769531 " clip-rule="nonzero"/></clipPath><clipPath id="656a31140b"><path d="M 187.636719 66.824219 C 142.726562 66.824219 106.1875 103.359375 106.1875 148.273438 C 106.1875 193.183594 142.726562 229.71875 187.636719 229.71875 C 232.546875 229.71875 269.085938 193.183594 269.085938 148.273438 C 269.085938 103.359375 232.546875 66.824219 187.636719 66.824219 Z M 187.636719 236.769531 C 138.839844 236.769531 99.140625 197.070312 99.140625 148.273438 C 99.140625 99.472656 138.839844 59.773438 187.636719 59.773438 C 236.4375 59.773438 276.132812 99.472656 276.132812 148.273438 C 276.132812 197.070312 236.4375 236.769531 187.636719 236.769531 " clip-rule="nonzero"/></clipPath><clipPath id="e1ff32cf00"><path d="M 364.378906 154.945312 L 194.3125 -28.472656 L 10.894531 141.597656 L 180.960938 325.011719 Z M 364.378906 154.945312 " clip-rule="nonzero"/></clipPath><linearGradient x1="-0.115577" gradientTransform="matrix(-230.822414, 214.020975, -214.020975, -230.822414, 252.668118, 87.973788)" y1="0" x2="0.679049" gradientUnits="userSpaceOnUse" y2="0" id="b18e7c4269"><stop stop-opacity="1" stop-color="rgb(87.098694%, 77.2995%, 36.499023%)" offset="0"/><stop stop-opacity="1" stop-color="rgb(87.098694%, 77.2995%, 36.499023%)" offset="0.125"/><stop stop-opacity="1" stop-color="rgb(87.098694%, 77.2995%, 36.499023%)" offset="0.1875"/><stop stop-opacity="1" stop-color="rgb(87.098694%, 77.2995%, 36.535645%)" offset="0.195312"/><stop stop-opacity="1" stop-color="rgb(87.12616%, 77.449036%, 36.735535%)" offset="0.203125"/><stop stop-opacity="1" stop-color="rgb(87.327576%, 77.598572%, 36.917114%)" offset="0.210938"/><stop stop-opacity="1" stop-color="rgb(87.506104%, 77.798462%, 37.277222%)" offset="0.214844"/><stop stop-opacity="1" stop-color="rgb(87.512207%, 77.999878%, 37.617493%)" offset="0.21875"/><stop stop-opacity="1" stop-color="rgb(87.65564%, 78.198242%, 38.008118%)" offset="0.222656"/><stop stop-opacity="1" stop-color="rgb(87.799072%, 78.398132%, 38.398743%)" offset="0.226563"/><stop stop-opacity="1" stop-color="rgb(87.998962%, 78.637695%, 38.677979%)" offset="0.230469"/><stop stop-opacity="1" stop-color="rgb(88.198853%, 78.878784%, 38.95874%)" offset="0.234375"/><stop stop-opacity="1" stop-color="rgb(88.398743%, 79.269409%, 39.538574%)" offset="0.238281"/><stop stop-opacity="1" stop-color="rgb(88.598633%, 79.660034%, 40.119934%)" offset="0.242188"/><stop stop-opacity="1" stop-color="rgb(88.798523%, 79.870605%, 40.679932%)" offset="0.246094"/><stop stop-opacity="1" stop-color="rgb(88.999939%, 80.082703%, 41.241455%)" offset="0.25"/><stop stop-opacity="1" stop-color="rgb(89.21051%, 80.651855%, 41.639709%)" offset="0.253906"/><stop stop-opacity="1" stop-color="rgb(89.421082%, 81.221008%, 42.037964%)" offset="0.257812"/><stop stop-opacity="1" stop-color="rgb(89.611816%, 81.611633%, 42.771912%)" offset="0.261719"/><stop stop-opacity="1" stop-color="rgb(89.802551%, 82.002258%, 43.505859%)" offset="0.265625"/><stop stop-opacity="1" stop-color="rgb(90.042114%, 82.392883%, 44.386292%)" offset="0.269531"/><stop stop-opacity="1" stop-color="rgb(90.283203%, 82.783508%, 45.26825%)" offset="0.273438"/><stop stop-opacity="1" stop-color="rgb(90.673828%, 83.374023%, 46.240234%)" offset="0.277344"/><stop stop-opacity="1" stop-color="rgb(91.064453%, 83.964539%, 47.213745%)" offset="0.28125"/><stop stop-opacity="1" stop-color="rgb(91.43219%, 84.555054%, 47.998047%)" offset="0.285156"/><stop stop-opacity="1" stop-color="rgb(91.799927%, 85.145569%, 48.782349%)" offset="0.289062"/><stop stop-opacity="1" stop-color="rgb(92.008972%, 85.748291%, 50.126648%)" offset="0.292969"/><stop stop-opacity="1" stop-color="rgb(92.219543%, 86.352539%, 51.472473%)" offset="0.296875"/><stop stop-opacity="1" stop-color="rgb(92.366028%, 87.083435%, 52.600098%)" offset="0.300781"/><stop stop-opacity="1" stop-color="rgb(92.514038%, 87.814331%, 53.729248%)" offset="0.304688"/><stop stop-opacity="1" stop-color="rgb(93.099976%, 88.595581%, 55.096436%)" offset="0.308594"/><stop stop-opacity="1" stop-color="rgb(93.687439%, 89.376831%, 56.465149%)" offset="0.3125"/><stop stop-opacity="1" stop-color="rgb(94.328308%, 90.292358%, 57.804871%)" offset="0.316406"/><stop stop-opacity="1" stop-color="rgb(94.969177%, 91.207886%, 59.146118%)" offset="0.320312"/><stop stop-opacity="1" stop-color="rgb(95.358276%, 92.127991%, 60.891724%)" offset="0.324219"/><stop stop-opacity="1" stop-color="rgb(95.748901%, 93.049622%, 62.638855%)" offset="0.328125"/><stop stop-opacity="1" stop-color="rgb(96.154785%, 94.020081%, 64.343262%)" offset="0.332031"/><stop stop-opacity="1" stop-color="rgb(96.562195%, 94.992065%, 66.047668%)" offset="0.335938"/><stop stop-opacity="1" stop-color="rgb(97.286987%, 95.956421%, 67.959595%)" offset="0.339844"/><stop stop-opacity="1" stop-color="rgb(98.01178%, 96.920776%, 69.871521%)" offset="0.34375"/><stop stop-opacity="1" stop-color="rgb(98.400879%, 97.653198%, 72.164917%)" offset="0.347656"/><stop stop-opacity="1" stop-color="rgb(98.791504%, 98.38562%, 74.458313%)" offset="0.351563"/><stop stop-opacity="1" stop-color="rgb(98.558044%, 98.155212%, 73.939514%)" offset="0.355469"/><stop stop-opacity="1" stop-color="rgb(98.326111%, 97.924805%, 73.422241%)" offset="0.359375"/><stop stop-opacity="1" stop-color="rgb(98.114014%, 97.357178%, 71.70105%)" offset="0.363281"/><stop stop-opacity="1" stop-color="rgb(97.903442%, 96.789551%, 69.979858%)" offset="0.367188"/><stop stop-opacity="1" stop-color="rgb(97.383118%, 95.808411%, 68.486023%)" offset="0.371094"/><stop stop-opacity="1" stop-color="rgb(96.864319%, 94.827271%, 66.992188%)" offset="0.375"/><stop stop-opacity="1" stop-color="rgb(96.464539%, 94.046021%, 65.620422%)" offset="0.378906"/><stop stop-opacity="1" stop-color="rgb(96.066284%, 93.266296%, 64.250183%)" offset="0.382813"/><stop stop-opacity="1" stop-color="rgb(95.483398%, 92.5354%, 63.128662%)" offset="0.386719"/><stop stop-opacity="1" stop-color="rgb(94.902039%, 91.804504%, 62.007141%)" offset="0.390625"/><stop stop-opacity="1" stop-color="rgb(94.46106%, 90.922546%, 60.48584%)" offset="0.394531"/><stop stop-opacity="1" stop-color="rgb(94.021606%, 90.042114%, 58.964539%)" offset="0.398438"/><stop stop-opacity="1" stop-color="rgb(93.431091%, 89.260864%, 57.843018%)" offset="0.402344"/><stop stop-opacity="1" stop-color="rgb(92.840576%, 88.48114%, 56.721497%)" offset="0.40625"/><stop stop-opacity="1" stop-color="rgb(92.654419%, 87.750244%, 55.749512%)" offset="0.410156"/><stop stop-opacity="1" stop-color="rgb(92.469788%, 87.019348%, 54.779053%)" offset="0.414063"/><stop stop-opacity="1" stop-color="rgb(92.123413%, 86.238098%, 53.81012%)" offset="0.417969"/><stop stop-opacity="1" stop-color="rgb(91.778564%, 85.456848%, 52.841187%)" offset="0.421875"/><stop stop-opacity="1" stop-color="rgb(91.387939%, 84.677124%, 51.716614%)" offset="0.425781"/><stop stop-opacity="1" stop-color="rgb(90.997314%, 83.8974%, 50.593567%)" offset="0.429688"/><stop stop-opacity="1" stop-color="rgb(90.606689%, 83.314514%, 49.421692%)" offset="0.433594"/><stop stop-opacity="1" stop-color="rgb(90.216064%, 82.733154%, 48.251343%)" offset="0.4375"/><stop stop-opacity="1" stop-color="rgb(89.775085%, 82.102966%, 47.180176%)" offset="0.441406"/><stop stop-opacity="1" stop-color="rgb(89.335632%, 81.472778%, 46.109009%)" offset="0.445312"/><stop stop-opacity="1" stop-color="rgb(88.945007%, 80.691528%, 45.137024%)" offset="0.449219"/><stop stop-opacity="1" stop-color="rgb(88.554382%, 79.910278%, 44.166565%)" offset="0.453125"/><stop stop-opacity="1" stop-color="rgb(88.026428%, 79.141235%, 43.057251%)" offset="0.457031"/><stop stop-opacity="1" stop-color="rgb(87.5%, 78.373718%, 41.947937%)" offset="0.460938"/><stop stop-opacity="1" stop-color="rgb(87.295532%, 77.833557%, 41.363525%)" offset="0.464844"/><stop stop-opacity="1" stop-color="rgb(87.09259%, 77.293396%, 40.78064%)" offset="0.46875"/><stop stop-opacity="1" stop-color="rgb(86.895752%, 76.902771%, 39.802551%)" offset="0.472656"/><stop stop-opacity="1" stop-color="rgb(86.698914%, 76.512146%, 38.824463%)" offset="0.476562"/><stop stop-opacity="1" stop-color="rgb(86.264038%, 75.671387%, 38.027954%)" offset="0.480469"/><stop stop-opacity="1" stop-color="rgb(85.830688%, 74.830627%, 37.231445%)" offset="0.484375"/><stop stop-opacity="1" stop-color="rgb(85.440063%, 74.440002%, 36.616516%)" offset="0.488281"/><stop stop-opacity="1" stop-color="rgb(85.050964%, 74.050903%, 36.001587%)" offset="0.492188"/><stop stop-opacity="1" stop-color="rgb(84.860229%, 73.660278%, 35.235596%)" offset="0.496094"/><stop stop-opacity="1" stop-color="rgb(84.669495%, 73.269653%, 34.469604%)" offset="0.5"/><stop stop-opacity="1" stop-color="rgb(84.283447%, 72.73407%, 34.072876%)" offset="0.503906"/><stop stop-opacity="1" stop-color="rgb(83.898926%, 72.198486%, 33.677673%)" offset="0.507812"/><stop stop-opacity="1" stop-color="rgb(83.703613%, 72.003174%, 33.091736%)" offset="0.511719"/><stop stop-opacity="1" stop-color="rgb(83.508301%, 71.807861%, 32.507324%)" offset="0.515625"/><stop stop-opacity="1" stop-color="rgb(83.303833%, 71.166992%, 31.916809%)" offset="0.519531"/><stop stop-opacity="1" stop-color="rgb(83.099365%, 70.526123%, 31.326294%)" offset="0.523438"/><stop stop-opacity="1" stop-color="rgb(82.899475%, 70.135498%, 30.735779%)" offset="0.527344"/><stop stop-opacity="1" stop-color="rgb(82.699585%, 69.746399%, 30.145264%)" offset="0.53125"/><stop stop-opacity="1" stop-color="rgb(82.548523%, 69.372559%, 29.754639%)" offset="0.535156"/><stop stop-opacity="1" stop-color="rgb(82.398987%, 68.998718%, 29.36554%)" offset="0.539062"/><stop stop-opacity="1" stop-color="rgb(82.199097%, 68.791199%, 28.974915%)" offset="0.542969"/><stop stop-opacity="1" stop-color="rgb(81.999207%, 68.583679%, 28.58429%)" offset="0.546875"/><stop stop-opacity="1" stop-color="rgb(81.999207%, 68.193054%, 28.193665%)" offset="0.550781"/><stop stop-opacity="1" stop-color="rgb(81.999207%, 67.803955%, 27.80304%)" offset="0.554688"/><stop stop-opacity="1" stop-color="rgb(81.610107%, 67.660522%, 27.462769%)" offset="0.558594"/><stop stop-opacity="1" stop-color="rgb(81.222534%, 67.51709%, 27.122498%)" offset="0.5625"/><stop stop-opacity="1" stop-color="rgb(81.010437%, 67.108154%, 26.681519%)" offset="0.566406"/><stop stop-opacity="1" stop-color="rgb(80.799866%, 66.699219%, 26.242065%)" offset="0.570312"/><stop stop-opacity="1" stop-color="rgb(80.799866%, 66.479492%, 25.85144%)" offset="0.574219"/><stop stop-opacity="1" stop-color="rgb(80.799866%, 66.261292%, 25.460815%)" offset="0.578125"/><stop stop-opacity="1" stop-color="rgb(80.789185%, 66.070557%, 25.270081%)" offset="0.585938"/><stop stop-opacity="1" stop-color="rgb(80.589294%, 65.689087%, 24.688721%)" offset="0.589844"/><stop stop-opacity="1" stop-color="rgb(80.39856%, 65.499878%, 24.299622%)" offset="0.59375"/><stop stop-opacity="1" stop-color="rgb(80.207825%, 65.309143%, 24.108887%)" offset="0.601562"/><stop stop-opacity="1" stop-color="rgb(80.007935%, 64.907837%, 23.677063%)" offset="0.605469"/><stop stop-opacity="1" stop-color="rgb(79.998779%, 64.698792%, 23.4375%)" offset="0.609375"/><stop stop-opacity="1" stop-color="rgb(79.977417%, 64.498901%, 23.246765%)" offset="0.613281"/><stop stop-opacity="1" stop-color="rgb(79.956055%, 64.299011%, 23.05603%)" offset="0.617188"/><stop stop-opacity="1" stop-color="rgb(79.777527%, 64.099121%, 22.868347%)" offset="0.621094"/><stop stop-opacity="1" stop-color="rgb(79.598999%, 63.899231%, 22.680664%)" offset="0.625"/><stop stop-opacity="1" stop-color="rgb(79.399109%, 63.699341%, 22.537231%)" offset="0.628906"/><stop stop-opacity="1" stop-color="rgb(79.199219%, 63.499451%, 22.393799%)" offset="0.632812"/><stop stop-opacity="1" stop-color="rgb(79.199219%, 63.499451%, 22.195435%)" offset="0.636719"/><stop stop-opacity="1" stop-color="rgb(79.199219%, 63.499451%, 21.998596%)" offset="0.640625"/><stop stop-opacity="1" stop-color="rgb(79.199219%, 63.465881%, 21.965027%)" offset="0.648438"/><stop stop-opacity="1" stop-color="rgb(78.999329%, 63.265991%, 21.742249%)" offset="0.652344"/><stop stop-opacity="1" stop-color="rgb(78.799438%, 63.09967%, 21.551514%)" offset="0.65625"/><stop stop-opacity="1" stop-color="rgb(78.799438%, 62.89978%, 21.374512%)" offset="0.660156"/><stop stop-opacity="1" stop-color="rgb(78.799438%, 62.69989%, 21.199036%)" offset="0.664062"/><stop stop-opacity="1" stop-color="rgb(78.799438%, 62.69989%, 21.199036%)" offset="0.671875"/><stop stop-opacity="1" stop-color="rgb(78.799438%, 62.69989%, 21.199036%)" offset="0.6875"/><stop stop-opacity="1" stop-color="rgb(78.799438%, 62.69989%, 20.999146%)" offset="0.691406"/><stop stop-opacity="1" stop-color="rgb(78.799438%, 62.69989%, 20.799255%)" offset="0.695312"/><stop stop-opacity="1" stop-color="rgb(78.799438%, 62.69989%, 20.799255%)" offset="0.703125"/><stop stop-opacity="1" stop-color="rgb(78.799438%, 62.69989%, 20.799255%)" offset="0.71875"/><stop stop-opacity="1" stop-color="rgb(78.799438%, 62.548828%, 20.770264%)" offset="0.734375"/><stop stop-opacity="1" stop-color="rgb(78.799438%, 62.399292%, 20.570374%)" offset="0.75"/><stop stop-opacity="1" stop-color="rgb(78.604126%, 62.203979%, 20.204163%)" offset="0.765625"/><stop stop-opacity="1" stop-color="rgb(78.404236%, 62.004089%, 20.004272%)" offset="0.773437"/><stop stop-opacity="1" stop-color="rgb(78.399658%, 61.988831%, 19.799805%)" offset="0.777344"/><stop stop-opacity="1" stop-color="rgb(78.399658%, 61.978149%, 19.599915%)" offset="0.78125"/><stop stop-opacity="1" stop-color="rgb(78.399658%, 61.78894%, 19.593811%)" offset="0.789062"/><stop stop-opacity="1" stop-color="rgb(78.399658%, 61.599731%, 19.392395%)" offset="0.796875"/><stop stop-opacity="1" stop-color="rgb(78.207397%, 61.407471%, 19.198608%)" offset="0.804687"/><stop stop-opacity="1" stop-color="rgb(78.007507%, 61.207581%, 19.198608%)" offset="0.8125"/><stop stop-opacity="1" stop-color="rgb(77.987671%, 61.187744%, 18.998718%)" offset="0.816406"/><stop stop-opacity="1" stop-color="rgb(77.97699%, 61.175537%, 18.798828%)" offset="0.820312"/><stop stop-opacity="1" stop-color="rgb(77.787781%, 60.986328%, 18.791199%)" offset="0.828125"/><stop stop-opacity="1" stop-color="rgb(77.598572%, 60.794067%, 18.591309%)" offset="0.835937"/><stop stop-opacity="1" stop-color="rgb(77.598572%, 60.594177%, 18.203735%)" offset="0.839844"/><stop stop-opacity="1" stop-color="rgb(77.598572%, 60.398865%, 18.009949%)" offset="0.84375"/><stop stop-opacity="1" stop-color="rgb(77.449036%, 60.398865%, 18.003845%)" offset="0.859375"/><stop stop-opacity="1" stop-color="rgb(77.2995%, 60.391235%, 17.991638%)" offset="0.867187"/><stop stop-opacity="1" stop-color="rgb(77.2995%, 60.191345%, 17.791748%)" offset="0.875"/><stop stop-opacity="1" stop-color="rgb(77.2995%, 59.999084%, 17.454529%)" offset="0.890625"/><stop stop-opacity="1" stop-color="rgb(77.099609%, 59.799194%, 17.303467%)" offset="0.894531"/><stop stop-opacity="1" stop-color="rgb(76.899719%, 59.599304%, 17.298889%)" offset="0.898437"/><stop stop-opacity="1" stop-color="rgb(76.899719%, 59.590149%, 17.289734%)" offset="0.90625"/><stop stop-opacity="1" stop-color="rgb(76.895142%, 59.390259%, 17.089844%)" offset="0.914062"/><stop stop-opacity="1" stop-color="rgb(76.695251%, 59.199524%, 16.899109%)" offset="0.921875"/><stop stop-opacity="1" stop-color="rgb(76.499939%, 59.008789%, 16.899109%)" offset="0.9375"/><stop stop-opacity="1" stop-color="rgb(76.499939%, 58.808899%, 16.699219%)" offset="0.941406"/><stop stop-opacity="1" stop-color="rgb(76.499939%, 58.799744%, 16.499329%)" offset="0.945312"/><stop stop-opacity="1" stop-color="rgb(76.499939%, 58.799744%, 16.499329%)" offset="0.953125"/><stop stop-opacity="1" stop-color="rgb(76.499939%, 58.798218%, 16.497803%)" offset="0.960938"/><stop stop-opacity="1" stop-color="rgb(76.499939%, 58.602905%, 16.30249%)" offset="0.96875"/><stop stop-opacity="1" stop-color="rgb(76.307678%, 58.403015%, 16.1026%)" offset="0.976562"/><stop stop-opacity="1" stop-color="rgb(76.107788%, 58.399963%, 16.087341%)" offset="0.984375"/><stop stop-opacity="1" stop-color="rgb(76.098633%, 58.392334%, 15.887451%)" offset="0.992188"/><stop stop-opacity="1" stop-color="rgb(76.098633%, 58.192444%, 15.699768%)" offset="1"/></linearGradient></defs><rect x="-37.5" width="450" fill="#ffffff" y="-37.499999" height="449.999989" fill-opacity="1"/><rect x="-37.5" width="450" fill="#ffffff" y="-37.499999" height="449.999989" fill-opacity="1"/><rect x="-37.5" width="450" fill="#2a2e30" y="-37.499999" height="449.999989" fill-opacity="1"/><g clip-path="url(#23b1f2e70c)"><g clip-path="url(#e376e4659b)"><g clip-path="url(#6699d9b16b)"><g clip-path="url(#d1ebd29b0a)"><path fill="url(#6d7ca4978a)" d="M 312.671875 138.277344 L 174.125 2.910156 L 38.285156 141.941406 L 176.832031 277.308594 Z M 312.671875 138.277344 " fill-rule="nonzero"/></g></g></g></g><g clip-path="url(#20dfc2beaf)"><g clip-path="url(#d68c44dbb1)"><g clip-path="url(#656a31140b)"><g clip-path="url(#e1ff32cf00)"><path fill="url(#b18e7c4269)" d="M 364.378906 154.945312 L 194.3125 -28.46875 L 10.894531 141.597656 L 180.960938 325.011719 Z M 364.378906 154.945312 " fill-rule="nonzero"/></g></g></g></g><g fill="#c9a035" fill-opacity="1"><g transform="translate(95.684767, 284.340039)"><g><path d="M 13.417969 0 C 17.730469 0 20.898438 -0.632812 22.796875 -1.898438 C 24.695312 -3.125 25.644531 -4.867188 25.644531 -7.085938 C 25.644531 -10.882812 21.964844 -13.179688 18.757812 -13.890625 C 17.492188 -14.167969 15.988281 -14.289062 14.683594 -14.484375 C 14.722656 -14.484375 14.761719 -14.523438 14.839844 -14.523438 C 14.960938 -14.523438 15.078125 -14.523438 15.199219 -14.566406 C 15.75 -14.605469 16.304688 -14.644531 16.859375 -14.761719 C 17.019531 -14.761719 17.214844 -14.800781 17.375 -14.839844 C 19.710938 -15.277344 22.242188 -16.226562 23.230469 -18.601562 C 24.101562 -20.621094 23.3125 -23.230469 21.449219 -24.5 C 19.945312 -25.527344 17.890625 -25.960938 16.1875 -26.160156 C 15 -26.320312 13.8125 -26.359375 12.625 -26.359375 L 1.980469 -26.359375 L 1.980469 -26.042969 C 1.980469 -26.042969 4.394531 -26.359375 4.394531 -24.539062 L 4.394531 -1.820312 C 4.394531 0 1.980469 -0.277344 1.980469 -0.277344 L 1.980469 0 Z M 12.625 -25.726562 C 13.535156 -25.726562 14.367188 -25.449219 15.15625 -24.972656 C 15.949219 -24.457031 16.582031 -23.785156 17.058594 -22.875 C 17.53125 -22.003906 17.769531 -20.976562 17.769531 -19.828125 C 17.769531 -18.800781 17.53125 -17.808594 16.980469 -16.980469 C 16.464844 -16.148438 15.710938 -15.515625 14.722656 -15.15625 C 14.089844 -14.960938 13.296875 -14.800781 12.625 -14.800781 L 10.644531 -14.800781 L 10.644531 -25.726562 Z M 13.417969 -14.167969 C 15.117188 -14.167969 16.503906 -13.574219 17.574219 -12.425781 C 18.640625 -11.28125 19.195312 -9.0625 19.195312 -7.085938 C 19.195312 -5.105469 18.640625 -3.523438 17.574219 -2.375 C 16.503906 -1.226562 15.117188 -0.632812 13.417969 -0.632812 L 10.644531 -0.632812 L 10.644531 -14.167969 Z M 13.417969 -14.167969 "/></g></g></g><g fill="#c9a035" fill-opacity="1"><g transform="translate(127.542891, 284.340039)"><g><path d="M 23.863281 0 L 23.863281 -5.898438 L 23.429688 -5.898438 C 23.429688 -0.199219 20.066406 -0.632812 20.066406 -0.632812 L 10.644531 -0.632812 L 10.644531 -12.742188 L 15.476562 -12.742188 C 16.109375 -12.703125 17.730469 -12.269531 17.730469 -8.90625 L 18.125 -8.90625 L 18.125 -17.253906 L 17.730469 -17.253906 C 17.730469 -13.890625 16.109375 -13.457031 15.476562 -13.378906 L 10.644531 -13.378906 L 10.644531 -25.726562 L 19.234375 -25.726562 C 19.234375 -25.726562 22.636719 -26.160156 22.636719 -20.460938 L 23.035156 -20.460938 L 23.035156 -26.359375 L 1.980469 -26.359375 L 1.980469 -26.042969 C 1.980469 -26.042969 4.355469 -26.359375 4.355469 -23.90625 L 4.355469 -2.453125 C 4.355469 0 1.980469 -0.277344 1.980469 -0.277344 L 1.980469 0 Z M 23.863281 0 "/></g></g></g><g fill="#c9a035" fill-opacity="1"><g transform="translate(158.015913, 284.340039)"><g><path d="M 6.253906 -0.355469 C 6.253906 -0.355469 2.730469 -0.316406 3.285156 -1.703125 C 3.761719 -2.847656 6.726562 -9.777344 6.726562 -9.777344 L 14.128906 -9.777344 C 15 -7.796875 16.503906 -3.71875 17.890625 -2.058594 C 19.988281 0.476562 23.628906 -0.0390625 26.554688 -0.0390625 L 27.664062 -0.0390625 L 27.664062 -0.355469 C 27.664062 -0.355469 26.398438 -0.355469 25.527344 -1.109375 C 23.507812 -2.847656 14.011719 -25.960938 13.695312 -26.753906 L 13.695312 -26.792969 L 13.335938 -26.792969 L 2.414062 -1.703125 C 1.859375 -0.394531 -0.832031 -0.355469 -0.832031 -0.355469 L -0.832031 -0.0390625 L 6.253906 -0.0390625 Z M 13.851562 -10.410156 L 7.003906 -10.410156 L 10.527344 -18.441406 Z M 13.851562 -10.410156 "/></g></g></g><g fill="#c9a035" fill-opacity="1"><g transform="translate(189.874037, 284.340039)"><g><path d="M 15.554688 0.277344 C 17.253906 0.277344 18.839844 -0.117188 20.183594 -0.910156 C 21.53125 -1.703125 22.597656 -2.890625 23.390625 -4.355469 C 24.183594 -5.859375 24.578125 -7.636719 24.578125 -9.65625 L 24.578125 -23.945312 C 24.578125 -26.636719 27.507812 -26.320312 27.507812 -26.320312 L 27.507812 -26.636719 L 20.5 -26.636719 L 20.5 -26.359375 C 20.5 -26.359375 23.707031 -26.597656 23.707031 -23.945312 L 23.707031 -9.65625 C 23.707031 -7.796875 23.351562 -6.175781 22.679688 -4.789062 C 21.964844 -3.363281 21.054688 -2.257812 19.945312 -1.503906 C 18.800781 -0.753906 17.613281 -0.355469 16.34375 -0.355469 C 14.289062 -0.355469 12.703125 -1.109375 11.597656 -2.53125 C 10.527344 -3.957031 9.972656 -6.371094 9.972656 -9.65625 L 9.972656 -24.183594 C 9.972656 -26.636719 12.386719 -26.359375 12.386719 -26.359375 L 12.386719 -26.636719 L 1.304688 -26.636719 L 1.304688 -26.359375 C 1.304688 -26.359375 3.679688 -26.636719 3.679688 -24.183594 L 3.679688 -9.65625 C 3.679688 -6.53125 4.710938 -4.035156 6.6875 -2.335938 C 8.667969 -0.59375 11.636719 0.277344 15.554688 0.277344 Z M 15.554688 0.277344 "/></g></g></g><g fill="#c9a035" fill-opacity="1"><g transform="translate(222.919382, 284.340039)"><g><path d="M 18.046875 0 L 18.046875 -0.277344 C 18.046875 -0.277344 17.136719 -0.199219 16.464844 -0.671875 L 16.425781 -0.671875 L 16.265625 -0.792969 C 16.265625 -0.832031 16.226562 -0.832031 16.226562 -0.832031 L 16.109375 -0.988281 L 16.027344 -1.070312 C 15.988281 -1.109375 15.988281 -1.148438 15.949219 -1.226562 L 15.871094 -1.304688 C 15.871094 -1.386719 15.832031 -1.425781 15.832031 -1.464844 C 15.792969 -1.542969 15.792969 -1.582031 15.75 -1.621094 C 15.75 -1.664062 15.75 -1.742188 15.710938 -1.78125 C 15.710938 -1.859375 15.671875 -1.9375 15.671875 -1.980469 L 15.671875 -2.175781 C 15.671875 -2.257812 15.632812 -2.335938 15.632812 -2.453125 L 15.632812 -23.90625 C 15.632812 -24.894531 16.027344 -25.410156 16.503906 -25.726562 L 20.105469 -25.726562 C 20.105469 -25.726562 23.507812 -26.160156 23.507812 -20.460938 L 23.90625 -20.460938 L 23.90625 -26.359375 L 1.109375 -26.359375 L 1.109375 -20.460938 L 1.503906 -20.460938 C 1.503906 -26.160156 4.90625 -25.726562 4.90625 -25.726562 L 8.507812 -25.726562 C 8.984375 -25.410156 9.378906 -24.894531 9.378906 -23.90625 L 9.378906 -2.453125 C 9.378906 -2.335938 9.339844 -2.257812 9.339844 -2.175781 L 9.339844 -1.980469 C 9.339844 -1.9375 9.300781 -1.859375 9.300781 -1.78125 L 9.261719 -1.621094 C 9.222656 -1.582031 9.222656 -1.542969 9.183594 -1.464844 C 9.183594 -1.425781 9.140625 -1.386719 9.140625 -1.304688 L 9.0625 -1.226562 C 9.023438 -1.148438 9.023438 -1.109375 8.984375 -1.070312 L 8.90625 -0.988281 L 8.785156 -0.832031 C 8.785156 -0.832031 8.746094 -0.832031 8.746094 -0.792969 L 8.589844 -0.671875 L 8.546875 -0.671875 C 7.875 -0.199219 6.964844 -0.277344 6.964844 -0.277344 L 6.964844 0 Z M 18.046875 0 "/></g></g></g><g fill="#c9a035" fill-opacity="1"><g transform="translate(252.996662, 284.340039)"><g><path d="M 18.917969 -0.277344 C 18.917969 -0.277344 16.503906 0 16.503906 -2.453125 L 16.503906 -14.289062 L 22.242188 -25.09375 C 22.796875 -26.359375 25.488281 -26.4375 25.488281 -26.4375 L 25.488281 -26.714844 L 18.402344 -26.714844 L 18.402344 -26.4375 C 18.402344 -26.4375 21.964844 -26.476562 21.371094 -25.09375 C 20.898438 -23.945312 15.871094 -14.683594 15.871094 -14.683594 C 15.871094 -14.683594 11.554688 -23.035156 10.171875 -24.734375 C 8.074219 -27.269531 4.433594 -26.753906 1.503906 -26.714844 L 0.394531 -26.714844 L 0.394531 -26.4375 C 0.394531 -26.4375 1.664062 -26.398438 2.53125 -25.644531 C 3.679688 -24.65625 10.210938 -12.269531 10.210938 -12.269531 L 10.210938 -2.453125 C 10.210938 0 7.835938 -0.277344 7.835938 -0.277344 L 7.835938 0 L 18.917969 0 Z M 18.917969 -0.277344 "/></g></g></g><g fill="#c9a035" fill-opacity="1"><g transform="translate(119.782661, 304.131866)"><g><path d="M 5.515625 -5.0625 C 5.515625 -4.332031 5.265625 -3.773438 4.765625 -3.390625 C 4.273438 -3.003906 3.570312 -2.8125 2.65625 -2.8125 L 1.8125 -2.8125 L 1.8125 0 L 0.984375 0 L 0.984375 -7.140625 L 2.828125 -7.140625 C 4.617188 -7.140625 5.515625 -6.445312 5.515625 -5.0625 Z M 1.8125 -3.515625 L 2.5625 -3.515625 C 3.289062 -3.515625 3.820312 -3.632812 4.15625 -3.875 C 4.488281 -4.113281 4.65625 -4.492188 4.65625 -5.015625 C 4.65625 -5.492188 4.5 -5.847656 4.1875 -6.078125 C 3.875 -6.304688 3.390625 -6.421875 2.734375 -6.421875 L 1.8125 -6.421875 Z M 1.8125 -3.515625 "/></g></g></g><g fill="#c9a035" fill-opacity="1"><g transform="translate(126.42084, 304.131866)"><g><path d="M 3.296875 -5.453125 C 3.535156 -5.453125 3.75 -5.429688 3.9375 -5.390625 L 3.828125 -4.640625 C 3.609375 -4.691406 3.414062 -4.71875 3.25 -4.71875 C 2.8125 -4.71875 2.4375 -4.539062 2.125 -4.1875 C 1.820312 -3.832031 1.671875 -3.394531 1.671875 -2.875 L 1.671875 0 L 0.859375 0 L 0.859375 -5.359375 L 1.53125 -5.359375 L 1.625 -4.359375 L 1.65625 -4.359375 C 1.851562 -4.710938 2.09375 -4.984375 2.375 -5.171875 C 2.65625 -5.359375 2.960938 -5.453125 3.296875 -5.453125 Z M 3.296875 -5.453125 "/></g></g></g><g fill="#c9a035" fill-opacity="1"><g transform="translate(131.121294, 304.131866)"><g><path d="M 3.125 0.09375 C 2.332031 0.09375 1.707031 -0.144531 1.25 -0.625 C 0.789062 -1.101562 0.5625 -1.769531 0.5625 -2.625 C 0.5625 -3.488281 0.773438 -4.175781 1.203125 -4.6875 C 1.628906 -5.195312 2.195312 -5.453125 2.90625 -5.453125 C 3.582031 -5.453125 4.113281 -5.226562 4.5 -4.78125 C 4.894531 -4.34375 5.09375 -3.765625 5.09375 -3.046875 L 5.09375 -2.53125 L 1.40625 -2.53125 C 1.414062 -1.90625 1.570312 -1.425781 1.875 -1.09375 C 2.175781 -0.769531 2.601562 -0.609375 3.15625 -0.609375 C 3.726562 -0.609375 4.296875 -0.726562 4.859375 -0.96875 L 4.859375 -0.25 C 4.566406 -0.125 4.289062 -0.0351562 4.03125 0.015625 C 3.78125 0.0664062 3.476562 0.09375 3.125 0.09375 Z M 2.90625 -4.765625 C 2.46875 -4.765625 2.117188 -4.625 1.859375 -4.34375 C 1.609375 -4.070312 1.460938 -3.6875 1.421875 -3.1875 L 4.21875 -3.1875 C 4.21875 -3.695312 4.101562 -4.085938 3.875 -4.359375 C 3.644531 -4.628906 3.320312 -4.765625 2.90625 -4.765625 Z M 2.90625 -4.765625 "/></g></g></g><g fill="#c9a035" fill-opacity="1"><g transform="translate(137.349476, 304.131866)"><g><path d="M 7.6875 0 L 7.6875 -3.484375 C 7.6875 -3.910156 7.59375 -4.226562 7.40625 -4.4375 C 7.226562 -4.65625 6.945312 -4.765625 6.5625 -4.765625 C 6.050781 -4.765625 5.675781 -4.617188 5.4375 -4.328125 C 5.195312 -4.035156 5.078125 -3.585938 5.078125 -2.984375 L 5.078125 0 L 4.265625 0 L 4.265625 -3.484375 C 4.265625 -3.910156 4.171875 -4.226562 3.984375 -4.4375 C 3.804688 -4.65625 3.523438 -4.765625 3.140625 -4.765625 C 2.628906 -4.765625 2.253906 -4.609375 2.015625 -4.296875 C 1.785156 -3.992188 1.671875 -3.5 1.671875 -2.8125 L 1.671875 0 L 0.859375 0 L 0.859375 -5.359375 L 1.515625 -5.359375 L 1.65625 -4.625 L 1.6875 -4.625 C 1.84375 -4.882812 2.054688 -5.085938 2.328125 -5.234375 C 2.609375 -5.378906 2.921875 -5.453125 3.265625 -5.453125 C 4.109375 -5.453125 4.65625 -5.148438 4.90625 -4.546875 L 4.953125 -4.546875 C 5.109375 -4.828125 5.335938 -5.046875 5.640625 -5.203125 C 5.941406 -5.367188 6.289062 -5.453125 6.6875 -5.453125 C 7.289062 -5.453125 7.738281 -5.296875 8.03125 -4.984375 C 8.332031 -4.671875 8.484375 -4.171875 8.484375 -3.484375 L 8.484375 0 Z M 7.6875 0 "/></g></g></g><g fill="#c9a035" fill-opacity="1"><g transform="translate(147.267623, 304.131866)"><g><path d="M 1.671875 0 L 0.859375 0 L 0.859375 -5.359375 L 1.671875 -5.359375 Z M 0.796875 -6.796875 C 0.796875 -6.984375 0.835938 -7.117188 0.921875 -7.203125 C 1.015625 -7.296875 1.128906 -7.34375 1.265625 -7.34375 C 1.398438 -7.34375 1.515625 -7.296875 1.609375 -7.203125 C 1.703125 -7.117188 1.75 -6.984375 1.75 -6.796875 C 1.75 -6.617188 1.703125 -6.484375 1.609375 -6.390625 C 1.515625 -6.304688 1.398438 -6.265625 1.265625 -6.265625 C 1.128906 -6.265625 1.015625 -6.304688 0.921875 -6.390625 C 0.835938 -6.484375 0.796875 -6.617188 0.796875 -6.796875 Z M 0.796875 -6.796875 "/></g></g></g><g fill="#c9a035" fill-opacity="1"><g transform="translate(150.41595, 304.131866)"><g><path d="M 1.625 -5.359375 L 1.625 -1.875 C 1.625 -1.4375 1.722656 -1.109375 1.921875 -0.890625 C 2.117188 -0.679688 2.429688 -0.578125 2.859375 -0.578125 C 3.410156 -0.578125 3.816406 -0.726562 4.078125 -1.03125 C 4.335938 -1.34375 4.46875 -1.847656 4.46875 -2.546875 L 4.46875 -5.359375 L 5.28125 -5.359375 L 5.28125 0 L 4.609375 0 L 4.5 -0.71875 L 4.453125 -0.71875 C 4.285156 -0.457031 4.050781 -0.253906 3.75 -0.109375 C 3.457031 0.0234375 3.125 0.09375 2.75 0.09375 C 2.09375 0.09375 1.601562 -0.0546875 1.28125 -0.359375 C 0.957031 -0.671875 0.796875 -1.164062 0.796875 -1.84375 L 0.796875 -5.359375 Z M 1.625 -5.359375 "/></g></g></g><g fill="#c9a035" fill-opacity="1"><g transform="translate(157.171271, 304.131866)"><g><path d="M 7.6875 0 L 7.6875 -3.484375 C 7.6875 -3.910156 7.59375 -4.226562 7.40625 -4.4375 C 7.226562 -4.65625 6.945312 -4.765625 6.5625 -4.765625 C 6.050781 -4.765625 5.675781 -4.617188 5.4375 -4.328125 C 5.195312 -4.035156 5.078125 -3.585938 5.078125 -2.984375 L 5.078125 0 L 4.265625 0 L 4.265625 -3.484375 C 4.265625 -3.910156 4.171875 -4.226562 3.984375 -4.4375 C 3.804688 -4.65625 3.523438 -4.765625 3.140625 -4.765625 C 2.628906 -4.765625 2.253906 -4.609375 2.015625 -4.296875 C 1.785156 -3.992188 1.671875 -3.5 1.671875 -2.8125 L 1.671875 0 L 0.859375 0 L 0.859375 -5.359375 L 1.515625 -5.359375 L 1.65625 -4.625 L 1.6875 -4.625 C 1.84375 -4.882812 2.054688 -5.085938 2.328125 -5.234375 C 2.609375 -5.378906 2.921875 -5.453125 3.265625 -5.453125 C 4.109375 -5.453125 4.65625 -5.148438 4.90625 -4.546875 L 4.953125 -4.546875 C 5.109375 -4.828125 5.335938 -5.046875 5.640625 -5.203125 C 5.941406 -5.367188 6.289062 -5.453125 6.6875 -5.453125 C 7.289062 -5.453125 7.738281 -5.296875 8.03125 -4.984375 C 8.332031 -4.671875 8.484375 -4.171875 8.484375 -3.484375 L 8.484375 0 Z M 7.6875 0 "/></g></g></g><g fill="#c9a035" fill-opacity="1"><g transform="translate(167.089418, 304.131866)"><g/></g></g><g fill="#c9a035" fill-opacity="1"><g transform="translate(170.306075, 304.131866)"><g><path d="M 2.875 -0.578125 C 3.414062 -0.578125 3.8125 -0.722656 4.0625 -1.015625 C 4.3125 -1.304688 4.441406 -1.796875 4.453125 -2.484375 L 4.453125 -2.65625 C 4.453125 -3.40625 4.328125 -3.941406 4.078125 -4.265625 C 3.828125 -4.597656 3.425781 -4.765625 2.875 -4.765625 C 2.394531 -4.765625 2.03125 -4.578125 1.78125 -4.203125 C 1.53125 -3.835938 1.40625 -3.320312 1.40625 -2.65625 C 1.40625 -1.976562 1.53125 -1.460938 1.78125 -1.109375 C 2.03125 -0.753906 2.394531 -0.578125 2.875 -0.578125 Z M 2.765625 0.09375 C 2.066406 0.09375 1.523438 -0.144531 1.140625 -0.625 C 0.753906 -1.113281 0.5625 -1.789062 0.5625 -2.65625 C 0.5625 -3.53125 0.753906 -4.210938 1.140625 -4.703125 C 1.535156 -5.203125 2.082031 -5.453125 2.78125 -5.453125 C 3.507812 -5.453125 4.070312 -5.175781 4.46875 -4.625 L 4.515625 -4.625 L 4.625 -5.359375 L 5.265625 -5.359375 L 5.265625 2.40625 L 4.453125 2.40625 L 4.453125 0.109375 C 4.453125 -0.210938 4.472656 -0.488281 4.515625 -0.71875 L 4.453125 -0.71875 C 4.078125 -0.175781 3.515625 0.09375 2.765625 0.09375 Z M 2.765625 0.09375 "/></g></g></g><g fill="#c9a035" fill-opacity="1"><g transform="translate(177.051634, 304.131866)"><g><path d="M 1.625 -5.359375 L 1.625 -1.875 C 1.625 -1.4375 1.722656 -1.109375 1.921875 -0.890625 C 2.117188 -0.679688 2.429688 -0.578125 2.859375 -0.578125 C 3.410156 -0.578125 3.816406 -0.726562 4.078125 -1.03125 C 4.335938 -1.34375 4.46875 -1.847656 4.46875 -2.546875 L 4.46875 -5.359375 L 5.28125 -5.359375 L 5.28125 0 L 4.609375 0 L 4.5 -0.71875 L 4.453125 -0.71875 C 4.285156 -0.457031 4.050781 -0.253906 3.75 -0.109375 C 3.457031 0.0234375 3.125 0.09375 2.75 0.09375 C 2.09375 0.09375 1.601562 -0.0546875 1.28125 -0.359375 C 0.957031 -0.671875 0.796875 -1.164062 0.796875 -1.84375 L 0.796875 -5.359375 Z M 1.625 -5.359375 "/></g></g></g><g fill="#c9a035" fill-opacity="1"><g transform="translate(183.806955, 304.131866)"><g><path d="M 4.15625 0 L 3.984375 -0.765625 L 3.953125 -0.765625 C 3.679688 -0.429688 3.410156 -0.203125 3.140625 -0.078125 C 2.878906 0.0351562 2.550781 0.09375 2.15625 0.09375 C 1.625 0.09375 1.207031 -0.0390625 0.90625 -0.3125 C 0.601562 -0.582031 0.453125 -0.972656 0.453125 -1.484375 C 0.453125 -2.554688 1.316406 -3.117188 3.046875 -3.171875 L 3.953125 -3.203125 L 3.953125 -3.546875 C 3.953125 -3.960938 3.863281 -4.269531 3.6875 -4.46875 C 3.507812 -4.664062 3.222656 -4.765625 2.828125 -4.765625 C 2.378906 -4.765625 1.875 -4.628906 1.3125 -4.359375 L 1.0625 -4.984375 C 1.320312 -5.128906 1.609375 -5.238281 1.921875 -5.3125 C 2.234375 -5.394531 2.550781 -5.4375 2.875 -5.4375 C 3.507812 -5.4375 3.976562 -5.296875 4.28125 -5.015625 C 4.59375 -4.734375 4.75 -4.28125 4.75 -3.65625 L 4.75 0 Z M 2.3125 -0.578125 C 2.820312 -0.578125 3.21875 -0.710938 3.5 -0.984375 C 3.789062 -1.265625 3.9375 -1.65625 3.9375 -2.15625 L 3.9375 -2.625 L 3.125 -2.59375 C 2.476562 -2.570312 2.015625 -2.472656 1.734375 -2.296875 C 1.453125 -2.117188 1.3125 -1.84375 1.3125 -1.46875 C 1.3125 -1.175781 1.398438 -0.953125 1.578125 -0.796875 C 1.753906 -0.648438 2 -0.578125 2.3125 -0.578125 Z M 2.3125 -0.578125 "/></g></g></g><g fill="#c9a035" fill-opacity="1"><g transform="translate(189.986329, 304.131866)"><g><path d="M 1.671875 0 L 0.859375 0 L 0.859375 -7.59375 L 1.671875 -7.59375 Z M 1.671875 0 "/></g></g></g><g fill="#c9a035" fill-opacity="1"><g transform="translate(193.134656, 304.131866)"><g><path d="M 1.671875 0 L 0.859375 0 L 0.859375 -5.359375 L 1.671875 -5.359375 Z M 0.796875 -6.796875 C 0.796875 -6.984375 0.835938 -7.117188 0.921875 -7.203125 C 1.015625 -7.296875 1.128906 -7.34375 1.265625 -7.34375 C 1.398438 -7.34375 1.515625 -7.296875 1.609375 -7.203125 C 1.703125 -7.117188 1.75 -6.984375 1.75 -6.796875 C 1.75 -6.617188 1.703125 -6.484375 1.609375 -6.390625 C 1.515625 -6.304688 1.398438 -6.265625 1.265625 -6.265625 C 1.128906 -6.265625 1.015625 -6.304688 0.921875 -6.390625 C 0.835938 -6.484375 0.796875 -6.617188 0.796875 -6.796875 Z M 0.796875 -6.796875 "/></g></g></g><g fill="#c9a035" fill-opacity="1"><g transform="translate(196.282983, 304.131866)"><g><path d="M 2.59375 -0.578125 C 2.726562 -0.578125 2.863281 -0.585938 3 -0.609375 C 3.132812 -0.628906 3.242188 -0.648438 3.328125 -0.671875 L 3.328125 -0.046875 C 3.234375 -0.00390625 3.097656 0.0234375 2.921875 0.046875 C 2.753906 0.078125 2.601562 0.09375 2.46875 0.09375 C 1.4375 0.09375 0.921875 -0.445312 0.921875 -1.53125 L 0.921875 -4.71875 L 0.15625 -4.71875 L 0.15625 -5.109375 L 0.921875 -5.453125 L 1.265625 -6.59375 L 1.734375 -6.59375 L 1.734375 -5.359375 L 3.28125 -5.359375 L 3.28125 -4.71875 L 1.734375 -4.71875 L 1.734375 -1.578125 C 1.734375 -1.253906 1.804688 -1.003906 1.953125 -0.828125 C 2.109375 -0.660156 2.320312 -0.578125 2.59375 -0.578125 Z M 2.59375 -0.578125 "/></g></g></g><g fill="#c9a035" fill-opacity="1"><g transform="translate(200.4319, 304.131866)"><g><path d="M 0.015625 -5.359375 L 0.875 -5.359375 L 2.046875 -2.296875 C 2.304688 -1.597656 2.46875 -1.097656 2.53125 -0.796875 L 2.5625 -0.796875 C 2.601562 -0.960938 2.691406 -1.242188 2.828125 -1.640625 C 2.960938 -2.046875 3.40625 -3.285156 4.15625 -5.359375 L 5.03125 -5.359375 L 2.734375 0.75 C 2.503906 1.34375 2.234375 1.765625 1.921875 2.015625 C 1.617188 2.273438 1.25 2.40625 0.8125 2.40625 C 0.5625 2.40625 0.316406 2.375 0.078125 2.3125 L 0.078125 1.671875 C 0.253906 1.710938 0.453125 1.734375 0.671875 1.734375 C 1.234375 1.734375 1.632812 1.421875 1.875 0.796875 L 2.171875 0.03125 Z M 0.015625 -5.359375 "/></g></g></g><g fill="#c9a035" fill-opacity="1"><g transform="translate(206.089012, 304.131866)"><g/></g></g><g fill="#c9a035" fill-opacity="1"><g transform="translate(209.305672, 304.131866)"><g><path d="M 3.34375 0.09375 C 3 0.09375 2.679688 0.03125 2.390625 -0.09375 C 2.109375 -0.21875 1.867188 -0.414062 1.671875 -0.6875 L 1.609375 -0.6875 C 1.648438 -0.375 1.671875 -0.078125 1.671875 0.203125 L 1.671875 2.40625 L 0.859375 2.40625 L 0.859375 -5.359375 L 1.515625 -5.359375 L 1.625 -4.625 L 1.671875 -4.625 C 1.878906 -4.914062 2.117188 -5.125 2.390625 -5.25 C 2.671875 -5.382812 2.988281 -5.453125 3.34375 -5.453125 C 4.0625 -5.453125 4.613281 -5.207031 5 -4.71875 C 5.382812 -4.238281 5.578125 -3.5625 5.578125 -2.6875 C 5.578125 -1.800781 5.378906 -1.113281 4.984375 -0.625 C 4.585938 -0.144531 4.039062 0.09375 3.34375 0.09375 Z M 3.234375 -4.765625 C 2.679688 -4.765625 2.285156 -4.613281 2.046875 -4.3125 C 1.804688 -4.007812 1.679688 -3.523438 1.671875 -2.859375 L 1.671875 -2.6875 C 1.671875 -1.925781 1.796875 -1.382812 2.046875 -1.0625 C 2.296875 -0.738281 2.695312 -0.578125 3.25 -0.578125 C 3.71875 -0.578125 4.082031 -0.765625 4.34375 -1.140625 C 4.601562 -1.515625 4.734375 -2.03125 4.734375 -2.6875 C 4.734375 -3.351562 4.601562 -3.863281 4.34375 -4.21875 C 4.082031 -4.582031 3.710938 -4.765625 3.234375 -4.765625 Z M 3.234375 -4.765625 "/></g></g></g><g fill="#c9a035" fill-opacity="1"><g transform="translate(216.051225, 304.131866)"><g><path d="M 3.296875 -5.453125 C 3.535156 -5.453125 3.75 -5.429688 3.9375 -5.390625 L 3.828125 -4.640625 C 3.609375 -4.691406 3.414062 -4.71875 3.25 -4.71875 C 2.8125 -4.71875 2.4375 -4.539062 2.125 -4.1875 C 1.820312 -3.832031 1.671875 -3.394531 1.671875 -2.875 L 1.671875 0 L 0.859375 0 L 0.859375 -5.359375 L 1.53125 -5.359375 L 1.625 -4.359375 L 1.65625 -4.359375 C 1.851562 -4.710938 2.09375 -4.984375 2.375 -5.171875 C 2.65625 -5.359375 2.960938 -5.453125 3.296875 -5.453125 Z M 3.296875 -5.453125 "/></g></g></g><g fill="#c9a035" fill-opacity="1"><g transform="translate(220.75168, 304.131866)"><g><path d="M 5.484375 -2.6875 C 5.484375 -1.8125 5.257812 -1.128906 4.8125 -0.640625 C 4.375 -0.148438 3.769531 0.09375 3 0.09375 C 2.519531 0.09375 2.09375 -0.015625 1.71875 -0.234375 C 1.351562 -0.460938 1.066406 -0.785156 0.859375 -1.203125 C 0.660156 -1.628906 0.5625 -2.125 0.5625 -2.6875 C 0.5625 -3.550781 0.78125 -4.226562 1.21875 -4.71875 C 1.65625 -5.207031 2.257812 -5.453125 3.03125 -5.453125 C 3.78125 -5.453125 4.375 -5.203125 4.8125 -4.703125 C 5.257812 -4.203125 5.484375 -3.53125 5.484375 -2.6875 Z M 1.40625 -2.6875 C 1.40625 -2 1.539062 -1.472656 1.8125 -1.109375 C 2.082031 -0.753906 2.484375 -0.578125 3.015625 -0.578125 C 3.546875 -0.578125 3.945312 -0.753906 4.21875 -1.109375 C 4.5 -1.472656 4.640625 -2 4.640625 -2.6875 C 4.640625 -3.363281 4.5 -3.878906 4.21875 -4.234375 C 3.945312 -4.585938 3.546875 -4.765625 3.015625 -4.765625 C 2.484375 -4.765625 2.082031 -4.585938 1.8125 -4.234375 C 1.539062 -3.890625 1.40625 -3.375 1.40625 -2.6875 Z M 1.40625 -2.6875 "/></g></g></g><g fill="#c9a035" fill-opacity="1"><g transform="translate(227.409383, 304.131866)"><g><path d="M 4.5 -0.71875 L 4.453125 -0.71875 C 4.078125 -0.175781 3.519531 0.09375 2.78125 0.09375 C 2.082031 0.09375 1.535156 -0.144531 1.140625 -0.625 C 0.753906 -1.101562 0.5625 -1.78125 0.5625 -2.65625 C 0.5625 -3.539062 0.753906 -4.226562 1.140625 -4.71875 C 1.535156 -5.207031 2.082031 -5.453125 2.78125 -5.453125 C 3.507812 -5.453125 4.066406 -5.1875 4.453125 -4.65625 L 4.515625 -4.65625 L 4.484375 -5.046875 L 4.453125 -5.421875 L 4.453125 -7.59375 L 5.265625 -7.59375 L 5.265625 0 L 4.609375 0 Z M 2.875 -0.578125 C 3.4375 -0.578125 3.835938 -0.726562 4.078125 -1.03125 C 4.328125 -1.332031 4.453125 -1.816406 4.453125 -2.484375 L 4.453125 -2.65625 C 4.453125 -3.414062 4.328125 -3.957031 4.078125 -4.28125 C 3.828125 -4.601562 3.425781 -4.765625 2.875 -4.765625 C 2.394531 -4.765625 2.03125 -4.578125 1.78125 -4.203125 C 1.53125 -3.835938 1.40625 -3.320312 1.40625 -2.65625 C 1.40625 -1.96875 1.53125 -1.445312 1.78125 -1.09375 C 2.03125 -0.75 2.394531 -0.578125 2.875 -0.578125 Z M 2.875 -0.578125 "/></g></g></g><g fill="#c9a035" fill-opacity="1"><g transform="translate(234.154942, 304.131866)"><g><path d="M 1.625 -5.359375 L 1.625 -1.875 C 1.625 -1.4375 1.722656 -1.109375 1.921875 -0.890625 C 2.117188 -0.679688 2.429688 -0.578125 2.859375 -0.578125 C 3.410156 -0.578125 3.816406 -0.726562 4.078125 -1.03125 C 4.335938 -1.34375 4.46875 -1.847656 4.46875 -2.546875 L 4.46875 -5.359375 L 5.28125 -5.359375 L 5.28125 0 L 4.609375 0 L 4.5 -0.71875 L 4.453125 -0.71875 C 4.285156 -0.457031 4.050781 -0.253906 3.75 -0.109375 C 3.457031 0.0234375 3.125 0.09375 2.75 0.09375 C 2.09375 0.09375 1.601562 -0.0546875 1.28125 -0.359375 C 0.957031 -0.671875 0.796875 -1.164062 0.796875 -1.84375 L 0.796875 -5.359375 Z M 1.625 -5.359375 "/></g></g></g><g fill="#c9a035" fill-opacity="1"><g transform="translate(240.910263, 304.131866)"><g><path d="M 3 0.09375 C 2.226562 0.09375 1.628906 -0.140625 1.203125 -0.609375 C 0.773438 -1.085938 0.5625 -1.765625 0.5625 -2.640625 C 0.5625 -3.535156 0.773438 -4.226562 1.203125 -4.71875 C 1.640625 -5.207031 2.253906 -5.453125 3.046875 -5.453125 C 3.304688 -5.453125 3.5625 -5.421875 3.8125 -5.359375 C 4.070312 -5.304688 4.273438 -5.242188 4.421875 -5.171875 L 4.1875 -4.484375 C 4 -4.554688 3.800781 -4.613281 3.59375 -4.65625 C 3.382812 -4.707031 3.195312 -4.734375 3.03125 -4.734375 C 1.945312 -4.734375 1.40625 -4.039062 1.40625 -2.65625 C 1.40625 -2 1.535156 -1.492188 1.796875 -1.140625 C 2.066406 -0.785156 2.460938 -0.609375 2.984375 -0.609375 C 3.421875 -0.609375 3.875 -0.707031 4.34375 -0.90625 L 4.34375 -0.1875 C 3.988281 0 3.539062 0.09375 3 0.09375 Z M 3 0.09375 "/></g></g></g><g fill="#c9a035" fill-opacity="1"><g transform="translate(246.289169, 304.131866)"><g><path d="M 2.59375 -0.578125 C 2.726562 -0.578125 2.863281 -0.585938 3 -0.609375 C 3.132812 -0.628906 3.242188 -0.648438 3.328125 -0.671875 L 3.328125 -0.046875 C 3.234375 -0.00390625 3.097656 0.0234375 2.921875 0.046875 C 2.753906 0.078125 2.601562 0.09375 2.46875 0.09375 C 1.4375 0.09375 0.921875 -0.445312 0.921875 -1.53125 L 0.921875 -4.71875 L 0.15625 -4.71875 L 0.15625 -5.109375 L 0.921875 -5.453125 L 1.265625 -6.59375 L 1.734375 -6.59375 L 1.734375 -5.359375 L 3.28125 -5.359375 L 3.28125 -4.71875 L 1.734375 -4.71875 L 1.734375 -1.578125 C 1.734375 -1.253906 1.804688 -1.003906 1.953125 -0.828125 C 2.109375 -0.660156 2.320312 -0.578125 2.59375 -0.578125 Z M 2.59375 -0.578125 "/></g></g></g><g fill="#c9a035" fill-opacity="1"><g transform="translate(250.438087, 304.131866)"><g><path d="M 4.3125 -1.453125 C 4.3125 -0.960938 4.125 -0.582031 3.75 -0.3125 C 3.382812 -0.0390625 2.863281 0.09375 2.1875 0.09375 C 1.476562 0.09375 0.925781 -0.015625 0.53125 -0.234375 L 0.53125 -0.984375 C 0.789062 -0.859375 1.066406 -0.757812 1.359375 -0.6875 C 1.648438 -0.613281 1.9375 -0.578125 2.21875 -0.578125 C 2.632812 -0.578125 2.957031 -0.644531 3.1875 -0.78125 C 3.414062 -0.914062 3.53125 -1.117188 3.53125 -1.390625 C 3.53125 -1.597656 3.4375 -1.773438 3.25 -1.921875 C 3.070312 -2.078125 2.722656 -2.253906 2.203125 -2.453125 C 1.703125 -2.640625 1.347656 -2.800781 1.140625 -2.9375 C 0.929688 -3.070312 0.773438 -3.226562 0.671875 -3.40625 C 0.566406 -3.582031 0.515625 -3.789062 0.515625 -4.03125 C 0.515625 -4.46875 0.691406 -4.8125 1.046875 -5.0625 C 1.398438 -5.320312 1.890625 -5.453125 2.515625 -5.453125 C 3.085938 -5.453125 3.648438 -5.332031 4.203125 -5.09375 L 3.90625 -4.4375 C 3.375 -4.65625 2.890625 -4.765625 2.453125 -4.765625 C 2.066406 -4.765625 1.773438 -4.703125 1.578125 -4.578125 C 1.390625 -4.460938 1.296875 -4.300781 1.296875 -4.09375 C 1.296875 -3.945312 1.332031 -3.820312 1.40625 -3.71875 C 1.476562 -3.625 1.59375 -3.53125 1.75 -3.4375 C 1.914062 -3.34375 2.226562 -3.210938 2.6875 -3.046875 C 3.320312 -2.816406 3.75 -2.582031 3.96875 -2.34375 C 4.195312 -2.113281 4.3125 -1.816406 4.3125 -1.453125 Z M 4.3125 -1.453125 "/></g></g></g></svg>