<svg xmlns="http://www.w3.org/2000/svg" xmlns:xlink="http://www.w3.org/1999/xlink" width="500" zoomAndPan="magnify" viewBox="0 0 375 374.999991" height="500" preserveAspectRatio="xMidYMid meet" version="1.0"><defs><g/><clipPath id="9cb0b2b991"><path d="M 174 114.382812 L 202 114.382812 L 202 143 L 174 143 Z M 174 114.382812 " clip-rule="nonzero"/></clipPath><clipPath id="8f619e2929"><path d="M 89.695312 155 L 285.445312 155 L 285.445312 205.132812 L 89.695312 205.132812 Z M 89.695312 155 " clip-rule="nonzero"/></clipPath></defs><rect x="-37.5" width="450" fill="#ffffff" y="-37.499999" height="449.999989" fill-opacity="1"/><rect x="-37.5" width="450" fill="#ffffff" y="-37.499999" height="449.999989" fill-opacity="1"/><rect x="-37.5" width="450" fill="#000000" y="-37.499999" height="449.999989" fill-opacity="1"/><g clip-path="url(#9cb0b2b991)"><path fill="#ffe374" d="M 177.007812 126.503906 C 177.96875 126.503906 178.871094 125.957031 179.261719 125.074219 C 180.679688 121.875 183.875 119.636719 187.589844 119.644531 C 192.363281 119.652344 196.398438 123.484375 196.65625 128.261719 C 196.941406 133.515625 192.753906 137.882812 187.570312 137.882812 C 186.125 137.882812 184.761719 137.539062 183.546875 136.9375 C 183.214844 136.769531 182.839844 136.699219 182.46875 136.699219 C 179.910156 136.699219 179.066406 140.167969 181.355469 141.3125 C 183.226562 142.25 185.339844 142.777344 187.570312 142.777344 C 195.613281 142.777344 202.085938 135.941406 201.515625 127.757812 C 201.03125 120.824219 195.40625 115.21875 188.484375 114.78125 C 182.390625 114.386719 177.0625 117.933594 174.777344 123.121094 C 174.078125 124.714844 175.269531 126.503906 177.007812 126.503906 " fill-opacity="1" fill-rule="nonzero"/></g><g clip-path="url(#8f619e2929)"><path fill="#ffe374" d="M 275.292969 200.355469 L 285.355469 200.355469 L 285.355469 180.285156 L 194.917969 155.308594 L 180.226562 155.308594 L 89.785156 180.285156 L 89.785156 200.355469 L 99.851562 200.355469 C 100.238281 200.355469 100.597656 200.617188 100.660156 201 C 100.738281 201.488281 100.363281 201.910156 99.894531 201.910156 L 91.394531 201.910156 C 90.507812 201.910156 89.785156 202.632812 89.785156 203.523438 C 89.785156 204.414062 90.507812 205.136719 91.394531 205.136719 L 101.855469 205.136719 C 103.980469 205.136719 105.839844 203.527344 105.976562 201.398438 C 106.128906 199.066406 104.285156 197.128906 101.992188 197.128906 L 97.777344 197.128906 L 97.777344 186.386719 L 181.304688 163.316406 L 193.835938 163.316406 L 277.367188 186.386719 L 277.367188 197.128906 L 273.289062 197.128906 C 271.160156 197.128906 269.304688 198.738281 269.167969 200.867188 C 269.015625 203.199219 270.855469 205.136719 273.148438 205.136719 L 283.746094 205.136719 C 284.632812 205.136719 285.355469 204.414062 285.355469 203.523438 C 285.355469 202.632812 284.632812 201.910156 283.746094 201.910156 L 275.25 201.910156 C 274.78125 201.910156 274.40625 201.488281 274.484375 201 C 274.546875 200.617188 274.902344 200.355469 275.292969 200.355469 " fill-opacity="1" fill-rule="nonzero"/></g><path fill="#ffe374" d="M 180.617188 152.34375 L 194.523438 152.34375 L 194.523438 144.332031 L 180.617188 144.332031 L 180.617188 152.34375 " fill-opacity="1" fill-rule="nonzero"/><g fill="#ffffff" fill-opacity="1"><g transform="translate(114.929527, 208.972295)"><g><path d="M 1.59375 0.171875 C 1.070312 0.171875 0.8125 0.0234375 0.8125 -0.265625 C 0.8125 -0.492188 0.957031 -0.609375 1.25 -0.609375 L 1.828125 -0.546875 C 2.304688 -0.546875 2.628906 -0.816406 2.796875 -1.359375 C 2.929688 -1.804688 3 -2.617188 3 -3.796875 L 3 -12.25 C 3 -13.425781 2.941406 -14.195312 2.828125 -14.5625 C 2.722656 -14.925781 2.59375 -15.171875 2.4375 -15.296875 C 2.28125 -15.429688 2.078125 -15.5 1.828125 -15.5 L 1.25 -15.453125 C 0.957031 -15.453125 0.8125 -15.566406 0.8125 -15.796875 C 0.8125 -16.097656 1.03125 -16.25 1.46875 -16.25 C 1.90625 -16.25 2.320312 -16.210938 2.71875 -16.140625 C 3.113281 -16.078125 3.53125 -16.046875 3.96875 -16.046875 C 4.394531 -16.046875 4.804688 -16.078125 5.203125 -16.140625 C 5.597656 -16.210938 6.101562 -16.25 6.71875 -16.25 C 7.34375 -16.25 8.007812 -16.144531 8.71875 -15.9375 C 9.425781 -15.738281 10.023438 -15.457031 10.515625 -15.09375 C 11.523438 -14.332031 12.03125 -13.328125 12.03125 -12.078125 C 12.03125 -10.679688 11.460938 -9.484375 10.328125 -8.484375 C 9.960938 -8.160156 9.554688 -7.890625 9.109375 -7.671875 L 13 -2.015625 C 13.4375 -1.367188 13.921875 -0.976562 14.453125 -0.84375 C 14.597656 -0.800781 14.785156 -0.769531 15.015625 -0.75 C 15.421875 -0.707031 15.625 -0.570312 15.625 -0.34375 C 15.625 -0.113281 15.40625 0 14.96875 0 L 12.671875 0 C 12.117188 0 11.617188 -0.359375 11.171875 -1.078125 L 8.15625 -5.90625 C 7.882812 -6.332031 7.625 -6.632812 7.375 -6.8125 C 7.125 -6.988281 6.742188 -7.078125 6.234375 -7.078125 C 5.722656 -7.078125 5.273438 -7.066406 4.890625 -7.046875 L 4.890625 -3.796875 C 4.890625 -2.585938 4.941406 -1.8125 5.046875 -1.46875 C 5.148438 -1.125 5.28125 -0.882812 5.4375 -0.75 C 5.59375 -0.613281 5.800781 -0.546875 6.0625 -0.546875 L 6.640625 -0.609375 C 6.921875 -0.609375 7.0625 -0.492188 7.0625 -0.265625 C 7.0625 0.0234375 6.804688 0.171875 6.296875 0.171875 C 6.035156 0.171875 5.757812 0.148438 5.46875 0.109375 C 4.507812 -0.046875 3.6875 -0.078125 3 0.015625 C 2.3125 0.117188 1.84375 0.171875 1.59375 0.171875 Z M 4.890625 -8.09375 C 5.410156 -8.039062 5.910156 -8.015625 6.390625 -8.015625 L 7.140625 -8.015625 C 7.910156 -8.015625 8.566406 -8.273438 9.109375 -8.796875 C 9.722656 -9.410156 10.03125 -10.25 10.03125 -11.3125 C 10.03125 -12.59375 9.644531 -13.601562 8.875 -14.34375 C 8.144531 -15.050781 7.210938 -15.40625 6.078125 -15.40625 C 5.671875 -15.40625 5.367188 -15.347656 5.171875 -15.234375 C 4.984375 -15.117188 4.890625 -14.925781 4.890625 -14.65625 Z M 4.890625 -8.09375 "/></g></g></g><g fill="#ffffff" fill-opacity="1"><g transform="translate(130.522595, 208.972295)"><g><path d="M 1.203125 -8.109375 C 1.203125 -9.316406 1.425781 -10.425781 1.875 -11.4375 C 2.320312 -12.445312 2.929688 -13.316406 3.703125 -14.046875 C 4.472656 -14.773438 5.363281 -15.335938 6.375 -15.734375 C 7.394531 -16.140625 8.488281 -16.34375 9.65625 -16.34375 C 10.832031 -16.34375 11.925781 -16.128906 12.9375 -15.703125 C 13.945312 -15.273438 14.8125 -14.6875 15.53125 -13.9375 C 17.03125 -12.351562 17.78125 -10.335938 17.78125 -7.890625 C 17.78125 -5.578125 17.003906 -3.640625 15.453125 -2.078125 C 13.859375 -0.492188 11.835938 0.296875 9.390625 0.296875 C 6.992188 0.296875 5.019531 -0.503906 3.46875 -2.109375 C 1.957031 -3.691406 1.203125 -5.691406 1.203125 -8.109375 Z M 3.25 -8.796875 C 3.25 -7.753906 3.414062 -6.734375 3.75 -5.734375 C 4.09375 -4.734375 4.578125 -3.859375 5.203125 -3.109375 C 6.535156 -1.492188 8.21875 -0.6875 10.25 -0.6875 C 11.820312 -0.6875 13.113281 -1.28125 14.125 -2.46875 C 15.15625 -3.675781 15.671875 -5.273438 15.671875 -7.265625 C 15.671875 -9.597656 15.046875 -11.535156 13.796875 -13.078125 C 12.554688 -14.597656 10.976562 -15.359375 9.0625 -15.359375 C 7.488281 -15.359375 6.132812 -14.757812 5 -13.5625 C 3.832031 -12.3125 3.25 -10.722656 3.25 -8.796875 Z M 3.25 -8.796875 "/></g></g></g><g fill="#ffffff" fill-opacity="1"><g transform="translate(149.504947, 208.972295)"><g><path d="M 9.3125 -15.875 L 9.8125 -15.9375 C 10.03125 -15.9375 10.148438 -15.753906 10.171875 -15.390625 C 10.203125 -15.035156 10.238281 -14.738281 10.28125 -14.5 C 10.320312 -14.269531 10.359375 -14.0625 10.390625 -13.875 C 10.429688 -13.695312 10.46875 -13.539062 10.5 -13.40625 C 10.53125 -13.28125 10.546875 -13.175781 10.546875 -13.09375 C 10.546875 -13.007812 10.5 -12.929688 10.40625 -12.859375 C 10.3125 -12.785156 10.210938 -12.75 10.109375 -12.75 C 9.921875 -12.75 9.742188 -12.941406 9.578125 -13.328125 C 9.234375 -14.078125 8.953125 -14.554688 8.734375 -14.765625 C 8.210938 -15.234375 7.445312 -15.46875 6.4375 -15.46875 C 5.039062 -15.46875 4.101562 -15.046875 3.625 -14.203125 C 3.46875 -13.929688 3.390625 -13.597656 3.390625 -13.203125 C 3.390625 -12.816406 3.484375 -12.453125 3.671875 -12.109375 C 3.859375 -11.765625 4.144531 -11.414062 4.53125 -11.0625 C 4.914062 -10.71875 5.40625 -10.347656 6 -9.953125 C 6.601562 -9.554688 7.25 -9.117188 7.9375 -8.640625 C 8.625 -8.171875 9.160156 -7.742188 9.546875 -7.359375 C 9.929688 -6.984375 10.242188 -6.609375 10.484375 -6.234375 C 10.929688 -5.523438 11.15625 -4.832031 11.15625 -4.15625 C 11.15625 -3.488281 11.0625 -2.894531 10.875 -2.375 C 10.6875 -1.851562 10.375 -1.394531 9.9375 -1 C 9.007812 -0.132812 7.628906 0.296875 5.796875 0.296875 C 4.867188 0.296875 3.847656 0.09375 2.734375 -0.3125 C 2.472656 -0.394531 2.3125 -0.492188 2.25 -0.609375 C 2.175781 -0.742188 2.109375 -1 2.046875 -1.375 C 1.992188 -1.75 1.929688 -2.085938 1.859375 -2.390625 C 1.785156 -2.691406 1.71875 -2.960938 1.65625 -3.203125 L 1.484375 -3.828125 C 1.429688 -4.015625 1.40625 -4.164062 1.40625 -4.28125 C 1.40625 -4.570312 1.515625 -4.71875 1.734375 -4.71875 C 2.023438 -4.71875 2.234375 -4.5 2.359375 -4.0625 C 2.578125 -3.28125 2.773438 -2.773438 2.953125 -2.546875 C 3.640625 -1.648438 4.425781 -1.066406 5.3125 -0.796875 C 5.582031 -0.710938 5.9375 -0.671875 6.375 -0.671875 C 6.820312 -0.671875 7.257812 -0.734375 7.6875 -0.859375 C 8.113281 -0.992188 8.46875 -1.175781 8.75 -1.40625 C 9.269531 -1.832031 9.53125 -2.351562 9.53125 -2.96875 C 9.53125 -3.59375 9.332031 -4.15625 8.9375 -4.65625 C 8.539062 -5.15625 8.066406 -5.585938 7.515625 -5.953125 C 6.960938 -6.328125 6.546875 -6.601562 6.265625 -6.78125 C 5.992188 -6.957031 5.738281 -7.125 5.5 -7.28125 C 3.476562 -8.632812 2.285156 -9.976562 1.921875 -11.3125 C 1.816406 -11.65625 1.765625 -12.054688 1.765625 -12.515625 C 1.765625 -12.972656 1.875 -13.441406 2.09375 -13.921875 C 2.320312 -14.398438 2.644531 -14.816406 3.0625 -15.171875 C 3.976562 -15.953125 5.164062 -16.34375 6.625 -16.34375 C 7.289062 -16.34375 7.820312 -16.273438 8.21875 -16.140625 C 8.78125 -15.960938 9.144531 -15.875 9.3125 -15.875 Z M 9.3125 -15.875 "/></g></g></g><g fill="#ffffff" fill-opacity="1"><g transform="translate(161.708746, 208.972295)"><g><path d="M 2.671875 0 C 2.265625 0 1.882812 0.0234375 1.53125 0.078125 C 1.175781 0.140625 0.789062 0.171875 0.375 0.171875 C -0.03125 0.171875 -0.234375 0.0390625 -0.234375 -0.21875 C -0.234375 -0.488281 -0.046875 -0.625 0.328125 -0.625 C 0.710938 -0.625 0.988281 -0.695312 1.15625 -0.84375 C 1.425781 -1.082031 1.691406 -1.484375 1.953125 -2.046875 C 2.222656 -2.609375 2.472656 -3.128906 2.703125 -3.609375 C 2.929688 -4.097656 3.191406 -4.664062 3.484375 -5.3125 C 3.773438 -5.96875 4.097656 -6.695312 4.453125 -7.5 C 4.816406 -8.300781 5.191406 -9.15625 5.578125 -10.0625 C 6.597656 -12.4375 7.269531 -14.03125 7.59375 -14.84375 C 7.925781 -15.664062 8.109375 -16.117188 8.140625 -16.203125 C 8.179688 -16.296875 8.222656 -16.378906 8.265625 -16.453125 C 8.367188 -16.617188 8.457031 -16.703125 8.53125 -16.703125 C 8.601562 -16.703125 8.660156 -16.691406 8.703125 -16.671875 C 8.753906 -16.648438 8.804688 -16.609375 8.859375 -16.546875 C 8.984375 -16.398438 9.101562 -16.175781 9.21875 -15.875 C 9.34375 -15.570312 9.503906 -15.164062 9.703125 -14.65625 C 9.910156 -14.144531 10.144531 -13.566406 10.40625 -12.921875 C 10.664062 -12.273438 10.941406 -11.578125 11.234375 -10.828125 C 11.535156 -10.085938 11.835938 -9.347656 12.140625 -8.609375 C 12.441406 -7.878906 12.734375 -7.164062 13.015625 -6.46875 C 13.296875 -5.769531 13.550781 -5.144531 13.78125 -4.59375 C 14.46875 -2.914062 14.90625 -1.914062 15.09375 -1.59375 C 15.28125 -1.269531 15.441406 -1.039062 15.578125 -0.90625 C 15.773438 -0.71875 16.066406 -0.625 16.453125 -0.625 C 16.847656 -0.625 17.046875 -0.488281 17.046875 -0.21875 C 17.046875 0.0390625 16.796875 0.171875 16.296875 0.171875 C 16.078125 0.171875 15.890625 0.160156 15.734375 0.140625 C 15.578125 0.128906 15.421875 0.113281 15.265625 0.09375 C 14.796875 0.03125 14.382812 0 14.03125 0 L 11.71875 0.171875 C 11.195312 0.171875 10.9375 0.0234375 10.9375 -0.265625 C 10.9375 -0.503906 11.082031 -0.625 11.375 -0.625 L 12.09375 -0.53125 C 12.394531 -0.53125 12.59375 -0.597656 12.6875 -0.734375 C 12.78125 -0.867188 12.828125 -1.035156 12.828125 -1.234375 C 12.828125 -1.609375 12.664062 -2.191406 12.34375 -2.984375 L 11.359375 -5.46875 L 4.703125 -5.46875 C 4.515625 -4.988281 4.335938 -4.550781 4.171875 -4.15625 C 4.003906 -3.757812 3.851562 -3.375 3.71875 -3 C 3.507812 -2.382812 3.40625 -1.90625 3.40625 -1.5625 C 3.40625 -1.21875 3.460938 -0.960938 3.578125 -0.796875 C 3.703125 -0.628906 3.9375 -0.546875 4.28125 -0.546875 L 5 -0.609375 C 5.289062 -0.609375 5.4375 -0.492188 5.4375 -0.265625 C 5.4375 0.0234375 5.175781 0.171875 4.65625 0.171875 Z M 10.953125 -6.484375 L 8.09375 -13.625 C 7.539062 -12.226562 6.554688 -9.847656 5.140625 -6.484375 Z M 10.953125 -6.484375 "/></g></g></g><g fill="#ffffff" fill-opacity="1"><g transform="translate(178.631183, 208.972295)"><g/></g></g><g fill="#ffffff" fill-opacity="1"><g transform="translate(184.918718, 208.972295)"><g><path d="M 9.3125 -15.875 L 9.8125 -15.9375 C 10.03125 -15.9375 10.148438 -15.753906 10.171875 -15.390625 C 10.203125 -15.035156 10.238281 -14.738281 10.28125 -14.5 C 10.320312 -14.269531 10.359375 -14.0625 10.390625 -13.875 C 10.429688 -13.695312 10.46875 -13.539062 10.5 -13.40625 C 10.53125 -13.28125 10.546875 -13.175781 10.546875 -13.09375 C 10.546875 -13.007812 10.5 -12.929688 10.40625 -12.859375 C 10.3125 -12.785156 10.210938 -12.75 10.109375 -12.75 C 9.921875 -12.75 9.742188 -12.941406 9.578125 -13.328125 C 9.234375 -14.078125 8.953125 -14.554688 8.734375 -14.765625 C 8.210938 -15.234375 7.445312 -15.46875 6.4375 -15.46875 C 5.039062 -15.46875 4.101562 -15.046875 3.625 -14.203125 C 3.46875 -13.929688 3.390625 -13.597656 3.390625 -13.203125 C 3.390625 -12.816406 3.484375 -12.453125 3.671875 -12.109375 C 3.859375 -11.765625 4.144531 -11.414062 4.53125 -11.0625 C 4.914062 -10.71875 5.40625 -10.347656 6 -9.953125 C 6.601562 -9.554688 7.25 -9.117188 7.9375 -8.640625 C 8.625 -8.171875 9.160156 -7.742188 9.546875 -7.359375 C 9.929688 -6.984375 10.242188 -6.609375 10.484375 -6.234375 C 10.929688 -5.523438 11.15625 -4.832031 11.15625 -4.15625 C 11.15625 -3.488281 11.0625 -2.894531 10.875 -2.375 C 10.6875 -1.851562 10.375 -1.394531 9.9375 -1 C 9.007812 -0.132812 7.628906 0.296875 5.796875 0.296875 C 4.867188 0.296875 3.847656 0.09375 2.734375 -0.3125 C 2.472656 -0.394531 2.3125 -0.492188 2.25 -0.609375 C 2.175781 -0.742188 2.109375 -1 2.046875 -1.375 C 1.992188 -1.75 1.929688 -2.085938 1.859375 -2.390625 C 1.785156 -2.691406 1.71875 -2.960938 1.65625 -3.203125 L 1.484375 -3.828125 C 1.429688 -4.015625 1.40625 -4.164062 1.40625 -4.28125 C 1.40625 -4.570312 1.515625 -4.71875 1.734375 -4.71875 C 2.023438 -4.71875 2.234375 -4.5 2.359375 -4.0625 C 2.578125 -3.28125 2.773438 -2.773438 2.953125 -2.546875 C 3.640625 -1.648438 4.425781 -1.066406 5.3125 -0.796875 C 5.582031 -0.710938 5.9375 -0.671875 6.375 -0.671875 C 6.820312 -0.671875 7.257812 -0.734375 7.6875 -0.859375 C 8.113281 -0.992188 8.46875 -1.175781 8.75 -1.40625 C 9.269531 -1.832031 9.53125 -2.351562 9.53125 -2.96875 C 9.53125 -3.59375 9.332031 -4.15625 8.9375 -4.65625 C 8.539062 -5.15625 8.066406 -5.585938 7.515625 -5.953125 C 6.960938 -6.328125 6.546875 -6.601562 6.265625 -6.78125 C 5.992188 -6.957031 5.738281 -7.125 5.5 -7.28125 C 3.476562 -8.632812 2.285156 -9.976562 1.921875 -11.3125 C 1.816406 -11.65625 1.765625 -12.054688 1.765625 -12.515625 C 1.765625 -12.972656 1.875 -13.441406 2.09375 -13.921875 C 2.320312 -14.398438 2.644531 -14.816406 3.0625 -15.171875 C 3.976562 -15.953125 5.164062 -16.34375 6.625 -16.34375 C 7.289062 -16.34375 7.820312 -16.273438 8.21875 -16.140625 C 8.78125 -15.960938 9.144531 -15.875 9.3125 -15.875 Z M 9.3125 -15.875 "/></g></g></g><g fill="#ffffff" fill-opacity="1"><g transform="translate(197.122517, 208.972295)"><g><path d="M 4.90625 0.171875 C 4.382812 0.171875 4.125 0.0234375 4.125 -0.265625 C 4.125 -0.492188 4.269531 -0.609375 4.5625 -0.609375 L 5.15625 -0.546875 C 5.632812 -0.546875 5.953125 -0.816406 6.109375 -1.359375 C 6.253906 -1.804688 6.328125 -2.617188 6.328125 -3.796875 L 6.328125 -15 L 6 -15 C 4.601562 -15 3.488281 -14.851562 2.65625 -14.5625 C 2.082031 -14.351562 1.691406 -14 1.484375 -13.5 C 1.328125 -13.132812 1.164062 -12.953125 1 -12.953125 C 0.769531 -12.953125 0.65625 -13.085938 0.65625 -13.359375 C 0.65625 -13.429688 0.671875 -13.519531 0.703125 -13.625 C 0.742188 -13.726562 0.789062 -13.851562 0.84375 -14 C 0.96875 -14.382812 1.039062 -14.785156 1.0625 -15.203125 C 1.09375 -15.617188 1.140625 -15.894531 1.203125 -16.03125 C 1.273438 -16.175781 1.367188 -16.25 1.484375 -16.25 C 1.609375 -16.25 1.71875 -16.238281 1.8125 -16.21875 C 1.90625 -16.195312 2.046875 -16.171875 2.234375 -16.140625 C 2.710938 -16.078125 3.3125 -16.046875 4.03125 -16.046875 L 11.625 -16.046875 C 12.21875 -16.046875 12.644531 -16.078125 12.90625 -16.140625 C 13.175781 -16.210938 13.375 -16.25 13.5 -16.25 C 13.757812 -16.25 13.890625 -16.125 13.890625 -15.875 C 13.890625 -15.738281 13.867188 -15.585938 13.828125 -15.421875 C 13.703125 -15.023438 13.617188 -14.6875 13.578125 -14.40625 C 13.546875 -14.125 13.515625 -13.890625 13.484375 -13.703125 C 13.453125 -13.523438 13.414062 -13.382812 13.375 -13.28125 C 13.3125 -13.101562 13.21875 -13.015625 13.09375 -13.015625 C 12.96875 -13.015625 12.882812 -13.0625 12.84375 -13.15625 C 12.8125 -13.25 12.773438 -13.425781 12.734375 -13.6875 C 12.691406 -13.957031 12.625 -14.175781 12.53125 -14.34375 C 12.4375 -14.507812 12.304688 -14.640625 12.140625 -14.734375 C 11.867188 -14.910156 11.414062 -15 10.78125 -15 L 8.203125 -15 L 8.203125 -3.796875 C 8.203125 -2.585938 8.253906 -1.8125 8.359375 -1.46875 C 8.472656 -1.125 8.609375 -0.882812 8.765625 -0.75 C 8.921875 -0.613281 9.125 -0.546875 9.375 -0.546875 L 9.953125 -0.609375 C 10.242188 -0.609375 10.390625 -0.492188 10.390625 -0.265625 C 10.390625 0.0234375 10.132812 0.171875 9.625 0.171875 C 9.351562 0.171875 9.070312 0.148438 8.78125 0.109375 C 7.820312 -0.046875 7 -0.078125 6.3125 0.015625 C 5.632812 0.117188 5.164062 0.171875 4.90625 0.171875 Z M 4.90625 0.171875 "/></g></g></g><g fill="#ffffff" fill-opacity="1"><g transform="translate(211.673659, 208.972295)"><g><path d="M 1.203125 -8.109375 C 1.203125 -9.316406 1.425781 -10.425781 1.875 -11.4375 C 2.320312 -12.445312 2.929688 -13.316406 3.703125 -14.046875 C 4.472656 -14.773438 5.363281 -15.335938 6.375 -15.734375 C 7.394531 -16.140625 8.488281 -16.34375 9.65625 -16.34375 C 10.832031 -16.34375 11.925781 -16.128906 12.9375 -15.703125 C 13.945312 -15.273438 14.8125 -14.6875 15.53125 -13.9375 C 17.03125 -12.351562 17.78125 -10.335938 17.78125 -7.890625 C 17.78125 -5.578125 17.003906 -3.640625 15.453125 -2.078125 C 13.859375 -0.492188 11.835938 0.296875 9.390625 0.296875 C 6.992188 0.296875 5.019531 -0.503906 3.46875 -2.109375 C 1.957031 -3.691406 1.203125 -5.691406 1.203125 -8.109375 Z M 3.25 -8.796875 C 3.25 -7.753906 3.414062 -6.734375 3.75 -5.734375 C 4.09375 -4.734375 4.578125 -3.859375 5.203125 -3.109375 C 6.535156 -1.492188 8.21875 -0.6875 10.25 -0.6875 C 11.820312 -0.6875 13.113281 -1.28125 14.125 -2.46875 C 15.15625 -3.675781 15.671875 -5.273438 15.671875 -7.265625 C 15.671875 -9.597656 15.046875 -11.535156 13.796875 -13.078125 C 12.554688 -14.597656 10.976562 -15.359375 9.0625 -15.359375 C 7.488281 -15.359375 6.132812 -14.757812 5 -13.5625 C 3.832031 -12.3125 3.25 -10.722656 3.25 -8.796875 Z M 3.25 -8.796875 "/></g></g></g><g fill="#ffffff" fill-opacity="1"><g transform="translate(230.656011, 208.972295)"><g><path d="M 1.59375 0.171875 C 1.070312 0.171875 0.8125 0.0234375 0.8125 -0.265625 C 0.8125 -0.492188 0.957031 -0.609375 1.25 -0.609375 L 1.828125 -0.546875 C 2.304688 -0.546875 2.628906 -0.816406 2.796875 -1.359375 C 2.929688 -1.804688 3 -2.617188 3 -3.796875 L 3 -12.25 C 3 -13.425781 2.941406 -14.195312 2.828125 -14.5625 C 2.722656 -14.925781 2.59375 -15.171875 2.4375 -15.296875 C 2.28125 -15.429688 2.078125 -15.5 1.828125 -15.5 L 1.25 -15.453125 C 0.957031 -15.453125 0.8125 -15.566406 0.8125 -15.796875 C 0.8125 -16.097656 1.03125 -16.25 1.46875 -16.25 C 1.90625 -16.25 2.320312 -16.210938 2.71875 -16.140625 C 3.113281 -16.078125 3.53125 -16.046875 3.96875 -16.046875 C 4.394531 -16.046875 4.804688 -16.078125 5.203125 -16.140625 C 5.597656 -16.210938 6.101562 -16.25 6.71875 -16.25 C 7.34375 -16.25 8.007812 -16.144531 8.71875 -15.9375 C 9.425781 -15.738281 10.023438 -15.457031 10.515625 -15.09375 C 11.523438 -14.332031 12.03125 -13.328125 12.03125 -12.078125 C 12.03125 -10.679688 11.460938 -9.484375 10.328125 -8.484375 C 9.960938 -8.160156 9.554688 -7.890625 9.109375 -7.671875 L 13 -2.015625 C 13.4375 -1.367188 13.921875 -0.976562 14.453125 -0.84375 C 14.597656 -0.800781 14.785156 -0.769531 15.015625 -0.75 C 15.421875 -0.707031 15.625 -0.570312 15.625 -0.34375 C 15.625 -0.113281 15.40625 0 14.96875 0 L 12.671875 0 C 12.117188 0 11.617188 -0.359375 11.171875 -1.078125 L 8.15625 -5.90625 C 7.882812 -6.332031 7.625 -6.632812 7.375 -6.8125 C 7.125 -6.988281 6.742188 -7.078125 6.234375 -7.078125 C 5.722656 -7.078125 5.273438 -7.066406 4.890625 -7.046875 L 4.890625 -3.796875 C 4.890625 -2.585938 4.941406 -1.8125 5.046875 -1.46875 C 5.148438 -1.125 5.28125 -0.882812 5.4375 -0.75 C 5.59375 -0.613281 5.800781 -0.546875 6.0625 -0.546875 L 6.640625 -0.609375 C 6.921875 -0.609375 7.0625 -0.492188 7.0625 -0.265625 C 7.0625 0.0234375 6.804688 0.171875 6.296875 0.171875 C 6.035156 0.171875 5.757812 0.148438 5.46875 0.109375 C 4.507812 -0.046875 3.6875 -0.078125 3 0.015625 C 2.3125 0.117188 1.84375 0.171875 1.59375 0.171875 Z M 4.890625 -8.09375 C 5.410156 -8.039062 5.910156 -8.015625 6.390625 -8.015625 L 7.140625 -8.015625 C 7.910156 -8.015625 8.566406 -8.273438 9.109375 -8.796875 C 9.722656 -9.410156 10.03125 -10.25 10.03125 -11.3125 C 10.03125 -12.59375 9.644531 -13.601562 8.875 -14.34375 C 8.144531 -15.050781 7.210938 -15.40625 6.078125 -15.40625 C 5.671875 -15.40625 5.367188 -15.347656 5.171875 -15.234375 C 4.984375 -15.117188 4.890625 -14.925781 4.890625 -14.65625 Z M 4.890625 -8.09375 "/></g></g></g><g fill="#ffffff" fill-opacity="1"><g transform="translate(246.249079, 208.972295)"><g><path d="M 1.4375 0.171875 C 1 0.171875 0.78125 0.0234375 0.78125 -0.265625 C 0.78125 -0.492188 0.921875 -0.609375 1.203125 -0.609375 L 1.796875 -0.546875 C 2.242188 -0.546875 2.546875 -0.738281 2.703125 -1.125 C 2.878906 -1.5625 2.96875 -2.441406 2.96875 -3.765625 L 2.96875 -12.25 C 2.96875 -13.5625 2.90625 -14.382812 2.78125 -14.71875 C 2.65625 -15.0625 2.515625 -15.273438 2.359375 -15.359375 C 2.210938 -15.453125 2.023438 -15.5 1.796875 -15.5 L 1.203125 -15.453125 C 0.921875 -15.453125 0.78125 -15.566406 0.78125 -15.796875 C 0.78125 -16.097656 0.992188 -16.25 1.421875 -16.25 C 1.847656 -16.25 2.195312 -16.238281 2.46875 -16.21875 C 2.75 -16.195312 3.03125 -16.171875 3.3125 -16.140625 C 4.050781 -16.078125 4.632812 -16.046875 5.0625 -16.046875 C 5.488281 -16.046875 5.941406 -16.054688 6.421875 -16.078125 C 6.898438 -16.097656 7.4375 -16.117188 8.03125 -16.140625 C 9.582031 -16.210938 10.660156 -16.25 11.265625 -16.25 C 11.867188 -16.25 12.203125 -16.210938 12.265625 -16.140625 C 12.335938 -16.066406 12.375 -15.96875 12.375 -15.84375 C 12.375 -15.71875 12.367188 -15.597656 12.359375 -15.484375 C 12.359375 -15.367188 12.351562 -15.242188 12.34375 -15.109375 C 12.34375 -14.929688 12.320312 -14.660156 12.28125 -14.296875 C 12.238281 -13.929688 12.1875 -13.6875 12.125 -13.5625 C 12.070312 -13.4375 11.992188 -13.375 11.890625 -13.375 C 11.785156 -13.375 11.710938 -13.398438 11.671875 -13.453125 C 11.640625 -13.503906 11.585938 -13.625 11.515625 -13.8125 C 11.453125 -14 11.332031 -14.175781 11.15625 -14.34375 C 10.988281 -14.519531 10.71875 -14.664062 10.34375 -14.78125 C 9.625 -15 8.296875 -15.109375 6.359375 -15.109375 L 5.296875 -15.109375 C 5.097656 -15.109375 4.972656 -15.078125 4.921875 -15.015625 C 4.867188 -14.960938 4.84375 -14.835938 4.84375 -14.640625 L 4.84375 -9.59375 C 5.800781 -9.476562 6.59375 -9.421875 7.21875 -9.421875 C 7.84375 -9.421875 8.285156 -9.425781 8.546875 -9.4375 C 8.816406 -9.445312 9.039062 -9.472656 9.21875 -9.515625 C 9.53125 -9.566406 9.753906 -9.707031 9.890625 -9.9375 C 10.160156 -10.351562 10.378906 -10.5625 10.546875 -10.5625 C 10.765625 -10.5625 10.875 -10.453125 10.875 -10.234375 L 10.453125 -8.53125 L 10.5 -7.625 C 10.5 -7.039062 10.363281 -6.75 10.09375 -6.75 C 9.863281 -6.75 9.75 -6.898438 9.75 -7.203125 C 9.75 -7.515625 9.726562 -7.75 9.6875 -7.90625 C 9.65625 -8.0625 9.554688 -8.179688 9.390625 -8.265625 C 9.128906 -8.390625 8.503906 -8.453125 7.515625 -8.453125 C 6.523438 -8.453125 5.632812 -8.410156 4.84375 -8.328125 L 4.84375 -5.484375 C 4.84375 -3.722656 4.882812 -2.265625 4.96875 -1.109375 C 5.613281 -0.960938 6.316406 -0.890625 7.078125 -0.890625 C 7.835938 -0.890625 8.484375 -0.910156 9.015625 -0.953125 C 9.554688 -0.992188 10.023438 -1.078125 10.421875 -1.203125 C 11.191406 -1.429688 11.765625 -1.875 12.140625 -2.53125 C 12.296875 -2.8125 12.453125 -2.953125 12.609375 -2.953125 C 12.773438 -2.953125 12.859375 -2.835938 12.859375 -2.609375 C 12.859375 -2.515625 12.828125 -2.390625 12.765625 -2.234375 C 12.703125 -2.023438 12.609375 -1.710938 12.484375 -1.296875 C 12.367188 -0.890625 12.28125 -0.59375 12.21875 -0.40625 C 12.15625 -0.226562 12.082031 -0.09375 12 0 C 11.882812 0.15625 11.648438 0.234375 11.296875 0.234375 C 10.941406 0.234375 10.597656 0.234375 10.265625 0.234375 C 9.941406 0.234375 9.601562 0.226562 9.25 0.21875 C 8.832031 0.195312 8.1875 0.164062 7.3125 0.125 C 5.144531 0.0195312 3.875 -0.015625 3.5 0.015625 C 3.125 0.046875 2.835938 0.0703125 2.640625 0.09375 C 2.453125 0.113281 2.265625 0.128906 2.078125 0.140625 C 1.898438 0.160156 1.6875 0.171875 1.4375 0.171875 Z M 1.4375 0.171875 "/></g></g></g><g fill="#ffffff" fill-opacity="1"><g transform="translate(94.090117, 227.792354)"><g><path d="M 4.46875 -8.59375 C 2.257812 -8.59375 0.609375 -6.796875 0.609375 -4.1875 C 0.609375 -1.511719 2.125 0.171875 4.308594 0.171875 C 6.371094 0.171875 7.433594 -1.097656 7.714844 -2.660156 L 7.726562 -2.78125 L 7.261719 -2.78125 L 7.238281 -2.660156 C 6.957031 -1.28125 6.042969 -0.230469 4.332031 -0.230469 C 2.5625 -0.230469 1.121094 -1.585938 1.121094 -4.210938 C 1.121094 -6.738281 2.683594 -8.191406 4.429688 -8.191406 C 6.03125 -8.191406 6.96875 -7.203125 7.238281 -5.871094 L 7.261719 -5.75 L 7.726562 -5.75 L 7.714844 -5.871094 C 7.433594 -7.410156 6.382812 -8.59375 4.46875 -8.59375 Z M 4.46875 -8.59375 "/></g></g></g><g fill="#ffffff" fill-opacity="1"><g transform="translate(109.294789, 227.792354)"><g><path d="M 6.519531 -0.402344 L 1.648438 -0.402344 L 1.648438 -8.421875 L 1.183594 -8.421875 L 1.183594 0 L 6.519531 0 Z M 6.519531 -0.402344 "/></g></g></g><g fill="#ffffff" fill-opacity="1"><g transform="translate(122.853142, 227.792354)"><g><path d="M 4.46875 -8.59375 C 2.097656 -8.59375 0.609375 -6.75 0.609375 -4.210938 C 0.609375 -1.683594 2.097656 0.171875 4.46875 0.171875 C 6.824219 0.171875 8.3125 -1.683594 8.3125 -4.210938 C 8.3125 -6.75 6.824219 -8.59375 4.46875 -8.59375 Z M 4.46875 -0.230469 C 2.613281 -0.230469 1.121094 -1.683594 1.121094 -4.210938 C 1.121094 -6.75 2.613281 -8.191406 4.46875 -8.191406 C 6.308594 -8.191406 7.800781 -6.75 7.800781 -4.210938 C 7.800781 -1.683594 6.308594 -0.230469 4.46875 -0.230469 Z M 4.46875 -0.230469 "/></g></g></g><g fill="#ffffff" fill-opacity="1"><g transform="translate(138.496823, 227.792354)"><g><path d="M 7.203125 -8.03125 L 7.203125 -8.421875 L 0.402344 -8.421875 L 0.402344 -8.03125 L 3.5625 -8.03125 L 3.5625 0 L 4.027344 0 L 4.027344 -8.03125 Z M 7.203125 -8.03125 "/></g></g></g><g fill="#ffffff" fill-opacity="1"><g transform="translate(152.542971, 227.792354)"><g><path d="M 7.335938 -8.421875 L 6.871094 -8.421875 L 6.871094 -4.332031 L 1.648438 -4.332031 L 1.648438 -8.421875 L 1.183594 -8.421875 L 1.183594 0 L 1.648438 0 L 1.648438 -3.929688 L 6.871094 -3.929688 L 6.871094 0 L 7.335938 0 Z M 7.335938 -8.421875 "/></g></g></g><g fill="#ffffff" fill-opacity="1"><g transform="translate(167.637879, 227.792354)"><g><path d="M 1.648438 0 L 1.648438 -8.421875 L 1.183594 -8.421875 L 1.183594 0 Z M 1.648438 0 "/></g></g></g><g fill="#ffffff" fill-opacity="1"><g transform="translate(177.049945, 227.792354)"><g><path d="M 7.140625 0 L 7.128906 -8.421875 L 6.675781 -8.421875 L 6.675781 -3.941406 C 6.675781 -2.84375 6.675781 -1.539062 6.699219 -0.4375 L 1.890625 -8.421875 L 1.183594 -8.421875 L 1.183594 0 L 1.648438 0 L 1.648438 -4.492188 C 1.648438 -5.589844 1.648438 -6.882812 1.625 -7.984375 L 6.421875 0 Z M 7.140625 0 "/></g></g></g><g fill="#ffffff" fill-opacity="1"><g transform="translate(191.937549, 227.792354)"><g><path d="M 4.6875 -3.832031 L 4.6875 -3.429688 L 7.3125 -3.429688 C 7.3125 -1.109375 5.664062 -0.230469 4.371094 -0.230469 C 2.5625 -0.230469 1.121094 -1.585938 1.121094 -4.210938 C 1.121094 -6.738281 2.710938 -8.191406 4.515625 -8.191406 C 6.128906 -8.191406 7.066406 -7.203125 7.335938 -5.871094 L 7.359375 -5.75 L 7.824219 -5.75 L 7.800781 -5.871094 C 7.53125 -7.410156 6.480469 -8.59375 4.566406 -8.59375 C 2.28125 -8.59375 0.609375 -6.796875 0.609375 -4.1875 C 0.609375 -1.511719 2.125 0.171875 4.332031 0.171875 C 5.382812 0.171875 6.421875 -0.242188 7.066406 -1.257812 L 7.347656 -2.039062 L 7.347656 0 L 7.773438 0 L 7.773438 -3.832031 Z M 4.6875 -3.832031 "/></g></g></g><g fill="#ffffff" fill-opacity="1"><g transform="translate(207.32514, 227.792354)"><g/></g></g><g fill="#ffffff" fill-opacity="1"><g transform="translate(216.542079, 227.792354)"><g><path d="M 3.5625 -8.59375 C 2.125 -8.59375 0.902344 -7.703125 0.902344 -6.421875 C 0.902344 -5.101562 1.757812 -4.566406 3.492188 -4.101562 C 5.140625 -3.648438 5.820312 -3.1875 5.820312 -2.027344 C 5.820312 -0.953125 4.847656 -0.230469 3.5625 -0.230469 C 2.269531 -0.230469 1.183594 -0.941406 1 -2.246094 L 0.511719 -2.246094 C 0.695312 -0.621094 1.976562 0.171875 3.550781 0.171875 C 5.140625 0.171875 6.324219 -0.792969 6.324219 -2.097656 C 6.324219 -3.441406 5.457031 -4.066406 3.6875 -4.539062 C 2.097656 -4.980469 1.402344 -5.359375 1.402344 -6.492188 C 1.402344 -7.628906 2.503906 -8.191406 3.527344 -8.191406 C 4.6875 -8.191406 5.527344 -7.46875 5.710938 -6.226562 L 6.199219 -6.226562 C 6.042969 -7.53125 5.175781 -8.59375 3.5625 -8.59375 Z M 3.5625 -8.59375 "/></g></g></g><g fill="#ffffff" fill-opacity="1"><g transform="translate(230.319929, 227.792354)"><g><path d="M 7.203125 -8.03125 L 7.203125 -8.421875 L 0.402344 -8.421875 L 0.402344 -8.03125 L 3.5625 -8.03125 L 3.5625 0 L 4.027344 0 L 4.027344 -8.03125 Z M 7.203125 -8.03125 "/></g></g></g><g fill="#ffffff" fill-opacity="1"><g transform="translate(244.366069, 227.792354)"><g><path d="M 4.46875 -8.59375 C 2.097656 -8.59375 0.609375 -6.75 0.609375 -4.210938 C 0.609375 -1.683594 2.097656 0.171875 4.46875 0.171875 C 6.824219 0.171875 8.3125 -1.683594 8.3125 -4.210938 C 8.3125 -6.75 6.824219 -8.59375 4.46875 -8.59375 Z M 4.46875 -0.230469 C 2.613281 -0.230469 1.121094 -1.683594 1.121094 -4.210938 C 1.121094 -6.75 2.613281 -8.191406 4.46875 -8.191406 C 6.308594 -8.191406 7.800781 -6.75 7.800781 -4.210938 C 7.800781 -1.683594 6.308594 -0.230469 4.46875 -0.230469 Z M 4.46875 -0.230469 "/></g></g></g><g fill="#ffffff" fill-opacity="1"><g transform="translate(260.009743, 227.792354)"><g><path d="M 6.199219 -2.28125 C 6.101562 -3.210938 5.710938 -3.96875 4.96875 -4.222656 C 5.957031 -4.429688 6.640625 -5.175781 6.640625 -6.261719 C 6.640625 -7.519531 5.871094 -8.203125 4.589844 -8.359375 C 4.199219 -8.410156 3.832031 -8.421875 3.40625 -8.421875 L 1.183594 -8.421875 L 1.183594 0 L 1.648438 0 L 1.648438 -4.003906 L 3.515625 -4.003906 C 3.710938 -4.003906 3.992188 -4.003906 4.246094 -3.992188 C 5.222656 -3.941406 5.625 -3.136719 5.738281 -2.210938 C 5.871094 -1.039062 6.042969 -0.535156 6.238281 0 L 6.761719 0 C 6.503906 -0.511719 6.335938 -1.0625 6.199219 -2.28125 Z M 1.648438 -4.40625 L 1.648438 -8.019531 L 3.40625 -8.019531 C 3.832031 -8.019531 4.136719 -8.007812 4.480469 -7.957031 C 5.542969 -7.824219 6.140625 -7.273438 6.140625 -6.226562 C 6.140625 -5.199219 5.46875 -4.515625 4.417969 -4.429688 C 4.066406 -4.40625 3.855469 -4.40625 3.527344 -4.40625 Z M 1.648438 -4.40625 "/></g></g></g><g fill="#ffffff" fill-opacity="1"><g transform="translate(273.99492, 227.792354)"><g><path d="M 6.519531 -0.402344 L 1.648438 -0.402344 L 1.648438 -4.015625 L 6.113281 -4.015625 L 6.113281 -4.40625 L 1.648438 -4.40625 L 1.648438 -8.03125 L 6.394531 -8.03125 L 6.394531 -8.421875 L 1.183594 -8.421875 L 1.183594 0 L 6.519531 0 Z M 6.519531 -0.402344 "/></g></g></g></svg>