<svg xmlns="http://www.w3.org/2000/svg" xmlns:xlink="http://www.w3.org/1999/xlink" width="500" zoomAndPan="magnify" viewBox="0 0 375 374.999991" height="500" preserveAspectRatio="xMidYMid meet" version="1.0"><defs><filter x="0%" y="0%" width="100%" height="100%" id="6850935e1d"><feColorMatrix values="0 0 0 0 1 0 0 0 0 1 0 0 0 0 1 0 0 0 1 0" color-interpolation-filters="sRGB"/></filter><g/><mask id="81e9d382bc"><g filter="url(#6850935e1d)"><rect x="-37.5" width="450" fill="#000000" y="-37.499999" height="449.999989" fill-opacity="0.4784"/></g></mask><clipPath id="a679cb2c08"><path d="M 0.078125 1 L 58.878906 1 L 58.878906 45.960938 L 0.078125 45.960938 Z M 0.078125 1 " clip-rule="nonzero"/></clipPath><clipPath id="8130282f05"><rect x="0" width="59" y="0" height="46"/></clipPath><mask id="992004eec3"><g filter="url(#6850935e1d)"><rect x="-37.5" width="450" fill="#000000" y="-37.499999" height="449.999989" fill-opacity="0.498"/></g></mask><clipPath id="9b4382b3bf"><path d="M 38 14 L 145 14 L 145 172 L 38 172 Z M 38 14 " clip-rule="nonzero"/></clipPath><clipPath id="73d55ca8a5"><path d="M 88.796875 -5.082031 L 188.074219 74.921875 L 93.957031 191.71875 L -5.320312 111.71875 Z M 88.796875 -5.082031 " clip-rule="nonzero"/></clipPath><clipPath id="24187f0189"><path d="M 88.796875 -5.082031 L 188.074219 74.921875 L 93.957031 191.71875 L -5.320312 111.71875 Z M 88.796875 -5.082031 " clip-rule="nonzero"/></clipPath><clipPath id="edc0c42093"><rect x="0" width="183" y="0" height="187"/></clipPath><mask id="4728619307"><g filter="url(#6850935e1d)"><rect x="-37.5" width="450" fill="#000000" y="-37.499999" height="449.999989" fill-opacity="0.5569"/></g></mask><clipPath id="ca053682ec"><path d="M 0.238281 0.679688 L 59 0.679688 L 59 45.800781 L 0.238281 45.800781 Z M 0.238281 0.679688 " clip-rule="nonzero"/></clipPath><clipPath id="41d3825c73"><rect x="0" width="60" y="0" height="46"/></clipPath><clipPath id="53d7d55cb2"><path d="M 153.699219 72 L 257 72 L 257 230.664062 L 153.699219 230.664062 Z M 153.699219 72 " clip-rule="nonzero"/></clipPath><clipPath id="311d1060e5"><path d="M 242 50.730469 L 307 50.730469 L 307 230.664062 L 242 230.664062 Z M 242 50.730469 " clip-rule="nonzero"/></clipPath><clipPath id="ea7d736313"><path d="M 111 255.65625 L 291 255.65625 L 291 260 L 111 260 Z M 111 255.65625 " clip-rule="nonzero"/></clipPath><mask id="f4d724f3c2"><g filter="url(#6850935e1d)"><rect x="-37.5" width="450" fill="#000000" y="-37.499999" height="449.999989" fill-opacity="0.498"/></g></mask><clipPath id="02d2caa10f"><path d="M 18 7 L 69 7 L 69 82 L 18 82 Z M 18 7 " clip-rule="nonzero"/></clipPath><clipPath id="348ad383ef"><path d="M 42.15625 -2.195312 L 89.457031 35.925781 L 44.753906 91.402344 L -2.550781 53.285156 Z M 42.15625 -2.195312 " clip-rule="nonzero"/></clipPath><clipPath id="edb4616563"><path d="M 42.15625 -2.195312 L 89.457031 35.925781 L 44.753906 91.402344 L -2.550781 53.285156 Z M 42.15625 -2.195312 " clip-rule="nonzero"/></clipPath><clipPath id="75383cb71c"><rect x="0" width="88" y="0" height="90"/></clipPath></defs><rect x="-37.5" width="450" fill="#ffffff" y="-37.499999" height="449.999989" fill-opacity="1"/><rect x="-37.5" width="450" fill="#ffffff" y="-37.499999" height="449.999989" fill-opacity="1"/><rect x="-37.5" width="450" fill="#e9ebea" y="-37.499999" height="449.999989" fill-opacity="1"/><g mask="url(#81e9d382bc)"><g transform="matrix(1, 0, 0, 1, 214, 81)"><g clip-path="url(#8130282f05)"><g clip-path="url(#a679cb2c08)"><path fill="#ffffff" d="M 5.339844 10.703125 C -0.414062 18.011719 -2.496094 30.570312 5.339844 38.746094 C 13.175781 46.925781 26.179688 43.714844 35.359375 45.171875 C 44.539062 46.632812 55.855469 46.632812 58.171875 33.78125 C 60.5 20.929688 54.980469 17.71875 39.296875 8.65625 C 23.617188 -0.40625 16.378906 -3.324219 5.339844 10.703125 Z M 5.339844 10.703125 " fill-opacity="1" fill-rule="nonzero"/></g></g></g></g><g mask="url(#992004eec3)"><g transform="matrix(1, 0, 0, 1, 183, 71)"><g clip-path="url(#edc0c42093)"><g clip-path="url(#9b4382b3bf)"><g clip-path="url(#73d55ca8a5)"><g clip-path="url(#24187f0189)"><path fill="#ffffff" d="M 106.410156 15.769531 C 120.375 20.367188 120.535156 30.609375 127.5 38.097656 C 134.46875 45.589844 155.925781 82.410156 137.445312 121.523438 C 118.96875 160.632812 103.726562 177.226562 81.335938 170.367188 C 58.949219 163.507812 34.050781 142.488281 38.550781 121.910156 C 43.050781 101.328125 62.097656 43.367188 65.753906 33.953125 C 73.417969 14.050781 96.074219 12.371094 106.410156 15.769531 Z M 106.410156 15.769531 " fill-opacity="1" fill-rule="nonzero"/></g></g></g></g></g></g><g mask="url(#4728619307)"><g transform="matrix(1, 0, 0, 1, 48, 229)"><g clip-path="url(#41d3825c73)"><g clip-path="url(#ca053682ec)"><path fill="#ffffff" d="M 5.484375 10.554688 C -0.269531 17.863281 -2.351562 30.421875 5.484375 38.597656 C 13.316406 46.777344 26.320312 43.566406 35.5 45.023438 C 44.679688 46.484375 56 46.484375 58.316406 33.632812 C 60.644531 20.78125 55.125 17.570312 39.441406 8.507812 C 23.761719 -0.554688 16.523438 -3.472656 5.484375 10.554688 Z M 5.484375 10.554688 " fill-opacity="1" fill-rule="nonzero"/></g></g></g></g><g clip-path="url(#53d7d55cb2)"><path stroke-linecap="butt" transform="matrix(0.00971161, 0, 0, -0.00970875, 153.627563, 230.461185)" fill="none" stroke-linejoin="round" d="M 282.500194 15712.731512 C 450.227991 15969.024082 617.955788 16225.316652 1151.708273 16262.734563 C 1685.058532 16300.152474 2584.433481 16118.293381 3327.745155 15873.668762 C 4070.654604 15629.044142 4657.903005 15321.653995 5028.352168 15239.978341 C 5398.80133 15158.302687 5552.451254 15302.743868 5606.349395 15501.099029 C 5659.845311 15699.051846 5613.187219 15950.516299 5548.02678 15908.672614 C 5482.866341 15866.828929 5398.80133 15531.274763 5403.225804 15314.411819 C 5408.052503 15097.951218 5501.368688 15000.181839 5631.689566 15027.943515 C 5762.412669 15055.70519 5930.140465 15209.802607 6013.803251 15382.005464 C 6097.868262 15554.610664 6097.868262 15745.321305 6011.389902 15677.72766 C 5925.313766 15610.536359 5752.75927 15284.236085 5620.025043 15081.45515 C 5487.290815 14878.674215 5393.974631 14799.41262 5501.368688 14634.049596 C 5608.36052 14468.686572 5916.062593 14217.222119 6065.288042 13972.597499 C 6214.111267 13727.97288 6204.860094 13490.188093 6130.448481 13383.164822 C 6055.634644 13276.141551 5916.062593 13299.075109 5694.83888 13469.266251 C 5473.212942 13639.457393 5170.337569 13956.101431 4788.223883 14203.14011 C 4406.512423 14450.178788 3945.160426 14627.209763 3451.228209 14676.295624 C 2957.295993 14724.979142 2430.783556 14645.717546 2048.669871 14475.928748 C 1666.556186 14305.737606 1428.841251 14044.616919 1233.359934 13958.51549 C 1037.476392 13872.414062 883.826468 13960.929549 883.826468 13935.179589 C 883.826468 13909.429629 1037.476392 13769.816565 1256.286755 13723.144762 C 1475.499343 13676.875303 1759.87237 13723.144762 2104.579137 13837.41021 C 2449.285903 13951.675657 2854.728635 14133.132406 3220.351098 14196.300277 C 3586.375786 14259.065804 3912.580206 14203.14011 4105.648174 14067.95282 C 4299.118366 13933.167873 4359.854331 13718.718988 4315.609588 13511.109936 C 4271.364846 13303.903227 4122.139396 13103.536351 3886.83781 13017.434922 C 3651.536225 12930.931151 3329.75628 12959.095169 3120.19709 13035.942706 C 2910.6379 13112.790243 2812.897242 13238.723641 2775.490323 13413.340557 C 2738.083405 13587.957473 2761.412451 13811.66025 2913.05125 13967.769382 C 3064.287824 14123.878514 3343.834152 14212.394002 3551.382217 14161.296425 C 3758.528057 14109.796505 3893.675634 13919.085864 3900.915683 13762.976732 C 3907.753507 13606.867599 3786.683802 13485.762319 3644.296176 13439.090517 C 3502.310775 13392.418714 3339.409678 13420.582733 3239.25567 13536.859896 C 3139.101662 13653.539402 3101.694743 13858.332052 3197.022052 14007.601351 C 3292.751586 14156.468307 3520.813122 14249.811912 3828.515195 14214.80806 C 4136.217268 14179.804209 4522.755428 14016.855243 4851.373198 13820.914142 C 5179.990967 13625.375383 5449.883896 13397.246832 5580.606999 13243.149415 C 5710.927877 13089.454342 5701.676704 13010.595089 5594.684872 12961.509228 C 5487.290815 12912.423367 5282.1561 12893.915583 5205.331138 12921.677259 C 5128.506176 12949.841278 5179.990967 13024.274756 5210.157837 13122.044135 C 5240.324707 13219.813514 5249.57588 13341.321137 5317.149669 13348.160971 C 5384.723457 13355.000804 5510.619861 13247.977533 5552.451254 13150.208153 C 5594.684872 13052.438774 5552.451254 12963.923287 5405.639154 12921.677259 C 5259.229279 12879.833574 5007.436471 12884.661691 4739.554666 12849.65784 C 4471.672862 12814.653988 4187.299835 12740.22051 3795.934976 12714.47055 C 3404.570117 12688.72059 2905.811201 12712.056491 2570.355608 12812.239929 C 2234.900015 12912.423367 2062.747744 13089.454342 1962.593736 13238.723641 C 1862.037503 13387.99294 1834.283982 13509.09822 1829.457283 13431.84834 C 1825.032809 13355.000804 1843.535156 13080.20045 1983.509432 12842.415663 C 2123.081483 12605.03322 2384.125464 12404.666344 2810.483892 12337.072699 C 3236.84232 12269.479054 3828.515195 12334.65864 4261.711447 12423.174128 C 4695.309924 12511.689615 4970.029552 12623.541004 5284.569449 12686.306531 C 5599.109346 12749.474402 5953.469511 12763.556411 6216.524617 12872.993741 C 6479.981947 12982.431071 6652.134218 13187.223721 6726.948056 13406.500724 C 6801.359668 13625.375383 6778.030622 13858.332052 6691.954487 14021.683361 C 6605.476126 14184.632326 6456.652901 14277.975931 6479.981947 14121.866799 C 6503.310993 13965.757666 6698.79231 13560.195797 6782.857321 13094.282459 C 6866.520107 12628.369121 6838.766587 12101.701971 6787.281795 11614.866791 C 6736.199229 11128.031611 6661.385392 10680.626056 6580.135955 10386.915576 C 6498.484294 10093.607438 6409.994809 9953.592031 6268.009408 9839.326584 C 6125.621782 9725.463479 5930.140465 9636.947992 5783.328365 9434.167057 C 5636.516265 9231.386123 5538.775606 8914.742084 5545.61343 8632.699554 C 5552.451254 8350.657024 5664.269785 8104.020688 5794.992888 7954.751389 C 5925.313766 7805.48209 6074.539216 7754.384513 6214.111267 7735.87673 C 6354.085544 7716.966603 6484.406422 7731.048612 6510.148817 7740.302504 C 6535.891213 7749.556396 6456.652901 7754.384513 6375.00124 7803.470375 C 6293.349579 7852.153893 6209.686793 7945.497497 6268.009408 8019.930975 C 6325.929798 8094.364453 6526.237815 8150.290148 6710.456833 8152.704206 C 6894.675852 8155.118265 7062.403649 8104.020688 7178.646654 8010.677084 C 7295.291885 7917.333479 7360.452324 7782.146189 7514.102248 7712.540828 C 7668.154397 7642.533125 7910.293806 7637.705007 8106.177348 7700.872878 C 8301.658665 7763.638405 8450.884114 7893.997578 8583.618342 8005.848966 C 8716.35257 8117.700355 8832.9978 8211.043959 8970.156502 8222.71191 C 9107.717428 8234.379861 9266.194052 8164.372157 9261.367353 8117.700355 C 9256.942878 8071.430895 9089.215082 8048.094994 8958.894204 7992.1693 C 8828.171101 7936.243606 8734.854916 7847.728118 8765.424011 7824.392217 C 8795.590881 7801.056316 8949.240805 7842.900001 9131.046475 7863.821843 C 9312.852144 7884.743686 9522.411333 7884.743686 9690.13913 8022.345034 C 9857.866927 8159.946383 9983.76333 8434.746737 9995.427854 8681.785415 C 10007.092377 8928.42175 9904.525019 9147.698753 9743.635046 9336.397678 C 9583.147298 9525.096603 9363.93471 9683.619794 9324.516667 9641.373766 C 9284.696399 9599.530081 9424.670675 9357.319521 9452.82642 9131.202685 C 9480.57994 8905.488192 9396.51493 8695.465081 9252.116179 8606.949594 C 9107.717428 8518.434106 8902.984938 8551.0239 8690.610174 8488.258372 C 8478.637635 8425.492845 8259.827272 8266.969654 8066.357079 8206.215842 C 7872.886887 8145.864373 7705.15909 8182.879941 7584.089386 8285.477437 C 7463.019681 8388.074934 7388.608069 8555.852017 7213.640223 8593.269928 C 7039.074603 8630.285495 6763.952749 8537.344233 6589.387129 8616.203486 C 6414.419283 8695.465081 6340.007671 8947.331877 6368.163416 9168.620595 C 6395.916937 9389.909314 6526.237815 9581.022298 6794.521844 9718.221303 C 7062.403649 9855.822652 7467.846381 9939.912365 7896.215933 9906.920228 C 8324.987711 9874.330435 8777.088534 9725.463479 8895.744889 9527.510662 C 9014.803469 9329.155502 8800.41758 9082.519167 8539.373599 8938.077985 C 8278.329619 8793.636803 7971.029771 8751.390775 7730.901486 8779.554794 C 7490.773202 8807.31647 7318.620931 8905.488192 7286.040711 9066.023099 C 7253.460492 9226.960348 7360.452324 9450.663125 7584.089386 9543.604387 C 7807.726448 9636.947992 8148.008741 9599.530081 8230.464852 9265.182945 C 8313.323188 8930.835809 8138.355342 8299.157104 8185.013434 7819.5641 C 8231.671526 7339.568752 8499.553331 7010.85442 8573.160494 6763.011055 C 8646.365431 6514.765347 8525.295727 6346.988265 8304.072014 6256.461062 C 8082.848302 6165.531516 7761.068356 6151.449506 7465.433031 6235.539219 C 7169.395481 6319.226589 6899.100327 6501.085681 6633.631871 6424.238144 C 6368.163416 6346.988265 6107.119435 6011.836442 5799.417362 5767.211822 C 5492.117514 5522.587203 5137.757349 5368.892129 4909.695813 5322.220327 C 4681.232051 5275.548525 4578.664694 5335.899993 4616.071612 5329.06016 C 4653.076306 5322.220327 4830.457501 5247.384506 5119.255002 5177.779145 C 5408.052503 5107.771442 5808.668536 5042.591856 6216.524617 5058.685581 C 6624.380698 5075.181649 7039.074603 5172.951028 7313.794232 5210.368938 C 7588.916085 5247.384506 7724.063662 5224.048605 7847.546716 5214.794713 C 7971.029771 5205.540821 8082.848302 5210.368938 8318.149887 5163.697136 C 8553.451472 5117.025334 8912.236112 5019.255954 9333.76784 5024.084072 C 9755.701794 5028.509846 10239.980612 5135.93546 10445.115328 5224.048605 C 10650.250043 5312.966435 10575.436206 5382.571796 10319.218924 5578.512897 C 10063.001642 5774.051656 9624.978691 6095.523812 9322.103317 6230.711102 C 9019.227943 6365.898391 8851.500147 6314.800815 8963.318678 6186.453358 C 9075.137209 6058.105901 9466.502068 5853.313251 9790.293138 5699.618178 C 10114.486433 5545.923104 10370.703715 5443.325607 10433.450805 5294.056308 C 10496.600119 5145.189352 10365.877016 4949.248251 10235.556138 4718.705641 C 10104.833035 4488.16303 9974.512157 4222.616568 9569.069426 3977.991949 C 9163.626694 3733.367329 8483.464334 3509.664552 7828.642145 3448.91074 C 7174.22218 3388.559272 6545.142386 3490.754425 6093.041563 3695.949419 C 5640.940739 3900.742069 5366.221111 4208.534559 5202.917788 4480.920854 C 5040.016691 4753.709492 4988.934124 4991.091936 4930.611509 5100.931609 C 4872.288894 5210.368938 4807.128455 5191.458812 4930.611509 5114.611275 C 5054.094563 5037.763738 5366.221111 4902.576448 5804.244062 4872.400714 C 6242.267013 4842.22498 6806.186367 4916.658458 7316.207581 4907.404566 C 7826.63102 4898.150674 8283.156318 4804.807069 8504.38003 4595.186301 C 8725.603743 4385.565534 8711.928095 4059.26526 8497.542207 3854.47261 C 8283.156318 3649.277616 7868.462413 3565.590246 7523.755646 3590.937863 C 7178.646654 3616.687823 6903.927026 3751.875113 6962.249641 3952.241989 C 7020.170031 4152.608865 7411.53489 4418.155327 7560.76034 4287.796154 C 7709.98579 4157.034639 7616.669605 3630.769832 7719.236963 3285.961775 C 7821.804321 2941.153717 8119.852995 2777.802409 8275.916269 2458.744311 C 8431.979543 2139.686214 8446.057415 1664.518984 8345.903407 1354.312435 C 8245.749399 1044.508229 8031.36351 900.067048 7679.81892 867.477255 C 7327.872104 834.887462 6838.766587 914.149057 6475.155248 1133.023717 C 6111.54391 1352.300719 5874.2312 1710.788443 5981.223032 2048.756668 C 6088.617089 2386.724892 6540.315687 2703.368931 7201.9757 2843.384338 C 7863.635714 2982.997402 8734.854916 2945.579492 9266.194052 2694.115039 C 9797.533187 2442.650586 9988.59003 1976.737248 9851.029103 1606.179231 C 9713.468176 1235.621213 9247.691705 960.82086 8560.289296 895.641273 C 7872.886887 830.461687 6964.260766 974.902869 6368.163416 1163.601794 C 5771.663842 1352.300719 5487.290815 1585.257388 5303.071796 1778.382088 C 5119.255002 1971.909131 5035.189991 2125.604204 4958.365029 2230.61576 C 4881.540067 2335.224972 4811.552929 2391.150666 4760.470363 2388.736608 C 4709.387797 2386.724892 4676.405352 2325.97108 4697.723273 2344.478864 C 4718.63897 2363.388991 4793.050582 2461.15837 4737.141317 2799.126594 C 4681.232051 3136.692476 4495.001908 3714.457202 4303.945065 4143.354973 C 4112.888222 4571.8504 3917.00468 4851.478872 3705.032141 5037.763738 C 3493.059602 5224.048605 3264.595841 5317.392209 3099.281394 5257.040741 C 2933.966946 5196.286929 2831.399589 4981.838044 2861.566459 4641.858104 C 2892.135554 4301.475821 3055.036651 3835.562483 3217.937748 3665.773684 C 3381.241071 3495.582543 3544.142168 3621.515941 3604.878133 3868.152276 C 3665.614098 4115.190954 3623.38048 4483.334913 3499.897426 4760.549325 C 3376.414372 5037.763738 3171.681881 5224.048605 3052.623301 5121.853451 C 2933.966946 5019.255954 2901.386727 4627.776094 2931.553597 4245.550126 C 2961.720467 3863.726501 3055.036651 3490.754425 3157.604009 2973.74351 C 3260.171366 2456.330253 3371.989897 1794.878156 3443.98816 1335.804651 C 3516.388648 876.731147 3548.968868 620.438576 3630.620529 435.360739 C 3711.869965 250.282902 3842.593068 136.017455 4047.727783 78.884731 C 4252.460274 21.752007 4532.006601 21.752007 4686.05875 132.396367 C 4839.708675 243.040726 4867.462195 464.329444 4723.063444 582.21598 C 4578.664694 699.700172 4261.711447 713.782181 4063.816781 583.423009 C 3865.922114 453.063837 3786.683802 177.86114 3660.787399 389.895966 C 3534.890995 601.930793 3362.738724 1300.8008 3236.84232 1694.694718 C 3110.945917 2088.186294 3031.707605 2177.104124 3029.294255 2221.361868 C 3027.283131 2265.619612 3101.694743 2265.619612 3038.947654 2840.970279 C 2975.798339 3416.320947 2775.490323 4567.424626 2586.84683 5447.751382 C 2398.203337 6328.480481 2220.822142 6938.835 1990.347256 7335.142978 C 1759.87237 7731.048612 1475.499343 7912.907704 1279.615801 7915.321763 C 1084.134484 7917.333479 976.740427 7740.302504 944.160208 7411.990515 C 911.579988 7083.276182 953.813606 6603.280835 1044.314216 6330.89454 C 1135.21705 6058.105901 1275.191327 5992.926315 1393.847682 6128.113605 C 1512.906262 6263.300895 1610.64692 6598.85506 1598.982397 6906.245207 C 1587.317874 7214.037697 1466.248169 7493.263826 1335.525066 7591.435548 C 1205.204189 7689.204927 1065.632137 7605.115214 1028.225218 7288.471175 C 990.8183 6971.424793 1055.978739 6421.824086 1088.558958 5988.500541 C 1121.541403 5555.176996 1121.541403 5238.130614 1163.372796 4765.377443 C 1205.204189 4292.221929 1289.269199 3663.359625 1328.687243 3136.692476 C 1368.507511 2610.427669 1363.680812 2186.358016 1477.912692 1841.549959 C 1592.144573 1496.741901 1825.032809 1230.793096 2011.262952 1147.105726 C 2197.895321 1063.418356 2337.467372 1161.187735 2342.294071 1384.890513 C 2346.718546 1608.59329 2216.397668 1957.827122 2013.676302 2125.604204 C 1810.954936 2293.381287 1536.235308 2279.299278 1526.581909 2072.092569 C 1517.330736 1864.88586 1773.548017 1464.152108 2011.262952 1063.418356 C 2248.977887 662.684604 2467.78825 261.950853 2514.446342 145.271347 C 2561.104434 28.994184 2435.208031 196.771266 2213.984318 394.724084 C 1992.760605 592.676901 1675.807359 820.805452 1412.752253 1175.269745 C 1149.294923 1529.331694 939.735733 2009.327041 769.594587 2365.400706 C 599.453441 2721.876715 469.132563 2955.235727 354.900682 3234.461855 C 240.668801 3514.090326 142.928143 3840.3906 45.187484 4166.690874 " stroke="#231f20" stroke-width="78.097" stroke-opacity="1" stroke-miterlimit="22.926001"/></g><g clip-path="url(#311d1060e5)"><path stroke-linecap="butt" transform="matrix(0.0110084, 0, 0, -0.0110052, 153.627563, 230.461185)" fill="none" stroke-linejoin="round" d="M 13691.739491 16242.409822 C 13605.157796 16271.160551 13518.930945 16299.911281 13412.1232 16250.573609 C 13305.315454 16201.235938 13177.926814 16073.809866 13142.797356 15870.425077 C 13108.022741 15667.040288 13165.507309 15387.341834 13183.959145 15175.793258 C 13202.410982 14963.889734 13181.830087 14820.136087 13163.378251 14865.214392 C 13144.926414 14910.647643 13128.603636 15144.912845 13175.797756 15259.915762 C 13222.991876 15375.273627 13334.057738 15371.01426 13461.446378 15171.533891 C 13588.835018 14972.053522 13732.546437 14577.707098 13816.999073 14279.551386 C 13901.451709 13981.395675 13925.935876 13780.140569 13831.547636 13732.932581 C 13736.804553 13685.369646 13523.189061 13792.563724 13385.509974 14010.146404 C 13247.830887 14228.084031 13186.088203 14557.120156 13128.248793 14745.952107 C 13070.764225 14935.139005 13017.537774 14984.476676 12863.181065 15060.435393 C 12709.1792 15136.749058 12454.401919 15239.32882 11971.105742 15169.759154 C 11488.164407 15099.834541 10777.059017 14857.050604 10115.276806 14602.19846 C 9453.494595 14347.346316 8841.035562 14080.071017 8514.225151 13893.36875 C 8187.41474 13705.956588 8146.252951 13599.117458 8185.285682 13463.527599 C 8224.318413 13327.93774 8343.545664 13163.597151 8397.126958 13196.2523 C 8450.35341 13229.262397 8437.933904 13459.623179 8361.9975 13599.117458 C 8286.061097 13738.966685 8146.252951 13788.304356 8105.091162 13677.205859 C 8063.929373 13566.462309 8121.413941 13294.927643 8195.576129 13151.173996 C 8269.383475 13007.42035 8359.868442 12990.737828 8623.161955 13095.802221 C 8886.100624 13200.511668 9321.847839 13426.613082 9887.112752 13658.748601 C 10452.377664 13891.239066 11147.160275 14129.408689 11601.359327 14242.63687 C 12055.558378 14355.510103 12269.173869 14343.441896 12394.788294 14398.813671 C 12520.047876 14454.185446 12556.951549 14577.707098 12550.919218 14476.902072 C 12544.886887 14376.097045 12495.563708 14051.320288 12546.661102 13726.54353 C 12598.113338 13401.766773 12750.340989 13077.344963 12733.663367 12822.137872 C 12717.340589 12567.285727 12532.467381 12382.358197 12349.368389 12318.822634 C 12166.624239 12254.932125 11985.654305 12312.433583 11769.909756 12400.815455 C 11554.165206 12489.197327 11303.291199 12608.459611 11005.223072 12643.599392 C 10707.154945 12678.384225 10361.892697 12629.046553 10144.01909 12520.07774 C 9926.145483 12411.108926 9835.660515 12242.863917 9874.693246 12035.219761 C 9913.725977 11827.575604 10082.276406 11580.887248 10316.827635 11498.53948 C 10551.024021 11416.546659 10851.221206 11498.53948 11017.642577 11679.56259 C 11184.063948 11860.585701 11217.064348 12139.929207 11147.160275 12326.986422 C 11077.256203 12514.043636 10904.447658 12608.459611 10696.864497 12620.882766 C 10489.281337 12633.305921 10246.923562 12563.381307 10150.051421 12419.272713 C 10053.534123 12275.519067 10102.857301 12057.581439 10230.245941 11926.250947 C 10357.634581 11794.565508 10563.443526 11749.487204 10717.445392 11848.162546 C 10871.447258 11946.837889 10974.35173 12189.266879 10896.286268 12368.160306 C 10818.220806 12547.053733 10559.18541 12662.05665 10320.730908 12651.763179 C 10082.276406 12641.469708 9864.402799 12505.879849 9638.367803 12341.184313 C 9412.332806 12176.843724 9177.781577 11983.752406 9009.585991 11837.869075 C 8841.035562 11691.630798 8738.13109 11593.310402 8748.421537 11533.67926 C 8758.711984 11474.048118 8882.197351 11453.461176 8982.617923 11467.659067 C 9083.393337 11482.211905 9161.458799 11531.549576 9153.29741 11615.672081 C 9145.136021 11700.149532 9050.392937 11819.411817 8959.90797 11804.858979 C 8869.777846 11790.661088 8783.196152 11642.648074 8853.100224 11568.464093 C 8923.004297 11494.63506 9149.039294 11494.63506 9414.461864 11443.167705 C 9679.529592 11391.70035 9983.63005 11289.120587 10353.731308 11258.240174 C 10723.477723 11227.359761 11159.224938 11268.533645 11475.744901 11371.113408 C 11792.264865 11474.048118 11989.912421 11638.388706 12090.332992 11773.978566 C 12191.108407 11909.568425 12195.366523 12016.762503 12182.947018 11913.827793 C 12170.527512 11810.893083 12141.785229 11498.53948 11960.815294 11241.557652 C 11780.200203 10984.930772 11447.002618 10783.320719 11087.54665 10717.655473 C 10727.735839 10651.990227 10341.311803 10721.559893 9991.791439 10851.115649 C 9642.625919 10980.671404 9330.009228 11169.858302 9106.10329 11251.851123 C 8881.842508 11334.198891 8746.292479 11309.352582 8649.77518 11360.819937 C 8553.257882 11412.287292 8495.418472 11539.713364 8612.871508 11771.848882 C 8729.9697 12004.339348 9021.650654 12341.184313 9373.300075 12579.708882 C 9724.594654 12818.233451 10135.857701 12957.727731 10573.733973 13011.32477 C 11011.255403 13064.921808 11475.744901 13031.911712 11814.974818 12906.615323 C 12154.204734 12781.318935 12367.820225 12563.381307 12513.660702 12399.040719 C 12659.856021 12234.345183 12737.921483 12123.601633 12877.729629 11901.404638 C 13017.537774 11679.56259 13218.73376 11346.622046 13393.671363 11211.032186 C 13568.254124 11075.08738 13716.223658 11136.848206 13716.223658 11371.113408 C 13716.223658 11605.37861 13568.254124 12012.503135 13409.994142 12318.822634 C 13251.73416 12625.142133 13083.183731 12830.656606 12968.214596 12849.113864 C 12852.890618 12867.571123 12791.147935 12698.971167 12785.115603 12538.534998 C 12779.083272 12378.453777 12828.40645 12226.181395 12793.276993 12145.963311 C 12758.502378 12065.745227 12639.275127 12057.581439 12579.661501 11827.575604 C 12520.047876 11597.214822 12520.047876 11145.011993 12612.661901 10733.983047 C 12704.921083 10322.954102 12890.149134 9953.099041 13025.699163 9716.704155 C 13161.249193 9480.309269 13247.830887 9377.374559 13288.637833 9381.633926 C 13329.799622 9385.538346 13325.896349 9496.636844 13280.476444 9523.257889 C 13235.411381 9550.233882 13149.18453 9492.732424 13116.184131 9210.904287 C 13083.183731 8929.431097 13103.764625 8423.631229 13122.216462 8109.147942 C 13140.668298 7794.664656 13157.34592 7671.497951 13192.120534 7656.945113 C 13227.249992 7642.747222 13280.476444 7737.163197 13214.830487 7733.258777 C 13149.18453 7728.99941 12963.95648 7626.419647 12797.535109 7365.178452 C 12631.113738 7104.292204 12483.144203 6684.744524 12343.336058 6411.435122 C 12203.527912 6138.125719 12071.881156 6010.699647 12053.42932 6051.873531 C 12034.977483 6093.047415 12129.365723 6302.466308 12256.754364 6479.230051 C 12384.497847 6655.993795 12544.886887 6800.102389 12499.466981 6826.723434 C 12454.401919 6853.34448 12203.527912 6762.832925 11929.943953 6516.499515 C 11656.714836 6269.811159 11360.775767 5866.946 11151.063549 5455.917055 C 10941.35133 5044.533162 10818.220806 4625.340429 10760.736239 4349.901343 C 10703.251672 4074.462257 10711.413061 3943.131765 10742.284403 3862.913681 C 10772.800901 3782.695596 10826.382196 3753.944867 10801.543185 3772.402125 C 10777.059017 3790.859384 10674.154545 3856.52463 10649.670377 3953.425236 C 10625.18621 4049.970895 10678.412661 4177.396967 10593.960025 4025.124586 C 10509.862232 3873.207152 10287.730508 3441.591264 10076.244075 2956.378338 C 9864.402799 2471.165412 9662.85197 1932.710395 9500.688715 1495.060403 C 9338.170617 1057.055465 9215.040093 720.2105 9159.329741 490.91456 C 9103.974232 261.973567 9116.393737 140.581599 9128.458399 19.18963 " stroke="#231f20" stroke-width="68.899002" stroke-opacity="1" stroke-miterlimit="22.926001"/></g><g fill="#252827" fill-opacity="1"><g transform="translate(49.91465, 281.69056)"><g><path d="M 80.546875 16.902344 L 85.660156 16.902344 C 85.867188 16.902344 86.078125 16.796875 86.285156 16.695312 C 86.390625 16.589844 86.597656 16.589844 86.597656 16.695312 C 86.703125 16.796875 87.121094 16.796875 87.433594 16.695312 L 88.269531 16.695312 C 88.476562 16.796875 92.128906 16.171875 92.964844 15.964844 L 97.449219 15.023438 L 99.746094 14.503906 C 100.996094 14.191406 102.25 13.773438 102.457031 13.5625 L 103.710938 13.144531 C 105.171875 12.730469 107.257812 11.894531 107.988281 11.476562 C 108.925781 10.851562 111.328125 8.972656 111.953125 8.453125 C 113.207031 7.09375 115.082031 4.070312 115.1875 3.027344 C 115.292969 2.710938 115.292969 2.710938 115.082031 3.027344 C 114.875 3.234375 114.769531 3.441406 114.769531 3.652344 C 114.5625 4.277344 113.414062 6.15625 113.207031 6.15625 C 113.101562 6.15625 113.101562 6.261719 112.996094 6.363281 C 112.996094 6.675781 110.699219 8.972656 109.761719 9.703125 C 109.136719 10.121094 106.320312 11.582031 106.109375 11.476562 L 105.589844 11.6875 C 105.277344 11.789062 104.441406 12.101562 103.605469 12.3125 L 100.058594 13.25 L 98.179688 13.667969 L 97.554688 13.773438 C 95.050781 14.398438 92.335938 14.816406 88.6875 15.234375 C 84.929688 15.546875 84.929688 15.546875 81.800781 15.441406 C 77 15.234375 71.785156 14.292969 66.460938 12.625 L 63.957031 11.894531 L 61.453125 11.058594 L 53.941406 8.453125 L 40.484375 3.339844 L 39.335938 2.921875 C 38.605469 2.710938 34.640625 1.042969 33.179688 0.3125 L 29.527344 -1.355469 C 28.484375 -1.980469 27.542969 -2.398438 27.230469 -2.503906 C 26.398438 -2.816406 25.355469 -3.339844 24.308594 -3.859375 C 23.164062 -4.589844 19.40625 -6.46875 18.46875 -6.886719 L 17.738281 -7.199219 L 20.867188 -10.015625 L 22.535156 -11.582031 L 23.371094 -12.519531 C 23.683594 -12.832031 23.894531 -13.144531 23.996094 -13.144531 C 24.101562 -13.144531 24.207031 -13.25 24.308594 -13.5625 C 24.414062 -13.773438 24.625 -13.980469 24.726562 -13.980469 C 24.726562 -13.980469 25.25 -14.398438 25.667969 -15.023438 L 30.050781 -19.617188 L 40.066406 -30.464844 L 40.898438 -31.40625 L 44.96875 -35.789062 L 46.324219 -37.351562 L 46.953125 -38.1875 L 48.097656 -39.4375 L 51.855469 -44.238281 L 52.585938 -45.074219 C 53.105469 -45.699219 54.671875 -47.054688 55.089844 -47.785156 L 55.925781 -48.621094 C 56.132812 -48.726562 56.445312 -49.039062 56.550781 -49.246094 C 56.863281 -49.664062 57.699219 -50.601562 58.949219 -51.960938 L 59.472656 -52.375 C 59.578125 -52.480469 59.679688 -52.480469 59.679688 -52.585938 C 59.679688 -52.691406 59.992188 -53.105469 60.410156 -53.523438 C 61.140625 -54.253906 62.8125 -55.925781 63.332031 -56.550781 L 64.585938 -58.011719 C 65.210938 -58.636719 66.777344 -60.203125 67.921875 -61.453125 C 68.445312 -61.976562 68.863281 -62.496094 69.070312 -62.496094 C 69.175781 -62.601562 69.28125 -62.707031 69.28125 -62.8125 L 72.410156 -65.941406 C 72.410156 -66.148438 73.558594 -67.191406 73.660156 -67.191406 C 73.765625 -67.296875 73.871094 -67.296875 73.871094 -67.402344 C 73.871094 -67.503906 74.703125 -68.339844 75.644531 -69.28125 L 78.355469 -71.992188 L 79.296875 -72.828125 C 80.445312 -73.976562 81.488281 -74.808594 82.738281 -75.75 C 85.136719 -77.417969 85.660156 -77.730469 85.765625 -77.730469 C 85.867188 -77.730469 88.058594 -79.296875 88.269531 -79.714844 L 89.207031 -80.652344 C 89.519531 -80.964844 89.832031 -81.382812 89.832031 -81.589844 C 89.832031 -82.007812 89.101562 -82.21875 88.6875 -82.007812 C 88.375 -81.800781 85.972656 -79.816406 85.035156 -78.984375 C 83.679688 -77.730469 80.757812 -75.644531 80.339844 -75.539062 L 79.816406 -75.332031 C 79.816406 -75.226562 79.503906 -75.121094 79.191406 -74.914062 C 78.773438 -74.808594 78.460938 -74.601562 78.460938 -74.496094 C 78.460938 -74.496094 78.148438 -74.289062 77.835938 -74.183594 L 75.851562 -73.347656 C 75.121094 -73.035156 73.976562 -72.515625 73.140625 -72.199219 C 72.410156 -71.992188 71.574219 -71.679688 71.46875 -71.574219 C 71.367188 -71.46875 71.15625 -71.367188 71.054688 -71.367188 L 69.800781 -70.949219 C 67.402344 -70.011719 59.160156 -67.296875 58.742188 -67.402344 L 56.445312 -66.777344 C 55.714844 -66.566406 51.230469 -65.523438 49.976562 -65.316406 L 46.535156 -64.6875 C 44.65625 -64.375 44.449219 -64.375 42.570312 -64.6875 C 40.484375 -65.105469 40.273438 -65 40.898438 -64.269531 C 41.421875 -63.539062 42.671875 -63.332031 45.28125 -63.644531 L 47.054688 -63.75 C 47.367188 -63.855469 47.890625 -63.855469 48.097656 -63.957031 L 48.933594 -64.167969 C 49.558594 -64.167969 54.046875 -65.316406 56.757812 -66.046875 L 62.496094 -67.609375 L 65.730469 -68.757812 C 67.402344 -69.28125 69.488281 -70.011719 70.21875 -70.324219 C 71.054688 -70.738281 71.785156 -70.949219 71.886719 -70.949219 C 71.992188 -70.949219 72.199219 -71.054688 72.515625 -71.15625 L 73.765625 -71.679688 C 74.289062 -71.886719 74.703125 -71.992188 74.703125 -72.097656 C 74.703125 -72.097656 75.019531 -72.304688 75.332031 -72.410156 L 77.105469 -73.035156 L 78.355469 -73.453125 L 77.835938 -73.035156 L 71.679688 -66.878906 L 68.964844 -63.957031 L 67.503906 -62.601562 C 67.402344 -62.496094 66.878906 -61.871094 66.359375 -61.351562 L 64.6875 -59.472656 C 64.167969 -58.949219 63.75 -58.429688 63.75 -58.324219 C 63.75 -58.21875 63.644531 -58.117188 63.539062 -58.117188 C 63.539062 -58.117188 63.4375 -58.011719 63.4375 -57.90625 C 63.332031 -57.800781 63.226562 -57.59375 63.019531 -57.488281 C 62.8125 -57.386719 62.707031 -57.175781 62.707031 -57.070312 C 62.601562 -57.070312 62.394531 -56.863281 62.183594 -56.65625 C 61.976562 -56.550781 61.765625 -56.339844 61.765625 -56.238281 L 61.246094 -55.714844 C 60.933594 -55.402344 60.410156 -54.984375 60.203125 -54.566406 L 55.195312 -48.933594 L 54.464844 -48.203125 L 53.941406 -47.472656 L 53.523438 -46.847656 C 53.316406 -46.847656 51.230469 -44.65625 50.289062 -43.507812 C 48.933594 -41.734375 48.203125 -40.796875 47.996094 -40.585938 L 46.636719 -39.023438 C 45.074219 -37.144531 44.03125 -35.996094 42.988281 -34.953125 L 41.839844 -33.699219 C 40.796875 -32.34375 39.855469 -31.40625 39.648438 -31.195312 L 29.214844 -19.824219 L 22.433594 -12.625 L 21.492188 -11.6875 C 21.074219 -11.269531 20.136719 -10.328125 19.300781 -9.597656 L 17.007812 -7.617188 C 16.378906 -7.929688 15.859375 -8.242188 15.753906 -8.347656 L 14.605469 -9.078125 C 14.605469 -8.972656 14.605469 -8.972656 14.398438 -9.078125 C 12.832031 -9.808594 11.371094 -10.226562 10.957031 -10.015625 C 10.851562 -10.015625 10.746094 -9.808594 10.746094 -9.597656 C 10.746094 -9.496094 10.640625 -9.390625 10.640625 -9.285156 L 10.640625 -8.242188 C 10.640625 -7.929688 10.539062 -7.617188 10.433594 -7.304688 L 10.640625 -6.886719 C 10.957031 -6.574219 11.371094 -5.945312 11.894531 -5.738281 C 12.3125 -5.632812 12.832031 -5.738281 13.25 -5.632812 C 13.773438 -5.53125 14.292969 -5.632812 14.816406 -5.632812 C 15.859375 -6.050781 16.484375 -6.050781 17.320312 -5.632812 C 18.257812 -5.21875 21.179688 -3.859375 22.535156 -3.027344 C 23.683594 -2.398438 24.726562 -1.878906 25.457031 -1.566406 L 32.34375 1.667969 L 37.25 3.859375 C 37.351562 3.964844 37.769531 4.070312 38.082031 4.171875 C 38.917969 4.382812 39.648438 4.589844 41.109375 5.21875 C 41.734375 5.53125 42.464844 5.84375 42.882812 5.84375 C 43.300781 5.945312 43.71875 6.15625 43.71875 6.15625 L 46.847656 7.40625 L 48.308594 7.929688 L 49.664062 8.453125 L 57.175781 11.164062 C 60.515625 12.417969 62.183594 13.042969 63.019531 13.25 L 64.375 13.667969 C 65.210938 13.980469 68.234375 14.816406 69.59375 15.128906 L 70.53125 15.441406 C 70.636719 15.441406 75.121094 16.378906 75.957031 16.484375 C 76.582031 16.589844 80.234375 16.902344 80.546875 16.902344 Z M 13.042969 -6.675781 C 12.519531 -7.09375 11.894531 -7.824219 11.894531 -7.929688 C 11.894531 -8.035156 12 -8.136719 12.207031 -8.035156 C 12.417969 -8.035156 13.460938 -7.617188 13.875 -7.40625 L 14.398438 -7.199219 C 14.921875 -6.992188 15.128906 -6.675781 14.710938 -6.78125 C 14.503906 -6.78125 14.398438 -6.78125 14.398438 -6.675781 C 14.292969 -6.46875 13.355469 -6.46875 13.042969 -6.675781 Z M 13.042969 -6.675781 "/></g></g></g><g fill="#252827" fill-opacity="1"><g transform="translate(113.038294, 281.69056)"><g><path d="M -1.042969 -28.484375 C 0.105469 -28.691406 0.835938 -28.902344 2.710938 -29.839844 L 7.40625 -31.925781 L 8.765625 -32.554688 C 8.867188 -32.65625 8.867188 -32.96875 8.660156 -33.074219 L 8.554688 -33.179688 L 8.242188 -33.179688 L 8.035156 -33.074219 C 2.296875 -30.570312 -1.148438 -29.320312 -1.773438 -29.527344 C -1.980469 -29.632812 -1.980469 -29.734375 -1.667969 -30.050781 C -1.460938 -30.464844 -1.253906 -30.570312 -0.523438 -30.777344 C 0.625 -31.09375 1.667969 -31.613281 3.441406 -32.867188 C 5.113281 -34.015625 5.84375 -34.640625 5.738281 -34.953125 C 5.53125 -35.578125 4.589844 -35.472656 2.921875 -34.847656 C 0.835938 -34.117188 -1.566406 -32.238281 -2.609375 -30.570312 C -3.128906 -29.734375 -3.234375 -29.421875 -3.027344 -29.003906 C -2.921875 -28.273438 -2.710938 -28.273438 -1.042969 -28.484375 Z M -0.207031 -31.925781 C -0.105469 -32.238281 1.667969 -33.492188 2.398438 -33.699219 C 3.027344 -34.015625 4.070312 -34.429688 4.070312 -34.222656 C 3.964844 -34.117188 2.398438 -33.074219 1.460938 -32.554688 C 0.3125 -31.925781 -0.417969 -31.71875 -0.207031 -31.925781 Z M -0.207031 -31.925781 "/></g></g></g><g fill="#252827" fill-opacity="1"><g transform="translate(121.38522, 281.69056)"><g><path d="M -1.253906 -28.378906 C 0.207031 -28.378906 2.398438 -29.945312 2.921875 -30.777344 L 3.234375 -30.882812 C 4.277344 -30.675781 5.53125 -30.570312 6.886719 -30.570312 C 8.347656 -30.570312 11.6875 -30.988281 13.875 -31.925781 L 14.816406 -32.34375 C 15.023438 -32.449219 15.128906 -32.65625 15.023438 -32.867188 C 14.921875 -33.074219 14.605469 -33.074219 14.503906 -32.96875 C 12.519531 -32.136719 10.226562 -31.300781 6.675781 -31.300781 C 5.84375 -31.300781 5.007812 -31.40625 4.382812 -31.613281 C 4.171875 -31.71875 3.964844 -31.824219 3.546875 -31.925781 L 3.546875 -32.867188 C 3.546875 -32.96875 3.546875 -33.179688 3.441406 -33.285156 C 3.339844 -33.492188 3.027344 -33.699219 2.710938 -33.699219 L 1.355469 -33.804688 L 1.148438 -33.910156 L 0.3125 -33.597656 L -1.460938 -31.824219 C -1.773438 -31.507812 -2.921875 -29.527344 -2.398438 -28.691406 C -2.085938 -28.273438 -2.085938 -28.273438 -1.253906 -28.378906 Z M 2.085938 -32.449219 C 1.878906 -32.554688 1.773438 -32.65625 1.980469 -32.65625 C 2.085938 -32.65625 2.191406 -32.554688 2.296875 -32.554688 C 2.296875 -32.449219 2.296875 -32.34375 2.085938 -32.449219 Z M -0.9375 -29.320312 C -1.042969 -29.320312 -1.460938 -29.839844 -0.523438 -31.09375 C 0.105469 -31.925781 0.417969 -32.03125 0.730469 -32.03125 L 1.148438 -31.71875 L 1.773438 -31.40625 C 1.878906 -31.300781 2.296875 -31.195312 0.9375 -30.050781 C 0 -29.214844 -0.835938 -29.320312 -0.9375 -29.320312 Z M -0.9375 -29.320312 "/></g></g></g><g fill="#252827" fill-opacity="1"><g transform="translate(135.992343, 281.69056)"><g><path d="M 6.15625 -27.960938 L 8.347656 -28.273438 C 10.328125 -28.691406 13.875 -29.945312 13.875 -29.945312 L 15.335938 -30.570312 L 16.484375 -31.09375 L 17.109375 -31.40625 C 17.945312 -31.824219 18.050781 -31.824219 18.886719 -32.136719 C 20.03125 -32.554688 20.554688 -32.761719 19.824219 -33.074219 C 19.617188 -33.179688 18.886719 -32.96875 16.695312 -32.03125 C 15.128906 -31.40625 12.9375 -30.570312 11.894531 -30.257812 C 6.886719 -28.691406 4.382812 -28.378906 4.382812 -29.734375 C 4.277344 -30.152344 4.488281 -30.675781 5.21875 -31.40625 C 6.050781 -32.34375 6.050781 -34.117188 4.488281 -32.96875 C 4.277344 -32.761719 3.757812 -32.554688 3.339844 -32.34375 L 0 -30.882812 L 0.730469 -32.03125 C 1.042969 -32.65625 1.042969 -32.65625 0.730469 -33.074219 C 0.3125 -33.597656 -0.105469 -33.492188 -0.835938 -32.449219 L -1.566406 -31.507812 C -1.773438 -30.988281 -2.609375 -29.734375 -3.027344 -29.320312 L -3.027344 -29.003906 C -3.234375 -28.691406 -2.921875 -28.273438 -2.503906 -28.273438 C -2.398438 -28.171875 -2.085938 -28.378906 -1.773438 -28.484375 C -0.835938 -29.109375 2.398438 -30.882812 3.441406 -31.40625 L 3.546875 -31.40625 L 3.339844 -30.988281 L 3.339844 -30.882812 L 3.128906 -30.570312 C 2.816406 -30.050781 3.027344 -28.796875 3.441406 -28.484375 C 4.070312 -27.960938 5.113281 -27.859375 6.15625 -27.960938 Z M 6.15625 -27.960938 "/></g></g></g><g fill="#252827" fill-opacity="1"><g transform="translate(155.607625, 281.69056)"><g><path d="M 2.296875 -28.484375 C 2.710938 -28.378906 3.128906 -28.378906 3.546875 -28.484375 L 3.859375 -28.484375 C 3.859375 -28.484375 5.738281 -28.902344 7.722656 -29.839844 L 13.667969 -32.554688 C 13.875 -32.65625 13.875 -32.96875 13.667969 -33.074219 L 13.5625 -33.179688 L 13.25 -33.179688 L 13.042969 -33.074219 C 8.453125 -31.09375 5.320312 -29.839844 3.964844 -29.527344 C 3.964844 -29.527344 2.609375 -29.109375 2.503906 -29.527344 C 2.085938 -30.464844 2.816406 -31.613281 3.339844 -32.238281 C 3.757812 -32.761719 4.800781 -34.015625 3.546875 -34.015625 C 3.339844 -34.015625 3.027344 -34.117188 3.027344 -34.222656 C 2.921875 -34.640625 2.609375 -34.535156 0.835938 -33.597656 C -0.730469 -32.761719 -2.710938 -31.507812 -3.964844 -30.464844 C -4.488281 -30.050781 -4.695312 -29.839844 -4.695312 -29.527344 C -4.695312 -29.003906 -4.382812 -28.902344 -3.757812 -28.902344 C -3.234375 -28.902344 -1.148438 -29.945312 -0.3125 -30.570312 C 0.523438 -31.300781 1.878906 -32.03125 1.878906 -31.925781 L 1.566406 -31.195312 C 1.355469 -30.882812 1.253906 -30.464844 1.253906 -30.152344 C 1.148438 -29.734375 1.148438 -29.421875 1.460938 -29.003906 C 1.667969 -28.691406 1.878906 -28.484375 2.296875 -28.484375 Z M -3.546875 -29.839844 L -2.921875 -30.257812 C -2.296875 -30.882812 -0.625 -32.03125 0.730469 -32.65625 C 1.773438 -33.285156 1.980469 -33.285156 1.980469 -33.074219 C 1.980469 -32.96875 1.667969 -32.761719 1.355469 -32.65625 C 0.523438 -32.238281 0.105469 -31.925781 -0.105469 -31.71875 C -0.3125 -31.507812 -2.085938 -30.464844 -2.921875 -30.050781 Z M -3.546875 -29.839844 "/></g></g></g><g fill="#252827" fill-opacity="1"><g transform="translate(168.96271, 281.69056)"><g><path d="M -2.816406 -28.066406 C -2.609375 -28.378906 -1.980469 -28.796875 -1.566406 -29.109375 L -0.417969 -29.945312 C 0 -30.363281 0.625 -30.675781 2.816406 -31.71875 L 3.964844 -32.34375 C 4.488281 -32.554688 4.589844 -32.554688 5.007812 -32.238281 C 5.632812 -31.925781 6.46875 -32.03125 7.929688 -32.554688 L 9.597656 -33.386719 L 10.746094 -33.910156 C 10.957031 -34.015625 11.476562 -34.117188 11.6875 -34.117188 C 12 -34.117188 12.207031 -34.222656 12.519531 -34.429688 C 13.144531 -35.058594 13.25 -35.371094 13.042969 -35.683594 C 12.832031 -36.101562 12.519531 -36.101562 11.6875 -35.472656 C 11.269531 -35.265625 10.957031 -35.058594 10.851562 -35.058594 C 10.746094 -35.058594 10.433594 -34.953125 10.121094 -34.742188 C 9.179688 -34.117188 7.09375 -33.179688 6.46875 -33.179688 C 6.261719 -33.179688 6.15625 -33.285156 6.050781 -33.597656 C 5.945312 -34.222656 5.632812 -34.328125 5.007812 -34.015625 C 4.800781 -33.804688 2.609375 -32.867188 2.085938 -32.554688 L 1.148438 -32.136719 C 0.835938 -31.925781 1.148438 -32.34375 1.980469 -33.074219 C 3.027344 -34.015625 3.234375 -34.640625 2.609375 -34.847656 C 2.296875 -34.953125 2.085938 -34.953125 1.667969 -34.640625 C 0.730469 -34.117188 -1.667969 -31.71875 -2.503906 -30.675781 L -3.441406 -29.527344 C -3.757812 -29.109375 -4.070312 -28.691406 -4.171875 -28.484375 C -4.277344 -27.648438 -3.339844 -27.441406 -2.816406 -28.066406 Z M -2.816406 -28.066406 "/></g></g></g><g fill="#252827" fill-opacity="1"><g transform="translate(185.239216, 281.69056)"><g><path d="M 2.398438 -24.832031 L 5.21875 -28.273438 C 7.929688 -31.824219 11.164062 -35.371094 12.9375 -36.832031 L 14.816406 -38.605469 L 16.277344 -39.753906 L 17.839844 -40.898438 C 18.46875 -41.316406 20.34375 -42.570312 20.867188 -43.089844 L 22.433594 -44.34375 C 23.683594 -45.175781 26.5 -47.472656 27.542969 -48.621094 C 29.421875 -50.5 30.363281 -51.542969 31.300781 -52.792969 C 32.136719 -53.941406 32.34375 -54.253906 32.238281 -54.671875 C 32.136719 -55.296875 31.613281 -55.195312 30.464844 -54.566406 C 30.050781 -54.253906 29.109375 -53.628906 28.589844 -53.105469 L 26.816406 -51.75 C 25.875 -51.125 24.101562 -49.457031 22.535156 -47.785156 C 21.285156 -46.429688 20.972656 -46.117188 19.300781 -44.550781 L 18.257812 -43.507812 L 14.191406 -39.335938 C 13.460938 -38.605469 11.789062 -37.457031 10.121094 -36.621094 C 9.179688 -36.203125 8.136719 -35.578125 7.617188 -35.265625 L 5.945312 -34.222656 L 5.21875 -33.804688 L 4.902344 -34.117188 C 4.171875 -35.058594 3.027344 -34.953125 0.9375 -33.804688 C -0.417969 -33.074219 -2.921875 -30.882812 -3.757812 -29.632812 C -4.488281 -28.589844 -4.171875 -27.960938 -3.027344 -28.378906 C -1.980469 -28.691406 -0.3125 -29.527344 0.523438 -30.050781 L 0.9375 -30.257812 C 1.042969 -30.257812 1.460938 -30.570312 1.980469 -30.882812 L 3.027344 -31.40625 L 3.964844 -31.925781 L 7.511719 -34.117188 C 8.453125 -34.640625 9.179688 -35.058594 9.285156 -35.058594 C 9.285156 -35.058594 8.867188 -34.535156 8.347656 -34.117188 C 6.992188 -32.761719 1.460938 -25.875 1.460938 -25.457031 C 1.566406 -24.9375 2.085938 -24.625 2.398438 -24.832031 Z M 18.988281 -42.359375 C 18.46875 -42.152344 19.824219 -43.71875 21.910156 -45.59375 L 23.265625 -46.953125 C 23.996094 -47.890625 24.726562 -48.621094 25.667969 -49.457031 L 26.5 -50.289062 L 27.859375 -51.4375 C 30.675781 -53.523438 31.09375 -53.628906 29.527344 -51.75 C 28.589844 -50.5 27.859375 -49.871094 25.355469 -47.472656 C 24.414062 -46.636719 23.164062 -45.59375 22.433594 -45.074219 L 20.761719 -43.71875 Z M -1.980469 -29.945312 C -2.296875 -29.945312 -1.566406 -30.777344 -0.625 -31.613281 L 0.207031 -32.34375 C 0.3125 -32.449219 0.625 -32.65625 1.148438 -32.867188 L 2.191406 -33.386719 C 2.503906 -33.492188 3.234375 -33.492188 3.441406 -33.386719 C 3.652344 -33.179688 3.128906 -32.554688 2.296875 -32.136719 C 1.773438 -31.824219 1.355469 -31.613281 1.253906 -31.507812 C 1.148438 -31.507812 0.417969 -31.195312 -0.417969 -30.777344 C -1.148438 -30.363281 -1.878906 -29.945312 -1.980469 -29.945312 Z M -1.980469 -29.945312 "/></g></g></g><g fill="#252827" fill-opacity="1"><g transform="translate(201.828739, 281.69056)"><g><path d="M -1.253906 -28.378906 C 0.207031 -28.378906 2.398438 -29.945312 2.921875 -30.777344 L 3.234375 -30.882812 C 4.277344 -30.675781 5.53125 -30.570312 6.886719 -30.570312 C 8.347656 -30.570312 11.6875 -30.988281 13.875 -31.925781 L 14.816406 -32.34375 C 15.023438 -32.449219 15.128906 -32.65625 15.023438 -32.867188 C 14.921875 -33.074219 14.605469 -33.074219 14.503906 -32.96875 C 12.519531 -32.136719 10.226562 -31.300781 6.675781 -31.300781 C 5.84375 -31.300781 5.007812 -31.40625 4.382812 -31.613281 C 4.171875 -31.71875 3.964844 -31.824219 3.546875 -31.925781 L 3.546875 -32.867188 C 3.546875 -32.96875 3.546875 -33.179688 3.441406 -33.285156 C 3.339844 -33.492188 3.027344 -33.699219 2.710938 -33.699219 L 1.355469 -33.804688 L 1.148438 -33.910156 L 0.3125 -33.597656 L -1.460938 -31.824219 C -1.773438 -31.507812 -2.921875 -29.527344 -2.398438 -28.691406 C -2.085938 -28.273438 -2.085938 -28.273438 -1.253906 -28.378906 Z M 2.085938 -32.449219 C 1.878906 -32.554688 1.773438 -32.65625 1.980469 -32.65625 C 2.085938 -32.65625 2.191406 -32.554688 2.296875 -32.554688 C 2.296875 -32.449219 2.296875 -32.34375 2.085938 -32.449219 Z M -0.9375 -29.320312 C -1.042969 -29.320312 -1.460938 -29.839844 -0.523438 -31.09375 C 0.105469 -31.925781 0.417969 -32.03125 0.730469 -32.03125 L 1.148438 -31.71875 L 1.773438 -31.40625 C 1.878906 -31.300781 2.296875 -31.195312 0.9375 -30.050781 C 0 -29.214844 -0.835938 -29.320312 -0.9375 -29.320312 Z M -0.9375 -29.320312 "/></g></g></g><g fill="#252827" fill-opacity="1"><g transform="translate(216.435862, 281.69056)"><g/></g></g><g fill="#252827" fill-opacity="1"><g transform="translate(258.170511, 281.69056)"><g><path d="M 1.667969 -26.398438 C 4.382812 -26.710938 9.179688 -27.648438 13.355469 -29.421875 C 16.066406 -30.570312 16.484375 -30.570312 20.03125 -32.238281 L 20.34375 -32.449219 C 21.804688 -33.179688 20.761719 -33.285156 20.34375 -33.179688 C 20.34375 -33.074219 13.460938 -30.363281 13.460938 -30.257812 C 9.597656 -28.796875 5.738281 -27.648438 0.835938 -27.335938 C -0.9375 -27.335938 -1.566406 -27.859375 -1.773438 -28.378906 C -1.878906 -28.691406 -2.085938 -29.632812 -1.566406 -30.363281 L -1.148438 -30.882812 C 0.207031 -32.34375 2.503906 -34.015625 3.441406 -34.117188 L 3.859375 -34.117188 L 3.339844 -33.597656 C 3.027344 -33.179688 2.816406 -32.867188 2.921875 -32.761719 L 3.027344 -32.449219 C 3.027344 -32.34375 3.234375 -32.34375 3.339844 -32.34375 C 3.757812 -32.449219 5.21875 -34.222656 5.113281 -34.640625 C 5.113281 -34.953125 4.488281 -35.371094 4.070312 -35.265625 C 2.710938 -35.058594 0.3125 -34.015625 -1.566406 -32.136719 C -2.609375 -31.09375 -3.128906 -30.363281 -3.128906 -29.214844 C -3.128906 -28.273438 -2.503906 -26.917969 -1.148438 -26.605469 C -0.3125 -26.398438 0.105469 -26.292969 1.667969 -26.398438 Z M 1.667969 -26.398438 "/></g></g></g><g fill="#252827" fill-opacity="1"><g transform="translate(278.516146, 281.69056)"><g><path d="M -1.253906 -28.378906 C 0.207031 -28.378906 2.398438 -29.945312 2.921875 -30.777344 L 3.234375 -30.882812 C 4.277344 -30.675781 5.53125 -30.570312 6.886719 -30.570312 C 8.347656 -30.570312 11.6875 -30.988281 13.875 -31.925781 L 14.816406 -32.34375 C 15.023438 -32.449219 15.128906 -32.65625 15.023438 -32.867188 C 14.921875 -33.074219 14.605469 -33.074219 14.503906 -32.96875 C 12.519531 -32.136719 10.226562 -31.300781 6.675781 -31.300781 C 5.84375 -31.300781 5.007812 -31.40625 4.382812 -31.613281 C 4.171875 -31.71875 3.964844 -31.824219 3.546875 -31.925781 L 3.546875 -32.867188 C 3.546875 -32.96875 3.546875 -33.179688 3.441406 -33.285156 C 3.339844 -33.492188 3.027344 -33.699219 2.710938 -33.699219 L 1.355469 -33.804688 L 1.148438 -33.910156 L 0.3125 -33.597656 L -1.460938 -31.824219 C -1.773438 -31.507812 -2.921875 -29.527344 -2.398438 -28.691406 C -2.085938 -28.273438 -2.085938 -28.273438 -1.253906 -28.378906 Z M 2.085938 -32.449219 C 1.878906 -32.554688 1.773438 -32.65625 1.980469 -32.65625 C 2.085938 -32.65625 2.191406 -32.554688 2.296875 -32.554688 C 2.296875 -32.449219 2.296875 -32.34375 2.085938 -32.449219 Z M -0.9375 -29.320312 C -1.042969 -29.320312 -1.460938 -29.839844 -0.523438 -31.09375 C 0.105469 -31.925781 0.417969 -32.03125 0.730469 -32.03125 L 1.148438 -31.71875 L 1.773438 -31.40625 C 1.878906 -31.300781 2.296875 -31.195312 0.9375 -30.050781 C 0 -29.214844 -0.835938 -29.320312 -0.9375 -29.320312 Z M -0.9375 -29.320312 "/></g></g></g><g fill="#252827" fill-opacity="1"><g transform="translate(293.123279, 281.69056)"><g><path d="M 0.207031 -27.335938 C 0.523438 -26.816406 0.835938 -26.816406 1.355469 -27.441406 C 1.980469 -28.171875 1.980469 -28.691406 1.460938 -28.796875 C 1.042969 -28.902344 0.835938 -28.902344 0.625 -28.796875 C 0 -28.589844 -0.207031 -27.960938 0.207031 -27.335938 Z M 0.207031 -27.335938 "/></g></g></g><g clip-path="url(#ea7d736313)"><path fill="#252827" d="M 111.839844 258.015625 C 112.378906 257.460938 112.933594 257.484375 113.464844 257.453125 C 125.730469 256.769531 138 256.3125 150.285156 256.195312 C 160.414062 256.097656 170.542969 255.859375 180.675781 255.765625 C 193.578125 255.648438 206.476562 255.703125 219.375 255.910156 C 227.898438 256.046875 236.421875 256.085938 244.945312 256.171875 C 253.699219 256.257812 262.453125 256.382812 271.203125 256.75 C 276.191406 256.960938 281.1875 256.992188 286.15625 257.527344 C 287.144531 257.636719 288.128906 257.835938 289.109375 257.996094 C 289.65625 258.085938 290.3125 258.230469 290.332031 258.847656 C 290.359375 259.6875 289.535156 259.644531 288.972656 259.796875 C 287.707031 260.132812 286.503906 259.699219 285.257812 259.550781 C 283.054688 259.285156 280.8125 259.347656 278.585938 259.308594 C 273.519531 259.222656 268.457031 259.148438 263.386719 259.09375 C 254.328125 258.992188 245.269531 258.914062 236.210938 258.8125 C 230.453125 258.75 224.691406 258.664062 218.933594 258.585938 C 207.191406 258.441406 195.445312 258.242188 183.699219 258.160156 C 171.957031 258.082031 160.214844 258.050781 148.472656 258.125 C 137.574219 258.195312 126.675781 258.429688 115.78125 258.597656 C 115.089844 258.609375 114.402344 258.695312 113.710938 258.726562 C 113.03125 258.753906 112.3125 258.84375 111.839844 258.015625 " fill-opacity="1" fill-rule="nonzero"/></g><g fill="#252827" fill-opacity="1"><g transform="translate(109.72756, 277.760871)"><g><path d="M 2.09375 -0.828125 C 2.09375 -0.617188 2.113281 -0.46875 2.15625 -0.375 C 2.195312 -0.28125 2.28125 -0.210938 2.40625 -0.171875 C 2.539062 -0.128906 2.742188 -0.109375 3.015625 -0.109375 C 3.035156 -0.109375 3.046875 -0.0859375 3.046875 -0.046875 C 3.046875 -0.015625 3.035156 0 3.015625 0 C 2.753906 0 2.550781 -0.00390625 2.40625 -0.015625 L 0.84375 -0.015625 C 0.71875 -0.00390625 0.546875 0 0.328125 0 C 0.304688 0 0.296875 -0.015625 0.296875 -0.046875 C 0.296875 -0.0859375 0.304688 -0.109375 0.328125 -0.109375 C 0.535156 -0.109375 0.6875 -0.125 0.78125 -0.15625 C 0.875 -0.195312 0.9375 -0.265625 0.96875 -0.359375 C 1 -0.453125 1.015625 -0.59375 1.015625 -0.78125 L 1.015625 -5.265625 C 1.015625 -5.453125 1 -5.59375 0.96875 -5.6875 C 0.9375 -5.78125 0.867188 -5.84375 0.765625 -5.875 C 0.671875 -5.90625 0.523438 -5.921875 0.328125 -5.921875 C 0.304688 -5.921875 0.296875 -5.941406 0.296875 -5.984375 C 0.296875 -6.023438 0.304688 -6.046875 0.328125 -6.046875 L 0.84375 -6.03125 C 1.132812 -6.019531 1.367188 -6.015625 1.546875 -6.015625 C 1.703125 -6.015625 1.882812 -6.023438 2.09375 -6.046875 C 2.175781 -6.046875 2.28125 -6.050781 2.40625 -6.0625 C 2.539062 -6.070312 2.691406 -6.078125 2.859375 -6.078125 C 3.515625 -6.078125 4.03125 -5.9375 4.40625 -5.65625 C 4.789062 -5.382812 4.984375 -4.960938 4.984375 -4.390625 C 4.984375 -3.992188 4.878906 -3.65625 4.671875 -3.375 C 4.472656 -3.09375 4.207031 -2.878906 3.875 -2.734375 C 3.550781 -2.597656 3.21875 -2.53125 2.875 -2.53125 C 2.707031 -2.53125 2.554688 -2.546875 2.421875 -2.578125 C 2.410156 -2.578125 2.40625 -2.59375 2.40625 -2.625 C 2.40625 -2.644531 2.410156 -2.664062 2.421875 -2.6875 C 2.429688 -2.707031 2.441406 -2.710938 2.453125 -2.703125 C 2.554688 -2.679688 2.664062 -2.671875 2.78125 -2.671875 C 3.082031 -2.671875 3.332031 -2.804688 3.53125 -3.078125 C 3.726562 -3.359375 3.828125 -3.753906 3.828125 -4.265625 C 3.828125 -4.773438 3.71875 -5.164062 3.5 -5.4375 C 3.28125 -5.71875 2.960938 -5.859375 2.546875 -5.859375 C 2.367188 -5.859375 2.25 -5.816406 2.1875 -5.734375 C 2.125 -5.648438 2.09375 -5.484375 2.09375 -5.234375 Z M 2.09375 -0.828125 "/></g></g></g><g fill="#252827" fill-opacity="1"><g transform="translate(122.802639, 277.760871)"><g><path d="M 7.078125 -0.109375 C 7.097656 -0.109375 7.109375 -0.0859375 7.109375 -0.046875 C 7.109375 -0.015625 7.097656 0 7.078125 0 C 6.847656 0 6.664062 -0.00390625 6.53125 -0.015625 L 4.921875 -0.015625 C 4.804688 -0.00390625 4.648438 0 4.453125 0 C 4.429688 0 4.421875 -0.015625 4.421875 -0.046875 C 4.421875 -0.0859375 4.429688 -0.109375 4.453125 -0.109375 C 4.691406 -0.109375 4.863281 -0.125 4.96875 -0.15625 C 5.082031 -0.195312 5.15625 -0.257812 5.1875 -0.34375 C 5.226562 -0.4375 5.25 -0.582031 5.25 -0.78125 L 5.25 -3.015625 L 2.125 -3.015625 L 2.125 -0.78125 C 2.125 -0.59375 2.144531 -0.453125 2.1875 -0.359375 C 2.226562 -0.265625 2.300781 -0.195312 2.40625 -0.15625 C 2.519531 -0.125 2.695312 -0.109375 2.9375 -0.109375 C 2.945312 -0.109375 2.953125 -0.0859375 2.953125 -0.046875 C 2.953125 -0.015625 2.945312 0 2.9375 0 C 2.707031 0 2.523438 -0.00390625 2.390625 -0.015625 L 0.828125 -0.015625 C 0.691406 -0.00390625 0.515625 0 0.296875 0 C 0.273438 0 0.265625 -0.015625 0.265625 -0.046875 C 0.265625 -0.0859375 0.273438 -0.109375 0.296875 -0.109375 C 0.515625 -0.109375 0.675781 -0.125 0.78125 -0.15625 C 0.882812 -0.195312 0.953125 -0.265625 0.984375 -0.359375 C 1.023438 -0.453125 1.046875 -0.59375 1.046875 -0.78125 L 1.046875 -5.265625 C 1.046875 -5.453125 1.023438 -5.59375 0.984375 -5.6875 C 0.953125 -5.78125 0.882812 -5.84375 0.78125 -5.875 C 0.6875 -5.90625 0.53125 -5.921875 0.3125 -5.921875 C 0.289062 -5.921875 0.28125 -5.941406 0.28125 -5.984375 C 0.28125 -6.023438 0.289062 -6.046875 0.3125 -6.046875 L 0.828125 -6.03125 C 1.128906 -6.019531 1.367188 -6.015625 1.546875 -6.015625 C 1.796875 -6.015625 2.082031 -6.019531 2.40625 -6.03125 L 2.9375 -6.046875 C 2.945312 -6.046875 2.953125 -6.023438 2.953125 -5.984375 C 2.953125 -5.941406 2.945312 -5.921875 2.9375 -5.921875 C 2.695312 -5.921875 2.519531 -5.898438 2.40625 -5.859375 C 2.300781 -5.828125 2.226562 -5.765625 2.1875 -5.671875 C 2.144531 -5.578125 2.125 -5.429688 2.125 -5.234375 L 2.125 -3.28125 L 5.25 -3.28125 L 5.25 -5.234375 C 5.25 -5.429688 5.226562 -5.578125 5.1875 -5.671875 C 5.15625 -5.765625 5.082031 -5.828125 4.96875 -5.859375 C 4.863281 -5.898438 4.691406 -5.921875 4.453125 -5.921875 C 4.429688 -5.921875 4.421875 -5.941406 4.421875 -5.984375 C 4.421875 -6.023438 4.429688 -6.046875 4.453125 -6.046875 L 4.921875 -6.03125 C 5.242188 -6.019531 5.535156 -6.015625 5.796875 -6.015625 C 5.960938 -6.015625 6.207031 -6.019531 6.53125 -6.03125 L 7.078125 -6.046875 C 7.097656 -6.046875 7.109375 -6.023438 7.109375 -5.984375 C 7.109375 -5.941406 7.097656 -5.921875 7.078125 -5.921875 C 6.859375 -5.921875 6.695312 -5.90625 6.59375 -5.875 C 6.488281 -5.84375 6.414062 -5.78125 6.375 -5.6875 C 6.34375 -5.59375 6.328125 -5.453125 6.328125 -5.265625 L 6.328125 -0.78125 C 6.328125 -0.59375 6.34375 -0.453125 6.375 -0.359375 C 6.414062 -0.265625 6.484375 -0.195312 6.578125 -0.15625 C 6.679688 -0.125 6.847656 -0.109375 7.078125 -0.109375 Z M 7.078125 -0.109375 "/></g></g></g><g fill="#252827" fill-opacity="1"><g transform="translate(137.915201, 277.760871)"><g><path d="M 3.546875 0.109375 C 2.941406 0.109375 2.40625 -0.0234375 1.9375 -0.296875 C 1.46875 -0.578125 1.101562 -0.957031 0.84375 -1.4375 C 0.59375 -1.925781 0.46875 -2.453125 0.46875 -3.015625 C 0.46875 -3.679688 0.632812 -4.25 0.96875 -4.71875 C 1.3125 -5.195312 1.742188 -5.554688 2.265625 -5.796875 C 2.796875 -6.035156 3.332031 -6.15625 3.875 -6.15625 C 4.488281 -6.15625 5.023438 -6.007812 5.484375 -5.71875 C 5.953125 -5.4375 6.3125 -5.054688 6.5625 -4.578125 C 6.8125 -4.109375 6.9375 -3.609375 6.9375 -3.078125 C 6.9375 -2.492188 6.78125 -1.957031 6.46875 -1.46875 C 6.15625 -0.976562 5.738281 -0.59375 5.21875 -0.3125 C 4.707031 -0.03125 4.148438 0.109375 3.546875 0.109375 Z M 3.859375 -0.125 C 4.222656 -0.125 4.546875 -0.226562 4.828125 -0.4375 C 5.117188 -0.644531 5.34375 -0.953125 5.5 -1.359375 C 5.664062 -1.765625 5.75 -2.25 5.75 -2.8125 C 5.75 -3.394531 5.65625 -3.921875 5.46875 -4.390625 C 5.289062 -4.859375 5.03125 -5.222656 4.6875 -5.484375 C 4.34375 -5.753906 3.941406 -5.890625 3.484375 -5.890625 C 2.898438 -5.890625 2.445312 -5.664062 2.125 -5.21875 C 1.8125 -4.78125 1.65625 -4.164062 1.65625 -3.375 C 1.65625 -2.75 1.75 -2.1875 1.9375 -1.6875 C 2.132812 -1.195312 2.398438 -0.8125 2.734375 -0.53125 C 3.066406 -0.257812 3.441406 -0.125 3.859375 -0.125 Z M 3.859375 -0.125 "/></g></g></g><g fill="#252827" fill-opacity="1"><g transform="translate(153.047067, 277.760871)"><g><path d="M 2.140625 -5.828125 C 1.378906 -5.828125 0.832031 -5.328125 0.5 -4.328125 C 0.488281 -4.304688 0.46875 -4.296875 0.4375 -4.296875 C 0.40625 -4.296875 0.390625 -4.304688 0.390625 -4.328125 C 0.410156 -4.585938 0.4375 -4.921875 0.46875 -5.328125 C 0.5 -5.742188 0.515625 -6.050781 0.515625 -6.25 C 0.515625 -6.289062 0.53125 -6.3125 0.5625 -6.3125 C 0.601562 -6.3125 0.625 -6.289062 0.625 -6.25 C 0.625 -6.113281 0.8125 -6.046875 1.1875 -6.046875 C 1.738281 -6.023438 2.382812 -6.015625 3.125 -6.015625 C 3.5 -6.015625 3.898438 -6.019531 4.328125 -6.03125 L 4.984375 -6.046875 C 5.234375 -6.046875 5.414062 -6.0625 5.53125 -6.09375 C 5.644531 -6.125 5.71875 -6.1875 5.75 -6.28125 C 5.75 -6.3125 5.765625 -6.328125 5.796875 -6.328125 C 5.835938 -6.328125 5.859375 -6.3125 5.859375 -6.28125 C 5.835938 -6.09375 5.816406 -5.785156 5.796875 -5.359375 C 5.773438 -4.929688 5.765625 -4.585938 5.765625 -4.328125 C 5.765625 -4.304688 5.75 -4.296875 5.71875 -4.296875 C 5.6875 -4.296875 5.664062 -4.304688 5.65625 -4.328125 C 5.5625 -4.828125 5.378906 -5.203125 5.109375 -5.453125 C 4.847656 -5.703125 4.523438 -5.828125 4.140625 -5.828125 C 3.953125 -5.828125 3.828125 -5.785156 3.765625 -5.703125 C 3.703125 -5.617188 3.671875 -5.460938 3.671875 -5.234375 L 3.671875 -0.78125 C 3.671875 -0.582031 3.691406 -0.4375 3.734375 -0.34375 C 3.773438 -0.257812 3.847656 -0.195312 3.953125 -0.15625 C 4.066406 -0.125 4.242188 -0.109375 4.484375 -0.109375 C 4.492188 -0.109375 4.5 -0.0859375 4.5 -0.046875 C 4.5 -0.015625 4.492188 0 4.484375 0 C 4.242188 0 4.054688 -0.00390625 3.921875 -0.015625 L 2.34375 -0.015625 C 2.207031 -0.00390625 2.019531 0 1.78125 0 C 1.757812 0 1.75 -0.015625 1.75 -0.046875 C 1.75 -0.0859375 1.757812 -0.109375 1.78125 -0.109375 C 2.007812 -0.109375 2.179688 -0.125 2.296875 -0.15625 C 2.410156 -0.195312 2.488281 -0.265625 2.53125 -0.359375 C 2.570312 -0.453125 2.59375 -0.59375 2.59375 -0.78125 L 2.59375 -5.265625 C 2.59375 -5.484375 2.5625 -5.628906 2.5 -5.703125 C 2.445312 -5.785156 2.328125 -5.828125 2.140625 -5.828125 Z M 2.140625 -5.828125 "/></g></g></g><g fill="#252827" fill-opacity="1"><g transform="translate(166.991212, 277.760871)"><g><path d="M 3.546875 0.109375 C 2.941406 0.109375 2.40625 -0.0234375 1.9375 -0.296875 C 1.46875 -0.578125 1.101562 -0.957031 0.84375 -1.4375 C 0.59375 -1.925781 0.46875 -2.453125 0.46875 -3.015625 C 0.46875 -3.679688 0.632812 -4.25 0.96875 -4.71875 C 1.3125 -5.195312 1.742188 -5.554688 2.265625 -5.796875 C 2.796875 -6.035156 3.332031 -6.15625 3.875 -6.15625 C 4.488281 -6.15625 5.023438 -6.007812 5.484375 -5.71875 C 5.953125 -5.4375 6.3125 -5.054688 6.5625 -4.578125 C 6.8125 -4.109375 6.9375 -3.609375 6.9375 -3.078125 C 6.9375 -2.492188 6.78125 -1.957031 6.46875 -1.46875 C 6.15625 -0.976562 5.738281 -0.59375 5.21875 -0.3125 C 4.707031 -0.03125 4.148438 0.109375 3.546875 0.109375 Z M 3.859375 -0.125 C 4.222656 -0.125 4.546875 -0.226562 4.828125 -0.4375 C 5.117188 -0.644531 5.34375 -0.953125 5.5 -1.359375 C 5.664062 -1.765625 5.75 -2.25 5.75 -2.8125 C 5.75 -3.394531 5.65625 -3.921875 5.46875 -4.390625 C 5.289062 -4.859375 5.03125 -5.222656 4.6875 -5.484375 C 4.34375 -5.753906 3.941406 -5.890625 3.484375 -5.890625 C 2.898438 -5.890625 2.445312 -5.664062 2.125 -5.21875 C 1.8125 -4.78125 1.65625 -4.164062 1.65625 -3.375 C 1.65625 -2.75 1.75 -2.1875 1.9375 -1.6875 C 2.132812 -1.195312 2.398438 -0.8125 2.734375 -0.53125 C 3.066406 -0.257812 3.441406 -0.125 3.859375 -0.125 Z M 3.859375 -0.125 "/></g></g></g><g fill="#252827" fill-opacity="1"><g transform="translate(182.123081, 277.760871)"><g><path d="M 4.078125 0.109375 C 3.335938 0.109375 2.695312 -0.0234375 2.15625 -0.296875 C 1.613281 -0.566406 1.195312 -0.9375 0.90625 -1.40625 C 0.613281 -1.882812 0.46875 -2.410156 0.46875 -2.984375 C 0.46875 -3.585938 0.628906 -4.128906 0.953125 -4.609375 C 1.285156 -5.097656 1.738281 -5.476562 2.3125 -5.75 C 2.882812 -6.019531 3.53125 -6.15625 4.25 -6.15625 C 4.550781 -6.15625 4.859375 -6.128906 5.171875 -6.078125 C 5.484375 -6.023438 5.734375 -5.960938 5.921875 -5.890625 C 5.992188 -5.859375 6.03125 -5.832031 6.03125 -5.8125 C 6.039062 -5.800781 6.050781 -5.753906 6.0625 -5.671875 L 6.1875 -4.328125 C 6.1875 -4.304688 6.164062 -4.289062 6.125 -4.28125 C 6.09375 -4.28125 6.078125 -4.289062 6.078125 -4.3125 C 5.992188 -4.53125 5.859375 -4.765625 5.671875 -5.015625 C 5.484375 -5.265625 5.238281 -5.484375 4.9375 -5.671875 C 4.632812 -5.859375 4.28125 -5.953125 3.875 -5.953125 C 3.46875 -5.953125 3.09375 -5.835938 2.75 -5.609375 C 2.40625 -5.378906 2.132812 -5.054688 1.9375 -4.640625 C 1.738281 -4.222656 1.640625 -3.738281 1.640625 -3.1875 C 1.640625 -2.570312 1.753906 -2.023438 1.984375 -1.546875 C 2.210938 -1.078125 2.53125 -0.707031 2.9375 -0.4375 C 3.34375 -0.175781 3.800781 -0.046875 4.3125 -0.046875 C 4.570312 -0.046875 4.773438 -0.0703125 4.921875 -0.125 C 5.066406 -0.1875 5.171875 -0.300781 5.234375 -0.46875 C 5.296875 -0.632812 5.328125 -0.882812 5.328125 -1.21875 C 5.328125 -1.550781 5.304688 -1.785156 5.265625 -1.921875 C 5.234375 -2.054688 5.15625 -2.144531 5.03125 -2.1875 C 4.90625 -2.226562 4.679688 -2.25 4.359375 -2.25 C 4.316406 -2.25 4.296875 -2.273438 4.296875 -2.328125 C 4.296875 -2.347656 4.300781 -2.363281 4.3125 -2.375 C 4.320312 -2.394531 4.335938 -2.40625 4.359375 -2.40625 C 4.898438 -2.375 5.34375 -2.359375 5.6875 -2.359375 C 6.019531 -2.359375 6.363281 -2.367188 6.71875 -2.390625 C 6.738281 -2.390625 6.75 -2.363281 6.75 -2.3125 C 6.757812 -2.269531 6.75 -2.25 6.71875 -2.25 C 6.59375 -2.257812 6.503906 -2.238281 6.453125 -2.1875 C 6.410156 -2.144531 6.382812 -2.046875 6.375 -1.890625 C 6.363281 -1.742188 6.359375 -1.488281 6.359375 -1.125 C 6.359375 -0.832031 6.367188 -0.625 6.390625 -0.5 C 6.410156 -0.375 6.421875 -0.296875 6.421875 -0.265625 C 6.421875 -0.234375 6.414062 -0.207031 6.40625 -0.1875 C 6.394531 -0.175781 6.363281 -0.164062 6.3125 -0.15625 C 5.476562 0.0195312 4.734375 0.109375 4.078125 0.109375 Z M 4.078125 0.109375 "/></g></g></g><g fill="#252827" fill-opacity="1"><g transform="translate(196.916983, 277.760871)"><g><path d="M 6.84375 -0.109375 C 6.851562 -0.109375 6.859375 -0.0859375 6.859375 -0.046875 C 6.859375 -0.015625 6.851562 0 6.84375 0 L 5.125 0 C 4.976562 0 4.710938 -0.253906 4.328125 -0.765625 C 3.941406 -1.273438 3.476562 -1.992188 2.9375 -2.921875 C 2.882812 -2.910156 2.804688 -2.90625 2.703125 -2.90625 C 2.453125 -2.90625 2.273438 -2.910156 2.171875 -2.921875 L 2.171875 -0.78125 C 2.171875 -0.582031 2.1875 -0.4375 2.21875 -0.34375 C 2.25 -0.257812 2.3125 -0.195312 2.40625 -0.15625 C 2.5 -0.125 2.648438 -0.109375 2.859375 -0.109375 C 2.867188 -0.109375 2.875 -0.0859375 2.875 -0.046875 C 2.875 -0.015625 2.867188 0 2.859375 0 C 2.648438 0 2.484375 -0.00390625 2.359375 -0.015625 L 0.921875 -0.015625 C 0.785156 -0.00390625 0.609375 0 0.390625 0 C 0.378906 0 0.375 -0.015625 0.375 -0.046875 C 0.375 -0.0859375 0.378906 -0.109375 0.390625 -0.109375 C 0.597656 -0.109375 0.75 -0.125 0.84375 -0.15625 C 0.9375 -0.195312 1 -0.265625 1.03125 -0.359375 C 1.070312 -0.453125 1.09375 -0.59375 1.09375 -0.78125 L 1.09375 -5.265625 C 1.09375 -5.453125 1.078125 -5.59375 1.046875 -5.6875 C 1.015625 -5.78125 0.945312 -5.84375 0.84375 -5.875 C 0.75 -5.90625 0.601562 -5.921875 0.40625 -5.921875 C 0.394531 -5.921875 0.390625 -5.941406 0.390625 -5.984375 C 0.390625 -6.023438 0.394531 -6.046875 0.40625 -6.046875 L 0.921875 -6.03125 C 1.210938 -6.019531 1.445312 -6.015625 1.625 -6.015625 C 1.84375 -6.015625 2.070312 -6.023438 2.3125 -6.046875 C 2.394531 -6.046875 2.5 -6.050781 2.625 -6.0625 C 2.75 -6.070312 2.890625 -6.078125 3.046875 -6.078125 C 3.628906 -6.078125 4.082031 -5.96875 4.40625 -5.75 C 4.726562 -5.53125 4.890625 -5.226562 4.890625 -4.84375 C 4.890625 -4.488281 4.789062 -4.164062 4.59375 -3.875 C 4.40625 -3.59375 4.148438 -3.363281 3.828125 -3.1875 C 4.347656 -2.414062 4.78125 -1.8125 5.125 -1.375 C 5.46875 -0.9375 5.773438 -0.613281 6.046875 -0.40625 C 6.316406 -0.207031 6.582031 -0.109375 6.84375 -0.109375 Z M 2.171875 -3.1875 C 2.328125 -3.164062 2.515625 -3.15625 2.734375 -3.15625 C 3.109375 -3.15625 3.378906 -3.257812 3.546875 -3.46875 C 3.710938 -3.675781 3.796875 -4.015625 3.796875 -4.484375 C 3.796875 -5.003906 3.71875 -5.363281 3.5625 -5.5625 C 3.40625 -5.769531 3.179688 -5.875 2.890625 -5.875 C 2.628906 -5.875 2.441406 -5.820312 2.328125 -5.71875 C 2.222656 -5.625 2.171875 -5.460938 2.171875 -5.234375 Z M 2.171875 -3.1875 "/></g></g></g><g fill="#252827" fill-opacity="1"><g transform="translate(211.392219, 277.760871)"><g><path d="M 6.9375 -0.109375 C 6.96875 -0.109375 6.984375 -0.0859375 6.984375 -0.046875 C 6.984375 -0.015625 6.96875 0 6.9375 0 C 6.800781 0 6.597656 -0.00390625 6.328125 -0.015625 C 6.046875 -0.0234375 5.84375 -0.03125 5.71875 -0.03125 C 5.5625 -0.03125 5.367188 -0.0234375 5.140625 -0.015625 C 4.921875 -0.00390625 4.742188 0 4.609375 0 C 4.585938 0 4.578125 -0.015625 4.578125 -0.046875 C 4.578125 -0.0859375 4.585938 -0.109375 4.609375 -0.109375 C 4.773438 -0.109375 4.894531 -0.125 4.96875 -0.15625 C 5.050781 -0.195312 5.09375 -0.265625 5.09375 -0.359375 C 5.09375 -0.460938 5.023438 -0.644531 4.890625 -0.90625 L 4.234375 -2.21875 L 1.859375 -2.21875 L 1.484375 -1.375 C 1.398438 -1.1875 1.359375 -1.007812 1.359375 -0.84375 C 1.359375 -0.613281 1.4375 -0.429688 1.59375 -0.296875 C 1.757812 -0.171875 1.984375 -0.109375 2.265625 -0.109375 C 2.296875 -0.109375 2.3125 -0.0859375 2.3125 -0.046875 C 2.3125 -0.015625 2.296875 0 2.265625 0 C 2.148438 0 1.984375 -0.00390625 1.765625 -0.015625 C 1.515625 -0.0234375 1.300781 -0.03125 1.125 -0.03125 C 0.945312 -0.03125 0.738281 -0.0234375 0.5 -0.015625 C 0.28125 -0.00390625 0.101562 0 -0.03125 0 C -0.0625 0 -0.078125 -0.015625 -0.078125 -0.046875 C -0.078125 -0.0859375 -0.0625 -0.109375 -0.03125 -0.109375 C 0.144531 -0.109375 0.289062 -0.144531 0.40625 -0.21875 C 0.53125 -0.300781 0.65625 -0.4375 0.78125 -0.625 C 0.90625 -0.8125 1.050781 -1.09375 1.21875 -1.46875 L 3.3125 -6.078125 C 3.332031 -6.097656 3.363281 -6.109375 3.40625 -6.109375 C 3.457031 -6.109375 3.484375 -6.097656 3.484375 -6.078125 L 5.90625 -1.328125 C 6.132812 -0.867188 6.320312 -0.550781 6.46875 -0.375 C 6.613281 -0.195312 6.769531 -0.109375 6.9375 -0.109375 Z M 1.984375 -2.484375 L 4.09375 -2.484375 L 2.984375 -4.6875 Z M 1.984375 -2.484375 "/></g></g></g><g fill="#252827" fill-opacity="1"><g transform="translate(226.041274, 277.760871)"><g><path d="M 2.09375 -0.828125 C 2.09375 -0.617188 2.113281 -0.46875 2.15625 -0.375 C 2.195312 -0.28125 2.28125 -0.210938 2.40625 -0.171875 C 2.539062 -0.128906 2.742188 -0.109375 3.015625 -0.109375 C 3.035156 -0.109375 3.046875 -0.0859375 3.046875 -0.046875 C 3.046875 -0.015625 3.035156 0 3.015625 0 C 2.753906 0 2.550781 -0.00390625 2.40625 -0.015625 L 0.84375 -0.015625 C 0.71875 -0.00390625 0.546875 0 0.328125 0 C 0.304688 0 0.296875 -0.015625 0.296875 -0.046875 C 0.296875 -0.0859375 0.304688 -0.109375 0.328125 -0.109375 C 0.535156 -0.109375 0.6875 -0.125 0.78125 -0.15625 C 0.875 -0.195312 0.9375 -0.265625 0.96875 -0.359375 C 1 -0.453125 1.015625 -0.59375 1.015625 -0.78125 L 1.015625 -5.265625 C 1.015625 -5.453125 1 -5.59375 0.96875 -5.6875 C 0.9375 -5.78125 0.867188 -5.84375 0.765625 -5.875 C 0.671875 -5.90625 0.523438 -5.921875 0.328125 -5.921875 C 0.304688 -5.921875 0.296875 -5.941406 0.296875 -5.984375 C 0.296875 -6.023438 0.304688 -6.046875 0.328125 -6.046875 L 0.84375 -6.03125 C 1.132812 -6.019531 1.367188 -6.015625 1.546875 -6.015625 C 1.703125 -6.015625 1.882812 -6.023438 2.09375 -6.046875 C 2.175781 -6.046875 2.28125 -6.050781 2.40625 -6.0625 C 2.539062 -6.070312 2.691406 -6.078125 2.859375 -6.078125 C 3.515625 -6.078125 4.03125 -5.9375 4.40625 -5.65625 C 4.789062 -5.382812 4.984375 -4.960938 4.984375 -4.390625 C 4.984375 -3.992188 4.878906 -3.65625 4.671875 -3.375 C 4.472656 -3.09375 4.207031 -2.878906 3.875 -2.734375 C 3.550781 -2.597656 3.21875 -2.53125 2.875 -2.53125 C 2.707031 -2.53125 2.554688 -2.546875 2.421875 -2.578125 C 2.410156 -2.578125 2.40625 -2.59375 2.40625 -2.625 C 2.40625 -2.644531 2.410156 -2.664062 2.421875 -2.6875 C 2.429688 -2.707031 2.441406 -2.710938 2.453125 -2.703125 C 2.554688 -2.679688 2.664062 -2.671875 2.78125 -2.671875 C 3.082031 -2.671875 3.332031 -2.804688 3.53125 -3.078125 C 3.726562 -3.359375 3.828125 -3.753906 3.828125 -4.265625 C 3.828125 -4.773438 3.71875 -5.164062 3.5 -5.4375 C 3.28125 -5.71875 2.960938 -5.859375 2.546875 -5.859375 C 2.367188 -5.859375 2.25 -5.816406 2.1875 -5.734375 C 2.125 -5.648438 2.09375 -5.484375 2.09375 -5.234375 Z M 2.09375 -0.828125 "/></g></g></g><g fill="#252827" fill-opacity="1"><g transform="translate(239.116353, 277.760871)"><g><path d="M 7.078125 -0.109375 C 7.097656 -0.109375 7.109375 -0.0859375 7.109375 -0.046875 C 7.109375 -0.015625 7.097656 0 7.078125 0 C 6.847656 0 6.664062 -0.00390625 6.53125 -0.015625 L 4.921875 -0.015625 C 4.804688 -0.00390625 4.648438 0 4.453125 0 C 4.429688 0 4.421875 -0.015625 4.421875 -0.046875 C 4.421875 -0.0859375 4.429688 -0.109375 4.453125 -0.109375 C 4.691406 -0.109375 4.863281 -0.125 4.96875 -0.15625 C 5.082031 -0.195312 5.15625 -0.257812 5.1875 -0.34375 C 5.226562 -0.4375 5.25 -0.582031 5.25 -0.78125 L 5.25 -3.015625 L 2.125 -3.015625 L 2.125 -0.78125 C 2.125 -0.59375 2.144531 -0.453125 2.1875 -0.359375 C 2.226562 -0.265625 2.300781 -0.195312 2.40625 -0.15625 C 2.519531 -0.125 2.695312 -0.109375 2.9375 -0.109375 C 2.945312 -0.109375 2.953125 -0.0859375 2.953125 -0.046875 C 2.953125 -0.015625 2.945312 0 2.9375 0 C 2.707031 0 2.523438 -0.00390625 2.390625 -0.015625 L 0.828125 -0.015625 C 0.691406 -0.00390625 0.515625 0 0.296875 0 C 0.273438 0 0.265625 -0.015625 0.265625 -0.046875 C 0.265625 -0.0859375 0.273438 -0.109375 0.296875 -0.109375 C 0.515625 -0.109375 0.675781 -0.125 0.78125 -0.15625 C 0.882812 -0.195312 0.953125 -0.265625 0.984375 -0.359375 C 1.023438 -0.453125 1.046875 -0.59375 1.046875 -0.78125 L 1.046875 -5.265625 C 1.046875 -5.453125 1.023438 -5.59375 0.984375 -5.6875 C 0.953125 -5.78125 0.882812 -5.84375 0.78125 -5.875 C 0.6875 -5.90625 0.53125 -5.921875 0.3125 -5.921875 C 0.289062 -5.921875 0.28125 -5.941406 0.28125 -5.984375 C 0.28125 -6.023438 0.289062 -6.046875 0.3125 -6.046875 L 0.828125 -6.03125 C 1.128906 -6.019531 1.367188 -6.015625 1.546875 -6.015625 C 1.796875 -6.015625 2.082031 -6.019531 2.40625 -6.03125 L 2.9375 -6.046875 C 2.945312 -6.046875 2.953125 -6.023438 2.953125 -5.984375 C 2.953125 -5.941406 2.945312 -5.921875 2.9375 -5.921875 C 2.695312 -5.921875 2.519531 -5.898438 2.40625 -5.859375 C 2.300781 -5.828125 2.226562 -5.765625 2.1875 -5.671875 C 2.144531 -5.578125 2.125 -5.429688 2.125 -5.234375 L 2.125 -3.28125 L 5.25 -3.28125 L 5.25 -5.234375 C 5.25 -5.429688 5.226562 -5.578125 5.1875 -5.671875 C 5.15625 -5.765625 5.082031 -5.828125 4.96875 -5.859375 C 4.863281 -5.898438 4.691406 -5.921875 4.453125 -5.921875 C 4.429688 -5.921875 4.421875 -5.941406 4.421875 -5.984375 C 4.421875 -6.023438 4.429688 -6.046875 4.453125 -6.046875 L 4.921875 -6.03125 C 5.242188 -6.019531 5.535156 -6.015625 5.796875 -6.015625 C 5.960938 -6.015625 6.207031 -6.019531 6.53125 -6.03125 L 7.078125 -6.046875 C 7.097656 -6.046875 7.109375 -6.023438 7.109375 -5.984375 C 7.109375 -5.941406 7.097656 -5.921875 7.078125 -5.921875 C 6.859375 -5.921875 6.695312 -5.90625 6.59375 -5.875 C 6.488281 -5.84375 6.414062 -5.78125 6.375 -5.6875 C 6.34375 -5.59375 6.328125 -5.453125 6.328125 -5.265625 L 6.328125 -0.78125 C 6.328125 -0.59375 6.34375 -0.453125 6.375 -0.359375 C 6.414062 -0.265625 6.484375 -0.195312 6.578125 -0.15625 C 6.679688 -0.125 6.847656 -0.109375 7.078125 -0.109375 Z M 7.078125 -0.109375 "/></g></g></g><g fill="#252827" fill-opacity="1"><g transform="translate(254.228916, 277.760871)"><g><path d="M 4.796875 -1.53125 C 4.796875 -1.550781 4.8125 -1.5625 4.84375 -1.5625 C 4.851562 -1.5625 4.863281 -1.554688 4.875 -1.546875 C 4.894531 -1.535156 4.90625 -1.523438 4.90625 -1.515625 C 4.84375 -1.015625 4.8125 -0.554688 4.8125 -0.140625 C 4.8125 -0.0859375 4.800781 -0.0507812 4.78125 -0.03125 C 4.769531 -0.0078125 4.734375 0 4.671875 0 L 0.390625 0 C 0.378906 0 0.375 -0.015625 0.375 -0.046875 C 0.375 -0.0859375 0.378906 -0.109375 0.390625 -0.109375 C 0.597656 -0.109375 0.75 -0.125 0.84375 -0.15625 C 0.9375 -0.195312 1 -0.265625 1.03125 -0.359375 C 1.0625 -0.453125 1.078125 -0.59375 1.078125 -0.78125 L 1.078125 -5.265625 C 1.078125 -5.453125 1.0625 -5.59375 1.03125 -5.6875 C 1 -5.78125 0.9375 -5.84375 0.84375 -5.875 C 0.75 -5.90625 0.597656 -5.921875 0.390625 -5.921875 C 0.378906 -5.921875 0.375 -5.941406 0.375 -5.984375 C 0.375 -6.023438 0.378906 -6.046875 0.390625 -6.046875 L 4.5 -6.046875 C 4.5625 -6.046875 4.59375 -6.015625 4.59375 -5.953125 L 4.609375 -4.671875 C 4.609375 -4.660156 4.585938 -4.648438 4.546875 -4.640625 C 4.515625 -4.640625 4.5 -4.644531 4.5 -4.65625 C 4.394531 -5.03125 4.21875 -5.304688 3.96875 -5.484375 C 3.726562 -5.671875 3.410156 -5.765625 3.015625 -5.765625 L 2.71875 -5.765625 C 2.519531 -5.765625 2.375 -5.722656 2.28125 -5.640625 C 2.195312 -5.554688 2.15625 -5.425781 2.15625 -5.25 L 2.15625 -3.28125 L 2.953125 -3.28125 C 3.328125 -3.28125 3.613281 -3.34375 3.8125 -3.46875 C 4.019531 -3.601562 4.125 -3.785156 4.125 -4.015625 C 4.125 -4.035156 4.140625 -4.046875 4.171875 -4.046875 C 4.210938 -4.046875 4.234375 -4.035156 4.234375 -4.015625 L 4.21875 -3.140625 L 4.234375 -2.671875 C 4.242188 -2.453125 4.25 -2.28125 4.25 -2.15625 C 4.25 -2.144531 4.226562 -2.140625 4.1875 -2.140625 C 4.144531 -2.140625 4.125 -2.144531 4.125 -2.15625 C 4.125 -2.414062 4.019531 -2.625 3.8125 -2.78125 C 3.613281 -2.9375 3.328125 -3.015625 2.953125 -3.015625 L 2.15625 -3.015625 L 2.15625 -0.828125 C 2.15625 -0.640625 2.191406 -0.5 2.265625 -0.40625 C 2.335938 -0.3125 2.453125 -0.265625 2.609375 -0.265625 L 2.921875 -0.265625 C 3.421875 -0.265625 3.820312 -0.367188 4.125 -0.578125 C 4.425781 -0.785156 4.648438 -1.101562 4.796875 -1.53125 Z M 4.796875 -1.53125 "/></g></g></g><g fill="#252827" fill-opacity="1"><g transform="translate(267.294338, 277.760871)"><g><path d="M 6.84375 -0.109375 C 6.851562 -0.109375 6.859375 -0.0859375 6.859375 -0.046875 C 6.859375 -0.015625 6.851562 0 6.84375 0 L 5.125 0 C 4.976562 0 4.710938 -0.253906 4.328125 -0.765625 C 3.941406 -1.273438 3.476562 -1.992188 2.9375 -2.921875 C 2.882812 -2.910156 2.804688 -2.90625 2.703125 -2.90625 C 2.453125 -2.90625 2.273438 -2.910156 2.171875 -2.921875 L 2.171875 -0.78125 C 2.171875 -0.582031 2.1875 -0.4375 2.21875 -0.34375 C 2.25 -0.257812 2.3125 -0.195312 2.40625 -0.15625 C 2.5 -0.125 2.648438 -0.109375 2.859375 -0.109375 C 2.867188 -0.109375 2.875 -0.0859375 2.875 -0.046875 C 2.875 -0.015625 2.867188 0 2.859375 0 C 2.648438 0 2.484375 -0.00390625 2.359375 -0.015625 L 0.921875 -0.015625 C 0.785156 -0.00390625 0.609375 0 0.390625 0 C 0.378906 0 0.375 -0.015625 0.375 -0.046875 C 0.375 -0.0859375 0.378906 -0.109375 0.390625 -0.109375 C 0.597656 -0.109375 0.75 -0.125 0.84375 -0.15625 C 0.9375 -0.195312 1 -0.265625 1.03125 -0.359375 C 1.070312 -0.453125 1.09375 -0.59375 1.09375 -0.78125 L 1.09375 -5.265625 C 1.09375 -5.453125 1.078125 -5.59375 1.046875 -5.6875 C 1.015625 -5.78125 0.945312 -5.84375 0.84375 -5.875 C 0.75 -5.90625 0.601562 -5.921875 0.40625 -5.921875 C 0.394531 -5.921875 0.390625 -5.941406 0.390625 -5.984375 C 0.390625 -6.023438 0.394531 -6.046875 0.40625 -6.046875 L 0.921875 -6.03125 C 1.210938 -6.019531 1.445312 -6.015625 1.625 -6.015625 C 1.84375 -6.015625 2.070312 -6.023438 2.3125 -6.046875 C 2.394531 -6.046875 2.5 -6.050781 2.625 -6.0625 C 2.75 -6.070312 2.890625 -6.078125 3.046875 -6.078125 C 3.628906 -6.078125 4.082031 -5.96875 4.40625 -5.75 C 4.726562 -5.53125 4.890625 -5.226562 4.890625 -4.84375 C 4.890625 -4.488281 4.789062 -4.164062 4.59375 -3.875 C 4.40625 -3.59375 4.148438 -3.363281 3.828125 -3.1875 C 4.347656 -2.414062 4.78125 -1.8125 5.125 -1.375 C 5.46875 -0.9375 5.773438 -0.613281 6.046875 -0.40625 C 6.316406 -0.207031 6.582031 -0.109375 6.84375 -0.109375 Z M 2.171875 -3.1875 C 2.328125 -3.164062 2.515625 -3.15625 2.734375 -3.15625 C 3.109375 -3.15625 3.378906 -3.257812 3.546875 -3.46875 C 3.710938 -3.675781 3.796875 -4.015625 3.796875 -4.484375 C 3.796875 -5.003906 3.71875 -5.363281 3.5625 -5.5625 C 3.40625 -5.769531 3.179688 -5.875 2.890625 -5.875 C 2.628906 -5.875 2.441406 -5.820312 2.328125 -5.71875 C 2.222656 -5.625 2.171875 -5.460938 2.171875 -5.234375 Z M 2.171875 -3.1875 "/></g></g></g><g mask="url(#f4d724f3c2)"><g transform="matrix(1, 0, 0, 1, 264, 149)"><g clip-path="url(#75383cb71c)"><g clip-path="url(#02d2caa10f)"><g clip-path="url(#348ad383ef)"><g clip-path="url(#edb4616563)"><path fill="#ffffff" d="M 50.554688 7.738281 C 57.203125 9.933594 57.285156 14.804688 60.605469 18.371094 C 63.925781 21.9375 74.160156 39.460938 65.394531 58.050781 C 56.628906 76.636719 49.386719 84.515625 38.730469 81.238281 C 28.070312 77.960938 16.207031 67.949219 18.335938 58.164062 C 20.460938 48.382812 29.488281 20.832031 31.21875 16.355469 C 34.851562 6.894531 45.632812 6.113281 50.554688 7.738281 Z M 50.554688 7.738281 " fill-opacity="1" fill-rule="nonzero"/></g></g></g></g></g></g></svg>