<svg xmlns="http://www.w3.org/2000/svg" xmlns:xlink="http://www.w3.org/1999/xlink" width="500" zoomAndPan="magnify" viewBox="0 0 375 374.999991" height="500" preserveAspectRatio="xMidYMid meet" version="1.0"><defs><g/><clipPath id="8b3f375a00"><path d="M 144.890625 83 L 248 83 L 248 241.859375 L 144.890625 241.859375 Z M 144.890625 83 " clip-rule="nonzero"/></clipPath><clipPath id="67d56b8f6b"><path d="M 233 62 L 298.640625 62 L 298.640625 241.859375 L 233 241.859375 Z M 233 62 " clip-rule="nonzero"/></clipPath><clipPath id="e591e82882"><path d="M 111 266.171875 L 291 266.171875 L 291 270.671875 L 111 270.671875 Z M 111 266.171875 " clip-rule="nonzero"/></clipPath></defs><rect x="-37.5" width="450" fill="#ffffff" y="-37.499999" height="449.999989" fill-opacity="1"/><rect x="-37.5" width="450" fill="#e9ebea" y="-37.499999" height="449.999989" fill-opacity="1"/><g clip-path="url(#8b3f375a00)"><path stroke-linecap="butt" transform="matrix(0.00971161, 0, 0, -0.00970875, 144.819708, 241.656121)" fill="none" stroke-linejoin="round" d="M 282.424169 15712.692739 C 450.554191 15969.387653 618.281987 16225.27788 1151.632247 16262.69579 C 1684.982507 16300.113701 2584.357455 16118.254609 3327.66913 15873.629989 C 4070.980804 15629.005369 4657.82698 15321.615223 5028.276142 15239.939568 C 5398.725305 15158.263914 5552.777454 15302.705096 5606.27337 15501.060256 C 5659.769286 15699.013073 5613.111193 15950.477526 5547.950754 15908.633841 C 5482.790315 15866.790156 5398.725305 15531.23599 5403.552004 15314.373046 C 5407.976478 15097.912445 5501.292662 15000.143066 5631.61354 15027.904742 C 5762.336643 15056.06876 5930.06444 15209.763834 6013.727226 15381.966691 C 6097.792237 15554.571891 6097.792237 15745.684876 6011.716101 15678.091231 C 5925.237741 15610.497586 5753.08547 15284.197312 5619.949017 15081.416377 C 5487.21479 14878.635443 5394.30083 14799.77619 5501.292662 14634.413166 C 5608.686719 14468.647799 5915.986567 14217.183346 6065.212017 13972.558727 C 6214.035242 13727.934107 6204.784069 13490.149321 6130.372456 13383.12605 C 6055.960844 13276.102779 5915.986567 13299.036337 5694.762855 13469.227478 C 5473.539142 13639.41862 5170.663768 13956.062659 4788.550083 14203.101337 C 4406.436397 14450.140015 3945.0844 14627.17099 3451.152184 14676.256851 C 2957.219967 14724.940369 2430.707531 14646.081117 2048.593846 14475.889975 C 1666.48016 14305.698834 1428.765225 14044.980489 1233.283908 13958.476717 C 1037.400366 13872.375289 883.750442 13960.890776 883.750442 13935.140816 C 883.750442 13909.793199 1037.400366 13769.777792 1256.612954 13723.508333 C 1475.423317 13676.83653 1759.796344 13723.508333 2104.503111 13837.371437 C 2449.209878 13951.636884 2854.652609 14133.495976 3220.275073 14196.261504 C 3586.299761 14259.027031 3912.504181 14203.101337 4105.974373 14067.914047 C 4299.04234 13933.129101 4359.778305 13718.680215 4315.533563 13511.473506 C 4271.28882 13303.864454 4122.06337 13103.497578 3886.761785 13017.39615 C 3651.4602 12930.892378 3330.082479 12959.056397 3120.121065 13035.903933 C 2910.561875 13112.75147 2812.821217 13238.684868 2775.414298 13413.301784 C 2738.409604 13587.9187 2761.336425 13811.621477 2912.975225 13967.730609 C 3064.211799 14123.839741 3344.160352 14212.355229 3551.306192 14161.257652 C 3758.854257 14110.160075 3893.599609 13919.047091 3900.839658 13762.937959 C 3907.677482 13606.828827 3786.607777 13485.723546 3644.622376 13439.051744 C 3502.23475 13392.379941 3339.333653 13420.54396 3239.179645 13536.821123 C 3139.025636 13653.500629 3101.618718 13858.293279 3197.348252 14007.562579 C 3292.67556 14156.429535 3521.139322 14249.773139 3828.43917 14214.769288 C 4136.141243 14179.765436 4522.679403 14016.81647 4851.297172 13821.277712 C 5179.914942 13625.33661 5450.210096 13397.208059 5580.530974 13243.110642 C 5710.851852 13089.415569 5701.600679 13010.556317 5594.608847 12961.470455 C 5487.21479 12912.384594 5282.482299 12893.87681 5205.255112 12921.638486 C 5128.43015 12949.802505 5179.914942 13024.235983 5210.081812 13122.005362 C 5240.248681 13220.177084 5249.90208 13341.282365 5317.475868 13348.122198 C 5384.647432 13355.364374 5510.543836 13247.93876 5552.777454 13150.169381 C 5594.608847 13052.400001 5552.777454 12963.884514 5405.965353 12921.638486 C 5259.153253 12879.794801 5007.360446 12884.622919 4739.478641 12849.619067 C 4471.596836 12814.615215 4187.223809 12740.181737 3795.85895 12714.431777 C 3404.494092 12688.681817 2906.137401 12712.017718 2570.279583 12812.201156 C 2234.823989 12912.384594 2062.671718 13089.415569 1962.51771 13238.684868 C 1862.363702 13387.954167 1834.207957 13509.059448 1829.783483 13431.809568 C 1824.956783 13355.364374 1843.45913 13080.161677 1983.433407 12842.779234 C 2123.005458 12604.994447 2384.049439 12404.627571 2810.407867 12337.033926 C 3236.766295 12269.440282 3828.43917 12334.619868 4262.037647 12423.135355 C 4695.233899 12511.650842 4969.953527 12623.502231 5284.493424 12686.670101 C 5599.033321 12749.435629 5953.393486 12763.517638 6216.448592 12872.954968 C 6479.905922 12982.392298 6652.058193 13187.587291 6726.87203 13406.461951 C 6801.283643 13625.33661 6777.954597 13858.293279 6691.878461 14021.644588 C 6605.802326 14184.593553 6456.576876 14277.937158 6479.905922 14121.828026 C 6503.234968 13965.718894 6698.716285 13560.157024 6782.781296 13094.243686 C 6866.444082 12628.330348 6838.690561 12101.663199 6787.20577 11614.828018 C 6736.123204 11127.992838 6661.711591 10680.587284 6580.05993 10386.876803 C 6498.408269 10093.568665 6409.918784 9953.553258 6267.933383 9839.690154 C 6125.545757 9725.424707 5930.06444 9636.909219 5783.25234 9434.128285 C 5636.44024 9231.34735 5538.699581 8914.703311 5545.537405 8632.660781 C 5552.777454 8350.618251 5664.595985 8103.981916 5794.916863 7954.712617 C 5925.237741 7805.845661 6074.463191 7754.345741 6214.035242 7735.837957 C 6354.009518 7716.92783 6484.330396 7731.009839 6510.072792 7740.263731 C 6535.815188 7749.919966 6456.576876 7754.345741 6374.925215 7803.431602 C 6293.273554 7852.11512 6209.610768 7945.458725 6267.933383 8019.892203 C 6325.853773 8094.728024 6526.564014 8150.251375 6710.380808 8152.665434 C 6894.599827 8155.079492 7062.327624 8103.981916 7178.570629 8010.638311 C 7295.215859 7917.294706 7360.376298 7782.509759 7514.026222 7712.502056 C 7668.078371 7642.494352 7910.21778 7638.068578 8106.101322 7700.834105 C 8301.582639 7763.599632 8450.808089 7894.361148 8583.542317 8005.810193 C 8716.276544 8117.661582 8832.921775 8211.005187 8970.482701 8222.673137 C 9107.641403 8234.341088 9266.118026 8164.333384 9261.693552 8117.661582 C 9256.866853 8071.392123 9089.139056 8048.056221 8958.818178 7992.130527 C 8828.095075 7936.204833 8735.181116 7847.689345 8765.347986 7824.353444 C 8795.514856 7801.017543 8949.567005 7842.861228 9130.970449 7863.78307 C 9312.776118 7884.704913 9522.335308 7884.704913 9690.063105 8022.306261 C 9858.193126 8159.90761 9983.687305 8434.707964 9995.351828 8681.746642 C 10007.016351 8928.78532 9904.448994 9147.65998 9743.961246 9336.358905 C 9583.071273 9525.057831 9364.26091 9683.581022 9324.440641 9641.334994 C 9285.022598 9599.491309 9424.59465 9357.280748 9452.750395 9131.163912 C 9480.503915 8905.449419 9396.841129 8695.426308 9252.442379 8606.910821 C 9107.641403 8518.395334 8902.908913 8550.985127 8690.936374 8488.219599 C 8478.963834 8425.454072 8259.751246 8266.930881 8066.281054 8206.177069 C 7873.213087 8145.825601 7705.48529 8183.243511 7584.013361 8285.438665 C 7462.943656 8388.036161 7388.532044 8555.813244 7213.564198 8593.231155 C 7038.998578 8630.246722 6763.876724 8537.305461 6589.311104 8616.567056 C 6414.745483 8695.426308 6339.931646 8947.293104 6368.087391 9168.581823 C 6395.840911 9389.870541 6526.564014 9580.983525 6794.445819 9718.18253 C 7062.327624 9855.783879 7467.770355 9939.873592 7896.139908 9907.283799 C 8324.911685 9874.291663 8777.012509 9725.424707 8895.668864 9527.471889 C 9014.727444 9329.116729 8800.341555 9082.480394 8539.297574 8938.039212 C 8278.253593 8793.598031 7970.953745 8751.352003 7730.825461 8779.516021 C 7491.099401 8807.277697 7318.544905 8905.449419 7285.964686 9065.984326 C 7253.384466 9226.921576 7360.376298 9450.624353 7584.013361 9543.565614 C 7807.650423 9636.909219 8147.932715 9599.491309 8230.791051 9265.144172 C 8313.247162 8930.797036 8138.279317 8299.520674 8184.937409 7819.525327 C 8231.595501 7339.529979 8499.477306 7011.21799 8573.084468 6762.972282 C 8646.691631 6514.726575 8525.219702 6347.351835 8303.995989 6256.422289 C 8082.772276 6165.492743 7761.394556 6151.410733 7465.357006 6235.500446 C 7169.319456 6319.187816 6899.024301 6501.046908 6633.555846 6424.199372 C 6368.087391 6347.351835 6107.04341 6011.797669 5799.341337 5767.17305 C 5492.041489 5522.54843 5138.083549 5368.853357 4909.619787 5322.181554 C 4681.156026 5275.509752 4578.588668 5336.263564 4615.995587 5329.021387 C 4653.402506 5322.181554 4830.381476 5247.748076 5119.178977 5177.740373 C 5407.976478 5107.732669 5808.994735 5042.553083 6216.448592 5058.646808 C 6624.304673 5075.142876 7038.998578 5172.912255 7313.718206 5210.330166 C 7588.84006 5247.748076 7723.987637 5224.412175 7847.470691 5214.75594 C 7970.953745 5205.502048 8082.772276 5210.330166 8318.073862 5163.658363 C 8553.375447 5116.986561 8912.160086 5019.217182 9333.691815 5024.045299 C 9755.625769 5028.471073 10239.904587 5135.896688 10445.039302 5224.412175 C 10650.174018 5312.927662 10575.762405 5382.533023 10319.142898 5578.474124 C 10062.925617 5774.012883 9624.902666 6095.485039 9322.027292 6230.672329 C 9019.151918 6365.859619 8851.424121 6314.762042 8963.242653 6186.414585 C 9075.061184 6058.469472 9466.426043 5853.274478 9790.619338 5699.579405 C 10114.410408 5545.884331 10370.62769 5443.286835 10433.374779 5294.017536 C 10496.524093 5145.15058 10365.800991 4949.209478 10235.480113 4718.666868 C 10104.75701 4488.124258 9974.436132 4222.577795 9568.9934 3977.953176 C 9163.550669 3733.328556 8483.388309 3509.625779 7828.968344 3448.871967 C 7174.146155 3388.520499 6545.066361 3490.715652 6092.965537 3695.910646 C 5641.266939 3901.105639 5366.145085 4208.495786 5203.243988 4480.882081 C 5039.940665 4753.67072 4988.858099 4991.455506 4930.535484 5100.892836 C 4872.212869 5210.330166 4807.05243 5191.822382 4930.535484 5114.572502 C 5054.018538 5037.724965 5366.145085 4902.940019 5804.168036 4872.361941 C 6242.190987 4842.186207 6806.110342 4916.619685 7316.131556 4907.365793 C 7826.554995 4898.111901 8283.080292 4804.768296 8504.304005 4595.147529 C 8725.527718 4385.526761 8711.85207 4059.226487 8497.466181 3854.433837 C 8283.080292 3649.238843 7868.386387 3565.551474 7523.679621 3590.89909 C 7178.570629 3616.64905 6903.851 3751.83634 6962.173616 3952.203216 C 7020.496231 4152.570092 7411.86109 4418.116554 7560.684314 4287.757382 C 7709.909764 4157.398209 7616.59358 3630.73106 7719.160938 3285.923002 C 7821.728295 2941.114945 8120.179195 2778.165979 8276.242469 2458.705539 C 8432.305742 2139.647441 8445.98139 1664.480211 8345.827382 1354.273662 C 8245.673374 1044.469457 8031.287485 900.028275 7679.742894 867.438482 C 7327.796079 834.848689 6838.690561 914.110284 6475.079223 1132.984944 C 6111.870109 1352.261947 5874.155174 1710.74967 5981.147006 2048.717895 C 6088.541063 2386.686119 6540.239662 2703.330158 7201.899675 2843.345565 C 7863.559688 2982.95863 8735.181116 2945.540719 9266.118026 2694.076266 C 9797.457162 2442.611814 9988.514004 1976.698476 9850.953078 1606.140458 C 9713.392151 1235.582441 9247.615679 960.782087 8560.213271 895.602501 C 7873.213087 830.422915 6964.586965 974.864096 6368.087391 1163.563021 C 5771.587817 1352.261947 5487.21479 1585.218616 5303.397996 1778.343315 C 5119.178977 1971.870358 5035.516191 2125.565432 4958.289004 2230.576987 C 4881.464042 2335.186199 4811.879129 2391.111894 4760.394338 2389.100178 C 4709.311771 2386.686119 4676.731552 2325.932308 4697.647248 2344.842434 C 4718.562945 2363.350218 4792.974557 2461.119597 4737.065291 2799.087822 C 4681.156026 3136.653703 4494.925882 3714.41843 4303.86904 4143.3162 C 4112.812197 4571.811627 3916.928655 4851.440099 3704.956116 5037.724965 C 3492.983577 5224.412175 3264.92204 5317.353437 3099.205368 5257.001968 C 2933.890921 5196.248156 2831.323563 4981.799271 2861.490433 4641.819331 C 2892.059528 4301.839391 3054.960626 3835.52371 3218.263948 3665.734911 C 3381.165046 3495.54377 3544.468368 3621.477168 3604.802108 3868.515846 C 3665.538072 4115.152181 3623.70668 4483.29614 3500.223625 4760.510553 C 3376.740571 5037.724965 3171.605856 5224.412175 3052.547276 5121.814678 C 2933.890921 5019.217182 2901.310702 4627.737322 2931.477571 4245.913697 C 2962.046666 3863.687729 3054.960626 3490.715652 3157.527983 2973.704738 C 3260.095341 2456.29148 3371.913872 1794.839383 3444.31436 1335.765879 C 3516.312623 876.692374 3548.892842 620.802147 3630.544503 435.321966 C 3712.196165 250.244129 3842.517043 135.978682 4047.651758 78.845958 C 4252.384248 21.713235 4532.332801 21.713235 4685.982725 132.357594 C 4839.632649 243.001953 4867.788394 464.290671 4723.389644 582.177207 C 4578.588668 699.661399 4262.037647 713.743408 4063.740755 583.384236 C 3865.846089 453.025064 3786.607777 177.822367 3660.711373 389.857193 C 3534.81497 601.89202 3362.662699 1300.762027 3236.766295 1694.655946 C 3110.869891 2088.549864 3031.63158 2177.065352 3029.620455 2221.323095 C 3027.207105 2265.580839 3101.618718 2265.580839 3038.871628 2840.931507 C 2975.722314 3416.282174 2775.414298 4567.385853 2586.770805 5447.712609 C 2398.127312 6328.441708 2221.148341 6938.796228 1990.27123 7335.104205 C 1759.796344 7731.009839 1475.423317 7912.868932 1279.942001 7915.28299 C 1084.058459 7917.294706 977.066627 7740.263731 944.486407 7411.951742 C 911.503963 7083.237409 953.737581 6603.644405 1044.640415 6330.855767 C 1135.141025 6058.469472 1275.115301 5992.887542 1393.771656 6128.074832 C 1512.830236 6263.262122 1610.570895 6598.816288 1598.906372 6906.206435 C 1587.241849 7213.998925 1466.172144 7493.627396 1335.851266 7591.396775 C 1205.128163 7689.166154 1065.556112 7605.076442 1028.149193 7288.432403 C 990.742274 6971.386021 1056.304938 6421.785313 1088.885158 5988.461768 C 1121.465377 5555.138223 1121.465377 5238.091841 1163.29677 4765.33867 C 1205.128163 4292.183156 1289.193174 3663.320853 1328.611217 3136.653703 C 1368.431486 2610.388896 1363.604786 2186.319243 1477.836667 1841.511186 C 1592.068548 1496.703128 1824.956783 1231.156666 2011.186927 1147.066953 C 2197.819295 1063.379583 2337.391347 1161.148963 2342.218046 1384.85174 C 2346.64252 1608.554517 2216.321642 1957.788349 2013.600277 2125.565432 C 1810.878911 2293.342514 1536.159282 2279.260505 1526.908109 2072.053796 C 1517.25471 1864.847087 1773.874217 1464.113335 2011.186927 1063.379583 C 2248.901862 662.645832 2468.11445 261.91208 2514.370317 145.232574 C 2561.028409 28.955411 2435.53423 196.732494 2213.908293 394.685311 C 1992.68458 592.638128 1675.731334 820.76668 1412.676228 1175.230972 C 1149.218898 1529.292921 939.659708 2009.288269 769.518562 2365.764277 C 599.377415 2722.240285 469.056537 2955.196954 354.824657 3234.423082 C 240.592776 3514.051554 142.852118 3840.351827 45.111459 4166.652101 " stroke="#231f20" stroke-width="78.097" stroke-opacity="1" stroke-miterlimit="22.926001"/></g><g clip-path="url(#67d56b8f6b)"><path stroke-linecap="butt" transform="matrix(0.0110084, 0, 0, -0.0110052, 144.819708, 241.656121)" fill="none" stroke-linejoin="round" d="M 13691.672421 16242.375617 C 13605.44557 16271.126346 13518.863876 16299.877075 13412.05613 16250.539404 C 13305.248385 16201.201733 13177.859744 16073.775661 13142.730287 15870.390871 C 13107.955672 15667.006082 13165.440239 15387.307629 13183.892076 15175.759053 C 13202.343912 14963.855529 13181.763017 14820.101882 13163.311181 14865.180186 C 13144.859345 14910.613437 13128.536566 15144.87864 13175.730686 15259.881557 C 13222.924807 15375.239422 13333.990668 15370.980054 13461.379308 15171.499685 C 13588.767948 14972.019316 13732.83421 14577.672893 13816.932003 14279.517181 C 13901.384639 13981.361469 13925.868807 13780.106364 13831.480566 13732.898376 C 13736.737483 13685.690388 13523.121992 13792.529518 13385.442904 14010.467146 C 13247.763817 14228.049826 13186.021134 14557.085951 13128.536566 14745.917901 C 13071.051999 14935.1048 13017.470704 14984.442471 12863.113996 15060.756135 C 12709.11213 15136.714852 12454.33485 15239.294615 11971.038672 15169.724949 C 11488.097337 15099.800336 10776.991948 14857.016399 10115.209737 14602.164255 C 9453.427525 14347.312111 8840.968493 14080.036812 8514.158082 13893.334545 C 8187.347671 13705.922383 8146.185882 13599.083253 8185.218613 13463.493394 C 8224.251343 13327.903534 8343.478594 13163.562946 8397.059889 13196.218095 C 8450.28634 13229.228192 8437.866835 13459.588974 8361.930431 13599.083253 C 8285.994027 13738.93248 8146.185882 13788.270151 8105.024093 13677.171654 C 8063.862304 13566.428104 8121.346871 13294.893438 8195.50906 13151.139791 C 8269.671249 13007.386144 8359.801373 12990.703622 8623.094885 13095.768016 C 8886.033555 13200.477462 9321.780769 13426.578877 9887.045682 13658.714395 C 10452.310595 13891.204861 11147.093206 14129.374483 11601.292257 14242.602664 C 12055.491308 14355.475898 12269.461642 14343.407691 12394.721224 14398.779466 C 12519.980806 14454.151241 12556.884479 14577.672893 12550.852148 14476.867866 C 12544.819817 14376.06284 12495.496639 14051.286083 12546.948875 13726.864272 C 12598.046268 13402.087515 12750.273919 13077.310758 12733.951141 12822.458613 C 12717.273519 12567.251522 12532.400312 12382.323991 12349.656162 12318.788429 C 12166.55717 12254.897919 11985.587235 12312.754325 11769.842686 12400.78125 C 11554.098137 12489.163121 11303.22413 12608.425406 11005.156002 12643.565186 C 10707.087875 12678.350019 10361.825628 12629.012348 10143.95202 12520.043534 C 9926.078413 12411.074721 9835.593446 12242.829712 9874.626177 12035.185556 C 9913.658908 11827.541399 10082.209337 11580.853042 10316.760566 11498.505274 C 10550.956951 11416.512454 10851.154137 11498.505274 11017.575508 11679.528385 C 11183.996879 11860.551496 11216.997279 12139.895002 11147.093206 12326.952216 C 11077.189133 12514.009431 10904.380588 12608.425406 10696.797428 12620.848561 C 10489.214268 12633.271715 10246.856493 12563.347102 10150.339194 12419.238508 C 10053.467053 12275.484861 10102.790231 12057.547234 10230.178871 11926.216742 C 10357.922355 11794.531302 10563.376457 11749.452998 10717.378322 11848.128341 C 10871.735031 11946.803684 10974.284661 12189.232673 10896.219199 12368.1261 C 10818.153737 12547.019527 10559.11834 12662.022445 10320.663839 12651.728974 C 10082.209337 12641.435503 9864.33573 12505.845643 9638.300733 12341.150107 C 9412.265736 12176.809519 9178.069351 11983.718201 9009.518922 11837.83487 C 8840.968493 11691.95154 8738.06402 11593.276197 8748.354467 11533.645055 C 8758.644915 11474.013912 8882.130282 11453.42697 8982.905696 11467.979809 C 9083.326267 11482.1777 9161.391729 11531.515371 9153.23034 11615.637875 C 9145.068951 11700.115327 9050.680711 11819.377612 8960.195743 11804.824773 C 8869.710776 11790.626882 8783.483925 11642.613868 8853.033155 11568.429888 C 8922.937228 11494.600854 9149.327067 11494.600854 9414.394795 11443.133499 C 9679.462522 11391.666144 9983.56298 11289.086382 10353.664238 11258.205969 C 10723.765496 11227.325556 11159.512711 11268.49944 11476.032675 11371.079202 C 11792.552639 11474.013912 11989.845351 11638.354501 12090.620766 11773.94436 C 12191.041337 11909.53422 12195.299453 12016.728297 12182.879948 11913.793587 C 12170.460443 11810.858877 12141.718159 11498.505274 11961.103068 11241.878394 C 11780.133133 10984.896566 11446.935548 10783.286513 11087.47958 10717.621267 C 10727.66877 10651.956021 10341.244733 10721.525687 9992.079213 10851.081443 C 9642.558849 10980.637199 9329.942158 11169.824097 9106.03622 11252.171865 C 8882.130282 11334.164686 8746.225409 11309.673324 8649.708111 11360.785731 C 8553.190813 11412.253086 8495.706245 11539.679158 8612.804438 11772.169624 C 8729.902631 12004.305143 9021.938427 12341.150107 9373.233006 12579.674677 C 9724.527584 12818.199246 10135.790631 12958.048473 10573.666904 13011.290564 C 11011.543177 13064.887603 11476.032675 13031.877506 11814.907748 12906.581118 C 12154.137664 12781.284729 12367.753156 12563.347102 12513.948475 12399.006513 C 12659.788952 12234.665925 12737.854414 12123.567427 12877.662559 11901.370433 C 13017.470704 11679.528385 13219.021533 11346.58784 13393.604294 11210.997981 C 13568.187054 11075.053174 13716.156589 11136.814 13716.156589 11371.079202 C 13716.156589 11605.344404 13568.187054 12012.46893 13409.927072 12318.788429 C 13251.66709 12625.107928 13083.116661 12830.622401 12968.147526 12849.079659 C 12853.178391 12867.536917 12791.435708 12698.936961 12785.048534 12538.85574 C 12779.016203 12378.419571 12828.339381 12226.14719 12793.564766 12145.929106 C 12758.435308 12066.065969 12639.208057 12057.547234 12579.594432 11827.541399 C 12519.980806 11597.180617 12519.980806 11144.977788 12612.594832 10733.948842 C 12704.854014 10322.919897 12890.082064 9953.064835 13025.632094 9716.669949 C 13161.182123 9480.275064 13247.763817 9377.340354 13288.925606 9381.599721 C 13329.732552 9385.859088 13325.829279 9496.602638 13280.764217 9523.223684 C 13235.344312 9550.199677 13149.117461 9492.698218 13116.117061 9210.870081 C 13083.116661 8929.396891 13103.697556 8423.597023 13122.149392 8109.113737 C 13140.601228 7794.985398 13157.27885 7671.463746 13192.053465 7657.265855 C 13227.182923 7642.713016 13280.764217 7737.128992 13214.763417 7733.224572 C 13149.117461 7728.965204 12963.88941 7626.385442 12797.468039 7365.144247 C 12631.046668 7104.257999 12483.077133 6685.065266 12343.268988 6411.400916 C 12203.460843 6138.091514 12072.168929 6010.665442 12053.36225 6051.839326 C 12034.910414 6093.01321 12129.653497 6302.432103 12257.042137 6479.195846 C 12384.430777 6655.959589 12544.819817 6800.068183 12499.399912 6826.689229 C 12454.33485 6853.310275 12203.460843 6763.153667 11930.231726 6516.46531 C 11656.647766 6269.776953 11360.708697 5866.911795 11150.996479 5455.88285 C 10941.639104 5044.853904 10818.153737 4625.306224 10760.669169 4349.867138 C 10703.184602 4074.428052 10711.345991 3943.09756 10742.217333 3862.879475 C 10772.733832 3782.661391 10826.315126 3753.910662 10801.830958 3772.36792 C 10776.991948 3790.825178 10674.442318 3856.845372 10649.603308 3953.391031 C 10625.11914 4049.93669 10678.345591 4177.362762 10594.247798 4025.090381 C 10509.795162 3873.172946 10288.018282 3441.557059 10076.177006 2956.344133 C 9864.33573 2471.486154 9663.139744 1932.676189 9500.621646 1495.026198 C 9338.103548 1057.376207 9214.973024 720.176295 9159.617514 490.880355 C 9103.907162 261.939362 9116.326667 140.547393 9128.746173 19.155425 " stroke="#231f20" stroke-width="68.899002" stroke-opacity="1" stroke-miterlimit="22.926001"/></g><g fill="#252827" fill-opacity="1"><g transform="translate(49.91465, 292.206013)"><g><path d="M 80.546875 16.902344 L 85.660156 16.902344 C 85.867188 16.902344 86.078125 16.796875 86.285156 16.695312 C 86.390625 16.589844 86.597656 16.589844 86.597656 16.695312 C 86.703125 16.796875 87.121094 16.796875 87.433594 16.695312 L 88.269531 16.695312 C 88.476562 16.796875 92.128906 16.171875 92.964844 15.964844 L 97.449219 15.023438 L 99.746094 14.503906 C 100.996094 14.191406 102.25 13.773438 102.457031 13.5625 L 103.710938 13.144531 C 105.171875 12.730469 107.257812 11.894531 107.988281 11.476562 C 108.925781 10.851562 111.328125 8.972656 111.953125 8.453125 C 113.207031 7.09375 115.082031 4.070312 115.1875 3.027344 C 115.292969 2.710938 115.292969 2.710938 115.082031 3.027344 C 114.875 3.234375 114.769531 3.441406 114.769531 3.652344 C 114.5625 4.277344 113.414062 6.15625 113.207031 6.15625 C 113.101562 6.15625 113.101562 6.261719 112.996094 6.363281 C 112.996094 6.675781 110.699219 8.972656 109.761719 9.703125 C 109.136719 10.121094 106.320312 11.582031 106.109375 11.476562 L 105.589844 11.6875 C 105.277344 11.789062 104.441406 12.101562 103.605469 12.3125 L 100.058594 13.25 L 98.179688 13.667969 L 97.554688 13.773438 C 95.050781 14.398438 92.335938 14.816406 88.6875 15.234375 C 84.929688 15.546875 84.929688 15.546875 81.800781 15.441406 C 77 15.234375 71.785156 14.292969 66.460938 12.625 L 63.957031 11.894531 L 61.453125 11.058594 L 53.941406 8.453125 L 40.484375 3.339844 L 39.335938 2.921875 C 38.605469 2.710938 34.640625 1.042969 33.179688 0.3125 L 29.527344 -1.355469 C 28.484375 -1.980469 27.542969 -2.398438 27.230469 -2.503906 C 26.398438 -2.816406 25.355469 -3.339844 24.308594 -3.859375 C 23.164062 -4.589844 19.40625 -6.46875 18.46875 -6.886719 L 17.738281 -7.199219 L 20.867188 -10.015625 L 22.535156 -11.582031 L 23.371094 -12.519531 C 23.683594 -12.832031 23.894531 -13.144531 23.996094 -13.144531 C 24.101562 -13.144531 24.207031 -13.25 24.308594 -13.5625 C 24.414062 -13.773438 24.625 -13.980469 24.726562 -13.980469 C 24.726562 -13.980469 25.25 -14.398438 25.667969 -15.023438 L 30.050781 -19.617188 L 40.066406 -30.464844 L 40.898438 -31.40625 L 44.96875 -35.789062 L 46.324219 -37.351562 L 46.953125 -38.1875 L 48.097656 -39.4375 L 51.855469 -44.238281 L 52.585938 -45.074219 C 53.105469 -45.699219 54.671875 -47.054688 55.089844 -47.785156 L 55.925781 -48.621094 C 56.132812 -48.726562 56.445312 -49.039062 56.550781 -49.246094 C 56.863281 -49.664062 57.699219 -50.601562 58.949219 -51.960938 L 59.472656 -52.375 C 59.578125 -52.480469 59.679688 -52.480469 59.679688 -52.585938 C 59.679688 -52.691406 59.992188 -53.105469 60.410156 -53.523438 C 61.140625 -54.253906 62.8125 -55.925781 63.332031 -56.550781 L 64.585938 -58.011719 C 65.210938 -58.636719 66.777344 -60.203125 67.921875 -61.453125 C 68.445312 -61.976562 68.863281 -62.496094 69.070312 -62.496094 C 69.175781 -62.601562 69.28125 -62.707031 69.28125 -62.8125 L 72.410156 -65.941406 C 72.410156 -66.148438 73.558594 -67.191406 73.660156 -67.191406 C 73.765625 -67.296875 73.871094 -67.296875 73.871094 -67.402344 C 73.871094 -67.503906 74.703125 -68.339844 75.644531 -69.28125 L 78.355469 -71.992188 L 79.296875 -72.828125 C 80.445312 -73.976562 81.488281 -74.808594 82.738281 -75.75 C 85.136719 -77.417969 85.660156 -77.730469 85.765625 -77.730469 C 85.867188 -77.730469 88.058594 -79.296875 88.269531 -79.714844 L 89.207031 -80.652344 C 89.519531 -80.964844 89.832031 -81.382812 89.832031 -81.589844 C 89.832031 -82.007812 89.101562 -82.21875 88.6875 -82.007812 C 88.375 -81.800781 85.972656 -79.816406 85.035156 -78.984375 C 83.679688 -77.730469 80.757812 -75.644531 80.339844 -75.539062 L 79.816406 -75.332031 C 79.816406 -75.226562 79.503906 -75.121094 79.191406 -74.914062 C 78.773438 -74.808594 78.460938 -74.601562 78.460938 -74.496094 C 78.460938 -74.496094 78.148438 -74.289062 77.835938 -74.183594 L 75.851562 -73.347656 C 75.121094 -73.035156 73.976562 -72.515625 73.140625 -72.199219 C 72.410156 -71.992188 71.574219 -71.679688 71.46875 -71.574219 C 71.367188 -71.46875 71.15625 -71.367188 71.054688 -71.367188 L 69.800781 -70.949219 C 67.402344 -70.011719 59.160156 -67.296875 58.742188 -67.402344 L 56.445312 -66.777344 C 55.714844 -66.566406 51.230469 -65.523438 49.976562 -65.316406 L 46.535156 -64.6875 C 44.65625 -64.375 44.449219 -64.375 42.570312 -64.6875 C 40.484375 -65.105469 40.273438 -65 40.898438 -64.269531 C 41.421875 -63.539062 42.671875 -63.332031 45.28125 -63.644531 L 47.054688 -63.75 C 47.367188 -63.855469 47.890625 -63.855469 48.097656 -63.957031 L 48.933594 -64.167969 C 49.558594 -64.167969 54.046875 -65.316406 56.757812 -66.046875 L 62.496094 -67.609375 L 65.730469 -68.757812 C 67.402344 -69.28125 69.488281 -70.011719 70.21875 -70.324219 C 71.054688 -70.738281 71.785156 -70.949219 71.886719 -70.949219 C 71.992188 -70.949219 72.199219 -71.054688 72.515625 -71.15625 L 73.765625 -71.679688 C 74.289062 -71.886719 74.703125 -71.992188 74.703125 -72.097656 C 74.703125 -72.097656 75.019531 -72.304688 75.332031 -72.410156 L 77.105469 -73.035156 L 78.355469 -73.453125 L 77.835938 -73.035156 L 71.679688 -66.878906 L 68.964844 -63.957031 L 67.503906 -62.601562 C 67.402344 -62.496094 66.878906 -61.871094 66.359375 -61.351562 L 64.6875 -59.472656 C 64.167969 -58.949219 63.75 -58.429688 63.75 -58.324219 C 63.75 -58.21875 63.644531 -58.117188 63.539062 -58.117188 C 63.539062 -58.117188 63.4375 -58.011719 63.4375 -57.90625 C 63.332031 -57.800781 63.226562 -57.59375 63.019531 -57.488281 C 62.8125 -57.386719 62.707031 -57.175781 62.707031 -57.070312 C 62.601562 -57.070312 62.394531 -56.863281 62.183594 -56.65625 C 61.976562 -56.550781 61.765625 -56.339844 61.765625 -56.238281 L 61.246094 -55.714844 C 60.933594 -55.402344 60.410156 -54.984375 60.203125 -54.566406 L 55.195312 -48.933594 L 54.464844 -48.203125 L 53.941406 -47.472656 L 53.523438 -46.847656 C 53.316406 -46.847656 51.230469 -44.65625 50.289062 -43.507812 C 48.933594 -41.734375 48.203125 -40.796875 47.996094 -40.585938 L 46.636719 -39.023438 C 45.074219 -37.144531 44.03125 -35.996094 42.988281 -34.953125 L 41.839844 -33.699219 C 40.796875 -32.34375 39.855469 -31.40625 39.648438 -31.195312 L 29.214844 -19.824219 L 22.433594 -12.625 L 21.492188 -11.6875 C 21.074219 -11.269531 20.136719 -10.328125 19.300781 -9.597656 L 17.007812 -7.617188 C 16.378906 -7.929688 15.859375 -8.242188 15.753906 -8.347656 L 14.605469 -9.078125 C 14.605469 -8.972656 14.605469 -8.972656 14.398438 -9.078125 C 12.832031 -9.808594 11.371094 -10.226562 10.957031 -10.015625 C 10.851562 -10.015625 10.746094 -9.808594 10.746094 -9.597656 C 10.746094 -9.496094 10.640625 -9.390625 10.640625 -9.285156 L 10.640625 -8.242188 C 10.640625 -7.929688 10.539062 -7.617188 10.433594 -7.304688 L 10.640625 -6.886719 C 10.957031 -6.574219 11.371094 -5.945312 11.894531 -5.738281 C 12.3125 -5.632812 12.832031 -5.738281 13.25 -5.632812 C 13.773438 -5.53125 14.292969 -5.632812 14.816406 -5.632812 C 15.859375 -6.050781 16.484375 -6.050781 17.320312 -5.632812 C 18.257812 -5.21875 21.179688 -3.859375 22.535156 -3.027344 C 23.683594 -2.398438 24.726562 -1.878906 25.457031 -1.566406 L 32.34375 1.667969 L 37.25 3.859375 C 37.351562 3.964844 37.769531 4.070312 38.082031 4.171875 C 38.917969 4.382812 39.648438 4.589844 41.109375 5.21875 C 41.734375 5.53125 42.464844 5.84375 42.882812 5.84375 C 43.300781 5.945312 43.71875 6.15625 43.71875 6.15625 L 46.847656 7.40625 L 48.308594 7.929688 L 49.664062 8.453125 L 57.175781 11.164062 C 60.515625 12.417969 62.183594 13.042969 63.019531 13.25 L 64.375 13.667969 C 65.210938 13.980469 68.234375 14.816406 69.59375 15.128906 L 70.53125 15.441406 C 70.636719 15.441406 75.121094 16.378906 75.957031 16.484375 C 76.582031 16.589844 80.234375 16.902344 80.546875 16.902344 Z M 13.042969 -6.675781 C 12.519531 -7.09375 11.894531 -7.824219 11.894531 -7.929688 C 11.894531 -8.035156 12 -8.136719 12.207031 -8.035156 C 12.417969 -8.035156 13.460938 -7.617188 13.875 -7.40625 L 14.398438 -7.199219 C 14.921875 -6.992188 15.128906 -6.675781 14.710938 -6.78125 C 14.503906 -6.78125 14.398438 -6.78125 14.398438 -6.675781 C 14.292969 -6.46875 13.355469 -6.46875 13.042969 -6.675781 Z M 13.042969 -6.675781 "/></g></g></g><g fill="#252827" fill-opacity="1"><g transform="translate(113.038294, 292.206013)"><g><path d="M -1.042969 -28.484375 C 0.105469 -28.691406 0.835938 -28.902344 2.710938 -29.839844 L 7.40625 -31.925781 L 8.765625 -32.554688 C 8.867188 -32.65625 8.867188 -32.96875 8.660156 -33.074219 L 8.554688 -33.179688 L 8.242188 -33.179688 L 8.035156 -33.074219 C 2.296875 -30.570312 -1.148438 -29.320312 -1.773438 -29.527344 C -1.980469 -29.632812 -1.980469 -29.734375 -1.667969 -30.050781 C -1.460938 -30.464844 -1.253906 -30.570312 -0.523438 -30.777344 C 0.625 -31.09375 1.667969 -31.613281 3.441406 -32.867188 C 5.113281 -34.015625 5.84375 -34.640625 5.738281 -34.953125 C 5.53125 -35.578125 4.589844 -35.472656 2.921875 -34.847656 C 0.835938 -34.117188 -1.566406 -32.238281 -2.609375 -30.570312 C -3.128906 -29.734375 -3.234375 -29.421875 -3.027344 -29.003906 C -2.921875 -28.273438 -2.710938 -28.273438 -1.042969 -28.484375 Z M -0.207031 -31.925781 C -0.105469 -32.238281 1.667969 -33.492188 2.398438 -33.699219 C 3.027344 -34.015625 4.070312 -34.429688 4.070312 -34.222656 C 3.964844 -34.117188 2.398438 -33.074219 1.460938 -32.554688 C 0.3125 -31.925781 -0.417969 -31.71875 -0.207031 -31.925781 Z M -0.207031 -31.925781 "/></g></g></g><g fill="#252827" fill-opacity="1"><g transform="translate(121.38522, 292.206013)"><g><path d="M -1.253906 -28.378906 C 0.207031 -28.378906 2.398438 -29.945312 2.921875 -30.777344 L 3.234375 -30.882812 C 4.277344 -30.675781 5.53125 -30.570312 6.886719 -30.570312 C 8.347656 -30.570312 11.6875 -30.988281 13.875 -31.925781 L 14.816406 -32.34375 C 15.023438 -32.449219 15.128906 -32.65625 15.023438 -32.867188 C 14.921875 -33.074219 14.605469 -33.074219 14.503906 -32.96875 C 12.519531 -32.136719 10.226562 -31.300781 6.675781 -31.300781 C 5.84375 -31.300781 5.007812 -31.40625 4.382812 -31.613281 C 4.171875 -31.71875 3.964844 -31.824219 3.546875 -31.925781 L 3.546875 -32.867188 C 3.546875 -32.96875 3.546875 -33.179688 3.441406 -33.285156 C 3.339844 -33.492188 3.027344 -33.699219 2.710938 -33.699219 L 1.355469 -33.804688 L 1.148438 -33.910156 L 0.3125 -33.597656 L -1.460938 -31.824219 C -1.773438 -31.507812 -2.921875 -29.527344 -2.398438 -28.691406 C -2.085938 -28.273438 -2.085938 -28.273438 -1.253906 -28.378906 Z M 2.085938 -32.449219 C 1.878906 -32.554688 1.773438 -32.65625 1.980469 -32.65625 C 2.085938 -32.65625 2.191406 -32.554688 2.296875 -32.554688 C 2.296875 -32.449219 2.296875 -32.34375 2.085938 -32.449219 Z M -0.9375 -29.320312 C -1.042969 -29.320312 -1.460938 -29.839844 -0.523438 -31.09375 C 0.105469 -31.925781 0.417969 -32.03125 0.730469 -32.03125 L 1.148438 -31.71875 L 1.773438 -31.40625 C 1.878906 -31.300781 2.296875 -31.195312 0.9375 -30.050781 C 0 -29.214844 -0.835938 -29.320312 -0.9375 -29.320312 Z M -0.9375 -29.320312 "/></g></g></g><g fill="#252827" fill-opacity="1"><g transform="translate(135.992343, 292.206013)"><g><path d="M 6.15625 -27.960938 L 8.347656 -28.273438 C 10.328125 -28.691406 13.875 -29.945312 13.875 -29.945312 L 15.335938 -30.570312 L 16.484375 -31.09375 L 17.109375 -31.40625 C 17.945312 -31.824219 18.050781 -31.824219 18.886719 -32.136719 C 20.03125 -32.554688 20.554688 -32.761719 19.824219 -33.074219 C 19.617188 -33.179688 18.886719 -32.96875 16.695312 -32.03125 C 15.128906 -31.40625 12.9375 -30.570312 11.894531 -30.257812 C 6.886719 -28.691406 4.382812 -28.378906 4.382812 -29.734375 C 4.277344 -30.152344 4.488281 -30.675781 5.21875 -31.40625 C 6.050781 -32.34375 6.050781 -34.117188 4.488281 -32.96875 C 4.277344 -32.761719 3.757812 -32.554688 3.339844 -32.34375 L 0 -30.882812 L 0.730469 -32.03125 C 1.042969 -32.65625 1.042969 -32.65625 0.730469 -33.074219 C 0.3125 -33.597656 -0.105469 -33.492188 -0.835938 -32.449219 L -1.566406 -31.507812 C -1.773438 -30.988281 -2.609375 -29.734375 -3.027344 -29.320312 L -3.027344 -29.003906 C -3.234375 -28.691406 -2.921875 -28.273438 -2.503906 -28.273438 C -2.398438 -28.171875 -2.085938 -28.378906 -1.773438 -28.484375 C -0.835938 -29.109375 2.398438 -30.882812 3.441406 -31.40625 L 3.546875 -31.40625 L 3.339844 -30.988281 L 3.339844 -30.882812 L 3.128906 -30.570312 C 2.816406 -30.050781 3.027344 -28.796875 3.441406 -28.484375 C 4.070312 -27.960938 5.113281 -27.859375 6.15625 -27.960938 Z M 6.15625 -27.960938 "/></g></g></g><g fill="#252827" fill-opacity="1"><g transform="translate(155.607625, 292.206013)"><g><path d="M 2.296875 -28.484375 C 2.710938 -28.378906 3.128906 -28.378906 3.546875 -28.484375 L 3.859375 -28.484375 C 3.859375 -28.484375 5.738281 -28.902344 7.722656 -29.839844 L 13.667969 -32.554688 C 13.875 -32.65625 13.875 -32.96875 13.667969 -33.074219 L 13.5625 -33.179688 L 13.25 -33.179688 L 13.042969 -33.074219 C 8.453125 -31.09375 5.320312 -29.839844 3.964844 -29.527344 C 3.964844 -29.527344 2.609375 -29.109375 2.503906 -29.527344 C 2.085938 -30.464844 2.816406 -31.613281 3.339844 -32.238281 C 3.757812 -32.761719 4.800781 -34.015625 3.546875 -34.015625 C 3.339844 -34.015625 3.027344 -34.117188 3.027344 -34.222656 C 2.921875 -34.640625 2.609375 -34.535156 0.835938 -33.597656 C -0.730469 -32.761719 -2.710938 -31.507812 -3.964844 -30.464844 C -4.488281 -30.050781 -4.695312 -29.839844 -4.695312 -29.527344 C -4.695312 -29.003906 -4.382812 -28.902344 -3.757812 -28.902344 C -3.234375 -28.902344 -1.148438 -29.945312 -0.3125 -30.570312 C 0.523438 -31.300781 1.878906 -32.03125 1.878906 -31.925781 L 1.566406 -31.195312 C 1.355469 -30.882812 1.253906 -30.464844 1.253906 -30.152344 C 1.148438 -29.734375 1.148438 -29.421875 1.460938 -29.003906 C 1.667969 -28.691406 1.878906 -28.484375 2.296875 -28.484375 Z M -3.546875 -29.839844 L -2.921875 -30.257812 C -2.296875 -30.882812 -0.625 -32.03125 0.730469 -32.65625 C 1.773438 -33.285156 1.980469 -33.285156 1.980469 -33.074219 C 1.980469 -32.96875 1.667969 -32.761719 1.355469 -32.65625 C 0.523438 -32.238281 0.105469 -31.925781 -0.105469 -31.71875 C -0.3125 -31.507812 -2.085938 -30.464844 -2.921875 -30.050781 Z M -3.546875 -29.839844 "/></g></g></g><g fill="#252827" fill-opacity="1"><g transform="translate(168.96271, 292.206013)"><g><path d="M -2.816406 -28.066406 C -2.609375 -28.378906 -1.980469 -28.796875 -1.566406 -29.109375 L -0.417969 -29.945312 C 0 -30.363281 0.625 -30.675781 2.816406 -31.71875 L 3.964844 -32.34375 C 4.488281 -32.554688 4.589844 -32.554688 5.007812 -32.238281 C 5.632812 -31.925781 6.46875 -32.03125 7.929688 -32.554688 L 9.597656 -33.386719 L 10.746094 -33.910156 C 10.957031 -34.015625 11.476562 -34.117188 11.6875 -34.117188 C 12 -34.117188 12.207031 -34.222656 12.519531 -34.429688 C 13.144531 -35.058594 13.25 -35.371094 13.042969 -35.683594 C 12.832031 -36.101562 12.519531 -36.101562 11.6875 -35.472656 C 11.269531 -35.265625 10.957031 -35.058594 10.851562 -35.058594 C 10.746094 -35.058594 10.433594 -34.953125 10.121094 -34.742188 C 9.179688 -34.117188 7.09375 -33.179688 6.46875 -33.179688 C 6.261719 -33.179688 6.15625 -33.285156 6.050781 -33.597656 C 5.945312 -34.222656 5.632812 -34.328125 5.007812 -34.015625 C 4.800781 -33.804688 2.609375 -32.867188 2.085938 -32.554688 L 1.148438 -32.136719 C 0.835938 -31.925781 1.148438 -32.34375 1.980469 -33.074219 C 3.027344 -34.015625 3.234375 -34.640625 2.609375 -34.847656 C 2.296875 -34.953125 2.085938 -34.953125 1.667969 -34.640625 C 0.730469 -34.117188 -1.667969 -31.71875 -2.503906 -30.675781 L -3.441406 -29.527344 C -3.757812 -29.109375 -4.070312 -28.691406 -4.171875 -28.484375 C -4.277344 -27.648438 -3.339844 -27.441406 -2.816406 -28.066406 Z M -2.816406 -28.066406 "/></g></g></g><g fill="#252827" fill-opacity="1"><g transform="translate(185.239216, 292.206013)"><g><path d="M 2.398438 -24.832031 L 5.21875 -28.273438 C 7.929688 -31.824219 11.164062 -35.371094 12.9375 -36.832031 L 14.816406 -38.605469 L 16.277344 -39.753906 L 17.839844 -40.898438 C 18.46875 -41.316406 20.34375 -42.570312 20.867188 -43.089844 L 22.433594 -44.34375 C 23.683594 -45.175781 26.5 -47.472656 27.542969 -48.621094 C 29.421875 -50.5 30.363281 -51.542969 31.300781 -52.792969 C 32.136719 -53.941406 32.34375 -54.253906 32.238281 -54.671875 C 32.136719 -55.296875 31.613281 -55.195312 30.464844 -54.566406 C 30.050781 -54.253906 29.109375 -53.628906 28.589844 -53.105469 L 26.816406 -51.75 C 25.875 -51.125 24.101562 -49.457031 22.535156 -47.785156 C 21.285156 -46.429688 20.972656 -46.117188 19.300781 -44.550781 L 18.257812 -43.507812 L 14.191406 -39.335938 C 13.460938 -38.605469 11.789062 -37.457031 10.121094 -36.621094 C 9.179688 -36.203125 8.136719 -35.578125 7.617188 -35.265625 L 5.945312 -34.222656 L 5.21875 -33.804688 L 4.902344 -34.117188 C 4.171875 -35.058594 3.027344 -34.953125 0.9375 -33.804688 C -0.417969 -33.074219 -2.921875 -30.882812 -3.757812 -29.632812 C -4.488281 -28.589844 -4.171875 -27.960938 -3.027344 -28.378906 C -1.980469 -28.691406 -0.3125 -29.527344 0.523438 -30.050781 L 0.9375 -30.257812 C 1.042969 -30.257812 1.460938 -30.570312 1.980469 -30.882812 L 3.027344 -31.40625 L 3.964844 -31.925781 L 7.511719 -34.117188 C 8.453125 -34.640625 9.179688 -35.058594 9.285156 -35.058594 C 9.285156 -35.058594 8.867188 -34.535156 8.347656 -34.117188 C 6.992188 -32.761719 1.460938 -25.875 1.460938 -25.457031 C 1.566406 -24.9375 2.085938 -24.625 2.398438 -24.832031 Z M 18.988281 -42.359375 C 18.46875 -42.152344 19.824219 -43.71875 21.910156 -45.59375 L 23.265625 -46.953125 C 23.996094 -47.890625 24.726562 -48.621094 25.667969 -49.457031 L 26.5 -50.289062 L 27.859375 -51.4375 C 30.675781 -53.523438 31.09375 -53.628906 29.527344 -51.75 C 28.589844 -50.5 27.859375 -49.871094 25.355469 -47.472656 C 24.414062 -46.636719 23.164062 -45.59375 22.433594 -45.074219 L 20.761719 -43.71875 Z M -1.980469 -29.945312 C -2.296875 -29.945312 -1.566406 -30.777344 -0.625 -31.613281 L 0.207031 -32.34375 C 0.3125 -32.449219 0.625 -32.65625 1.148438 -32.867188 L 2.191406 -33.386719 C 2.503906 -33.492188 3.234375 -33.492188 3.441406 -33.386719 C 3.652344 -33.179688 3.128906 -32.554688 2.296875 -32.136719 C 1.773438 -31.824219 1.355469 -31.613281 1.253906 -31.507812 C 1.148438 -31.507812 0.417969 -31.195312 -0.417969 -30.777344 C -1.148438 -30.363281 -1.878906 -29.945312 -1.980469 -29.945312 Z M -1.980469 -29.945312 "/></g></g></g><g fill="#252827" fill-opacity="1"><g transform="translate(201.828739, 292.206013)"><g><path d="M -1.253906 -28.378906 C 0.207031 -28.378906 2.398438 -29.945312 2.921875 -30.777344 L 3.234375 -30.882812 C 4.277344 -30.675781 5.53125 -30.570312 6.886719 -30.570312 C 8.347656 -30.570312 11.6875 -30.988281 13.875 -31.925781 L 14.816406 -32.34375 C 15.023438 -32.449219 15.128906 -32.65625 15.023438 -32.867188 C 14.921875 -33.074219 14.605469 -33.074219 14.503906 -32.96875 C 12.519531 -32.136719 10.226562 -31.300781 6.675781 -31.300781 C 5.84375 -31.300781 5.007812 -31.40625 4.382812 -31.613281 C 4.171875 -31.71875 3.964844 -31.824219 3.546875 -31.925781 L 3.546875 -32.867188 C 3.546875 -32.96875 3.546875 -33.179688 3.441406 -33.285156 C 3.339844 -33.492188 3.027344 -33.699219 2.710938 -33.699219 L 1.355469 -33.804688 L 1.148438 -33.910156 L 0.3125 -33.597656 L -1.460938 -31.824219 C -1.773438 -31.507812 -2.921875 -29.527344 -2.398438 -28.691406 C -2.085938 -28.273438 -2.085938 -28.273438 -1.253906 -28.378906 Z M 2.085938 -32.449219 C 1.878906 -32.554688 1.773438 -32.65625 1.980469 -32.65625 C 2.085938 -32.65625 2.191406 -32.554688 2.296875 -32.554688 C 2.296875 -32.449219 2.296875 -32.34375 2.085938 -32.449219 Z M -0.9375 -29.320312 C -1.042969 -29.320312 -1.460938 -29.839844 -0.523438 -31.09375 C 0.105469 -31.925781 0.417969 -32.03125 0.730469 -32.03125 L 1.148438 -31.71875 L 1.773438 -31.40625 C 1.878906 -31.300781 2.296875 -31.195312 0.9375 -30.050781 C 0 -29.214844 -0.835938 -29.320312 -0.9375 -29.320312 Z M -0.9375 -29.320312 "/></g></g></g><g fill="#252827" fill-opacity="1"><g transform="translate(216.435862, 292.206013)"><g/></g></g><g fill="#252827" fill-opacity="1"><g transform="translate(258.170511, 292.206013)"><g><path d="M 1.667969 -26.398438 C 4.382812 -26.710938 9.179688 -27.648438 13.355469 -29.421875 C 16.066406 -30.570312 16.484375 -30.570312 20.03125 -32.238281 L 20.34375 -32.449219 C 21.804688 -33.179688 20.761719 -33.285156 20.34375 -33.179688 C 20.34375 -33.074219 13.460938 -30.363281 13.460938 -30.257812 C 9.597656 -28.796875 5.738281 -27.648438 0.835938 -27.335938 C -0.9375 -27.335938 -1.566406 -27.859375 -1.773438 -28.378906 C -1.878906 -28.691406 -2.085938 -29.632812 -1.566406 -30.363281 L -1.148438 -30.882812 C 0.207031 -32.34375 2.503906 -34.015625 3.441406 -34.117188 L 3.859375 -34.117188 L 3.339844 -33.597656 C 3.027344 -33.179688 2.816406 -32.867188 2.921875 -32.761719 L 3.027344 -32.449219 C 3.027344 -32.34375 3.234375 -32.34375 3.339844 -32.34375 C 3.757812 -32.449219 5.21875 -34.222656 5.113281 -34.640625 C 5.113281 -34.953125 4.488281 -35.371094 4.070312 -35.265625 C 2.710938 -35.058594 0.3125 -34.015625 -1.566406 -32.136719 C -2.609375 -31.09375 -3.128906 -30.363281 -3.128906 -29.214844 C -3.128906 -28.273438 -2.503906 -26.917969 -1.148438 -26.605469 C -0.3125 -26.398438 0.105469 -26.292969 1.667969 -26.398438 Z M 1.667969 -26.398438 "/></g></g></g><g fill="#252827" fill-opacity="1"><g transform="translate(278.516146, 292.206013)"><g><path d="M -1.253906 -28.378906 C 0.207031 -28.378906 2.398438 -29.945312 2.921875 -30.777344 L 3.234375 -30.882812 C 4.277344 -30.675781 5.53125 -30.570312 6.886719 -30.570312 C 8.347656 -30.570312 11.6875 -30.988281 13.875 -31.925781 L 14.816406 -32.34375 C 15.023438 -32.449219 15.128906 -32.65625 15.023438 -32.867188 C 14.921875 -33.074219 14.605469 -33.074219 14.503906 -32.96875 C 12.519531 -32.136719 10.226562 -31.300781 6.675781 -31.300781 C 5.84375 -31.300781 5.007812 -31.40625 4.382812 -31.613281 C 4.171875 -31.71875 3.964844 -31.824219 3.546875 -31.925781 L 3.546875 -32.867188 C 3.546875 -32.96875 3.546875 -33.179688 3.441406 -33.285156 C 3.339844 -33.492188 3.027344 -33.699219 2.710938 -33.699219 L 1.355469 -33.804688 L 1.148438 -33.910156 L 0.3125 -33.597656 L -1.460938 -31.824219 C -1.773438 -31.507812 -2.921875 -29.527344 -2.398438 -28.691406 C -2.085938 -28.273438 -2.085938 -28.273438 -1.253906 -28.378906 Z M 2.085938 -32.449219 C 1.878906 -32.554688 1.773438 -32.65625 1.980469 -32.65625 C 2.085938 -32.65625 2.191406 -32.554688 2.296875 -32.554688 C 2.296875 -32.449219 2.296875 -32.34375 2.085938 -32.449219 Z M -0.9375 -29.320312 C -1.042969 -29.320312 -1.460938 -29.839844 -0.523438 -31.09375 C 0.105469 -31.925781 0.417969 -32.03125 0.730469 -32.03125 L 1.148438 -31.71875 L 1.773438 -31.40625 C 1.878906 -31.300781 2.296875 -31.195312 0.9375 -30.050781 C 0 -29.214844 -0.835938 -29.320312 -0.9375 -29.320312 Z M -0.9375 -29.320312 "/></g></g></g><g fill="#252827" fill-opacity="1"><g transform="translate(293.123279, 292.206013)"><g><path d="M 0.207031 -27.335938 C 0.523438 -26.816406 0.835938 -26.816406 1.355469 -27.441406 C 1.980469 -28.171875 1.980469 -28.691406 1.460938 -28.796875 C 1.042969 -28.902344 0.835938 -28.902344 0.625 -28.796875 C 0 -28.589844 -0.207031 -27.960938 0.207031 -27.335938 Z M 0.207031 -27.335938 "/></g></g></g><g clip-path="url(#e591e82882)"><path fill="#252827" d="M 111.839844 268.53125 C 112.378906 267.976562 112.933594 268 113.464844 267.96875 C 125.730469 267.285156 138 266.828125 150.285156 266.710938 C 160.414062 266.613281 170.542969 266.371094 180.675781 266.28125 C 193.578125 266.164062 206.476562 266.21875 219.375 266.425781 C 227.898438 266.5625 236.421875 266.601562 244.945312 266.6875 C 253.699219 266.773438 262.453125 266.898438 271.203125 267.265625 C 276.191406 267.476562 281.1875 267.507812 286.15625 268.042969 C 287.144531 268.152344 288.128906 268.351562 289.109375 268.511719 C 289.65625 268.601562 290.3125 268.746094 290.332031 269.363281 C 290.359375 270.203125 289.535156 270.160156 288.972656 270.3125 C 287.707031 270.648438 286.503906 270.214844 285.257812 270.0625 C 283.054688 269.796875 280.8125 269.863281 278.585938 269.824219 C 273.519531 269.738281 268.457031 269.664062 263.386719 269.609375 C 254.328125 269.507812 245.269531 269.429688 236.210938 269.328125 C 230.453125 269.265625 224.691406 269.179688 218.933594 269.101562 C 207.191406 268.957031 195.445312 268.757812 183.699219 268.675781 C 171.957031 268.597656 160.214844 268.566406 148.472656 268.640625 C 137.574219 268.710938 126.675781 268.945312 115.78125 269.113281 C 115.089844 269.125 114.402344 269.210938 113.710938 269.242188 C 113.03125 269.265625 112.3125 269.359375 111.839844 268.53125 " fill-opacity="1" fill-rule="nonzero"/></g><g fill="#252827" fill-opacity="1"><g transform="translate(109.72756, 288.27631)"><g><path d="M 2.09375 -0.828125 C 2.09375 -0.617188 2.113281 -0.46875 2.15625 -0.375 C 2.195312 -0.28125 2.28125 -0.210938 2.40625 -0.171875 C 2.539062 -0.128906 2.742188 -0.109375 3.015625 -0.109375 C 3.035156 -0.109375 3.046875 -0.0859375 3.046875 -0.046875 C 3.046875 -0.015625 3.035156 0 3.015625 0 C 2.753906 0 2.550781 -0.00390625 2.40625 -0.015625 L 0.84375 -0.015625 C 0.71875 -0.00390625 0.546875 0 0.328125 0 C 0.304688 0 0.296875 -0.015625 0.296875 -0.046875 C 0.296875 -0.0859375 0.304688 -0.109375 0.328125 -0.109375 C 0.535156 -0.109375 0.6875 -0.125 0.78125 -0.15625 C 0.875 -0.195312 0.9375 -0.265625 0.96875 -0.359375 C 1 -0.453125 1.015625 -0.59375 1.015625 -0.78125 L 1.015625 -5.265625 C 1.015625 -5.453125 1 -5.59375 0.96875 -5.6875 C 0.9375 -5.78125 0.867188 -5.84375 0.765625 -5.875 C 0.671875 -5.90625 0.523438 -5.921875 0.328125 -5.921875 C 0.304688 -5.921875 0.296875 -5.941406 0.296875 -5.984375 C 0.296875 -6.023438 0.304688 -6.046875 0.328125 -6.046875 L 0.84375 -6.03125 C 1.132812 -6.019531 1.367188 -6.015625 1.546875 -6.015625 C 1.703125 -6.015625 1.882812 -6.023438 2.09375 -6.046875 C 2.175781 -6.046875 2.28125 -6.050781 2.40625 -6.0625 C 2.539062 -6.070312 2.691406 -6.078125 2.859375 -6.078125 C 3.515625 -6.078125 4.03125 -5.9375 4.40625 -5.65625 C 4.789062 -5.382812 4.984375 -4.960938 4.984375 -4.390625 C 4.984375 -3.992188 4.878906 -3.65625 4.671875 -3.375 C 4.472656 -3.09375 4.207031 -2.878906 3.875 -2.734375 C 3.550781 -2.597656 3.21875 -2.53125 2.875 -2.53125 C 2.707031 -2.53125 2.554688 -2.546875 2.421875 -2.578125 C 2.410156 -2.578125 2.40625 -2.59375 2.40625 -2.625 C 2.40625 -2.644531 2.410156 -2.664062 2.421875 -2.6875 C 2.429688 -2.707031 2.441406 -2.710938 2.453125 -2.703125 C 2.554688 -2.679688 2.664062 -2.671875 2.78125 -2.671875 C 3.082031 -2.671875 3.332031 -2.804688 3.53125 -3.078125 C 3.726562 -3.359375 3.828125 -3.753906 3.828125 -4.265625 C 3.828125 -4.773438 3.71875 -5.164062 3.5 -5.4375 C 3.28125 -5.71875 2.960938 -5.859375 2.546875 -5.859375 C 2.367188 -5.859375 2.25 -5.816406 2.1875 -5.734375 C 2.125 -5.648438 2.09375 -5.484375 2.09375 -5.234375 Z M 2.09375 -0.828125 "/></g></g></g><g fill="#252827" fill-opacity="1"><g transform="translate(122.802639, 288.27631)"><g><path d="M 7.078125 -0.109375 C 7.097656 -0.109375 7.109375 -0.0859375 7.109375 -0.046875 C 7.109375 -0.015625 7.097656 0 7.078125 0 C 6.847656 0 6.664062 -0.00390625 6.53125 -0.015625 L 4.921875 -0.015625 C 4.804688 -0.00390625 4.648438 0 4.453125 0 C 4.429688 0 4.421875 -0.015625 4.421875 -0.046875 C 4.421875 -0.0859375 4.429688 -0.109375 4.453125 -0.109375 C 4.691406 -0.109375 4.863281 -0.125 4.96875 -0.15625 C 5.082031 -0.195312 5.15625 -0.257812 5.1875 -0.34375 C 5.226562 -0.4375 5.25 -0.582031 5.25 -0.78125 L 5.25 -3.015625 L 2.125 -3.015625 L 2.125 -0.78125 C 2.125 -0.59375 2.144531 -0.453125 2.1875 -0.359375 C 2.226562 -0.265625 2.300781 -0.195312 2.40625 -0.15625 C 2.519531 -0.125 2.695312 -0.109375 2.9375 -0.109375 C 2.945312 -0.109375 2.953125 -0.0859375 2.953125 -0.046875 C 2.953125 -0.015625 2.945312 0 2.9375 0 C 2.707031 0 2.523438 -0.00390625 2.390625 -0.015625 L 0.828125 -0.015625 C 0.691406 -0.00390625 0.515625 0 0.296875 0 C 0.273438 0 0.265625 -0.015625 0.265625 -0.046875 C 0.265625 -0.0859375 0.273438 -0.109375 0.296875 -0.109375 C 0.515625 -0.109375 0.675781 -0.125 0.78125 -0.15625 C 0.882812 -0.195312 0.953125 -0.265625 0.984375 -0.359375 C 1.023438 -0.453125 1.046875 -0.59375 1.046875 -0.78125 L 1.046875 -5.265625 C 1.046875 -5.453125 1.023438 -5.59375 0.984375 -5.6875 C 0.953125 -5.78125 0.882812 -5.84375 0.78125 -5.875 C 0.6875 -5.90625 0.53125 -5.921875 0.3125 -5.921875 C 0.289062 -5.921875 0.28125 -5.941406 0.28125 -5.984375 C 0.28125 -6.023438 0.289062 -6.046875 0.3125 -6.046875 L 0.828125 -6.03125 C 1.128906 -6.019531 1.367188 -6.015625 1.546875 -6.015625 C 1.796875 -6.015625 2.082031 -6.019531 2.40625 -6.03125 L 2.9375 -6.046875 C 2.945312 -6.046875 2.953125 -6.023438 2.953125 -5.984375 C 2.953125 -5.941406 2.945312 -5.921875 2.9375 -5.921875 C 2.695312 -5.921875 2.519531 -5.898438 2.40625 -5.859375 C 2.300781 -5.828125 2.226562 -5.765625 2.1875 -5.671875 C 2.144531 -5.578125 2.125 -5.429688 2.125 -5.234375 L 2.125 -3.28125 L 5.25 -3.28125 L 5.25 -5.234375 C 5.25 -5.429688 5.226562 -5.578125 5.1875 -5.671875 C 5.15625 -5.765625 5.082031 -5.828125 4.96875 -5.859375 C 4.863281 -5.898438 4.691406 -5.921875 4.453125 -5.921875 C 4.429688 -5.921875 4.421875 -5.941406 4.421875 -5.984375 C 4.421875 -6.023438 4.429688 -6.046875 4.453125 -6.046875 L 4.921875 -6.03125 C 5.242188 -6.019531 5.535156 -6.015625 5.796875 -6.015625 C 5.960938 -6.015625 6.207031 -6.019531 6.53125 -6.03125 L 7.078125 -6.046875 C 7.097656 -6.046875 7.109375 -6.023438 7.109375 -5.984375 C 7.109375 -5.941406 7.097656 -5.921875 7.078125 -5.921875 C 6.859375 -5.921875 6.695312 -5.90625 6.59375 -5.875 C 6.488281 -5.84375 6.414062 -5.78125 6.375 -5.6875 C 6.34375 -5.59375 6.328125 -5.453125 6.328125 -5.265625 L 6.328125 -0.78125 C 6.328125 -0.59375 6.34375 -0.453125 6.375 -0.359375 C 6.414062 -0.265625 6.484375 -0.195312 6.578125 -0.15625 C 6.679688 -0.125 6.847656 -0.109375 7.078125 -0.109375 Z M 7.078125 -0.109375 "/></g></g></g><g fill="#252827" fill-opacity="1"><g transform="translate(137.915201, 288.27631)"><g><path d="M 3.546875 0.109375 C 2.941406 0.109375 2.40625 -0.0234375 1.9375 -0.296875 C 1.46875 -0.578125 1.101562 -0.957031 0.84375 -1.4375 C 0.59375 -1.925781 0.46875 -2.453125 0.46875 -3.015625 C 0.46875 -3.679688 0.632812 -4.25 0.96875 -4.71875 C 1.3125 -5.195312 1.742188 -5.554688 2.265625 -5.796875 C 2.796875 -6.035156 3.332031 -6.15625 3.875 -6.15625 C 4.488281 -6.15625 5.023438 -6.007812 5.484375 -5.71875 C 5.953125 -5.4375 6.3125 -5.054688 6.5625 -4.578125 C 6.8125 -4.109375 6.9375 -3.609375 6.9375 -3.078125 C 6.9375 -2.492188 6.78125 -1.957031 6.46875 -1.46875 C 6.15625 -0.976562 5.738281 -0.59375 5.21875 -0.3125 C 4.707031 -0.03125 4.148438 0.109375 3.546875 0.109375 Z M 3.859375 -0.125 C 4.222656 -0.125 4.546875 -0.226562 4.828125 -0.4375 C 5.117188 -0.644531 5.34375 -0.953125 5.5 -1.359375 C 5.664062 -1.765625 5.75 -2.25 5.75 -2.8125 C 5.75 -3.394531 5.65625 -3.921875 5.46875 -4.390625 C 5.289062 -4.859375 5.03125 -5.222656 4.6875 -5.484375 C 4.34375 -5.753906 3.941406 -5.890625 3.484375 -5.890625 C 2.898438 -5.890625 2.445312 -5.664062 2.125 -5.21875 C 1.8125 -4.78125 1.65625 -4.164062 1.65625 -3.375 C 1.65625 -2.75 1.75 -2.1875 1.9375 -1.6875 C 2.132812 -1.195312 2.398438 -0.8125 2.734375 -0.53125 C 3.066406 -0.257812 3.441406 -0.125 3.859375 -0.125 Z M 3.859375 -0.125 "/></g></g></g><g fill="#252827" fill-opacity="1"><g transform="translate(153.047067, 288.27631)"><g><path d="M 2.140625 -5.828125 C 1.378906 -5.828125 0.832031 -5.328125 0.5 -4.328125 C 0.488281 -4.304688 0.46875 -4.296875 0.4375 -4.296875 C 0.40625 -4.296875 0.390625 -4.304688 0.390625 -4.328125 C 0.410156 -4.585938 0.4375 -4.921875 0.46875 -5.328125 C 0.5 -5.742188 0.515625 -6.050781 0.515625 -6.25 C 0.515625 -6.289062 0.53125 -6.3125 0.5625 -6.3125 C 0.601562 -6.3125 0.625 -6.289062 0.625 -6.25 C 0.625 -6.113281 0.8125 -6.046875 1.1875 -6.046875 C 1.738281 -6.023438 2.382812 -6.015625 3.125 -6.015625 C 3.5 -6.015625 3.898438 -6.019531 4.328125 -6.03125 L 4.984375 -6.046875 C 5.234375 -6.046875 5.414062 -6.0625 5.53125 -6.09375 C 5.644531 -6.125 5.71875 -6.1875 5.75 -6.28125 C 5.75 -6.3125 5.765625 -6.328125 5.796875 -6.328125 C 5.835938 -6.328125 5.859375 -6.3125 5.859375 -6.28125 C 5.835938 -6.09375 5.816406 -5.785156 5.796875 -5.359375 C 5.773438 -4.929688 5.765625 -4.585938 5.765625 -4.328125 C 5.765625 -4.304688 5.75 -4.296875 5.71875 -4.296875 C 5.6875 -4.296875 5.664062 -4.304688 5.65625 -4.328125 C 5.5625 -4.828125 5.378906 -5.203125 5.109375 -5.453125 C 4.847656 -5.703125 4.523438 -5.828125 4.140625 -5.828125 C 3.953125 -5.828125 3.828125 -5.785156 3.765625 -5.703125 C 3.703125 -5.617188 3.671875 -5.460938 3.671875 -5.234375 L 3.671875 -0.78125 C 3.671875 -0.582031 3.691406 -0.4375 3.734375 -0.34375 C 3.773438 -0.257812 3.847656 -0.195312 3.953125 -0.15625 C 4.066406 -0.125 4.242188 -0.109375 4.484375 -0.109375 C 4.492188 -0.109375 4.5 -0.0859375 4.5 -0.046875 C 4.5 -0.015625 4.492188 0 4.484375 0 C 4.242188 0 4.054688 -0.00390625 3.921875 -0.015625 L 2.34375 -0.015625 C 2.207031 -0.00390625 2.019531 0 1.78125 0 C 1.757812 0 1.75 -0.015625 1.75 -0.046875 C 1.75 -0.0859375 1.757812 -0.109375 1.78125 -0.109375 C 2.007812 -0.109375 2.179688 -0.125 2.296875 -0.15625 C 2.410156 -0.195312 2.488281 -0.265625 2.53125 -0.359375 C 2.570312 -0.453125 2.59375 -0.59375 2.59375 -0.78125 L 2.59375 -5.265625 C 2.59375 -5.484375 2.5625 -5.628906 2.5 -5.703125 C 2.445312 -5.785156 2.328125 -5.828125 2.140625 -5.828125 Z M 2.140625 -5.828125 "/></g></g></g><g fill="#252827" fill-opacity="1"><g transform="translate(166.991212, 288.27631)"><g><path d="M 3.546875 0.109375 C 2.941406 0.109375 2.40625 -0.0234375 1.9375 -0.296875 C 1.46875 -0.578125 1.101562 -0.957031 0.84375 -1.4375 C 0.59375 -1.925781 0.46875 -2.453125 0.46875 -3.015625 C 0.46875 -3.679688 0.632812 -4.25 0.96875 -4.71875 C 1.3125 -5.195312 1.742188 -5.554688 2.265625 -5.796875 C 2.796875 -6.035156 3.332031 -6.15625 3.875 -6.15625 C 4.488281 -6.15625 5.023438 -6.007812 5.484375 -5.71875 C 5.953125 -5.4375 6.3125 -5.054688 6.5625 -4.578125 C 6.8125 -4.109375 6.9375 -3.609375 6.9375 -3.078125 C 6.9375 -2.492188 6.78125 -1.957031 6.46875 -1.46875 C 6.15625 -0.976562 5.738281 -0.59375 5.21875 -0.3125 C 4.707031 -0.03125 4.148438 0.109375 3.546875 0.109375 Z M 3.859375 -0.125 C 4.222656 -0.125 4.546875 -0.226562 4.828125 -0.4375 C 5.117188 -0.644531 5.34375 -0.953125 5.5 -1.359375 C 5.664062 -1.765625 5.75 -2.25 5.75 -2.8125 C 5.75 -3.394531 5.65625 -3.921875 5.46875 -4.390625 C 5.289062 -4.859375 5.03125 -5.222656 4.6875 -5.484375 C 4.34375 -5.753906 3.941406 -5.890625 3.484375 -5.890625 C 2.898438 -5.890625 2.445312 -5.664062 2.125 -5.21875 C 1.8125 -4.78125 1.65625 -4.164062 1.65625 -3.375 C 1.65625 -2.75 1.75 -2.1875 1.9375 -1.6875 C 2.132812 -1.195312 2.398438 -0.8125 2.734375 -0.53125 C 3.066406 -0.257812 3.441406 -0.125 3.859375 -0.125 Z M 3.859375 -0.125 "/></g></g></g><g fill="#252827" fill-opacity="1"><g transform="translate(182.123081, 288.27631)"><g><path d="M 4.078125 0.109375 C 3.335938 0.109375 2.695312 -0.0234375 2.15625 -0.296875 C 1.613281 -0.566406 1.195312 -0.9375 0.90625 -1.40625 C 0.613281 -1.882812 0.46875 -2.410156 0.46875 -2.984375 C 0.46875 -3.585938 0.628906 -4.128906 0.953125 -4.609375 C 1.285156 -5.097656 1.738281 -5.476562 2.3125 -5.75 C 2.882812 -6.019531 3.53125 -6.15625 4.25 -6.15625 C 4.550781 -6.15625 4.859375 -6.128906 5.171875 -6.078125 C 5.484375 -6.023438 5.734375 -5.960938 5.921875 -5.890625 C 5.992188 -5.859375 6.03125 -5.832031 6.03125 -5.8125 C 6.039062 -5.800781 6.050781 -5.753906 6.0625 -5.671875 L 6.1875 -4.328125 C 6.1875 -4.304688 6.164062 -4.289062 6.125 -4.28125 C 6.09375 -4.28125 6.078125 -4.289062 6.078125 -4.3125 C 5.992188 -4.53125 5.859375 -4.765625 5.671875 -5.015625 C 5.484375 -5.265625 5.238281 -5.484375 4.9375 -5.671875 C 4.632812 -5.859375 4.28125 -5.953125 3.875 -5.953125 C 3.46875 -5.953125 3.09375 -5.835938 2.75 -5.609375 C 2.40625 -5.378906 2.132812 -5.054688 1.9375 -4.640625 C 1.738281 -4.222656 1.640625 -3.738281 1.640625 -3.1875 C 1.640625 -2.570312 1.753906 -2.023438 1.984375 -1.546875 C 2.210938 -1.078125 2.53125 -0.707031 2.9375 -0.4375 C 3.34375 -0.175781 3.800781 -0.046875 4.3125 -0.046875 C 4.570312 -0.046875 4.773438 -0.0703125 4.921875 -0.125 C 5.066406 -0.1875 5.171875 -0.300781 5.234375 -0.46875 C 5.296875 -0.632812 5.328125 -0.882812 5.328125 -1.21875 C 5.328125 -1.550781 5.304688 -1.785156 5.265625 -1.921875 C 5.234375 -2.054688 5.15625 -2.144531 5.03125 -2.1875 C 4.90625 -2.226562 4.679688 -2.25 4.359375 -2.25 C 4.316406 -2.25 4.296875 -2.273438 4.296875 -2.328125 C 4.296875 -2.347656 4.300781 -2.363281 4.3125 -2.375 C 4.320312 -2.394531 4.335938 -2.40625 4.359375 -2.40625 C 4.898438 -2.375 5.34375 -2.359375 5.6875 -2.359375 C 6.019531 -2.359375 6.363281 -2.367188 6.71875 -2.390625 C 6.738281 -2.390625 6.75 -2.363281 6.75 -2.3125 C 6.757812 -2.269531 6.75 -2.25 6.71875 -2.25 C 6.59375 -2.257812 6.503906 -2.238281 6.453125 -2.1875 C 6.410156 -2.144531 6.382812 -2.046875 6.375 -1.890625 C 6.363281 -1.742188 6.359375 -1.488281 6.359375 -1.125 C 6.359375 -0.832031 6.367188 -0.625 6.390625 -0.5 C 6.410156 -0.375 6.421875 -0.296875 6.421875 -0.265625 C 6.421875 -0.234375 6.414062 -0.207031 6.40625 -0.1875 C 6.394531 -0.175781 6.363281 -0.164062 6.3125 -0.15625 C 5.476562 0.0195312 4.734375 0.109375 4.078125 0.109375 Z M 4.078125 0.109375 "/></g></g></g><g fill="#252827" fill-opacity="1"><g transform="translate(196.916983, 288.27631)"><g><path d="M 6.84375 -0.109375 C 6.851562 -0.109375 6.859375 -0.0859375 6.859375 -0.046875 C 6.859375 -0.015625 6.851562 0 6.84375 0 L 5.125 0 C 4.976562 0 4.710938 -0.253906 4.328125 -0.765625 C 3.941406 -1.273438 3.476562 -1.992188 2.9375 -2.921875 C 2.882812 -2.910156 2.804688 -2.90625 2.703125 -2.90625 C 2.453125 -2.90625 2.273438 -2.910156 2.171875 -2.921875 L 2.171875 -0.78125 C 2.171875 -0.582031 2.1875 -0.4375 2.21875 -0.34375 C 2.25 -0.257812 2.3125 -0.195312 2.40625 -0.15625 C 2.5 -0.125 2.648438 -0.109375 2.859375 -0.109375 C 2.867188 -0.109375 2.875 -0.0859375 2.875 -0.046875 C 2.875 -0.015625 2.867188 0 2.859375 0 C 2.648438 0 2.484375 -0.00390625 2.359375 -0.015625 L 0.921875 -0.015625 C 0.785156 -0.00390625 0.609375 0 0.390625 0 C 0.378906 0 0.375 -0.015625 0.375 -0.046875 C 0.375 -0.0859375 0.378906 -0.109375 0.390625 -0.109375 C 0.597656 -0.109375 0.75 -0.125 0.84375 -0.15625 C 0.9375 -0.195312 1 -0.265625 1.03125 -0.359375 C 1.070312 -0.453125 1.09375 -0.59375 1.09375 -0.78125 L 1.09375 -5.265625 C 1.09375 -5.453125 1.078125 -5.59375 1.046875 -5.6875 C 1.015625 -5.78125 0.945312 -5.84375 0.84375 -5.875 C 0.75 -5.90625 0.601562 -5.921875 0.40625 -5.921875 C 0.394531 -5.921875 0.390625 -5.941406 0.390625 -5.984375 C 0.390625 -6.023438 0.394531 -6.046875 0.40625 -6.046875 L 0.921875 -6.03125 C 1.210938 -6.019531 1.445312 -6.015625 1.625 -6.015625 C 1.84375 -6.015625 2.070312 -6.023438 2.3125 -6.046875 C 2.394531 -6.046875 2.5 -6.050781 2.625 -6.0625 C 2.75 -6.070312 2.890625 -6.078125 3.046875 -6.078125 C 3.628906 -6.078125 4.082031 -5.96875 4.40625 -5.75 C 4.726562 -5.53125 4.890625 -5.226562 4.890625 -4.84375 C 4.890625 -4.488281 4.789062 -4.164062 4.59375 -3.875 C 4.40625 -3.59375 4.148438 -3.363281 3.828125 -3.1875 C 4.347656 -2.414062 4.78125 -1.8125 5.125 -1.375 C 5.46875 -0.9375 5.773438 -0.613281 6.046875 -0.40625 C 6.316406 -0.207031 6.582031 -0.109375 6.84375 -0.109375 Z M 2.171875 -3.1875 C 2.328125 -3.164062 2.515625 -3.15625 2.734375 -3.15625 C 3.109375 -3.15625 3.378906 -3.257812 3.546875 -3.46875 C 3.710938 -3.675781 3.796875 -4.015625 3.796875 -4.484375 C 3.796875 -5.003906 3.71875 -5.363281 3.5625 -5.5625 C 3.40625 -5.769531 3.179688 -5.875 2.890625 -5.875 C 2.628906 -5.875 2.441406 -5.820312 2.328125 -5.71875 C 2.222656 -5.625 2.171875 -5.460938 2.171875 -5.234375 Z M 2.171875 -3.1875 "/></g></g></g><g fill="#252827" fill-opacity="1"><g transform="translate(211.392219, 288.27631)"><g><path d="M 6.9375 -0.109375 C 6.96875 -0.109375 6.984375 -0.0859375 6.984375 -0.046875 C 6.984375 -0.015625 6.96875 0 6.9375 0 C 6.800781 0 6.597656 -0.00390625 6.328125 -0.015625 C 6.046875 -0.0234375 5.84375 -0.03125 5.71875 -0.03125 C 5.5625 -0.03125 5.367188 -0.0234375 5.140625 -0.015625 C 4.921875 -0.00390625 4.742188 0 4.609375 0 C 4.585938 0 4.578125 -0.015625 4.578125 -0.046875 C 4.578125 -0.0859375 4.585938 -0.109375 4.609375 -0.109375 C 4.773438 -0.109375 4.894531 -0.125 4.96875 -0.15625 C 5.050781 -0.195312 5.09375 -0.265625 5.09375 -0.359375 C 5.09375 -0.460938 5.023438 -0.644531 4.890625 -0.90625 L 4.234375 -2.21875 L 1.859375 -2.21875 L 1.484375 -1.375 C 1.398438 -1.1875 1.359375 -1.007812 1.359375 -0.84375 C 1.359375 -0.613281 1.4375 -0.429688 1.59375 -0.296875 C 1.757812 -0.171875 1.984375 -0.109375 2.265625 -0.109375 C 2.296875 -0.109375 2.3125 -0.0859375 2.3125 -0.046875 C 2.3125 -0.015625 2.296875 0 2.265625 0 C 2.148438 0 1.984375 -0.00390625 1.765625 -0.015625 C 1.515625 -0.0234375 1.300781 -0.03125 1.125 -0.03125 C 0.945312 -0.03125 0.738281 -0.0234375 0.5 -0.015625 C 0.28125 -0.00390625 0.101562 0 -0.03125 0 C -0.0625 0 -0.078125 -0.015625 -0.078125 -0.046875 C -0.078125 -0.0859375 -0.0625 -0.109375 -0.03125 -0.109375 C 0.144531 -0.109375 0.289062 -0.144531 0.40625 -0.21875 C 0.53125 -0.300781 0.65625 -0.4375 0.78125 -0.625 C 0.90625 -0.8125 1.050781 -1.09375 1.21875 -1.46875 L 3.3125 -6.078125 C 3.332031 -6.097656 3.363281 -6.109375 3.40625 -6.109375 C 3.457031 -6.109375 3.484375 -6.097656 3.484375 -6.078125 L 5.90625 -1.328125 C 6.132812 -0.867188 6.320312 -0.550781 6.46875 -0.375 C 6.613281 -0.195312 6.769531 -0.109375 6.9375 -0.109375 Z M 1.984375 -2.484375 L 4.09375 -2.484375 L 2.984375 -4.6875 Z M 1.984375 -2.484375 "/></g></g></g><g fill="#252827" fill-opacity="1"><g transform="translate(226.041274, 288.27631)"><g><path d="M 2.09375 -0.828125 C 2.09375 -0.617188 2.113281 -0.46875 2.15625 -0.375 C 2.195312 -0.28125 2.28125 -0.210938 2.40625 -0.171875 C 2.539062 -0.128906 2.742188 -0.109375 3.015625 -0.109375 C 3.035156 -0.109375 3.046875 -0.0859375 3.046875 -0.046875 C 3.046875 -0.015625 3.035156 0 3.015625 0 C 2.753906 0 2.550781 -0.00390625 2.40625 -0.015625 L 0.84375 -0.015625 C 0.71875 -0.00390625 0.546875 0 0.328125 0 C 0.304688 0 0.296875 -0.015625 0.296875 -0.046875 C 0.296875 -0.0859375 0.304688 -0.109375 0.328125 -0.109375 C 0.535156 -0.109375 0.6875 -0.125 0.78125 -0.15625 C 0.875 -0.195312 0.9375 -0.265625 0.96875 -0.359375 C 1 -0.453125 1.015625 -0.59375 1.015625 -0.78125 L 1.015625 -5.265625 C 1.015625 -5.453125 1 -5.59375 0.96875 -5.6875 C 0.9375 -5.78125 0.867188 -5.84375 0.765625 -5.875 C 0.671875 -5.90625 0.523438 -5.921875 0.328125 -5.921875 C 0.304688 -5.921875 0.296875 -5.941406 0.296875 -5.984375 C 0.296875 -6.023438 0.304688 -6.046875 0.328125 -6.046875 L 0.84375 -6.03125 C 1.132812 -6.019531 1.367188 -6.015625 1.546875 -6.015625 C 1.703125 -6.015625 1.882812 -6.023438 2.09375 -6.046875 C 2.175781 -6.046875 2.28125 -6.050781 2.40625 -6.0625 C 2.539062 -6.070312 2.691406 -6.078125 2.859375 -6.078125 C 3.515625 -6.078125 4.03125 -5.9375 4.40625 -5.65625 C 4.789062 -5.382812 4.984375 -4.960938 4.984375 -4.390625 C 4.984375 -3.992188 4.878906 -3.65625 4.671875 -3.375 C 4.472656 -3.09375 4.207031 -2.878906 3.875 -2.734375 C 3.550781 -2.597656 3.21875 -2.53125 2.875 -2.53125 C 2.707031 -2.53125 2.554688 -2.546875 2.421875 -2.578125 C 2.410156 -2.578125 2.40625 -2.59375 2.40625 -2.625 C 2.40625 -2.644531 2.410156 -2.664062 2.421875 -2.6875 C 2.429688 -2.707031 2.441406 -2.710938 2.453125 -2.703125 C 2.554688 -2.679688 2.664062 -2.671875 2.78125 -2.671875 C 3.082031 -2.671875 3.332031 -2.804688 3.53125 -3.078125 C 3.726562 -3.359375 3.828125 -3.753906 3.828125 -4.265625 C 3.828125 -4.773438 3.71875 -5.164062 3.5 -5.4375 C 3.28125 -5.71875 2.960938 -5.859375 2.546875 -5.859375 C 2.367188 -5.859375 2.25 -5.816406 2.1875 -5.734375 C 2.125 -5.648438 2.09375 -5.484375 2.09375 -5.234375 Z M 2.09375 -0.828125 "/></g></g></g><g fill="#252827" fill-opacity="1"><g transform="translate(239.116353, 288.27631)"><g><path d="M 7.078125 -0.109375 C 7.097656 -0.109375 7.109375 -0.0859375 7.109375 -0.046875 C 7.109375 -0.015625 7.097656 0 7.078125 0 C 6.847656 0 6.664062 -0.00390625 6.53125 -0.015625 L 4.921875 -0.015625 C 4.804688 -0.00390625 4.648438 0 4.453125 0 C 4.429688 0 4.421875 -0.015625 4.421875 -0.046875 C 4.421875 -0.0859375 4.429688 -0.109375 4.453125 -0.109375 C 4.691406 -0.109375 4.863281 -0.125 4.96875 -0.15625 C 5.082031 -0.195312 5.15625 -0.257812 5.1875 -0.34375 C 5.226562 -0.4375 5.25 -0.582031 5.25 -0.78125 L 5.25 -3.015625 L 2.125 -3.015625 L 2.125 -0.78125 C 2.125 -0.59375 2.144531 -0.453125 2.1875 -0.359375 C 2.226562 -0.265625 2.300781 -0.195312 2.40625 -0.15625 C 2.519531 -0.125 2.695312 -0.109375 2.9375 -0.109375 C 2.945312 -0.109375 2.953125 -0.0859375 2.953125 -0.046875 C 2.953125 -0.015625 2.945312 0 2.9375 0 C 2.707031 0 2.523438 -0.00390625 2.390625 -0.015625 L 0.828125 -0.015625 C 0.691406 -0.00390625 0.515625 0 0.296875 0 C 0.273438 0 0.265625 -0.015625 0.265625 -0.046875 C 0.265625 -0.0859375 0.273438 -0.109375 0.296875 -0.109375 C 0.515625 -0.109375 0.675781 -0.125 0.78125 -0.15625 C 0.882812 -0.195312 0.953125 -0.265625 0.984375 -0.359375 C 1.023438 -0.453125 1.046875 -0.59375 1.046875 -0.78125 L 1.046875 -5.265625 C 1.046875 -5.453125 1.023438 -5.59375 0.984375 -5.6875 C 0.953125 -5.78125 0.882812 -5.84375 0.78125 -5.875 C 0.6875 -5.90625 0.53125 -5.921875 0.3125 -5.921875 C 0.289062 -5.921875 0.28125 -5.941406 0.28125 -5.984375 C 0.28125 -6.023438 0.289062 -6.046875 0.3125 -6.046875 L 0.828125 -6.03125 C 1.128906 -6.019531 1.367188 -6.015625 1.546875 -6.015625 C 1.796875 -6.015625 2.082031 -6.019531 2.40625 -6.03125 L 2.9375 -6.046875 C 2.945312 -6.046875 2.953125 -6.023438 2.953125 -5.984375 C 2.953125 -5.941406 2.945312 -5.921875 2.9375 -5.921875 C 2.695312 -5.921875 2.519531 -5.898438 2.40625 -5.859375 C 2.300781 -5.828125 2.226562 -5.765625 2.1875 -5.671875 C 2.144531 -5.578125 2.125 -5.429688 2.125 -5.234375 L 2.125 -3.28125 L 5.25 -3.28125 L 5.25 -5.234375 C 5.25 -5.429688 5.226562 -5.578125 5.1875 -5.671875 C 5.15625 -5.765625 5.082031 -5.828125 4.96875 -5.859375 C 4.863281 -5.898438 4.691406 -5.921875 4.453125 -5.921875 C 4.429688 -5.921875 4.421875 -5.941406 4.421875 -5.984375 C 4.421875 -6.023438 4.429688 -6.046875 4.453125 -6.046875 L 4.921875 -6.03125 C 5.242188 -6.019531 5.535156 -6.015625 5.796875 -6.015625 C 5.960938 -6.015625 6.207031 -6.019531 6.53125 -6.03125 L 7.078125 -6.046875 C 7.097656 -6.046875 7.109375 -6.023438 7.109375 -5.984375 C 7.109375 -5.941406 7.097656 -5.921875 7.078125 -5.921875 C 6.859375 -5.921875 6.695312 -5.90625 6.59375 -5.875 C 6.488281 -5.84375 6.414062 -5.78125 6.375 -5.6875 C 6.34375 -5.59375 6.328125 -5.453125 6.328125 -5.265625 L 6.328125 -0.78125 C 6.328125 -0.59375 6.34375 -0.453125 6.375 -0.359375 C 6.414062 -0.265625 6.484375 -0.195312 6.578125 -0.15625 C 6.679688 -0.125 6.847656 -0.109375 7.078125 -0.109375 Z M 7.078125 -0.109375 "/></g></g></g><g fill="#252827" fill-opacity="1"><g transform="translate(254.228916, 288.27631)"><g><path d="M 4.796875 -1.53125 C 4.796875 -1.550781 4.8125 -1.5625 4.84375 -1.5625 C 4.851562 -1.5625 4.863281 -1.554688 4.875 -1.546875 C 4.894531 -1.535156 4.90625 -1.523438 4.90625 -1.515625 C 4.84375 -1.015625 4.8125 -0.554688 4.8125 -0.140625 C 4.8125 -0.0859375 4.800781 -0.0507812 4.78125 -0.03125 C 4.769531 -0.0078125 4.734375 0 4.671875 0 L 0.390625 0 C 0.378906 0 0.375 -0.015625 0.375 -0.046875 C 0.375 -0.0859375 0.378906 -0.109375 0.390625 -0.109375 C 0.597656 -0.109375 0.75 -0.125 0.84375 -0.15625 C 0.9375 -0.195312 1 -0.265625 1.03125 -0.359375 C 1.0625 -0.453125 1.078125 -0.59375 1.078125 -0.78125 L 1.078125 -5.265625 C 1.078125 -5.453125 1.0625 -5.59375 1.03125 -5.6875 C 1 -5.78125 0.9375 -5.84375 0.84375 -5.875 C 0.75 -5.90625 0.597656 -5.921875 0.390625 -5.921875 C 0.378906 -5.921875 0.375 -5.941406 0.375 -5.984375 C 0.375 -6.023438 0.378906 -6.046875 0.390625 -6.046875 L 4.5 -6.046875 C 4.5625 -6.046875 4.59375 -6.015625 4.59375 -5.953125 L 4.609375 -4.671875 C 4.609375 -4.660156 4.585938 -4.648438 4.546875 -4.640625 C 4.515625 -4.640625 4.5 -4.644531 4.5 -4.65625 C 4.394531 -5.03125 4.21875 -5.304688 3.96875 -5.484375 C 3.726562 -5.671875 3.410156 -5.765625 3.015625 -5.765625 L 2.71875 -5.765625 C 2.519531 -5.765625 2.375 -5.722656 2.28125 -5.640625 C 2.195312 -5.554688 2.15625 -5.425781 2.15625 -5.25 L 2.15625 -3.28125 L 2.953125 -3.28125 C 3.328125 -3.28125 3.613281 -3.34375 3.8125 -3.46875 C 4.019531 -3.601562 4.125 -3.785156 4.125 -4.015625 C 4.125 -4.035156 4.140625 -4.046875 4.171875 -4.046875 C 4.210938 -4.046875 4.234375 -4.035156 4.234375 -4.015625 L 4.21875 -3.140625 L 4.234375 -2.671875 C 4.242188 -2.453125 4.25 -2.28125 4.25 -2.15625 C 4.25 -2.144531 4.226562 -2.140625 4.1875 -2.140625 C 4.144531 -2.140625 4.125 -2.144531 4.125 -2.15625 C 4.125 -2.414062 4.019531 -2.625 3.8125 -2.78125 C 3.613281 -2.9375 3.328125 -3.015625 2.953125 -3.015625 L 2.15625 -3.015625 L 2.15625 -0.828125 C 2.15625 -0.640625 2.191406 -0.5 2.265625 -0.40625 C 2.335938 -0.3125 2.453125 -0.265625 2.609375 -0.265625 L 2.921875 -0.265625 C 3.421875 -0.265625 3.820312 -0.367188 4.125 -0.578125 C 4.425781 -0.785156 4.648438 -1.101562 4.796875 -1.53125 Z M 4.796875 -1.53125 "/></g></g></g><g fill="#252827" fill-opacity="1"><g transform="translate(267.294338, 288.27631)"><g><path d="M 6.84375 -0.109375 C 6.851562 -0.109375 6.859375 -0.0859375 6.859375 -0.046875 C 6.859375 -0.015625 6.851562 0 6.84375 0 L 5.125 0 C 4.976562 0 4.710938 -0.253906 4.328125 -0.765625 C 3.941406 -1.273438 3.476562 -1.992188 2.9375 -2.921875 C 2.882812 -2.910156 2.804688 -2.90625 2.703125 -2.90625 C 2.453125 -2.90625 2.273438 -2.910156 2.171875 -2.921875 L 2.171875 -0.78125 C 2.171875 -0.582031 2.1875 -0.4375 2.21875 -0.34375 C 2.25 -0.257812 2.3125 -0.195312 2.40625 -0.15625 C 2.5 -0.125 2.648438 -0.109375 2.859375 -0.109375 C 2.867188 -0.109375 2.875 -0.0859375 2.875 -0.046875 C 2.875 -0.015625 2.867188 0 2.859375 0 C 2.648438 0 2.484375 -0.00390625 2.359375 -0.015625 L 0.921875 -0.015625 C 0.785156 -0.00390625 0.609375 0 0.390625 0 C 0.378906 0 0.375 -0.015625 0.375 -0.046875 C 0.375 -0.0859375 0.378906 -0.109375 0.390625 -0.109375 C 0.597656 -0.109375 0.75 -0.125 0.84375 -0.15625 C 0.9375 -0.195312 1 -0.265625 1.03125 -0.359375 C 1.070312 -0.453125 1.09375 -0.59375 1.09375 -0.78125 L 1.09375 -5.265625 C 1.09375 -5.453125 1.078125 -5.59375 1.046875 -5.6875 C 1.015625 -5.78125 0.945312 -5.84375 0.84375 -5.875 C 0.75 -5.90625 0.601562 -5.921875 0.40625 -5.921875 C 0.394531 -5.921875 0.390625 -5.941406 0.390625 -5.984375 C 0.390625 -6.023438 0.394531 -6.046875 0.40625 -6.046875 L 0.921875 -6.03125 C 1.210938 -6.019531 1.445312 -6.015625 1.625 -6.015625 C 1.84375 -6.015625 2.070312 -6.023438 2.3125 -6.046875 C 2.394531 -6.046875 2.5 -6.050781 2.625 -6.0625 C 2.75 -6.070312 2.890625 -6.078125 3.046875 -6.078125 C 3.628906 -6.078125 4.082031 -5.96875 4.40625 -5.75 C 4.726562 -5.53125 4.890625 -5.226562 4.890625 -4.84375 C 4.890625 -4.488281 4.789062 -4.164062 4.59375 -3.875 C 4.40625 -3.59375 4.148438 -3.363281 3.828125 -3.1875 C 4.347656 -2.414062 4.78125 -1.8125 5.125 -1.375 C 5.46875 -0.9375 5.773438 -0.613281 6.046875 -0.40625 C 6.316406 -0.207031 6.582031 -0.109375 6.84375 -0.109375 Z M 2.171875 -3.1875 C 2.328125 -3.164062 2.515625 -3.15625 2.734375 -3.15625 C 3.109375 -3.15625 3.378906 -3.257812 3.546875 -3.46875 C 3.710938 -3.675781 3.796875 -4.015625 3.796875 -4.484375 C 3.796875 -5.003906 3.71875 -5.363281 3.5625 -5.5625 C 3.40625 -5.769531 3.179688 -5.875 2.890625 -5.875 C 2.628906 -5.875 2.441406 -5.820312 2.328125 -5.71875 C 2.222656 -5.625 2.171875 -5.460938 2.171875 -5.234375 Z M 2.171875 -3.1875 "/></g></g></g></svg>