<?xml version="1.0" encoding="UTF-8" standalone="no"?>
<!-- Created with Inkscape (http://www.inkscape.org/) -->

<svg
   xmlns:dc="http://purl.org/dc/elements/1.1/"
   xmlns:cc="http://creativecommons.org/ns#"
   xmlns:rdf="http://www.w3.org/1999/02/22-rdf-syntax-ns#"
   xmlns:svg="http://www.w3.org/2000/svg"
   xmlns="http://www.w3.org/2000/svg"
   xmlns:sodipodi="http://sodipodi.sourceforge.net/DTD/sodipodi-0.dtd"
   xmlns:inkscape="http://www.inkscape.org/namespaces/inkscape"
   width="696.77588mm"
   height="222.61133mm"
   viewBox="0 0 696.77588 222.61134"
   version="1.1"
   id="svg4691"
   inkscape:version="0.92.3 (2405546, 2018-03-11)"
   sodipodi:docname="bci-logo.svg">
  <defs
     id="defs4685" />
  <sodipodi:namedview
     id="base"
     pagecolor="#ffffff"
     bordercolor="#666666"
     borderopacity="1.0"
     inkscape:pageopacity="0.0"
     inkscape:pageshadow="2"
     inkscape:zoom="0.35"
     inkscape:cx="542.19662"
     inkscape:cy="429.93767"
     inkscape:document-units="mm"
     inkscape:current-layer="layer1"
     showgrid="false"
     scale-x="1"
     fit-margin-top="0"
     fit-margin-left="0"
     fit-margin-right="0"
     fit-margin-bottom="0"
     inkscape:window-width="1920"
     inkscape:window-height="1017"
     inkscape:window-x="-8"
     inkscape:window-y="-8"
     inkscape:window-maximized="1" />
  <metadata
     id="metadata4688">
    <rdf:RDF>
      <cc:Work
         rdf:about="">
        <dc:format>image/svg+xml</dc:format>
        <dc:type
           rdf:resource="http://purl.org/dc/dcmitype/StillImage" />
        <dc:title></dc:title>
      </cc:Work>
    </rdf:RDF>
  </metadata>
  <g
     inkscape:label="Laag 1"
     inkscape:groupmode="layer"
     id="layer1"
     transform="translate(247.02167,-39.976341)">
    <path
       style="fill:#8cc53e;stroke-width:0.26458332"
       d="m -26.760702,262.44102 c -23.577462,-1.71783 -40.3648,-10.46659 -51.44668,-26.81154 -6.90172,-10.17953 -10.34339,-24.41857 -11.78236,-48.74661 -1.07967,-18.2534 -0.93974,-57.95813 0.26517,-75.24239 1.48856,-21.353199 4.95098,-34.785219 11.49211,-44.582289 6.794955,-10.17723 15.724516,-17.31541 27.394678,-21.898982 8.133923,-3.194677 17.280924,-4.855556 28.310416,-5.140501 23.3176281,-0.602407 41.399935,5.222749 53.565609,17.255983 12.749741,12.61093 19.429835,32.17008 19.561782,57.276199 l 0.0299,5.68855 H 27.082006 3.5340891 l -0.827275,-0.59011 c -1.524286,-1.08728 -1.756892,-2.01374 -1.977567,-7.87656 -0.675884,-17.956599 -4.488479,-26.540689 -13.0701571,-29.427579 -1.957711,-0.65858 -2.444515,-0.7121 -6.482292,-0.71265 -4.001172,-5.3e-4 -4.536673,0.0568 -6.414542,0.68756 -1.126906,0.37849 -2.643495,1.0697 -3.370196,1.53602 -4.91131,3.15158 -7.834075,10.27891 -9.115269,22.228109 -0.828778,7.72969 -0.988811,13.06301 -1.127376,37.57083 -0.242557,42.90181 0.498147,55.80447 3.763824,65.56381 1.252046,3.74168 2.313594,5.65347 4.325663,7.79026 3.112161,3.30508 7.083022,4.62261 13.128521,4.35604 5.08313,-0.22413 7.9566691,-1.24723 10.7395851,-3.82372 3.837715,-3.55304 5.989246,-10.0039 6.844342,-20.52112 0.151496,-1.86332 0.275448,-7.58427 0.275448,-12.71323 0,-6.90029 0.08256,-9.40794 0.3175,-9.64288 0.242279,-0.24227 5.899546,-0.31612 23.8786449,-0.31169 22.771496,0.006 23.599165,0.0231 24.695572,0.52069 1.824064,0.82787 1.908281,1.23944 1.908281,9.32525 0,22.8013 -3.570711,39.10243 -11.303582,51.60354 -9.588737,15.50137 -24.909879,24.04543 -47.3016249,26.37847 -3.7444361,0.39013 -15.2573211,0.54651 -19.1822911,0.26054 z m -220.089688,-3.91241 c -0.28878,-0.19272 -0.23103,-0.73726 0.31647,-2.98433 0.36834,-1.51173 5.92688,-25.48954 12.35231,-53.28402 10.05072,-43.47641 11.66409,-50.73868 11.55014,-51.99062 -0.0728,-0.80036 -5.5022,-24.7107 -12.06522,-53.134069 -6.56301,-28.42338 -11.93275,-51.9541 -11.93275,-52.290495 0,-0.410621 0.19564,-0.664058 0.59531,-0.771165 1.01616,-0.272321 70.86593,-0.177166 77.7155,0.10587 10.28195,0.424867 16.83899,1.24223 23.1714,2.88841 12.11481,3.14939 22.0806,9.94218 28.47511,19.40895 6.23179,9.22586 8.99801,20.11709 8.60734,33.889059 -0.26696,9.41066 -1.86889,16.22134 -5.54564,23.5774 -2.81218,5.62633 -5.57004,9.27149 -11.35999,15.01489 -5.12429,5.0831 -5.03787,4.82294 -2.13762,6.4354 8.68635,4.82937 14.78637,11.29769 19.12337,20.27795 3.93965,8.15752 5.6453,16.51186 5.63339,27.59259 -0.0112,10.46452 -1.58115,19.17566 -5.03028,27.91231 -3.46527,8.77752 -7.80509,15.44958 -14.21021,21.84684 -9.68289,9.671 -20.08853,13.61061 -40.23873,15.2345 -4.58926,0.36985 -84.49011,0.62409 -85.0199,0.27053 z m 70.30678,-39.83973 c 8.68333,-1.60252 14.27409,-4.86069 17.86464,-10.41113 3.05854,-4.72801 4.63837,-11.63378 4.31228,-18.84978 -0.61243,-13.55228 -7.07841,-20.61982 -20.94966,-22.89869 -2.81117,-0.46184 -12.05871,-1.06724 -12.67716,-0.82992 -0.38985,0.1496 -0.4276,2.52754 -0.4276,26.93283 v 26.76873 l 4.82864,-0.15115 c 2.65576,-0.0831 5.82774,-0.33554 7.04886,-0.56089 z m -1.16188,-92.0863 c 8.51799,-1.43067 13.83519,-4.79213 16.66113,-10.5329 3.53017,-7.1714 3.68422,-17.384849 0.36575,-24.249179 -0.86899,-1.79754 -1.51528,-2.66279 -3.36276,-4.50205 -1.25787,-1.25227 -3.03714,-2.70901 -3.95393,-3.23718 -3.96432,-2.28391 -10.30018,-3.66162 -16.83918,-3.66162 -2.73357,0 -3.29159,0.0682 -3.42603,0.41851 -0.0883,0.23018 -0.1606,10.78559 -0.1606,23.456449 v 23.03794 l 4.16719,-0.16501 c 2.29195,-0.0907 5.23875,-0.34498 6.54843,-0.56496 z M 68.123985,258.47807 c -0.908473,-0.27554 -1.924976,-1.17762 -2.43795,-2.16352 -0.31742,-0.61008 -0.371739,-15.95151 -0.371739,-104.99959 0,-95.221379 0.03694,-104.362979 0.425053,-105.180843 0.233759,-0.492641 0.858837,-1.165479 1.389062,-1.495194 l 0.96401,-0.599484 h 23.065448 c 22.883231,0 23.071241,0.0043 23.796171,0.545515 0.40188,0.300033 0.97616,0.874309 1.2762,1.276168 l 0.54551,0.730649 0.0671,104.582719 0.0671,104.58271 -0.59721,0.88618 c -0.32846,0.48741 -1.01352,1.13075 -1.52234,1.42966 -0.91191,0.5357 -1.24695,0.54414 -23.414723,0.58983 -12.36927,0.0255 -22.832562,-0.0577 -23.251768,-0.1848 z m 84.767395,-0.8334 c 0,-0.17071 6.13172,-23.71532 13.62607,-52.32135 12.55847,-47.93605 13.62604,-52.17792 13.62604,-54.14181 -3e-5,-1.96307 -1.0632,-6.19222 -13.50238,-53.710419 -7.4263,-28.36876 -13.56603,-51.787928 -13.64387,-52.042589 -0.13465,-0.440526 6.0344,-0.463021 126.98057,-0.463021 86.23464,0 128.00338,0.08868 129.86208,0.275696 8.35289,0.840454 16.79043,3.692214 22.93098,7.750294 9.85089,6.51014 15.31853,15.85341 16.70273,28.54223 0.18976,1.73963 0.28027,24.097909 0.28027,69.241129 0,72.36375 0.0609,69.16682 -1.43499,75.29793 -4.4857,18.38503 -16.87928,29.51 -35.2098,31.60571 -3.62352,0.41427 -260.2177,0.38095 -260.2177,-0.0338 z m 259.42395,-2.34094 c 12.98877,-1.44944 22.42502,-7.15283 28.56391,-17.26441 2.39782,-3.94957 4.32115,-9.14236 5.63108,-15.20332 l 0.73001,-3.37782 V 150.9311 c 0,-65.282209 -0.023,-68.663819 -0.48617,-71.414829 -1.415,-8.40495 -4.41233,-14.48639 -9.80795,-19.89988 -6.41649,-6.43771 -15.68505,-10.53627 -26.87984,-11.88624 -2.55352,-0.30792 -23.19306,-0.36824 -128.37345,-0.37517 -68.93189,-0.005 -125.37765,0.081 -125.43501,0.19019 -0.0574,0.10914 5.78101,22.58218 12.97413,49.9401 l 13.07844,49.741659 0.13507,3.3073 0.13507,3.30729 -13.25714,50.59527 c -7.29141,27.82739 -13.2571,50.71716 -13.2571,50.86614 0,0.37274 252.90882,0.37354 256.24895,7.9e-4 z M 305.28965,237.86409 c -2.93706,-0.89341 -4.67799,-3.20717 -5.29198,-7.03319 -0.5737,-3.57499 0.18193,-7.06086 1.95903,-9.03741 1.50196,-1.67055 3.05273,-2.49606 7.93316,-4.22298 5.23385,-1.85198 5.29931,-1.91814 5.40141,-5.45992 0.12391,-4.299 -0.793,-5.49166 -4.36602,-5.67899 -1.77062,-0.0928 -2.22938,-0.0213 -3.24657,0.50611 -1.44203,0.74772 -2.11,1.84025 -2.31002,3.77833 l -0.15132,1.4661 h -2.2502 -2.2502 l 0.1637,-1.65365 c 0.37372,-3.77508 1.52328,-5.68806 4.25177,-7.07545 l 1.82542,-0.92819 3.86312,7.9e-4 c 3.53857,8e-4 3.97013,0.0539 5.13649,0.63224 1.61708,0.80185 2.76376,1.94823 3.46583,3.46499 0.52848,1.14176 0.55822,1.72784 0.68477,13.49672 0.0979,9.10598 0.21767,12.45223 0.46083,12.87693 0.33572,0.58639 1.6905,1.05472 2.17855,0.7531 0.17507,-0.1082 0.27104,0.48378 0.27104,1.67188 0,2.14857 -0.0151,2.16105 -2.60133,2.1596 -1.2844,-8e-4 -1.99531,-0.14184 -2.61353,-0.51879 -0.88977,-0.54252 -1.92889,-2.25232 -1.92889,-3.17385 0,-0.82728 -0.32822,-0.63619 -1.10406,0.64282 -0.8701,1.4344 -2.52132,2.66375 -4.27892,3.18571 -1.39377,0.4139 -4.07559,0.48971 -5.20208,0.14705 z m 6.93767,-4.93418 c 2.50206,-1.75852 3.11822,-3.62183 3.11822,-9.42986 v -4.19647 l -1.16051,0.6801 c -0.63826,0.37406 -2.13461,1.03561 -3.32518,1.47011 -5.10112,1.86168 -6.09764,3.01914 -6.09764,7.0824 0,3.76974 1.50333,5.46166 4.6909,5.27936 1.30964,-0.0749 1.87952,-0.25683 2.77421,-0.88564 z m 84.61131,4.74007 c -3.66252,-1.2814 -5.83096,-4.56565 -6.74809,-10.22037 -0.45572,-2.80982 -0.52604,-10.45414 -0.12221,-13.2831 0.83352,-5.83915 2.66279,-9.21194 5.93222,-10.93774 1.22944,-0.64898 1.58134,-0.70392 4.50853,-0.70392 2.76902,0 3.35137,0.0797 4.55448,0.62377 1.71125,0.77379 3.60919,2.76084 4.44741,4.65623 1.10406,2.49644 2.01435,9.25268 1.56755,11.63432 l -0.17587,0.93749 -8.1072,0.0699 -8.1072,0.0699 0.0447,2.74476 c 0.0979,6.0096 1.38346,9.40528 3.98172,10.517 2.02491,0.86639 4.76012,0.0904 5.97683,-1.69554 0.84849,-1.2455 1.50614,-3.48634 1.50614,-5.13195 v -1.27489 h 2.42007 2.42009 l -0.17249,2.05052 c -0.44016,5.23237 -2.8962,8.80886 -6.85699,9.98508 -1.7599,0.52264 -5.52032,0.50056 -7.06967,-0.0415 z m 9.25899,-22.72363 c 0,-3.78895 -1.38258,-7.2571 -3.24546,-8.14109 -1.13318,-0.53774 -3.33317,-0.57663 -4.52188,-0.0799 -1.12525,0.47015 -2.44063,2.07624 -2.94543,3.59636 -0.4623,1.39223 -1.01917,5.4769 -0.81809,6.00091 0.10933,0.28493 1.29329,0.35748 5.83401,0.35748 h 5.69685 z m -133.17664,22.51444 c -1.17615,-0.41936 -2.15463,-1.2619 -2.77818,-2.39219 -0.38833,-0.70391 -0.44688,-2.32849 -0.51736,-14.35365 l -0.0795,-13.55989 h -2.23565 -2.23562 v -1.98438 -1.98437 h 2.24896 2.24896 v -4.49792 -4.49792 h 2.38125 2.38125 v 4.49792 4.49792 h 2.77812 2.77812 v 1.98437 1.98438 h -2.78794 -2.78794 l 0.076,12.56057 0.076,12.56058 0.60094,0.60074 c 0.50282,0.50262 0.94576,0.61639 2.71198,0.6966 l 2.11103,0.0959 v 2.08865 2.08865 l -2.97656,-0.0116 c -1.82097,-0.007 -3.3715,-0.15243 -3.99383,-0.37433 z m 61.38333,0 c -1.06651,-0.38026 -2.1273,-1.23354 -2.64504,-2.12761 -0.21659,-0.37403 -0.34523,-4.56285 -0.43873,-14.2875 l -0.13229,-13.75833 -2.31511,-0.0764 -2.3151,-0.0764 v -1.97407 -1.97407 h 2.38125 2.38125 v -4.49792 -4.49792 h 2.24896 2.24896 v 4.49792 4.49792 h 2.77812 2.77813 v 1.97512 1.97511 l -2.71198,0.0754 -2.71198,0.0754 -0.0787,11.1125 c -0.0433,6.11187 -0.005,11.73449 0.0843,12.4947 0.25696,2.17909 0.72509,2.56174 3.2757,2.67757 l 2.1426,0.0973 v 2.08865 2.08865 l -2.97657,-0.0116 c -1.82096,-0.007 -3.3715,-0.15243 -3.99383,-0.37433 z m -126.3796,-22.8974 v -22.75417 h 2.64583 2.64584 v 22.75417 22.75416 h -2.64584 -2.64583 z m 15.34583,5.68854 v -17.06562 h 2.23782 2.23785 l 0.0773,2.01619 0.0773,2.01619 0.85365,-1.19085 c 1.01563,-1.41681 2.90127,-2.68586 4.63429,-3.11892 0.72281,-0.18062 2.35815,-0.26918 3.8582,-0.20893 3.1173,0.12521 4.76925,0.81815 5.92455,2.48515 1.46447,2.11309 1.53035,2.895 1.53035,18.16509 v 13.96732 h -2.37217 -2.3722 l -0.0752,-13.69218 c -0.0722,-13.14359 -0.0964,-13.72818 -0.60439,-14.59057 -0.83256,-1.41348 -1.7709,-1.96283 -3.57565,-2.09337 -0.87911,-0.0636 -2.12588,0.0321 -2.77061,0.21258 -1.4478,0.40536 -3.13828,1.81742 -3.91547,3.27062 -0.57893,1.08248 -0.58711,1.25574 -0.66188,13.99449 l -0.0757,12.89843 h -2.50399 -2.50399 z m 30.95625,0 v -17.06562 h 2.51354 2.51355 v 17.06562 17.06562 h -2.51355 -2.51354 z m 32.01458,0 v -17.06562 h 2.51355 2.51354 v 17.06562 17.06562 h -2.51354 -2.51355 z m 61.38334,0 v -17.06562 h 2.51354 2.51354 v 17.06562 17.06562 h -2.51354 -2.51354 z m 21.05884,16.6026 c -0.0789,-0.25466 -2.11423,-7.72583 -4.52294,-16.6026 -2.40869,-8.87677 -4.44378,-16.34794 -4.52239,-16.6026 -0.12954,-0.4197 0.10538,-0.46302 2.51055,-0.46302 h 2.65345 l 0.2621,0.99218 c 0.14414,0.54571 1.52366,6.05235 3.06559,12.23698 1.54194,6.18464 2.93143,11.72104 3.08777,12.30313 0.27162,1.01125 0.43879,0.46982 3.75761,-12.17084 l 3.47337,-13.22916 2.4474,-0.0761 c 1.92945,-0.06 2.4474,5.3e-4 2.4474,0.28533 0,0.19878 -2.0836,7.82842 -4.63021,16.95477 -2.54662,9.12634 -4.63021,16.64771 -4.63021,16.71414 0,0.0664 -1.18261,0.12079 -2.628,0.12079 -2.27182,0 -2.64745,-0.0627 -2.77149,-0.46302 z m -114.45676,-42.0026 v -3.04271 h 2.51354 2.51355 v 3.04271 3.04271 h -2.51355 -2.51354 z m 32.01458,0 v -3.04271 h 2.51355 2.51354 v 3.04271 3.04271 h -2.51354 -2.51355 z m 61.38334,0 v -3.04271 h 2.51354 2.51354 v 3.04271 3.04271 h -2.51354 -2.51354 z M 218.44695,173.53086 c -4.39597,-0.64412 -7.66691,-3.76088 -9.48391,-9.0369 -1.36771,-3.97146 -1.68151,-6.69098 -1.68714,-14.62119 -0.005,-7.29331 0.17468,-9.30392 1.18615,-13.26033 1.16441,-4.5547 4.07866,-8.41564 7.243,-9.59591 4.43505,-1.65423 10.27046,-1.12413 13.7152,1.24592 2.94172,2.02395 4.96279,6.45622 4.96279,10.88354 v 1.33407 h -2.51354 -2.51354 l -0.003,-1.12448 c -0.003,-0.61846 -0.16216,-1.71979 -0.35652,-2.4474 -1.09937,-4.11564 -3.78423,-6.30905 -7.71012,-6.29884 -4.81163,0.0125 -7.21429,3.17391 -8.36776,11.01029 -0.48493,3.29442 -0.40712,14.01769 0.12454,17.16347 1.18522,7.01289 3.68726,10.00737 8.36165,10.00737 4.15681,0 6.8448,-2.66974 7.82008,-7.76705 0.21772,-1.13799 0.39587,-2.77298 0.39587,-3.6333 v -1.56423 h 2.5533 2.55331 l -0.1701,2.59591 c -0.58063,8.85964 -4.61743,14.22763 -11.37181,15.12178 -2.30286,0.30485 -2.57591,0.30412 -4.7383,-0.0127 z m 33.66318,-0.34579 c -5.9376,-1.32017 -8.73125,-6.91677 -8.73125,-17.49147 0,-7.17674 1.3917,-12.27942 4.11268,-15.07909 2.26684,-2.33241 5.95114,-3.38322 9.83618,-2.8054 3.92898,0.58437 6.30335,2.29098 7.98454,5.73896 2.83559,5.81565 2.76926,18.77601 -0.12534,24.48822 -2.2493,4.43881 -7.30937,6.43113 -13.07681,5.14878 z m 6.13624,-4.42692 c 2.93309,-1.47714 4.10554,-5.95158 3.83908,-14.65118 -0.20058,-6.54953 -0.89498,-9.12908 -2.94106,-10.92555 -1.46918,-1.28997 -3.4335,-1.67248 -5.57906,-1.0864 -2.37982,0.65006 -3.69879,2.46142 -4.51895,6.20588 -0.63558,2.9018 -0.64727,11.79833 -0.0193,14.66249 0.55433,2.52832 1.56779,4.59578 2.62014,5.34512 1.81248,1.29059 4.55785,1.47765 6.59913,0.44964 z m 60.55196,4.50601 c -4.0894,-0.80173 -6.89031,-4.03203 -8.12316,-9.36848 -0.40643,-1.75924 -0.48625,-3.18895 -0.47265,-8.46666 0.0177,-6.91571 0.30808,-8.79016 1.85158,-11.9571 2.10746,-4.32403 6.58865,-6.46 11.89659,-5.67054 5.49431,0.81717 8.42439,4.33869 9.55627,11.48524 0.59653,3.76628 0.37735,11.82219 -0.40642,14.93906 -1.33829,5.32189 -4.03625,8.2406 -8.35539,9.03904 -1.79768,0.33232 -4.25008,0.33209 -5.94682,-5.3e-4 z m 5.45565,-4.23586 c 1.35848,-0.42899 2.88179,-2.31229 3.50663,-4.33527 1.60335,-5.19109 1.24312,-15.99668 -0.65839,-19.74916 -2.13026,-4.20386 -8.29262,-4.16285 -10.45186,0.0696 -1.16131,2.27637 -1.42314,4.24125 -1.42314,10.68017 0,6.31542 0.26559,8.40426 1.33853,10.52766 1.42568,2.82155 4.30884,3.87422 7.68823,2.80704 z m -43.74356,3.88044 c -1.61306,-0.50448 -2.6198,-1.32632 -3.1025,-2.53271 -0.37317,-0.93264 -0.42696,-2.74995 -0.42696,-14.4232 v -13.3561 h -2.38125 -2.38125 v -1.98438 -1.98437 h 2.38125 2.38125 v -4.49792 -4.49792 h 2.24255 2.24256 l 0.0726,4.43177 0.0725,4.43177 2.71198,0.0754 2.71197,0.0754 v 1.97512 1.97512 h -2.77812 -2.77813 l 0.0159,11.31093 c 0.009,6.22102 0.11023,11.88543 0.22566,12.58758 0.31237,1.90013 0.90289,2.34627 3.31007,2.50075 l 2.00475,0.12866 v 2.08187 2.08187 l -2.71198,-0.0177 c -1.49159,-0.01 -3.2073,-0.17261 -3.81272,-0.36195 z m 17.72722,0.12628 c -1.28101,-0.30523 -2.53895,-1.13723 -3.19797,-2.11517 l -0.59621,-0.88471 v -13.71921 -13.7192 h -2.38125 -2.38125 v -1.97408 -1.97407 l 2.3151,-0.0765 2.31511,-0.0764 0.0725,-4.43177 0.0726,-4.43177 h 2.24256 2.24255 v 4.49792 4.49792 h 2.77813 2.77812 v 1.98437 1.98438 h -2.77812 -2.77813 l 0.0148,11.97239 c 0.0106,8.54686 0.10531,12.23736 0.33073,12.89844 0.3796,1.11313 1.40483,1.55014 3.68924,1.57256 l 1.52146,0.0149 v 2.11666 2.11667 l -2.71197,-0.0271 c -1.49159,-0.0149 -3.0882,-0.11673 -3.54801,-0.22629 z m 44.35998,-17.47371 v -16.93333 h 2.24896 2.24896 v 1.85208 c 0,1.05833 0.1134,1.85208 0.26458,1.85208 0.14552,0 0.26459,-0.12172 0.26459,-0.27049 0,-0.65542 2.22699,-2.61805 3.77097,-3.32332 1.48143,-0.67669 1.9413,-0.7553 4.43111,-0.75743 2.4407,-0.002 2.95831,0.0814 4.26164,0.68726 1.6206,0.75336 2.60845,1.84394 3.33537,3.68215 0.41796,1.05692 0.47185,2.59996 0.54694,15.65839 l 0.0833,14.48594 h -2.39384 -2.39385 v -12.97971 c 0,-8.53067 -0.0993,-13.37428 -0.28985,-14.13083 -0.15941,-0.63311 -0.64307,-1.51239 -1.07476,-1.95395 -1.88013,-1.92303 -6.07312,-1.6117 -8.3012,0.61637 -2.06391,2.06391 -2.06653,2.08326 -2.17858,16.07885 l -0.099,12.36927 h -2.36265 -2.36268 z m -91.74538,-46.85926 c -6.59923,-0.81653 -9.51642,-7.76684 -8.76689,-20.887379 0.44398,-7.77158 2.35392,-12.00845 6.28317,-13.93805 1.35633,-0.66608 1.75842,-0.73302 4.40306,-0.73302 2.65129,0 3.05793,0.0681 4.56719,0.76514 1.84369,0.85147 3.15894,2.14616 4.13303,4.06842 1.17554,2.31981 1.52228,4.15388 1.67481,8.85863 l 0.1437,4.43177 h -8.23593 -8.23592 v 1.79288 c 0,4.05408 0.90739,8.233419 2.12635,9.793829 2.0832,2.66674 6.2116,2.53623 8.05857,-0.25476 0.76163,-1.15091 1.45675,-3.554649 1.45675,-5.037539 v -1.00274 h 2.41543 2.41543 l -0.18597,1.88732 c -0.73306,7.439419 -5.14787,11.134599 -12.25278,10.255499 z m 7.54573,-23.586049 c -0.26119,-4.16952 -1.51857,-6.92416 -3.54758,-7.77193 -1.95096,-0.81517 -4.61706,-0.1637 -5.98546,1.46254 -0.92122,1.0948 -1.68994,3.62171 -1.9264,6.33233 l -0.18841,2.15987 h 5.89229 5.8923 z m 56.31305,23.570679 c -0.85834,-0.11658 -2.06711,-0.45717 -2.68616,-0.75686 -1.32553,-0.64167 -3.28456,-2.65267 -4.05469,-4.1622 -1.51193,-2.96364 -2.32597,-8.739409 -2.06009,-14.616719 0.39632,-8.76135 2.13611,-13.054 6.11235,-15.08125 1.75336,-0.89395 1.91809,-0.926 4.75252,-0.9248 2.61176,10e-4 3.09954,0.0777 4.41431,0.69315 1.87219,0.87641 3.20355,2.20575 4.21418,4.2078 1.19105,2.35944 1.59705,4.43811 1.76858,9.05457 l 0.15483,4.16719 h -8.27714 -8.27712 l 0.14846,3.50573 c 0.26992,6.373559 1.9005,9.563599 5.07111,9.920969 3.61674,0.40766 5.85766,-1.87879 6.3818,-6.511419 l 0.18367,-1.62361 h 2.30825 2.30823 l -0.11131,1.38906 c -0.31041,3.873379 -1.3929,6.538029 -3.42371,8.427919 -2.14109,1.99248 -5.28301,2.80557 -8.92807,2.31047 z m 7.5679,-23.636829 c -0.19251,-5.21973 -2.12656,-8.06979 -5.47613,-8.06979 -3.46472,0 -5.56708,2.90273 -5.89368,8.13739 l -0.13673,2.19189 5.79231,-0.0714 5.79231,-0.0714 z m -44.80623,23.425839 c -2.66698,-0.48367 -3.93994,-1.55527 -4.44376,-3.74082 -0.16134,-0.69985 -0.27096,-6.308739 -0.27485,-14.062619 l -0.006,-12.89844 h -2.38125 -2.38125 v -1.85208 -1.85208 h 2.38125 2.38125 v -4.63021 -4.63021 h 2.375 2.37501 l 0.0724,4.56406 0.0724,4.56406 2.71198,0.0754 2.71197,0.0754 v 1.83358 1.83357 l -2.71197,0.0754 -2.71198,0.0754 -0.0688,12.08048 c -0.0416,7.30399 0.0322,12.346119 0.18662,12.752309 0.41259,1.08516 1.35157,1.51616 3.42831,1.57363 l 1.87579,0.0519 v 2.05052 c 0,1.97704 -0.0212,2.05052 -0.62161,2.05052 -0.34245,0 -1.32472,0.0524 -2.18282,0.11646 -0.85809,0.0641 -2.1128,0.0162 -2.78823,-0.10625 z m 17.20969,-0.0136 c -2.18467,-0.36954 -3.32576,-1.20443 -4.0653,-2.97435 -0.34801,-0.83292 -0.40696,-2.91078 -0.40696,-14.343969 v -13.36996 h -2.38125 -2.38125 v -1.85208 -1.85208 h 2.38125 2.38125 v -4.63021 -4.63021 h 2.38125 2.38125 v 4.63021 4.63021 h 2.77813 2.77812 v 1.85208 1.85208 h -2.77812 -2.77813 v 12.29068 c 0,8.57111 0.0905,12.489209 0.2989,12.946699 0.40207,0.88239 1.52268,1.30069 3.56151,1.32939 l 1.69452,0.0239 v 2.01226 2.01226 l -1.78594,0.16867 c -2.05136,0.19374 -2.39868,0.18557 -4.06056,-0.0955 z M 207.92471,85.182151 v -22.75417 l 6.81302,0.005 c 3.74716,0.003 7.60743,0.12015 8.57835,0.26059 5.44197,0.78716 8.12482,3.51902 8.65454,8.81263 0.30692,3.0669 -0.0478,6.17227 -0.91405,8.0035 -0.76068,1.60791 -2.60355,3.3759 -3.99897,3.83643 l -0.93085,0.3072 1.48756,0.60459 c 3.91343,1.59054 5.62171,4.30762 5.90476,9.39169 0.42164,7.573559 -2.87014,12.573139 -9.15551,13.905389 -1.2624,0.26758 -3.81367,0.37317 -9.09666,0.37648 l -7.34219,0.005 z m 16.43248,17.426859 c 2.61151,-1.22202 3.7066,-3.335439 3.75171,-7.240409 0.0508,-4.39984 -1.06177,-6.94848 -3.56878,-8.17504 -1.88219,-0.92088 -3.83217,-1.21428 -8.0826,-1.21613 l -3.50573,-10e-4 v 8.75603 8.756029 l 4.96094,-0.0924 c 4.70106,-0.0875 5.03865,-0.12875 6.44446,-0.78657 z m -0.67612,-21.798149 c 1.3375,-0.68429 1.67053,-1.0106 2.31246,-2.26581 1.32807,-2.59685 1.2465,-7.18697 -0.16497,-9.28143 -1.35652,-2.01295 -2.99222,-2.52168 -8.93498,-2.7789 l -3.94179,-0.17061 v 7.74041 7.7404 l 4.58338,-0.0923 c 4.49472,-0.0905 4.61365,-0.10779 6.1459,-0.89174 z m 112.30197,10.19212 v -16.93333 h 2.24896 2.24896 l 0.003,2.44739 0.003,2.4474 0.67593,-1.19063 c 1.74413,-3.07226 4.05511,-4.49121 7.32134,-4.49533 l 2.05052,-0.003 v 2.48307 2.48308 l -1.68352,-0.13514 c -3.38466,-0.27169 -6.05922,1.39861 -7.34393,4.58634 -0.62604,1.55341 -0.63032,1.63446 -0.70864,13.40296 l -0.0788,11.840109 h -2.36857 -2.36861 V 91.002521 Z"
       id="path4704"
       inkscape:connector-curvature="0" />
  </g>
</svg>
