<svg id="Layer_1" data-name="Layer 1" xmlns="http://www.w3.org/2000/svg" viewBox="0 0 123.43 123.43"><path d="M56.24,111.06a51.22,51.22,0,0,1-8.69-.73,31.91,31.91,0,0,1-8.18-2.57,2.69,2.69,0,0,1-1.64-1.43,13.55,13.55,0,0,1-.25-3.32q0-4.79.25-8.31c.17-2.35.29-4,.38-5,.08-1.34.42-2,1-2S40,88.11,40,89c0,.59,0,1.28.06,2.08a19.61,19.61,0,0,0,.31,2.58,16,16,0,0,0,2.52,6,14,14,0,0,0,4.34,4,19.88,19.88,0,0,0,5.61,2.2,27.59,27.59,0,0,0,6.17.69A19.34,19.34,0,0,0,66.94,105a17.24,17.24,0,0,0,5.6-3.85,15.65,15.65,0,0,0,3.33-5.35A17.1,17.1,0,0,0,77,89.76a21.94,21.94,0,0,0-.76-6,18.87,18.87,0,0,0-2.45-5.3,33.09,33.09,0,0,0-4.47-5.29q-2.77-2.72-6.8-6.12l-5.66-4.66a76.23,76.23,0,0,1-8.19-7.69,37.64,37.64,0,0,1-5-6.87,24.69,24.69,0,0,1-2.52-6.43,29.12,29.12,0,0,1-.69-6.37,22.75,22.75,0,0,1,1.82-9.2,20.66,20.66,0,0,1,5.23-7.19A23.76,23.76,0,0,1,55.73,14a33.39,33.39,0,0,1,10.83-1.64,59.18,59.18,0,0,1,6.48.32,36.49,36.49,0,0,1,5.23.94c1.17.25,2.07.42,2.7.5a12.11,12.11,0,0,0,1.7.13c.84,0,1.26.3,1.26.88,0,.34-.08,1.57-.25,3.71s-.25,5.36-.25,9.64c0,1.93-.3,2.89-.88,2.89-.42,0-.68-.14-.76-.44a11.24,11.24,0,0,1-.25-1.19A32.63,32.63,0,0,0,81,26.52a9.82,9.82,0,0,0-1.07-3.08,12.35,12.35,0,0,0-1.13-1.64,10.26,10.26,0,0,0-2.71-2.26,18.14,18.14,0,0,0-4.72-1.95,26.58,26.58,0,0,0-7.17-.82,16.32,16.32,0,0,0-11,3.84q-4.47,3.84-4.47,10.76a17.4,17.4,0,0,0,.69,5,15.35,15.35,0,0,0,2.46,4.73,39.14,39.14,0,0,0,4.72,5.16q3,2.76,7.49,6.29l3.53,2.77a89.64,89.64,0,0,1,9.12,8.19,42.26,42.26,0,0,1,5.67,7.23,23.05,23.05,0,0,1,2.83,6.93A34.11,34.11,0,0,1,86,84.88a28.56,28.56,0,0,1-.44,4.53A25.85,25.85,0,0,1,83.87,95a27.79,27.79,0,0,1-3.27,5.73,22.34,22.34,0,0,1-5.35,5.1,25.63,25.63,0,0,1-8.94,4.09A42.81,42.81,0,0,1,56.24,111.06Z" style="fill:#fed700"/></svg>