<svg xmlns="http://www.w3.org/2000/svg" xmlns:xlink="http://www.w3.org/1999/xlink" width="1640" zoomAndPan="magnify" viewBox="0 0 1230 693.000001" height="924" preserveAspectRatio="xMidYMid meet" version="1.0"><defs><g/><clipPath id="1c43f8ea2a"><path d="M 0.886719 0 L 1229.113281 0 L 1229.113281 692 L 0.886719 692 Z M 0.886719 0 " clip-rule="nonzero"/></clipPath><clipPath id="3036979d92"><path d="M 438 377 L 866 377 L 866 692 L 438 692 Z M 438 377 " clip-rule="nonzero"/></clipPath><clipPath id="df8bed93d0"><path d="M 106 40.394531 L 174 40.394531 L 174 169.960938 L 106 169.960938 Z M 106 40.394531 " clip-rule="nonzero"/></clipPath></defs><g clip-path="url(#1c43f8ea2a)"><path fill="#ffffff" d="M 0.886719 0 L 1229.113281 0 L 1229.113281 699.492188 L 0.886719 699.492188 Z M 0.886719 0 " fill-opacity="1" fill-rule="nonzero"/><path fill="#ffffff" d="M 0.886719 0 L 1229.113281 0 L 1229.113281 692 L 0.886719 692 Z M 0.886719 0 " fill-opacity="1" fill-rule="nonzero"/><path fill="#000000" d="M 0.886719 0 L 1229.113281 0 L 1229.113281 692 L 0.886719 692 Z M 0.886719 0 " fill-opacity="1" fill-rule="nonzero"/></g><path fill="#ffde59" d="M 681.957031 542.554688 L 699.890625 526.34375 L 722.320312 492.15625 L 731.632812 463.386719 L 748.773438 456.238281 L 757.167969 473.753906 L 730.203125 515.238281 L 688.71875 547.382812 L 681.957031 542.554688 " fill-opacity="1" fill-rule="nonzero"/><path fill="#5ce1e6" d="M 695.460938 539.511719 L 712.839844 520.929688 L 739.015625 482.429688 L 752.394531 446.507812 L 783.289062 432.808594 L 795.546875 456.238281 L 745.511719 525.09375 L 699.085938 547.382812 L 695.460938 539.511719 " fill-opacity="1" fill-rule="nonzero"/><path fill="#38b6ff" d="M 707.148438 535.863281 L 740.265625 510.171875 L 769.398438 464.566406 L 787.800781 422.496094 L 821.472656 411.609375 L 826.648438 448.867188 L 761.320312 542.554688 L 707.148438 535.863281 " fill-opacity="1" fill-rule="nonzero"/><g clip-path="url(#3036979d92)"><path fill="#ff43b7" d="M 438.710938 693.894531 L 518.835938 619.667969 L 525.789062 532.128906 L 578.777344 463.664062 L 634.351562 397.722656 L 659.488281 408.699219 L 644.109375 477.765625 L 611.449219 518.207031 L 627.09375 556.085938 L 720.179688 533.101562 L 776.183594 495.226562 L 807.078125 443.066406 L 837.03125 377.59375 L 865.359375 391.585938 L 843.875 481.527344 L 798.738281 557.554688 L 740.585938 618.265625 L 652.074219 675.324219 L 609.507812 693.617188 L 556.917969 773.367188 L 438.710938 773.367188 L 438.710938 693.894531 " fill-opacity="1" fill-rule="nonzero"/></g><path fill="#ffde59" d="M 890.78125 149.4375 L 872.851562 165.648438 L 850.421875 199.832031 L 841.109375 228.605469 L 823.96875 235.753906 L 815.570312 218.238281 L 842.539062 176.75 L 884.023438 144.605469 L 890.78125 149.4375 " fill-opacity="1" fill-rule="nonzero"/><path fill="#ff66c4" d="M 877.277344 152.476562 L 859.902344 171.0625 L 833.722656 209.5625 L 820.34375 245.480469 L 789.449219 259.179688 L 777.195312 235.753906 L 827.230469 166.898438 L 873.65625 144.605469 L 877.277344 152.476562 " fill-opacity="1" fill-rule="nonzero"/><path fill="#e50ac2" d="M 865.589844 156.128906 L 832.476562 181.816406 L 803.34375 227.425781 L 784.9375 269.492188 L 751.265625 280.382812 L 746.089844 243.121094 L 811.421875 149.4375 L 865.589844 156.128906 " fill-opacity="1" fill-rule="nonzero"/><path fill="#38b6ff" d="M 1134.027344 -1.902344 L 1053.90625 72.324219 L 1046.953125 159.859375 L 993.960938 228.328125 L 938.386719 294.265625 L 913.253906 283.292969 L 928.632812 214.226562 L 961.289062 173.78125 L 945.648438 135.90625 L 852.558594 158.890625 L 796.554688 196.765625 L 765.660156 248.925781 L 735.707031 314.398438 L 707.382812 300.402344 L 728.867188 210.464844 L 774 134.433594 L 832.15625 73.726562 L 920.664062 16.667969 L 963.230469 -1.625 L 1015.820312 -81.375 L 1134.027344 -81.375 L 1134.027344 -1.902344 " fill-opacity="1" fill-rule="nonzero"/><path stroke-linecap="butt" transform="matrix(-0.00000000000000012, -0.748467, 0.748919, -0.00000000000000012, 140.54911, 460.667697)" fill="none" stroke-linejoin="miter" d="M -0.000362686 0.998459 L 388.246238 0.998459 " stroke="#ffffff" stroke-width="2" stroke-opacity="1" stroke-miterlimit="4"/><g clip-path="url(#df8bed93d0)"><path fill="#ffffff" d="M 166.183594 80.792969 C 161.28125 92.332031 156.652344 103.226562 161.304688 118.414062 C 167.371094 138.210938 168.511719 153.410156 164.992188 167.597656 C 160.921875 168.09375 152.839844 168.425781 143.136719 168.484375 C 142.734375 168.488281 142.402344 168.808594 142.386719 169.210938 L 142.269531 172.097656 C 142.265625 172.230469 142.160156 172.332031 142.027344 172.332031 C 141.609375 172.332031 141.269531 172.671875 141.269531 173.085938 L 141.269531 277.886719 C 141.269531 278.605469 140.679688 279.191406 139.957031 279.191406 C 139.234375 279.191406 138.644531 278.605469 138.644531 277.886719 L 138.644531 173.085938 C 138.644531 172.671875 138.308594 172.332031 137.886719 172.332031 C 137.757812 172.332031 137.648438 172.230469 137.644531 172.097656 L 137.527344 169.210938 C 137.511719 168.808594 137.183594 168.488281 136.777344 168.484375 C 127.074219 168.425781 118.992188 168.09375 114.925781 167.597656 C 111.402344 153.410156 112.542969 138.210938 118.609375 118.414062 C 123.265625 103.226562 118.632812 92.332031 113.730469 80.792969 C 112.402344 77.664062 111.027344 74.433594 109.835938 71.082031 C 107.65625 64.949219 107.113281 61.742188 108.027344 60.351562 C 108.832031 59.128906 111.128906 58.964844 114.308594 58.738281 C 115.957031 58.621094 117.828125 58.488281 119.941406 58.1875 C 131.769531 56.503906 132.59375 46.605469 132.597656 46.503906 C 132.601562 46.484375 132.601562 46.46875 132.601562 46.453125 L 132.601562 42.035156 L 147.3125 42.035156 L 147.3125 46.453125 C 147.3125 46.46875 147.316406 46.484375 147.316406 46.503906 C 147.320312 46.605469 148.144531 56.503906 159.976562 58.1875 C 162.085938 58.488281 163.957031 58.621094 165.605469 58.738281 C 168.785156 58.964844 171.085938 59.128906 171.886719 60.351562 C 172.800781 61.742188 172.261719 64.949219 170.078125 71.082031 C 168.886719 74.433594 167.511719 77.664062 166.183594 80.792969 Z M 173.15625 59.523438 C 171.941406 57.675781 169.328125 57.488281 165.714844 57.234375 C 164.089844 57.117188 162.25 56.984375 160.1875 56.691406 C 149.765625 55.210938 148.882812 47.015625 148.832031 46.421875 L 148.832031 41.28125 C 148.832031 40.863281 148.492188 40.527344 148.070312 40.527344 L 131.84375 40.527344 C 131.421875 40.527344 131.085938 40.863281 131.085938 41.28125 L 131.085938 46.421875 C 131.039062 46.898438 130.101562 55.214844 119.726562 56.691406 C 117.664062 56.984375 115.824219 57.117188 114.199219 57.234375 C 110.585938 57.488281 107.972656 57.675781 106.757812 59.523438 C 105.507812 61.425781 105.957031 64.695312 108.40625 71.585938 C 109.613281 74.976562 110.996094 78.234375 112.335938 81.382812 C 117.128906 92.660156 121.652344 103.308594 117.160156 117.972656 C 110.9375 138.28125 109.832031 153.855469 113.582031 168.46875 C 113.65625 168.765625 113.90625 168.988281 114.210938 169.03125 C 118.054688 169.558594 126.183594 169.914062 136.042969 169.992188 L 136.128906 172.160156 C 136.15625 172.832031 136.554688 173.402344 137.128906 173.671875 L 137.128906 277.886719 C 137.128906 279.4375 138.398438 280.699219 139.957031 280.699219 C 141.515625 280.699219 142.785156 279.4375 142.785156 277.886719 L 142.785156 173.671875 C 143.359375 173.402344 143.761719 172.832031 143.785156 172.160156 L 143.871094 169.992188 C 153.730469 169.914062 161.859375 169.558594 165.703125 169.03125 C 166.007812 168.988281 166.257812 168.765625 166.332031 168.46875 C 170.082031 153.855469 168.976562 138.28125 162.753906 117.972656 C 158.261719 103.308594 162.789062 92.660156 167.578125 81.382812 C 168.917969 78.234375 170.300781 74.976562 171.507812 71.585938 C 173.960938 64.695312 174.40625 61.425781 173.15625 59.523438 " fill-opacity="1" fill-rule="nonzero"/></g><g fill="#ffffff" fill-opacity="1"><g transform="translate(174.083228, 250.08388)"><g><path d="M 20.484375 -40.671875 C 26.242188 -40.671875 30.65625 -39.03125 33.71875 -35.75 C 36.789062 -32.46875 38.328125 -27.757812 38.328125 -21.625 C 38.328125 -14.519531 36.664062 -9.078125 33.34375 -5.296875 C 30.03125 -1.515625 25.265625 0.375 19.046875 0.375 C 17.316406 0.375 15.222656 0.34375 12.765625 0.28125 C 10.304688 0.21875 8.023438 0.125 5.921875 0 L 5.859375 0 L 6.171875 -12.171875 L 5.859375 -40.40625 L 5.921875 -40.40625 Z M 19.859375 -3.84375 C 24.148438 -3.84375 27.4375 -5.238281 29.71875 -8.03125 C 32.007812 -10.832031 33.15625 -15.003906 33.15625 -20.546875 C 33.15625 -31.140625 28.804688 -36.4375 20.109375 -36.4375 C 17.460938 -36.4375 14.414062 -36.351562 10.96875 -36.1875 L 10.71875 -12.609375 L 10.90625 -4.21875 C 12.207031 -4.09375 13.769531 -4 15.59375 -3.9375 C 17.425781 -3.875 18.847656 -3.84375 19.859375 -3.84375 Z M 19.859375 -3.84375 "/></g></g></g><g fill="#ffffff" fill-opacity="1"><g transform="translate(214.809816, 250.08388)"><g><path d="M 22.3125 -16.328125 C 25.09375 -11.742188 28.582031 -6.703125 32.78125 -1.203125 L 32.71875 -0.5625 C 31.207031 0.0195312 29.65625 0.394531 28.0625 0.5625 L 27.359375 0.125 C 23.910156 -5.039062 20.820312 -10.082031 18.09375 -15 L 10.71875 -15 L 10.71875 -12.609375 L 10.96875 0 L 5.859375 0 L 6.171875 -12.171875 L 5.859375 -40.40625 L 18.21875 -40.46875 C 22.164062 -40.46875 25.222656 -39.46875 27.390625 -37.46875 C 29.554688 -35.476562 30.640625 -32.632812 30.640625 -28.9375 C 30.640625 -26.164062 29.914062 -23.675781 28.46875 -21.46875 C 27.019531 -19.257812 24.96875 -17.546875 22.3125 -16.328125 Z M 10.78125 -19.296875 L 18.34375 -19.109375 C 23.050781 -20.453125 25.40625 -23.582031 25.40625 -28.5 C 25.40625 -31.0625 24.710938 -32.984375 23.328125 -34.265625 C 21.941406 -35.546875 19.859375 -36.226562 17.078125 -36.3125 L 10.96875 -36.125 Z M 10.78125 -19.296875 "/></g></g></g><g fill="#ffffff" fill-opacity="1"><g transform="translate(249.799369, 250.08388)"><g><path d="M 28.9375 -3.90625 L 28.5625 0 L 5.859375 0 L 6.171875 -12.171875 L 5.859375 -40.40625 L 28.625 -40.40625 L 28.875 -39.90625 L 28.5 -36 L 18.984375 -36.1875 L 10.96875 -36.0625 L 10.84375 -22.828125 L 18.40625 -22.703125 L 25.09375 -22.890625 L 25.46875 -22.4375 L 25.03125 -18.53125 L 17.96875 -18.65625 L 10.78125 -18.59375 L 10.71875 -12.609375 L 10.90625 -4.21875 L 18.921875 -4.15625 L 28.625 -4.40625 Z M 28.9375 -3.90625 "/></g></g></g><g fill="#ffffff" fill-opacity="1"><g transform="translate(280.186696, 250.08388)"><g><path d="M 35.046875 0 L 29.890625 0 L 28.9375 -4.03125 L 26.671875 -10.96875 L 17.59375 -11.15625 L 9.390625 -10.96875 L 6.9375 -4.28125 L 5.921875 0 L 0.875 0 L 15.703125 -40.40625 L 21.5625 -40.40625 Z M 25.28125 -15.25 L 18.71875 -35.1875 L 18.28125 -35.1875 L 10.96875 -15.25 L 18.03125 -15.125 Z M 25.28125 -15.25 "/></g></g></g><g fill="#ffffff" fill-opacity="1"><g transform="translate(316.626275, 250.08388)"><g><path d="M 45.890625 0 L 41.359375 0 L 40.40625 -12.296875 L 38.265625 -32.40625 L 37.828125 -32.40625 L 26.609375 -4.671875 L 22.4375 -4.671875 L 11.796875 -32.40625 L 11.28125 -32.40625 L 9.140625 -12.671875 L 8.0625 0 L 3.78125 0 L 8 -40.40625 L 13.75 -40.40625 L 15.828125 -34.234375 L 24.59375 -11.21875 L 24.96875 -11.21875 L 34.171875 -34.609375 L 36.25 -40.40625 L 41.921875 -40.40625 Z M 45.890625 0 "/></g></g></g><g fill="#ffffff" fill-opacity="1"><g transform="translate(174.083228, 322.060983)"><g><path d="M 10.71875 -12.609375 L 10.96875 0 L 5.859375 0 L 6.171875 -12.171875 L 5.859375 -40.40625 L 11.03125 -40.40625 Z M 10.71875 -12.609375 "/></g></g></g><g fill="#ffffff" fill-opacity="1"><g transform="translate(190.979084, 322.060983)"><g><path d="M 20.484375 -40.671875 C 26.242188 -40.671875 30.65625 -39.03125 33.71875 -35.75 C 36.789062 -32.46875 38.328125 -27.757812 38.328125 -21.625 C 38.328125 -14.519531 36.664062 -9.078125 33.34375 -5.296875 C 30.03125 -1.515625 25.265625 0.375 19.046875 0.375 C 17.316406 0.375 15.222656 0.34375 12.765625 0.28125 C 10.304688 0.21875 8.023438 0.125 5.921875 0 L 5.859375 0 L 6.171875 -12.171875 L 5.859375 -40.40625 L 5.921875 -40.40625 Z M 19.859375 -3.84375 C 24.148438 -3.84375 27.4375 -5.238281 29.71875 -8.03125 C 32.007812 -10.832031 33.15625 -15.003906 33.15625 -20.546875 C 33.15625 -31.140625 28.804688 -36.4375 20.109375 -36.4375 C 17.460938 -36.4375 14.414062 -36.351562 10.96875 -36.1875 L 10.71875 -12.609375 L 10.90625 -4.21875 C 12.207031 -4.09375 13.769531 -4 15.59375 -3.9375 C 17.425781 -3.875 18.847656 -3.84375 19.859375 -3.84375 Z M 19.859375 -3.84375 "/></g></g></g><g fill="#ffffff" fill-opacity="1"><g transform="translate(231.705672, 322.060983)"><g><path d="M 28.9375 -3.90625 L 28.5625 0 L 5.859375 0 L 6.171875 -12.171875 L 5.859375 -40.40625 L 28.625 -40.40625 L 28.875 -39.90625 L 28.5 -36 L 18.984375 -36.1875 L 10.96875 -36.0625 L 10.84375 -22.828125 L 18.40625 -22.703125 L 25.09375 -22.890625 L 25.46875 -22.4375 L 25.03125 -18.53125 L 17.96875 -18.65625 L 10.78125 -18.59375 L 10.71875 -12.609375 L 10.90625 -4.21875 L 18.921875 -4.15625 L 28.625 -4.40625 Z M 28.9375 -3.90625 "/></g></g></g><g fill="#ffffff" fill-opacity="1"><g transform="translate(262.092999, 322.060983)"><g><path d="M 35.046875 0 L 29.890625 0 L 28.9375 -4.03125 L 26.671875 -10.96875 L 17.59375 -11.15625 L 9.390625 -10.96875 L 6.9375 -4.28125 L 5.921875 0 L 0.875 0 L 15.703125 -40.40625 L 21.5625 -40.40625 Z M 25.28125 -15.25 L 18.71875 -35.1875 L 18.28125 -35.1875 L 10.96875 -15.25 L 18.03125 -15.125 Z M 25.28125 -15.25 "/></g></g></g><g fill="#ffffff" fill-opacity="1"><g transform="translate(298.532579, 322.060983)"><g><path d="M 16.828125 -40.734375 C 19.734375 -40.734375 22.738281 -40.101562 25.84375 -38.84375 L 25.03125 -33.984375 L 24.140625 -33.734375 C 22.921875 -34.648438 21.628906 -35.359375 20.265625 -35.859375 C 18.898438 -36.367188 17.546875 -36.625 16.203125 -36.625 C 14.648438 -36.625 13.296875 -36.304688 12.140625 -35.671875 C 10.984375 -35.046875 10.097656 -34.226562 9.484375 -33.21875 C 8.878906 -32.21875 8.578125 -31.171875 8.578125 -30.078125 C 8.578125 -28.941406 8.921875 -27.941406 9.609375 -27.078125 C 10.304688 -26.210938 11.179688 -25.460938 12.234375 -24.828125 C 13.285156 -24.203125 14.710938 -23.453125 16.515625 -22.578125 C 18.785156 -21.523438 20.613281 -20.546875 22 -19.640625 C 23.382812 -18.734375 24.570312 -17.585938 25.5625 -16.203125 C 26.550781 -14.816406 27.046875 -13.132812 27.046875 -11.15625 C 27.046875 -9.050781 26.476562 -7.117188 25.34375 -5.359375 C 24.207031 -3.597656 22.609375 -2.191406 20.546875 -1.140625 C 18.492188 -0.0859375 16.140625 0.4375 13.484375 0.4375 C 11.722656 0.4375 9.882812 0.195312 7.96875 -0.28125 C 6.0625 -0.769531 4.285156 -1.472656 2.640625 -2.390625 L 3.28125 -7.5625 L 3.96875 -7.875 C 5.4375 -6.445312 7.0625 -5.382812 8.84375 -4.6875 C 10.632812 -4 12.351562 -3.65625 14 -3.65625 C 15.59375 -3.65625 17.007812 -3.96875 18.25 -4.59375 C 19.488281 -5.226562 20.429688 -6.070312 21.078125 -7.125 C 21.734375 -8.175781 22.0625 -9.289062 22.0625 -10.46875 C 22.0625 -12.226562 21.390625 -13.644531 20.046875 -14.71875 C 18.703125 -15.789062 16.664062 -16.957031 13.9375 -18.21875 C 11.707031 -19.3125 9.921875 -20.285156 8.578125 -21.140625 C 7.234375 -22.003906 6.078125 -23.117188 5.109375 -24.484375 C 4.140625 -25.859375 3.65625 -27.53125 3.65625 -29.5 C 3.65625 -31.5625 4.210938 -33.453125 5.328125 -35.171875 C 6.441406 -36.898438 7.992188 -38.257812 9.984375 -39.25 C 11.984375 -40.238281 14.265625 -40.734375 16.828125 -40.734375 Z M 16.828125 -40.734375 "/></g></g></g><g fill="#ffffff" fill-opacity="1"><g transform="translate(174.083228, 394.038085)"><g><path d="M 20.296875 -40.734375 C 24.546875 -40.734375 28.222656 -39.722656 31.328125 -37.703125 L 30.328125 -33.09375 L 29.765625 -32.96875 C 26.941406 -35.320312 23.703125 -36.5 20.046875 -36.5 C 16.054688 -36.5 12.988281 -35.125 10.84375 -32.375 C 8.695312 -29.625 7.625 -25.597656 7.625 -20.296875 C 7.625 -14.960938 8.695312 -10.882812 10.84375 -8.0625 C 12.988281 -5.25 16.015625 -3.84375 19.921875 -3.84375 C 21.773438 -3.84375 23.613281 -4.175781 25.4375 -4.84375 C 27.269531 -5.519531 28.941406 -6.46875 30.453125 -7.6875 L 31.078125 -7.375 L 30.640625 -2.578125 C 26.984375 -0.566406 23.265625 0.4375 19.484375 0.4375 C 14.054688 0.4375 9.847656 -1.316406 6.859375 -4.828125 C 3.878906 -8.335938 2.390625 -13.347656 2.390625 -19.859375 C 2.390625 -26.546875 3.945312 -31.695312 7.0625 -35.3125 C 10.175781 -38.925781 14.585938 -40.734375 20.296875 -40.734375 Z M 20.296875 -40.734375 "/></g></g></g><g fill="#ffffff" fill-opacity="1"><g transform="translate(206.866235, 394.038085)"><g><path d="M 22.3125 -16.328125 C 25.09375 -11.742188 28.582031 -6.703125 32.78125 -1.203125 L 32.71875 -0.5625 C 31.207031 0.0195312 29.65625 0.394531 28.0625 0.5625 L 27.359375 0.125 C 23.910156 -5.039062 20.820312 -10.082031 18.09375 -15 L 10.71875 -15 L 10.71875 -12.609375 L 10.96875 0 L 5.859375 0 L 6.171875 -12.171875 L 5.859375 -40.40625 L 18.21875 -40.46875 C 22.164062 -40.46875 25.222656 -39.46875 27.390625 -37.46875 C 29.554688 -35.476562 30.640625 -32.632812 30.640625 -28.9375 C 30.640625 -26.164062 29.914062 -23.675781 28.46875 -21.46875 C 27.019531 -19.257812 24.96875 -17.546875 22.3125 -16.328125 Z M 10.78125 -19.296875 L 18.34375 -19.109375 C 23.050781 -20.453125 25.40625 -23.582031 25.40625 -28.5 C 25.40625 -31.0625 24.710938 -32.984375 23.328125 -34.265625 C 21.941406 -35.546875 19.859375 -36.226562 17.078125 -36.3125 L 10.96875 -36.125 Z M 10.78125 -19.296875 "/></g></g></g><g fill="#ffffff" fill-opacity="1"><g transform="translate(241.855788, 394.038085)"><g><path d="M 28.9375 -3.90625 L 28.5625 0 L 5.859375 0 L 6.171875 -12.171875 L 5.859375 -40.40625 L 28.625 -40.40625 L 28.875 -39.90625 L 28.5 -36 L 18.984375 -36.1875 L 10.96875 -36.0625 L 10.84375 -22.828125 L 18.40625 -22.703125 L 25.09375 -22.890625 L 25.46875 -22.4375 L 25.03125 -18.53125 L 17.96875 -18.65625 L 10.78125 -18.59375 L 10.71875 -12.609375 L 10.90625 -4.21875 L 18.921875 -4.15625 L 28.625 -4.40625 Z M 28.9375 -3.90625 "/></g></g></g><g fill="#ffffff" fill-opacity="1"><g transform="translate(272.243115, 394.038085)"><g><path d="M 35.046875 0 L 29.890625 0 L 28.9375 -4.03125 L 26.671875 -10.96875 L 17.59375 -11.15625 L 9.390625 -10.96875 L 6.9375 -4.28125 L 5.921875 0 L 0.875 0 L 15.703125 -40.40625 L 21.5625 -40.40625 Z M 25.28125 -15.25 L 18.71875 -35.1875 L 18.28125 -35.1875 L 10.96875 -15.25 L 18.03125 -15.125 Z M 25.28125 -15.25 "/></g></g></g><g fill="#ffffff" fill-opacity="1"><g transform="translate(308.682695, 394.038085)"><g><path d="M 29.5625 -39.90625 L 29.1875 -36 L 22.125 -36.375 L 18.03125 -36.375 L 17.84375 -12.609375 L 18.03125 0 L 12.921875 0 L 13.296875 -12.171875 L 12.984375 -36.375 L 8.890625 -36.375 L 1.703125 -36 L 1.390625 -36.5 L 1.765625 -40.40625 L 29.1875 -40.40625 Z M 29.5625 -39.90625 "/></g></g></g><g fill="#ffffff" fill-opacity="1"><g transform="translate(339.574374, 394.038085)"><g><path d="M 10.71875 -12.609375 L 10.96875 0 L 5.859375 0 L 6.171875 -12.171875 L 5.859375 -40.40625 L 11.03125 -40.40625 Z M 10.71875 -12.609375 "/></g></g></g><g fill="#ffffff" fill-opacity="1"><g transform="translate(356.470241, 394.038085)"><g><path d="M 20.296875 0 L 14.4375 0 L 0.953125 -40.40625 L 6.109375 -40.40625 L 7.0625 -36.3125 L 17.34375 -5.109375 L 17.71875 -5.109375 L 29.0625 -36.0625 L 30.078125 -40.40625 L 35.109375 -40.40625 Z M 20.296875 0 "/></g></g></g><g fill="#ffffff" fill-opacity="1"><g transform="translate(392.027198, 394.038085)"><g><path d="M 10.71875 -12.609375 L 10.96875 0 L 5.859375 0 L 6.171875 -12.171875 L 5.859375 -40.40625 L 11.03125 -40.40625 Z M 10.71875 -12.609375 "/></g></g></g><g fill="#ffffff" fill-opacity="1"><g transform="translate(408.923044, 394.038085)"><g><path d="M 29.5625 -39.90625 L 29.1875 -36 L 22.125 -36.375 L 18.03125 -36.375 L 17.84375 -12.609375 L 18.03125 0 L 12.921875 0 L 13.296875 -12.171875 L 12.984375 -36.375 L 8.890625 -36.375 L 1.703125 -36 L 1.390625 -36.5 L 1.765625 -40.40625 L 29.1875 -40.40625 Z M 29.5625 -39.90625 "/></g></g></g><g fill="#ffffff" fill-opacity="1"><g transform="translate(439.814723, 394.038085)"><g><path d="M 18.40625 -11.796875 L 18.53125 0 L 13.5625 0 L 13.8125 -11.796875 L 13.75 -14.4375 L 0.953125 -40.40625 L 6.375 -40.40625 L 7.1875 -38.140625 L 16.015625 -19.984375 L 16.453125 -19.984375 L 26.171875 -38.015625 L 27.109375 -40.40625 L 32.40625 -40.40625 L 18.46875 -14.625 Z M 18.40625 -11.796875 "/></g></g></g><g fill="#ffffff" fill-opacity="1"><g transform="translate(174.083228, 466.015188)"><g/></g></g><g fill="#ffffff" fill-opacity="1"><g transform="translate(984.304898, 569.322353)"><g><path d="M 3.921875 0 L 3.921875 -18.398438 L 2.027344 -18.398438 L 2.027344 0 Z M 3.921875 0 "/></g></g></g><g fill="#ffffff" fill-opacity="1"><g transform="translate(991.609299, 569.322353)"><g><path d="M 10.253906 0 L 12.148438 0 L 12.148438 -7.441406 C 12.148438 -8.820312 11.769531 -9.929688 11.066406 -10.769531 C 10.6875 -11.199219 10.253906 -11.527344 9.738281 -11.769531 C 9.199219 -12.011719 8.523438 -12.148438 7.683594 -12.148438 C 6.816406 -12.148438 6.085938 -11.902344 5.4375 -11.472656 C 4.816406 -11.066406 4.300781 -10.523438 3.921875 -9.847656 L 3.921875 -11.902344 L 2.027344 -11.902344 L 2.027344 0 L 3.921875 0 L 3.921875 -4.976562 C 3.921875 -6.492188 4.195312 -7.683594 4.761719 -8.578125 C 5.085938 -9.0625 5.492188 -9.46875 6.007812 -9.792969 C 6.492188 -10.089844 7.167969 -10.253906 7.980469 -10.253906 C 8.792969 -10.253906 9.359375 -9.957031 9.710938 -9.414062 C 10.066406 -8.875 10.253906 -8.199219 10.253906 -7.441406 Z M 10.253906 0 "/></g></g></g><g fill="#ffffff" fill-opacity="1"><g transform="translate(1006.731987, 569.322353)"><g/></g></g><g fill="#ffffff" fill-opacity="1"><g transform="translate(1015.389036, 569.322353)"><g><path d="M 11.769531 -6.007812 C 11.769531 -4.816406 11.335938 -3.816406 10.496094 -2.976562 C 9.632812 -2.109375 8.628906 -1.703125 7.441406 -1.703125 C 6.25 -1.703125 5.222656 -2.109375 4.382812 -2.976562 C 3.515625 -3.816406 3.113281 -4.816406 3.113281 -6.007812 C 3.113281 -7.195312 3.515625 -8.199219 4.382812 -9.0625 C 5.222656 -9.902344 6.25 -10.335938 7.441406 -10.335938 C 8.628906 -10.335938 9.632812 -9.902344 10.496094 -9.0625 C 11.335938 -8.199219 11.769531 -7.195312 11.769531 -6.007812 Z M 13.664062 -6.007812 C 13.664062 -7.710938 13.039062 -9.171875 11.824219 -10.390625 C 10.605469 -11.605469 9.144531 -12.230469 7.441406 -12.230469 C 5.707031 -12.230469 4.246094 -11.605469 3.03125 -10.390625 C 1.8125 -9.171875 1.21875 -7.710938 1.21875 -6.007812 C 1.21875 -4.273438 1.8125 -2.8125 3.03125 -1.625 C 4.246094 -0.40625 5.734375 0.1875 7.441406 0.1875 C 9.117188 0.1875 10.605469 -0.40625 11.824219 -1.625 C 13.039062 -2.8125 13.664062 -4.273438 13.664062 -6.007812 Z M 13.664062 -6.007812 "/></g></g></g><g fill="#ffffff" fill-opacity="1"><g transform="translate(1031.620882, 569.322353)"><g><path d="M 10.253906 -2.027344 L 10.253906 0 L 12.148438 0 L 12.148438 -11.902344 L 10.253906 -11.902344 L 10.253906 -6.925781 C 10.253906 -5.25 9.929688 -3.976562 9.308594 -3.03125 C 8.710938 -2.109375 7.65625 -1.648438 6.195312 -1.648438 C 5.382812 -1.648438 4.789062 -1.921875 4.4375 -2.460938 C 4.085938 -3.003906 3.921875 -3.679688 3.921875 -4.464844 L 3.921875 -11.902344 L 2.027344 -11.902344 L 2.027344 -4.464844 C 2.027344 -3.085938 2.378906 -1.949219 3.136719 -1.054688 C 3.894531 -0.1875 4.925781 0.242188 6.277344 0.242188 C 8.035156 0.242188 9.359375 -0.515625 10.253906 -2.027344 Z M 10.253906 -2.027344 "/></g></g></g><g fill="#ffffff" fill-opacity="1"><g transform="translate(1046.743573, 569.322353)"><g><path d="M 8.144531 -9.441406 L 8.144531 -11.902344 C 7.765625 -12.066406 7.359375 -12.148438 6.953125 -12.148438 C 5.601562 -12.148438 4.625 -11.390625 4.003906 -9.929688 L 3.921875 -9.441406 L 3.921875 -11.902344 L 2.027344 -11.902344 L 2.027344 0 L 3.921875 0 L 3.921875 -5.953125 C 3.921875 -6.925781 4.140625 -7.792969 4.597656 -8.578125 C 4.816406 -8.980469 5.113281 -9.335938 5.464844 -9.605469 C 5.816406 -9.875 6.25 -10.039062 6.738281 -10.039062 C 7.222656 -10.039062 7.683594 -9.820312 8.144531 -9.441406 Z M 8.144531 -9.441406 "/></g></g></g><g fill="#ffffff" fill-opacity="1"><g transform="translate(1056.509793, 569.322353)"><g/></g></g><g fill="#ffffff" fill-opacity="1"><g transform="translate(1065.166844, 569.322353)"><g><path d="M 17.125 -0.0546875 L 19.019531 -0.0546875 L 19.019531 -7.496094 C 19.019531 -8.820312 18.667969 -9.929688 18.019531 -10.796875 C 17.695312 -11.226562 17.261719 -11.550781 16.773438 -11.824219 C 16.261719 -12.09375 15.582031 -12.230469 14.773438 -12.230469 C 13.933594 -12.230469 13.203125 -11.984375 12.582031 -11.550781 C 12.011719 -11.121094 11.550781 -10.605469 11.171875 -9.957031 C 11.039062 -10.253906 10.875 -10.523438 10.6875 -10.796875 C 10.363281 -11.226562 9.929688 -11.550781 9.441406 -11.824219 C 8.929688 -12.09375 8.25 -12.230469 7.441406 -12.230469 C 6.601562 -12.230469 5.871094 -11.984375 5.25 -11.550781 C 4.707031 -11.148438 4.273438 -10.660156 3.921875 -10.039062 L 3.921875 -11.957031 L 2.027344 -11.957031 L 2.027344 -0.0546875 L 3.921875 -0.0546875 L 3.921875 -6.140625 C 4.003906 -7.089844 4.246094 -7.925781 4.652344 -8.605469 C 4.925781 -9.089844 5.328125 -9.523438 5.816406 -9.847656 C 6.304688 -10.171875 6.816406 -10.335938 7.386719 -10.335938 C 7.925781 -10.335938 8.359375 -10.226562 8.628906 -10.066406 C 9.386719 -9.578125 9.792969 -8.710938 9.792969 -7.496094 L 9.792969 -0.0546875 L 11.6875 -0.0546875 L 11.6875 -7.496094 C 11.6875 -7.628906 11.660156 -7.792969 11.660156 -7.925781 C 11.742188 -8.171875 11.851562 -8.386719 11.984375 -8.605469 C 12.257812 -9.089844 12.660156 -9.523438 13.148438 -9.847656 C 13.636719 -10.171875 14.148438 -10.335938 14.71875 -10.335938 C 15.257812 -10.335938 15.691406 -10.226562 15.960938 -10.066406 C 16.71875 -9.578125 17.125 -8.710938 17.125 -7.496094 Z M 17.125 -0.0546875 "/></g></g></g><g fill="#ffffff" fill-opacity="1"><g transform="translate(1087.160962, 569.322353)"><g><path d="M 3.949219 -16.015625 C 3.707031 -16.234375 3.410156 -16.367188 3.085938 -16.367188 C 2.757812 -16.367188 2.460938 -16.234375 2.246094 -16.015625 C 2.003906 -15.773438 1.894531 -15.476562 1.894531 -15.152344 C 1.894531 -14.828125 2.003906 -14.527344 2.246094 -14.3125 C 2.460938 -14.070312 2.757812 -13.960938 3.085938 -13.960938 C 3.410156 -13.960938 3.707031 -14.070312 3.949219 -14.3125 C 4.167969 -14.527344 4.300781 -14.828125 4.300781 -15.152344 C 4.300781 -15.476562 4.167969 -15.773438 3.949219 -16.015625 Z M 4.058594 0 L 4.058594 -11.902344 L 2.164062 -11.902344 L 2.164062 0 Z M 4.058594 0 "/></g></g></g><g fill="#ffffff" fill-opacity="1"><g transform="translate(1094.708845, 569.322353)"><g><path d="M 3.734375 -1.675781 C 3.273438 -2.003906 2.921875 -2.542969 2.734375 -3.328125 L 0.730469 -3.328125 C 1.136719 -0.867188 2.707031 0.351562 5.464844 0.351562 C 6.113281 0.351562 6.710938 0.296875 7.277344 0.136719 C 7.847656 -0.0273438 8.332031 -0.242188 8.792969 -0.542969 C 9.710938 -1.164062 10.171875 -2.109375 10.171875 -3.382812 C 10.171875 -4.679688 9.578125 -5.601562 8.332031 -6.195312 C 7.820312 -6.4375 7.25 -6.628906 6.628906 -6.765625 C 6.035156 -6.898438 5.464844 -7.0625 4.949219 -7.222656 C 4.410156 -7.386719 3.976562 -7.601562 3.625 -7.847656 C 3.273438 -8.089844 3.085938 -8.46875 3.085938 -9.007812 C 3.085938 -9.550781 3.300781 -9.957031 3.734375 -10.199219 C 4.167969 -10.46875 4.679688 -10.605469 5.25 -10.605469 C 5.84375 -10.605469 6.359375 -10.46875 6.765625 -10.253906 C 7.167969 -10.039062 7.496094 -9.605469 7.683594 -8.957031 L 9.710938 -8.957031 C 9.46875 -10.144531 8.957031 -10.984375 8.199219 -11.445312 C 7.414062 -11.929688 6.464844 -12.175781 5.304688 -12.175781 C 4.167969 -12.175781 3.164062 -11.851562 2.328125 -11.253906 C 1.515625 -10.632812 1.082031 -9.738281 1.082031 -8.550781 C 1.082031 -7.980469 1.246094 -7.46875 1.542969 -7.035156 C 1.867188 -6.574219 2.328125 -6.222656 2.921875 -5.953125 C 3.464844 -5.707031 4.03125 -5.519531 4.625 -5.355469 C 5.222656 -5.222656 5.789062 -5.058594 6.332031 -4.898438 C 7.546875 -4.492188 8.171875 -3.894531 8.171875 -3.136719 C 8.171875 -1.839844 7.304688 -1.21875 5.574219 -1.21875 C 4.84375 -1.21875 4.21875 -1.351562 3.734375 -1.675781 Z M 3.734375 -1.675781 "/></g></g></g><g fill="#ffffff" fill-opacity="1"><g transform="translate(1106.936873, 569.322353)"><g><path d="M 3.734375 -1.675781 C 3.273438 -2.003906 2.921875 -2.542969 2.734375 -3.328125 L 0.730469 -3.328125 C 1.136719 -0.867188 2.707031 0.351562 5.464844 0.351562 C 6.113281 0.351562 6.710938 0.296875 7.277344 0.136719 C 7.847656 -0.0273438 8.332031 -0.242188 8.792969 -0.542969 C 9.710938 -1.164062 10.171875 -2.109375 10.171875 -3.382812 C 10.171875 -4.679688 9.578125 -5.601562 8.332031 -6.195312 C 7.820312 -6.4375 7.25 -6.628906 6.628906 -6.765625 C 6.035156 -6.898438 5.464844 -7.0625 4.949219 -7.222656 C 4.410156 -7.386719 3.976562 -7.601562 3.625 -7.847656 C 3.273438 -8.089844 3.085938 -8.46875 3.085938 -9.007812 C 3.085938 -9.550781 3.300781 -9.957031 3.734375 -10.199219 C 4.167969 -10.46875 4.679688 -10.605469 5.25 -10.605469 C 5.84375 -10.605469 6.359375 -10.46875 6.765625 -10.253906 C 7.167969 -10.039062 7.496094 -9.605469 7.683594 -8.957031 L 9.710938 -8.957031 C 9.46875 -10.144531 8.957031 -10.984375 8.199219 -11.445312 C 7.414062 -11.929688 6.464844 -12.175781 5.304688 -12.175781 C 4.167969 -12.175781 3.164062 -11.851562 2.328125 -11.253906 C 1.515625 -10.632812 1.082031 -9.738281 1.082031 -8.550781 C 1.082031 -7.980469 1.246094 -7.46875 1.542969 -7.035156 C 1.867188 -6.574219 2.328125 -6.222656 2.921875 -5.953125 C 3.464844 -5.707031 4.03125 -5.519531 4.625 -5.355469 C 5.222656 -5.222656 5.789062 -5.058594 6.332031 -4.898438 C 7.546875 -4.492188 8.171875 -3.894531 8.171875 -3.136719 C 8.171875 -1.839844 7.304688 -1.21875 5.574219 -1.21875 C 4.84375 -1.21875 4.21875 -1.351562 3.734375 -1.675781 Z M 3.734375 -1.675781 "/></g></g></g><g fill="#ffffff" fill-opacity="1"><g transform="translate(1119.164902, 569.322353)"><g><path d="M 3.949219 -16.015625 C 3.707031 -16.234375 3.410156 -16.367188 3.085938 -16.367188 C 2.757812 -16.367188 2.460938 -16.234375 2.246094 -16.015625 C 2.003906 -15.773438 1.894531 -15.476562 1.894531 -15.152344 C 1.894531 -14.828125 2.003906 -14.527344 2.246094 -14.3125 C 2.460938 -14.070312 2.757812 -13.960938 3.085938 -13.960938 C 3.410156 -13.960938 3.707031 -14.070312 3.949219 -14.3125 C 4.167969 -14.527344 4.300781 -14.828125 4.300781 -15.152344 C 4.300781 -15.476562 4.167969 -15.773438 3.949219 -16.015625 Z M 4.058594 0 L 4.058594 -11.902344 L 2.164062 -11.902344 L 2.164062 0 Z M 4.058594 0 "/></g></g></g><g fill="#ffffff" fill-opacity="1"><g transform="translate(1126.712785, 569.322353)"><g><path d="M 11.769531 -6.007812 C 11.769531 -4.816406 11.335938 -3.816406 10.496094 -2.976562 C 9.632812 -2.109375 8.628906 -1.703125 7.441406 -1.703125 C 6.25 -1.703125 5.222656 -2.109375 4.382812 -2.976562 C 3.515625 -3.816406 3.113281 -4.816406 3.113281 -6.007812 C 3.113281 -7.195312 3.515625 -8.199219 4.382812 -9.0625 C 5.222656 -9.902344 6.25 -10.335938 7.441406 -10.335938 C 8.628906 -10.335938 9.632812 -9.902344 10.496094 -9.0625 C 11.335938 -8.199219 11.769531 -7.195312 11.769531 -6.007812 Z M 13.664062 -6.007812 C 13.664062 -7.710938 13.039062 -9.171875 11.824219 -10.390625 C 10.605469 -11.605469 9.144531 -12.230469 7.441406 -12.230469 C 5.707031 -12.230469 4.246094 -11.605469 3.03125 -10.390625 C 1.8125 -9.171875 1.21875 -7.710938 1.21875 -6.007812 C 1.21875 -4.273438 1.8125 -2.8125 3.03125 -1.625 C 4.246094 -0.40625 5.734375 0.1875 7.441406 0.1875 C 9.117188 0.1875 10.605469 -0.40625 11.824219 -1.625 C 13.039062 -2.8125 13.664062 -4.273438 13.664062 -6.007812 Z M 13.664062 -6.007812 "/></g></g></g><g fill="#ffffff" fill-opacity="1"><g transform="translate(1142.944634, 569.322353)"><g><path d="M 10.253906 0 L 12.148438 0 L 12.148438 -7.441406 C 12.148438 -8.820312 11.769531 -9.929688 11.066406 -10.769531 C 10.6875 -11.199219 10.253906 -11.527344 9.738281 -11.769531 C 9.199219 -12.011719 8.523438 -12.148438 7.683594 -12.148438 C 6.816406 -12.148438 6.085938 -11.902344 5.4375 -11.472656 C 4.816406 -11.066406 4.300781 -10.523438 3.921875 -9.847656 L 3.921875 -11.902344 L 2.027344 -11.902344 L 2.027344 0 L 3.921875 0 L 3.921875 -4.976562 C 3.921875 -6.492188 4.195312 -7.683594 4.761719 -8.578125 C 5.085938 -9.0625 5.492188 -9.46875 6.007812 -9.792969 C 6.492188 -10.089844 7.167969 -10.253906 7.980469 -10.253906 C 8.792969 -10.253906 9.359375 -9.957031 9.710938 -9.414062 C 10.066406 -8.875 10.253906 -8.199219 10.253906 -7.441406 Z M 10.253906 0 "/></g></g></g><g fill="#ffffff" fill-opacity="1"><g transform="translate(1158.067324, 569.322353)"><g/></g></g><g fill="#ffffff" fill-opacity="1"><g transform="translate(1166.724367, 569.322353)"><g><path d="M 0.542969 -10.144531 L 3.515625 -10.144531 L 3.515625 0 L 5.410156 0 L 5.410156 -10.144531 L 8.359375 -10.144531 L 8.359375 -11.902344 L 5.410156 -11.902344 L 5.410156 -16.53125 L 3.515625 -16.53125 L 3.515625 -11.902344 L 0.542969 -11.902344 Z M 0.542969 -10.144531 "/></g></g></g><g fill="#ffffff" fill-opacity="1"><g transform="translate(1176.97753, 569.322353)"><g><path d="M 11.769531 -6.007812 C 11.769531 -4.816406 11.335938 -3.816406 10.496094 -2.976562 C 9.632812 -2.109375 8.628906 -1.703125 7.441406 -1.703125 C 6.25 -1.703125 5.222656 -2.109375 4.382812 -2.976562 C 3.515625 -3.816406 3.113281 -4.816406 3.113281 -6.007812 C 3.113281 -7.195312 3.515625 -8.199219 4.382812 -9.0625 C 5.222656 -9.902344 6.25 -10.335938 7.441406 -10.335938 C 8.628906 -10.335938 9.632812 -9.902344 10.496094 -9.0625 C 11.335938 -8.199219 11.769531 -7.195312 11.769531 -6.007812 Z M 13.664062 -6.007812 C 13.664062 -7.710938 13.039062 -9.171875 11.824219 -10.390625 C 10.605469 -11.605469 9.144531 -12.230469 7.441406 -12.230469 C 5.707031 -12.230469 4.246094 -11.605469 3.03125 -10.390625 C 1.8125 -9.171875 1.21875 -7.710938 1.21875 -6.007812 C 1.21875 -4.273438 1.8125 -2.8125 3.03125 -1.625 C 4.246094 -0.40625 5.734375 0.1875 7.441406 0.1875 C 9.117188 0.1875 10.605469 -0.40625 11.824219 -1.625 C 13.039062 -2.8125 13.664062 -4.273438 13.664062 -6.007812 Z M 13.664062 -6.007812 "/></g></g></g><g fill="#ffffff" fill-opacity="1"><g transform="translate(979.240867, 598.117448)"><g><path d="M 8.144531 -9.441406 L 8.144531 -11.902344 C 7.765625 -12.066406 7.359375 -12.148438 6.953125 -12.148438 C 5.601562 -12.148438 4.625 -11.390625 4.003906 -9.929688 L 3.921875 -9.441406 L 3.921875 -11.902344 L 2.027344 -11.902344 L 2.027344 0 L 3.921875 0 L 3.921875 -5.953125 C 3.921875 -6.925781 4.140625 -7.792969 4.597656 -8.578125 C 4.816406 -8.980469 5.113281 -9.335938 5.464844 -9.605469 C 5.816406 -9.875 6.25 -10.039062 6.738281 -10.039062 C 7.222656 -10.039062 7.683594 -9.820312 8.144531 -9.441406 Z M 8.144531 -9.441406 "/></g></g></g><g fill="#ffffff" fill-opacity="1"><g transform="translate(989.007086, 598.117448)"><g><path d="M 13.664062 -6.222656 C 13.664062 -7.847656 13.011719 -9.253906 11.769531 -10.46875 C 10.550781 -11.632812 9.089844 -12.230469 7.441406 -12.230469 C 5.707031 -12.230469 4.246094 -11.605469 3.03125 -10.390625 C 1.8125 -9.171875 1.21875 -7.710938 1.21875 -6.007812 C 1.21875 -4.273438 1.8125 -2.8125 3.03125 -1.625 C 3.597656 -1.054688 4.246094 -0.621094 5.003906 -0.296875 C 5.761719 0.0273438 6.65625 0.1875 7.710938 0.1875 C 8.765625 0.1875 9.792969 -0.136719 10.820312 -0.785156 C 11.851562 -1.433594 12.609375 -2.355469 13.121094 -3.488281 L 10.957031 -3.488281 C 10.523438 -2.921875 10.011719 -2.488281 9.386719 -2.164062 C 8.765625 -1.839844 8.117188 -1.703125 7.441406 -1.703125 C 6.410156 -1.703125 5.492188 -2.027344 4.679688 -2.707031 C 3.867188 -3.355469 3.355469 -4.195312 3.191406 -5.222656 L 13.664062 -5.222656 Z M 11.660156 -6.84375 L 3.21875 -6.84375 C 3.328125 -7.332031 3.515625 -7.792969 3.789062 -8.226562 C 4.652344 -9.632812 5.871094 -10.335938 7.441406 -10.335938 C 8.441406 -10.335938 9.335938 -10.011719 10.117188 -9.359375 C 10.929688 -8.683594 11.417969 -7.847656 11.660156 -6.84375 Z M 11.660156 -6.84375 "/></g></g></g><g fill="#ffffff" fill-opacity="1"><g transform="translate(1005.103669, 598.117448)"><g><path d="M 5.761719 1.136719 L 11.226562 -11.902344 L 9.171875 -11.902344 L 5.761719 -3.058594 L 2.328125 -11.902344 L 0.269531 -11.902344 Z M 5.761719 1.136719 "/></g></g></g><g fill="#ffffff" fill-opacity="1"><g transform="translate(1017.953911, 598.117448)"><g><path d="M 11.769531 -6.007812 C 11.769531 -4.816406 11.335938 -3.816406 10.496094 -2.976562 C 9.632812 -2.109375 8.628906 -1.703125 7.441406 -1.703125 C 6.25 -1.703125 5.222656 -2.109375 4.382812 -2.976562 C 3.515625 -3.816406 3.113281 -4.816406 3.113281 -6.007812 C 3.113281 -7.195312 3.515625 -8.199219 4.382812 -9.0625 C 5.222656 -9.902344 6.25 -10.335938 7.441406 -10.335938 C 8.628906 -10.335938 9.632812 -9.902344 10.496094 -9.0625 C 11.335938 -8.199219 11.769531 -7.195312 11.769531 -6.007812 Z M 13.664062 -6.007812 C 13.664062 -7.710938 13.039062 -9.171875 11.824219 -10.390625 C 10.605469 -11.605469 9.144531 -12.230469 7.441406 -12.230469 C 5.707031 -12.230469 4.246094 -11.605469 3.03125 -10.390625 C 1.8125 -9.171875 1.21875 -7.710938 1.21875 -6.007812 C 1.21875 -4.273438 1.8125 -2.8125 3.03125 -1.625 C 4.246094 -0.40625 5.734375 0.1875 7.441406 0.1875 C 9.117188 0.1875 10.605469 -0.40625 11.824219 -1.625 C 13.039062 -2.8125 13.664062 -4.273438 13.664062 -6.007812 Z M 13.664062 -6.007812 "/></g></g></g><g fill="#ffffff" fill-opacity="1"><g transform="translate(1034.185758, 598.117448)"><g><path d="M 3.921875 0 L 3.921875 -20.292969 L 2.027344 -20.292969 L 2.027344 0 Z M 3.921875 0 "/></g></g></g><g fill="#ffffff" fill-opacity="1"><g transform="translate(1041.49016, 598.117448)"><g><path d="M 10.253906 -2.027344 L 10.253906 0 L 12.148438 0 L 12.148438 -11.902344 L 10.253906 -11.902344 L 10.253906 -6.925781 C 10.253906 -5.25 9.929688 -3.976562 9.308594 -3.03125 C 8.710938 -2.109375 7.65625 -1.648438 6.195312 -1.648438 C 5.382812 -1.648438 4.789062 -1.921875 4.4375 -2.460938 C 4.085938 -3.003906 3.921875 -3.679688 3.921875 -4.464844 L 3.921875 -11.902344 L 2.027344 -11.902344 L 2.027344 -4.464844 C 2.027344 -3.085938 2.378906 -1.949219 3.136719 -1.054688 C 3.894531 -0.1875 4.925781 0.242188 6.277344 0.242188 C 8.035156 0.242188 9.359375 -0.515625 10.253906 -2.027344 Z M 10.253906 -2.027344 "/></g></g></g><g fill="#ffffff" fill-opacity="1"><g transform="translate(1056.61285, 598.117448)"><g><path d="M 0.542969 -10.144531 L 3.515625 -10.144531 L 3.515625 0 L 5.410156 0 L 5.410156 -10.144531 L 8.359375 -10.144531 L 8.359375 -11.902344 L 5.410156 -11.902344 L 5.410156 -16.53125 L 3.515625 -16.53125 L 3.515625 -11.902344 L 0.542969 -11.902344 Z M 0.542969 -10.144531 "/></g></g></g><g fill="#ffffff" fill-opacity="1"><g transform="translate(1066.866014, 598.117448)"><g><path d="M 3.949219 -16.015625 C 3.707031 -16.234375 3.410156 -16.367188 3.085938 -16.367188 C 2.757812 -16.367188 2.460938 -16.234375 2.246094 -16.015625 C 2.003906 -15.773438 1.894531 -15.476562 1.894531 -15.152344 C 1.894531 -14.828125 2.003906 -14.527344 2.246094 -14.3125 C 2.460938 -14.070312 2.757812 -13.960938 3.085938 -13.960938 C 3.410156 -13.960938 3.707031 -14.070312 3.949219 -14.3125 C 4.167969 -14.527344 4.300781 -14.828125 4.300781 -15.152344 C 4.300781 -15.476562 4.167969 -15.773438 3.949219 -16.015625 Z M 4.058594 0 L 4.058594 -11.902344 L 2.164062 -11.902344 L 2.164062 0 Z M 4.058594 0 "/></g></g></g><g fill="#ffffff" fill-opacity="1"><g transform="translate(1074.413897, 598.117448)"><g><path d="M 11.769531 -6.007812 C 11.769531 -4.816406 11.335938 -3.816406 10.496094 -2.976562 C 9.632812 -2.109375 8.628906 -1.703125 7.441406 -1.703125 C 6.25 -1.703125 5.222656 -2.109375 4.382812 -2.976562 C 3.515625 -3.816406 3.113281 -4.816406 3.113281 -6.007812 C 3.113281 -7.195312 3.515625 -8.199219 4.382812 -9.0625 C 5.222656 -9.902344 6.25 -10.335938 7.441406 -10.335938 C 8.628906 -10.335938 9.632812 -9.902344 10.496094 -9.0625 C 11.335938 -8.199219 11.769531 -7.195312 11.769531 -6.007812 Z M 13.664062 -6.007812 C 13.664062 -7.710938 13.039062 -9.171875 11.824219 -10.390625 C 10.605469 -11.605469 9.144531 -12.230469 7.441406 -12.230469 C 5.707031 -12.230469 4.246094 -11.605469 3.03125 -10.390625 C 1.8125 -9.171875 1.21875 -7.710938 1.21875 -6.007812 C 1.21875 -4.273438 1.8125 -2.8125 3.03125 -1.625 C 4.246094 -0.40625 5.734375 0.1875 7.441406 0.1875 C 9.117188 0.1875 10.605469 -0.40625 11.824219 -1.625 C 13.039062 -2.8125 13.664062 -4.273438 13.664062 -6.007812 Z M 13.664062 -6.007812 "/></g></g></g><g fill="#ffffff" fill-opacity="1"><g transform="translate(1090.645746, 598.117448)"><g><path d="M 10.253906 0 L 12.148438 0 L 12.148438 -7.441406 C 12.148438 -8.820312 11.769531 -9.929688 11.066406 -10.769531 C 10.6875 -11.199219 10.253906 -11.527344 9.738281 -11.769531 C 9.199219 -12.011719 8.523438 -12.148438 7.683594 -12.148438 C 6.816406 -12.148438 6.085938 -11.902344 5.4375 -11.472656 C 4.816406 -11.066406 4.300781 -10.523438 3.921875 -9.847656 L 3.921875 -11.902344 L 2.027344 -11.902344 L 2.027344 0 L 3.921875 0 L 3.921875 -4.976562 C 3.921875 -6.492188 4.195312 -7.683594 4.761719 -8.578125 C 5.085938 -9.0625 5.492188 -9.46875 6.007812 -9.792969 C 6.492188 -10.089844 7.167969 -10.253906 7.980469 -10.253906 C 8.792969 -10.253906 9.359375 -9.957031 9.710938 -9.414062 C 10.066406 -8.875 10.253906 -8.199219 10.253906 -7.441406 Z M 10.253906 0 "/></g></g></g><g fill="#ffffff" fill-opacity="1"><g transform="translate(1105.768436, 598.117448)"><g><path d="M 3.949219 -16.015625 C 3.707031 -16.234375 3.410156 -16.367188 3.085938 -16.367188 C 2.757812 -16.367188 2.460938 -16.234375 2.246094 -16.015625 C 2.003906 -15.773438 1.894531 -15.476562 1.894531 -15.152344 C 1.894531 -14.828125 2.003906 -14.527344 2.246094 -14.3125 C 2.460938 -14.070312 2.757812 -13.960938 3.085938 -13.960938 C 3.410156 -13.960938 3.707031 -14.070312 3.949219 -14.3125 C 4.167969 -14.527344 4.300781 -14.828125 4.300781 -15.152344 C 4.300781 -15.476562 4.167969 -15.773438 3.949219 -16.015625 Z M 4.058594 0 L 4.058594 -11.902344 L 2.164062 -11.902344 L 2.164062 0 Z M 4.058594 0 "/></g></g></g><g fill="#ffffff" fill-opacity="1"><g transform="translate(1113.316319, 598.117448)"><g><path d="M 0.269531 0 L 12.039062 0 L 12.039062 -1.757812 L 3.894531 -1.757812 L 11.6875 -11.902344 L 0.730469 -11.902344 L 0.730469 -10.144531 L 8.0625 -10.144531 Z M 0.269531 0 "/></g></g></g><g fill="#ffffff" fill-opacity="1"><g transform="translate(1126.978152, 598.117448)"><g><path d="M 13.664062 -6.222656 C 13.664062 -7.847656 13.011719 -9.253906 11.769531 -10.46875 C 10.550781 -11.632812 9.089844 -12.230469 7.441406 -12.230469 C 5.707031 -12.230469 4.246094 -11.605469 3.03125 -10.390625 C 1.8125 -9.171875 1.21875 -7.710938 1.21875 -6.007812 C 1.21875 -4.273438 1.8125 -2.8125 3.03125 -1.625 C 3.597656 -1.054688 4.246094 -0.621094 5.003906 -0.296875 C 5.761719 0.0273438 6.65625 0.1875 7.710938 0.1875 C 8.765625 0.1875 9.792969 -0.136719 10.820312 -0.785156 C 11.851562 -1.433594 12.609375 -2.355469 13.121094 -3.488281 L 10.957031 -3.488281 C 10.523438 -2.921875 10.011719 -2.488281 9.386719 -2.164062 C 8.765625 -1.839844 8.117188 -1.703125 7.441406 -1.703125 C 6.410156 -1.703125 5.492188 -2.027344 4.679688 -2.707031 C 3.867188 -3.355469 3.355469 -4.195312 3.191406 -5.222656 L 13.664062 -5.222656 Z M 11.660156 -6.84375 L 3.21875 -6.84375 C 3.328125 -7.332031 3.515625 -7.792969 3.789062 -8.226562 C 4.652344 -9.632812 5.871094 -10.335938 7.441406 -10.335938 C 8.441406 -10.335938 9.335938 -10.011719 10.117188 -9.359375 C 10.929688 -8.683594 11.417969 -7.847656 11.660156 -6.84375 Z M 11.660156 -6.84375 "/></g></g></g><g fill="#ffffff" fill-opacity="1"><g transform="translate(1143.074728, 598.117448)"><g/></g></g><g fill="#ffffff" fill-opacity="1"><g transform="translate(1151.73177, 598.117448)"><g><path d="M 0.542969 -10.144531 L 3.515625 -10.144531 L 3.515625 0 L 5.410156 0 L 5.410156 -10.144531 L 8.359375 -10.144531 L 8.359375 -11.902344 L 5.410156 -11.902344 L 5.410156 -16.53125 L 3.515625 -16.53125 L 3.515625 -11.902344 L 0.542969 -11.902344 Z M 0.542969 -10.144531 "/></g></g></g><g fill="#ffffff" fill-opacity="1"><g transform="translate(1161.984934, 598.117448)"><g><path d="M 3.921875 0 L 3.921875 -4.976562 C 3.921875 -6.628906 4.195312 -7.871094 4.761719 -8.738281 C 5.085938 -9.226562 5.492188 -9.578125 6.007812 -9.847656 C 6.492188 -10.117188 7.167969 -10.253906 7.980469 -10.253906 C 8.792969 -10.253906 9.359375 -9.957031 9.710938 -9.414062 C 10.066406 -8.875 10.253906 -8.199219 10.253906 -7.441406 L 10.253906 0 L 12.148438 0 L 12.148438 -7.441406 C 12.148438 -8.820312 11.769531 -9.929688 11.066406 -10.769531 C 10.6875 -11.199219 10.253906 -11.527344 9.738281 -11.769531 C 9.199219 -12.011719 8.523438 -12.148438 7.683594 -12.148438 C 6.816406 -12.148438 6.085938 -11.902344 5.4375 -11.472656 C 4.816406 -11.066406 4.300781 -10.523438 3.921875 -9.847656 L 3.921875 -20.292969 L 2.027344 -20.292969 L 2.027344 0 Z M 3.921875 0 "/></g></g></g><g fill="#ffffff" fill-opacity="1"><g transform="translate(1177.107624, 598.117448)"><g><path d="M 13.664062 -6.222656 C 13.664062 -7.847656 13.011719 -9.253906 11.769531 -10.46875 C 10.550781 -11.632812 9.089844 -12.230469 7.441406 -12.230469 C 5.707031 -12.230469 4.246094 -11.605469 3.03125 -10.390625 C 1.8125 -9.171875 1.21875 -7.710938 1.21875 -6.007812 C 1.21875 -4.273438 1.8125 -2.8125 3.03125 -1.625 C 3.597656 -1.054688 4.246094 -0.621094 5.003906 -0.296875 C 5.761719 0.0273438 6.65625 0.1875 7.710938 0.1875 C 8.765625 0.1875 9.792969 -0.136719 10.820312 -0.785156 C 11.851562 -1.433594 12.609375 -2.355469 13.121094 -3.488281 L 10.957031 -3.488281 C 10.523438 -2.921875 10.011719 -2.488281 9.386719 -2.164062 C 8.765625 -1.839844 8.117188 -1.703125 7.441406 -1.703125 C 6.410156 -1.703125 5.492188 -2.027344 4.679688 -2.707031 C 3.867188 -3.355469 3.355469 -4.195312 3.191406 -5.222656 L 13.664062 -5.222656 Z M 11.660156 -6.84375 L 3.21875 -6.84375 C 3.328125 -7.332031 3.515625 -7.792969 3.789062 -8.226562 C 4.652344 -9.632812 5.871094 -10.335938 7.441406 -10.335938 C 8.441406 -10.335938 9.335938 -10.011719 10.117188 -9.359375 C 10.929688 -8.683594 11.417969 -7.847656 11.660156 -6.84375 Z M 11.660156 -6.84375 "/></g></g></g><g fill="#ffffff" fill-opacity="1"><g transform="translate(943.505465, 626.912543)"><g><path d="M 12.960938 -16.640625 L 12.960938 -18.398438 L 2.027344 -18.398438 L 2.027344 0 L 3.921875 0 L 3.921875 -8.304688 L 12.6875 -8.304688 L 12.6875 -10.089844 L 3.921875 -10.089844 L 3.921875 -16.640625 Z M 12.960938 -16.640625 "/></g></g></g><g fill="#ffffff" fill-opacity="1"><g transform="translate(958.357617, 626.912543)"><g><path d="M 5.003906 -6.765625 L 8.359375 -15.230469 L 11.6875 -6.765625 Z M 16.421875 0 L 8.359375 -19.667969 L 0.269531 0 L 2.328125 0 L 4.300781 -5.003906 L 12.390625 -5.003906 L 14.367188 0 Z M 16.421875 0 "/></g></g></g><g fill="#ffffff" fill-opacity="1"><g transform="translate(976.402012, 626.912543)"><g><path d="M 7.117188 -8.65625 C 9.496094 -8.089844 11.121094 -7.46875 11.984375 -6.765625 C 12.582031 -6.277344 12.878906 -5.65625 12.878906 -4.898438 C 12.878906 -4.140625 12.714844 -3.515625 12.390625 -3.085938 C 11.578125 -1.949219 10.117188 -1.378906 8.0625 -1.378906 C 5.195312 -1.378906 3.570312 -2.355469 3.21875 -4.300781 L 1 -4.300781 C 1.648438 -1.191406 4.003906 0.351562 8.0625 0.351562 C 9.875 0.351562 11.390625 -0.0273438 12.609375 -0.839844 C 14.070312 -1.785156 14.828125 -3.191406 14.828125 -5.03125 C 14.828125 -6.546875 14.230469 -7.710938 13.039062 -8.523438 C 12.203125 -9.117188 10.847656 -9.660156 8.980469 -10.144531 C 7.089844 -10.632812 5.871094 -11.039062 5.304688 -11.335938 C 4.058594 -11.957031 3.4375 -12.824219 3.464844 -13.960938 C 3.464844 -14.554688 3.570312 -15.070312 3.84375 -15.449219 C 4.546875 -16.503906 5.789062 -17.042969 7.574219 -17.042969 C 10.089844 -17.042969 11.527344 -16.234375 11.902344 -14.664062 L 13.960938 -14.664062 C 13.285156 -17.316406 11.148438 -18.667969 7.574219 -18.667969 C 5.953125 -18.667969 4.519531 -18.234375 3.328125 -17.371094 C 2.109375 -16.503906 1.488281 -15.230469 1.488281 -13.5 C 1.488281 -11.148438 3.382812 -9.523438 7.117188 -8.65625 Z M 7.117188 -8.65625 "/></g></g></g><g fill="#ffffff" fill-opacity="1"><g transform="translate(993.283126, 626.912543)"><g><path d="M 3.921875 0 L 3.921875 -8.226562 L 12.28125 -8.226562 L 12.28125 0 L 14.175781 0 L 14.175781 -18.398438 L 12.28125 -18.398438 L 12.28125 -10.117188 L 3.921875 -10.117188 L 3.921875 -18.398438 L 2.027344 -18.398438 L 2.027344 0 Z M 3.921875 0 "/></g></g></g><g fill="#ffffff" fill-opacity="1"><g transform="translate(1010.84057, 626.912543)"><g><path d="M 3.921875 0 L 3.921875 -18.398438 L 2.027344 -18.398438 L 2.027344 0 Z M 3.921875 0 "/></g></g></g><g fill="#ffffff" fill-opacity="1"><g transform="translate(1018.144973, 626.912543)"><g><path d="M 18.234375 -9.253906 C 18.234375 -7.140625 17.476562 -5.355469 16.015625 -3.894531 C 14.527344 -2.40625 12.742188 -1.675781 10.660156 -1.675781 C 8.578125 -1.675781 6.789062 -2.40625 5.328125 -3.894531 C 3.84375 -5.355469 3.113281 -7.140625 3.113281 -9.253906 C 3.113281 -11.308594 3.84375 -13.09375 5.328125 -14.582031 C 6.789062 -16.042969 8.578125 -16.800781 10.660156 -16.800781 C 12.742188 -16.800781 14.527344 -16.042969 16.015625 -14.582031 C 17.476562 -13.09375 18.234375 -11.308594 18.234375 -9.253906 Z M 20.128906 -9.253906 C 20.128906 -10.550781 19.859375 -11.769531 19.371094 -12.933594 C 18.882812 -14.070312 18.207031 -15.070312 17.34375 -15.933594 C 16.476562 -16.773438 15.476562 -17.449219 14.339844 -17.9375 C 13.175781 -18.425781 11.957031 -18.695312 10.660156 -18.695312 C 9.359375 -18.695312 8.117188 -18.425781 6.980469 -17.9375 C 5.84375 -17.449219 4.84375 -16.773438 3.976562 -15.933594 C 3.113281 -15.070312 2.433594 -14.070312 1.949219 -12.933594 C 1.460938 -11.769531 1.21875 -10.550781 1.21875 -9.253906 C 1.21875 -7.953125 1.460938 -6.710938 1.949219 -5.574219 C 2.433594 -4.410156 3.113281 -3.410156 3.976562 -2.542969 C 4.84375 -1.675781 5.84375 -1 6.980469 -0.515625 C 8.117188 -0.0273438 9.359375 0.214844 10.660156 0.214844 C 11.957031 0.214844 13.175781 -0.0273438 14.339844 -0.515625 C 15.476562 -1 16.476562 -1.675781 17.34375 -2.542969 C 18.207031 -3.410156 18.882812 -4.410156 19.371094 -5.574219 C 19.859375 -6.710938 20.128906 -7.953125 20.128906 -9.253906 Z M 20.128906 -9.253906 "/></g></g></g><g fill="#ffffff" fill-opacity="1"><g transform="translate(1040.84246, 626.912543)"><g><path d="M 3.921875 -13.554688 L 14.257812 1.136719 L 14.257812 -18.398438 L 12.363281 -18.398438 L 12.363281 -4.871094 L 2.027344 -19.5625 L 2.027344 0 L 3.921875 0 Z M 3.921875 -13.554688 "/></g></g></g><g fill="#ffffff" fill-opacity="1"><g transform="translate(1058.481068, 626.912543)"><g/></g></g><g fill="#ffffff" fill-opacity="1"><g transform="translate(1067.13812, 626.912543)"><g><path d="M 3.921875 0 L 3.921875 -18.398438 L 2.027344 -18.398438 L 2.027344 0 Z M 3.921875 0 "/></g></g></g><g fill="#ffffff" fill-opacity="1"><g transform="translate(1074.442522, 626.912543)"><g><path d="M 3.921875 -13.554688 L 14.257812 1.136719 L 14.257812 -18.398438 L 12.363281 -18.398438 L 12.363281 -4.871094 L 2.027344 -19.5625 L 2.027344 0 L 3.921875 0 Z M 3.921875 -13.554688 "/></g></g></g><g fill="#ffffff" fill-opacity="1"><g transform="translate(1092.081129, 626.912543)"><g><path d="M 16.3125 -9.199219 C 16.3125 -10.523438 16.042969 -11.742188 15.558594 -12.878906 C 15.070312 -14.015625 14.394531 -14.988281 13.554688 -15.800781 C 12.6875 -16.613281 11.6875 -17.234375 10.550781 -17.695312 C 9.386719 -18.152344 8.144531 -18.398438 6.84375 -18.398438 L 2.027344 -18.398438 L 2.027344 0 L 6.84375 0 C 8.144531 0 9.386719 -0.214844 10.550781 -0.675781 C 11.6875 -1.136719 12.6875 -1.785156 13.554688 -2.597656 C 14.394531 -3.410156 15.070312 -4.355469 15.558594 -5.492188 C 16.042969 -6.628906 16.3125 -7.847656 16.3125 -9.199219 Z M 14.472656 -9.199219 C 14.472656 -7.089844 13.71875 -5.328125 12.257812 -3.949219 C 10.796875 -2.570312 9.007812 -1.894531 6.898438 -1.894531 L 3.921875 -1.894531 L 3.921875 -16.503906 L 6.898438 -16.503906 C 9.007812 -16.503906 10.796875 -15.800781 12.257812 -14.449219 C 13.71875 -13.039062 14.472656 -11.28125 14.472656 -9.199219 Z M 14.472656 -9.199219 "/></g></g></g><g fill="#ffffff" fill-opacity="1"><g transform="translate(1110.964159, 626.912543)"><g><path d="M 15.339844 -6.085938 L 15.339844 -18.398438 L 13.445312 -18.398438 L 13.445312 -5.816406 C 13.445312 -5.058594 13.3125 -4.4375 13.039062 -3.921875 C 12.257812 -2.40625 10.742188 -1.648438 8.496094 -1.648438 C 7.035156 -1.648438 5.871094 -1.976562 5.003906 -2.625 C 4.003906 -3.355469 3.515625 -4.410156 3.515625 -5.816406 L 3.515625 -18.398438 L 1.625 -18.398438 L 1.625 -6.085938 C 1.625 -4.085938 2.273438 -2.515625 3.570312 -1.378906 C 4.789062 -0.296875 6.4375 0.242188 8.496094 0.242188 C 10.523438 0.242188 12.148438 -0.296875 13.390625 -1.378906 C 14.691406 -2.515625 15.339844 -4.085938 15.339844 -6.085938 Z M 15.339844 -6.085938 "/></g></g></g><g fill="#ffffff" fill-opacity="1"><g transform="translate(1129.279072, 626.912543)"><g><path d="M 7.117188 -8.65625 C 9.496094 -8.089844 11.121094 -7.46875 11.984375 -6.765625 C 12.582031 -6.277344 12.878906 -5.65625 12.878906 -4.898438 C 12.878906 -4.140625 12.714844 -3.515625 12.390625 -3.085938 C 11.578125 -1.949219 10.117188 -1.378906 8.0625 -1.378906 C 5.195312 -1.378906 3.570312 -2.355469 3.21875 -4.300781 L 1 -4.300781 C 1.648438 -1.191406 4.003906 0.351562 8.0625 0.351562 C 9.875 0.351562 11.390625 -0.0273438 12.609375 -0.839844 C 14.070312 -1.785156 14.828125 -3.191406 14.828125 -5.03125 C 14.828125 -6.546875 14.230469 -7.710938 13.039062 -8.523438 C 12.203125 -9.117188 10.847656 -9.660156 8.980469 -10.144531 C 7.089844 -10.632812 5.871094 -11.039062 5.304688 -11.335938 C 4.058594 -11.957031 3.4375 -12.824219 3.464844 -13.960938 C 3.464844 -14.554688 3.570312 -15.070312 3.84375 -15.449219 C 4.546875 -16.503906 5.789062 -17.042969 7.574219 -17.042969 C 10.089844 -17.042969 11.527344 -16.234375 11.902344 -14.664062 L 13.960938 -14.664062 C 13.285156 -17.316406 11.148438 -18.667969 7.574219 -18.667969 C 5.953125 -18.667969 4.519531 -18.234375 3.328125 -17.371094 C 2.109375 -16.503906 1.488281 -15.230469 1.488281 -13.5 C 1.488281 -11.148438 3.382812 -9.523438 7.117188 -8.65625 Z M 7.117188 -8.65625 "/></g></g></g><g fill="#ffffff" fill-opacity="1"><g transform="translate(1146.160191, 626.912543)"><g><path d="M 0.542969 -16.691406 L 5.003906 -16.691406 L 5.003906 -0.0546875 L 6.898438 -0.0546875 L 6.898438 -16.691406 L 11.363281 -16.691406 L 11.363281 -18.453125 L 0.542969 -18.453125 Z M 0.542969 -16.691406 "/></g></g></g><g fill="#ffffff" fill-opacity="1"><g transform="translate(1159.416215, 626.912543)"><g><path d="M 3.921875 -9.089844 L 3.921875 -16.585938 L 8.199219 -16.585938 C 9.308594 -16.585938 10.199219 -16.234375 10.875 -15.53125 C 11.527344 -14.828125 11.878906 -13.960938 11.878906 -12.878906 C 11.878906 -11.796875 11.527344 -10.902344 10.820312 -10.171875 C 10.117188 -9.441406 9.253906 -9.089844 8.199219 -9.089844 Z M 13.769531 -12.851562 C 13.769531 -14.421875 13.175781 -15.773438 12.039062 -16.828125 C 10.929688 -17.855469 9.550781 -18.398438 7.925781 -18.398438 L 2.027344 -18.398438 L 2.027344 0 L 3.921875 0 L 3.921875 -7.277344 L 6.113281 -7.277344 L 11.527344 0 L 14.070312 0 L 8.386719 -7.277344 C 9.820312 -7.359375 11.039062 -7.871094 12.039062 -8.820312 C 13.175781 -9.875 13.769531 -11.226562 13.769531 -12.851562 Z M 13.769531 -12.851562 "/></g></g></g><g fill="#ffffff" fill-opacity="1"><g transform="translate(1175.485756, 626.912543)"><g><path d="M 9.144531 -8.65625 L 16.097656 -18.398438 L 13.691406 -18.398438 L 8.199219 -10.523438 L 2.707031 -18.398438 L 0.269531 -18.398438 L 7.25 -8.628906 L 7.25 0 L 9.144531 0 Z M 9.144531 -8.65625 "/></g></g></g><g fill="#38b6ff" fill-opacity="1"><g transform="translate(904.100479, 660.675349)"><g><path d="M 6.050781 -3.613281 C 4.90625 -3.613281 4.90625 -5.375 6.050781 -5.375 C 7.171875 -5.375 7.171875 -3.613281 6.050781 -3.613281 Z M 8.539062 -6.703125 C 8.539062 -8.183594 7.230469 -9.175781 5.601562 -9.175781 C 2.773438 -9.175781 1.03125 -7.117188 1.03125 -4.496094 C 1.03125 -1.722656 3.128906 0 5.785156 0 L 8.464844 0 L 8.464844 -1.5 L 5.785156 -1.5 C 4.15625 -1.5 2.679688 -2.773438 2.679688 -4.496094 C 2.679688 -6.253906 3.820312 -7.472656 5.601562 -7.472656 C 6.253906 -7.472656 6.6875 -7.265625 6.855469 -6.910156 C 5.207031 -7.511719 3.519531 -6.199219 3.519531 -4.496094 C 3.519531 -3.109375 4.644531 -1.929688 6.050781 -1.929688 C 6.332031 -1.929688 6.628906 -1.984375 6.890625 -2.078125 L 8.539062 -2.078125 Z M 8.539062 -6.703125 "/></g></g></g><g fill="#38b6ff" fill-opacity="1"><g transform="translate(915.541759, 660.675349)"><g><path d="M 6.535156 -10.1875 L 10.167969 -10.1875 L 10.167969 -12.734375 L 0.09375 -12.734375 L 0.09375 -10.1875 L 3.726562 -10.1875 L 3.726562 0 L 6.535156 0 Z M 6.535156 -10.1875 "/></g></g></g><g fill="#38b6ff" fill-opacity="1"><g transform="translate(927.30136, 660.675349)"><g><path d="M 8.128906 -12.734375 L 8.128906 -7.660156 L 3.933594 -7.660156 L 3.933594 -12.734375 L 1.125 -12.734375 L 1.125 0 L 3.933594 0 L 3.933594 -5.113281 L 8.128906 -5.113281 L 8.128906 0 L 11.125 0 L 11.125 -12.734375 Z M 8.128906 -12.734375 "/></g></g></g><g fill="#38b6ff" fill-opacity="1"><g transform="translate(941.045781, 660.675349)"><g><path d="M 8.503906 -2.546875 L 3.933594 -2.546875 L 3.933594 -5.113281 L 8.316406 -5.113281 L 8.316406 -7.660156 L 3.933594 -7.660156 L 3.933594 -10.1875 L 8.503906 -10.1875 L 8.503906 -12.734375 L 1.125 -12.734375 L 1.125 0 L 8.503906 0 Z M 8.503906 -2.546875 "/></g></g></g><g fill="#38b6ff" fill-opacity="1"><g transform="translate(952.168742, 660.675349)"><g/></g></g><g fill="#38b6ff" fill-opacity="1"><g transform="translate(958.348375, 660.675349)"><g><path d="M 10.320312 -4.328125 C 9.792969 -3.203125 8.519531 -2.433594 7.210938 -2.433594 C 5.148438 -2.433594 3.503906 -4.195312 3.503906 -6.367188 C 3.503906 -8.519531 5.148438 -10.300781 7.210938 -10.300781 C 8.503906 -10.300781 9.777344 -9.589844 10.300781 -8.445312 L 13.429688 -8.445312 C 12.566406 -11.050781 10.113281 -12.921875 7.210938 -12.921875 C 3.597656 -12.921875 0.65625 -9.980469 0.65625 -6.367188 C 0.65625 -2.753906 3.597656 0.1875 7.210938 0.1875 C 10.113281 0.1875 12.585938 -1.703125 13.445312 -4.328125 Z M 10.320312 -4.328125 "/></g></g></g><g fill="#38b6ff" fill-opacity="1"><g transform="translate(973.759295, 660.675349)"><g><path d="M 3.933594 -4.550781 L 3.953125 -4.550781 L 6.984375 0 L 10.542969 0 L 6.890625 -4.683594 C 8.503906 -5.074219 9.792969 -6.5 9.792969 -8.652344 C 9.792969 -11.066406 7.960938 -12.734375 5.898438 -12.734375 L 1.125 -12.734375 L 1.125 0 L 3.933594 0 Z M 5.429688 -10.523438 C 6.253906 -10.523438 7.117188 -9.8125 7.117188 -8.652344 C 7.117188 -7.433594 6.253906 -6.761719 5.429688 -6.761719 L 3.933594 -6.761719 L 3.933594 -10.523438 Z M 5.429688 -10.523438 "/></g></g></g><g fill="#38b6ff" fill-opacity="1"><g transform="translate(985.575067, 660.675349)"><g><path d="M 8.503906 -2.546875 L 3.933594 -2.546875 L 3.933594 -5.113281 L 8.316406 -5.113281 L 8.316406 -7.660156 L 3.933594 -7.660156 L 3.933594 -10.1875 L 8.503906 -10.1875 L 8.503906 -12.734375 L 1.125 -12.734375 L 1.125 0 L 8.503906 0 Z M 8.503906 -2.546875 "/></g></g></g><g fill="#38b6ff" fill-opacity="1"><g transform="translate(996.698025, 660.675349)"><g><path d="M 8.054688 -4.871094 L 4.832031 -4.871094 L 6.441406 -9.402344 Z M 12.808594 0 L 7.640625 -12.734375 L 5.261719 -12.734375 L 0.09375 0 L 3.109375 0 L 4.027344 -2.566406 L 8.878906 -2.566406 L 9.792969 0 Z M 12.808594 0 "/></g></g></g><g fill="#38b6ff" fill-opacity="1"><g transform="translate(1011.09781, 660.675349)"><g><path d="M 6.535156 -10.1875 L 10.167969 -10.1875 L 10.167969 -12.734375 L 0.09375 -12.734375 L 0.09375 -10.1875 L 3.726562 -10.1875 L 3.726562 0 L 6.535156 0 Z M 6.535156 -10.1875 "/></g></g></g><g fill="#38b6ff" fill-opacity="1"><g transform="translate(1022.857408, 660.675349)"><g><path d="M 3.933594 0 L 3.933594 -12.734375 L 1.125 -12.734375 L 1.125 0 Z M 3.933594 0 "/></g></g></g><g fill="#38b6ff" fill-opacity="1"><g transform="translate(1029.411533, 660.675349)"><g><path d="M 12.808594 -12.734375 L 9.777344 -12.734375 L 7.136719 -5.582031 L 6.441406 -3.578125 L 5.75 -5.582031 L 3.128906 -12.734375 L 0.09375 -12.734375 L 5.242188 0 L 7.660156 0 Z M 12.808594 -12.734375 "/></g></g></g><g fill="#38b6ff" fill-opacity="1"><g transform="translate(1043.811317, 660.675349)"><g><path d="M 8.503906 -2.546875 L 3.933594 -2.546875 L 3.933594 -5.113281 L 8.316406 -5.113281 L 8.316406 -7.660156 L 3.933594 -7.660156 L 3.933594 -10.1875 L 8.503906 -10.1875 L 8.503906 -12.734375 L 1.125 -12.734375 L 1.125 0 L 8.503906 0 Z M 8.503906 -2.546875 "/></g></g></g><g fill="#38b6ff" fill-opacity="1"><g transform="translate(1054.934275, 660.675349)"><g/></g></g><g fill="#38b6ff" fill-opacity="1"><g transform="translate(1061.113905, 660.675349)"><g><path d="M 3.894531 -2.585938 L 3.894531 -10.132812 L 4.738281 -10.132812 C 6.910156 -10.132812 8.371094 -8.484375 8.371094 -6.367188 C 8.371094 -4.25 6.890625 -2.585938 4.738281 -2.585938 Z M 1.125 -12.734375 L 1.125 0 L 4.90625 0 C 8.519531 0 11.238281 -2.773438 11.238281 -6.367188 C 11.238281 -9.964844 8.503906 -12.734375 4.90625 -12.734375 Z M 1.125 -12.734375 "/></g></g></g><g fill="#38b6ff" fill-opacity="1"><g transform="translate(1074.502555, 660.675349)"><g><path d="M 8.503906 -2.546875 L 3.933594 -2.546875 L 3.933594 -5.113281 L 8.316406 -5.113281 L 8.316406 -7.660156 L 3.933594 -7.660156 L 3.933594 -10.1875 L 8.503906 -10.1875 L 8.503906 -12.734375 L 1.125 -12.734375 L 1.125 0 L 8.503906 0 Z M 8.503906 -2.546875 "/></g></g></g><g fill="#38b6ff" fill-opacity="1"><g transform="translate(1085.625513, 660.675349)"><g><path d="M 6.066406 -1.984375 C 4.683594 -1.984375 3.484375 -2.679688 3.410156 -4.195312 L 0.5625 -4.195312 C 0.582031 -1.085938 3.144531 0.300781 5.957031 0.300781 C 8.558594 0.300781 11.238281 -0.804688 11.238281 -3.800781 C 11.238281 -8.652344 3.875 -7.023438 3.875 -9.289062 C 3.875 -10.246094 4.980469 -10.617188 5.769531 -10.617188 C 7.171875 -10.617188 7.941406 -10.1875 8.089844 -8.859375 L 10.804688 -8.859375 C 10.710938 -11.761719 8.351562 -12.921875 5.730469 -12.921875 C 3.410156 -12.921875 0.972656 -11.6875 0.972656 -9.0625 C 0.972656 -4.363281 8.335938 -5.957031 8.335938 -3.484375 C 8.335938 -2.339844 6.949219 -1.984375 6.066406 -1.984375 Z M 6.066406 -1.984375 "/></g></g></g><g fill="#38b6ff" fill-opacity="1"><g transform="translate(1098.920538, 660.675349)"><g><path d="M 6.535156 -10.1875 L 10.167969 -10.1875 L 10.167969 -12.734375 L 0.09375 -12.734375 L 0.09375 -10.1875 L 3.726562 -10.1875 L 3.726562 0 L 6.535156 0 Z M 6.535156 -10.1875 "/></g></g></g><g fill="#38b6ff" fill-opacity="1"><g transform="translate(1110.680137, 660.675349)"><g><path d="M 3.933594 0 L 3.933594 -12.734375 L 1.125 -12.734375 L 1.125 0 Z M 3.933594 0 "/></g></g></g><g fill="#38b6ff" fill-opacity="1"><g transform="translate(1117.234261, 660.675349)"><g><path d="M 11.125 0 L 11.125 -12.734375 L 8.316406 -12.734375 L 8.316406 -4.792969 L 3.933594 -12.734375 L 1.125 -12.734375 L 1.125 0 L 3.933594 0 L 3.933594 -7.941406 L 8.316406 0 Z M 11.125 0 "/></g></g></g><g fill="#38b6ff" fill-opacity="1"><g transform="translate(1130.978693, 660.675349)"><g><path d="M 8.054688 -4.871094 L 4.832031 -4.871094 L 6.441406 -9.402344 Z M 12.808594 0 L 7.640625 -12.734375 L 5.261719 -12.734375 L 0.09375 0 L 3.109375 0 L 4.027344 -2.566406 L 8.878906 -2.566406 L 9.792969 0 Z M 12.808594 0 "/></g></g></g><g fill="#38b6ff" fill-opacity="1"><g transform="translate(1145.378491, 660.675349)"><g><path d="M 6.535156 -10.1875 L 10.167969 -10.1875 L 10.167969 -12.734375 L 0.09375 -12.734375 L 0.09375 -10.1875 L 3.726562 -10.1875 L 3.726562 0 L 6.535156 0 Z M 6.535156 -10.1875 "/></g></g></g><g fill="#38b6ff" fill-opacity="1"><g transform="translate(1157.138102, 660.675349)"><g><path d="M 3.933594 0 L 3.933594 -12.734375 L 1.125 -12.734375 L 1.125 0 Z M 3.933594 0 "/></g></g></g><g fill="#38b6ff" fill-opacity="1"><g transform="translate(1163.692239, 660.675349)"><g><path d="M 10.957031 -6.386719 C 10.957031 -4.417969 9.175781 -2.621094 7.210938 -2.621094 C 5.242188 -2.621094 3.464844 -4.417969 3.464844 -6.386719 C 3.464844 -8.351562 5.242188 -10.132812 7.210938 -10.132812 C 9.175781 -10.132812 10.957031 -8.351562 10.957031 -6.386719 Z M 13.765625 -6.367188 C 13.765625 -9.886719 10.730469 -12.921875 7.210938 -12.921875 C 3.6875 -12.921875 0.65625 -9.886719 0.65625 -6.367188 C 0.65625 -2.847656 3.6875 0.1875 7.210938 0.1875 C 10.730469 0.1875 13.765625 -2.847656 13.765625 -6.367188 Z M 13.765625 -6.367188 "/></g></g></g><g fill="#38b6ff" fill-opacity="1"><g transform="translate(1179.608739, 660.675349)"><g><path d="M 11.125 0 L 11.125 -12.734375 L 8.316406 -12.734375 L 8.316406 -4.792969 L 3.933594 -12.734375 L 1.125 -12.734375 L 1.125 0 L 3.933594 0 L 3.933594 -7.941406 L 8.316406 0 Z M 11.125 0 "/></g></g></g><g fill="#ffde59" fill-opacity="1"><g transform="translate(1099.360181, 519.809238)"><g><path d="M 0.226562 -3.707031 C 1.011719 -3.597656 1.609375 -3.785156 2.058594 -4.382812 C 2.285156 -4.644531 2.398438 -5.09375 2.398438 -5.730469 L 2.398438 -27.535156 L 6.441406 -27.535156 L 6.441406 -5.09375 C 6.441406 -3.597656 6.070312 -2.210938 5.132812 -1.199219 C 4.195312 -0.1875 2.621094 0.410156 0.226562 0.261719 Z M 0.226562 -3.707031 "/></g></g></g><g fill="#ffde59" fill-opacity="1"><g transform="translate(1108.986636, 519.809238)"><g><path d="M 12.023438 -5.65625 C 11.988281 -4.53125 11.761719 -3.519531 11.351562 -2.660156 C 11.011719 -1.910156 10.488281 -1.199219 9.738281 -0.636719 C 8.992188 -0.0390625 7.980469 0.300781 6.628906 0.300781 C 5.28125 0.300781 4.234375 -0.0390625 3.484375 -0.636719 C 2.734375 -1.199219 2.246094 -1.910156 1.910156 -2.660156 C 1.5 -3.519531 1.273438 -4.53125 1.234375 -5.65625 L 1.234375 -21.875 C 1.273438 -22.964844 1.5 -23.976562 1.910156 -24.835938 C 2.246094 -25.585938 2.734375 -26.335938 3.484375 -26.898438 C 4.234375 -27.457031 5.28125 -27.832031 6.628906 -27.832031 C 7.980469 -27.832031 8.992188 -27.457031 9.738281 -26.898438 C 10.488281 -26.335938 11.011719 -25.585938 11.351562 -24.835938 C 11.761719 -23.976562 11.988281 -22.964844 12.023438 -21.875 Z M 7.980469 -21.875 C 7.980469 -22.625 7.828125 -23.152344 7.453125 -23.601562 C 7.265625 -23.789062 6.96875 -23.898438 6.628906 -23.898438 C 5.917969 -23.898438 5.582031 -23.375 5.433594 -22.886719 C 5.320312 -22.589844 5.28125 -22.25 5.28125 -21.875 L 5.28125 -5.65625 C 5.28125 -4.871094 5.46875 -4.34375 5.84375 -3.933594 C 6.03125 -3.746094 6.292969 -3.632812 6.628906 -3.632812 C 7.34375 -3.632812 7.679688 -4.082031 7.828125 -4.644531 C 7.941406 -4.90625 7.980469 -5.246094 7.980469 -5.65625 Z M 7.980469 -21.875 "/></g></g></g><g fill="#ffde59" fill-opacity="1"><g transform="translate(1124.119127, 519.809238)"><g><path d="M 1.5 -27.535156 L 5.542969 -27.535156 L 5.542969 0 L 1.5 0 Z M 1.5 -27.535156 "/></g></g></g><g fill="#ffde59" fill-opacity="1"><g transform="translate(1133.033922, 519.809238)"><g><path d="M 5.769531 -14.347656 L 5.433594 -15.621094 L 5.207031 -15.621094 L 5.207031 0 L 1.5 0 L 1.5 -27.535156 L 5.09375 -27.535156 L 9.027344 -13.1875 L 9.363281 -11.914062 L 9.589844 -11.914062 L 9.589844 -27.535156 L 13.296875 -27.535156 L 13.296875 0 L 9.703125 0 Z M 5.769531 -14.347656 "/></g></g></g><g fill="#ffde59" fill-opacity="1"><g transform="translate(1149.702108, 519.809238)"><g/></g></g><g fill="#ffde59" fill-opacity="1"><g transform="translate(1157.343399, 519.809238)"><g><path d="M 12.25 -27.535156 L 12.25 -5.65625 C 12.210938 -4.53125 11.988281 -3.519531 11.574219 -2.660156 C 11.238281 -1.910156 10.714844 -1.199219 9.964844 -0.636719 C 9.214844 -0.0390625 8.203125 0.300781 6.855469 0.300781 C 5.507812 0.300781 4.457031 -0.0390625 3.707031 -0.636719 C 2.960938 -1.199219 2.472656 -1.910156 2.136719 -2.660156 C 1.722656 -3.519531 1.5 -4.53125 1.460938 -5.65625 L 1.460938 -27.535156 L 5.507812 -27.535156 L 5.507812 -5.65625 C 5.507812 -4.871094 5.695312 -4.34375 6.070312 -3.933594 C 6.257812 -3.746094 6.519531 -3.632812 6.855469 -3.632812 C 7.566406 -3.632812 7.902344 -4.082031 8.054688 -4.644531 C 8.167969 -4.90625 8.203125 -5.246094 8.203125 -5.65625 L 8.203125 -27.535156 Z M 12.25 -27.535156 "/></g></g></g><g fill="#ffde59" fill-opacity="1"><g transform="translate(1172.92536, 519.809238)"><g><path d="M 8.203125 -20.152344 C 8.203125 -21.054688 8.167969 -22.0625 7.902344 -22.851562 C 7.640625 -23.601562 7.230469 -24.125 6.59375 -24.125 C 5.542969 -24.085938 5.207031 -23 5.207031 -21.390625 C 5.207031 -20.453125 5.617188 -19.480469 6.21875 -18.429688 C 6.816406 -17.382812 7.605469 -16.296875 8.390625 -15.132812 C 9.328125 -13.746094 10.265625 -12.324219 10.976562 -10.9375 C 11.6875 -9.550781 12.175781 -8.128906 12.175781 -6.628906 C 12.175781 -4.796875 11.875 -3.070312 11.011719 -1.796875 C 10.152344 -0.523438 8.765625 0.300781 6.554688 0.300781 C 3.972656 0.300781 2.511719 -0.675781 1.6875 -2.171875 C 0.863281 -3.671875 0.675781 -5.65625 0.675781 -7.71875 L 4.644531 -8.089844 C 4.644531 -6.929688 4.683594 -5.769531 4.980469 -4.90625 C 5.246094 -4.007812 5.695312 -3.410156 6.554688 -3.410156 C 7.753906 -3.410156 8.203125 -4.683594 8.203125 -6.441406 C 8.203125 -7.34375 7.753906 -8.390625 7.15625 -9.476562 C 6.816406 -10 6.480469 -10.5625 6.105469 -11.125 C 5.320312 -12.25 4.457031 -13.523438 3.558594 -14.910156 C 2.660156 -16.296875 1.984375 -17.71875 1.574219 -19.179688 C 1.347656 -19.890625 1.234375 -20.640625 1.234375 -21.390625 C 1.234375 -22.886719 1.574219 -24.5 2.433594 -25.734375 C 3.296875 -26.933594 4.609375 -27.796875 6.519531 -27.832031 C 8.953125 -27.871094 10.375 -26.859375 11.164062 -25.398438 C 11.949219 -23.898438 12.175781 -22.0625 12.175781 -20.527344 Z M 8.203125 -20.152344 "/></g></g></g><g fill="#ffde59" fill-opacity="1"><g transform="translate(1187.643193, 519.809238)"><g/></g></g><g fill="#ffffff" fill-opacity="1"><g transform="translate(124.896872, 460.662545)"><g><path d="M 0 -29.765625 L 0 -16.640625 L -15.859375 -16.640625 L -40.875 -0.421875 L -40.875 -15.515625 L -27.28125 -23.359375 L -27.28125 -23.59375 L -40.875 -31.4375 L -40.875 -45.75 L -15.859375 -29.765625 Z M 0 -29.765625 "/></g></g></g><g fill="#ffffff" fill-opacity="1"><g transform="translate(124.896872, 389.482881)"><g><path d="M -41.59375 -24.71875 C -41.59375 -31.769531 -39.789062 -37.21875 -36.1875 -41.0625 C -32.582031 -44.90625 -27.332031 -46.828125 -20.4375 -46.828125 C -13.550781 -46.828125 -8.300781 -44.90625 -4.6875 -41.0625 C -1.082031 -37.21875 0.71875 -31.769531 0.71875 -24.71875 C 0.71875 -17.664062 -1.070312 -12.226562 -4.65625 -8.40625 C -8.25 -4.582031 -13.507812 -2.671875 -20.4375 -2.671875 C -27.375 -2.671875 -32.632812 -4.582031 -36.21875 -8.40625 C -39.800781 -12.226562 -41.59375 -17.664062 -41.59375 -24.71875 Z M -31.796875 -24.71875 C -31.796875 -21.90625 -30.941406 -19.765625 -29.234375 -18.296875 C -27.535156 -16.835938 -25.238281 -16.109375 -22.34375 -16.109375 L -18.546875 -16.109375 C -15.648438 -16.109375 -13.347656 -16.835938 -11.640625 -18.296875 C -9.941406 -19.765625 -9.09375 -21.90625 -9.09375 -24.71875 C -9.09375 -27.53125 -9.941406 -29.675781 -11.640625 -31.15625 C -13.347656 -32.644531 -15.648438 -33.390625 -18.546875 -33.390625 L -22.34375 -33.390625 C -25.238281 -33.390625 -27.535156 -32.644531 -29.234375 -31.15625 C -30.941406 -29.675781 -31.796875 -27.53125 -31.796875 -24.71875 Z M -31.796875 -24.71875 "/></g></g></g><g fill="#ffffff" fill-opacity="1"><g transform="translate(124.896872, 315.035665)"><g><path d="M -16.453125 -45.09375 C -10.867188 -45.09375 -6.609375 -43.332031 -3.671875 -39.8125 C -0.742188 -36.289062 0.71875 -31.28125 0.71875 -24.78125 C 0.71875 -18.28125 -0.742188 -13.253906 -3.671875 -9.703125 C -6.609375 -6.160156 -10.867188 -4.390625 -16.453125 -4.390625 L -40.875 -4.390625 L -40.875 -17.53125 L -16.640625 -17.53125 C -14.335938 -17.53125 -12.503906 -18.144531 -11.140625 -19.375 C -9.773438 -20.601562 -9.09375 -22.382812 -9.09375 -24.71875 C -9.09375 -27.050781 -9.785156 -28.84375 -11.171875 -30.09375 C -12.554688 -31.34375 -14.378906 -31.96875 -16.640625 -31.96875 L -40.875 -31.96875 L -40.875 -45.09375 Z M -16.453125 -45.09375 "/></g></g></g><g fill="#ffffff" fill-opacity="1"><g transform="translate(124.896872, 240.58845)"><g><path d="M -28.34375 -43.203125 C -25.84375 -43.203125 -23.582031 -42.523438 -21.5625 -41.171875 C -19.550781 -39.828125 -18.066406 -37.867188 -17.109375 -35.296875 L 0 -44.390625 L 0 -29.65625 L -14.921875 -22.40625 L -14.921875 -17.53125 L 0 -17.53125 L 0 -4.390625 L -40.875 -4.390625 L -40.875 -29.40625 C -40.875 -32.34375 -40.3125 -34.847656 -39.1875 -36.921875 C -38.0625 -39.003906 -36.535156 -40.570312 -34.609375 -41.625 C -32.691406 -42.675781 -30.601562 -43.203125 -28.34375 -43.203125 Z M -27.8125 -29.828125 C -28.875 -29.828125 -29.757812 -29.46875 -30.46875 -28.75 C -31.1875 -28.039062 -31.546875 -27.171875 -31.546875 -26.140625 L -31.546875 -17.53125 L -24 -17.53125 L -24 -26.140625 C -24 -27.171875 -24.363281 -28.039062 -25.09375 -28.75 C -25.832031 -29.46875 -26.738281 -29.828125 -27.8125 -29.828125 Z M -27.8125 -29.828125 "/></g></g></g><g fill="#ffffff" fill-opacity="1"><g transform="translate(174.083228, 450.07294)"><g><path d="M 11.765625 -23.40625 C 14.941406 -23.40625 17.378906 -22.425781 19.078125 -20.46875 C 20.785156 -18.519531 21.640625 -15.710938 21.640625 -12.046875 C 21.640625 -8.085938 20.734375 -5.039062 18.921875 -2.90625 C 17.117188 -0.769531 14.539062 0.296875 11.1875 0.296875 C 8.050781 0.296875 5.628906 -0.71875 3.921875 -2.75 C 2.222656 -4.78125 1.375 -7.664062 1.375 -11.40625 C 1.375 -15.257812 2.269531 -18.222656 4.0625 -20.296875 C 5.863281 -22.367188 8.429688 -23.40625 11.765625 -23.40625 Z M 11.578125 -21.0625 C 6.753906 -21.0625 4.34375 -17.945312 4.34375 -11.71875 C 4.34375 -8.414062 4.925781 -5.96875 6.09375 -4.375 C 7.269531 -2.78125 9.039062 -1.984375 11.40625 -1.984375 C 16.226562 -1.984375 18.640625 -5.15625 18.640625 -11.5 C 18.640625 -14.738281 18.050781 -17.140625 16.875 -18.703125 C 15.707031 -20.273438 13.941406 -21.0625 11.578125 -21.0625 Z M 11.578125 -21.0625 "/></g></g></g><g fill="#ffffff" fill-opacity="1"><g transform="translate(200.972236, 450.07294)"><g><path d="M 19.9375 -11.40625 L 19.90625 -8.796875 C 19.945312 -5.941406 19.195312 -3.71875 17.65625 -2.125 C 16.113281 -0.539062 13.921875 0.25 11.078125 0.25 C 8.347656 0.25 6.253906 -0.507812 4.796875 -2.03125 C 3.335938 -3.550781 2.628906 -5.695312 2.671875 -8.46875 L 2.71875 -11.609375 L 2.671875 -23.203125 L 5.53125 -23.203125 L 5.421875 -8.828125 C 5.398438 -6.660156 5.882812 -5.023438 6.875 -3.921875 C 7.863281 -2.828125 9.335938 -2.28125 11.296875 -2.28125 C 13.242188 -2.28125 14.722656 -2.796875 15.734375 -3.828125 C 16.753906 -4.867188 17.25 -6.414062 17.21875 -8.46875 L 17.078125 -23.203125 L 19.96875 -23.203125 Z M 19.9375 -11.40625 "/></g></g></g><g fill="#ffffff" fill-opacity="1"><g transform="translate(227.535545, 450.07294)"><g><path d="M 12.8125 -9.375 C 14.40625 -6.738281 16.40625 -3.84375 18.8125 -0.6875 L 18.78125 -0.328125 C 17.914062 0.015625 17.023438 0.234375 16.109375 0.328125 L 15.703125 0.078125 C 13.722656 -2.890625 11.953125 -5.785156 10.390625 -8.609375 L 6.15625 -8.609375 L 6.15625 -7.234375 L 6.296875 0 L 3.359375 0 L 3.546875 -6.984375 L 3.359375 -23.203125 L 10.453125 -23.234375 C 12.722656 -23.234375 14.476562 -22.660156 15.71875 -21.515625 C 16.96875 -20.367188 17.59375 -18.734375 17.59375 -16.609375 C 17.59375 -15.015625 17.175781 -13.582031 16.34375 -12.3125 C 15.507812 -11.050781 14.332031 -10.070312 12.8125 -9.375 Z M 6.1875 -11.078125 L 10.53125 -10.96875 C 13.226562 -11.738281 14.578125 -13.535156 14.578125 -16.359375 C 14.578125 -17.828125 14.175781 -18.925781 13.375 -19.65625 C 12.582031 -20.394531 11.394531 -20.789062 9.8125 -20.84375 L 6.296875 -20.734375 Z M 6.1875 -11.078125 "/></g></g></g><g fill="#ffffff" fill-opacity="1"><g transform="translate(251.529461, 450.07294)"><g/></g></g><g fill="#ffffff" fill-opacity="1"><g transform="translate(261.409747, 450.07294)"><g><path d="M 12.671875 -23.375 C 15.109375 -23.375 17.375 -22.832031 19.46875 -21.75 L 18.890625 -19 L 18.53125 -18.921875 C 17.375 -19.648438 16.304688 -20.171875 15.328125 -20.484375 C 14.347656 -20.796875 13.316406 -20.953125 12.234375 -20.953125 C 6.992188 -20.953125 4.375 -17.71875 4.375 -11.25 C 4.375 -8.144531 4.984375 -5.859375 6.203125 -4.390625 C 7.421875 -2.929688 9.3125 -2.203125 11.875 -2.203125 C 12.539062 -2.203125 13.21875 -2.257812 13.90625 -2.375 C 14.601562 -2.5 15.492188 -2.734375 16.578125 -3.078125 L 16.640625 -5.796875 L 16.609375 -9.265625 L 19.328125 -9.484375 L 19.25 -6.1875 L 19.390625 -1.125 C 17.828125 -0.632812 16.441406 -0.28125 15.234375 -0.0625 C 14.023438 0.144531 12.851562 0.25 11.71875 0.25 C 8.269531 0.25 5.679688 -0.722656 3.953125 -2.671875 C 2.234375 -4.628906 1.375 -7.453125 1.375 -11.140625 C 1.375 -15.117188 2.347656 -18.148438 4.296875 -20.234375 C 6.253906 -22.328125 9.046875 -23.375 12.671875 -23.375 Z M 12.671875 -23.375 "/></g></g></g><g fill="#ffffff" fill-opacity="1"><g transform="translate(287.032153, 450.07294)"><g><path d="M 19.9375 -11.40625 L 19.90625 -8.796875 C 19.945312 -5.941406 19.195312 -3.71875 17.65625 -2.125 C 16.113281 -0.539062 13.921875 0.25 11.078125 0.25 C 8.347656 0.25 6.253906 -0.507812 4.796875 -2.03125 C 3.335938 -3.550781 2.628906 -5.695312 2.671875 -8.46875 L 2.71875 -11.609375 L 2.671875 -23.203125 L 5.53125 -23.203125 L 5.421875 -8.828125 C 5.398438 -6.660156 5.882812 -5.023438 6.875 -3.921875 C 7.863281 -2.828125 9.335938 -2.28125 11.296875 -2.28125 C 13.242188 -2.28125 14.722656 -2.796875 15.734375 -3.828125 C 16.753906 -4.867188 17.25 -6.414062 17.21875 -8.46875 L 17.078125 -23.203125 L 19.96875 -23.203125 Z M 19.9375 -11.40625 "/></g></g></g><g fill="#ffffff" fill-opacity="1"><g transform="translate(313.595465, 450.07294)"><g><path d="M 6.15625 -7.234375 L 6.296875 0 L 3.359375 0 L 3.546875 -6.984375 L 3.359375 -23.203125 L 6.328125 -23.203125 Z M 6.15625 -7.234375 "/></g></g></g><g fill="#ffffff" fill-opacity="1"><g transform="translate(327.203199, 450.07294)"><g><path d="M 11.765625 -23.34375 C 15.066406 -23.34375 17.597656 -22.398438 19.359375 -20.515625 C 21.117188 -18.640625 22 -15.9375 22 -12.40625 C 22 -8.332031 21.046875 -5.207031 19.140625 -3.03125 C 17.234375 -0.863281 14.492188 0.21875 10.921875 0.21875 C 9.929688 0.21875 8.734375 0.195312 7.328125 0.15625 C 5.921875 0.125 4.613281 0.0703125 3.40625 0 L 3.359375 0 L 3.546875 -6.984375 L 3.359375 -23.203125 L 3.40625 -23.203125 Z M 11.40625 -2.203125 C 13.863281 -2.203125 15.75 -3.003906 17.0625 -4.609375 C 18.375 -6.210938 19.03125 -8.609375 19.03125 -11.796875 C 19.03125 -17.878906 16.535156 -20.921875 11.546875 -20.921875 C 10.023438 -20.921875 8.273438 -20.867188 6.296875 -20.765625 L 6.15625 -7.234375 L 6.265625 -2.421875 C 7.003906 -2.347656 7.898438 -2.289062 8.953125 -2.25 C 10.003906 -2.21875 10.820312 -2.203125 11.40625 -2.203125 Z M 11.40625 -2.203125 "/></g></g></g><g fill="#ffffff" fill-opacity="1"><g transform="translate(354.490279, 450.07294)"><g><path d="M 16.609375 -2.25 L 16.390625 0 L 3.359375 0 L 3.546875 -6.984375 L 3.359375 -23.203125 L 16.421875 -23.203125 L 16.578125 -22.90625 L 16.359375 -20.65625 L 10.890625 -20.765625 L 6.296875 -20.703125 L 6.21875 -13.09375 L 10.5625 -13.03125 L 14.40625 -13.140625 L 14.625 -12.875 L 14.359375 -10.640625 L 10.3125 -10.71875 L 6.1875 -10.671875 L 6.15625 -7.234375 L 6.265625 -2.421875 L 10.859375 -2.390625 L 16.421875 -2.53125 Z M 16.609375 -2.25 "/></g></g></g><g fill="#ffffff" fill-opacity="1"><g transform="translate(375.842415, 450.07294)"><g><path d="M 21.171875 -6.796875 L 21.234375 0 L 18.203125 0 L 6.1875 -18.5625 L 6 -18.5625 L 5.96875 -7.640625 L 6 0 L 3.40625 0 L 3.515625 -6.875 L 3.4375 -23.203125 L 6.4375 -23.203125 L 18.421875 -4.625 L 18.671875 -4.625 L 18.640625 -23.046875 L 21.34375 -23.265625 Z M 21.171875 -6.796875 "/></g></g></g><g fill="#ffffff" fill-opacity="1"><g transform="translate(404.468486, 450.07294)"><g><path d="M 11.65625 -23.375 C 14.09375 -23.375 16.203125 -22.796875 17.984375 -21.640625 L 17.40625 -19 L 17.078125 -18.921875 C 15.460938 -20.273438 13.601562 -20.953125 11.5 -20.953125 C 9.207031 -20.953125 7.445312 -20.160156 6.21875 -18.578125 C 4.988281 -17.003906 4.375 -14.695312 4.375 -11.65625 C 4.375 -8.59375 4.988281 -6.25 6.21875 -4.625 C 7.445312 -3.007812 9.1875 -2.203125 11.4375 -2.203125 C 12.5 -2.203125 13.550781 -2.394531 14.59375 -2.78125 C 15.644531 -3.164062 16.609375 -3.710938 17.484375 -4.421875 L 17.84375 -4.234375 L 17.59375 -1.484375 C 15.488281 -0.328125 13.351562 0.25 11.1875 0.25 C 8.070312 0.25 5.65625 -0.753906 3.9375 -2.765625 C 2.226562 -4.785156 1.375 -7.664062 1.375 -11.40625 C 1.375 -15.238281 2.265625 -18.191406 4.046875 -20.265625 C 5.835938 -22.335938 8.375 -23.375 11.65625 -23.375 Z M 11.65625 -23.375 "/></g></g></g><g fill="#ffffff" fill-opacity="1"><g transform="translate(427.195774, 450.07294)"><g><path d="M 16.609375 -2.25 L 16.390625 0 L 3.359375 0 L 3.546875 -6.984375 L 3.359375 -23.203125 L 16.421875 -23.203125 L 16.578125 -22.90625 L 16.359375 -20.65625 L 10.890625 -20.765625 L 6.296875 -20.703125 L 6.21875 -13.09375 L 10.5625 -13.03125 L 14.40625 -13.140625 L 14.625 -12.875 L 14.359375 -10.640625 L 10.3125 -10.71875 L 6.1875 -10.671875 L 6.15625 -7.234375 L 6.265625 -2.421875 L 10.859375 -2.390625 L 16.421875 -2.53125 Z M 16.609375 -2.25 "/></g></g></g></svg>