<svg width="42" height="42" viewBox="0 0 42 42" fill="none" xmlns="http://www.w3.org/2000/svg">
<path d="M33.5118 0.00244141H8.48293C3.79526 0.00244141 0 3.7977 0 8.48537V33.5195C0 38.2019 3.79526 41.9972 8.48293 41.9972H33.5171C38.1995 41.9972 42 38.2019 42 33.5142V8.48537C41.9948 3.7977 38.1995 0.00244141 33.5118 0.00244141Z" fill="url(#paint0_linear_110_22)"/>
<path d="M20.8189 9.65091L21.6693 8.18107C22.1942 7.2624 23.3648 6.95274 24.2835 7.47765C25.2021 8.00257 25.5118 9.17316 24.9869 10.0918L16.7926 24.2756H22.7191C24.6404 24.2756 25.7165 26.5328 24.8819 28.0971H7.50659C6.44626 28.0971 5.59584 27.2467 5.59584 26.1863C5.59584 25.126 6.44626 24.2756 7.50659 24.2756H12.378L18.6143 13.4672L16.6668 10.0866C16.1419 9.16791 16.4515 8.00782 17.3702 7.4724C18.2889 6.94749 19.4489 7.25715 19.9844 8.17582L20.8189 9.65091Z" fill="white"/>
<path d="M13.4489 30.0658L11.6116 33.2522C11.0867 34.1708 9.9161 34.4805 8.99743 33.9556C8.07876 33.4307 7.76909 32.2601 8.29401 31.3414L9.65885 28.9792C11.2021 28.5015 12.4567 28.869 13.4489 30.0658Z" fill="white"/>
<path d="M29.2703 24.2863H34.2414C35.3018 24.2863 36.1522 25.1368 36.1522 26.1971C36.1522 27.2574 35.3018 28.1079 34.2414 28.1079H31.4802L33.3437 31.3414C33.8687 32.2601 33.559 33.4202 32.6403 33.9556C31.7217 34.4805 30.5616 34.1709 30.0262 33.2522C26.8871 27.8086 24.5301 23.7352 22.9658 21.0213C21.3647 18.2601 22.5091 15.4884 23.6377 14.5488C24.8924 16.7011 26.7664 19.9504 29.2703 24.2863Z" fill="white"/>
<defs>
<linearGradient id="paint0_linear_110_22" x1="21" y1="0.00244141" x2="21" y2="41.9972" gradientUnits="userSpaceOnUse">
<stop stop-color="#00BFFC"/>
<stop offset="1" stop-color="#0073F6"/>
</linearGradient>
</defs>
</svg>
