<svg width="42" height="42" viewBox="0 0 42 42" fill="none" xmlns="http://www.w3.org/2000/svg">
<g clip-path="url(#clip0_175_2574)">
<path d="M40.8001 10.1737C40.8001 8.27388 39.2546 6.72842 37.3548 6.72842C36.3794 6.72842 35.4978 7.13666 34.8704 7.79035L21.4253 0.027798C21.1715 -0.118641 20.8591 -0.118641 20.6053 0.027798L7.15981 7.79035C6.53239 7.13666 5.6512 6.72842 4.67579 6.72842C2.77593 6.72842 1.23047 8.27388 1.23047 10.1737C1.23047 11.7907 2.35039 13.1503 3.85548 13.5194V29.0391C3.85548 29.3319 4.01185 29.6027 4.26563 29.7495L17.7066 37.5098C17.6175 37.8155 17.5688 38.1385 17.5688 38.4727C17.5688 40.3722 19.1143 41.918 21.0142 41.918C22.9137 41.918 24.4592 40.3722 24.4592 38.4727C24.4592 38.1388 24.4108 37.8164 24.3217 37.5107L37.7649 29.7495C38.0187 29.603 38.1751 29.3319 38.1751 29.0391V13.5194C39.6802 13.1503 40.8001 11.7907 40.8001 10.1737ZM2.8711 10.1737C2.8711 9.17847 3.68052 8.36905 4.67579 8.36905C5.67074 8.36905 6.48016 9.17847 6.48016 10.1737C6.48016 11.1687 5.67074 11.9784 4.67579 11.9784C3.68052 11.9784 2.8711 11.1687 2.8711 10.1737ZM21.0142 40.2774C20.0189 40.2774 19.2095 39.468 19.2095 38.4727C19.2095 37.4777 20.0189 36.668 21.0142 36.668C22.0091 36.668 22.8188 37.4777 22.8188 38.4727C22.8188 39.468 22.0091 40.2774 21.0142 40.2774ZM23.5001 36.0909C22.8724 35.4362 21.9905 35.0274 21.0142 35.0274C20.0384 35.0274 19.1566 35.4359 18.5292 36.0899L5.49611 28.5655V13.5194C7.00087 13.1503 8.12079 11.7907 8.12079 10.1737C8.12079 9.83921 8.07209 9.51589 7.98269 9.20956L21.0151 1.68541L34.0479 9.20956C33.9585 9.51589 33.9098 9.83889 33.9098 10.1737C33.9098 11.7907 35.0297 13.1503 36.5344 13.5194V28.5655L23.5001 36.0909ZM37.3548 11.9784C36.3598 11.9784 35.5501 11.1687 35.5501 10.1737C35.5501 9.17847 36.3598 8.36905 37.3548 8.36905C38.35 8.36905 39.1595 9.17847 39.1595 10.1737C39.1595 11.1687 38.35 11.9784 37.3548 11.9784Z" fill="#666666"/>
<path d="M32.2534 12.6434L21.4253 6.39206C21.1715 6.24562 20.8591 6.24562 20.6053 6.39206L9.7771 12.6434C9.52332 12.7902 9.36694 13.061 9.36694 13.3538V25.8569C9.36694 26.1498 9.52332 26.4209 9.7771 26.5673L20.6053 32.819C20.7322 32.8921 20.8735 32.9289 21.0151 32.9289C21.1571 32.9289 21.2984 32.8921 21.4253 32.819L32.2534 26.5673C32.5072 26.4209 32.6636 26.1498 32.6636 25.8569V13.3538C32.6636 13.061 32.5072 12.7902 32.2534 12.6434ZM21.0151 8.04967L30.2026 13.3538L21.0151 18.6583L11.8279 13.3538L21.0151 8.04967ZM21.8354 30.6878V26.9884C21.8354 26.5353 21.4682 26.1681 21.0151 26.1681C20.5623 26.1681 20.1951 26.5353 20.1951 26.9884V30.6878L11.0076 25.3833V14.7746L20.6053 20.3159C20.7322 20.389 20.8735 20.4258 21.0151 20.4258C21.1571 20.4258 21.2984 20.389 21.4253 20.3159L31.023 14.7746V25.3833L21.8354 30.6878Z" fill="#666666"/>
<path d="M21.0144 22.4766C20.7978 22.4766 20.5869 22.564 20.4334 22.7169C20.2809 22.8694 20.1931 23.0809 20.1931 23.2969C20.1931 23.5125 20.2809 23.724 20.4334 23.8765C20.5869 24.0294 20.7978 24.1172 21.0144 24.1172C21.23 24.1172 21.4418 24.0294 21.5944 23.8765C21.7469 23.724 21.8347 23.5125 21.8347 23.2969C21.8347 23.0809 21.7469 22.8694 21.5944 22.7169C21.4418 22.564 21.23 22.4766 21.0144 22.4766Z" fill="#666666"/>
</g>
<defs>
<clipPath id="clip0_175_2574">
<rect width="42" height="42" fill="white"/>
</clipPath>
</defs>
</svg>
