<svg width="31" height="31" viewBox="0 0 31 31" fill="none" xmlns="http://www.w3.org/2000/svg">
<circle cx="15.5" cy="15.5" r="15.5" fill="#EFEFEF"/>
<g clip-path="url(#clip0_80_722)">
<path d="M20.8991 19.826L15.3185 27.1801C15.1587 27.3908 14.8412 27.3906 14.6815 27.1801L9.10089 19.826C8.97088 19.655 9.16489 19.4275 9.35389 19.5285L14.812 22.4365C14.928 22.4985 15.0675 22.499 15.184 22.4385L20.646 19.5285C20.835 19.4275 21.0291 19.655 20.8991 19.826Z" fill="#D1E7FF"/>
<path d="M20.899 19.826C20.899 19.826 15.3169 27.1822 15.3161 27.1832C15.2138 27.3154 15 27.2354 15 27.0683V22.6439C15 22.5778 15.0364 22.5171 15.0947 22.486L20.646 19.5285C20.835 19.4275 21.0291 19.655 20.899 19.826Z" fill="#B9DCFF"/>
<path d="M21.2041 14.3394L15.186 17.5019C15.0713 17.5632 14.929 17.5633 14.814 17.5019L8.79593 14.3394C8.58493 14.2284 8.51743 13.9584 8.65093 13.7609L14.669 4.88777C14.8268 4.65417 15.1721 4.65357 15.3305 4.88727L21.3491 13.7609C21.4826 13.9584 21.4151 14.2284 21.2041 14.3394Z" fill="#D1E7FF"/>
<path d="M21.2041 14.3394C21.2041 14.3394 15.1849 17.5025 15.1843 17.5028C15.1005 17.547 15 17.4816 15 17.3869V4.87262C15 4.77922 15.0983 4.71312 15.1815 4.75532C15.2391 4.78452 15.2907 4.82847 15.3305 4.88722L21.3491 13.7608C21.4826 13.9583 21.4151 14.2284 21.2041 14.3394Z" fill="#B9DCFF"/>
<path d="M15.168 4.74924C15.088 4.72024 15 4.78414 15 4.87264V11.5351C15 11.7774 14.8894 12.0056 14.7015 12.1587C13.4628 13.1682 11.9391 13.4839 10.3709 13.2973C9.77766 13.2267 9.47301 12.5488 9.80831 12.0543L14.6689 4.88774C14.7842 4.71719 15.0012 4.67059 15.168 4.74924Z" fill="#E8F3FF"/>
<path d="M14.2517 22.5213C13.9865 23.2666 13.3803 23.8457 12.5795 24.0302C12.4285 24.0649 12.2715 24.004 12.1778 23.8807L9.10089 19.826C8.97088 19.655 9.16489 19.4275 9.35389 19.5285L14.0616 22.037C14.2355 22.1296 14.3178 22.3357 14.2517 22.5213Z" fill="#E8F3FF"/>
<path d="M8.21395 14.4855L14.814 17.954C14.9305 18.0153 15.0697 18.0153 15.1862 17.954L20.1522 15.3442C20.3477 15.2415 20.4229 14.9996 20.3202 14.8041C20.2174 14.6085 19.9755 14.5333 19.78 14.6361L15 17.1481L8.98226 13.9855L14.6001 5.70221V15.0434C14.6001 15.2643 14.7792 15.4435 15.0001 15.4435C15.221 15.4435 15.4001 15.2643 15.4001 15.0434V5.70221L21.2691 14.3559C21.3931 14.5388 21.642 14.5864 21.8247 14.4625C22.0075 14.3385 22.0553 14.0897 21.9312 13.9069C14.8943 3.52998 15.3207 4.11744 15.1882 4.04679C15.0729 3.98564 14.9319 3.98319 14.812 4.04679C14.677 4.11879 15.0924 3.55133 8.06894 13.9069C7.93519 14.1041 8.00269 14.3744 8.21395 14.4855Z" fill="#2E58FF"/>
<path d="M21.9542 16.4453C21.8514 16.2498 21.6095 16.1745 21.414 16.2773L15 19.6481L8.58598 16.2773C8.39048 16.1747 8.14863 16.2498 8.04578 16.4453C7.94303 16.6409 8.01823 16.8827 8.21378 16.9855L14.8139 20.4541C14.9304 20.5153 15.0695 20.5153 15.186 20.4541L21.7861 16.9855C21.9817 16.8827 22.0569 16.6409 21.9542 16.4453Z" fill="#2E58FF"/>
<path d="M21.262 18.747L14.8119 22.1836C14.6748 22.2566 14.6002 22.3981 14.6002 22.5435V24.5146C14.6002 24.7355 14.7791 24.9146 15 24.9146C15.2209 24.9146 15.4 24.7355 15.4 24.5146V22.7768L20.0298 20.31L15 26.9384L9.9702 20.31L12.62 21.7218C12.8149 21.8256 13.0572 21.7518 13.1611 21.5568C13.265 21.3619 13.1912 21.1196 12.9962 21.0157L8.73798 18.7469C8.57223 18.6586 8.36722 18.6976 8.24537 18.8406C8.12352 18.9836 8.11762 19.1922 8.23122 19.3418L14.6813 27.8419C14.8414 28.0529 15.1588 28.0525 15.3186 27.8419L21.7687 19.3418C21.8823 19.1922 21.8764 18.9836 21.7546 18.8406C21.6328 18.6976 21.4279 18.6586 21.262 18.747Z" fill="#2E58FF"/>
</g>
<defs>
<clipPath id="clip0_80_722">
<rect width="24" height="24" fill="white" transform="translate(3 4)"/>
</clipPath>
</defs>
</svg>
