<svg width="47" height="47" viewBox="0 0 47 47" fill="none" xmlns="http://www.w3.org/2000/svg">
<path d="M35.0523 30.9927L24.1237 45.3945C23.8107 45.8073 23.189 45.8069 22.8762 45.3945L11.9476 30.9927C11.693 30.6579 12.0729 30.2123 12.443 30.4101L23.1318 36.105C23.3589 36.2265 23.6321 36.2274 23.8603 36.109L34.5568 30.4101C34.927 30.2123 35.307 30.6579 35.0523 30.9927Z" fill="#D1E7FF"/>
<path d="M35.0524 30.9927C35.0524 30.9927 24.1206 45.3987 24.119 45.4007C23.9188 45.6595 23.5 45.5029 23.5 45.1757V36.5111C23.5 36.3818 23.5714 36.2629 23.6856 36.202L34.5569 30.4101C34.927 30.2123 35.3071 30.6579 35.0524 30.9927Z" fill="#B9DCFF"/>
<path d="M35.6496 20.2481L23.8642 26.4415C23.6396 26.5615 23.3608 26.5617 23.1357 26.4415L11.3503 20.2481C10.9371 20.0308 10.8049 19.502 11.0663 19.1152L22.8517 1.73869C23.1607 1.28121 23.8369 1.28004 24.1472 1.73771L35.9336 19.1152C36.1949 19.502 36.0628 20.0308 35.6496 20.2481Z" fill="#D1E7FF"/>
<path d="M35.6497 20.2478C35.6497 20.2478 23.862 26.4423 23.8608 26.443C23.6968 26.5296 23.5 26.4014 23.5 26.216V1.7088C23.5 1.52589 23.6924 1.39645 23.8554 1.47909C23.9681 1.53627 24.0692 1.62234 24.1471 1.7374L35.9335 19.1149C36.195 19.5017 36.0629 20.0304 35.6497 20.2478Z" fill="#B9DCFF"/>
<path d="M23.829 1.46715C23.6724 1.41036 23.5 1.5355 23.5 1.70881V14.7562C23.5 15.2307 23.2834 15.6776 22.9156 15.9773C20.4897 17.9542 17.5058 18.5726 14.4348 18.2071C13.273 18.0689 12.6764 16.7413 13.333 15.773L22.8517 1.73838C23.0774 1.40438 23.5025 1.31312 23.829 1.46715Z" fill="#E8F3FF"/>
<path d="M22.0346 36.2711C21.5152 37.7307 20.3282 38.8647 18.7598 39.226C18.4642 39.294 18.1567 39.1748 17.9732 38.9332L11.9476 30.9927C11.693 30.6579 12.0729 30.2123 12.443 30.4101L21.6622 35.3227C22.0028 35.5041 22.1639 35.9077 22.0346 36.2711Z" fill="#E8F3FF"/>
<path d="M10.2105 20.5341L23.1357 27.3267C23.3638 27.4466 23.6363 27.4466 23.8645 27.3267L33.5895 22.2158C33.9725 22.0146 34.1197 21.541 33.9185 21.158C33.7172 20.7751 33.2435 20.6277 32.8606 20.829L23.4999 25.7483L11.7151 19.555L22.7167 3.3335V21.6267C22.7167 22.0594 23.0674 22.4101 23.5 22.4101C23.9326 22.4101 24.2834 22.0594 24.2834 21.6267V3.3335L35.7769 20.2804C36.0196 20.6386 36.5071 20.7317 36.8649 20.489C37.223 20.2462 37.3164 19.7591 37.0735 19.4011C23.2928 -0.920458 24.1279 0.229982 23.8684 0.0916234C23.6426 -0.0281304 23.3666 -0.0329284 23.1318 0.0916234C22.8674 0.232626 23.6808 -0.878648 9.92652 19.401C9.66459 19.7873 9.79678 20.3166 10.2105 20.5341Z" fill="#2E58FF"/>
<path d="M37.1186 24.3722C36.9173 23.9893 36.4436 23.8419 36.0607 24.0432L23.5 30.6443L10.9392 24.0432C10.5564 23.8422 10.0827 23.9893 9.88132 24.3722C9.6801 24.7552 9.82737 25.2288 10.2103 25.43L23.1355 32.2226C23.3637 32.3426 23.6362 32.3426 23.8643 32.2226L36.7895 25.43C37.1726 25.2288 37.3198 24.7552 37.1186 24.3722Z" fill="#2E58FF"/>
<path d="M35.7632 28.8792L23.1318 35.6092C22.8633 35.7523 22.7172 36.0293 22.7171 36.3141V40.1742C22.7171 40.6068 23.0675 40.9575 23.5001 40.9575C23.9327 40.9575 24.2835 40.6068 24.2835 40.1742V36.7708L33.3502 31.9402L23.5 44.9208L13.6501 31.9401L18.8393 34.7049C19.2209 34.9083 19.6955 34.7637 19.899 34.3818C20.1024 34.0001 19.9578 33.5256 19.576 33.3222L11.237 28.8791C10.9124 28.7061 10.5109 28.7825 10.2723 29.0625C10.0337 29.3426 10.0221 29.751 10.2446 30.0441L22.876 46.6901C23.1895 47.1034 23.8111 47.1026 24.1241 46.6901L36.7555 30.0441C36.9779 29.751 36.9663 29.3426 36.7278 29.0625C36.4894 28.7826 36.0881 28.7061 35.7632 28.8792Z" fill="#2E58FF"/>
</svg>
