<svg width="42" height="42" viewBox="0 0 42 42" fill="none" xmlns="http://www.w3.org/2000/svg">
<g clip-path="url(#clip0_110_43)">
<path d="M29.7631 20.9999L3.89517 41.0672C2.90464 40.2926 2.2374 39.0893 2.2374 37.6546V4.34511C2.2374 2.91047 2.90464 1.70723 3.89517 0.933594L29.7631 20.9999Z" fill="#9DC6FB"/>
<path d="M37.5927 24.7573L31.3337 28.3713L25.8476 27.6853L23.9633 20.9998L24.9202 14.5992L31.3337 13.6294L37.5927 17.2423C40.4857 18.9125 40.4857 23.0872 37.5927 24.7573Z" fill="#FFE07D"/>
<path d="M31.3332 28.3715L8.74577 41.4122C7.0953 42.3645 5.2103 42.0949 3.89551 41.0673L23.9628 21L31.3332 28.3715Z" fill="#DD5790"/>
<path d="M31.3332 13.6294L23.9628 20.9999L3.89551 0.93362C5.2103 -0.0951341 7.0953 -0.364689 8.74577 0.587612L31.3332 13.6294Z" fill="#95D6A4"/>
<path d="M7.12785 37.6547C7.12785 37.9462 7.15492 38.2276 7.20726 38.4981L3.89541 41.0671C2.90497 40.293 2.2374 39.0897 2.2374 37.6547V4.34519C2.2374 2.91112 2.90505 1.70772 3.89541 0.933594L7.20726 3.50265C7.15484 3.77302 7.12785 4.05447 7.12785 4.34519V37.6547Z" fill="#80B4FB"/>
<path d="M9.03352 41.2473L8.74617 41.413C7.0957 42.3645 5.21038 42.095 3.89542 41.0674L7.13122 37.8315C7.18364 39.1888 7.83603 40.3254 8.78505 41.0674H8.78587C8.86618 41.1299 8.94903 41.1906 9.03352 41.2473Z" fill="#DA387D"/>
<path d="M8.78596 0.933789L8.78678 0.935512L8.78506 0.933789C7.83522 1.67576 7.18365 2.81329 7.13123 4.16959L3.89551 0.933789C5.21039 -0.0946366 7.09579 -0.364191 8.74618 0.588192L9.03353 0.753813C8.94904 0.810414 8.86619 0.871282 8.78596 0.933789Z" fill="#78C2A4"/>
</g>
<defs>
<clipPath id="clip0_110_43">
<rect width="42" height="42" fill="white"/>
</clipPath>
</defs>
</svg>
