<svg width="16" height="16" viewBox="0 0 16 16" fill="none" xmlns="http://www.w3.org/2000/svg">
<path d="M8 16C12.4183 16 16 12.4183 16 8C16 3.58172 12.4183 0 8 0C3.58172 0 0 3.58172 0 8C0 12.4183 3.58172 16 8 16Z" fill="url(#paint0_linear_47_95)"/>
<path d="M12.9039 6.40662C12.8487 6.23694 12.7021 6.11325 12.5255 6.08759L9.68891 5.67541L8.42035 3.10503C8.34138 2.94503 8.17841 2.84375 8 2.84375C7.8216 2.84375 7.65863 2.94503 7.57966 3.10506L6.3111 5.67544L3.4745 6.08763C3.29794 6.11328 3.15122 6.23697 3.0961 6.40666C3.04097 6.57634 3.08697 6.76263 3.21472 6.88716L5.26732 8.88791L4.78275 11.713C4.7526 11.8889 4.82488 12.0666 4.96922 12.1715C5.1136 12.2764 5.30494 12.2902 5.46288 12.2072L8 10.8733L10.5371 12.2072C10.6963 12.2908 10.8875 12.2756 11.0308 12.1715C11.1751 12.0666 11.2474 11.8889 11.2173 11.713L10.7327 8.88791L12.7853 6.88716C12.913 6.76259 12.959 6.57631 12.9039 6.40662Z" fill="url(#paint1_linear_47_95)"/>
<defs>
<linearGradient id="paint0_linear_47_95" x1="8" y1="16" x2="8" y2="0" gradientUnits="userSpaceOnUse">
<stop stop-color="#FD5900"/>
<stop offset="1" stop-color="#FFDE00"/>
</linearGradient>
<linearGradient id="paint1_linear_47_95" x1="8" y1="12.261" x2="8" y2="2.84375" gradientUnits="userSpaceOnUse">
<stop stop-color="#FFE59A"/>
<stop offset="1" stop-color="#FFFFD5"/>
</linearGradient>
</defs>
</svg>
