<svg xmlns="http://www.w3.org/2000/svg" viewBox="0 0 1069.13 255.04"><defs><style>.cls-1{fill:#fff;}</style></defs><g id="Layer_2" data-name="Layer 2"><g id="Layer_1-2" data-name="Layer 1"><path class="cls-1" d="M444.32,6V156.88H414.07V92.7H349.45v64.18H319.19V6h30.26V68h64.62V6Z"/><path class="cls-1" d="M510.45,30.49V68.31h50.79v24H510.45v40h57.27v24.63H480.2V5.82h87.52V30.49Z"/><path class="cls-1" d="M707.77,92.27A37.22,37.22,0,0,1,716,116a38.18,38.18,0,0,1-6,21.29,39.49,39.49,0,0,1-17.13,14.37q-11.24,5.19-26.58,5.18h-65V6h62.24q15.35,0,26.48,5t16.85,13.83A36.18,36.18,0,0,1,712.52,45q0,13.19-7,22a37.56,37.56,0,0,1-18.67,12.52A33.87,33.87,0,0,1,707.77,92.27Zm-76.29-24h27.66q10.8,0,16.64-4.86t5.84-13.92q0-9.08-5.84-14t-16.64-5H631.48Zm47.65,58.78q6.18-5.19,6.16-14.69,0-9.73-6.48-15.24T661.3,91.61H631.48v40.63H662q11,0,17.18-5.18Z"/><path class="cls-1" d="M777.35,148.49a74.25,74.25,0,0,1-28.09-27.56Q738.85,103.29,738.85,81q0-22,10.38-39.66a74.25,74.25,0,0,1,28.1-27.55,81.25,81.25,0,0,1,77.9,0,73.61,73.61,0,0,1,27.88,27.55Q893.39,59,893.39,81q0,22.26-10.28,39.87a73.24,73.24,0,0,1-28,27.56,81,81,0,0,1-77.79,0Zm62.89-23.24a42.09,42.09,0,0,0,16.22-17.61q5.82-11.44,5.84-26.58t-5.84-26.48a41.66,41.66,0,0,0-16.22-17.39,46.82,46.82,0,0,0-24-6,47.52,47.52,0,0,0-24.09,6,41.54,41.54,0,0,0-16.3,17.36Q770,65.92,770,81t5.84,26.58a41.9,41.9,0,0,0,16.32,17.61,46.59,46.59,0,0,0,24.1,6.16,45.91,45.91,0,0,0,24-6.16Z"/><path class="cls-1" d="M953.05,148.49A74.25,74.25,0,0,1,925,120.93q-10.38-17.61-10.38-39.87,0-22,10.38-39.66a74.3,74.3,0,0,1,28.09-27.55,81.27,81.27,0,0,1,77.91,0,73.55,73.55,0,0,1,27.89,27.52Q1069.13,59,1069.13,81q0,22.26-10.28,39.87a73.18,73.18,0,0,1-28,27.59A81.05,81.05,0,0,1,953.05,148.49Zm62.9-23.24a42.13,42.13,0,0,0,16.21-17.61Q1038,96.2,1038,81.06t-5.84-26.48A41.7,41.7,0,0,0,1016,37.19a46.87,46.87,0,0,0-24-6,47.53,47.53,0,0,0-24.1,6,41.54,41.54,0,0,0-16.32,17.39q-5.84,11.37-5.84,26.48t5.84,26.58a42,42,0,0,0,16.32,17.58,46.59,46.59,0,0,0,24.1,6.16,46,46,0,0,0,24-6.16Z"/><path class="cls-1" d="M320.44,215.49H327v29.67h18.41v5.54H320.44Z"/><path class="cls-1" d="M402.12,245.19v5.49H375.71V215.49h25.7V221H382.25v9.16h17v5.36h-17v9.7Z"/><path class="cls-1" d="M457.39,242.49h-17.6l-3.47,8.15h-6.74l15.84-35.15h6.43l15.89,35.21h-6.83Zm-2.16-5.13L448.59,222,442,237.36Z"/><path class="cls-1" d="M502.76,221H491.09v-5.51H521V221H509.29V250.7h-6.53Z"/><path class="cls-1" d="M582.32,215.49V250.7h-6.53V235.59H557.58v15.09H551V215.49h6.54V230h18.21V215.49Z"/><path class="cls-1" d="M643.33,245.19v5.49H616.94V215.49h25.7V221H623.47v9.16h17v5.36h-17v9.7Z"/><path class="cls-1" d="M698.85,250.68l-7.19-10.31H682.3v10.26h-6.54V215.49h14.49a19.62,19.62,0,0,1,8,1.51,11.8,11.8,0,0,1,5.21,4.32,12.34,12.34,0,0,1,1.81,6.69,12,12,0,0,1-1.94,6.84,11.54,11.54,0,0,1-5.56,4.28l8.1,11.57Zm-2.36-27.87C695,221.61,692.85,221,690,221h-7.65v14H690c2.85,0,5-.62,6.48-1.84a7.2,7.2,0,0,0,.2-10.19l-.2-.2Z"/><path class="cls-1" d="M783.39,248.84a17.09,17.09,0,0,1-6.74-6.46,18.83,18.83,0,0,1,0-18.61,17.28,17.28,0,0,1,6.76-6.46,21.21,21.21,0,0,1,17.53-.83,16.16,16.16,0,0,1,6,4.37l-4.22,4a12.4,12.4,0,0,0-9.41-4.12,13.24,13.24,0,0,0-6.46,1.56,11.33,11.33,0,0,0-4.47,4.4,13.45,13.45,0,0,0,0,12.77,11.2,11.2,0,0,0,4.47,4.4,13.1,13.1,0,0,0,6.48,1.59,12.21,12.21,0,0,0,9.41-4.18l4.22,4a15.7,15.7,0,0,1-6.06,4.38,21.22,21.22,0,0,1-17.51-.81Z"/><path class="cls-1" d="M861.46,250.68l-7.19-10.31H845v10.26h-6.53V215.49h14.47a19.54,19.54,0,0,1,8,1.51,11.66,11.66,0,0,1,5.22,4.32,13.21,13.21,0,0,1-.12,13.53,11.54,11.54,0,0,1-5.56,4.28l8.09,11.57Zm-2.36-27.87c-1.47-1.2-3.64-1.81-6.49-1.81H845v14h7.64c2.85,0,5-.62,6.49-1.84a7.2,7.2,0,0,0,.2-10.19c-.06-.07-.13-.13-.2-.2Z"/><path class="cls-1" d="M923.19,242.49H905.57l-3.47,8.15h-6.74l15.84-35.15h6.44l15.9,35.21H926.7ZM921,237.36,914.38,222l-6.6,15.39Z"/><path class="cls-1" d="M969.7,221v10.72h17v5.53h-17v13.48h-6.54V215.49h25.69V221Z"/><path class="cls-1" d="M1027.74,221h-11.67v-5.51H1046V221h-11.67V250.7h-6.54Z"/><path class="cls-1" d="M150.88,192.61c8.09-10.18,12.65-18.06,16-26.24,4.85-11.67,10-24.06,5.37-37.61-.78-2.3-5.84-16.35-19.55-21.33-11.7-4.26-22.48.71-30.46,4.35a57.3,57.3,0,0,0-10.19,6,74.52,74.52,0,0,0-13.44,13.27,81.14,81.14,0,0,0-12.29,20.45l0,.09V6.8a127.56,127.56,0,0,0,1.32,241.86c7.84-5.79,14.64-11.07,20.35-15.62C130.18,215.34,141,205.06,150.88,192.61Z"/><path class="cls-1" d="M127.51,0A130.07,130.07,0,0,0,112.1.93V83.61c7.2-3.77,29.45-14,53.48-4.52A57.63,57.63,0,0,1,191.92,100c13.92,20.56,9,43.56,7.25,51.64-4,18.45-13.72,30.62-21.55,40.39-8.08,10.08-15.72,16.45-27.36,26.11a280.32,280.32,0,0,1-30.47,22.39C114.22,244,107.49,248,99.63,252A127.53,127.53,0,1,0,127.51,0Z"/></g></g></svg>